<svg width="41" height="41" viewBox="0 0 41 41" fill="none" xmlns="http://www.w3.org/2000/svg">
  <defs>
    <radialGradient id="paint0_radial" cx="0" cy="0" r="1" gradientUnits="userSpaceOnUse" gradientTransform="translate(20.5685 20.5) rotate(-90) scale(17.5)">
      <stop stop-color="#FADB36"/>
      <stop offset="0.572917" stop-color="#FF701E"/>
      <stop offset="1" stop-color="#FF5D2C"/>
    </radialGradient>
    <radialGradient id="paint1_radial" cx="0" cy="0" r="1" gradientUnits="userSpaceOnUse" gradientTransform="translate(20.4315 20.5) rotate(-90) scale(17)">
      <stop stop-color="#FFD601"/>
      <stop offset="0.515625" stop-color="#FAA139"/>
      <stop offset="1" stop-color="#FA8E3B"/>
    </radialGradient>
    <radialGradient id="paint2_radial" cx="0" cy="0" r="1" gradientUnits="userSpaceOnUse" gradientTransform="translate(20.5 20.5) rotate(90) scale(17.5)">
      <stop stop-color="#AF6D58"/>
      <stop offset="1" stop-color="#AF6D58" stop-opacity="0"/>
    </radialGradient>
    <radialGradient id="paint3_radial" cx="0" cy="0" r="1" gradientUnits="userSpaceOnUse" gradientTransform="translate(20.5685 20.5) rotate(-90) scale(17.5)">
      <stop stop-color="#FADB36"/>
      <stop offset="0.572917" stop-color="#FF701E"/>
      <stop offset="1" stop-color="#FF5D2C"/>
    </radialGradient>
    <radialGradient id="paint4_radial" cx="0" cy="0" r="1" gradientUnits="userSpaceOnUse" gradientTransform="translate(20.4315 20.5) rotate(-90) scale(17)">
      <stop stop-color="#FFD601"/>
      <stop offset="0.515625" stop-color="#FAA139"/>
      <stop offset="1" stop-color="#FA8E3B"/>
    </radialGradient>
    <radialGradient id="paint5_radial" cx="0" cy="0" r="1" gradientUnits="userSpaceOnUse" gradientTransform="translate(20.5 20.5685) rotate(-180) scale(17.5)">
      <stop offset="0.0306919" stop-color="#FBCE34"/>
      <stop offset="0.572917" stop-color="#FA6A43"/>
      <stop offset="1" stop-color="#FF5D2C"/>
    </radialGradient>
    <radialGradient id="paint6_radial" cx="0" cy="0" r="1" gradientUnits="userSpaceOnUse" gradientTransform="translate(20.5 20.4315) rotate(-180) scale(17)">
      <stop stop-color="#FFD601"/>
      <stop offset="0.515625" stop-color="#FAB537"/>
      <stop offset="1" stop-color="#FA8E3B"/>
    </radialGradient>
    <radialGradient id="paint7_radial" cx="0" cy="0" r="1" gradientUnits="userSpaceOnUse" gradientTransform="translate(21 20.5685) scale(17.5)">
      <stop offset="0.0989583" stop-color="#FBCD33"/>
      <stop offset="0.572917" stop-color="#FA6A43"/>
      <stop offset="1" stop-color="#FF5D2C"/>
    </radialGradient>
    <radialGradient id="paint8_radial" cx="0" cy="0" r="1" gradientUnits="userSpaceOnUse" gradientTransform="translate(21 20.4315) scale(17)">
      <stop stop-color="#FFD601"/>
      <stop offset="0.515625" stop-color="#FAB537"/>
      <stop offset="1" stop-color="#FA8E3B"/>
    </radialGradient>
    <radialGradient id="paint9_radial" cx="0" cy="0" r="1" gradientUnits="userSpaceOnUse" gradientTransform="translate(20.5685 21) rotate(90) scale(17.5)">
      <stop stop-color="#FADB36"/>
      <stop offset="0.572917" stop-color="#FF701E"/>
      <stop offset="1" stop-color="#FF5D2C"/>
    </radialGradient>
    <radialGradient id="paint10_radial" cx="0" cy="0" r="1" gradientUnits="userSpaceOnUse" gradientTransform="translate(20.4315 21) rotate(90) scale(17)">
      <stop stop-color="#FFD601"/>
      <stop offset="0.515625" stop-color="#FAA139"/>
      <stop offset="1" stop-color="#FA8E3B"/>
    </radialGradient>
  </defs>
  <path d="M20.5 20.5L20.5 3L26 15L20.5 20.5Z" fill="url(#paint0_radial)"/>
  <path d="M20.5 20.5L20.5 3L15 15L20.5 20.5Z" fill="url(#paint1_radial)"/>
  <circle cx="20.5" cy="20.5" r="17.5" fill="url(#paint2_radial)"/>
  <path d="M20.5 20.5L20.5 3L26 15L20.5 20.5Z" fill="url(#paint3_radial)"/>
  <path d="M20.5 20.5L20.5 3L15 15L20.5 20.5Z" fill="url(#paint4_radial)"/>
  <path d="M20.5 20.5L3 20.5L15 26L20.5 20.5Z" fill="url(#paint5_radial)"/>
  <path d="M20.5 20.5L3 20.5L15 15L20.5 20.5Z" fill="url(#paint6_radial)"/>
  <path d="M20.5 20.5L38 20.5L26 26L20.5 20.5Z" fill="url(#paint7_radial)"/>
  <path d="M20.5 20.5L38 20.5L26 15L20.5 20.5Z" fill="url(#paint8_radial)"/>
  <path d="M20.5 20.5L20.5 38L26 26L20.5 20.5Z" fill="url(#paint9_radial)"/>
  <path d="M20.5 20.5L20.5 38L15 26L20.5 20.5Z" fill="url(#paint10_radial)"/>

</svg>
