<svg xmlns="http://www.w3.org/2000/svg" width="67" height="110" viewBox="0 0 67 110" fill="none">
  <defs>
    <filter id="filter0_d" x="0" y="0" width="67" height="110" filterUnits="userSpaceOnUse" color-interpolation-filters="sRGB">
      <feFlood flood-opacity="0" result="BackgroundImageFix"/>
      <feColorMatrix in="SourceAlpha" type="matrix" values="0"/>
      <feOffset dy="2"/>
      <feGaussianBlur stdDeviation="2"/>
      <feColorMatrix type="matrix" values="0"/>
      <feBlend mode="normal" in2="BackgroundImageFix" result="effect1_dropShadow"/>
      <feBlend mode="normal" in="SourceGraphic" in2="effect1_dropShadow" result="shape"/>
    </filter>
    <linearGradient id="paint0_linear" x1="3" y1="166" x2="107" y2="166" gradientUnits="userSpaceOnUse">
      <stop stop-color="#FF4040"/>
      <stop offset="1" stop-color="#FAA835"/>
    </linearGradient>
    <linearGradient id="paint1_linear" x1="37.37" y1="84.03" x2="46.35" y2="94.57" gradientUnits="userSpaceOnUse">
      <stop stop-color="#FF7A00"/>
      <stop offset="1" stop-color="#FFC90B"/>
    </linearGradient>
    <linearGradient id="paint2_linear" x1="47.92" y1="86.03" x2="63.89" y2="103.11" gradientUnits="userSpaceOnUse">
      <stop stop-color="#FF6C1A"/>
      <stop offset="1" stop-color="#FFD600" stop-opacity="0.99"/>
    </linearGradient>
    <linearGradient id="paint3_linear" x1="19.08" y1="19.97" x2="3.11" y2="2.89" gradientUnits="userSpaceOnUse">
      <stop stop-color="#FF6C1A"/>
      <stop offset="1" stop-color="#FFD600" stop-opacity="0.99"/>
    </linearGradient>
  </defs>
  <rect x="3" y="105" width="104" height="61" rx="8" transform="rotate(-90 3 105)" fill="url(#paint0_linear)"/>
  <g opacity="0.8">
    <path d="M54.96 76.04C57.47 71.55 62.23 70.01 62.73 70.01L62.73 96.53C62.73 99.6 60.99 103.5 56.97 103.5L18.27 103.5C18.44 102.83 18.88 101.3 19.28 100.5 19.78 99.51 22.29 96.51 23.8 95.01 25.31 93.51 27.32 92.02 28.83 91.52 30.03 91.12 32.68 91.68 33.85 93.02 34.19 91.18 35.46 89.12 37.87 87.52 43.5 84.33 48.26 85.53 49.93 86.52 50.27 86.19 51.34 85.43 52.95 85.03 52.95 82.53 52.45 80.53 54.96 76.04Z" fill="url(#paint1_linear)"/>
    <path d="M52.45 85.03C56.47 83.03 58.48 83.53 62.5 83.53L63 83.53 63 97.01C63 102.6 57.54 104 55.36 104L37.37 103.5C37.37 100.01 38.38 99.01 39.88 97.01 41.09 95.41 43.4 94.68 44.41 94.51 44.57 93.68 45.01 91.82 45.41 91.02 45.91 90.02 48.43 87.02 52.45 85.03Z" fill="url(#paint2_linear)"/>
    <path d="M62.74 70.61C62.82 70.6 62.91 70.59 63 70.59 63 70.38 63 70.17 62.98 70 62.31 70.03 61.65 70.17 60.99 70.48 58.34 71.76 55.95 73.82 54.41 76.18 52.6 78.93 52.05 81.86 52.83 84.65L53.42 84.48C53.31 84.13 53.24 83.79 53.19 83.45 53.07 83.34 53 83.19 53.04 82.98 53.06 82.92 53.07 82.86 53.08 82.8 53.1 82.74 53.11 82.69 53.12 82.64 53.1 82.18 53.11 81.73 53.16 81.28 53.26 81.41 53.35 81.52 53.45 81.64 53.5 81.53 53.55 81.41 53.6 81.31 53.63 81.25 53.65 81.19 53.68 81.14 53.53 80.94 53.4 80.72 53.28 80.5 53.33 80.22 53.4 79.95 53.47 79.67 53.61 80 53.79 80.3 53.99 80.57 54.04 80.47 54.11 80.35 54.18 80.23 53.96 79.87 53.79 79.49 53.67 79.08 53.71 78.95 53.75 78.83 53.8 78.71 53.98 79.07 54.21 79.43 54.49 79.76 54.56 79.66 54.65 79.54 54.74 79.42 54.44 78.99 54.22 78.51 54.11 77.99 54.24 77.73 54.37 77.46 54.52 77.21 54.63 77.76 54.83 78.22 55.25 78.75L55.27 78.76C55.3 78.74 55.32 78.71 55.34 78.69 55.36 78.66 55.38 78.63 55.41 78.61 55.01 78.01 54.77 77.34 54.89 76.59 55.18 76.13 55.51 75.69 55.86 75.26 55.88 76.06 56.12 76.81 56.5 77.47 56.61 77.37 56.69 77.28 56.8 77.2 56.45 76.37 56.36 75.46 56.52 74.58 56.52 74.55 56.53 74.53 56.53 74.51 56.58 74.45 56.63 74.4 56.68 74.34 56.68 75.17 56.94 75.97 57.37 76.68 57.41 76.65 57.45 76.61 57.49 76.58 57.53 76.54 57.57 76.51 57.61 76.47 57.17 75.69 56.96 74.8 57.22 73.81 57.47 73.58 57.72 73.35 57.98 73.13 57.7 74.06 57.79 75.05 58.3 75.92 58.36 75.87 58.42 75.82 58.49 75.77 58.52 75.74 58.56 75.71 58.6 75.68 58.17 74.67 58.18 73.53 58.93 72.5 58.96 72.45 58.97 72.41 58.98 72.37 59.37 72.09 59.78 71.83 60.2 71.58 59.71 72.58 59.57 73.68 59.79 74.75 59.92 74.65 60.04 74.56 60.16 74.48 59.99 73.22 60.11 71.93 61.2 71.1 61.24 71.07 61.27 71.04 61.29 71 61.55 70.88 61.8 70.79 62.06 70.73 61.38 71.7 61 72.54 61.04 73.84 61.05 73.91 61.05 73.97 61.06 74.03 61.06 74.17 61.07 74.3 61.09 74.42 61.13 74.51 61.15 74.6 61.15 74.72 61.28 75.41 61.6 76.01 62.19 76.47 62.29 76.54 62.41 76.42 62.32 76.34 60.7 74.92 61.37 71.98 62.69 70.67 62.71 70.65 62.73 70.63 62.74 70.61Z" fill="#FFD3A8"/>
    <path d="M59.03 76.47C59.62 77.3 60.5 77.97 61.49 78.26 61.54 78.28 61.54 78.38 61.48 78.38 60.4 78.25 59.48 77.52 58.81 76.66L58.85 76.63C58.92 76.58 58.97 76.53 59.03 76.47Z" fill="#FFD3A8"/>
    <path d="M59.29 79.85C58.53 79.32 57.79 78.8 57.25 78.01 57.23 78.03 57.2 78.05 57.18 78.07 57.12 78.12 57.07 78.17 57.02 78.23 57.77 79.14 58.79 79.9 59.88 80.4 59.93 80.42 59.99 80.35 59.93 80.31 59.72 80.15 59.5 80 59.29 79.85Z" fill="#FFD3A8"/>
    <path d="M58.36 81.79C57.28 81.53 56.17 80.97 55.34 80.16 55.27 80.24 55.2 80.35 55.13 80.45 56.07 81.31 57.26 81.91 58.34 81.91 58.41 81.91 58.43 81.81 58.36 81.79Z" fill="#FFD3A8"/>
    <path d="M54.35 81.91C54.96 82.5 55.71 82.93 56.52 83.14 56.62 83.17 56.59 83.32 56.47 83.31 55.6 83.14 54.84 82.81 54.18 82.33 54.21 82.26 54.23 82.2 54.25 82.15 54.28 82.06 54.31 81.98 54.35 81.91Z" fill="#FFD3A8"/>
    <path d="M60.51 76.09L60.35 75.47C60.26 75.54 60.18 75.61 60.07 75.68 60.14 75.85 60.21 76.01 60.3 76.18 60.37 76.3 60.54 76.21 60.51 76.09Z" fill="#FFD3A8"/>
    <path d="M60.35 79.02C59.57 78.54 58.75 77.94 58.15 77.21 58.06 77.28 57.97 77.35 57.89 77.4 58.55 78.16 59.38 78.78 60.26 79.16 60.37 79.21 60.44 79.07 60.35 79.02Z" fill="#FFD3A8"/>
    <path d="M57.25 80.35C56.83 80.05 56.38 79.71 56 79.31 55.98 79.33 55.97 79.35 55.95 79.37 55.93 79.4 55.91 79.42 55.9 79.43 56.29 79.81 56.74 80.12 57.23 80.38 57.25 80.4 57.26 80.36 57.25 80.35Z" fill="#FFD3A8"/>
    <path d="M56.29 82.09C55.71 81.83 55.2 81.47 54.79 81.02 54.74 81.1 54.68 81.19 54.65 81.26 55.12 81.67 55.65 81.98 56.26 82.15 56.31 82.17 56.33 82.1 56.29 82.09Z" fill="#FFD3A8"/>
    <path d="M24.91 94.17C24.87 94.21 24.83 94.24 24.78 94.28 25.09 94.4 25.37 94.54 25.66 94.7 25.62 94.74 25.59 94.79 25.55 94.86 25.2 94.73 24.83 94.63 24.47 94.55 24.24 94.76 24.01 94.97 23.79 95.18 24.2 95.38 24.61 95.55 25.02 95.72 24.97 95.77 24.93 95.84 24.9 95.91 24.45 95.75 23.99 95.63 23.54 95.58 23.5 95.58 23.46 95.56 23.43 95.54 23.25 95.73 23.07 95.91 22.9 96.1 22.99 96.14 23.07 96.17 23.16 96.2 23.59 96.37 24.01 96.54 24.43 96.72 24.41 96.74 24.4 96.76 24.39 96.79 24.35 96.84 24.31 96.9 24.29 96.96 23.73 96.73 23.18 96.55 22.61 96.43 22.32 96.76 22.04 97.1 21.77 97.45 22.48 97.55 23.15 97.69 23.81 97.89L23.65 98.2C22.96 97.97 22.23 97.87 21.47 97.94 21.44 97.94 21.42 97.94 21.41 97.94 21.27 98.12 21.14 98.31 21.01 98.5 21.78 98.55 22.54 98.75 23.3 98.96 23.28 98.99 23.27 99.03 23.25 99.07 23.23 99.11 23.22 99.15 23.2 99.18 22.39 98.99 21.6 98.84 20.77 98.86 20.65 99.06 20.52 99.25 20.4 99.45 20.66 99.5 20.92 99.54 21.18 99.58 21.76 99.68 22.32 99.77 22.89 99.94 22.87 99.99 22.85 100.04 22.83 100.09 22.8 100.14 22.78 100.2 22.76 100.25 21.89 99.99 20.99 99.84 20.15 99.88 19.92 100.28 19.7 100.68 19.5 101.09 19.82 100.98 20.16 100.98 20.52 101.03 21.01 101.1 21.51 101.19 21.99 101.28 22.22 101.32 22.44 101.36 22.66 101.4 22.65 101.46 22.63 101.53 22.61 101.59 22.14 101.55 21.66 101.53 21.19 101.52L21.14 101.52 21.03 101.51C20.48 101.47 19.88 101.44 19.42 101.77 19.33 101.84 19.24 101.84 19.17 101.8 18.92 102.36 18.69 102.93 18.5 103.5H18C19.26 99.78 21.54 96.17 24.55 93.69 25.82 92.65 26.92 91.98 28.07 91.62 29.68 91.09 31.57 91.09 33.84 91.59L33.7 92.19C32.1 91.83 30.72 91.75 29.49 91.92 29.87 92.12 30.22 92.35 30.58 92.64 30.63 92.67 30.56 92.76 30.51 92.72 30.06 92.42 29.5 92.17 28.95 92.02 28.71 92.07 28.47 92.13 28.24 92.21 28.1 92.25 27.95 92.3 27.81 92.36 28.91 92.78 29.93 93.23 30.81 94.08 30.84 94.12 30.81 94.17 30.77 94.14 29.75 93.47 28.58 92.76 27.35 92.56 27.17 92.64 26.99 92.74 26.8 92.84 27.13 93 27.43 93.25 27.72 93.49 27.86 93.61 28 93.72 28.14 93.83 28.19 93.88 28.15 93.96 28.08 93.93 27.92 93.85 27.74 93.77 27.56 93.7 27.17 93.54 26.76 93.37 26.46 93.1 26.44 93.09 26.43 93.08 26.42 93.06 26.12 93.25 25.82 93.46 25.51 93.69 25.68 93.75 25.85 93.81 26.02 93.86 26.49 94.01 26.95 94.16 27.39 94.38 28.07 94.72 28.62 95.17 29.18 95.67 29.25 95.74 29.14 95.89 29.06 95.82 28.02 95.03 26.53 94.22 25.23 94.12 25.15 94.11 25.1 94.09 25.06 94.05 25.01 94.09 24.96 94.13 24.91 94.17Z" fill="#FED586"/>
    <path d="M28.93 97.87C28.02 97.01 26.96 96.51 25.87 96.06 25.81 96.13 25.78 96.2 25.75 96.27 26.5 96.63 27.23 97.09 27.92 97.52 28.22 97.71 28.51 97.89 28.79 98.06 28.9 98.13 29.04 97.96 28.93 97.87Z" fill="#FED586"/>
    <path d="M27.98 100.25C26.98 99.32 25.87 98.65 24.67 98.18 24.62 98.3 24.57 98.4 24.5 98.51 25.37 98.9 26.21 99.43 27.03 99.94 27.3 100.11 27.56 100.28 27.82 100.44 27.95 100.52 28.08 100.35 27.98 100.25Z" fill="#FED586"/>
    <path d="M23.75 100.23C24.48 100.52 25.17 100.88 25.85 101.31 25.99 101.4 25.87 101.62 25.73 101.54 25.1 101.18 24.38 100.83 23.63 100.54 23.65 100.49 23.67 100.44 23.69 100.39 23.71 100.33 23.74 100.28 23.75 100.23Z" fill="#FED586"/>
    <path d="M26.33 97.66C25.99 97.44 25.62 97.25 25.26 97.08 25.23 97.17 25.17 97.25 25.12 97.32 25.5 97.49 25.87 97.66 26.23 97.84 26.35 97.91 26.46 97.73 26.33 97.66Z" fill="#FED586"/>
    <path d="M36.79 88.81C36.98 88.66 37.17 88.52 37.38 88.37 38.09 88.54 38.77 88.84 39.42 89.21 39.5 89.16 39.57 89.11 39.64 89.06 39.03 88.71 38.38 88.42 37.71 88.14L37.74 88.13C37.85 88.05 37.97 87.98 38.08 87.91 38.1 87.91 38.12 87.92 38.13 87.92 38.86 88.04 39.59 88.28 40.27 88.63 40.37 88.58 40.46 88.51 40.54 88.44 39.96 88.09 39.32 87.81 38.64 87.58 38.85 87.47 39.07 87.36 39.29 87.25 39.3 87.26 39.32 87.26 39.33 87.27 39.94 87.42 40.53 87.77 41.1 88.11 41.13 88.09 41.16 88.08 41.19 88.06 41.25 88.02 41.31 87.99 41.36 87.96 41.24 87.85 41.1 87.75 40.94 87.66 40.76 87.55 40.57 87.45 40.37 87.35 40.18 87.25 39.98 87.15 39.78 87.03 39.9 86.98 40.02 86.93 40.15 86.89 40.17 86.9 40.19 86.9 40.21 86.91 40.79 86.97 41.29 87.27 41.79 87.56 41.83 87.59 41.87 87.61 41.91 87.63 41.95 87.65 41.99 87.67 42.03 87.7 42.22 87.68 42.38 87.8 42.45 87.96 42.78 88.14 43.09 88.35 43.39 88.59 43.45 88.64 43.56 88.56 43.49 88.49 42.7 87.77 41.86 87.02 40.85 86.63 41.04 86.57 41.23 86.52 41.42 86.46 42.3 86.76 42.99 87.32 43.66 87.96 43.76 88.05 43.87 88.17 43.98 88.29 44.31 88.66 44.69 89.07 45.14 89.11 45.14 89.11 45.15 89.09 45.14 89.09 45.11 88.8 44.99 88.7 44.8 88.52 44.77 88.48 44.73 88.45 44.68 88.4 44.61 88.33 44.54 88.26 44.47 88.19 44.17 87.89 43.88 87.59 43.56 87.32 43.1 86.92 42.61 86.56 42.08 86.3 42.34 86.24 42.6 86.19 42.86 86.14 42.88 86.15 42.91 86.16 42.93 86.17 43.42 86.21 43.95 86.68 44.36 87.04 44.45 87.13 44.54 87.2 44.62 87.27 45.05 87.63 45.48 87.99 45.88 88.4 45.95 88.49 46.07 88.37 46 88.3 45.52 87.73 45.01 87.18 44.44 86.7 44.4 86.66 44.35 86.62 44.3 86.57L44.3 86.57C44.09 86.39 43.87 86.19 43.63 86.04 44.07 85.99 44.52 85.96 44.97 85.95 45.26 86.08 45.54 86.28 45.76 86.44 46.23 86.77 46.62 87.18 46.95 87.65 47.01 87.7 47.09 87.65 47.04 87.59 46.69 87.03 46.28 86.53 45.76 86.11 45.73 86.09 45.69 86.06 45.65 86.02 45.63 86.01 45.62 86 45.6 85.99 45.59 85.97 45.57 85.96 45.55 85.95 47.07 85.97 48.59 86.23 50.04 86.73L50.23 86.17C45.91 84.67 40.99 85.22 37.39 87.63 32.62 90.8 31.53 95.77 31.12 100.23L31.72 100.26C31.77 99.82 31.81 99.38 31.87 98.94 31.95 98.97 32.04 98.98 32.12 98.99 32.13 98.99 32.13 98.99 32.14 98.99 32.48 99.04 32.81 99.04 33.14 99.05 33.87 99.06 34.57 99.07 35.24 99.56 35.29 99.59 35.35 99.51 35.31 99.47 34.55 98.74 33.72 98.7 32.76 98.65 32.65 98.64 32.54 98.64 32.43 98.63 32.28 98.62 32.16 98.57 32.05 98.53 32.01 98.51 31.97 98.49 31.93 98.48 32.04 97.68 32.19 96.89 32.38 96.11 32.54 96.1 32.72 96.1 32.88 96.12 32.92 95.99 32.95 95.87 33.01 95.75 32.83 95.73 32.66 95.71 32.48 95.7 32.58 95.34 32.69 94.97 32.81 94.61L32.9 94.63C33.08 94.67 33.25 94.71 33.42 94.77 33.45 94.75 33.46 94.71 33.48 94.68 33.48 94.67 33.49 94.66 33.49 94.65 33.5 94.63 33.51 94.62 33.52 94.61 33.53 94.6 33.53 94.58 33.54 94.57 33.34 94.47 33.13 94.39 32.91 94.32 32.98 94.13 33.05 93.94 33.13 93.75 33.42 93.78 33.7 93.83 33.98 93.89L34.01 93.84C34.08 93.74 34.14 93.66 34.22 93.58 33.91 93.5 33.59 93.45 33.28 93.41 33.36 93.23 33.44 93.04 33.53 92.86 33.56 92.89 33.6 92.91 33.65 92.91 33.96 92.93 34.31 92.98 34.67 93.05 34.76 92.95 34.86 92.84 34.98 92.72 34.54 92.62 34.09 92.57 33.68 92.57 33.77 92.4 33.87 92.23 33.97 92.06 34.44 92.09 34.89 92.2 35.33 92.36 35.41 92.29 35.5 92.21 35.57 92.12 35.12 91.96 34.67 91.81 34.21 91.67L34.25 91.6C34.27 91.61 34.28 91.62 34.3 91.62 34.79 91.73 35.28 91.83 35.79 91.95 35.86 91.86 35.95 91.79 36.05 91.73 35.79 91.63 35.51 91.55 35.24 91.47 34.99 91.39 34.74 91.32 34.5 91.23 34.63 91.05 34.77 90.86 34.92 90.68 35.54 90.76 36.15 90.91 36.73 91.12L37.04 90.86C36.47 90.62 35.85 90.44 35.22 90.31 35.37 90.14 35.53 89.98 35.69 89.81 35.7 89.82 35.72 89.83 35.74 89.83 36.38 90 37.03 90.18 37.63 90.42 37.68 90.38 37.74 90.34 37.78 90.31 37.82 90.29 37.85 90.27 37.87 90.25 37.53 90.09 37.16 89.95 36.8 89.82 36.53 89.72 36.25 89.62 35.99 89.51 36.1 89.4 36.22 89.3 36.33 89.2 36.35 89.21 36.38 89.21 36.4 89.21 37.15 89.26 37.82 89.5 38.48 89.83 38.5 89.82 38.52 89.81 38.53 89.8 38.55 89.78 38.57 89.77 38.58 89.76 38.61 89.75 38.64 89.73 38.67 89.72 38.71 89.69 38.76 89.66 38.81 89.64 38.17 89.3 37.51 89.02 36.79 88.81Z" fill="#FFD7C0"/>
    <path d="M41.37 89.02C41.69 89.28 42 89.56 42.29 89.87 42.35 89.92 42.26 90 42.21 89.95 41.88 89.66 41.53 89.4 41.17 89.16" fill="#FFD7C0"/>
    <path d="M41.37 89.02C41.31 89.06 41.24 89.11 41.17 89.16Z" fill="#FFD7C0"/>
    <path d="M39.49 90.3C39.54 90.27 39.59 90.23 39.64 90.2 39.65 90.19 39.66 90.18 39.68 90.18 40.53 90.74 41.31 91.42 42.07 92.17 42.12 92.22 42.05 92.33 41.98 92.28 41.68 92.06 41.39 91.83 41.09 91.6 40.53 91.18 39.97 90.75 39.38 90.37 39.42 90.33 39.45 90.31 39.49 90.3Z" fill="#FFD7C0"/>
    <path d="M37.98 91.33C38.59 91.67 39.17 92.09 39.71 92.59 39.76 92.64 39.69 92.76 39.62 92.71 39.02 92.26 38.39 91.86 37.72 91.54L37.98 91.33Z" fill="#FFD7C0"/>
    <path d="M36.51 92.53C37.22 92.86 37.91 93.28 38.55 93.79 38.64 93.86 38.53 93.96 38.45 93.93 38.02 93.74 37.59 93.51 37.17 93.28 36.86 93.11 36.54 92.95 36.23 92.79 36.33 92.69 36.42 92.6 36.51 92.53Z" fill="#FFD7C0"/>
    <path d="M35.15 93.88C36.11 94.27 36.99 94.86 37.77 95.53 37.84 95.58 37.75 95.69 37.68 95.65 37.4 95.5 37.12 95.34 36.85 95.18 36.21 94.81 35.58 94.45 34.91 94.19 34.98 94.08 35.07 93.98 35.15 93.88Z" fill="#FFD7C0"/>
    <path d="M33.92 95.93C34.82 96.17 35.66 96.61 36.38 97.25 36.49 97.34 36.35 97.46 36.25 97.39 35.52 96.82 34.69 96.43 33.8 96.24 33.84 96.13 33.87 96.03 33.92 95.93Z" fill="#FFD7C0"/>
    <path d="M34.37 94.96C34.56 95.07 34.76 95.17 34.95 95.29 35 95.32 34.95 95.41 34.89 95.38 34.7 95.27 34.51 95.19 34.3 95.1 34.32 95.06 34.34 95.03 34.35 95 34.36 94.98 34.37 94.97 34.37 94.96Z" fill="#FFD7C0"/>
    <path d="M37.32 94.22C36.99 93.72 36.49 93.34 35.92 93.07 35.83 93.15 35.74 93.24 35.66 93.31 36.26 93.53 36.82 93.84 37.2 94.31 37.25 94.38 37.37 94.29 37.32 94.22Z" fill="#FFD7C0"/>
    <path d="M37.03 92.09C37.56 92.33 38.05 92.62 38.5 93.05 38.52 93.07 38.5 93.09 38.48 93.09 38 92.72 37.42 92.47 36.84 92.26 36.86 92.24 36.89 92.21 36.92 92.19 36.95 92.16 36.99 92.12 37.03 92.09Z" fill="#FFD7C0"/>
    <path d="M38.83 90.73C39.38 91.11 39.85 91.59 40.3 92.09 40.34 92.14 40.28 92.19 40.23 92.16L40.13 92.06C39.64 91.63 39.17 91.2 38.6 90.88 38.67 90.83 38.74 90.78 38.83 90.73Z" fill="#FFD7C0"/>
    <path d="M41.58 90.38C41.24 90.09 40.89 89.83 40.53 89.59 40.46 89.64 40.39 89.69 40.32 89.73 40.72 89.99 41.11 90.23 41.51 90.47 41.57 90.5 41.63 90.43 41.58 90.38Z" fill="#FFD7C0"/>
    <path d="M53.64 96.58C52.92 95.5 51.98 94.65 50.87 94 50.84 94.05 50.8 94.1 50.78 94.17 51.88 94.76 52.78 95.6 53.51 96.67 53.56 96.75 53.71 96.67 53.64 96.58Z" fill="white"/>
    <path d="M59.82 83.68C60.54 83.69 61.27 83.74 62 83.84 62.01 83.86 62.03 83.88 62.05 83.89 62.26 84.09 62.49 84.24 62.72 84.39 62.76 84.42 62.79 84.44 62.83 84.46 62.82 84.36 62.81 84.25 62.81 84.14 62.81 84.08 62.81 84.02 62.8 83.96L62.81 83.96C62.79 83.76 62.79 83.53 62.79 83.34 59.52 82.77 56.21 83.1 53.4 84.29 52.29 84.75 51.2 85.36 49.96 86.21 49.91 86.23 49.88 86.25 49.85 86.29 49.77 86.34 49.69 86.4 49.61 86.46 48.29 87.39 47.23 88.32 46.4 89.25 46.33 89.27 46.28 89.33 46.27 89.41 44.81 91.12 44.16 92.85 44.3 94.65L44.91 94.6C44.86 93.94 44.93 93.29 45.11 92.64 45.71 92.63 46.29 92.72 46.89 92.83 46.9 92.79 46.92 92.78 46.94 92.76 47.02 92.67 47.13 92.57 47.22 92.47 46.58 92.28 45.95 92.15 45.3 92.09 45.44 91.74 45.61 91.39 45.82 91.04 46.59 91.08 47.33 91.2 48.06 91.36 48.12 91.3 48.16 91.23 48.21 91.16 48.26 91.09 48.31 91.02 48.36 90.95 47.64 90.75 46.9 90.62 46.14 90.55 46.34 90.27 46.57 89.98 46.81 89.7 47.58 89.72 48.35 89.82 49.1 89.99 49.13 89.95 49.16 89.92 49.19 89.89 49.22 89.86 49.25 89.83 49.28 89.8 48.59 89.59 47.88 89.43 47.15 89.33 47.36 89.11 47.57 88.9 47.8 88.69 48.7 88.7 49.63 88.75 50.52 88.94 50.55 88.91 50.59 88.87 50.63 88.84 50.67 88.8 50.71 88.77 50.74 88.73 50.79 88.68 50.85 88.65 50.9 88.61 50.08 88.37 49.19 88.28 48.33 88.21 48.53 88.04 48.74 87.87 48.95 87.7 49.7 87.81 50.4 87.98 51.06 88.2 51.18 88.11 51.3 88.02 51.43 87.92 50.74 87.69 50.04 87.52 49.35 87.4 49.54 87.25 49.75 87.1 49.95 86.96 50.07 86.87 50.19 86.79 50.3 86.71 51.1 86.72 51.85 86.9 52.57 87.2 52.74 87.09 52.92 87.01 53.09 86.92 52.41 86.61 51.72 86.36 50.99 86.26 51.27 86.08 51.53 85.92 51.8 85.76 52.56 85.91 53.29 86.16 53.99 86.48 54.07 86.44 54.15 86.41 54.22 86.38 54.3 86.35 54.38 86.32 54.46 86.29 53.78 85.96 53.06 85.7 52.31 85.48 52.35 85.46 52.38 85.44 52.41 85.42 54.17 85.21 55.78 86.12 57.18 87.16 57.25 87.13 57.3 87.1 57.35 87.06 56.14 86.03 54.88 85.22 53.31 84.98 53.41 84.93 53.52 84.89 53.63 84.84 53.78 84.77 53.94 84.71 54.09 84.65 55.65 84.96 57.01 85.65 58.27 86.53 58.31 86.5 58.36 86.48 58.4 86.46 58.44 86.44 58.49 86.41 58.53 86.39 57.39 85.55 56.1 84.93 54.77 84.42 55.07 84.32 55.38 84.23 55.69 84.16 57.05 84.46 58.23 85.15 59.33 86.01 59.43 85.96 59.54 85.91 59.64 85.87 58.73 85.09 57.75 84.42 56.62 83.95 57.23 83.84 57.86 83.76 58.49 83.72 59.66 83.95 61 84.53 61.88 85.36L62.39 85.36C62.38 85.36 62.38 85.35 62.37 85.34 62.37 85.33 62.37 85.33 62.36 85.32 61.77 84.63 60.8 84.06 59.82 83.68Z" fill="white"/>
    <path d="M61.42 87.56C61.09 87.22 60.75 86.87 60.4 86.54 60.3 86.58 60.19 86.61 60.12 86.66 60.39 86.89 60.64 87.12 60.89 87.36 61.02 87.48 61.16 87.6 61.29 87.71 61.37 87.8 61.51 87.66 61.42 87.56Z" fill="white"/>
    <path d="M56.9 89.76C56.69 89.42 56.47 89.13 56.19 88.87 56.1 88.92 56.02 88.97 55.95 89.02 56.24 89.28 56.5 89.56 56.71 89.88 56.78 90 56.97 89.88 56.9 89.76Z" fill="white"/>
    <path d="M54.09 87.44C53.94 87.51 53.77 87.59 53.61 87.68 53.64 87.69 53.66 87.7 53.68 87.71 53.7 87.73 53.72 87.74 53.75 87.75 54.2 87.97 54.67 88.21 55.12 88.47 55.17 88.44 55.23 88.4 55.28 88.37 55.34 88.33 55.39 88.3 55.45 88.27 55.03 87.96 54.56 87.7 54.09 87.44Z" fill="white"/>
    <path d="M51.58 88.95C52.12 89.21 52.64 89.52 53.14 89.87L52.88 90.07C52.54 89.85 52.17 89.64 51.81 89.45 51.63 89.37 51.44 89.28 51.25 89.21 51.3 89.17 51.36 89.13 51.42 89.08 51.47 89.04 51.53 89 51.58 88.95Z" fill="white"/>
    <path d="M55.28 91.52L55.41 91.62C55.45 91.66 55.39 91.71 55.36 91.69 55.08 91.51 54.81 91.33 54.53 91.14 54.25 90.96 53.97 90.77 53.7 90.59 53.77 90.54 53.83 90.49 53.9 90.42 54.38 90.78 54.84 91.15 55.28 91.52Z" fill="white"/>
    <path d="M51.82 92.52C52.4 92.91 52.95 93.36 53.47 93.88 53.52 93.93 53.45 94 53.4 93.95 52.85 93.52 52.26 93.12 51.65 92.76 51.67 92.73 51.69 92.7 51.72 92.67 51.75 92.62 51.78 92.57 51.82 92.52Z" fill="white"/>
    <path d="M49.33 91.26C49.92 91.48 50.49 91.74 51.04 92.05 51.01 92.1 50.97 92.15 50.94 92.2 50.91 92.25 50.87 92.29 50.84 92.35 50.26 92.07 49.66 91.83 49.05 91.62 49.16 91.5 49.24 91.38 49.33 91.26Z" fill="white"/>
    <path d="M48.17 92.76C48.81 93 49.45 93.28 50.06 93.57 50.04 93.6 50.02 93.64 50 93.67 49.97 93.71 49.95 93.74 49.94 93.77 49.9 93.76 49.87 93.74 49.83 93.73 49.8 93.72 49.76 93.71 49.73 93.69 49.14 93.46 48.51 93.24 47.89 93.07 47.99 92.97 48.08 92.86 48.17 92.76Z" fill="white"/>
    <path d="M51.6 90.71C51.17 90.49 50.72 90.3 50.27 90.12 50.21 90.18 50.18 90.21 50.14 90.26 50.63 90.4 51.1 90.57 51.56 90.78 51.6 90.81 51.65 90.73 51.6 90.71Z" fill="white"/>
    <path d="M54.89 89.71C55.39 90.09 55.86 90.52 56.26 90.99 56.29 91.02 56.24 91.09 56.21 91.05 55.67 90.66 55.13 90.28 54.58 89.92L54.89 89.71Z" fill="white"/>
    <path d="M54.08 89.16C53.57 88.85 53.02 88.58 52.47 88.33 52.42 88.37 52.37 88.4 52.32 88.43 52.24 88.48 52.16 88.53 52.08 88.59 52.64 88.83 53.19 89.11 53.73 89.42 53.79 89.38 53.85 89.33 53.9 89.29 53.96 89.25 54.02 89.2 54.08 89.16Z" fill="white"/>
    <path d="M57.73 88.89C57.82 88.97 57.92 88.85 57.85 88.76 57.66 88.56 57.47 88.35 57.27 88.16 57.22 88.19 57.18 88.21 57.14 88.24L57.14 88.24C57.1 88.27 57.06 88.29 57.02 88.32 57.27 88.51 57.51 88.7 57.73 88.89Z" fill="white"/>
    <path d="M55.07 87.03C55.2 86.97 55.31 86.87 55.34 86.75 55.76 86.99 56.17 87.27 56.56 87.56 56.5 87.59 56.45 87.63 56.39 87.66 56.33 87.7 56.28 87.73 56.23 87.77 55.86 87.49 55.46 87.25 55.07 87.03Z" fill="white"/>
    <path d="M59.29 86.99C59.45 87.13 59.6 87.27 59.74 87.42 59.81 87.51 59.71 87.61 59.62 87.54 59.43 87.39 59.26 87.25 59.07 87.11 59.14 87.08 59.21 87.04 59.29 86.99Z" fill="white"/>
    <path d="M37.87 103.83L37.3 104C36.28 100.49 38.86 96.49 41.96 94.92 41.99 94.89 42.03 94.88 42.06 94.87 42.29 94.76 42.52 94.67 42.74 94.58 44.58 93.93 47.6 93.88 49.83 95.08 51.1 95.77 51.93 96.77 52.24 97.99L51.65 98.15C51.55 97.77 51.4 97.42 51.2 97.1 50.72 97.2 50.37 97.52 50.06 97.87 49.97 97.97 49.87 98.06 49.77 98.16 49.47 98.47 49.14 98.8 48.98 99.18 48.91 99.35 48.67 99.3 48.72 99.13 48.88 98.56 49.29 98.17 49.71 97.78 49.75 97.74 49.79 97.7 49.83 97.66 50.21 97.31 50.56 97.04 51.02 96.85 50.79 96.55 50.5 96.27 50.17 96.03L50.16 96.03C49.34 96.36 48.91 97.34 48.54 98.19 48.45 98.4 48.36 98.6 48.27 98.78 48.22 98.87 48.05 98.8 48.08 98.7 48.37 97.6 48.82 96.42 49.8 95.79 49.72 95.73 49.63 95.68 49.54 95.63 49.45 95.59 49.37 95.55 49.29 95.51 49.3 95.57 49.28 95.63 49.21 95.67 48.5 96 48.04 97.18 47.76 97.89L47.73 97.96C47.72 98.02 47.67 98.04 47.62 98.04L47.61 98.07C47.6 98.11 47.59 98.16 47.58 98.2 47.53 98.49 47.49 98.78 47.47 99.08 47.49 99.16 47.37 99.16 47.37 99.08L47.37 98.95C47.39 98.47 47.41 97.89 47.63 97.49 47.64 97.48 47.65 97.47 47.66 97.47 47.92 96.68 48.33 95.73 49.04 95.4 48.89 95.33 48.73 95.27 48.57 95.21 48.49 95.35 48.37 95.48 48.26 95.61 48.15 95.73 48.04 95.85 47.96 95.98 47.9 96.07 47.83 96.16 47.77 96.25 47.56 96.54 47.36 96.83 47.2 97.15 47.2 97.18 47.09 97.13 47.11 97.08L47.15 96.96C47.29 96.52 47.43 96.1 47.66 95.7 47.7 95.65 47.73 95.6 47.76 95.55 47.86 95.39 47.96 95.21 48.09 95.06 47.95 95.02 47.82 94.99 47.68 94.96 46.66 95.51 46.07 97.08 46 98.16 46.02 98.23 45.91 98.23 45.91 98.18 45.96 96.99 46.54 95.79 47.31 94.89 47.02 94.84 46.72 94.8 46.43 94.78 46.42 94.79 46.41 94.8 46.4 94.81 45.41 95.72 44.68 96.91 44.86 98.3 44.86 98.35 44.75 98.37 44.75 98.32 44.53 96.94 45.05 95.78 45.9 94.75 45.63 94.74 45.35 94.75 45.09 94.76 44.45 95.56 44.18 96.68 44.15 97.68 44.16 97.8 44.01 97.8 43.99 97.68 43.95 96.72 44.26 95.98 44.59 95.18 44.65 95.05 44.7 94.92 44.76 94.79 44.4 94.82 44.05 94.88 43.73 94.95 43.32 95.74 42.9 96.64 42.92 97.53 42.93 98.33 43.28 99.12 43.61 99.85 43.67 100.01 43.74 100.15 43.8 100.3 43.84 100.4 43.73 100.47 43.68 100.39 43.16 99.56 42.71 98.7 42.66 97.7 42.62 96.95 42.85 96.25 43.09 95.56 43.14 95.39 43.19 95.23 43.24 95.07 43.14 95.1 43.03 95.13 42.93 95.17 42.68 95.26 42.42 95.37 42.17 95.5 41.43 96.6 41.64 98.08 42.1 99.25 42.15 99.37 42 99.42 41.93 99.33 41.15 98.26 41.19 97.02 41.57 95.84 41.34 95.99 41.11 96.16 40.89 96.33L40.89 96.34C40.73 97.32 40.61 98.22 41.03 99.15 41.34 99.87 41.89 100.51 42.45 101.07 42.5 101.14 42.4 101.25 42.33 101.18L42.2 101.06C41.62 100.52 41.06 99.99 40.72 99.25 40.37 98.49 40.35 97.61 40.39 96.77 40.31 96.84 40.23 96.92 40.15 97 40.15 97.02 40.14 97.05 40.13 97.08 39.69 98.1 40.02 99.73 40.75 100.56 40.79 100.59 40.75 100.64 40.7 100.61 39.94 99.91 39.51 98.66 39.62 97.57 39.45 97.78 39.28 97.99 39.13 98.21 39.24 99.84 40.18 100.88 41.32 101.97 41.41 102.04 41.29 102.16 41.2 102.09 40.54 101.56 39.9 101 39.43 100.28 39.11 99.78 38.99 99.29 38.87 98.76L38.84 98.65C38.71 98.86 38.58 99.08 38.47 99.3 38.42 100.17 39.16 101.03 39.8 101.78 40.02 102.04 40.23 102.28 40.39 102.5 40.42 102.54 40.35 102.59 40.32 102.55 40.21 102.45 40.1 102.33 39.98 102.22 39.28 101.53 38.51 100.77 38.22 99.85 38.09 100.16 37.98 100.48 37.89 100.81 37.93 100.82 37.97 100.86 37.98 100.92 38.05 101.6 38.82 102.19 39.32 102.57L39.33 102.57C39.57 102.75 39.84 102.89 40.1 103.03 40.34 103.15 40.58 103.28 40.8 103.43 40.85 103.48 40.82 103.55 40.77 103.52 40.59 103.42 40.39 103.35 40.2 103.28 40 103.21 39.81 103.14 39.62 103.04 39.31 102.86 39.02 102.64 38.74 102.4 38.71 102.37 38.67 102.34 38.64 102.31 38.31 102.05 37.91 101.72 37.78 101.31 37.62 102.16 37.64 103.01 37.87 103.83Z" fill="white"/>
  </g>
  <g opacity="0.8">
    <path d="M14.55 20.97C10.53 22.97 8.52 22.47 4.5 22.47H4L4 8.99C4 3.4 9.46 2 11.64 2L29.63 2.5C29.63 5.99 28.62 6.99 27.12 8.99 25.91 10.59 23.6 11.32 22.59 11.49 22.43 12.32 21.99 14.18 21.59 14.98 21.09 15.98 18.57 18.98 14.55 20.97Z" fill="url(#paint3_linear)"/>
    <path d="M13.36 9.42C14.08 10.5 15.02 11.35 16.13 12 16.16 11.95 16.2 11.9 16.22 11.83 15.12 11.24 14.22 10.4 13.49 9.33 13.44 9.25 13.29 9.33 13.36 9.42Z" fill="white"/>
    <path d="M7.18 22.32C6.46 22.31 5.73 22.26 5 22.16 4.99 22.14 4.97 22.12 4.95 22.11 4.74 21.91 4.51 21.76 4.28 21.61 4.24 21.58 4.21 21.56 4.17 21.54 4.18 21.64 4.19 21.75 4.19 21.86 4.19 21.92 4.19 21.98 4.2 22.04L4.19 22.04C4.21 22.24 4.21 22.47 4.21 22.66 7.48 23.23 10.79 22.9 13.6 21.71 14.71 21.25 15.8 20.64 17.04 19.79 17.09 19.77 17.12 19.75 17.15 19.71 17.23 19.66 17.31 19.6 17.39 19.54 18.71 18.61 19.77 17.68 20.6 16.75 20.67 16.73 20.72 16.67 20.73 16.59 22.19 14.88 22.84 13.15 22.7 11.35L22.09 11.4C22.14 12.06 22.07 12.71 21.89 13.36 21.29 13.37 20.71 13.28 20.11 13.17 20.1 13.21 20.08 13.22 20.06 13.24 19.98 13.33 19.87 13.43 19.78 13.53 20.42 13.72 21.05 13.85 21.7 13.91 21.56 14.26 21.39 14.61 21.18 14.96 20.41 14.92 19.67 14.8 18.94 14.64 18.88 14.7 18.84 14.77 18.79 14.84 18.74 14.91 18.69 14.98 18.64 15.05 19.36 15.25 20.1 15.38 20.86 15.45 20.66 15.73 20.43 16.02 20.19 16.3 19.42 16.28 18.65 16.18 17.9 16.01 17.87 16.05 17.84 16.08 17.81 16.11 17.78 16.14 17.75 16.17 17.72 16.2 18.41 16.41 19.12 16.57 19.85 16.67 19.64 16.89 19.43 17.1 19.2 17.31 18.3 17.3 17.37 17.25 16.48 17.06 16.45 17.09 16.41 17.13 16.37 17.16 16.33 17.2 16.29 17.23 16.26 17.27 16.21 17.32 16.15 17.35 16.1 17.39 16.92 17.63 17.81 17.72 18.67 17.79 18.47 17.96 18.26 18.13 18.05 18.3 17.3 18.19 16.6 18.02 15.94 17.8 15.82 17.89 15.7 17.98 15.57 18.08 16.26 18.31 16.96 18.48 17.65 18.6 17.46 18.75 17.25 18.9 17.05 19.04 16.93 19.13 16.81 19.21 16.7 19.29 15.9 19.28 15.15 19.1 14.43 18.8 14.26 18.91 14.08 18.99 13.91 19.08 14.59 19.39 15.28 19.64 16.01 19.74 15.73 19.92 15.47 20.08 15.2 20.24 14.44 20.09 13.71 19.84 13.01 19.52 12.93 19.56 12.85 19.59 12.78 19.62 12.7 19.65 12.62 19.68 12.54 19.71 13.22 20.04 13.94 20.3 14.69 20.52 14.65 20.54 14.62 20.56 14.59 20.58 12.83 20.79 11.22 19.88 9.82 18.84 9.75 18.87 9.7 18.91 9.65 18.94 10.86 19.97 12.12 20.78 13.69 21.02 13.59 21.07 13.48 21.11 13.37 21.16 13.22 21.23 13.06 21.29 12.91 21.35 11.35 21.04 9.99 20.35 8.73 19.47 8.69 19.5 8.64 19.52 8.6 19.54 8.56 19.56 8.51 19.59 8.47 19.61 9.61 20.45 10.9 21.07 12.23 21.58 11.93 21.68 11.62 21.77 11.31 21.84 9.95 21.54 8.77 20.85 7.67 19.99 7.57 20.04 7.46 20.09 7.36 20.13 8.27 20.91 9.25 21.58 10.38 22.05 9.77 22.16 9.14 22.24 8.51 22.28 7.34 22.05 6 21.47 5.12 20.64L4.61 20.64C4.62 20.64 4.62 20.65 4.63 20.66 4.63 20.67 4.63 20.67 4.64 20.68 5.23 21.37 6.2 21.94 7.18 22.32Z" fill="white"/>
    <path d="M5.58 18.44C5.91 18.79 6.25 19.13 6.6 19.46 6.7 19.42 6.81 19.39 6.88 19.34 6.61 19.11 6.36 18.88 6.11 18.64 5.98 18.52 5.84 18.4 5.71 18.29 5.63 18.2 5.49 18.34 5.58 18.44Z" fill="white"/>
    <path d="M10.1 16.24C10.31 16.58 10.53 16.87 10.81 17.13 10.9 17.08 10.98 17.03 11.05 16.98 10.76 16.72 10.5 16.44 10.29 16.12 10.22 16 10.03 16.12 10.1 16.24Z" fill="white"/>
    <path d="M12.91 18.56C13.06 18.49 13.23 18.41 13.39 18.32 13.36 18.31 13.34 18.3 13.32 18.29 13.3 18.27 13.28 18.26 13.25 18.25 12.8 18.03 12.33 17.79 11.88 17.53 11.83 17.56 11.77 17.6 11.72 17.63 11.66 17.67 11.61 17.7 11.55 17.73 11.97 18.04 12.44 18.3 12.91 18.56Z" fill="white"/>
    <path d="M15.42 17.05C14.88 16.79 14.36 16.48 13.86 16.13L14.12 15.93C14.46 16.15 14.83 16.36 15.19 16.55 15.37 16.63 15.56 16.72 15.75 16.79 15.7 16.83 15.64 16.87 15.58 16.92 15.53 16.96 15.47 17 15.42 17.05Z" fill="white"/>
    <path d="M11.72 14.48L11.59 14.38C11.55 14.34 11.61 14.29 11.64 14.31 11.92 14.49 12.19 14.67 12.47 14.86 12.75 15.04 13.03 15.23 13.3 15.41 13.23 15.46 13.17 15.51 13.1 15.58 12.62 15.22 12.16 14.85 11.72 14.48Z" fill="white"/>
    <path d="M15.18 13.48C14.6 13.09 14.05 12.64 13.53 12.12 13.48 12.07 13.55 12 13.6 12.05 14.15 12.48 14.74 12.88 15.35 13.24 15.33 13.27 15.31 13.3 15.28 13.33 15.25 13.38 15.22 13.43 15.18 13.48Z" fill="white"/>
    <path d="M17.67 14.74C17.08 14.52 16.51 14.26 15.96 13.95 15.99 13.9 16.03 13.85 16.06 13.8 16.09 13.75 16.13 13.71 16.16 13.65 16.74 13.93 17.34 14.17 17.95 14.38 17.84 14.5 17.76 14.62 17.67 14.74Z" fill="white"/>
    <path d="M18.83 13.24C18.19 13 17.55 12.72 16.94 12.43 16.96 12.4 16.98 12.36 17 12.33 17.03 12.29 17.05 12.26 17.06 12.23 17.1 12.24 17.13 12.26 17.17 12.27 17.2 12.28 17.24 12.29 17.27 12.31 17.86 12.54 18.49 12.76 19.11 12.93 19.01 13.03 18.92 13.14 18.83 13.24Z" fill="white"/>
    <path d="M15.4 15.29C15.83 15.51 16.28 15.7 16.74 15.88 16.79 15.82 16.82 15.79 16.86 15.74 16.37 15.6 15.9 15.43 15.44 15.22 15.4 15.19 15.35 15.27 15.4 15.29Z" fill="white"/>
    <path d="M12.11 16.29C11.61 15.91 11.14 15.48 10.74 15.01 10.71 14.98 10.76 14.91 10.79 14.95 11.33 15.34 11.87 15.72 12.42 16.08L12.11 16.29Z" fill="white"/>
    <path d="M12.92 16.84C13.43 17.15 13.98 17.42 14.53 17.67 14.58 17.63 14.63 17.6 14.68 17.57 14.76 17.52 14.84 17.47 14.92 17.41 14.36 17.17 13.81 16.89 13.27 16.58 13.21 16.62 13.15 16.67 13.1 16.71 13.04 16.75 12.98 16.8 12.92 16.84Z" fill="white"/>
    <path d="M9.27 17.11C9.18 17.03 9.08 17.15 9.15 17.24 9.34 17.44 9.53 17.65 9.73 17.84 9.78 17.81 9.82 17.79 9.86 17.76L9.86 17.76C9.9 17.73 9.94 17.71 9.98 17.68 9.73 17.49 9.49 17.3 9.27 17.11Z" fill="white"/>
    <path d="M11.93 18.97C11.8 19.03 11.69 19.13 11.66 19.25 11.24 19.01 10.83 18.73 10.44 18.44 10.5 18.41 10.55 18.37 10.61 18.34 10.67 18.3 10.72 18.27 10.77 18.23 11.14 18.51 11.54 18.75 11.93 18.97Z" fill="white"/>
    <path d="M7.71 19.01C7.55 18.87 7.4 18.73 7.26 18.58 7.19 18.49 7.29 18.39 7.38 18.46 7.57 18.61 7.74 18.75 7.93 18.89 7.86 18.92 7.79 18.96 7.71 19.01Z" fill="white"/>
    <path d="M29.13 2.17L29.7 2C30.72 5.51 28.14 9.51 25.04 11.08 25.01 11.11 24.97 11.12 24.94 11.13 24.71 11.24 24.48 11.33 24.26 11.42 22.42 12.07 19.4 12.12 17.17 10.92 15.9 10.23 15.07 9.23 14.76 8.01L15.35 7.85C15.45 8.23 15.6 8.58 15.8 8.9 16.28 8.8 16.63 8.48 16.94 8.13 17.03 8.03 17.13 7.94 17.23 7.84 17.53 7.53 17.86 7.2 18.02 6.82 18.09 6.65 18.33 6.7 18.28 6.87 18.12 7.44 17.71 7.83 17.29 8.22 17.25 8.26 17.21 8.3 17.17 8.34 16.79 8.69 16.44 8.96 15.98 9.15 16.21 9.45 16.5 9.73 16.83 9.97L16.84 9.97C17.66 9.64 18.09 8.66 18.46 7.81 18.55 7.6 18.64 7.4 18.73 7.22 18.78 7.13 18.95 7.2 18.92 7.3 18.63 8.4 18.18 9.58 17.2 10.21 17.28 10.27 17.37 10.32 17.46 10.37 17.55 10.41 17.63 10.45 17.71 10.49 17.7 10.43 17.72 10.37 17.79 10.33 18.5 10 18.96 8.82 19.24 8.11L19.27 8.04C19.28 7.98 19.33 7.96 19.38 7.96L19.39 7.93C19.4 7.89 19.41 7.84 19.42 7.8 19.47 7.51 19.51 7.22 19.53 6.92 19.51 6.84 19.63 6.84 19.63 6.92L19.63 7.05C19.61 7.53 19.59 8.11 19.37 8.51 19.36 8.52 19.35 8.53 19.34 8.53 19.08 9.32 18.67 10.27 17.96 10.6 18.11 10.67 18.27 10.73 18.43 10.79 18.51 10.65 18.63 10.52 18.74 10.39 18.85 10.27 18.96 10.15 19.04 10.02 19.1 9.93 19.17 9.84 19.23 9.75 19.44 9.46 19.64 9.17 19.8 8.85 19.8 8.82 19.91 8.87 19.89 8.92L19.85 9.04C19.71 9.48 19.57 9.9 19.34 10.3 19.3 10.35 19.27 10.4 19.24 10.45 19.14 10.61 19.04 10.79 18.91 10.94 19.05 10.98 19.18 11.01 19.32 11.04 20.34 10.49 20.93 8.92 21 7.84 20.98 7.77 21.09 7.77 21.09 7.82 21.04 9.01 20.46 10.21 19.69 11.11 19.98 11.16 20.28 11.2 20.57 11.22 20.58 11.21 20.59 11.2 20.6 11.19 21.59 10.28 22.32 9.09 22.14 7.7 22.14 7.65 22.25 7.63 22.25 7.68 22.47 9.06 21.95 10.22 21.1 11.25 21.37 11.26 21.65 11.25 21.91 11.24 22.55 10.44 22.82 9.32 22.85 8.32 22.84 8.2 22.99 8.2 23.01 8.32 23.05 9.28 22.74 10.02 22.41 10.82 22.35 10.95 22.3 11.08 22.24 11.21 22.6 11.18 22.95 11.12 23.27 11.05 23.68 10.26 24.1 9.36 24.08 8.47 24.07 7.67 23.72 6.88 23.39 6.15 23.33 6 23.26 5.85 23.2 5.7 23.16 5.6 23.27 5.53 23.32 5.62 23.84 6.44 24.29 7.3 24.34 8.3 24.38 9.05 24.15 9.75 23.91 10.44 23.86 10.61 23.81 10.77 23.76 10.93 23.86 10.9 23.97 10.87 24.07 10.83 24.32 10.74 24.58 10.63 24.83 10.5 25.57 9.4 25.36 7.92 24.9 6.75 24.85 6.63 25 6.58 25.07 6.67 25.85 7.74 25.81 8.98 25.43 10.16 25.66 10.01 25.89 9.84 26.11 9.67L26.11 9.66C26.27 8.68 26.39 7.78 25.97 6.85 25.66 6.13 25.11 5.49 24.55 4.93 24.5 4.86 24.6 4.75 24.67 4.82L24.8 4.94C25.38 5.48 25.94 6.01 26.28 6.75 26.63 7.51 26.65 8.39 26.61 9.23 26.69 9.16 26.77 9.08 26.85 9 26.85 8.98 26.86 8.95 26.87 8.92 27.31 7.9 26.98 6.27 26.25 5.44 26.21 5.41 26.25 5.36 26.3 5.39 27.06 6.09 27.49 7.34 27.38 8.43 27.55 8.22 27.72 8.01 27.87 7.79 27.76 6.16 26.82 5.12 25.68 4.03 25.59 3.96 25.71 3.84 25.8 3.91 26.46 4.44 27.1 5 27.57 5.72 27.89 6.22 28.01 6.71 28.13 7.24L28.16 7.35C28.29 7.14 28.42 6.92 28.53 6.7 28.58 5.83 27.84 4.97 27.2 4.22 26.98 3.96 26.77 3.72 26.61 3.5 26.58 3.46 26.65 3.41 26.68 3.45 26.79 3.56 26.9 3.67 27.02 3.78 27.72 4.47 28.49 5.23 28.78 6.15 28.91 5.84 29.02 5.52 29.11 5.19 29.07 5.18 29.03 5.14 29.02 5.08 28.95 4.4 28.18 3.81 27.68 3.43L27.67 3.43C27.43 3.25 27.16 3.11 26.9 2.97 26.66 2.85 26.42 2.72 26.2 2.57 26.15 2.52 26.18 2.45 26.23 2.48 26.41 2.59 26.61 2.65 26.8 2.72 27 2.79 27.19 2.86 27.38 2.96 27.69 3.14 27.98 3.36 28.26 3.6 28.29 3.63 28.33 3.66 28.36 3.69 28.69 3.96 29.09 4.28 29.22 4.69 29.38 3.84 29.36 2.99 29.13 2.17Z" fill="white"/>
  </g>
  <g filter="url(#filter0_d)">
    <rect x="4.25" y="103.75" width="101.5" height="58.5" rx="6.75" transform="rotate(-90 4.25 103.75)" stroke="white" stroke-width="0.5"/>
  </g>
  <path fill-rule="evenodd" clip-rule="evenodd" d="M42.5 29C42.78 29 43 29.23 43 29.5 43 29.77 42.78 30 42.5 30 42.22 30 42 29.77 42 29.5 42 29.23 42.22 29 42.5 29Z" fill="#FFD595"/>
  <path fill-rule="evenodd" clip-rule="evenodd" d="M55.5 12C55.78 12 56 12.23 56 12.5 56 12.77 55.78 13 55.5 13 55.22 13 55 12.77 55 12.5 55 12.23 55.22 12 55.5 12Z" fill="#FBC075"/>
  <path fill-rule="evenodd" clip-rule="evenodd" d="M51.5 55C51.78 55 52 55.23 52 55.5 52 55.77 51.78 56 51.5 56 51.22 56 51 55.77 51 55.5 51 55.23 51.22 55 51.5 55Z" fill="#FFD595"/>
  <path fill-rule="evenodd" clip-rule="evenodd" d="M19.5 78C19.78 78 20 78.23 20 78.5 20 78.77 19.78 79 19.5 79 19.22 79 19 78.77 19 78.5 19 78.23 19.22 78 19.5 78Z" fill="#FFA094"/>
  <path fill-rule="evenodd" clip-rule="evenodd" d="M31.5 35C31.78 35 32 35.23 32 35.5 32 35.77 31.78 36 31.5 36 31.22 36 31 35.77 31 35.5 31 35.23 31.22 35 31.5 35Z" fill="#FFA094"/>
  <path fill-rule="evenodd" clip-rule="evenodd" d="M53.5 57C53.78 57 54 57.23 54 57.5 54 57.77 53.78 58 53.5 58 53.22 58 53 57.77 53 57.5 53 57.23 53.22 57 53.5 57Z" fill="#FFDEDA"/>
  <path fill-rule="evenodd" clip-rule="evenodd" d="M32.5 66C32.78 66 33 66.23 33 66.5 33 66.77 32.78 67 32.5 67 32.22 67 32 66.77 32 66.5 32 66.23 32.22 66 32.5 66Z" fill="#FFA094"/>
  <path fill-rule="evenodd" clip-rule="evenodd" d="M14.5 45C14.78 45 15 45.23 15 45.5 15 45.77 14.78 46 14.5 46 14.22 46 14 45.77 14 45.5 14 45.23 14.22 45 14.5 45Z" fill="#FFAF73"/>
  <path fill-rule="evenodd" clip-rule="evenodd" d="M14.51 80L14.86 81.62 16.27 80.73 15.38 82.14 17 82.49 15.38 82.86 16.27 84.26 14.86 83.38 14.51 85 14.14 83.38 12.74 84.26 13.62 82.86 12 82.49 13.62 82.14 12.74 80.73 14.14 81.62 14.51 80Z" fill="#FFBCB4"/>
  <path fill-rule="evenodd" clip-rule="evenodd" d="M51.5 18L52.17 16.18 54 15.51 52.17 14.83 51.5 13 50.83 14.83 49 15.51 50.83 16.18 51.5 18Z" fill="#F3E6A3"/>
</svg>
