<svg width="18" height="18" viewBox="0 0 18 18" fill="none" xmlns="http://www.w3.org/2000/svg">
<g opacity="0.5">
<path d="M7 7H10V13H11V14H7V13H8V8H7V7Z" fill="white"/>
<path d="M10 4H8V6H10V4Z" fill="white"/>
<path fill-rule="evenodd" clip-rule="evenodd" d="M9 18C13.9706 18 18 13.9706 18 9C18 4.02942 13.9706 0 9 0C4.02945 0 0 4.02942 0 9C0 13.9706 4.02945 18 9 18ZM9 17C13.4183 17 17 13.4183 17 9C17 4.58173 13.4183 1 9 1C4.58173 1 1 4.58173 1 9C1 13.4183 4.58173 17 9 17Z" fill="white"/>
</g>
</svg>
