<svg width="100" height="100" viewBox="0 0 100 100" fill="none" xmlns="http://www.w3.org/2000/svg"><defs><linearGradient id="paint0_linear" x1="47.18" y1="75.46" x2="31.53" y2="75.46" gradientUnits="userSpaceOnUse"><stop offset="0.19" stop-color="#4A9E98"/><stop offset="0.3" stop-color="#499995"/><stop offset="0.44" stop-color="#448B8B"/><stop offset="0.58" stop-color="#3E747A"/><stop offset="0.73" stop-color="#345363"/><stop offset="0.74" stop-color="#335061"/></linearGradient><linearGradient id="paint1_linear" x1="44.1" y1="77.44" x2="19.91" y2="77.44" gradientUnits="userSpaceOnUse"><stop stop-color="#275463"/><stop offset="0.23" stop-color="#254F5F"/><stop offset="0.5" stop-color="#214152"/><stop offset="0.74" stop-color="#1B2E41"/></linearGradient><linearGradient id="paint2_linear" x1="47.45" y1="68.11" x2="42.23" y2="81.52" gradientUnits="userSpaceOnUse"><stop stop-color="#96D3C2"/><stop offset="0.71" stop-color="#E1EBDF"/></linearGradient><linearGradient id="paint3_linear" x1="49.7" y1="39.41" x2="36.17" y2="65.59" gradientUnits="userSpaceOnUse"><stop stop-color="#E1EBDF"/><stop offset="0.21" stop-color="#DCE9DD"/><stop offset="0.46" stop-color="#CEE5D8"/><stop offset="0.72" stop-color="#B7DDCF"/><stop offset="1" stop-color="#96D3C2"/><stop offset="1" stop-color="#96D3C2"/></linearGradient><linearGradient id="paint4_linear" x1="35.9" y1="38.66" x2="42.91" y2="26.6" gradientUnits="userSpaceOnUse"><stop offset="0.18" stop-color="#589F9F"/><stop offset="1" stop-color="#446D7E"/></linearGradient><linearGradient id="paint5_linear" x1="45.96" y1="68.47" x2="39.7" y2="68.47" gradientUnits="userSpaceOnUse"><stop offset="0.41" stop-color="#315895"/><stop offset="0.7" stop-color="#3769A4"/><stop offset="1" stop-color="#3C75AF"/></linearGradient><linearGradient id="paint6_linear" x1="59.92" y1="78.58" x2="48" y2="69.68" gradientUnits="userSpaceOnUse"><stop offset="0.03" stop-color="#068B72"/><stop offset="0.19" stop-color="#07695D"/><stop offset="0.37" stop-color="#08494A"/><stop offset="0.52" stop-color="#09353D"/><stop offset="0.63" stop-color="#092E39"/></linearGradient><linearGradient id="paint7_linear" x1="66.35" y1="66.49" x2="48.09" y2="66.49" gradientUnits="userSpaceOnUse"><stop offset="0.26" stop-color="#1B2E41"/><stop offset="0.5" stop-color="#214152"/><stop offset="0.77" stop-color="#254F5F"/><stop offset="1" stop-color="#275463"/></linearGradient><linearGradient id="paint8_linear" x1="57.36" y1="80.01" x2="36.02" y2="80.01" gradientUnits="userSpaceOnUse"><stop offset="0.26" stop-color="#384863"/><stop offset="0.3" stop-color="#3A536A"/><stop offset="0.44" stop-color="#41747E"/><stop offset="0.58" stop-color="#468B8C"/><stop offset="0.71" stop-color="#499995"/><stop offset="0.81" stop-color="#4A9E98"/></linearGradient><linearGradient id="paint9_linear" x1="61.13" y1="79.18" x2="49.83" y2="79.18" gradientUnits="userSpaceOnUse"><stop offset="0.1" stop-color="#8DCB89"/><stop offset="0.19" stop-color="#86C888"/><stop offset="0.32" stop-color="#72BE84"/><stop offset="0.48" stop-color="#51AF7F"/><stop offset="0.65" stop-color="#249977"/><stop offset="0.76" stop-color="#068B72"/></linearGradient><linearGradient id="paint10_linear" x1="55.44" y1="36.39" x2="44.53" y2="23.6" gradientUnits="userSpaceOnUse"><stop stop-color="white"/><stop offset="0.29" stop-color="#FAFAFA"/><stop offset="0.61" stop-color="#EEEEED"/></linearGradient><linearGradient id="paint11_linear" x1="49.11" y1="34.98" x2="52.12" y2="56.12" gradientUnits="userSpaceOnUse"><stop stop-color="#E1EBDF"/><stop offset="0.21" stop-color="#DCE9DD"/><stop offset="0.46" stop-color="#CEE5D8"/><stop offset="0.72" stop-color="#B7DDCF"/><stop offset="1" stop-color="#96D3C2"/><stop offset="1" stop-color="#96D3C2"/></linearGradient><linearGradient id="paint12_linear" x1="62.56" y1="76" x2="53.27" y2="76" gradientUnits="userSpaceOnUse"><stop offset="0.1" stop-color="#8DCB89"/><stop offset="0.19" stop-color="#86C888"/><stop offset="0.32" stop-color="#72BE84"/><stop offset="0.48" stop-color="#51AF7F"/><stop offset="0.65" stop-color="#249977"/><stop offset="0.76" stop-color="#068B72"/></linearGradient><linearGradient id="paint13_linear" x1="65.47" y1="49.5" x2="51.97" y2="49.5" gradientUnits="userSpaceOnUse"><stop offset="0.1" stop-color="#3C75AF"/><stop offset="0.26" stop-color="#3A70AB"/><stop offset="0.45" stop-color="#35629E"/><stop offset="0.54" stop-color="#315895"/></linearGradient><linearGradient id="paint14_linear" x1="65.47" y1="78.78" x2="59.83" y2="78.78" gradientUnits="userSpaceOnUse"><stop offset="0.1" stop-color="#8DCB89"/><stop offset="0.19" stop-color="#86C888"/><stop offset="0.32" stop-color="#72BE84"/><stop offset="0.48" stop-color="#51AF7F"/><stop offset="0.65" stop-color="#249977"/><stop offset="0.76" stop-color="#068B72"/></linearGradient><linearGradient id="paint15_linear" x1="66.52" y1="41.45" x2="50.29" y2="26.67" gradientUnits="userSpaceOnUse"><stop offset="0.06" stop-color="#E2DEDF"/><stop offset="0.9" stop-color="#92B0BC"/></linearGradient><linearGradient id="paint16_linear" x1="61.02" y1="52.49" x2="72.51" y2="58.31" gradientUnits="userSpaceOnUse"><stop stop-color="#275463"/><stop offset="0.23" stop-color="#254F5F"/><stop offset="0.5" stop-color="#214152"/><stop offset="0.74" stop-color="#1B2E41"/></linearGradient><linearGradient id="paint17_linear" x1="73.29" y1="75.03" x2="64.65" y2="75.03" gradientUnits="userSpaceOnUse"><stop stop-color="#275463"/><stop offset="0.23" stop-color="#254F5F"/><stop offset="0.5" stop-color="#214152"/><stop offset="0.74" stop-color="#1B2E41"/></linearGradient><linearGradient id="paint18_linear" x1="68.97" y1="64.79" x2="65.88" y2="64.79" gradientUnits="userSpaceOnUse"><stop offset="0.1" stop-color="#80D8E1"/><stop offset="0.21" stop-color="#7DD3DE"/><stop offset="0.33" stop-color="#74C5D6"/><stop offset="0.46" stop-color="#66AEC8"/><stop offset="0.59" stop-color="#528DB4"/><stop offset="0.73" stop-color="#38639C"/><stop offset="0.76" stop-color="#315895"/></linearGradient><linearGradient id="paint19_linear" x1="71.57" y1="49.75" x2="75.81" y2="62.01" gradientUnits="userSpaceOnUse"><stop offset="0.1" stop-color="#80D8E1"/><stop offset="0.21" stop-color="#7DD3DE"/><stop offset="0.33" stop-color="#74C5D6"/><stop offset="0.46" stop-color="#66AEC8"/><stop offset="0.59" stop-color="#528DB4"/><stop offset="0.73" stop-color="#38639C"/><stop offset="0.76" stop-color="#315895"/></linearGradient><linearGradient id="paint20_linear" x1="76.43" y1="77.43" x2="66.92" y2="77.43" gradientUnits="userSpaceOnUse"><stop offset="0.24" stop-color="#068B72"/><stop offset="0.42" stop-color="#07695D"/><stop offset="0.62" stop-color="#08494A"/><stop offset="0.79" stop-color="#09353D"/><stop offset="0.9" stop-color="#092E39"/></linearGradient><linearGradient id="paint21_linear" x1="72.43" y1="41.64" x2="52.75" y2="30.76" gradientUnits="userSpaceOnUse"><stop stop-color="#068B72"/><stop offset="0.15" stop-color="#07695D"/><stop offset="0.33" stop-color="#08494A"/><stop offset="0.47" stop-color="#09353D"/><stop offset="0.57" stop-color="#092E39"/></linearGradient><linearGradient id="paint22_linear" x1="76.32" y1="76.05" x2="80.23" y2="63.38" gradientUnits="userSpaceOnUse"><stop offset="0.1" stop-color="#80D8E1"/><stop offset="0.21" stop-color="#7DD3DE"/><stop offset="0.33" stop-color="#74C5D6"/><stop offset="0.46" stop-color="#66AEC8"/><stop offset="0.59" stop-color="#528DB4"/><stop offset="0.73" stop-color="#38639C"/><stop offset="0.76" stop-color="#315895"/></linearGradient><linearGradient id="paint23_linear" x1="75.43" y1="76.16" x2="47.7" y2="76.16" gradientUnits="userSpaceOnUse"><stop offset="0.03" stop-color="#068B72"/><stop offset="0.19" stop-color="#07695D"/><stop offset="0.37" stop-color="#08494A"/><stop offset="0.52" stop-color="#09353D"/><stop offset="0.63" stop-color="#092E39"/></linearGradient></defs><path fill-rule="evenodd" clip-rule="evenodd" d="M44.46 18.73L43.11 19.8 43.14 19.86C42.25 20.6 41.28 21.46 40.24 22.44 39.08 23.51 37.79 24.7 36.5 26.05L36.31 26.13 36.01 26.47C34.29 28.39 32.57 30.42 30.85 32.54L30.83 32.56 30.81 32.58C28.75 35.26 26.78 38.27 25.11 41.61 22.05 47.73 20 53.56 18.67 58.57 18.4 59.53 18.14 60.55 17.96 61.3 17.91 61.53 17.64 62.59 17.64 62.59 16.88 66.21 16.47 69.23 16.25 71.36 16.14 72.42 16.08 73.26 16.04 73.84 16.03 74.13 16.02 74.35 16.01 74.5 16.01 74.58 16 74.64 16 74.68L16 74.75 16 74.76C15.99 75.1 16.02 73.95 15.98 75.55L16.56 76.19C17.14 76.83 17.91 77.68 18.85 78.34 21.13 79.93 25.1 81.92 32.23 83.27L32.24 83.27 32.25 83.27C33.35 83.47 34.47 83.67 35.8 83.88L36.32 83.96 36.5 83.89C39.83 84.34 43.68 84.6 48.2 84.6H48.26L49.86 84.5C53.12 84.5 56.08 84.29 58.91 83.99L62.72 83.58 62.64 83.49C63.69 83.32 64.71 83.11 65.63 82.9H65.78L67.39 82.44C70.2 81.81 72.58 80.98 74.49 80.28 77.03 79.34 79.01 78.41 80.37 77.7 81.04 77.34 81.57 77.04 81.93 76.83 82.5 76.49 83.04 76.11 83.59 75.74 83.23 73.63 82.81 71.54 82.32 69.45 81.86 67.43 79.12 56.21 79.25 56.29L76.59 50.37C76.17 49.42 75.77 48.49 75.37 47.55L75.37 47.55 75.36 47.54 75.36 47.54 75.35 47.51C74.56 45.65 73.75 43.75 72.78 41.89 68.95 34.34 63.8 28.27 59.28 23.95L59.28 23.95 59.27 23.94C54.85 19.79 51.19 17.23 50.2 16.54L50.1 16.47 49.06 15.43 47.72 16.31C47.42 16.52 47.09 16.75 46.79 16.97 46.23 17.37 45.44 17.96 44.46 18.73Z" fill="white"/><path d="M50.4 50.5C51.5 50.5 52.7 50.5 53.8 50.5 55.2 50.5 56.5 50.4 57.9 50.3 56.5 50.2 55.2 50.2 53.8 50.1 52.7 50.1 51.6 50.1 50.5 50.1 51.1 49.5 51.7 48.8 52.3 48.2 53.1 47.4 53.9 46.5 54.6 45.6 53.7 46.4 52.9 47.1 52 47.9 51.4 48.5 50.7 49.1 50.1 49.8 50.1 48.3 50.1 46.8 50.1 45.3 50.1 43.6 50 42 49.9 40.3 49.8 42 49.8 43.6 49.7 45.3 49.7 46.8 49.7 48.3 49.7 49.8 49 49 48.3 48.2 47.6 47.5 46.8 46.6 46 45.7 45.1 44.8 45.8 45.8 46.6 46.7 47.3 47.7 48 48.5 48.6 49.3 49.3 50.1 48 50.1 46.8 50.1 45.5 50.1 44.1 50.1 42.8 50.2 41.4 50.3 42.8 50.4 44.1 50.4 45.5 50.5 46.8 50.5 48.1 50.5 49.3 50.5 48.5 51.3 47.8 52.1 47 52.9 46.2 53.7 45.4 54.6 44.7 55.5 45.6 54.7 46.4 54 47.3 53.2 48.1 52.5 48.9 51.7 49.6 50.9 49.6 52.4 49.6 53.9 49.6 55.3 49.6 57 49.7 58.6 49.8 60.3 49.9 58.6 49.9 57 50 55.3 50 53.8 50 52.4 50 50.9 50.7 51.7 51.3 52.4 52 53.2 52.8 54.1 53.6 55 54.5 55.9 53.8 54.9 53 54 52.3 53 51.8 52.1 51.1 51.3 50.4 50.5Z" fill="white"/><path d="M21.7 74.8H18.1C18.1 74.8 18.6 75.5 19.9 76.5L20.6 75.8 21.7 74.8Z" fill="#20323C"/><path d="M21.7 74.8L19.6 63C18.1 70.1 18 74.8 18 74.8H21.7Z" fill="#205176"/><path d="M19.7 63L21.7 74.8 27.7 70.6 29.2 69.6 30.9 59.8 30.7 59.1H26.8L24.4 61.8V59.1L19.7 63Z" fill="#D7E6E1"/><path d="M20.6 59.1C20.2 60.5 19.9 61.8 19.6 63.1L24.4 59.1V54.1L20.6 59.1Z" fill="#B1C9C9"/><path d="M26.9 42.5C23.9 48.5 21.9 54.2 20.6 59.1L24.4 54.1 29.2 47.8 30.9 40.9 26.9 42.5Z" fill="#18455F"/><path d="M21.7 74.8L23 75 30 71V70.9L27.7 70.6 21.7 74.8Z" fill="#7ACBBF"/><path d="M29.2 47.8V56.4L26.8 59.1 24.4 61.8V59.1 54.1L29.2 47.8Z" fill="#BED1D2"/><path d="M29.2 56.4L26.8 59.1H30.7L29.8 54.8 29.2 56.4Z" fill="#D7E6E1"/><path d="M27.7 70.6L30 70.9 30.9 59.8 29.2 69.6 27.7 70.6Z" fill="#7ACBBF"/><path d="M30 71L23 75 21.7 74.8 20.6 75.9 22.8 76.5 31.5 73.4 34.8 72.3 32.5 71.2 30 70.9V71Z" fill="#93D8BE"/><path d="M32.4 33.8L30.9 40.9 36 39.6 38.7 27.3 37.5 27.8C35.8 29.7 34.1 31.7 32.4 33.8Z" fill="#4C7483"/><path d="M31 58.5L36.3 45.7 36 42.1 29.2 47.8V56.4L29.8 54.8 30.7 59.1 31 58.5Z" fill="#7ACBBF"/><path d="M36.3 45.7L31 58.5 36.8 51.1 36.3 45.7Z" fill="#A4D5C7"/><path d="M31.5 73.4L33.4 74.2C33.4 74.2 33.4 74.2 37.5 76L44.1 78.7 47.2 77.5 34.8 72.3 31.5 73.4Z" fill="url(#paint0_linear)"/><path d="M32.4 33.8C30.4 36.4 28.5 39.3 26.9 42.5L30.9 41 32.4 33.8Z" fill="#335B62"/><path d="M20.6 75.74L22.7 76.46 31.5 73.28 33.4 74.1 34.8 76.67 37.5 75.95 44.1 78.72 41.6 79.75 36.1 81.9C34.8 81.69 33.7 81.49 32.6 81.28 25.7 79.95 22 78 20 76.56L20.6 75.74Z" fill="url(#paint1_linear)"/><path d="M32.5 71.2L34.8 72.3 47.2 77.5 47.7 77.7 47.8 77.5 60.2 70.6 55.6 70.7 53 70.8H51.8L42.8 71 39.7 71.1 32.5 71.2Z" fill="url(#paint2_linear)"/><path d="M36 40.2V42.1L38.3 41 39.7 37.7 36 40.2Z" fill="#7ACBBF"/><path d="M36 39.7L30.9 41 29.2 47.8 36 42.1V40.2L39.7 37.7 36 39.7Z" fill="#70AAB0"/><path d="M36 42.1L36.3 45.7 38.3 41 36 42.1Z" fill="#94D1BC"/><path d="M38.3 41L36.3 45.7 36.8 51.1 37.5 58.3 37.8 50.8 38.3 41Z" fill="#98CEBF"/><path d="M37.5 76C33.4 74.2 33.4 74.2 33.4 74.2L34.8 76.7 37.5 76Z" fill="#2A4D89"/><path d="M30.9 59.8L30.7 59.1 31 58.5 36.8 51.1 37.5 58.3 37.8 50.8 38.3 41 39.7 37.7 40.1 37.5 44.1 31 46.5 32.8V42.4L43.7 41.6 44.1 51.1V54.8 60.1L47.2 65.3 46 65.8 41.5 67.6 32.5 71.2 30 70.9 30.9 59.8Z" fill="url(#paint3_linear)"/><path d="M38.7 27.4L36 39.7 39.7 37.7 40.1 37.5 44.1 31V27.9L41.6 26.2 38.7 27.4Z" fill="url(#paint4_linear)"/><path d="M41.6 23.9C40.3 25.1 38.9 26.4 37.5 27.9L38.7 27.4 41.6 26.2V23.9Z" fill="#29484D"/><path d="M39.7 71.1V71L41.5 67.6 32.5 71.2 39.7 71.1Z" fill="#0D474D"/><path d="M41.5 67.6L39.7 71V71.1L42.8 71 46 65.9 41.5 67.6Z" fill="url(#paint5_linear)"/><path d="M41.6 26.2L44.1 27.9V25.1L41.6 26.2Z" fill="#70AAB0"/><path d="M46 65.9L42.8 71 51.8 70.8 47.2 65.4 46 65.9Z" fill="#0D474D"/><path d="M46.5 21.7L44.1 25.1 50.8 23.1 46.5 21.7Z" fill="#70AAB0"/><path d="M45.8 20.3C44.6 21.2 43.2 22.4 41.6 23.9V26.1L44.1 25 46.5 21.7 45.8 20.3Z" fill="#2C5B59"/><path d="M47.2 58.3V51.1 47.8L48.4 48.8 47.2 33.3 46.5 32.8V42.4L43.7 41.6 44.1 51.1 47.2 59.1V58.3Z" fill="#94D1BC"/><path d="M47.2 59.1L44.1 51.1V54.8 60.1L47.2 65.3 47.9 64.8 47.2 58.3V59.1Z" fill="#B2DDCF"/><path d="M47.7 77.7L49.8 78.3 55.1 76.7 57.4 78.3V79.4L59.8 79.3 62.6 76.7V76L58.1 77.8 53.3 75 55.2 74.2 59 76.7 61.9 75.5 62.6 76 60.2 70.6 47.8 77.5 47.7 77.7Z" fill="url(#paint6_linear)"/><path d="M46 65.8L47.2 65.3 47.9 64.8 53.3 62.5V63.1L48.1 65.1 47.2 65.4 46 65.9 41.5 67.6 46 65.8Z" fill="#7ACBBF"/><path d="M48.1 65.1L53 70.7V70.8L55.6 70.7 60.5 67.3 62.6 69.7 66.3 68.3 55.6 62.2V69.3L53.3 70.1V63.1L48.1 65.1Z" fill="url(#paint7_linear)"/><path d="M50.8 23.1L48.8 18C48.8 18 47.6 18.8 45.7 20.3L46.5 21.7 50.8 23.1Z" fill="#426A67"/><path d="M57.4 80.5L48.3 82.5C48.8 82.5 49.3 82.5 49.8 82.5 53 82.5 55.9 82.3 58.7 82L57.4 80.5Z" fill="#ADCEAC"/><path d="M49.8 78.3L47.7 77.7 47.1 77.5 44 78.7 41.5 79.7 36 81.8C39.4 82.3 43.4 82.6 48.2 82.6L57.3 80.6 49.8 78.3Z" fill="url(#paint8_linear)"/><path d="M49.8 78.3L57.4 80.5 61.1 81.7 59.8 79.3 57.4 79.4V78.3L55.1 76.7 49.8 78.3Z" fill="url(#paint9_linear)"/><path d="M50.8 23.1L44.1 25.1V27.9 31L46.5 32.8 47.2 33.3 55.2 39.4 55.6 39.7 50.8 23.1Z" fill="url(#paint10_linear)"/><path d="M51.2 37.1L53.7 53 55 61.2 61.5 64.8 61 53.5 58.3 48.8 52 37.8 51.2 37.1Z" fill="#2A4358"/><path d="M52 37.8L55.2 39.4 52.4 37.7 52 37.8Z" fill="#EEB833"/><path d="M47.2 33.3L55.2 39.4 53.7 38.77 52 37.8 51.2 37.1 53.7 53 55 61.2 54.9 61.8 53.3 62.5 47.9 64.8 47.2 58.3V51.1 47.8L48.4 48.8 47.2 33.3Z" fill="url(#paint11_linear)"/><path d="M53 70.7L48.1 65.1 47.2 65.4 51.8 70.8H53V70.7Z" fill="#006D65"/><path d="M53.3 63.1V70.1L55.6 69.3V62.2L53.3 63.1Z" fill="#2A4D89"/><path d="M53.3 62.5V63.1L55.6 62.2 54.9 61.8 53.3 62.5Z" fill="#7ACBBF"/><path d="M53.3 75L58.1 77.8 62.6 76 61.9 75.5 59 76.7 55.2 74.2 53.3 75Z" fill="url(#paint12_linear)"/><path d="M55.2 39.4L52 37.8 58.3 48.8 62.6 50.4V56.1L65.5 61.2 64.1 44 55.6 39.7 55.2 39.4Z" fill="url(#paint13_linear)"/><path d="M55.6 62.2L66.3 68.3 66.9 67.9 61.5 64.8 55 61.2 54.9 61.8 55.6 62.2Z" fill="#7ACBBF"/><path d="M55.6 70.7L60.2 70.6 62.6 69.7 60.5 67.3 55.6 70.7Z" fill="#2A4D89"/><path d="M57.9 25.4C52.9 20.7 48.9 18.1 48.8 18L50.8 23.1 57.9 25.4Z" fill="#0E3F51"/><path d="M58.3 48.8L61 53.5 62.6 56.1V50.4L58.3 48.8Z" fill="#2A4D89"/><path d="M59.5 30.1L60.8 34.2H63.6L62 31.4 59.5 30.1Z" fill="#0E3B4C"/><path d="M59.8 79.3L65.5 80.9 62.6 76.7 59.8 79.3Z" fill="url(#paint14_linear)"/><path d="M61.1 81.7L57.3 80.5 58.6 82C59.5 81.9 60.3 81.8 61.1 81.7Z" fill="#345A58"/><path d="M61.1 81.7C62.6 81.5 64.1 81.2 65.4 80.9L59.8 79.3 61.1 81.7Z" fill="#345A58"/><path d="M61 53.5L62.6 56.1 65.5 61.2 65.9 63.1 66.3 64.8 66.9 67.9 61.5 64.8 61 53.5Z" fill="#0D474D"/><path d="M61.5 36.2L60.8 34.2 59.5 30.1 57.9 25.4 50.8 23.1 55.6 39.7 64.1 44 61.5 36.2Z" fill="url(#paint15_linear)"/><path d="M61.5 36.2L64.1 44 66.3 45.5 64.7 39.7 65.9 38.6 61.5 36.2Z" fill="#0E3B4C"/><path d="M64.1 44L65.5 61.2 65.9 63.1H66.9L69 64.8V66.5L72.2 67.3 73.3 68.4 76.1 67.3 77 59.5 72.5 60.1H72 70.5V57.1L69.8 51.7 72.5 54 71.2 48.8 66.3 45.6V45.5L64.1 44Z" fill="url(#paint16_linear)"/><path d="M64.7 74.2L66.3 77.5H69L68.2 76.5 70 77.8 73.3 74.8 68.3 72.3 64.7 74.2Z" fill="url(#paint17_linear)"/><path d="M65.9 63.1L66.3 64.8 69 66.5V64.8L66.9 63.1H65.9Z" fill="url(#paint18_linear)"/><path d="M62.6 69.7L66.4 68.2 67 67.8 69.8 69.1 75.6 71.9 75.5 72.8 73.9 74.3 73.4 74.8 68.5 72.2 64.8 74.1 66.5 77.4H69.1L68.4 76.4 70.1 77.7 67 80.4C66.5 80.5 66 80.6 65.5 80.7L62.6 76.5 62.5 75.8 60.2 70.4 62.6 69.7Z" fill="#132A38"/><path d="M69.8 51.7L70.5 57.1 72 56.5V60.1H72.5V54L69.8 51.7Z" fill="#132A38"/><path d="M70.5 57.1V60.1H72V56.5L70.5 57.1Z" fill="#2A4D89"/><path d="M72.5 54V60.1L77 59.5 77.1 58.1 72.5 54Z" fill="url(#paint19_linear)"/><path d="M70 77.8L66.9 80.5C69.6 79.9 71.9 79.1 73.8 78.4L76.4 75.4 73.8 74.3 73.3 74.8 70 77.8Z" fill="url(#paint20_linear)"/><path d="M66.3 64.8L69 66.5 72.2 67.3 73.3 68.4 76.1 67.3 75.8 69.9 75.7 71.2 75.6 72 69.7 69.2 66.9 67.9 66.3 64.8Z" fill="#1E2B3D"/><path d="M73.8 74.3L76.4 75.5 77 74.8 76.5 74.2 73.8 74.3Z" fill="#2A4D89"/><path d="M73.8 74.3L76.5 74.2 75.5 72.9 73.8 74.3Z" fill="#003231"/><path d="M73.8 78.4C78.7 76.6 81.4 74.8 81.4 74.8L75.5 72.8 76.5 74.1 77 74.7 76.4 75.3 73.8 78.4Z" fill="#163C45"/><path d="M71 42.8C67.3 35.5 62.3 29.6 57.9 25.4L59.5 30.1 62 31.4 63.6 34.2H60.9L61.6 36.3 65.65 38.53 64.55 39.71 66.17 45.62 71.4 48.9 74.77 51.18C73.47 48.28 72.4 45.5 71 42.8Z" fill="url(#paint21_linear)"/><path d="M74.7 51.1C75.3 55.6 75.3 55.6 75.3 55.6H76.4C75.8 54.1 75.3 52.6 74.7 51.1Z" fill="#2A4D89"/><path d="M81.4 74.8C81.4 74.8 80.1 67.3 77.1 58.1L77 59.4 76.1 67.3 76.3 67.2 75.8 69.8 75.6 71.2 75.5 72 75.4 72.9 81.4 74.8Z" fill="url(#paint22_linear)"/><path d="M76.1 67.3L75.8 69.9 76.3 67.3H76.1Z" fill="#80B4B6"/><path d="M77.1 58.1C76.8 57.3 76.73 56.4 76.43 55.6H75.32C75.32 55.6 75.32 55.63 74.72 51.13L70.89 48.53 72.4 54 77.1 58.1Z" fill="#132A38"/><path d="M47.7 77.6L60.2 70.6 75.4 73 66.9 80.5 60.7 81.7 47.7 77.6Z" fill="url(#paint23_linear)"/><path opacity="0.22" d="M33.4 71L61.1 70.4 67.3 68 56.5 62 48.1 65.1 33.4 71Z" fill="white"/><path d="M32.8 42.7C33.1 42.7 33.4 42.7 33.7 42.6 34.3 42.6 34.9 42.5 35.5 42.5 36.5 42.5 37.5 42.5 38.5 42.4 38 41.8 37.4 41.1 36.9 40.4 36.6 40 36.2 39.6 35.9 39.2 35.7 39 35.6 38.8 35.4 38.6 35.2 38.4 35.1 38.2 34.9 38 35.1 38.2 35.3 38.4 35.5 38.6 35.7 38.8 35.9 39 36.1 39.2 36.5 39.6 36.8 40 37.2 40.3 37.8 40.9 38.4 41.6 39 42.2 39 40.7 39 39.1 39.1 37.6 39.1 36.7 39.1 35.9 39.2 35 39.2 34.6 39.2 34.1 39.3 33.7 39.3 33.3 39.3 32.8 39.4 32.4 39.4 32.8 39.4 33.3 39.5 33.7 39.5 34.1 39.5 34.6 39.6 35 39.6 35.9 39.7 36.7 39.7 37.6 39.7 39 39.7 40.5 39.8 41.9 39.9 41.8 40 41.7 40.1 41.6 40.3 41.4 40.4 41.3 40.6 41.1 40.7 41 40.8 40.9 40.9 40.8L41.2 40.5C41.5 40.2 41.9 39.8 42.2 39.5 42.4 39.3 42.6 39.2 42.7 39 42.9 38.8 43.1 38.7 43.2 38.5 43.1 38.7 42.9 38.9 42.8 39.1 42.6 39.3 42.5 39.5 42.3 39.7 42 40.1 41.7 40.4 41.4 40.8L41.2 41.1C41.1 41.2 41 41.3 41 41.4 40.8 41.6 40.7 41.8 40.5 41.9 40.3 42.1 40.2 42.3 40 42.5 41.1 42.5 42.2 42.5 43.3 42.6 43.9 42.6 44.5 42.6 45.1 42.7 45.4 42.7 45.7 42.7 46 42.8 46.3 42.8 46.6 42.8 46.9 42.9 46.6 42.9 46.3 42.9 46 43 45.7 43 45.4 43 45.1 43.1 44.5 43.1 43.9 43.2 43.3 43.2 42.2 43.2 41.1 43.2 40 43.3 40.6 44 41.2 44.7 41.7 45.4 42 45.8 42.4 46.2 42.7 46.6 42.9 46.8 43 47 43.2 47.2 43.4 47.4 43.5 47.6 43.7 47.8 43.5 47.6 43.3 47.4 43.1 47.2 42.9 47 42.7 46.8 42.5 46.6 42.1 46.2 41.8 45.8 41.4 45.5 40.9 44.9 40.3 44.3 39.8 43.7 39.8 45.1 39.8 46.6 39.7 48 39.7 48.9 39.7 49.7 39.6 50.6 39.6 51 39.6 51.5 39.5 51.9 39.5 52.3 39.5 52.8 39.4 53.2 39.4 52.8 39.4 52.3 39.3 51.9 39.3 51.5 39.3 51 39.2 50.6 39.2 49.7 39.1 48.9 39.1 48 39.1 46.4 39 44.9 39 43.3 38.7 43.6 38.4 43.9 38.2 44.2 38 44.4 37.9 44.5 37.7 44.7L37.4 45 37.1 45.3C36.8 45.6 36.4 46 36.1 46.3 35.9 46.5 35.7 46.6 35.6 46.8 35.4 47 35.2 47.1 35.1 47.3 35.2 47.1 35.4 46.9 35.5 46.7 35.7 46.5 35.8 46.3 36 46.1 36.3 45.7 36.6 45.4 36.9 45L37.1 44.7 37.3 44.4C37.5 44.2 37.6 44 37.8 43.9 38 43.7 38.2 43.4 38.5 43.2 37.5 43.2 36.6 43.2 35.6 43.1 35 43.1 34.4 43.1 33.8 43 33.5 43 33.2 43 32.9 42.9 32.6 42.9 32.3 42.9 32 42.8 32.2 42.8 32.5 42.7 32.8 42.7Z" fill="white"/></svg>