<svg width="100" height="100" viewBox="0 0 100 100" fill="none" xmlns="http://www.w3.org/2000/svg"><defs><linearGradient id="paint0_linear" x1="64.06" y1="72.72" x2="81.64" y2="72.72" gradientUnits="userSpaceOnUse"><stop offset="0.06" stop-color="#FC6F00"/><stop offset="0.19" stop-color="#F94E00"/><stop offset="0.44" stop-color="#F30500"/></linearGradient><linearGradient id="paint1_linear" x1="49.94" y1="71.74" x2="49.61" y2="100.21" gradientUnits="userSpaceOnUse"><stop offset="0.06" stop-color="#FC6F00"/><stop offset="0.19" stop-color="#F94E00"/><stop offset="0.44" stop-color="#F30500"/></linearGradient><linearGradient id="paint2_linear" x1="25.63" y1="37.06" x2="46.86" y2="14.91" gradientUnits="userSpaceOnUse"><stop offset="0.12" stop-color="#FFEA52"/><stop offset="0.28" stop-color="#FFB734"/><stop offset="0.46" stop-color="#FF8618"/><stop offset="0.59" stop-color="#FF6807"/><stop offset="0.67" stop-color="#FF5D00"/></linearGradient><linearGradient id="paint3_linear" x1="70.53" y1="40.54" x2="31.02" y2="58.27" gradientUnits="userSpaceOnUse"><stop stop-color="#FEE07C"/><stop offset="0.1" stop-color="#FEE387"/><stop offset="0.43" stop-color="#FFEDA5"/><stop offset="0.61" stop-color="#FFF0B0"/></linearGradient></defs><path fill-rule="evenodd" clip-rule="evenodd" d="M65.51 16.59C65.14 16.21 64.63 16 64.1 16H35.6C35.07 16 34.56 16.21 34.19 16.59L16.59 34.19C16.21 34.56 16 35.07 16 35.6V64.1C16 64.85 16.41 65.5 17.01 65.84L25.22 74.02C25.32 74.2 25.44 74.37 25.59 74.52L34.19 83.02C34.57 83.39 35.07 83.6 35.6 83.6H64.1C64.63 83.6 65.14 83.39 65.51 83.01L83.01 65.51C83.39 65.14 83.6 64.63 83.6 64.1V35.6C83.6 35.07 83.39 34.57 83.02 34.19L74.42 25.49 65.51 16.59Z" fill="white"/><path d="M81.6 49.8V64.1L72.2 49.8H81.6Z" fill="#E00B00"/><path d="M81.6 35.6V49.8H72.2L81.6 35.6Z" fill="#FF5D00"/><path d="M81.6 35.6L72.2 49.8 68.2 42.9 81.6 35.6Z" fill="#FFA60D"/><path d="M72.2 49.8L81.6 64.1 68.2 56.7 72.2 49.8Z" fill="#FF1F0D"/><path d="M81.6 35.6L68.5 42.8 55.5 49.8 54 46 67.4 40.9 81.6 35.6Z" fill="#FFA60D"/><path d="M81.6 35.6L67.1 41 64.1 35.8 81.6 35.6Z" fill="#FF5D00"/><path d="M81.6 35.6L64.1 35.8 73 26.9 81.6 35.6Z" fill="#E00B00"/><path d="M81.6 64.1L70.24 57.68 55.5 49.8 54 53.7 66.9 58.5 64.1 63.8 81.6 64.1Z" fill="#C90500"/><path d="M68.2 42.9L72.2 49.8H55.5L68.2 42.9Z" fill="#FF1F0D"/><path d="M72.2 49.8L68.2 56.7 55.5 49.8H72.2Z" fill="#C90500"/><path d="M73 26.9L64.1 35.8V18L73 26.9Z" fill="#E00B00"/><path d="M64.1 63.8V81.6L73 72.7 81.6 64.1 64.1 63.8Z" fill="url(#paint0_linear)"/><path d="M64.1 35.8L67.1 41 54 46 64.1 35.8Z" fill="#E83C0C"/><path d="M66.9 58.5L64.1 63.8 54 53.7 66.9 58.5Z" fill="#C90500"/><path d="M54 53.7L64.1 63.8 58.7 66.7 54 53.7Z" fill="#E83C0C"/><path d="M64.1 18V35.8L58.5 33.3 64.1 18Z" fill="#C90500"/><path d="M64.1 35.8L54 46 58.5 33.3 64.1 35.8Z" fill="#C90500"/><path d="M64.1 18L58.5 33.3 54 46 49.8 44.1 56.4 32.1 64.1 18Z" fill="#FF5D00"/><path d="M64.1 18L57.3 30.5 49.8 28.5 64.1 18Z" fill="#FF5D00"/><path d="M58.7 66.7L54 53.7 49.8 55.5 56.1 67.1 64.1 81.6V63.8L58.7 66.7Z" fill="#FFA60D"/><path d="M64.1 18L49.8 28.5V18H64.1Z" fill="#FF5D00"/><path d="M57.3 30.5L49.8 44.1V28.5L57.3 30.5Z" fill="#E00B00"/><path d="M55.5 49.8L54 53.7 49.8 55.5 46 54 44.1 49.8 46 45.6 49.8 44.1 54 46 55.5 49.8Z" fill="#FED683"/><path d="M49.8 71.2L35.6 81.6H49.8 64.1L49.8 71.2Z" fill="url(#paint1_linear)"/><path d="M49.8 28.5V44.1L42.4 30.5 49.8 28.5Z" fill="#E00B00"/><path d="M49.8 18V28.5L35.6 18H49.8Z" fill="#C90500"/><path d="M41.9 65L46 54 49.8 55.5 44.1 66 35.6 81.6 41.9 65Z" fill="#E89F0C"/><path d="M49.8 28.5L42.4 30.5 35.6 18 49.8 28.5Z" fill="#E00B00"/><path d="M57.3 69.2L49.8 55.5 42.4 69.2 35.6 81.6 49.8 71.2 64.1 81.6 57.3 69.2Z" fill="#C90500"/><path d="M41.1 32.7L46 45.6 36 35.7 41.1 32.7Z" fill="#FFA60D"/><path d="M36 35.7L46 45.6 33.6 41.2 36 35.7Z" fill="#FFF0B0"/><path d="M46 45.6L44.1 49.8 32.3 43.4 18 35.6 33.6 41.2 46 45.6Z" fill="#FEEA8D"/><path d="M46 54L41.9 65 36.3 63.9 46 54Z" fill="#FFF4C7"/><path d="M46 54L36.3 63.9 33.1 58.7 46 54Z" fill="#FED683"/><path d="M44.1 49.8L32.3 56.3 29 49.8H44.1Z" fill="#FFF4C7"/><path d="M44.1 49.8H29L32.3 43.4 44.1 49.8Z" fill="#FED683"/><path d="M44.08 66.11L35.6 81.6 36.1 64.1 44.08 66.11Z" fill="#E89F0C"/><path d="M43.1 31.8L35.6 18 35.99 35.78 41.1 32.6 35.7 18.2C36.5 20.3 41.1 32.6 41.1 32.6L46 45.5 49.9 44 43.1 31.8ZM35.6 18C35.6 18 35.6 18.1 35.7 18.1L35.6 18Z" fill="#FFF4C7"/><path d="M36.1 64.1L35.6 81.6 27 73.1 36.1 64.1Z" fill="#DD9029"/><path d="M36.1 64.1C35.9 64.3 27.11 73.08 27.11 73.08L18 64 36.1 64.1Z" fill="#FFA60D"/><path d="M36.1 64.1H18L33.6 58.5 36.1 64.1Z" fill="#FFC70D"/><path d="M35.6 18L27 26.6 18 35.6 36 35.7 35.6 18Z" fill="url(#paint2_linear)"/><path d="M36 35.7L33.6 41.2 18 35.6 36 35.7Z" fill="#FFFBEB"/><path d="M18 35.6L32.3 43.4 29 49.8 18 35.6Z" fill="#FFEA52"/><path d="M44.1 49.8L32.3 56.3 29 49.8 18 64.1 33.1 58.7 46 54 44.1 49.8Z" fill="#FED683"/><path d="M18 35.6L29 49.8H18V35.6Z" fill="#FFF7D7"/><path d="M29 49.8L18 64.1V49.8H29Z" fill="#FEEA8D"/><path d="M59.6 30.5H42.4L36 35.7 29 49.8 36.1 64.1 42.4 69.2H57.3L64 64.1 72.3 49.8 64.1 35.8 59.6 30.5Z" fill="url(#paint3_linear)"/><path d="M32.8 42.3C34.1 42.3 35.4 42.3 36.7 42.3 38.2 42.3 39.8 42.2 41.3 42.1 39.8 42 38.2 42 36.7 41.9 35.4 41.9 34.2 41.9 32.9 41.9 33.6 41.2 34.3 40.5 35 39.8 35.9 38.9 36.8 37.9 37.7 37 36.7 37.8 35.7 38.7 34.8 39.6 34.1 40.3 33.3 41 32.6 41.7 32.6 40 32.6 38.4 32.5 36.7 32.5 34.9 32.4 33 32.3 31.2 32.2 33 32.1 34.9 32.1 36.7 32.1 38.3 32.1 40 32 41.6 31.2 40.7 30.4 39.9 29.7 39 28.8 38 27.8 37 26.9 36.1 27.7 37.2 28.6 38.2 29.4 39.3 30.2 40.2 30.9 41.1 31.7 42 30.2 42 28.8 42 27.3 42 25.8 42 24.2 42.1 22.7 42.2 24.2 42.3 25.8 42.3 27.3 42.4 28.8 42.4 30.2 42.4 31.7 42.4 30.8 43.3 29.9 44.1 29.1 45 28.2 45.9 27.3 46.9 26.4 47.8 27.4 47 28.4 46.1 29.3 45.2 30.2 44.4 31.1 43.5 32 42.7 32 44.3 32 46 32.1 47.6 32.1 49.4 32.2 51.3 32.3 53.1 32.4 51.3 32.5 49.4 32.5 47.6 32.5 46 32.5 44.4 32.6 42.8 33.3 43.6 34.1 44.5 34.9 45.3 35.8 46.3 36.8 47.3 37.7 48.2 36.9 47.1 36 46.1 35.2 45 34.4 44.1 33.6 43.2 32.8 42.3Z" fill="white"/><path opacity="0.63" d="M42.4 30.5L61.8 24.2 62.2 23.2 39.8 25.8 42.4 30.5Z" fill="white"/><path opacity="0.63" d="M41.4 23.4L49.8 21.1 48.2 20.3 40.5 22.3 41.4 23.4Z" fill="white"/><path opacity="0.27" d="M63.3 28.5L67.1 41 81.6 35.6 63.3 28.5Z" fill="white"/><path opacity="0.22" d="M62.2 25.9L71.3 30.1H72.9L62.7 24.5 62.2 25.9Z" fill="white"/><path opacity="0.33" d="M42.4 69.2L60.4 75 62.8 79.4 38.4 76.4 42.4 69.2Z" fill="white"/><path opacity="0.38" d="M64.1 81.6L75.1 60.5 75.9 44.2 80.8 63.6 64.1 81.6Z" fill="white"/><path opacity="0.34" d="M32.3 56.3L59.6 30.5 64.1 35.8 36.1 64.1 32.3 56.3Z" fill="white"/><path opacity="0.34" d="M38.4 65.7L65.6 38.4 68.2 42.9 42.4 69.2 38.4 65.7Z" fill="white"/><path opacity="0.34" d="M49.8 64.4L65.8 48.9V52.7L53.3 65.6 49.8 64.4Z" fill="white"/></svg>