<svg width="100" height="100" viewBox="0 0 100 100" fill="none" xmlns="http://www.w3.org/2000/svg"><defs><linearGradient id="paint0_linear" x1="56.56" y1="62.23" x2="82.24" y2="62.23" gradientUnits="userSpaceOnUse"><stop offset="0.15" stop-color="#430084"/><stop offset="0.38" stop-color="#832BA2"/><stop offset="0.59" stop-color="#B74EBB"/><stop offset="0.74" stop-color="#D764CA"/><stop offset="0.83" stop-color="#E36CD0"/></linearGradient><linearGradient id="paint1_linear" x1="65.86" y1="74.21" x2="82.24" y2="74.21" gradientUnits="userSpaceOnUse"><stop offset="0.17" stop-color="#CF4DB7"/><stop offset="0.27" stop-color="#C346B3"/><stop offset="0.44" stop-color="#A335A7"/><stop offset="0.67" stop-color="#6F1894"/><stop offset="0.85" stop-color="#430084"/></linearGradient><linearGradient id="paint2_linear" x1="63.82" y1="42.2" x2="78.32" y2="56.46" gradientUnits="userSpaceOnUse"><stop offset="0.27" stop-color="#430084"/><stop offset="0.76" stop-color="#C47AE7"/></linearGradient><linearGradient id="paint3_linear" x1="49.6" y1="74.21" x2="73.83" y2="74.21" gradientUnits="userSpaceOnUse"><stop offset="0.27" stop-color="#430084"/><stop offset="0.76" stop-color="#C47AE7"/></linearGradient><linearGradient id="paint4_linear" x1="51.2" y1="65.22" x2="73.83" y2="65.22" gradientUnits="userSpaceOnUse"><stop offset="0.44" stop-color="#430084"/><stop offset="0.55" stop-color="#460387"/><stop offset="0.65" stop-color="#510D8F"/><stop offset="0.74" stop-color="#621E9C"/><stop offset="0.83" stop-color="#7B35AF"/><stop offset="0.91" stop-color="#9B53C8"/><stop offset="1" stop-color="#C278E5"/><stop offset="1" stop-color="#C47AE7"/></linearGradient><linearGradient id="paint5_linear" x1="56.56" y1="34.04" x2="74.05" y2="34.04" gradientUnits="userSpaceOnUse"><stop offset="0.19" stop-color="#430084"/><stop offset="0.62" stop-color="#C47AE7"/></linearGradient><linearGradient id="paint6_linear" x1="51.2" y1="57.94" x2="68.49" y2="57.94" gradientUnits="userSpaceOnUse"><stop offset="0.27" stop-color="#430084"/><stop offset="0.76" stop-color="#C47AE7"/></linearGradient><linearGradient id="paint7_linear" x1="47.75" y1="80.07" x2="65.86" y2="80.07" gradientUnits="userSpaceOnUse"><stop offset="0.15" stop-color="#430084"/><stop offset="0.32" stop-color="#6F1894"/><stop offset="0.55" stop-color="#A335A7"/><stop offset="0.72" stop-color="#C346B3"/><stop offset="0.82" stop-color="#CF4DB7"/></linearGradient><linearGradient id="paint8_linear" x1="50.11" y1="31.28" x2="63.07" y2="31.28" gradientUnits="userSpaceOnUse"><stop offset="0.36" stop-color="#C47AE7"/><stop offset="0.38" stop-color="#BB72E0"/><stop offset="0.55" stop-color="#7B35AF"/><stop offset="0.67" stop-color="#520F90"/><stop offset="0.73" stop-color="#430084"/></linearGradient><linearGradient id="paint9_linear" x1="45.32" y1="38.46" x2="53.47" y2="52.2" gradientUnits="userSpaceOnUse"><stop offset="0.41" stop-color="#F4A6FF"/><stop offset="0.73" stop-color="#B54DDE"/></linearGradient><linearGradient id="paint10_linear" x1="37.01" y1="17.77" x2="51.73" y2="36.93" gradientUnits="userSpaceOnUse"><stop offset="0.27" stop-color="#CE84FC"/><stop offset="0.59" stop-color="#F4A6FF"/></linearGradient><linearGradient id="paint11_linear" x1="29.22" y1="38.74" x2="53.38" y2="38.74" gradientUnits="userSpaceOnUse"><stop offset="0.27" stop-color="#B54DDE"/><stop offset="0.59" stop-color="#F4A6FF"/></linearGradient><linearGradient id="paint12_linear" x1="39.42" y1="80.36" x2="50.36" y2="50.76" gradientUnits="userSpaceOnUse"><stop offset="0.61" stop-color="#B55CCB"/><stop offset="1" stop-color="#F4A6FF"/></linearGradient><linearGradient id="paint13_linear" x1="35.89" y1="79.58" x2="47.75" y2="79.58" gradientUnits="userSpaceOnUse"><stop offset="0.24" stop-color="#C47AE7"/><stop offset="0.73" stop-color="#430084"/></linearGradient><linearGradient id="paint14_linear" x1="33.09" y1="69.12" x2="45.83" y2="69.12" gradientUnits="userSpaceOnUse"><stop offset="0.24" stop-color="#C47AE7"/><stop offset="0.73" stop-color="#430084"/></linearGradient><linearGradient id="paint15_linear" x1="31.49" y1="57.07" x2="43.21" y2="57.07" gradientUnits="userSpaceOnUse"><stop offset="0.24" stop-color="#C47AE7"/><stop offset="0.73" stop-color="#430084"/></linearGradient><linearGradient id="paint16_linear" x1="17.97" y1="68.92" x2="35.89" y2="68.92" gradientUnits="userSpaceOnUse"><stop offset="0.27" stop-color="#430084"/><stop offset="0.76" stop-color="#C47AE7"/></linearGradient><linearGradient id="paint17_linear" x1="17.97" y1="59.22" x2="33.09" y2="59.22" gradientUnits="userSpaceOnUse"><stop offset="0.27" stop-color="#430084"/><stop offset="0.76" stop-color="#C47AE7"/></linearGradient><linearGradient id="paint18_linear" x1="59.84" y1="35.92" x2="65.24" y2="35.92" gradientUnits="userSpaceOnUse"><stop offset="0.48" stop-color="#FFA3E7"/><stop offset="0.62" stop-color="#F797E1"/><stop offset="0.86" stop-color="#E377D3"/><stop offset="1" stop-color="#D562C9"/></linearGradient><linearGradient id="paint19_linear" x1="56.83" y1="13.82" x2="67.21" y2="50.46" gradientUnits="userSpaceOnUse"><stop stop-color="white"/><stop offset="0.14" stop-color="#FCFCFC"/><stop offset="0.27" stop-color="#F1F1F1"/><stop offset="0.38" stop-color="#E0E0E0"/><stop offset="0.49" stop-color="#C7C7C7"/><stop offset="0.6" stop-color="#A7A7A7"/><stop offset="0.71" stop-color="#7F7F7F"/><stop offset="0.81" stop-color="#515151"/><stop offset="0.91" stop-color="#1C1C1C"/><stop offset="0.95"/></linearGradient><linearGradient id="paint20_linear" x1="56.83" y1="13.82" x2="67.21" y2="50.46" gradientUnits="userSpaceOnUse"><stop stop-color="white"/><stop offset="0.89" stop-color="white"/><stop offset="0.95" stop-color="white"/></linearGradient><linearGradient id="paint21_linear" x1="41.02" y1="18.3" x2="51.4" y2="54.93" gradientUnits="userSpaceOnUse"><stop offset="0.05"/><stop offset="0.09" stop-color="#1C1C1C"/><stop offset="0.19" stop-color="#515151"/><stop offset="0.29" stop-color="#7F7F7F"/><stop offset="0.4" stop-color="#A7A7A7"/><stop offset="0.51" stop-color="#C7C7C7"/><stop offset="0.62" stop-color="#E0E0E0"/><stop offset="0.73" stop-color="#F1F1F1"/><stop offset="0.86" stop-color="#FCFCFC"/><stop offset="1" stop-color="white"/></linearGradient><linearGradient id="paint22_linear" x1="41.02" y1="18.3" x2="51.4" y2="54.93" gradientUnits="userSpaceOnUse"><stop offset="0.05" stop-color="white"/><stop offset="0.11" stop-color="white"/><stop offset="1" stop-color="white"/></linearGradient><linearGradient id="paint23_linear" x1="31.19" y1="25.65" x2="40.15" y2="57.26" gradientUnits="userSpaceOnUse"><stop offset="0.05"/><stop offset="0.09" stop-color="#1C1C1C"/><stop offset="0.19" stop-color="#515151"/><stop offset="0.29" stop-color="#7F7F7F"/><stop offset="0.4" stop-color="#A7A7A7"/><stop offset="0.51" stop-color="#C7C7C7"/><stop offset="0.62" stop-color="#E0E0E0"/><stop offset="0.73" stop-color="#F1F1F1"/><stop offset="0.86" stop-color="#FCFCFC"/><stop offset="1" stop-color="white"/></linearGradient><linearGradient id="paint24_linear" x1="31.19" y1="25.65" x2="40.15" y2="57.26" gradientUnits="userSpaceOnUse"><stop offset="0.05" stop-color="white"/><stop offset="0.11" stop-color="white"/><stop offset="1" stop-color="white"/></linearGradient><linearGradient id="paint25_linear" x1="28.31" y1="53.32" x2="30.27" y2="60.25" gradientUnits="userSpaceOnUse"><stop offset="0.05"/><stop offset="0.09" stop-color="#1C1C1C"/><stop offset="0.19" stop-color="#515151"/><stop offset="0.29" stop-color="#7F7F7F"/><stop offset="0.4" stop-color="#A7A7A7"/><stop offset="0.51" stop-color="#C7C7C7"/><stop offset="0.62" stop-color="#E0E0E0"/><stop offset="0.73" stop-color="#F1F1F1"/><stop offset="0.86" stop-color="#FCFCFC"/><stop offset="1" stop-color="white"/></linearGradient><linearGradient id="paint26_linear" x1="28.31" y1="53.32" x2="30.27" y2="60.25" gradientUnits="userSpaceOnUse"><stop offset="0.05" stop-color="white"/><stop offset="0.11" stop-color="white"/><stop offset="1" stop-color="white"/></linearGradient><linearGradient id="paint27_linear" x1="40.39" y1="18.49" x2="50.48" y2="54.1" gradientUnits="userSpaceOnUse"><stop offset="0.05"/><stop offset="0.09" stop-color="#1C1C1C"/><stop offset="0.19" stop-color="#515151"/><stop offset="0.29" stop-color="#7F7F7F"/><stop offset="0.4" stop-color="#A7A7A7"/><stop offset="0.51" stop-color="#C7C7C7"/><stop offset="0.62" stop-color="#E0E0E0"/><stop offset="0.73" stop-color="#F1F1F1"/><stop offset="0.86" stop-color="#FCFCFC"/><stop offset="1" stop-color="white"/></linearGradient><linearGradient id="paint28_linear" x1="40.39" y1="18.49" x2="50.48" y2="54.1" gradientUnits="userSpaceOnUse"><stop offset="0.05" stop-color="white"/><stop offset="0.11" stop-color="white"/><stop offset="1" stop-color="white"/></linearGradient><linearGradient id="paint29_linear" x1="44.06" y1="27.55" x2="50.58" y2="50.57" gradientUnits="userSpaceOnUse"><stop offset="0.05"/><stop offset="0.09" stop-color="#1C1C1C"/><stop offset="0.19" stop-color="#515151"/><stop offset="0.29" stop-color="#7F7F7F"/><stop offset="0.4" stop-color="#A7A7A7"/><stop offset="0.51" stop-color="#C7C7C7"/><stop offset="0.62" stop-color="#E0E0E0"/><stop offset="0.73" stop-color="#F1F1F1"/><stop offset="0.86" stop-color="#FCFCFC"/><stop offset="1" stop-color="white"/></linearGradient><linearGradient id="paint30_linear" x1="44.06" y1="27.55" x2="50.58" y2="50.57" gradientUnits="userSpaceOnUse"><stop offset="0.05" stop-color="white"/><stop offset="0.11" stop-color="white"/><stop offset="1" stop-color="white"/></linearGradient><linearGradient id="paint31_linear" x1="31.45" y1="61.92" x2="34.37" y2="72.22" gradientUnits="userSpaceOnUse"><stop stop-color="#B3B3B3"/><stop offset="0.17" stop-color="#AFAFAF"/><stop offset="0.31" stop-color="#A5A5A5"/><stop offset="0.45" stop-color="#939393"/><stop offset="0.58" stop-color="#7A7A7A"/><stop offset="0.7" stop-color="#5A5A5A"/><stop offset="0.82" stop-color="#333333"/><stop offset="0.94" stop-color="#050505"/><stop offset="0.95"/></linearGradient><linearGradient id="paint32_linear" x1="31.45" y1="61.92" x2="34.37" y2="72.22" gradientUnits="userSpaceOnUse"><stop stop-color="white"/><stop offset="0.89" stop-color="white"/><stop offset="0.95" stop-color="white"/></linearGradient><linearGradient id="paint33_linear" x1="41.36" y1="75.64" x2="42.91" y2="81.12" gradientUnits="userSpaceOnUse"><stop stop-color="#B3B3B3"/><stop offset="0.17" stop-color="#AFAFAF"/><stop offset="0.31" stop-color="#A5A5A5"/><stop offset="0.45" stop-color="#939393"/><stop offset="0.58" stop-color="#7A7A7A"/><stop offset="0.7" stop-color="#5A5A5A"/><stop offset="0.82" stop-color="#333333"/><stop offset="0.94" stop-color="#050505"/><stop offset="0.95"/></linearGradient><linearGradient id="paint34_linear" x1="41.36" y1="75.64" x2="42.91" y2="81.12" gradientUnits="userSpaceOnUse"><stop stop-color="white"/><stop offset="0.89" stop-color="white"/><stop offset="0.95" stop-color="white"/></linearGradient><linearGradient id="paint35_linear" x1="26.69" y1="38.97" x2="29.78" y2="49.89" gradientUnits="userSpaceOnUse"><stop stop-color="white"/><stop offset="0.14" stop-color="#FCFCFC"/><stop offset="0.27" stop-color="#F1F1F1"/><stop offset="0.38" stop-color="#E0E0E0"/><stop offset="0.49" stop-color="#C7C7C7"/><stop offset="0.6" stop-color="#A7A7A7"/><stop offset="0.71" stop-color="#7F7F7F"/><stop offset="0.81" stop-color="#515151"/><stop offset="0.91" stop-color="#1C1C1C"/><stop offset="0.95"/></linearGradient><linearGradient id="paint36_linear" x1="26.69" y1="38.97" x2="29.78" y2="49.89" gradientUnits="userSpaceOnUse"><stop stop-color="white"/><stop offset="0.89" stop-color="white"/><stop offset="0.95" stop-color="white"/></linearGradient></defs><path d="M64.47 19.98L50.05 13.8 45.26 16.13 45.24 16.19 27.55 25 21.65 43.8 18.5 53.87 18.54 53.85 15.67 63.17 17.44 64.46 17.36 64.48 28.35 72.41 28.36 72.42 34.73 77.06 47.23 86.12 66.24 82.8 84.51 79.54 80.37 55.15 75.95 39.99 64.47 19.98Z" fill="white"/><path d="M78.42 55.6L82.21 77.91 73.83 67.6 68.45 61.07 57.69 47.93 56.54 46.52 78.42 55.6Z" fill="url(#paint0_linear)"/><path d="M73.83 67.6L82.21 77.91 65.89 80.82 73.83 67.6Z" fill="url(#paint1_linear)"/><path d="M74.09 40.78L78.42 55.6 56.54 46.52 74.09 40.78Z" fill="url(#paint2_linear)"/><path d="M73.83 67.6L65.89 80.82 49.57 76.15 51.16 69.36 73.83 67.6Z" fill="url(#paint3_linear)"/><path d="M68.45 61.07L73.83 67.6 51.16 69.36 68.45 61.07Z" fill="url(#paint4_linear)"/><path d="M63.07 21.56L74.09 40.78 56.54 46.52 63.07 21.56Z" fill="url(#paint5_linear)"/><path d="M57.69 47.93L68.45 61.07 57.69 47.93Z" fill="#723F9A"/><path d="M57.69 47.93L68.45 61.07 51.16 69.36 56.54 46.52 57.69 47.93Z" fill="url(#paint6_linear)"/><path d="M65.89 80.82L47.72 84 49.57 76.15 65.89 80.82Z" fill="url(#paint7_linear)"/><path d="M63.07 21.56L56.54 46.52 53.37 31.52 50.1 16 63.07 21.56Z" fill="url(#paint8_linear)"/><path d="M53.37 31.52L56.54 46.52 40.58 51.01 53.37 31.52Z" fill="url(#paint9_linear)"/><path d="M50.1 16L53.37 31.52 29.2 26.41 50.1 16Z" fill="url(#paint10_linear)"/><path d="M53.37 31.52L40.58 51.01 33.88 36.64 29.2 26.41 53.37 31.52Z" fill="url(#paint11_linear)"/><path d="M40.58 51.01L43.22 63.1 45.87 75.18 47.72 84 49.57 76.15 51.16 69.36 56.54 46.52 40.58 51.01Z" fill="url(#paint12_linear)"/><path d="M45.87 75.18L47.72 84 35.9 75.44 45.87 75.18Z" fill="url(#paint13_linear)"/><path d="M43.22 63.1L45.87 75.18 35.9 75.44 33.08 62.83 43.22 63.1Z" fill="url(#paint14_linear)"/><path d="M40.58 51.01L43.22 63.1 33.08 62.83 31.49 55.6 40.58 51.01Z" fill="url(#paint15_linear)"/><path d="M33.08 62.83L35.9 75.44 18 62.39 33.08 62.83Z" fill="url(#paint16_linear)"/><path d="M31.49 55.6L33.08 62.83 18 62.39 27.7 57.54 31.49 55.6Z" fill="url(#paint17_linear)"/><path d="M33.88 36.64L29.2 26.41 23.56 44.4 18 62.39 31.49 55.6 40.58 51.01 33.88 36.64Z" fill="#F2E1FF"/><path d="M62.98 44.4L59.81 27.38 61.3 28.35 65.27 43.69 62.98 44.4Z" fill="url(#paint18_linear)"/><mask id="mask0" mask-type="alpha" maskUnits="userSpaceOnUse" x="50" y="16" width="25" height="31"><path d="M50.1 16L56.54 46.52 74.01 40.78 50.1 16Z" fill="url(#paint19_linear)"/></mask><g mask="url(#mask0)"><path opacity="0.85" d="M50.1 16L56.54 46.52 74.01 40.78 50.1 16Z" fill="url(#paint20_linear)"/><path opacity="0.18" d="M52.13 65.21L74.01 40.78 75.86 46.96 47.72 84 52.13 65.21Z" fill="white"/></g><mask id="mask1" mask-type="alpha" maskUnits="userSpaceOnUse" x="40" y="16" width="17" height="36"><path d="M50.1 16L55.31 45.72 40.58 51.01 56.54 46.52 50.1 16Z" fill="url(#paint21_linear)"/></mask><g mask="url(#mask1)"><path d="M50.1 16L55.31 45.72 40.58 51.01 56.54 46.52 50.1 16Z" fill="url(#paint22_linear)"/></g><mask id="mask2" mask-type="alpha" maskUnits="userSpaceOnUse" x="29" y="26" width="12" height="26"><path d="M29.2 26.41L40.58 51.01 39.26 51.54 29.2 26.41Z" fill="url(#paint23_linear)"/></mask><g mask="url(#mask2)"><path d="M29.2 26.41L40.58 51.01 39.26 51.54 29.2 26.41Z" fill="url(#paint24_linear)"/></g><mask id="mask3" mask-type="alpha" maskUnits="userSpaceOnUse" x="18" y="50" width="23" height="13"><path d="M18 62.39L39.26 50.31 40.58 51.01 18 62.39Z" fill="url(#paint25_linear)"/></mask><g mask="url(#mask3)"><path d="M18 62.39L39.26 50.31 40.58 51.01 18 62.39Z" fill="url(#paint26_linear)"/></g><mask id="mask4" mask-type="alpha" maskUnits="userSpaceOnUse" x="36" y="16" width="15" height="35"><path d="M36.96 43.08L46.84 17.59 50.1 16 40.23 50.31 36.96 43.08Z" fill="url(#paint27_linear)"/></mask><g mask="url(#mask4)"><path d="M36.96 43.08L46.84 17.59 50.1 16 40.23 50.31 36.96 43.08Z" fill="url(#paint28_linear)"/></g><mask id="mask5" mask-type="alpha" maskUnits="userSpaceOnUse" x="44" y="26" width="7" height="22"><path d="M44.72 47.93L48.6 26.41 50.1 30.82 48.6 45.72 44.72 47.93Z" fill="url(#paint29_linear)"/></mask><g mask="url(#mask5)"><path d="M44.72 47.93L48.6 26.41 50.1 30.82 48.6 45.72 44.72 47.93Z" fill="url(#paint30_linear)"/></g><mask id="mask6" mask-type="alpha" maskUnits="userSpaceOnUse" x="21" y="59" width="23" height="13"><path d="M21.79 65.21L41.28 59.22 42.08 62.22 31.94 65.92 42.61 64.51 43.22 66.71 30.35 71.39 21.79 65.21Z" fill="url(#paint31_linear)"/></mask><g mask="url(#mask6)"><path opacity="0.67" d="M21.79 65.21L41.28 59.22 42.08 62.22 31.94 65.92 42.61 64.51 43.22 66.71 30.35 71.39 21.79 65.21Z" fill="url(#paint32_linear)"/></g><mask id="mask7" mask-type="alpha" maskUnits="userSpaceOnUse" x="39" y="75" width="6" height="5"><path d="M39.43 76.77L43.22 75.18 44.72 79.59 39.43 76.77Z" fill="url(#paint33_linear)"/></mask><g mask="url(#mask7)"><path opacity="0.67" d="M39.43 76.77L43.22 75.18 44.72 79.59 39.43 76.77Z" fill="url(#paint34_linear)"/></g><mask id="mask8" mask-type="alpha" maskUnits="userSpaceOnUse" x="21" y="37" width="15" height="14"><path d="M23.56 44.4L33.35 37.17 35.9 43.16 21.79 50.04 23.56 44.4Z" fill="url(#paint35_linear)"/></mask><g mask="url(#mask8)"><path d="M23.56 44.4L33.35 37.17 35.9 43.16 21.79 50.04 23.56 44.4Z" fill="url(#paint36_linear)"/><path d="M41.28 51.81C42.52 51.81 43.75 51.81 44.99 51.72 46.49 51.72 47.9 51.63 49.4 51.54 47.9 51.46 46.49 51.37 44.99 51.37 43.84 51.37 42.61 51.37 41.46 51.28 42.17 50.57 42.78 49.96 43.4 49.25 44.28 48.37 45.08 47.4 45.87 46.52 44.9 47.31 44.02 48.19 43.14 49.07 42.43 49.78 41.73 50.4 41.11 51.1 41.11 49.51 41.11 47.84 41.02 46.25 41.02 44.49 40.93 42.64 40.84 40.87 40.75 42.64 40.67 44.49 40.67 46.25 40.67 47.84 40.58 49.43 40.58 51.1 39.87 50.22 39.08 49.43 38.37 48.54 37.49 47.57 36.61 46.6 35.73 45.72 36.52 46.78 37.32 47.84 38.11 48.81 38.81 49.69 39.52 50.57 40.31 51.46 38.9 51.46 37.58 51.46 36.17 51.54 34.67 51.54 33.26 51.63 31.76 51.72 33.26 51.81 34.67 51.9 36.17 51.9 37.58 51.9 38.9 51.98 40.31 51.98 39.52 52.87 38.64 53.66 37.84 54.54 36.96 55.42 36.17 56.39 35.37 57.28 36.35 56.48 37.23 55.6 38.11 54.72 38.99 53.92 39.78 53.13 40.58 52.25 40.58 53.84 40.58 55.42 40.67 57.01 40.67 58.78 40.75 60.63 40.84 62.39 40.93 60.63 41.02 58.78 41.02 57.01 41.02 55.42 41.11 53.84 41.11 52.25 41.81 53.04 42.52 53.92 43.22 54.72 44.11 55.69 44.99 56.66 45.87 57.54 45.08 56.48 44.28 55.42 43.49 54.45 42.78 53.48 41.99 52.6 41.28 51.81Z" fill="white"/></g></svg>