<svg width="100" height="100" viewBox="0 0 100 100" fill="none" xmlns="http://www.w3.org/2000/svg"><defs><linearGradient id="paint0_linear" x1="66.64" y1="65.06" x2="67.76" y2="25.49" gradientUnits="userSpaceOnUse"><stop offset="0.1" stop-color="#0298AE"/><stop offset="0.26" stop-color="#03A7BB"/><stop offset="0.8" stop-color="#07D6E5"/></linearGradient><linearGradient id="paint1_linear" x1="64.28" y1="67.34" x2="69.84" y2="67.34" gradientUnits="userSpaceOnUse"><stop offset="0.2" stop-color="#27E4FC"/><stop offset="0.9" stop-color="#03B7D1"/></linearGradient><linearGradient id="paint2_linear" x1="30.04" y1="74.02" x2="68.06" y2="74.02" gradientUnits="userSpaceOnUse"><stop offset="0.1" stop-color="#03B7D1"/><stop offset="0.8" stop-color="#27E4FC"/></linearGradient><linearGradient id="paint3_linear" x1="33.24" y1="67.34" x2="66.01" y2="67.34" gradientUnits="userSpaceOnUse"><stop offset="0.1" stop-color="#0298AE"/><stop offset="0.26" stop-color="#03A7BB"/><stop offset="0.8" stop-color="#07D6E5"/></linearGradient><linearGradient id="paint4_linear" x1="18.54" y1="32.72" x2="75.22" y2="32.72" gradientUnits="userSpaceOnUse"><stop stop-color="#07D6E5"/><stop offset="0.14" stop-color="#3EDFEA"/><stop offset="0.31" stop-color="#78E9EF"/><stop offset="0.48" stop-color="#A8F1F4"/><stop offset="0.63" stop-color="#CEF7F7"/><stop offset="0.78" stop-color="#E9FBFA"/><stop offset="0.9" stop-color="#F9FEFB"/><stop offset="1" stop-color="#FFFFFC"/></linearGradient><linearGradient id="paint5_linear" x1="21.61" y1="67.55" x2="34.97" y2="75.27" gradientUnits="userSpaceOnUse"><stop offset="0.19" stop-color="#0298AE"/><stop offset="0.33" stop-color="#03A7BB"/><stop offset="0.8" stop-color="#07D6E5"/></linearGradient><linearGradient id="paint6_linear" x1="23.17" y1="75.65" x2="28.78" y2="23.76" gradientUnits="userSpaceOnUse"><stop offset="0.1" stop-color="#03B7D1"/><stop offset="0.35" stop-color="#45D1EA"/><stop offset="0.54" stop-color="#75E4FC"/></linearGradient><linearGradient id="paint7_linear" x1="39.96" y1="41.76" x2="62.64" y2="60.34" gradientUnits="userSpaceOnUse"><stop offset="0.08" stop-color="#03B7D1"/><stop offset="0.11" stop-color="#15BCD4"/><stop offset="0.22" stop-color="#52CEDF"/><stop offset="0.33" stop-color="#87DDE9"/><stop offset="0.43" stop-color="#B2E9F1"/><stop offset="0.53" stop-color="#D3F3F7"/><stop offset="0.63" stop-color="#ECF9FB"/><stop offset="0.71" stop-color="#FAFEFE"/><stop offset="0.79" stop-color="white"/></linearGradient><linearGradient id="paint8_linear" x1="65.96" y1="28.22" x2="74.31" y2="28.22" gradientUnits="userSpaceOnUse"><stop offset="0.2" stop-color="#27E4FC"/><stop offset="0.9" stop-color="#03B7D1"/></linearGradient><linearGradient id="paint9_linear" x1="27.02" y1="18.3" x2="26.6" y2="79.42" gradientUnits="userSpaceOnUse"><stop stop-color="white"/><stop offset="0.07" stop-color="#F9F9F9"/><stop offset="0.16" stop-color="#EAEAEA"/><stop offset="0.25" stop-color="#CFCFCF"/><stop offset="0.36" stop-color="#ABABAB"/><stop offset="0.47" stop-color="#7B7B7B"/><stop offset="0.59" stop-color="#424242"/><stop offset="0.7"/></linearGradient><linearGradient id="paint10_linear" x1="27.02" y1="18.3" x2="26.6" y2="79.42" gradientUnits="userSpaceOnUse"><stop stop-color="#03B7D1"/><stop offset="0.07" stop-color="#09B9D2"/><stop offset="0.16" stop-color="#18BDD5"/><stop offset="0.25" stop-color="#33C5DA"/><stop offset="0.36" stop-color="#57CFE0"/><stop offset="0.47" stop-color="#87DDE9"/><stop offset="0.59" stop-color="#BFEDF3"/><stop offset="0.7" stop-color="white"/></linearGradient></defs><path d="M68.88 20H29.79L20 31.25V70.83L29.17 80H68.92L80 69.14V32.23L68.88 20Z" fill="white"/><path d="M78 68.3L68.1 78 66 70 70 66.1 78 68.3Z" fill="#ADF6FD"/><path d="M74.3 33.7L70 34.4V42.6 50 58.5L69.85 66.2 74.3 67.3 78 68.3V61.9 53.8 46 39.3 33L74.3 33.7Z" fill="#27E4FC"/><path d="M78 33L70 34.4 66 30.1 68 22 78 33Z" fill="#ADF6FD"/><path d="M69.98 58.93V66.19C69.98 66.19 68.9 66.49 67.72 66.19 67.61 66.19 67.61 66.19 67.5 66.08H67.4C67.29 66.08 67.18 66.08 67.18 65.98 67.07 65.98 66.97 65.98 66.97 65.88 66.86 65.88 66.75 65.88 66.75 65.78 66.64 65.78 66.54 65.78 66.54 65.68 66.43 65.68 66.32 65.68 66.32 65.57 66.21 65.57 66.11 65.57 66.11 65.47 66 65.47 65.89 65.47 65.89 65.37 65.78 65.37 65.68 65.27 65.57 65.27 65.46 65.27 65.35 65.16 65.25 65.16L64.6 64.96V50.14 35.32L70.3 34.4V42.68 50.34 58.93H69.98Z" fill="url(#paint0_linear)"/><path d="M66 30.1L70 34.4 64.7 35.4 66 30.1Z" fill="#00AFBC"/><path d="M70 66.19L66.01 70.02 64.33 64.7C64.33 64.7 64.54 64.8 64.96 64.9 65.06 64.9 65.17 64.9 65.27 65 65.38 65 65.48 65.1 65.59 65.1 65.69 65.1 65.69 65.1 65.8 65.2 65.9 65.2 66.01 65.2 66.01 65.3 66.11 65.3 66.22 65.3 66.22 65.4 66.32 65.4 66.42 65.4 66.42 65.5 66.53 65.5 66.63 65.5 66.63 65.6 66.74 65.6 66.84 65.6 66.84 65.7 66.95 65.7 67.05 65.7 67.05 65.8H67.16C67.26 65.8 67.26 65.8 67.37 65.9 68.84 65.9 70 66.19 70 66.19Z" fill="url(#paint1_linear)"/><path d="M66 70H53.8 43.1 33.2L30 78H37 48.8 59.8 68.1L66 70Z" fill="url(#paint2_linear)"/><path d="M64.7 64.7L66 70H53.8 43.1 33.2L35.3 64.7H50 64.7Z" fill="url(#paint3_linear)"/><path d="M66 30.1L64.7 35.4H50 35.3L33.5 30.1H40.9 49.8 57.6 66Z" fill="url(#paint4_linear)"/><path d="M64.7 50.1V64.7L50.1 50.1 50 50 64.7 35.4V50.1Z" fill="#00AAC1"/><path d="M64.7 35.4L50 50 35.3 35.4H50 64.7Z" fill="#03B7D1"/><path d="M50.1 50.1L64.7 64.7H50V50.1H50.1Z" fill="#07D6E5"/><path d="M50 50L49.9 50.1 35.3 50V35.4L50 50Z" fill="#0298AE"/><path d="M50 50.1V64.7H35.3L49.9 50.1H50Z" fill="#00AAC1"/><path d="M49.9 50.1L35.3 64.7V50L49.9 50.1Z" fill="#03B7D1"/><path d="M68 22H61.1 53.8 45.7 37.8 31.6 30.7L32.1 26 33.5 30.1 33.7 29.7C33.6 29.9 33.5 30.1 33.5 30.1H41 49.9 57.7 66.1L67.2 25.8H67.5L68 22Z" fill="#84EEF4"/><path d="M35.3 50V64.7L30 66.8V58.3 49.4 41.7 33.5L35.3 35.4V50Z" fill="#DCFFFF"/><path d="M33.5 30.1L35.3 35.4 30 33.5 33.5 30.1Z" fill="#ADF6FD"/><path d="M35.3 64.7L33.2 70 30 66.8 35.3 64.7Z" fill="#C5FFFF"/><path d="M33.5 29.77V30.1L30 33.5 22 32 30.7 22 33.5 29.77Z" fill="#ADF6FD"/><path d="M33.2 70L30 78 22 70 30 66.8 33.2 70Z" fill="url(#paint5_linear)"/><path d="M26 32.7L22 32V37.6 45.2 53 61.7 70L26 68.4 30 66.8V58.3 49.4 41.7 33.5L26 32.7Z" fill="url(#paint6_linear)"/><path opacity="0.64" d="M64.6 35.3H35.3V64.6H64.6V35.3Z" fill="url(#paint7_linear)"/><path opacity="0.86" d="M35.9 45.1L46.4 36H51.2L35.9 50.5V45.1Z" fill="white"/><path opacity="0.86" d="M35.9 53L53.1 35.9H61.4L35.9 62V53Z" fill="white"/><path opacity="0.72" d="M44.1 64.1L62.7 45.1V55.6L58.9 57.9 62.7 57.4V64.1H44.1Z" fill="white"/><path d="M33.2 72.4L62.7 76.6H31.9L33.2 72.4Z" fill="#27E4FC"/><path d="M70 34.4L74.3 33.7 68 22 66 30.1 70 34.4Z" fill="url(#paint8_linear)"/><path opacity="0.54" d="M22 32L32.1 26 61.4 30.1H33.4L30 33.5 22 32Z" fill="white"/><path opacity="0.56" d="M49.7 23.8H63.2L56.4 26 43.7 25.9 49.7 23.8Z" fill="white"/><mask id="mask0" mask-type="alpha" maskUnits="userSpaceOnUse" x="23" y="32" width="7" height="36"><path d="M23.6 32.3L27.6 67.8 30 66.8V33.5L23.6 32.3Z" fill="url(#paint9_linear)"/></mask><g mask="url(#mask0)"><path d="M23.6 32.3L27.6 67.8 30 66.8V33.5L23.6 32.3Z" fill="url(#paint10_linear)"/></g><path d="M36.4 36.6C38 36.6 39.6 36.6 41.3 36.5 43.2 36.5 45.2 36.4 47.1 36.3 45.2 36.2 43.2 36.1 41.3 36.1 39.7 36.1 38.2 36 36.6 36 37.5 35.1 38.3 34.2 39.2 33.3 40.3 32.1 41.4 30.9 42.5 29.7 41.3 30.8 40.1 31.9 38.9 33 38 33.9 37.1 34.8 36.2 35.6 36.2 33.5 36.2 31.3 36.1 29.2 36.1 26.8 36 24.5 35.9 22.1 35.8 24.5 35.7 26.8 35.7 29.2 35.7 31.3 35.6 33.4 35.6 35.5 34.6 34.4 33.7 33.3 32.7 32.2 31.5 30.9 30.4 29.7 29.2 28.4 30.2 29.8 31.3 31.1 32.4 32.5 33.3 33.7 34.3 34.8 35.3 36 33.5 36 31.7 36 29.9 36.1 28 36.1 26 36.2 24.1 36.3 26 36.4 28 36.5 29.9 36.5 31.7 36.5 33.5 36.6 35.3 36.6 34.2 37.7 33.1 38.8 32 40 30.9 41.2 29.8 42.4 28.7 43.6 29.9 42.5 31.1 41.4 32.3 40.3 33.4 39.2 34.5 38.2 35.6 37.1 35.6 39.2 35.6 41.3 35.7 43.4 35.7 45.8 35.8 48.1 35.9 50.5 36 48.1 36.1 45.8 36.1 43.4 36.1 41.3 36.2 39.2 36.2 37.2 37.1 38.3 38.1 39.4 39 40.4 40.2 41.7 41.3 42.9 42.5 44.2 41.5 42.8 40.4 41.5 39.3 40.1 38.4 38.9 37.4 37.7 36.4 36.6Z" fill="white"/></svg>