<svg width="100" height="100" viewBox="0 0 100 100" fill="none" xmlns="http://www.w3.org/2000/svg"><defs><linearGradient id="paint0_linear" x1="62.62" y1="50.56" x2="73.91" y2="48.66" gradientUnits="userSpaceOnUse"><stop offset="0.26" stop-color="#00FFFF"/><stop offset="0.5" stop-color="#01D8E3"/><stop offset="0.83" stop-color="#02A6BF"/><stop offset="1" stop-color="#0392B1"/></linearGradient><linearGradient id="paint1_linear" x1="61.2" y1="29.09" x2="68.39" y2="17.94" gradientUnits="userSpaceOnUse"><stop offset="0.1" stop-color="#04CAE9"/><stop offset="0.5" stop-color="#0392B1"/></linearGradient><linearGradient id="paint2_linear" x1="59.39" y1="69.38" x2="68.01" y2="81.72" gradientUnits="userSpaceOnUse"><stop stop-color="#00FFFF"/><stop offset="0.5" stop-color="#0392B1"/></linearGradient><linearGradient id="paint3_linear" x1="31.31" y1="25.76" x2="45.41" y2="25.76" gradientUnits="userSpaceOnUse"><stop stop-color="#00FFFF"/><stop offset="0.5" stop-color="#03B7D1"/></linearGradient><linearGradient id="paint4_linear" x1="27.01" y1="49.49" x2="34.2" y2="49.49" gradientUnits="userSpaceOnUse"><stop offset="0.22" stop-color="#00FFFF"/><stop offset="0.79" stop-color="#03B7D1"/></linearGradient></defs><path fill-rule="evenodd" clip-rule="evenodd" d="M61.65 16.84L61.09 16.21C60.83 15.92 60.57 15.63 60.32 15.35 60.25 15.23 60.17 15.12 60.07 15.02 56.92 11.56 54.24 9.11 53.1 8.07L53.1 8.07C53.06 8.04 52.94 7.92 52.8 7.79L52.55 7.56C51.84 6.88 50.73 6.83 49.95 7.43L49.95 7.44 49.95 7.44 49.94 7.45 49.9 7.47C49.87 7.5 49.83 7.53 49.77 7.58 49.66 7.67 49.5 7.8 49.3 7.97 48.89 8.31 48.3 8.8 47.57 9.45 46.12 10.73 44.12 12.6 41.89 14.96 37.84 19.18 33 25.19 29.5 32.19L29.5 32.2C27.17 36.93 25.44 42.23 25.07 47.82 25.03 47.99 25 48.16 25 48.34V49.56C24.92 55.77 26.49 61.59 28.9 66.74 31.45 72.41 34.94 77.36 38.26 81.32L38.46 81.58C38.53 81.66 38.6 81.74 38.68 81.81 39.78 83.11 40.87 84.29 41.89 85.36 42 85.47 42.12 85.57 42.25 85.65 43.96 87.46 45.5 88.89 46.63 89.9 47.24 90.44 47.73 90.85 48.07 91.13 48.25 91.27 48.38 91.38 48.48 91.46 48.51 91.48 48.53 91.5 48.55 91.52 48.57 91.53 48.58 91.54 48.59 91.54L48.62 91.57 48.62 91.58 48.63 91.58 48.63 91.58C48.63 91.58 48.62 91.57 48.63 91.58L48.63 91.58C49.33 92.12 50.31 92.14 51.03 91.61L51.08 91.58 51.03 91.61 51.03 91.61 51.04 91.61 51.05 91.6 51.08 91.58C51.11 91.56 51.14 91.53 51.19 91.49 51.29 91.41 51.44 91.3 51.62 91.16 51.98 90.88 52.51 90.46 53.15 89.92 54.44 88.83 56.21 87.24 58.2 85.22 62.37 81.04 67.64 74.91 71.31 67.49 71.46 67.34 71.59 67.16 71.69 66.96 74.19 61.88 75.85 56.14 75.94 50.1 75.94 49.98 75.93 49.86 75.91 49.74 75.86 49.43 75.85 49.17 75.85 48.75L75.85 48.73 75.85 48.7C75.8 46.98 75.63 45.28 75.36 43.62 75.36 43.45 75.35 43.28 75.31 43.12L75.04 41.9C74.95 41.51 74.86 41.11 74.77 40.71L74.57 39.82C74.56 39.77 74.55 39.73 74.53 39.68L73.79 37.21C73.78 37.16 73.76 37.12 73.74 37.07L73.57 36.6C73 34.96 72.35 33.37 71.63 31.82 71.54 31.65 71.44 31.49 71.31 31.35 69.8 28.24 68.04 25.35 66.22 22.74 66.17 22.65 66.12 22.57 66.06 22.48L65.62 21.9C65.18 21.29 64.74 20.69 64.29 20.12L63.66 19.27C63.64 19.24 63.62 19.21 63.6 19.18L61.7 16.9C61.69 16.88 61.67 16.86 61.65 16.84Z" fill="white"/><path d="M73.85 48.76C73.69 43.07 72.12 37.62 69.81 32.67L69.27 32.51 65.52 33.79 62.07 48.52 65.58 64.62 69.73 66 69.9 66.08C72.29 61.21 73.85 55.77 73.94 50.08 73.85 49.58 73.85 49.17 73.85 48.76Z" fill="url(#paint0_linear)"/><path d="M65.85 34.08L62.39 48.35 58.35 29.21 65.85 34.08Z" fill="#03B7D1"/><path d="M62.39 48.35L65.85 64.43 57.03 70.86 62.39 48.35Z" fill="#04CAE9"/><path d="M58.59 16.37L56.53 20.98H51.17V9C51.17 9.08 54.47 11.85 58.59 16.37Z" fill="#04CAE9"/><path d="M56.53 20.88L58.35 29.21 50.92 24.42 56.53 20.88Z" fill="#27E4FC"/><path d="M57.03 70.86L54.72 80.35 49.52 76.31 57.03 70.86Z" fill="#27E4FC"/><path d="M56.7 83.73L56.78 83.81C52.9 87.77 49.85 90 49.85 90V80.35H54.72L56.7 83.73Z" fill="#017483"/><path d="M56.53 20.88L50.92 24.42 45.4 20.88H51.17 56.53Z" fill="#03B7D1"/><path d="M54.72 80.35H49.85 44.08L49.52 76.31 54.72 80.35Z" fill="#03B7D1"/><path d="M51.17 9.08V20.88H45.4L43.34 16.34C47.71 11.72 51.17 9.08 51.17 9.08Z" fill="#00FFFF"/><path d="M51.06 24.45L43.25 29.46 45.4 20.88 51.06 24.45Z" fill="#00FFFF"/><path d="M58.35 29.21L51.01 24.42 43.25 29.37 37.59 50.93 41.79 70.55 49.62 76.46 57.11 70.86 62.65 48.43 58.35 29.21Z" fill="#E8FBFD"/><path d="M49.85 80.35V90C49.85 90 46.96 87.77 43.34 83.9L44.08 80.27H49.85V80.35Z" fill="#04CAE9"/><path d="M49.52 76.31L44.08 80.35 41.85 70.45 49.52 76.31Z" fill="#00FFFF"/><path d="M65.85 34.08L69.65 32.76 69.73 32.67C66.6 26.07 62.22 20.38 58.51 16.34L58.43 16.42 56.45 20.96 58.27 29.29 65.85 34.08Z" fill="url(#paint1_linear)"/><path d="M69.65 66L65.85 64.43 57.03 70.86 54.72 80.35 56.7 83.73 56.78 83.81C60.99 79.61 66.27 73.42 69.81 66H69.65Z" fill="url(#paint2_linear)"/><path d="M31.29 33.09L34.18 35.23 43.34 29.7 45.4 20.88 43.34 16.34C39.38 20.47 34.67 26.32 31.29 33.09Z" fill="url(#paint3_linear)"/><path d="M41.85 70.45L34.18 64.51 30.72 65.91C34.1 73.42 39.21 79.69 43.34 83.98L44.08 80.35 41.85 70.45Z" fill="#0298AE"/><path d="M43.25 29.46L37.69 51.48 34.18 35.23 43.25 29.46Z" fill="#ADF6FD"/><path d="M37.64 51.07L41.85 70.45 34.18 64.51 37.64 51.07Z" fill="#ADF6FD"/><path d="M34.18 35.23L37.64 51.07 34.18 64.51V49.58 35.23Z" fill="#03B7D1"/><path d="M31.29 33.09C28.82 38.12 27.09 43.73 27 49.58 26.92 55.44 28.41 60.97 30.72 65.91L34.18 64.51V49.58 35.23L31.29 33.09Z" fill="url(#paint4_linear)"/><path d="M45.07 30.2C46.55 30.2 47.95 30.2 49.44 30.12 51.17 30.03 52.9 30.03 54.64 29.87 52.9 29.79 51.17 29.7 49.44 29.62 48.04 29.62 46.63 29.54 45.23 29.54 45.97 28.71 46.8 27.97 47.54 27.15 48.53 26.07 49.52 25 50.51 23.85 49.36 24.84 48.28 25.83 47.21 26.82 46.39 27.56 45.56 28.38 44.74 29.21 44.74 27.31 44.74 25.33 44.66 23.44 44.66 21.29 44.57 19.23 44.41 17.08 44.33 19.23 44.24 21.29 44.16 23.44 44.16 25.33 44.08 27.23 44.08 29.13 43.25 28.14 42.35 27.15 41.44 26.16 40.37 25 39.38 23.85 38.3 22.78 39.21 24.01 40.2 25.25 41.11 26.4 41.93 27.48 42.84 28.47 43.67 29.54 42.02 29.54 40.45 29.54 38.8 29.62 37.07 29.7 35.33 29.7 33.6 29.87 35.33 29.95 37.07 30.03 38.8 30.12 40.45 30.12 42.1 30.2 43.67 30.2 42.68 31.19 41.69 32.18 40.7 33.25 39.71 34.32 38.72 35.4 37.73 36.55 38.88 35.56 39.95 34.57 41.03 33.58 42.02 32.59 43.01 31.68 44 30.69 44 32.59 44 34.49 44.08 36.39 44.08 38.53 44.16 40.59 44.33 42.74 44.41 40.59 44.49 38.53 44.57 36.39 44.57 34.49 44.66 32.67 44.66 30.78 45.48 31.77 46.3 32.67 47.21 33.66 48.28 34.82 49.27 35.97 50.35 37.05 49.44 35.81 48.45 34.57 47.54 33.42 46.8 32.26 45.89 31.19 45.07 30.2Z" fill="white"/><path opacity="0.54" d="M34.18 35.23L27 48.35V49.58L27.09 51.81 35.33 40.26 34.18 35.23Z" fill="white"/><path opacity="0.54" d="M35.58 41.75L28.57 54.78 29.15 57.75 36.98 47.77 35.58 41.75Z" fill="white"/><path opacity="0.28" d="M35.91 66L37.4 76.97 40.04 80.35V69.05L35.91 66Z" fill="white"/><path opacity="0.52" d="M62.88 50.41L71.22 36.06 71.88 37.79 72.62 40.26 73.36 43.56 65.03 60.47 62.88 50.41Z" fill="white"/><path opacity="0.47" d="M58.51 16.34L62.88 32.1 65.85 34.08 64.45 23.68 62.06 20.47 60.16 18.18 58.51 16.34Z" fill="white"/><path d="M37.64 51.07L55.63 27.48 58.35 29.21 59.34 34.08 39.87 61.05 37.64 51.07Z" fill="white"/><path d="M40.04 62.12L56.78 38.78 57.03 44.3 41.03 66.66 40.04 62.12Z" fill="white"/><path d="M44.08 64.51L56.53 47.77V49.75L45.4 64.51H44.08Z" fill="white"/><path d="M47.29 71.85L57.03 61.05 56.78 63.36 48.53 72.51 47.29 71.85Z" fill="white"/><path d="M43.34 38.78V36.63L49.85 29.21 51.17 28.55 43.34 38.78Z" fill="white"/></svg>