<svg width="100" height="100" viewBox="0 0 100 100" fill="none" xmlns="http://www.w3.org/2000/svg"><path d="M69.75 24.5L54.25 18.1 37.74 20.2 24.43 30.39 17.95 45.81 20.14 62.41 30.25 75.72 45.66 82.12 62.26 80.01 75.57 69.82 82.05 54.4 79.86 37.81 69.75 24.5Z" fill="white"/><path d="M80 54.13L73.93 68.56 67.46 57.44 80 54.13Z" fill="#2B1400"/><path d="M77.95 38.6L80 54.13 68.8 47.66 77.95 38.6Z" fill="#622F00"/><path d="M73.93 68.56L61.47 78.1V65.17L73.93 68.56Z" fill="#622F00"/><path d="M80 54.13L67.46 57.44 68.8 47.66 80 54.13Z" fill="#291E16"/><path d="M73.93 68.56L61.47 65.17 67.46 57.44 73.93 68.56Z" fill="#421000"/><path d="M77.95 38.6L68.8 47.66 65.1 38.6H77.95Z" fill="#2B1400"/><path d="M61.47 65.17V78.1L52.4 68.95 61.47 65.17Z" fill="#3A1C00"/><path d="M77.95 38.6H65.1L68.49 26.14 77.95 38.6Z" fill="#2B1400"/><path d="M61.47 78.1L45.94 80.07 52.4 68.95 61.47 78.1Z" fill="#291E16"/><path d="M68.8 47.66L67.46 57.44 58.87 51.29 68.8 47.66Z" fill="#4D1C00"/><path d="M67.46 57.44L61.47 65.17 57.14 55.55 67.46 57.44Z" fill="#2B1400"/><path d="M67.46 57.44L57.14 55.55 58.87 51.29 67.46 57.44Z" fill="#7B6959"/><path d="M61.47 65.17L52.4 68.95 53.43 58.39 61.47 65.17Z" fill="#291E16"/><path d="M68.8 47.66L58.87 51.29 58.32 46.72 68.8 47.66Z" fill="#291E16"/><path d="M68.8 47.66L58.32 46.72 65.1 38.6 68.8 47.66Z" fill="#462201"/><path d="M61.47 65.17L53.43 58.39 57.14 55.55 61.47 65.17Z" fill="#291E16"/><path d="M68.49 26.14L65.1 38.6 57.29 32.6 68.49 26.14Z" fill="#9B7451"/><path d="M65.1 38.6L58.32 46.72 55.48 43.01 65.1 38.6Z" fill="#A08C79"/><path d="M65.1 38.6L55.48 43.01 57.29 32.6 65.1 38.6Z" fill="#2B1400"/><path d="M53.43 58.39L52.4 68.95 48.78 59.02 53.43 58.39Z" fill="#2B1400"/><path d="M48.78 59.02L52.4 68.95 42.71 67.61 48.78 59.02Z" fill="#2B1400"/><path d="M52.4 68.95L45.94 80.07 42.71 67.61 52.4 68.95Z" fill="#9C8E82"/><path d="M68.49 26.14L57.29 32.6 53.98 20.15 68.49 26.14Z" fill="#2B1400"/><path d="M42.71 67.61L45.94 80.07 31.51 74.08 42.71 67.61Z" fill="#421000"/><path d="M57.29 32.6L55.48 43.01 51.22 41.2 57.29 32.6Z" fill="#2B1400"/><path d="M48.78 59.02L42.71 67.61 44.52 57.2 48.78 59.02Z" fill="#2B1400"/><path d="M53.98 20.15L57.29 32.6 47.6 31.26 53.98 20.15Z" fill="#4D1C00"/><path d="M57.29 32.6L51.22 41.2 47.6 31.26 57.29 32.6Z" fill="#7B6959"/><path d="M44.52 57.2L42.71 67.61 34.9 61.62 44.52 57.2Z" fill="#462201"/><path d="M42.71 67.61L31.51 74.08 34.9 61.62 42.71 67.61Z" fill="#622F00"/><path d="M47.6 31.26L51.22 41.2 46.57 41.83 47.6 31.26Z" fill="#291E16"/><path d="M44.52 57.2L34.9 61.62 41.68 53.5 44.52 57.2Z" fill="#4F4339"/><path d="M47.6 31.26L46.57 41.83 38.45 35.05 47.6 31.26Z" fill="#A08C79"/><path d="M46.57 41.83L42.86 44.59 38.45 35.05 46.57 41.83Z" fill="#2B1400"/><path d="M41.13 48.93L41.68 53.5 31.2 52.55 41.13 48.93Z" fill="#7B6959"/><path d="M41.68 53.5L34.9 61.62 31.2 52.55 41.68 53.5Z" fill="#9B745E"/><path d="M53.98 20.15L47.6 31.26 38.53 22.12 53.98 20.15Z" fill="#2B1400"/><path d="M34.9 61.62L31.51 74.08 22.05 61.62H34.9Z" fill="#291E16"/><path d="M42.86 44.59L41.13 48.93 32.46 42.78 42.86 44.59Z" fill="#291E16"/><path d="M42.86 44.59L32.46 42.78 38.45 35.05 42.86 44.59Z" fill="#927459"/><path d="M41.13 48.93L31.2 52.55 32.46 42.78 41.13 48.93Z" fill="#2B1400"/><path d="M47.6 31.26L38.45 35.05 38.53 22.12 47.6 31.26Z" fill="#3A1C00"/><path d="M34.9 61.62H22.05L31.2 52.55 34.9 61.62Z" fill="#4D1C00"/><path d="M38.53 22.12L38.45 35.05 26.07 31.66 38.53 22.12Z" fill="#291E16"/><path d="M38.45 35.05L32.46 42.78 26.07 31.66 38.45 35.05Z" fill="#622F00"/><path d="M32.46 42.78L31.2 52.55 20 46.09 32.46 42.78Z" fill="#291E16"/><path d="M31.2 52.55L22.05 61.62 20 46.09 31.2 52.55Z" fill="#2B1400"/><path d="M32.46 42.78L20 46.09 26.07 31.66 32.46 42.78Z" fill="#9A724E"/><path d="M58.32 46.72L55.48 43.01 51.22 41.2 46.57 41.83 42.86 44.59 41.13 48.93 41.68 53.5 44.52 57.2 48.78 59.02 53.43 58.39 57.14 55.55 58.87 51.29 58.32 46.72Z" fill="#2B1400"/><path d="M58.87 51.28L57.11 55.53 55.2 52.23 58.87 51.28Z" fill="#2B1400"/><path d="M58.28 46.66L58.87 51.28 55.57 49.37 58.28 46.66Z" fill="#2B1400"/><path d="M57.11 55.53L53.45 58.39V54.58L57.11 55.53Z" fill="#2B1400"/><path d="M58.87 51.28L55.2 52.23 55.57 49.37 58.87 51.28Z" fill="#291E16"/><path d="M57.11 55.53L53.45 54.58 55.2 52.23 57.11 55.53Z" fill="#2B1400"/><path d="M58.28 46.66L55.57 49.37 54.47 46.66H58.28Z" fill="#2B1400"/><path d="M53.45 54.58V58.39L50.73 55.68 53.45 54.58Z" fill="#2B1400"/><path d="M58.28 46.66H54.47L55.5 43 58.28 46.66Z" fill="#2B1400"/><path d="M53.45 58.39L48.83 58.98 50.73 55.68 53.45 58.39Z" fill="#291E16"/><path d="M55.57 49.37L55.2 52.23 52.64 50.47 55.57 49.37Z" fill="#2B1400"/><path d="M55.2 52.23L53.45 54.58 52.13 51.72 55.2 52.23Z" fill="#2B1400"/><path d="M55.2 52.23L52.13 51.72 52.64 50.47 55.2 52.23Z" fill="#7B6959"/><path d="M53.45 54.58L50.73 55.68 51.03 52.53 53.45 54.58Z" fill="#291E16"/><path d="M55.57 49.37L52.64 50.47 52.49 49.08 55.57 49.37Z" fill="#291E16"/><path d="M55.57 49.37L52.49 49.08 54.47 46.66 55.57 49.37Z" fill="#2B1400"/><path d="M53.45 54.58L51.03 52.53 52.13 51.72 53.45 54.58Z" fill="#291E16"/><path d="M55.5 43L54.47 46.66 52.2 44.9 55.5 43Z" fill="#7B6959"/><path d="M54.47 46.66L52.49 49.08 51.69 47.98 54.47 46.66Z" fill="#7B6959"/><path d="M54.47 46.66L51.69 47.98 52.2 44.9 54.47 46.66Z" fill="#2B1400"/><path d="M51.03 52.53L50.73 55.68 49.71 52.75 51.03 52.53Z" fill="#2B1400"/><path d="M49.71 52.75L50.73 55.68 47.87 55.31 49.71 52.75Z" fill="#2B1400"/><path d="M50.73 55.68L48.83 58.98 47.87 55.31 50.73 55.68Z" fill="#A08C79"/><path d="M55.5 43L52.2 44.9 51.25 41.24 55.5 43Z" fill="#2B1400"/><path d="M47.87 55.31L48.83 58.98 44.58 57.22 47.87 55.31Z" fill="#2B1400"/><path d="M52.2 44.9L51.69 47.98 50.37 47.47 52.2 44.9Z" fill="#2B1400"/><path d="M49.71 52.75L47.87 55.31 48.39 52.23 49.71 52.75Z" fill="#2B1400"/><path d="M51.25 41.24L52.2 44.9 49.34 44.54 51.25 41.24Z" fill="#2B1400"/><path d="M52.2 44.9L50.37 47.47 49.34 44.54 52.2 44.9Z" fill="#A08C79"/><path d="M48.39 52.23L47.87 55.31 45.6 53.48 48.39 52.23Z" fill="#2B1400"/><path d="M47.87 55.31L44.58 57.22 45.6 53.48 47.87 55.31Z" fill="#2B1400"/><path d="M49.34 44.54L50.37 47.47 49.05 47.62 49.34 44.54Z" fill="#291E16"/><path d="M48.39 52.23L45.6 53.48 47.58 51.13 48.39 52.23Z" fill="#4F4339"/><path d="M49.34 44.54L49.05 47.62 46.63 45.64 49.34 44.54Z" fill="#7B6959"/><path d="M49.05 47.62L47.95 48.5 46.63 45.64 49.05 47.62Z" fill="#2B1400"/><path d="M47.43 49.74L47.58 51.13 44.43 50.84 47.43 49.74Z" fill="#A08C79"/><path d="M47.58 51.13L45.6 53.48 44.43 50.84 47.58 51.13Z" fill="#6A5C53"/><path d="M51.25 41.24L49.34 44.54 46.63 41.82 51.25 41.24Z" fill="#2B1400"/><path d="M45.6 53.48L44.58 57.22 41.79 53.48H45.6Z" fill="#291E16"/><path d="M47.95 48.5L47.43 49.74 44.87 47.91 47.95 48.5Z" fill="#291E16"/><path d="M47.95 48.5L44.87 47.91 46.63 45.64 47.95 48.5Z" fill="#7B6959"/><path d="M47.43 49.74L44.43 50.84 44.87 47.91 47.43 49.74Z" fill="#2B1400"/><path d="M49.34 44.54L46.63 45.64V41.82L49.34 44.54Z" fill="#2B1400"/><path d="M45.6 53.48H41.79L44.43 50.84 45.6 53.48Z" fill="#2B1400"/><path d="M46.63 41.82V45.64L42.96 44.61 46.63 41.82Z" fill="#291E16"/><path d="M46.63 45.64L44.87 47.91 42.96 44.61 46.63 45.64Z" fill="#2B1400"/><path d="M44.87 47.91L44.43 50.84 41.13 48.93 44.87 47.91Z" fill="#291E16"/><path d="M44.43 50.84L41.79 53.48 41.13 48.93 44.43 50.84Z" fill="#2B1400"/><path d="M44.87 47.91L41.13 48.93 42.96 44.61 44.87 47.91Z" fill="#7B6959"/><path d="M52.64 50.47L52.13 51.72 51.54 50.77 52.64 50.47Z" fill="#2B1400"/><path d="M52.49 49.08L52.64 50.47 51.69 49.89 52.49 49.08Z" fill="#2B1400"/><path d="M52.13 51.72L51.03 52.53V51.43L52.13 51.72Z" fill="#2B1400"/><path d="M52.64 50.47L51.54 50.77 51.69 49.89 52.64 50.47Z" fill="#291E16"/><path d="M52.13 51.72L51.03 51.43 51.54 50.77 52.13 51.72Z" fill="#2B1400"/><path d="M52.49 49.08L51.69 49.89 51.32 49.08H52.49Z" fill="#2B1400"/><path d="M51.03 51.43V52.53L50.22 51.72 51.03 51.43Z" fill="#2B1400"/><path d="M52.49 49.08H51.32L51.69 47.98 52.49 49.08Z" fill="#2B1400"/><path d="M51.03 52.53L49.71 52.75 50.22 51.72 51.03 52.53Z" fill="#291E16"/><path d="M51.69 49.89L51.54 50.77 50.81 50.18 51.69 49.89Z" fill="#2B1400"/><path d="M51.54 50.77L51.03 51.43 50.66 50.55 51.54 50.77Z" fill="#2B1400"/><path d="M51.54 50.77L50.66 50.55 50.81 50.18 51.54 50.77Z" fill="#7B6959"/><path d="M51.03 51.43L50.22 51.72 50.37 50.84 51.03 51.43Z" fill="#291E16"/><path d="M51.69 49.89L50.81 50.18 50.73 49.81 51.69 49.89Z" fill="#291E16"/><path d="M51.69 49.89L50.73 49.81 51.32 49.08 51.69 49.89Z" fill="#2B1400"/><path d="M51.03 51.43L50.37 50.84 50.66 50.55 51.03 51.43Z" fill="#291E16"/><path d="M51.69 47.98L51.32 49.08 50.66 48.57 51.69 47.98Z" fill="#7B6959"/><path d="M51.32 49.08L50.73 49.81 50.51 49.45 51.32 49.08Z" fill="#7B6959"/><path d="M51.32 49.08L50.51 49.45 50.66 48.57 51.32 49.08Z" fill="#2B1400"/><path d="M50.37 50.84L50.22 51.72 49.93 50.91 50.37 50.84Z" fill="#2B1400"/><path d="M49.93 50.91L50.22 51.72 49.41 51.65 49.93 50.91Z" fill="#2B1400"/><path d="M50.22 51.72L49.71 52.75 49.41 51.65 50.22 51.72Z" fill="#7B6959"/><path d="M51.69 47.98L50.66 48.57 50.37 47.47 51.69 47.98Z" fill="#2B1400"/><path d="M49.41 51.65L49.71 52.75 48.39 52.23 49.41 51.65Z" fill="#2B1400"/><path d="M50.66 48.57L50.51 49.45 50.15 49.3 50.66 48.57Z" fill="#2B1400"/><path d="M49.93 50.91L49.41 51.65 49.56 50.69 49.93 50.91Z" fill="#2B1400"/><path d="M50.37 47.47L50.66 48.57 49.78 48.42 50.37 47.47Z" fill="#2B1400"/><path d="M50.66 48.57L50.15 49.3 49.78 48.42 50.66 48.57Z" fill="#7B6959"/><path d="M49.56 50.69L49.41 51.65 48.68 51.13 49.56 50.69Z" fill="#2B1400"/><path d="M49.41 51.65L48.39 52.23 48.68 51.13 49.41 51.65Z" fill="#2B1400"/><path d="M49.78 48.42L50.15 49.3 49.71 49.37 49.78 48.42Z" fill="#291E16"/><path d="M49.56 50.69L48.68 51.13 49.27 50.4 49.56 50.69Z" fill="#4F4339"/><path d="M49.78 48.42L49.71 49.37 49.05 48.79 49.78 48.42Z" fill="#7B6959"/><path d="M49.71 49.37L49.41 49.59 49.05 48.79 49.71 49.37Z" fill="#2B1400"/><path d="M49.27 49.96V50.4L48.39 50.33 49.27 49.96Z" fill="#7B6959"/><path d="M49.27 50.4L48.68 51.13 48.39 50.33 49.27 50.4Z" fill="#6A5C53"/><path d="M50.37 47.47L49.78 48.42 49.05 47.62 50.37 47.47Z" fill="#2B1400"/><path d="M48.68 51.13L48.39 52.23 47.58 51.13H48.68Z" fill="#291E16"/><path d="M49.41 49.59L49.27 49.96 48.46 49.45 49.41 49.59Z" fill="#291E16"/><path d="M49.41 49.59L48.46 49.45 49.05 48.79 49.41 49.59Z" fill="#7B6959"/><path d="M49.27 49.96L48.39 50.33 48.46 49.45 49.27 49.96Z" fill="#2B1400"/><path d="M49.78 48.42L49.05 48.79V47.62L49.78 48.42Z" fill="#2B1400"/><path d="M48.68 51.13H47.58L48.39 50.33 48.68 51.13Z" fill="#2B1400"/><path d="M49.05 47.62V48.79L47.95 48.5 49.05 47.62Z" fill="#291E16"/><path d="M49.05 48.79L48.46 49.45 47.95 48.5 49.05 48.79Z" fill="#2B1400"/><path d="M48.46 49.45L48.39 50.33 47.43 49.74 48.46 49.45Z" fill="#291E16"/><path d="M48.39 50.33L47.58 51.13 47.43 49.74 48.39 50.33Z" fill="#2B1400"/><path d="M48.46 49.45L47.43 49.74 47.95 48.5 48.46 49.45Z" fill="#7B6959"/></svg>