<svg width="100" height="100" viewBox="0 0 100 100" fill="none" xmlns="http://www.w3.org/2000/svg"><defs><linearGradient id="paint0_linear" x1="36.31" y1="34.81" x2="70.52" y2="56.1" gradientUnits="userSpaceOnUse"><stop stop-color="#4D5AC3"/><stop offset="0.02" stop-color="#5461C6"/><stop offset="0.19" stop-color="#8191D7"/><stop offset="0.36" stop-color="#A6B9E5"/><stop offset="0.52" stop-color="#C3D7F0"/><stop offset="0.68" stop-color="#D8EDF8"/><stop offset="0.84" stop-color="#E5FBFC"/><stop offset="0.97" stop-color="#E9FFFE"/></linearGradient></defs><path d="M78.79 53.63L78.79 53.62C80.44 50.73 81.75 47.73 82.31 44.94 83.36 40.19 83.37 35.62 82.51 31.44 81.66 26.96 79.82 23 77.12 20.08 73.4 16.02 68.04 13.86 62.09 15.61 57.95 16.82 53.67 19.85 49.44 24.77 45.21 19.8 40.84 16.73 36.63 15.79 30.71 14.18 25.38 16.33 21.66 20.5L21.64 20.52 21.63 20.54C19.08 23.53 17.26 27.51 16.51 32.02L16.48 32.18C16.45 32.35 16.42 32.52 16.4 32.69L16.26 33.49 16.28 33.49C15.8 37.21 15.98 41.39 16.91 45.46L16.91 45.47C17.57 48.36 18.99 51.27 20.61 54.12L20.62 54.13 20.63 54.15C22.96 58.1 26.07 62.22 29.35 66.02L29.35 66.03 29.36 66.03C32.4 69.47 35.72 72.93 38.54 75.74L38.54 75.75 38.55 75.76C43.54 80.65 47.62 84.33 48.62 85.11L49.89 86.1 51.13 85.07C51.79 84.52 56.04 80.77 61.18 75.53L61.19 75.52 61.19 75.52C63.9 72.71 66.94 69.47 69.87 66.03L69.89 66.01 69.9 66C73.12 62.08 76.4 57.77 78.79 53.63Z" fill="white"/><path d="M80.55 31.83C81.35 35.73 81.35 40.03 80.35 44.53L74.35 34.83 80.55 31.83Z" fill="#1E3186"/><path d="M80.55 31.83L74.35 34.83 75.65 21.43C78.05 24.03 79.75 27.63 80.55 31.83Z" fill="#4D5AC3"/><path d="M74.35 34.83L80.35 44.53 68.25 52.73 63.45 45.53 74.35 34.83Z" fill="#4D5AC3"/><path d="M68.25 52.73L80.35 44.53C79.85 47.03 78.65 49.83 77.05 52.63L68.25 52.73Z" fill="#8395FF"/><path d="M68.25 52.73L76.95 52.63C74.65 56.63 71.55 60.83 68.35 64.73L68.25 52.73Z" fill="#1E3186"/><path d="M75.65 21.43L74.35 34.83 65.25 32.53 59.45 25.83 75.65 21.43Z" fill="#AAC6F9"/><path d="M75.65 21.43L59.45 25.84 62.65 17.53C67.75 16.03 72.35 17.83 75.65 21.43Z" fill="#0000AD"/><path d="M74.35 34.83L63.45 45.53 65.25 32.53 74.35 34.83Z" fill="#1E3186"/><path d="M68.25 52.73L68.35 64.73 54.35 67.63 57.45 56.43 68.25 52.73Z" fill="#4D5AC3"/><path d="M54.35 67.63L68.35 64.73C65.45 68.13 62.45 71.33 59.75 74.13L54.35 67.63Z" fill="#6D83D0"/><path d="M63.45 45.53L68.25 52.73 57.45 56.43 63.45 45.53Z" fill="#0000AD"/><path d="M59.45 25.83L65.25 32.53 49.45 28.53 49.65 28.43 59.45 25.83Z" fill="#0000AD"/><path d="M65.25 32.53L63.45 45.53 57.45 56.43 49.85 63.53 42.05 56.53 35.55 45.23 35.65 32.23 49.45 28.53 65.25 32.53Z" fill="url(#paint0_linear)"/><path d="M62.65 17.53L59.51 25.85 49.42 28.54V27.94C54.02 22.04 58.55 18.73 62.65 17.53Z" fill="#8383E5"/><path d="M54.35 67.63L59.75 74.13C54.65 79.33 50.45 83.03 49.85 83.53L54.35 67.63Z" fill="#1E3186"/><path d="M57.45 56.43L54.35 67.63 49.85 63.53 57.45 56.43Z" fill="#1E3186"/><path d="M54.35 67.63L49.95 83.43C49.95 83.43 49.95 83.43 49.85 83.33L45.21 67.81 49.85 63.43 54.35 67.63Z" fill="#ACBBF9"/><path d="M45.34 67.59L49.85 83.43C48.95 82.73 44.95 79.23 39.95 74.33L45.34 67.59Z" fill="#4A5BC4"/><path d="M42.05 56.53L49.85 63.53 45.35 67.73 42.05 56.53Z" fill="#4A5BC4"/><path d="M49.45 28.03C49.55 28.03 49.55 28.03 49.45 28.03V28.53L40.35 26.33 36.25 17.93C40.35 18.83 44.85 22.03 49.45 28.03Z" fill="#1E3186"/><path d="M49.45 28.53L35.65 32.23 40.25 26.23 49.45 28.53Z" fill="#E9FFFE"/><path d="M45.35 67.73L39.95 74.33C37.15 71.53 33.85 68.11 30.85 64.71L45.35 67.73Z" fill="#8383E5"/><path d="M42.05 56.53L45.35 67.73 31.05 64.83 30.95 53.03 42.05 56.53Z" fill="#A9BAFF"/><path d="M35.55 45.23L42.05 56.53 30.95 53.03 35.55 45.23Z" fill="#E9FFFE"/><path d="M40.25 26.23L35.65 32.23 24.35 35.23 23.25 21.83 40.25 26.23Z" fill="#C7D4FF"/><path d="M36.15 17.73L40.34 26.26 23.15 21.83C26.45 18.13 31.05 16.33 36.15 17.73Z" fill="#4D5AC3"/><path d="M24.35 35.23L35.65 32.23 35.55 45.23 24.35 35.23Z" fill="#E9FFFE"/><path d="M35.55 45.23L30.95 53.03 18.85 45.03 24.35 35.23 35.55 45.23Z" fill="#C7D4FF"/><path d="M31.2 52.95L31.05 64.93C27.75 61.13 24.65 57.03 22.35 53.13L31.2 52.95Z" fill="#4A5BC4"/><path d="M30.95 53.03L22.35 53.13C20.75 50.33 19.45 47.63 18.85 45.03L30.95 53.03Z" fill="#8383E5"/><path d="M23.25 21.83L24.35 35.23 18.48 32.35C19.18 28.15 20.95 24.53 23.25 21.83Z" fill="#4D5AC3"/><path d="M24.35 35.23L18.86 45.05C17.86 40.65 17.78 36.14 18.48 32.34L24.35 35.23Z" fill="#8383E5"/><path d="M37.05 32.53C38.25 32.53 39.45 32.53 40.65 32.53 42.05 32.53 43.55 32.43 44.95 32.33 43.55 32.23 42.05 32.23 40.65 32.13 39.45 32.13 38.35 32.13 37.15 32.13 37.85 31.43 38.45 30.83 39.05 30.13 39.85 29.23 40.75 28.33 41.55 27.43 40.65 28.23 39.75 29.03 38.85 29.93 38.15 30.63 37.45 31.23 36.85 31.93 36.85 30.33 36.85 28.73 36.85 27.13 36.85 25.33 36.75 23.63 36.65 21.83 36.55 23.63 36.55 25.33 36.45 27.13 36.45 28.73 36.45 30.33 36.45 31.93 35.75 31.13 35.05 30.23 34.25 29.43 33.35 28.43 32.55 27.53 31.65 26.63 32.45 27.63 33.25 28.63 34.05 29.73 34.75 30.63 35.45 31.43 36.25 32.33 34.85 32.33 33.55 32.33 32.15 32.33 30.75 32.33 29.25 32.43 27.85 32.53 29.25 32.63 30.75 32.63 32.15 32.73 33.55 32.73 34.85 32.73 36.25 32.73 35.45 33.53 34.65 34.43 33.85 35.23 33.05 36.13 32.15 37.03 31.35 37.93 32.25 37.13 33.15 36.33 34.05 35.43 34.85 34.63 35.75 33.83 36.55 33.03 36.55 34.63 36.55 36.23 36.55 37.73 36.55 39.53 36.65 41.23 36.75 43.03 36.85 41.23 36.85 39.53 36.95 37.73 36.95 36.13 36.95 34.63 36.95 33.03 37.65 33.83 38.35 34.63 39.05 35.43 39.95 36.43 40.75 37.33 41.65 38.23 40.85 37.23 40.05 36.23 39.25 35.13 38.45 34.33 37.75 33.43 37.05 32.53Z" fill="white"/><path opacity="0.52" d="M39.96 52.91L58.35 30.83 65.25 32.53 45.99 60.05 42.05 56.53 39.96 52.91Z" fill="white"/></svg>