<svg width="100" height="100" viewBox="0 0 100 100" fill="none" xmlns="http://www.w3.org/2000/svg"><defs><linearGradient id="paint0_linear" x1="67.66" y1="70.11" x2="85.47" y2="14.01" gradientUnits="userSpaceOnUse"><stop offset="0.07" stop-color="#ACB7E4"/><stop offset="0.17" stop-color="#9BA5E0"/><stop offset="0.38" stop-color="#7078D7"/><stop offset="0.67" stop-color="#2C2EC8"/><stop offset="0.84" stop-color="#0000BF"/></linearGradient><linearGradient id="paint1_linear" x1="61.78" y1="79" x2="75.53" y2="79" gradientUnits="userSpaceOnUse"><stop offset="0.29" stop-color="#CFCAFF"/><stop offset="0.62" stop-color="#E0DEFF"/><stop offset="1" stop-color="#F1F0FF"/></linearGradient><linearGradient id="paint2_linear" x1="68.58" y1="35.8" x2="67.62" y2="69.65" gradientUnits="userSpaceOnUse"><stop offset="0.07" stop-color="#637CE4"/><stop offset="0.22" stop-color="#556ADF"/><stop offset="0.5" stop-color="#303DD1"/><stop offset="0.84" stop-color="#0000BF"/></linearGradient><linearGradient id="paint3_linear" x1="36.68" y1="50.06" x2="62.85" y2="50.06" gradientUnits="userSpaceOnUse"><stop stop-color="#CFCAFF"/><stop offset="0.13" stop-color="#D4CFFE"/><stop offset="0.6" stop-color="#E1DDFC"/><stop offset="1" stop-color="#E6E2FB"/></linearGradient><linearGradient id="paint4_linear" x1="31.02" y1="70.8" x2="32.1" y2="15.56" gradientUnits="userSpaceOnUse"><stop offset="0.23" stop-color="#F1F0FF"/><stop offset="0.38" stop-color="#EDEBFF"/><stop offset="0.55" stop-color="#E0DDFF"/><stop offset="0.71" stop-color="#CFCAFF"/></linearGradient><linearGradient id="paint5_linear" x1="25.71" y1="50.18" x2="21.47" y2="26.51" gradientUnits="userSpaceOnUse"><stop offset="0.07" stop-color="#637CE4"/><stop offset="0.22" stop-color="#556ADF"/><stop offset="0.5" stop-color="#303DD1"/><stop offset="0.84" stop-color="#0000BF"/></linearGradient><linearGradient id="paint6_linear" x1="49.98" y1="75.29" x2="50.07" y2="88.89" gradientUnits="userSpaceOnUse"><stop offset="0.07" stop-color="#637CE4"/><stop offset="0.19" stop-color="#5F77E3"/><stop offset="0.32" stop-color="#5469DE"/><stop offset="0.46" stop-color="#4152D7"/><stop offset="0.61" stop-color="#2731CE"/><stop offset="0.76" stop-color="#0607C1"/><stop offset="0.79" stop-color="#0000BF"/></linearGradient><linearGradient id="paint7_linear" x1="49.24" y1="26.61" x2="49.35" y2="9.18" gradientUnits="userSpaceOnUse"><stop stop-color="#D8D2F8"/><stop offset="0.15" stop-color="#D4CDF7"/><stop offset="0.33" stop-color="#C7BFF5"/><stop offset="0.52" stop-color="#B3A8F2"/><stop offset="0.72" stop-color="#9687ED"/><stop offset="0.92" stop-color="#725DE7"/><stop offset="1" stop-color="#634CE4"/></linearGradient></defs><path d="M33.77 13L22 24.88V75.29L35.43 87.4H64.67L77.5 75.79V24.51L64.77 13H33.77Z" fill="white"/><path d="M36.7 33.4V66.8L35.2 67.7V32.5L36.7 33.4Z" fill="#9F96EA"/><path d="M75.5 25.4V74.9L71.8 72.6V27.7L75.5 25.4Z" fill="url(#paint0_linear)"/><path d="M75.5 25.4L71.8 27.7V27.6L61.8 20.1 64 15 75.5 25.4Z" fill="#B1A5F1"/><path d="M71.8 72.6L75.5 74.9 63.9 85.4 61.8 80.3 71.8 72.6Z" fill="url(#paint1_linear)"/><path d="M71.8 72.6L61.8 80.3 59.4 74.4 64.5 68.1 71.8 72.6Z" fill="#F1F0FF"/><path d="M71.8 27.7V72.6L64.5 68.1V32.2L71.8 27.7Z" fill="url(#paint2_linear)"/><path d="M71.8 27.6V27.7L64.5 32.2 59.2 26 61.8 20.1 71.8 27.6Z" fill="#CFCAFF"/><path d="M64.5 32.2V68.1L62.9 67.1V33.2L64.5 32.2Z" fill="#F1F0FF"/><path d="M59.2 26L64.5 32.2 62.9 33.2 58.4 27.7 59.2 26Z" fill="#E6E2FB"/><path d="M64.5 68.1L59.4 74.4 58.5 72.4 62.9 67.1 64.5 68.1Z" fill="#D8D2F8"/><path d="M61.8 80.3L63.9 85.4H36.2L38.2 80.3H61.8Z" fill="#0000AD"/><path d="M62.9 33.2V67.1L58.5 72.4H41.3L36.7 66.8V33.4L41 27.7H58.4L62.9 33.2Z" fill="url(#paint3_linear)"/><path d="M59.4 74.4L61.8 80.3H38.2L40.5 74.4H59.4Z" fill="#0000E2"/><path d="M64 15L61.8 20.1H61.7 37.2L34.6 15H64Z" fill="#634CE4"/><path d="M61.7 20.1H61.8L59.2 26H40.1L37.2 20.1H61.7Z" fill="#B1A5F1"/><path d="M58.5 72.4L59.4 74.4H40.5L41.3 72.4H58.5Z" fill="#0000BF"/><path d="M59.2 26L58.4 27.7H41L40.1 26H59.2Z" fill="#CFCAFF"/><path d="M36.7 66.8L41.3 72.4 40.5 74.4 35.2 67.7 36.7 66.8Z" fill="#F1F0FF"/><path d="M40.1 26L41 27.7 36.7 33.4 35.2 32.5 40.1 26Z" fill="#E6E2FB"/><path d="M35.2 67.7L40.5 74.4 38.2 80.3 27.8 72.2V72.1L35.2 67.7Z" fill="#E6E2FB"/><path d="M38.2 80.3L36.2 85.4 24 74.4 27.8 72.1V72.2L38.2 80.3Z" fill="#9F96EA"/><path d="M37.2 20.1L40.1 26 35.2 32.5 27.8 28V27.9L37 20.1H37.2Z" fill="white"/><path d="M35.2 32.5V67.7L27.8 72.1V28L35.2 32.5Z" fill="url(#paint4_linear)"/><path d="M27.8 28V72.1L24 74.4V25.7L27.8 28Z" fill="url(#paint5_linear)"/><path d="M34.6 15L37.2 20.1H37L27.8 27.9V28L24 25.7 34.6 15Z" fill="#E6E2FB"/><path opacity="0.28" d="M41 27.7L37 20.1 47.3 28V72.4L38.2 80.3 41.3 72.4 41 27.7Z" fill="white"/><path opacity="0.14" d="M61.7 20.1L52.7 28 52.6 72.1 61.8 80.3 58.5 72.4 58.4 27.7 61.7 20.1Z" fill="white"/><path d="M36.2 85.4L50 74.4 63.9 85.4H36.2Z" fill="url(#paint6_linear)"/><path d="M34.6 15L49.6 26 64 15H34.6Z" fill="url(#paint7_linear)"/><path d="M36 32.9C37.1 32.9 38.3 32.9 39.4 32.9 40.8 32.9 42.1 32.8 43.5 32.7 42.1 32.6 40.8 32.6 39.4 32.5 38.3 32.5 37.2 32.5 36.1 32.5 36.7 31.9 37.3 31.2 37.9 30.6 38.7 29.8 39.5 28.9 40.2 28 39.3 28.8 38.5 29.5 37.6 30.3 37 30.9 36.3 31.5 35.7 32.2 35.7 30.7 35.7 29.2 35.7 27.7 35.7 26 35.6 24.4 35.5 22.7 35.4 24.4 35.4 26 35.3 27.7 35.3 29.2 35.3 30.7 35.3 32.2 34.6 31.4 33.9 30.6 33.2 29.9 32.4 29 31.6 28.1 30.7 27.2 31.4 28.2 32.2 29.1 32.9 30.1 33.6 30.9 34.2 31.7 34.9 32.5 33.6 32.5 32.4 32.5 31.1 32.5 29.7 32.5 28.4 32.6 27 32.7 28.4 32.8 29.7 32.8 31.1 32.9 32.4 32.9 33.7 32.9 34.9 32.9 34.1 33.7 33.4 34.5 32.6 35.3 31.8 36.1 31 37 30.3 37.9 31.2 37.1 32 36.4 32.9 35.6 33.7 34.9 34.5 34.1 35.2 33.3 35.2 34.8 35.2 36.3 35.2 37.7 35.2 39.4 35.3 41 35.4 42.7 35.5 41 35.5 39.4 35.6 37.7 35.6 36.2 35.6 34.8 35.6 33.3 36.3 34.1 36.9 34.8 37.6 35.6 38.4 36.5 39.2 37.4 40.1 38.3 39.4 37.3 38.6 36.4 37.9 35.4 37.4 34.5 36.7 33.7 36 32.9Z" fill="white"/></svg>