<svg width="100" height="100" viewBox="0 0 100 100" fill="none" xmlns="http://www.w3.org/2000/svg"><defs><linearGradient id="paint0_linear" x1="69.39" y1="51.07" x2="91.52" y2="49.71" gradientUnits="userSpaceOnUse"><stop offset="0.02" stop-color="#FF152A"/><stop offset="0.09" stop-color="#F3132A"/><stop offset="0.52" stop-color="#A90A28"/></linearGradient><linearGradient id="paint1_linear" x1="61.63" y1="37.17" x2="78.79" y2="44.94" gradientUnits="userSpaceOnUse"><stop stop-color="#B8021D"/><stop offset="0.13" stop-color="#C3051F"/><stop offset="0.37" stop-color="#E00D24"/><stop offset="0.57" stop-color="#FF152A"/></linearGradient><linearGradient id="paint2_linear" x1="77.51" y1="58.89" x2="59.11" y2="58.65" gradientUnits="userSpaceOnUse"><stop offset="0.22" stop-color="#A90A28"/><stop offset="0.29" stop-color="#AC0A28"/><stop offset="0.51" stop-color="#C60D29"/><stop offset="0.92" stop-color="#FF152A"/></linearGradient><linearGradient id="paint3_linear" x1="41.31" y1="74.59" x2="59.23" y2="74.59" gradientUnits="userSpaceOnUse"><stop stop-color="#FF152A"/><stop offset="0.31" stop-color="#E00D24"/><stop offset="0.68" stop-color="#C3051F"/><stop offset="0.89" stop-color="#B8021D"/></linearGradient><linearGradient id="paint4_linear" x1="41.65" y1="69.17" x2="23.52" y2="74.06" gradientUnits="userSpaceOnUse"><stop stop-color="#B8021D"/><stop offset="0.21" stop-color="#C3051F"/><stop offset="0.58" stop-color="#E00D24"/><stop offset="0.9" stop-color="#FF152A"/></linearGradient><linearGradient id="paint5_linear" x1="27.05" y1="40.52" x2="50.27" y2="7.61" gradientUnits="userSpaceOnUse"><stop stop-color="#FF152A"/><stop offset="0.06" stop-color="#FD374A"/><stop offset="0.15" stop-color="#FB5E6F"/><stop offset="0.23" stop-color="#F97E8D"/><stop offset="0.32" stop-color="#F897A4"/><stop offset="0.42" stop-color="#F7A9B5"/><stop offset="0.52" stop-color="#F6B4BF"/><stop offset="0.63" stop-color="#F6B7C2"/></linearGradient><linearGradient id="paint6_linear" x1="38.7" y1="39.6" x2="58.7" y2="63.1" gradientUnits="userSpaceOnUse"><stop stop-color="#FF8188"/><stop offset="1" stop-color="#FFD2DE"/></linearGradient></defs><path fill-rule="evenodd" clip-rule="evenodd" d="M59.17 34.04L50.1 18C55.9 18.1 61.2 19.5 65.9 22.2 71 25 75.2 29.2 78.1 34.3 80.8 39 82.3 44.4 82.3 50.2V50.8C82.2 56.6 80.5 62 77.7 66.7L71.6 55.91 71.3 55.4 71.31 55.39 68.6 50.6 68.6 50.7 77.7 66.8C74.9 71.6 70.8 75.6 65.9 78.3 61.2 80.9 55.8 82.4 50.1 82.4 44.6 82.4 39.4 81 34.8 78.5 29.75 75.83 25.49 71.78 22.59 66.85L22.5 66.8 22.53 66.75 22.5 66.7 22.54 66.7C19.68 61.92 18 56.26 18 50.3V49.8C18.1 43.97 19.76 38.53 22.5 33.87L22.5 33.7C25.4 28.9 29.5 24.9 34.4 22.2 39.1 19.5 44.4 18.1 50.1 18.1L59.2 34.1 59.17 34.04ZM32 50L36.03 42.96 36.03 42.95 32 50ZM37.26 40.82L37.23 40.86 37.23 40.86 37.26 40.82Z" fill="black"/><path fill-rule="evenodd" clip-rule="evenodd" d="M77.5 33.29C77.71 33.62 77.91 33.96 78.1 34.3 80.8 39 82.3 44.4 82.3 50.2V50.8C82.21 55.77 80.95 60.45 78.83 64.64 78.82 64.66 78.82 64.68 78.81 64.69 78.46 65.37 78.09 66.04 77.7 66.7L71.6 55.91 71.3 55.4 71.31 55.39 68.6 50.6 68.6 50.7 77.7 66.8C77.38 67.35 77.04 67.89 76.68 68.42 73.95 72.5 70.24 75.91 65.9 78.3 61.2 80.9 55.8 82.4 50.1 82.4 44.6 82.4 39.4 81 34.8 78.5 30.3 76.11 26.41 72.64 23.57 68.41 23.23 67.9 22.9 67.38 22.59 66.85L22.5 66.8 22.53 66.75 22.5 66.7 22.54 66.7C22.54 66.69 22.53 66.69 22.53 66.68 22.52 66.67 22.51 66.65 22.5 66.63 22.17 66.08 21.86 65.51 21.56 64.94 19.3 60.55 18 55.54 18 50.3V49.8C18.1 43.97 19.76 38.53 22.5 33.87L22.5 33.7C25.4 28.9 29.5 24.9 34.4 22.2 38.55 19.82 43.16 18.45 48.11 18.16 48.71 18.12 49.31 18.1 49.92 18.1 49.98 18.1 50.04 18.1 50.1 18.1 50.1 18.1 50.1 18.1 50.1 18.1L59.2 34.1 59.17 34.04 50.1 18C50.16 18 50.21 18 50.27 18 50.99 18.02 51.7 18.05 52.41 18.11 52.43 18.11 52.44 18.11 52.46 18.11 57.35 18.51 61.85 19.87 65.9 22.2 70.66 24.81 74.64 28.65 77.5 33.29ZM66.88 20.46C72.31 23.44 76.76 27.9 79.84 33.31 82.71 38.31 84.3 44.05 84.3 50.2V50.8L84.3 50.83C84.2 56.88 82.46 62.5 79.61 67.4 79.56 67.54 79.5 67.68 79.43 67.81 76.44 72.92 72.08 77.18 66.87 80.05 61.88 82.81 56.15 84.4 50.1 84.4 44.26 84.4 38.74 82.91 33.85 80.26 28.6 77.48 24.13 73.29 21.05 68.18 20.81 67.92 20.64 67.61 20.56 67.27 17.68 62.29 16 56.45 16 50.3V49.8L16 49.77C16.1 43.73 17.78 38.1 20.55 33.24 20.6 33.04 20.68 32.84 20.79 32.67 23.86 27.58 28.21 23.33 33.42 20.46 38.25 17.68 43.67 16.21 49.46 16.11 49.67 16.03 49.9 16 50.13 16 56.24 16.11 61.87 17.58 66.88 20.46ZM32 50L36.03 42.96 36.03 42.95 32 50Z" fill="white"/><path d="M78.1 34.3L68.6 50.6 77.7 66.7C80.5 62 82.2 56.6 82.3 50.8 82.3 50.6 82.3 50.4 82.3 50.2 82.3 44.4 80.8 39 78.1 34.3Z" fill="url(#paint0_linear)"/><path d="M78.1 34.3L68.6 50.6 59.3 34.2V34.1L78.1 34.3Z" fill="url(#paint1_linear)"/><path d="M78.1 34.3L59.3 34.1 65.9 22.2C71 25 75.2 29.2 78.1 34.3Z" fill="#E22049"/><path d="M68.6 50.7L77.7 66.8H59.4L59.3 66.6 68.6 50.7Z" fill="url(#paint2_linear)"/><path d="M68.6 50.7L59.3 66.6 50.3 50.5 50.4 50.3 68.6 50.6V50.7Z" fill="#F16291"/><path d="M59.3 34.2L68.6 50.6 50.4 50.3 59.3 34.2Z" fill="#F16291"/><path d="M65.9 22.2L59.3 34.1H59.2L50.1 18C55.9 18.1 61.2 19.5 65.9 22.2Z" fill="#A90A28"/><path d="M59.4 66.8H59.2L50.1 82.4C55.8 82.4 61.2 80.9 65.9 78.3 70.8 75.6 74.9 71.6 77.7 66.8H59.4Z" fill="#A90A28"/><path d="M59.3 66.6L59.4 66.8H59.2L59.3 66.6Z" fill="white"/><path d="M59.3 66.6L59.2 66.8H41.3L50.3 50.5 59.3 66.6Z" fill="#F16291"/><path d="M59.3 34.1V34.2L59.2 34.1H59.3Z" fill="white"/><path d="M59.2 34.1L59.3 34.2 50.4 50.3H50.2L41.1 34.1 41.2 33.9 59.2 34.1Z" fill="white"/><path d="M59.2 34.1L41.07 33.91 50.1 18.1 59.2 34.1Z" fill="#FF152A"/><path d="M59.2 66.8L50.1 82.4 41.3 66.8H59.2Z" fill="url(#paint3_linear)"/><path d="M50.4 50.3L50.3 50.5 50.2 50.3H50.4Z" fill="white"/><path d="M50.3 50.5L41.3 66.8 31.9 50.2 32 50 50.2 50.3 50.3 50.5Z" fill="#FFD2DE"/><path d="M41.1 34.1L50.2 50.3 32 50 41.1 34.1Z" fill="white"/><path d="M41.3 66.8L50.1 82.4C44.6 82.4 39.4 81 34.8 78.5L41.3 66.8Z" fill="#A90A28"/><path d="M41.3 66.8L34.8 78.5C29.7 75.8 25.4 71.7 22.5 66.7L41.3 66.8Z" fill="url(#paint4_linear)"/><path d="M41.3 66.8H22.5L31.9 50.2 41.3 66.8Z" fill="#FF668B"/><path d="M41.2 33.9L41.1 34.1 41 33.9H41.2Z" fill="white"/><path d="M41.1 34.1L32 50H31.8L22.5 33.7 41 33.9 41.1 34.1Z" fill="#FFA6B9"/><path d="M34.4 22.2C29.5 24.9 25.4 28.9 22.5 33.7L40.9 33.9H41.1L50.1 18.1C44.4 18.1 39.1 19.5 34.4 22.2Z" fill="url(#paint5_linear)"/><path d="M32 50L31.9 50.2 31.8 50H32Z" fill="white"/><path d="M31.8 50L22.6 33.7C19.8 38.4 18.1 43.9 18 49.8 18 49.9 18 50.1 18 50.3 18 56.3 19.7 62 22.6 66.8L32 50.3 31.8 50Z" fill="#FFCCD6"/><path d="M50.1 66.5C58.77 66.5 65.8 59.2 65.8 50.2 65.8 41.2 58.77 33.9 50.1 33.9 41.43 33.9 34.4 41.2 34.4 50.2 34.4 59.2 41.43 66.5 50.1 66.5Z" fill="url(#paint6_linear)"/><path opacity="0.62" d="M34.9 55.4L52.7 34.1 56.7 35.4 37.1 59.4 34.9 55.4Z" fill="white"/><path opacity="0.62" d="M38.5 61.3L59.1 36.8 60.8 38.2 62.2 39.7 42.6 64.5 41 63.5 38.5 61.3Z" fill="white"/><path opacity="0.62" d="M44.2 64.2L56.3 48.7 56.9 49.8 45.6 64.7 44.2 64.2Z" fill="white"/><path opacity="0.62" d="M57.8 48.9L60.7 44.9 59.5 44.6 56.9 47.7 57.8 48.9Z" fill="white"/><path opacity="0.62" d="M49.5 64.5L54.6 57.5 53.4 57.2 47.8 64.3 49.5 64.5Z" fill="white"/><path opacity="0.44" d="M31.8 50L22.7 66.6 22.5 33.7 31.8 50Z" fill="white"/><path opacity="0.51" d="M27.9 66.8L34.9 55.4 38.5 61.9 36.2 66.8H27.9Z" fill="#FFD2DE"/><path opacity="0.44" d="M40.6 33.2L29.4 33 47.4 21.5 40.6 33.2Z" fill="white"/><path opacity="0.41" d="M50.2 18.1L69.5 27.1 65.4 27.7 52.2 21.7 50.2 18.1Z" fill="white"/><path opacity="0.28" d="M53 23.1L77.3 34.3 59.2 34.1 53 23.1Z" fill="white"/><path opacity="0.37" d="M53.7 29.5L49.3 21.7 42.5 33.3H46.4L53.7 29.5Z" fill="white"/><path opacity="0.43" d="M71.3 55.4L78.1 45.5 78.7 48.9 72.6 57.6 71.3 55.4Z" fill="white"/><path opacity="0.43" d="M75 56.7L79.5 49.9 79.4 51.6 75.5 57.6 75 56.7Z" fill="white"/><path opacity="0.47" d="M50.1 82.4L59.2 66.8H77.7L50.1 82.4Z" fill="white"/><path opacity="0.62" d="M38.8 39.7C40 39.7 41.2 39.7 42.5 39.7 44 39.7 45.4 39.6 46.9 39.5 45.4 39.4 44 39.4 42.5 39.3 41.3 39.3 40.1 39.3 38.9 39.3 39.6 38.6 40.2 38 40.9 37.3 41.8 36.4 42.6 35.5 43.4 34.5 42.5 35.3 41.5 36.2 40.6 37 39.9 37.7 39.2 38.3 38.5 39 38.5 37.4 38.5 35.8 38.5 34.1 38.5 32.3 38.4 30.5 38.3 28.7 38.2 30.5 38.2 32.3 38.1 34.1 38.1 35.7 38.1 37.3 38.1 38.9 37.4 38.1 36.6 37.2 35.9 36.4 35 35.4 34.1 34.5 33.2 33.5 34 34.5 34.8 35.6 35.6 36.6 36.3 37.5 37 38.4 37.8 39.2 36.4 39.2 35.1 39.2 33.7 39.2 32.2 39.2 30.8 39.3 29.3 39.4 30.8 39.5 32.2 39.5 33.7 39.6 35.1 39.6 36.4 39.6 37.8 39.6 37 40.4 36.1 41.3 35.3 42.1 34.4 43 33.6 43.9 32.8 44.9 33.7 44.1 34.7 43.2 35.6 42.4 36.4 41.6 37.3 40.8 38.1 40 38.1 41.6 38.1 43.2 38.1 44.8 38.1 46.6 38.2 48.4 38.3 50.2 38.4 48.4 38.4 46.6 38.5 44.8 38.5 43.2 38.5 41.7 38.5 40.1 39.2 40.9 39.9 41.7 40.6 42.5 41.5 43.5 42.4 44.4 43.3 45.3 42.5 44.3 41.7 43.2 40.9 42.2 40.3 41.4 39.6 40.5 38.8 39.7Z" fill="white"/><path opacity="0.08" d="M50.1 82.4L22.5 66.8H41.3L50.1 82.4Z" fill="black"/></svg>