<svg width="100" height="100" viewBox="0 0 100 100" fill="none" xmlns="http://www.w3.org/2000/svg"><defs><linearGradient id="paint0_linear" x1="45.32" y1="71.62" x2="52.43" y2="86.88" gradientUnits="userSpaceOnUse"><stop stop-color="#00AA89"/><stop offset="0.04" stop-color="#019576"/><stop offset="0.11" stop-color="#03765B"/><stop offset="0.19" stop-color="#045C44"/><stop offset="0.28" stop-color="#054932"/><stop offset="0.38" stop-color="#053B25"/><stop offset="0.5" stop-color="#06321E"/><stop offset="0.71" stop-color="#06301C"/></linearGradient><linearGradient id="paint1_linear" x1="29.93" y1="41.43" x2="36.8" y2="76.52" gradientUnits="userSpaceOnUse"><stop stop-color="#004932"/><stop offset="0.25" stop-color="#003A24"/><stop offset="0.81" stop-color="#001D0A"/></linearGradient><linearGradient id="paint2_linear" x1="50.12" y1="45.5" x2="43.82" y2="73.18" gradientUnits="userSpaceOnUse"><stop offset="0.16" stop-color="#004428"/><stop offset="0.19" stop-color="#013921"/><stop offset="0.27" stop-color="#042415"/><stop offset="0.37" stop-color="#06160C"/><stop offset="0.48" stop-color="#070E07"/><stop offset="0.67" stop-color="#070B05"/></linearGradient><linearGradient id="paint3_linear" x1="81.3" y1="50.53" x2="46.46" y2="49.51" gradientUnits="userSpaceOnUse"><stop offset="0.32" stop-color="#00AA89"/><stop offset="0.33" stop-color="#008467"/><stop offset="0.36" stop-color="#005F46"/><stop offset="0.38" stop-color="#00422C"/><stop offset="0.4" stop-color="#002E19"/><stop offset="0.42" stop-color="#00210E"/><stop offset="0.44" stop-color="#001D0A"/><stop offset="0.51" stop-color="#00210E"/><stop offset="0.58" stop-color="#022E1B"/><stop offset="0.66" stop-color="#04432F"/><stop offset="0.74" stop-color="#07604C"/><stop offset="0.77" stop-color="#086D59"/></linearGradient><linearGradient id="paint4_linear" x1="35.59" y1="36.83" x2="37.78" y2="62.89" gradientUnits="userSpaceOnUse"><stop offset="0.23" stop-color="#00AA89"/><stop offset="0.3" stop-color="#019F7F"/><stop offset="0.42" stop-color="#028265"/><stop offset="0.59" stop-color="#04523B"/><stop offset="0.69" stop-color="#06301C"/></linearGradient><linearGradient id="paint5_linear" x1="49.81" y1="33.21" x2="39.44" y2="25.71" gradientUnits="userSpaceOnUse"><stop offset="0.07" stop-color="#00AA89"/><stop offset="0.18" stop-color="#01A181"/><stop offset="0.35" stop-color="#028A6C"/><stop offset="0.56" stop-color="#05644A"/><stop offset="0.62" stop-color="#065940"/></linearGradient><linearGradient id="paint6_linear" x1="26.96" y1="52.71" x2="34.34" y2="52.71" gradientUnits="userSpaceOnUse"><stop offset="0.23" stop-color="#00AA89"/><stop offset="0.3" stop-color="#019F7F"/><stop offset="0.42" stop-color="#028265"/><stop offset="0.59" stop-color="#04523B"/><stop offset="0.69" stop-color="#06301C"/></linearGradient><linearGradient id="paint7_linear" x1="42.95" y1="78.88" x2="55.76" y2="78.88" gradientUnits="userSpaceOnUse"><stop offset="0.38" stop-color="white"/><stop offset="0.43" stop-color="#F4F4F4"/><stop offset="0.53" stop-color="#D7D7D7"/><stop offset="0.65" stop-color="#A7A7A7"/><stop offset="0.8" stop-color="#646464"/><stop offset="0.97" stop-color="#111111"/><stop offset="1"/></linearGradient><linearGradient id="paint8_linear" x1="42.95" y1="78.88" x2="55.76" y2="78.88" gradientUnits="userSpaceOnUse"><stop offset="0.38" stop-color="white"/><stop offset="1" stop-color="white"/></linearGradient><linearGradient id="paint9_linear" x1="54.13" y1="51.95" x2="71.97" y2="51.95" gradientUnits="userSpaceOnUse"><stop stop-color="white"/><stop offset="0.06" stop-color="#F4F4F4"/><stop offset="0.17" stop-color="#D7D7D7"/><stop offset="0.31" stop-color="#A7A7A7"/><stop offset="0.48" stop-color="#646464"/><stop offset="0.68" stop-color="#111111"/><stop offset="0.71"/></linearGradient><linearGradient id="paint10_linear" x1="54.13" y1="51.95" x2="71.97" y2="51.95" gradientUnits="userSpaceOnUse"><stop stop-color="white"/><stop offset="0.71" stop-color="white"/></linearGradient><linearGradient id="paint11_linear" x1="63.03" y1="56.53" x2="72.81" y2="56.53" gradientUnits="userSpaceOnUse"><stop stop-color="white"/><stop offset="0.06" stop-color="#F4F4F4"/><stop offset="0.17" stop-color="#D7D7D7"/><stop offset="0.31" stop-color="#A7A7A7"/><stop offset="0.48" stop-color="#646464"/><stop offset="0.68" stop-color="#111111"/><stop offset="0.71"/></linearGradient><linearGradient id="paint12_linear" x1="63.03" y1="56.53" x2="72.81" y2="56.53" gradientUnits="userSpaceOnUse"><stop stop-color="white"/><stop offset="0.71" stop-color="white"/></linearGradient><linearGradient id="paint13_linear" x1="50.08" y1="27.08" x2="60.5" y2="27.08" gradientUnits="userSpaceOnUse"><stop offset="0.37" stop-color="white"/><stop offset="0.47" stop-color="#DADADA"/><stop offset="0.71" stop-color="#7D7D7D"/><stop offset="1"/></linearGradient><linearGradient id="paint14_linear" x1="50.08" y1="27.08" x2="60.5" y2="27.08" gradientUnits="userSpaceOnUse"><stop offset="0.37" stop-color="white"/><stop offset="1" stop-color="white"/></linearGradient><linearGradient id="paint15_linear" x1="56.8" y1="29.8" x2="64.35" y2="29.8" gradientUnits="userSpaceOnUse"><stop offset="0.37" stop-color="white"/><stop offset="0.47" stop-color="#DADADA"/><stop offset="0.71" stop-color="#7D7D7D"/><stop offset="1"/></linearGradient><linearGradient id="paint16_linear" x1="56.8" y1="29.8" x2="64.35" y2="29.8" gradientUnits="userSpaceOnUse"><stop offset="0.37" stop-color="white"/><stop offset="1" stop-color="white"/></linearGradient><linearGradient id="paint17_linear" x1="28.09" y1="58.34" x2="38.41" y2="58.34" gradientUnits="userSpaceOnUse"><stop offset="0.46" stop-color="#7D7D7D"/><stop offset="0.83" stop-color="#DADADA"/><stop offset="1" stop-color="white"/></linearGradient><linearGradient id="paint18_linear" x1="28.09" y1="58.34" x2="38.41" y2="58.34" gradientUnits="userSpaceOnUse"><stop stop-color="white"/><stop offset="1" stop-color="white"/></linearGradient></defs><path fill-rule="evenodd" clip-rule="evenodd" d="M54.34 89.76L75.78 66.83 73.95 32.08 46.24 10.2 24.86 36.86 28.89 57.85 31.63 71.89 37.24 75.12 54.34 89.76Z" fill="white"/><path d="M52.22 79.9L48.37 80.36 43.76 77.11 46.78 76.43 49.58 76.35 52.22 79.9Z" fill="#3FC9AE"/><path d="M57.73 76.73L55.32 77.86 55.24 76.2 55.77 70.77 73.74 66.08 69.44 70.61 62.94 73.79 63.17 71.29 57.73 76.73Z" fill="#086D59"/><path d="M55.32 77.86L57.73 76.73 63.17 71.29 62.94 73.79 69.44 70.61 54.18 87 55.24 76.2 55.32 77.86Z" fill="#9FE2E0"/><path d="M49.58 76.35L46.78 76.43 45.2 72.43 55.77 70.77 55.24 76.2 49.58 76.35Z" fill="#001C13"/><path d="M55.24 76.2L54.18 87 38.4 73.48 45.2 72.43 46.78 76.43 43.76 77.11 48.37 80.36 52.22 79.9 49.58 76.35 55.24 76.2Z" fill="url(#paint0_linear)"/><path d="M45.2 72.43L38.4 73.48 37.5 69.26 43.39 66.08 45.2 72.43Z" fill="#D4FCFC"/><path d="M38.4 73.48L33.42 70.61 32.74 67.14 34.32 67.97 28.13 37.54 30.55 37.24 35.83 61.48 37.12 67.44 37.5 69.26 38.4 73.48Z" fill="url(#paint1_linear)"/><path d="M55.77 70.77L45.2 72.43 43.39 66.08 55.39 66.91 55.77 70.77Z" fill="#7FE5D1"/><path d="M73.74 66.08L55.77 70.77 55.39 66.91 61.66 64.65 73.59 63.44 73.74 66.08Z" fill="#48D8BC"/><path d="M43.39 66.08L37.5 69.26 37.12 67.44 43.39 66.08Z" fill="#B6FFFF"/><path d="M34.32 67.97L32.74 67.14 27 37.39 28.13 37.54 34.32 67.97Z" fill="#ADB3D1"/><path d="M43.39 66.08L37.12 67.44 35.83 61.48 38.93 62.99 42.86 62.53 43.39 66.08Z" fill="#001C13"/><path d="M55.39 66.91L43.39 66.08 42.86 62.53 40.29 44.19 53.66 47.13 55.39 66.91Z" fill="url(#paint2_linear)"/><path d="M61.66 64.65L55.39 66.91 53.66 47.13 52.52 34.29 63.24 33.61 72 33.09 73.59 63.44 61.66 64.65Z" fill="url(#paint3_linear)"/><path d="M42.86 62.53L38.93 62.99 35.83 61.48 30.55 37.24 39.23 36.79 40.29 44.19 42.86 62.53Z" fill="url(#paint4_linear)"/><path d="M53.66 47.13L40.29 44.19 39.23 36.79 40.37 36.71 52.52 34.29 53.66 47.13Z" fill="#48D8BC"/><path d="M28.13 37.54L27 37.39 36.74 25.23 28.13 37.54Z" fill="#83DDCC"/><path d="M30.55 37.24L28.13 37.54 36.74 25.23 46.56 13 40.14 23.04 30.55 37.24Z" fill="#00AA89"/><path d="M39.23 36.79L30.55 37.24 46.56 13 39.23 36.79Z" fill="#D4FCFC"/><path d="M40.37 36.71L39.23 36.79 46.41 25.53 48.9 21.31 52.52 34.29 40.37 36.71Z" fill="url(#paint5_linear)"/><path d="M72 33.09L54.33 31.73 46.56 13 51.39 16.85 55.39 26.29 56.83 21.08 72 33.09Z" fill="#00AA89"/><path d="M48.9 21.31L39.23 36.79 46.56 13 48.9 21.31Z" fill="#CFFFFE"/><path d="M48.9 21.31L46.56 13 54.33 31.73 72 33.09 63.24 33.61 52.52 34.29 48.9 21.31Z" fill="#DBFCFB"/><path d="M56.83 21.08L55.39 26.29 51.39 16.85 56.83 21.08Z" fill="#48D8BC"/><path d="M32.74 67.14L34.32 67.97 28.13 37.54 27 37.39 32.74 67.14Z" fill="url(#paint6_linear)"/><mask id="mask0" mask-type="alpha" maskUnits="userSpaceOnUse" x="42" y="70" width="14" height="17"><path d="M55.77 70.77L54.18 87 42.93 72.73 55.77 70.77Z" fill="url(#paint7_linear)"/></mask><g mask="url(#mask0)"><path opacity="0.35" d="M55.77 70.77L54.18 87 42.93 72.73 55.77 70.77Z" fill="url(#paint8_linear)"/><path opacity="0.61" d="M59.7 69.78L54.18 87 69.44 67.14 59.7 69.78Z" fill="white"/><path opacity="0.61" d="M38.4 73.48L54.11 54.08 53.2 40.03 36.14 63.44 38.4 73.48Z" fill="white"/><path opacity="0.42" d="M42.93 72.73L51.39 61.48V63.44L45.2 72.43 42.93 72.73Z" fill="white"/></g><mask id="mask1" mask-type="alpha" maskUnits="userSpaceOnUse" x="54" y="33" width="19" height="38"><path d="M55.77 70.77L72 33.09 63.24 33.61 54.11 54.08 55.77 70.77Z" fill="url(#paint9_linear)"/></mask><g mask="url(#mask1)"><path opacity="0.27" d="M55.77 70.77L72 33.09 63.24 33.61 54.11 54.08 55.77 70.77Z" fill="url(#paint10_linear)"/></g><mask id="mask2" mask-type="alpha" maskUnits="userSpaceOnUse" x="63" y="44" width="10" height="25"><path d="M63.02 68.88L72.53 44.19 72.83 49.02 65.28 68.27 63.02 68.88Z" fill="url(#paint11_linear)"/></mask><g mask="url(#mask2)"><path opacity="0.27" d="M63.02 68.88L72.53 44.19 72.83 49.02 65.28 68.27 63.02 68.88Z" fill="url(#paint12_linear)"/></g><mask id="mask3" mask-type="alpha" maskUnits="userSpaceOnUse" x="50" y="19" width="11" height="16"><path d="M52.52 34.29L50.11 25.61 55.24 19.87 60.53 24.02 52.52 34.29Z" fill="url(#paint13_linear)"/></mask><g mask="url(#mask3)"><path opacity="0.56" d="M52.52 34.29L50.11 25.61 55.24 19.87 60.53 24.02 52.52 34.29Z" fill="url(#paint14_linear)"/></g><mask id="mask4" mask-type="alpha" maskUnits="userSpaceOnUse" x="56" y="25" width="9" height="10"><path d="M56.83 34.07L62.41 25.53 64.38 27.12 60.53 33.84 56.83 34.07Z" fill="url(#paint15_linear)"/></mask><g mask="url(#mask4)"><path opacity="0.56" d="M56.83 34.07L62.41 25.53 64.38 27.12 60.53 33.84 56.83 34.07Z" fill="url(#paint16_linear)"/></g><mask id="mask5" mask-type="alpha" maskUnits="userSpaceOnUse" x="28" y="43" width="11" height="31"><path d="M28.06 43.2L33.04 48.79 38.4 73.48 30.85 57.48 28.06 43.2Z" fill="url(#paint17_linear)"/></mask><g mask="url(#mask5)"><path opacity="0.26" d="M28.06 43.2L33.04 48.79 38.4 73.48 30.85 57.48 28.06 43.2Z" fill="url(#paint18_linear)"/></g><path d="M51.62 34.67C50.71 34.67 49.73 34.67 48.82 34.67 47.69 34.67 46.56 34.6 45.5 34.52 46.63 34.45 47.77 34.44 48.82 34.37 49.73 34.37 50.63 34.37 51.54 34.37 51.01 33.84 50.56 33.31 50.03 32.78 49.35 32.1 48.75 31.42 48.14 30.67 48.9 31.27 49.58 31.95 50.26 32.63 50.79 33.16 51.31 33.61 51.84 34.14 51.84 32.93 51.84 31.65 51.84 30.44 51.84 29.08 51.92 27.72 51.99 26.37 52.07 27.72 52.07 29.08 52.14 30.44 52.14 31.65 52.14 32.86 52.14 34.14 52.67 33.46 53.28 32.86 53.81 32.18 54.49 31.42 55.17 30.67 55.84 29.99 55.24 30.82 54.64 31.58 54.03 32.33 53.5 33.01 52.9 33.69 52.37 34.37 53.43 34.37 54.49 34.37 55.54 34.37 56.68 34.37 57.81 34.45 58.87 34.52 57.73 34.6 56.6 34.6 55.54 34.67 54.49 34.67 53.43 34.67 52.37 34.67 52.98 35.35 53.66 35.96 54.26 36.63 54.94 37.31 55.54 37.99 56.15 38.75 55.39 38.15 54.71 37.47 54.03 36.86 53.35 36.26 52.75 35.65 52.14 34.97 52.14 36.18 52.14 37.39 52.14 38.67 52.14 40.03 52.07 41.39 51.99 42.75 51.92 41.39 51.92 40.03 51.84 38.67 51.84 37.47 51.84 36.26 51.84 35.05 51.31 35.65 50.79 36.33 50.18 36.94 49.5 37.69 48.82 38.45 48.14 39.13 48.75 38.3 49.35 37.54 49.96 36.79 50.48 36.03 51.01 35.35 51.62 34.67Z" fill="white"/></svg>