<svg width="100" height="100" viewBox="0 0 100 100" fill="none" xmlns="http://www.w3.org/2000/svg"><defs><linearGradient id="paint0_linear" x1="33.61" y1="42.5" x2="77.09" y2="62.88" gradientUnits="userSpaceOnUse"><stop offset="0.02" stop-color="#FCA824"/><stop offset="0.04" stop-color="#FCAC2E"/><stop offset="0.17" stop-color="#FDC361"/><stop offset="0.29" stop-color="#FED68C"/><stop offset="0.41" stop-color="#FEE4AD"/><stop offset="0.53" stop-color="#FFEFC5"/><stop offset="0.63" stop-color="#FFF5D3"/><stop offset="0.72" stop-color="#FFF7D8"/></linearGradient></defs><path fill-rule="evenodd" clip-rule="evenodd" d="M38.53 18.01L38.53 18.02C29.6 21.21 22.48 28.01 18.77 36.6 16.95 40.76 16 45.34 16 50.2 16 54.25 16.71 58.21 18.04 61.87 18.06 61.94 18.08 62 18.11 62.07 21.5 71.09 28.53 78.34 37.45 81.95 37.57 82 37.7 82.04 37.83 82.06 41.69 83.59 45.85 84.4 50.2 84.4 54.69 84.4 58.93 83.44 62.81 81.97L62.84 81.96C71.12 78.67 77.8 72.2 81.41 64.04 81.45 63.98 81.47 63.91 81.5 63.86 81.56 63.76 81.61 63.66 81.65 63.56 83.33 59.46 84.4 54.9 84.4 50.2 84.4 46.22 83.55 42.45 82.39 39.05 82.38 38.87 82.34 38.69 82.28 38.51 79.1 29.81 72.62 22.8 64.23 18.98 64.09 18.92 63.95 18.87 63.8 18.84 59.58 16.98 54.98 16 50.2 16 46.06 16 42.13 16.74 38.53 18.01ZM19.98 61.38C19.98 61.38 19.98 61.38 19.98 61.38ZM19.99 61.37C19.99 61.37 19.99 61.36 19.99 61.36L19.99 61.36 19.99 61.37Z" fill="white"/><path d="M20.6 37.4C24.1 29.3 30.8 22.9 39.2 19.9L20.6 37.4Z" fill="#F2AD31"/><path d="M72.1 50.8L67.1 57.9V42.8L72.1 50.8Z" fill="#B55A00"/><path d="M63.4 20.8L50.8 28.9 39.2 19.9 63.4 20.8Z" fill="#DD9029"/><path d="M65.9 35.9L57.2 33.9 63.4 20.8 65.9 35.9Z" fill="#B55A00"/><path d="M35.1 64.9L20 61.4 33.5 57.1 35.1 64.9Z" fill="#FEEA8D"/><path d="M35.4 35.1L39.2 19.9 43.1 33.9 35.4 35.1Z" fill="#FEEA8D"/><path d="M28.6 49.6L20.6 37.4 33.5 42.8 28.6 49.6Z" fill="#FEC65C"/><path d="M79.8 62.8L80.31 39.16C81.51 42.56 82.4 46.3 82.4 50.2 82.4 54.6 81.4 58.9 79.8 62.8Z" fill="#CC6A00"/><path d="M67.1 42.8L57.2 33.9 65.9 35.9 67.1 42.8Z" fill="#D88016"/><path d="M35.4 35.1L33.5 42.8 20.6 37.4 35.4 35.1Z" fill="#FED683"/><path d="M43.6 66.8L35.1 64.9 33.5 57.1 43.6 66.8Z" fill="#FED683"/><path d="M57.2 33.9L50.8 28.9 63.4 20.8 57.2 33.9Z" fill="#F2AD31"/><path d="M20.6 37.4L39.2 19.9 35.4 35.1 20.6 37.4Z" fill="#FFF0B0"/><path d="M38.2 80.1L35.1 64.9 43.6 66.8 38.2 80.1Z" fill="#F2AD31"/><path d="M33.5 42.8L35.4 35.1 43.1 33.9 33.5 42.8Z" fill="#FFF7BD"/><path d="M39.2 19.9C42.6 18.7 46.3 18 50.2 18 54.9 18 59.4 19 63.5 20.9L39.2 19.9Z" fill="#CC6A00"/><path d="M65.4 65.5L79.4 63.2 62.1 80.1 65.4 65.5Z" fill="#D88016"/><path d="M43.6 66.8H57.2L50.3 71.7 43.6 66.8Z" fill="#FCA824"/><path d="M38.2 80.1L43.6 66.8 50.3 71.7 38.2 80.1Z" fill="#FBC648"/><path d="M62.1 80.1L57.2 66.8 65.4 65.5 62.1 80.1Z" fill="#B55A00"/><path d="M80.4 39.2L72.1 50.8 67.1 42.8 80.4 39.2Z" fill="#CC6A00"/><path d="M79.8 62.8L72.1 50.8 80.4 39.2 79.8 62.8Z" fill="#9E4B00"/><path d="M65.4 65.5L57.2 66.8 67.1 57.9 65.4 65.5Z" fill="#9E4B00"/><path d="M38.2 80.1L20 61.4 35.1 64.9 38.2 80.1Z" fill="#FED683"/><path d="M79.8 62.8L67.1 57.9 72.1 50.8 79.8 62.8Z" fill="#D88016"/><path d="M50.8 28.9L57.2 33.9H43.1L50.8 28.9Z" fill="#FFF7BD"/><path d="M38.2 80.1C29.8 76.7 23.18 69.87 19.98 61.37 20.08 61.37 38.2 80.1 38.2 80.1Z" fill="#FBC648"/><path d="M79.8 62.8L79.4 63.2 65.4 65.5 67.1 57.9 79.8 62.8Z" fill="#FBC648"/><path d="M79.4 63.2L79.8 62.8C79.7 62.9 79.7 63 79.6 63.2H79.4Z" fill="#FCA824"/><path d="M65.9 35.9L63.4 20.8 80.4 39.2 65.9 35.9Z" fill="#FBC648"/><path d="M20 61.4L20.6 37.4 28.6 49.6 20 61.4Z" fill="#FEEA8D"/><path d="M39.2 19.9L50.8 28.9 43.1 33.9 39.2 19.9Z" fill="#FEC65C"/><path d="M20.6 37.4L20 61.4C18.7 57.9 18 54.1 18 50.2 18 45.6 18.9 41.3 20.6 37.4Z" fill="#FED683"/><path d="M28.6 49.6L33.5 57.1 20 61.4 28.6 49.6Z" fill="#FED683"/><path d="M80.4 39.2L67.1 42.8 65.9 35.9 80.4 39.2Z" fill="#9E4B00"/><path d="M67.1 57.9L57.2 66.8H43.6L33.5 57.1V42.8L43.1 33.9H57.2L67.1 42.8V57.9Z" fill="url(#paint0_linear)"/><path d="M79.4 63.2H79.6C76.2 70.9 69.9 77 62.1 80.1L79.4 63.2Z" fill="#9E4B00"/><path d="M38.2 80.1L50.3 71.7 62 80.1H38.2Z" fill="#FCA824"/><path d="M63.4 20.8C71.3 24.4 77.4 31 80.4 39.2L63.4 20.8Z" fill="#9E4B00"/><path d="M33.5 57.1L28.6 49.6 33.5 42.8V57.1Z" fill="#FFF7BD"/><path d="M62 80.1L50.3 71.7 57.2 66.8 62.1 80.1H62Z" fill="#CC6A00"/><path d="M50.2 82.4C46 82.4 42 81.6 38.3 80.1H62.1C58.4 81.5 54.4 82.4 50.2 82.4Z" fill="#CC6A00"/><path d="M38.9 38.6C40 38.6 41.2 38.6 42.3 38.6 43.7 38.6 45 38.5 46.4 38.4 45 38.3 43.7 38.3 42.3 38.2 41.2 38.2 40.1 38.2 39 38.2 39.6 37.6 40.2 36.9 40.8 36.3 41.6 35.5 42.4 34.6 43.1 33.7 42.2 34.5 41.4 35.2 40.5 36 39.9 36.6 39.2 37.2 38.6 37.9 38.6 36.4 38.6 34.9 38.6 33.4 38.6 31.7 38.5 30.1 38.4 28.4 38.3 30.1 38.3 31.7 38.2 33.4 38.2 34.9 38.2 36.4 38.2 37.9 37.5 37.1 36.8 36.3 36.1 35.6 35.3 34.7 34.5 33.8 33.6 32.9 34.3 33.9 35.1 34.8 35.8 35.8 36.5 36.6 37.1 37.4 37.8 38.2 36.5 38.2 35.3 38.2 34 38.2 32.6 38.2 31.3 38.3 29.9 38.4 31.3 38.5 32.6 38.5 34 38.6 35.3 38.6 36.6 38.6 37.8 38.6 37 39.4 36.3 40.2 35.5 41 34.7 41.8 33.9 42.7 33.2 43.6 34.1 42.8 34.9 42.1 35.8 41.3 36.6 40.6 37.4 39.8 38.1 39 38.1 40.5 38.1 42 38.1 43.4 38.1 45.1 38.2 46.7 38.3 48.4 38.4 46.7 38.4 45.1 38.5 43.4 38.5 41.9 38.5 40.5 38.5 39 39.2 39.8 39.8 40.5 40.5 41.3 41.3 42.2 42.1 43.1 43 44 42.3 43 41.5 42.1 40.8 41.1 40.3 40.2 39.6 39.4 38.9 38.6Z" fill="white"/><path opacity="0.62" d="M33.5 57.1L57.2 33.9 58.8 35.4 35 58.5 33.5 57.1Z" fill="white"/><path opacity="0.62" d="M36.4 59.9L60.6 36.9 65.7 41.6 42.2 65.5 36.4 59.9Z" fill="white"/><path opacity="0.62" d="M49.7 61.7L59.6 52.2V54.3L51.5 62.4 49.7 61.7Z" fill="white"/></svg>