<svg width="100" height="100" viewBox="0 0 100 100" fill="none" xmlns="http://www.w3.org/2000/svg"><path d="M15.4 74.15C15.07 74.73 15.05 75.44 15.35 76.03L16.8 78.96C17.14 79.65 17.84 80.08 18.6 80.07L80.2 79.76C80.93 79.76 81.6 79.35 81.95 78.71L83.36 76.09C83.69 75.48 83.68 74.75 83.33 74.15L52.56 20.85C52.2 20.23 51.54 19.85 50.83 19.85H47.61C46.89 19.85 46.23 20.24 45.87 20.86L15.4 74.15Z" fill="white"/><path d="M51.26 23.1L51.52 23.04 50.94 22 51.26 23.1Z" fill="#DEE6E8"/><path d="M51.91 25.5L51.98 25.7 52.49 24.73 52.37 24.53H51.65L51.91 25.5Z" fill="white"/><path d="M51.98 25.7L52.24 26.54 52.75 28.42 52.56 24.92 52.49 24.73 51.98 25.7Z" fill="#E1EBF0"/><path d="M52.75 28.42L53.21 29.98 54.9 35.76 55.61 38.22 55.8 38.94 59.05 36.15 52.56 24.92 52.75 28.42Z" fill="#7A8694"/><path d="M55.8 38.94L55.87 39 56.65 41.86 62.23 43.28 62.16 41.47 59.05 36.15 55.8 38.94Z" fill="#EFF7F9"/><path d="M62.23 43.28L63.14 43.15 62.16 41.47 62.23 43.28Z" fill="white"/><path d="M57.62 45.1L62.23 43.28 56.65 41.86 57.62 45.1Z" fill="white"/><path d="M62.23 43.28L63.66 51.27 65.21 46.72 63.14 43.15 62.23 43.28Z" fill="#98A4B1"/><path d="M63.66 51.27L68.59 52.63 65.21 46.72 63.66 51.27Z" fill="#E1EBF0"/><path d="M57.62 45.1L58.33 47.7 62.23 43.28 57.62 45.1Z" fill="#75746B"/><path d="M58.33 47.7L58.46 48.15 59.44 51.52 63.66 51.27 62.23 43.28 58.33 47.7Z" fill="#B6C1CE"/><path d="M63.66 51.27L71.25 58.08 70.73 56.26 68.59 52.63 63.66 51.27Z" fill="#E5EDF0"/><path d="M71.25 58.08L71.83 58.21 70.73 56.26 71.25 58.08Z" fill="#EFF7F9"/><path d="M59.44 51.52L59.7 52.37 61.19 53.93 61.58 54.32 62.03 54.83 63.92 56.78 63.66 51.27 59.44 51.52Z" fill="#75746B"/><path d="M63.92 56.78L67.22 60.22 68 61 71.25 58.08 63.66 51.27 63.92 56.78Z" fill="#F0F7FB"/><path d="M75.47 68.79L76.24 69.63 76.57 66.45 71.83 58.21 71.25 58.08 75.47 68.79Z" fill="white"/><path d="M76.24 69.63L77.22 70.6 79.03 70.73 76.57 66.45 76.24 69.63Z" fill="#B6C1CE"/><path d="M68 61L69.3 62.36 71.25 58.08 68 61Z" fill="#304350"/><path d="M69.3 62.36L71.18 64.37 74.69 67.94 75.47 68.79 71.25 58.08 69.3 62.36Z" fill="#EFF7F9"/><path d="M77.22 70.6L77.74 71.12 81.63 75.21 79.03 70.73 77.22 70.6Z" fill="#E1EBF0"/><path d="M47.76 22.58L48.34 22H47.69L47.76 22.58Z" fill="#EFF7F9"/><path d="M47.82 23.43L50.87 22.58 50.94 22H48.34L47.76 22.58 47.82 23.43Z" fill="#CBD5DC"/><path d="M48.93 25.5L47.95 24.79 48.02 25.7 48.93 25.5Z" fill="#474A52"/><path d="M47.95 24.79L48.93 25.5 50.74 24.21 50.87 22.58 47.82 23.43 47.95 24.79Z" fill="#E1E6E5"/><path d="M48.93 25.5L50.61 25.96V25.5L50.68 25.11V25.05L50.74 24.21 48.93 25.5Z" fill="#444950"/><path d="M48.86 36.54L49.38 36.67 48.86 36.08V36.54Z" fill="#E1EBF0"/><path d="M48.54 32.06L48.86 36.08 49.38 36.67 48.93 25.5 48.02 25.7 48.54 32.06Z" fill="#7A8694"/><path d="M48.93 37.05L49.38 36.67 48.86 36.54 48.93 37.05Z" fill="#C2CBD4"/><path d="M49.38 36.67L49.77 36.28 49.7 36.86 49.38 36.67 48.93 37.05 48.86 36.54V36.08L48.54 32.06 46.4 42.05 49.12 39.2 49.19 39.84 49.44 39.72V39.65L49.57 38.16 51.85 38.74 51.46 29.07 50.22 30.18 50.42 28.03 50.48 27.19 48.93 25.5 49.38 36.67Z" fill="#EFF7F9"/><path d="M50.48 27.19L50.61 25.96 48.93 25.5 50.48 27.19Z" fill="white"/><path d="M49.77 36.28L49.38 36.67 49.7 36.86 49.77 36.28Z" fill="white"/><path d="M49.32 41.53L49.44 39.72 49.19 39.84 49.32 41.53Z" fill="#7A8694"/><path d="M50.87 22.58L50.74 24.21 50.68 25.05 51.91 25.5 51.65 24.53H52.37L51.52 23.04 51.26 23.1 50.94 22 50.87 22.58Z" fill="#EFF7F9"/><path d="M52.24 26.54L51.98 25.7 51.91 25.5 50.68 25.05V25.11L52.24 26.54Z" fill="#CBD5DC"/><path d="M50.42 28.03L51.46 29.07 50.61 25.5V25.96L50.48 27.19 50.42 28.03Z" fill="#474A52"/><path d="M50.68 25.11L50.61 25.5 51.46 29.07 53.21 29.98 52.75 28.42 52.24 26.54 50.68 25.11Z" fill="#E1E6E5"/><path d="M51.46 29.07L54.9 35.76 53.21 29.98 51.46 29.07Z" fill="#444950"/><path d="M50.42 28.03L50.22 30.18 51.46 29.07 50.42 28.03Z" fill="#7A8694"/><path d="M51.46 29.07L51.85 38.74 55.61 38.22 54.9 35.76 51.46 29.07Z" fill="white"/><path d="M49.57 38.16L49.44 39.65 51.85 38.74 49.57 38.16Z" fill="white"/><path d="M51.85 38.74L53.08 45.49 53.53 45.94 55.87 39 55.8 38.94 55.61 38.22 51.85 38.74Z" fill="#98A4B1"/><path d="M53.53 45.94L54.57 47.05 58.46 48.15 58.33 47.7 57.62 45.1 56.65 41.86 55.87 39 53.53 45.94Z" fill="#E1EBF0"/><path d="M49.44 39.65V39.72L49.32 41.53V41.6L51.85 38.74 49.44 39.65Z" fill="#75746B"/><path d="M49.32 41.6L50.81 43.15 53.08 45.49 51.85 38.74 49.32 41.6Z" fill="#B6C1CE"/><path d="M55.67 48.22L57.36 49.9 59.7 52.37 59.44 51.52 58.46 48.15 54.57 47.05 55.67 48.22Z" fill="#E5EDF0"/><path d="M47.56 43.35L46.91 44.06 42.83 48.28 49.19 51.91 47.56 43.35Z" fill="#F3F6F1"/><path d="M47.56 43.35L49.19 51.91 50.81 43.15 49.32 41.6V41.53L47.56 43.35Z" fill="#E7F0F4"/><path d="M40.1 51.14L38.93 52.37 38.41 54.19 41.07 54.96 40.1 51.14Z" fill="#444950"/><path d="M49.19 51.91L42.83 48.28 41.85 49.32 40.1 51.14 41.07 54.96 49.19 51.91Z" fill="#EFF7F9"/><path d="M50.81 43.15L49.19 51.91 55.67 48.22 54.57 47.05 53.53 45.94 53.08 45.49 50.81 43.15Z" fill="#A3B1BC"/><path d="M49.19 51.91L41.07 54.96 51.39 60.8 49.19 51.91Z" fill="#808890"/><path d="M57.36 49.9L55.67 48.22 49.19 51.91 51.39 60.8 57.36 49.9Z" fill="#475875"/><path d="M57.36 49.9L51.39 60.8 61.32 58.01 60.87 56.46 60.22 54.06 61.19 53.93 59.7 52.37 57.36 49.9Z" fill="white"/><path d="M37.05 58.86L36.86 59.51 36.4 61 36.21 61.65 35.1 65.41 38.87 60.93 37.05 58.86Z" fill="#EFF7F9"/><path d="M41.07 54.96L38.41 54.19 37.05 58.86 38.87 60.93 41.07 54.96Z" fill="white"/><path d="M38.87 60.93L35.1 65.41 34.72 66.77 37.64 67.55 38.87 60.93Z" fill="white"/><path d="M41.07 54.96L38.87 60.93 46.2 66.77 41.07 54.96Z" fill="#98A4B1"/><path d="M51.39 60.8L41.07 54.96 46.2 66.77 51.39 60.8Z" fill="#E1EBF0"/><path d="M38.87 60.93L37.64 67.55 39.78 68.07 38.87 60.93Z" fill="#75746B"/><path d="M46.2 66.77L38.87 60.93 39.78 68.07 45.1 69.37 46.2 66.77Z" fill="#B6C1CE"/><path d="M56.52 63.85L51.39 60.8 46.2 66.77 56.52 63.85Z" fill="#E5EDF0"/><path d="M61.32 58.01L51.39 60.8 56.52 63.85 61.38 58.21 61.32 58.01Z" fill="#EFF7F9"/><path d="M47.63 69.95L49.32 70.41 49.51 70.34 46.2 66.77 45.1 69.37 45.49 69.43 47.63 69.95Z" fill="#75746B"/><path d="M56.52 63.85L46.2 66.77 49.51 70.34 51.07 69.95 56.71 68.59 56.52 63.85Z" fill="#F0F7FB"/><path d="M62.94 63.46L61.38 58.21 56.52 63.85 63.4 66.9 63.85 66.77 62.94 63.46Z" fill="white"/><path d="M56.52 63.85L56.71 68.59 58.01 68.27 56.52 63.85Z" fill="#304350"/><path d="M56.52 63.85L58.01 68.27 63.4 66.9 56.52 63.85Z" fill="#EFF7F9"/><path d="M64.95 64.05L67.22 60.22 63.92 56.78 62.03 54.83 64.95 64.05Z" fill="#808890"/><path d="M64.95 64.05L71.18 64.37 69.3 62.36 68 61 67.22 60.22 64.95 64.05Z" fill="#475875"/><path d="M74.69 67.94L71.18 64.37 64.95 64.05 72.48 70.86 74.69 67.94Z" fill="#182631"/><path d="M74.69 67.94L72.48 70.86 77.74 71.12 77.22 70.6 76.24 69.63 75.47 68.79 74.69 67.94Z" fill="#A3B1BC"/><path d="M77.74 71.12L72.48 70.86 81.63 75.21 77.74 71.12Z" fill="white"/><path d="M60.22 54.06L60.87 56.46 61.58 54.32 61.19 53.93 60.22 54.06Z" fill="#98A4B1"/><path d="M60.87 56.46L61.32 58.01 61.38 58.21 62.94 63.46 64.95 64.05 62.03 54.83 61.58 54.32 60.87 56.46Z" fill="#E1EBF0"/><path d="M64.95 64.05L62.94 63.46 63.85 66.77 66.06 67.81 64.95 64.05Z" fill="#E5EDF0"/><path d="M64.95 64.05L66.06 67.81 72.48 70.86 64.95 64.05Z" fill="#EFF7F9"/><path d="M18.82 73.26L18.1 73.33 17 75.21 18.82 73.26Z" fill="white"/><path d="M19.53 72.55L20.24 71.77 22.71 69.24 24.14 67.75 19.53 70.73 18.1 73.33 18.82 73.26 19.53 72.55Z" fill="#E1EBF0"/><path d="M24.14 67.75L26.86 64.89 27.77 63.98 24.2 62.75 19.53 70.73 24.14 67.75Z" fill="#7A8694"/><path d="M27.77 63.98L28.68 63.01 28.81 62.95 27.25 57.37 24.2 62.75 27.77 63.98Z" fill="#EFF7F9"/><path d="M28.81 62.95L29.26 62.43 31.86 59.7 27.77 56.52 27.25 57.37 28.81 62.95Z" fill="white"/><path d="M32.96 50.49L31.02 50.88 29.59 53.34 32.96 50.49Z" fill="#98A4B1"/><path d="M32.96 50.49L32.44 48.48 31.02 50.88 32.96 50.49Z" fill="#E1EBF0"/><path d="M31.86 59.7L34.26 57.24 28.1 56 27.77 56.52 31.86 59.7Z" fill="#75746B"/><path d="M34.26 57.24L35.82 55.61 36.14 55.29 32.96 50.49 29.59 53.34 28.1 56 34.26 57.24Z" fill="#B6C1CE"/><path d="M32.96 50.49L34 45.81 32.44 48.48 32.96 50.49Z" fill="#E5EDF0"/><path d="M38.93 52.37L39.52 50.36 39.65 49.77 39.84 49.12 40.94 45.36 32.96 50.49 36.14 55.29 38.93 52.37Z" fill="#75746B"/><path d="M32.96 50.49L40.94 45.36 41.72 42.7 36.73 41.08 34 45.81 32.96 50.49Z" fill="#F0F7FB"/><path d="M43.41 30.05L42.96 30.24 42.05 31.73 43.41 30.05Z" fill="white"/><path d="M43.41 30.05L43.28 29.72 42.96 30.24 43.41 30.05Z" fill="#B6C1CE"/><path d="M41.72 42.7L41.92 41.92 42.57 39.78 37.12 40.3 36.73 41.08 41.72 42.7Z" fill="#304350"/><path d="M42.57 39.78L43.54 36.47 44.32 33.75 43.41 30.05 42.05 31.73 37.12 40.3 42.57 39.78Z" fill="#EFF7F9"/><path d="M43.67 29.01L43.28 29.72 43.41 30.05 43.67 29.01Z" fill="#E1EBF0"/><path d="M44.9 31.67L46.14 27.45 46.2 27.06 43.41 30.05 44.32 33.75 44.9 31.67Z" fill="#C6CED0"/><path d="M43.41 30.05L46.2 27.06 46.85 25.05 46.52 24.01 43.67 29.01 43.41 30.05Z" fill="#D1DADF"/><path d="M46.85 25.05L47.69 22 46.52 24.01 46.85 25.05Z" fill="#B6C1CE"/><path d="M18.62 78L19.08 77.68 18.3 77.42 18.62 78Z" fill="#EFF7F9"/><path d="M17.52 74.95L17 75.21 18.3 77.42 19.08 77.68 19.79 77.16 17.52 74.95Z" fill="#CBD5DC"/><path d="M21.02 75.14L20.89 76.38 21.67 75.86 21.02 75.14Z" fill="#474A52"/><path d="M21.02 75.14L18.95 74.24 17.52 74.95 19.79 77.16 20.89 76.38 21.02 75.14Z" fill="#E1E6E5"/><path d="M20.57 73.46L20.18 73.72 19.79 73.85 19.73 73.91 18.95 74.24 21.02 75.14 20.57 73.46Z" fill="#444950"/><path d="M30.43 69.18L30.24 69.95 30.56 69.69 30.43 69.18Z" fill="#E1EBF0"/><path d="M30.43 69.18L21.02 75.14 21.67 75.86 30.24 69.95 30.43 69.18Z" fill="#7A8694"/><path d="M30.43 69.18L30.56 69.69 31.02 69.37 30.43 69.18Z" fill="#C2CBD4"/><path d="M20.57 73.46L21.02 75.14 21.74 72.94 20.57 73.46Z" fill="white"/><path d="M33.09 67.62H33.03L31.67 68.27 31.02 66 22.84 71.19 24.4 71.71 22.45 72.61 21.74 72.94 21.02 75.14 30.43 69.18 29.91 69.11 30.43 68.85V69.18L31.02 69.37 33.29 67.81 33.09 67.62Z" fill="#EFF7F9"/><path d="M29.91 69.11L30.43 69.18V68.85L29.91 69.11Z" fill="white"/><path d="M33.09 67.62L33.29 67.81 34.71 66.84 33.09 67.62Z" fill="#7A8694"/><path d="M17.52 74.95L18.95 74.24 19.73 73.91 19.53 72.55 18.82 73.26 17 75.21 17.52 74.95Z" fill="#EFF7F9"/><path d="M20.24 71.77L19.53 72.55 19.73 73.91 19.79 73.85 20.24 71.77Z" fill="#CBD5DC"/><path d="M20.18 73.72L20.57 73.46 21.74 72.94 22.45 72.61 22.84 71.19 20.18 73.72Z" fill="#474A52"/><path d="M22.71 69.24L20.24 71.77 19.79 73.85 20.18 73.72 22.84 71.19 22.71 69.24Z" fill="#E1E6E5"/><path d="M26.86 64.89L24.14 67.75 22.71 69.24 22.84 71.19 26.86 64.89Z" fill="#444950"/><path d="M22.45 72.61L24.4 71.71 22.84 71.19 22.45 72.61Z" fill="#7A8694"/><path d="M28.68 63.01L27.77 63.98 26.86 64.89 22.84 71.19 31.02 66 28.68 63.01Z" fill="white"/><path d="M31.67 68.27L33.03 67.62 31.02 66 31.67 68.27Z" fill="white"/><path d="M36.21 61.65L36.4 61 29.26 62.43 28.81 62.95 28.68 63.01 31.02 66 36.21 61.65Z" fill="#98A4B1"/><path d="M36.4 61L36.86 59.51 35.82 55.61 34.26 57.24 31.86 59.7 29.26 62.43 36.4 61Z" fill="#E1EBF0"/><path d="M31.02 66L33.03 67.62H33.09L34.72 66.84V66.77L31.02 66Z" fill="#75746B"/><path d="M36.21 61.65L31.02 66 34.72 66.77 35.1 65.41 36.21 61.65Z" fill="#B6C1CE"/><path d="M36.86 59.51L37.05 58.86 38.41 54.19 38.93 52.37 36.14 55.29 35.82 55.61 36.86 59.51Z" fill="#E5EDF0"/><path d="M39.84 49.12L46.4 42.05 41.92 41.92 41.72 42.7 40.94 45.36 39.84 49.12Z" fill="#808890"/><path d="M46.4 42.05L43.54 36.47 42.57 39.78 41.92 41.92 46.4 42.05Z" fill="#475875"/><path d="M46.4 42.05L48.54 32.06 44.9 31.67 44.32 33.75 43.54 36.47 46.4 42.05Z" fill="#182631"/><path d="M44.9 31.67L48.54 32.06 46.14 27.45 44.9 31.67Z" fill="#A3B1BC"/><path d="M46.85 25.05L46.2 27.06 46.14 27.45 48.54 32.06 48.02 25.7 47.95 24.79 47.82 23.43 47.76 22.58 47.69 22 46.85 25.05Z" fill="white"/><path d="M40.1 51.14L39.52 50.36 38.93 52.37 40.1 51.14Z" fill="white"/><path d="M40.1 51.14L41.85 49.32 39.65 49.77 39.52 50.36 40.1 51.14Z" fill="#98A4B1"/><path d="M41.85 49.32L42.83 48.28 46.91 44.06 46.4 42.05 39.84 49.12 39.65 49.77 41.85 49.32Z" fill="#E1EBF0"/><path d="M46.91 44.06L47.56 43.35 49.32 41.53 49.19 39.84 49.12 39.2 46.4 42.05 46.91 44.06Z" fill="#E5EDF0"/><path d="M78.45 77.61L77.48 78H80.01L78.45 77.61Z" fill="#474A52"/><path d="M78.45 77.61L77.35 77.35 76.31 78H77.48L78.45 77.61Z" fill="#DEE6E8"/><path d="M77.35 77.35L76.44 77.09 75.4 76.83 74.69 76.64 74.75 78H76.31L77.35 77.35Z" fill="#C6CED0"/><path d="M74.69 76.64L71.96 75.99 69.11 75.27 65.28 78H74.75L74.69 76.64Z" fill="#C2CBD4"/><path d="M69.11 75.27L66.32 74.63 59.37 77.22 62.49 78H65.28L69.11 75.27Z" fill="#EFF7F9"/><path d="M59.37 77.22L59.24 78H62.49L59.37 77.22Z" fill="white"/><path d="M54.64 74.11L55.93 78H59.24L59.37 77.22 54.64 74.11Z" fill="#75746B"/><path d="M54.64 74.11L52.75 78H55.93L54.64 74.11Z" fill="#B6C1CE"/><path d="M54.64 74.11L39 76.18 42.5 78H52.75L54.64 74.11Z" fill="#75746B"/><path d="M39 76.18L39.39 78H42.5L39 76.18Z" fill="#F0F7FB"/><path d="M39 76.18L34.78 76.77 35.62 78H39.39L39 76.18Z" fill="#304350"/><path d="M34.78 76.77L33.42 78H35.62L34.78 76.77Z" fill="#EFF7F9"/><path d="M34.78 76.77L31.99 78H33.42L34.78 76.77Z" fill="#C6CED0"/><path d="M63.59 73.91L62.81 73.72 61.9 73.52 59.37 77.22 66.32 74.63 66.12 74.56 63.59 73.91Z" fill="#7A8694"/><path d="M61.9 73.52L55.54 71.97 59.37 77.22 61.9 73.52Z" fill="white"/><path d="M55.54 71.97L53.92 71.58 54.64 74.11 59.37 77.22 55.54 71.97Z" fill="#E3D6C0"/><path d="M53.92 71.58L53.6 71.45 49.7 70.47 43.73 73.65 54.64 74.11 53.92 71.58Z" fill="#444950"/><path d="M43.73 73.65L39 76.18 54.64 74.11 43.73 73.65Z" fill="white"/><path d="M45.62 71.32L43.73 73.65 49.7 70.47 49.32 70.41 47.24 70.93 46.65 71.06 46.01 71.19 45.62 71.32Z" fill="#C6CED0"/><path d="M43.73 73.65L39.78 72.74 38.74 73 36.08 73.65 39 76.18 43.73 73.65Z" fill="#E7F0F4"/><path d="M36.08 73.65L34.07 74.17 34.78 76.77 39 76.18 36.08 73.65Z" fill="#D1DADF"/><path d="M45.62 71.32L42.37 72.1 43.73 73.65 45.62 71.32Z" fill="#EFF7F9"/><path d="M42.37 72.1L39.78 72.74 43.73 73.65 42.37 72.1Z" fill="#525A66"/><path d="M34.07 74.17L33.22 74.37 28.36 75.6 25.24 76.31 34.78 76.77 34.07 74.17Z" fill="#F0F7FB"/><path d="M34.78 76.77L25.24 76.31 24.07 76.64 23.75 76.7 23.42 78H31.99L34.78 76.77Z" fill="#9DABB9"/><path d="M23.75 76.7L19.34 77.81 19.47 78H23.42L23.75 76.7Z" fill="#525A66"/><path d="M18.62 78H19.47L19.34 77.81 18.62 78Z" fill="#EFF7F9"/><path d="M81.31 75.73L81.63 75.21 81.11 74.95 81.31 75.73Z" fill="#EFF7F9"/><path d="M81.11 74.95L80.33 74.56 79.49 77.68 80.01 78 81.31 75.73 81.11 74.95Z" fill="#CBD5DC"/><path d="M77.93 74.5L79.1 73.98 78.26 73.59 77.93 74.5Z" fill="#474A52"/><path d="M78.19 76.77L79.49 77.68 80.33 74.56 79.1 73.98 77.93 74.5 78.19 76.77Z" fill="#E1E6E5"/><path d="M77.93 74.5L76.7 75.73 77.15 75.99 77.48 76.18 77.54 76.25 78.19 76.77 77.93 74.5Z" fill="#444950"/><path d="M68.07 69.3L68.85 69.18 68.46 68.98 68.07 69.3Z" fill="#E1EBF0"/><path d="M68.07 69.3L77.93 74.5 78.26 73.59 68.85 69.18 68.07 69.3Z" fill="#7A8694"/><path d="M68.07 69.3L68.46 68.98 68 68.72 68.07 69.3Z" fill="#C2CBD4"/><path d="M77.93 74.5L75.73 75.02 76.7 75.73 77.93 74.5Z" fill="white"/><path d="M65.41 67.88L66.71 68.79 65.08 70.41 73.58 74.95 73.26 73.33 75.01 74.56 75.73 75.02 77.93 74.5 68.07 69.3 68.26 69.82 67.74 69.5 68.07 69.3 68 68.72 65.47 67.55 65.41 67.88Z" fill="#EFF7F9"/><path d="M67.74 69.5L68.26 69.82 68.07 69.3 67.74 69.5Z" fill="white"/><path d="M65.41 67.88L65.47 67.55 63.85 66.77 65.41 67.88Z" fill="#7A8694"/><path d="M78.19 76.77L77.54 76.25 76.44 77.09 77.35 77.35 78.45 77.61 80.01 78 79.49 77.68 78.19 76.77Z" fill="#EFF7F9"/><path d="M77.48 76.18L75.4 76.83 76.44 77.09 77.54 76.25 77.48 76.18Z" fill="#CBD5DC"/><path d="M77.15 75.99L76.7 75.73 75.73 75.02 75.01 74.56 73.58 74.95 77.15 75.99Z" fill="#474A52"/><path d="M77.48 76.18L77.15 75.99 73.58 74.95 71.96 75.99 74.69 76.64 75.4 76.83 77.48 76.18Z" fill="#E1E6E5"/><path d="M73.58 74.95L66.12 74.56 66.32 74.63 69.11 75.27 71.96 75.99 73.58 74.95Z" fill="#444950"/><path d="M75.01 74.56L73.26 73.33 73.58 74.95 75.01 74.56Z" fill="#7A8694"/><path d="M66.12 74.56L73.58 74.95 65.08 70.41 63.59 73.91 66.12 74.56Z" fill="white"/><path d="M66.71 68.79L65.41 67.88 65.08 70.41 66.71 68.79Z" fill="white"/><path d="M62.81 73.72L63.59 73.91 65.08 70.41 58.66 68.07 58.01 68.27 62.81 73.72Z" fill="#98A4B1"/><path d="M53.6 71.45L53.92 71.58 55.54 71.97 61.9 73.52 62.81 73.72 58.01 68.27 56.52 68.59 53.6 71.45Z" fill="#E1EBF0"/><path d="M65.08 70.41L65.41 67.88 63.85 66.77V66.84L65.08 70.41Z" fill="#75746B"/><path d="M65.08 70.41L63.85 66.84 58.66 68.07 65.08 70.41Z" fill="#B6C1CE"/><path d="M49.51 70.34L49.32 70.41 49.7 70.47 53.6 71.45 56.52 68.59 51.07 69.95 49.51 70.34Z" fill="#E5EDF0"/><path d="M38.74 73L39.78 72.74 42.37 72.1 45.62 71.32 46.01 71.19 36.6 69.11 38.74 73Z" fill="#808890"/><path d="M34.07 74.17L36.08 73.65 38.74 73 36.6 69.11 33.22 74.37 34.07 74.17Z" fill="#475875"/><path d="M28.36 75.6L33.22 74.37 36.6 69.11 26.93 72.22 28.36 75.6Z" fill="white"/><path d="M24.07 76.64L25.24 76.31 28.36 75.6 26.93 72.22 24.07 76.64Z" fill="#A3B1BC"/><path d="M23.75 76.7L24.07 76.64 26.93 72.22 18.62 78 19.34 77.81 23.75 76.7Z" fill="white"/><path d="M49.32 70.41L47.63 69.95 47.24 70.93 49.32 70.41Z" fill="white"/><path d="M46.65 71.06L47.24 70.93 47.63 69.95 45.49 69.43 45.23 69.37 46.65 71.06Z" fill="#98A4B1"/><path d="M36.6 69.11L46.01 71.19 46.65 71.06 45.23 69.37 38.09 67.62 36.6 69.11Z" fill="#E1EBF0"/><path d="M36.6 69.11L38.09 67.62 34.71 66.84 32.77 68.2 36.6 69.11Z" fill="#E5EDF0"/><path d="M36.6 69.11L32.77 68.2 26.93 72.22 36.6 69.11Z" fill="#EFF7F9"/></svg>