<svg width="100" height="100" viewBox="0 0 100 100" fill="none" xmlns="http://www.w3.org/2000/svg"><defs><linearGradient id="paint0_linear" x1="35.49" y1="44.38" x2="67.56" y2="55.89" gradientUnits="userSpaceOnUse"><stop offset="0.02" stop-color="#11D23C"/><stop offset="0.06" stop-color="#23D64A"/><stop offset="0.2" stop-color="#58E075"/><stop offset="0.34" stop-color="#86EA99"/><stop offset="0.47" stop-color="#ABF1B7"/><stop offset="0.61" stop-color="#C8F7CE"/><stop offset="0.74" stop-color="#DCFCDF"/><stop offset="0.87" stop-color="#E9FEE9"/><stop offset="1" stop-color="#EDFFEC"/></linearGradient></defs><path fill-rule="evenodd" clip-rule="evenodd" d="M59.92 14L59.9 13.98C57.45 11.66 55.26 9.8 53.66 8.51 52.86 7.86 52.21 7.36 51.74 7.01 51.51 6.84 51.32 6.7 51.17 6.6 51.1 6.55 51.03 6.5 50.96 6.46 50.93 6.44 50.87 6.4 50.81 6.37 50.78 6.35 50.71 6.32 50.62 6.28 50.58 6.26 50.51 6.23 50.41 6.2 50.34 6.18 50.12 6.12 49.83 6.12 49.41 6.12 49 6.25 48.66 6.49L48.66 6.5 48.65 6.5 48.61 6.53C48.57 6.56 48.52 6.59 48.46 6.64 48.34 6.73 48.16 6.87 47.93 7.04 47.47 7.4 46.81 7.91 46 8.57 44.42 9.88 42.27 11.75 39.93 14.08 39.88 14.12 39.83 14.16 39.79 14.21 36.18 17.74 32.21 22.33 28.85 27.72 28.75 27.88 28.68 28.04 28.63 28.21 24.78 34.43 21.91 41.86 22 49.81 22.09 57.84 25.19 65.24 29.26 71.48 29.31 71.58 29.35 71.67 29.41 71.76 32.86 77.06 36.98 81.79 40.61 85.24 43.09 87.63 45.35 89.49 47 90.76 47.82 91.39 48.49 91.88 48.97 92.21 49.2 92.38 49.39 92.5 49.51 92.59 49.58 92.63 49.63 92.67 49.66 92.69L49.71 92.72 49.72 92.73 49.72 92.73 49.72 92.73 49.72 92.73C50.44 93.2 51.36 93.16 52.04 92.64 52.14 92.56 52.23 92.48 52.31 92.39 53.36 91.6 56.52 89.16 60.27 85.48 60.4 85.36 60.5 85.22 60.59 85.08 63.99 81.65 67.97 77.27 71.24 72.04 75.41 65.56 78.61 57.77 78.52 49.34 78.43 41.01 75.01 33.32 70.85 27 70.81 26.91 70.76 26.81 70.7 26.72 67.32 21.66 63.34 17.33 59.92 14ZM48.66 6.49C48.66 6.49 49.44 7.58 48.66 6.49Z" fill="white"/><path d="M76.52 49.24C76.61 57.16 73.6 64.57 69.55 70.85L66.02 59.66 76.52 49.24Z" fill="#313F32"/><path d="M76.52 49.24L65.85 39 68.99 27.71C73.13 33.9 76.44 41.32 76.52 49.24Z" fill="#2D6935"/><path d="M65.85 39L76.52 49.24 66.02 59.66 62.83 49.33 65.85 39Z" fill="#11D23C"/><path d="M66.02 59.66L69.55 70.85 54.14 79.29 57.32 68.44 66.02 59.66Z" fill="#2D6935"/><path d="M54.14 79.29L69.55 70.85C66.28 76.1 62.23 80.5 58.79 83.94 58.87 83.94 54.14 79.29 54.14 79.29Z" fill="#1FB436"/><path d="M69.03 27.72L65.85 39 56.81 30.39 53.62 20.14 69.03 27.72Z" fill="#8CC63F"/><path d="M69.03 27.72L53.62 20.14 58.53 15.32C61.89 18.59 65.76 22.81 69.03 27.72Z" fill="#313F32"/><path d="M62.83 49.33L66.02 59.66 57.32 68.44 62.83 49.33Z" fill="#27963D"/><path d="M65.85 39L62.83 49.33 56.81 30.39 65.85 39Z" fill="#2D6935"/><path d="M56.81 30.39L62.83 49.33 57.32 68.44 50.26 75.5 43.72 69.04 37.43 49.59 43.03 30.73 50 23.84 56.81 30.39Z" fill="url(#paint0_linear)"/><path d="M58.87 83.94C54.4 88.33 50.78 90.91 50.78 90.91L54.14 79.29 58.87 83.94Z" fill="#313F32"/><path d="M58.53 15.32L53.62 20.14 49.83 8C49.92 8 53.71 10.76 58.53 15.32Z" fill="#27963D"/><path d="M57.32 68.44L54.14 79.29 50.26 75.5 57.32 68.44Z" fill="#97FD97"/><path d="M53.62 20.14L56.81 30.39 50 23.84 53.62 20.14Z" fill="#7AF7B2"/><path d="M50.26 75.5L54.14 79.29 50.78 90.91 46.82 78.86 50.26 75.5Z" fill="#4ED563"/><path d="M53.62 20.14L50 23.84 46.13 20.14 49.83 8 53.62 20.14Z" fill="#11D23C"/><path d="M46.82 78.86L50.82 90.94C50.82 90.94 46.82 88.33 42 83.68L46.82 78.86Z" fill="#1FB436"/><path d="M43.72 69.04L50.26 75.5 46.82 78.86 43.72 69.04Z" fill="#7AF7B2"/><path d="M46.13 20.14L50 23.84 43.03 30.73 46.13 20.14Z" fill="#B7FFB3"/><path d="M49.83 8L46.17 20.18 41.23 15.49C45.88 10.84 49.83 8 49.83 8Z" fill="#1FB436"/><path d="M46.82 78.86L42 83.68C38.47 80.32 34.45 75.72 31.09 70.55L46.82 78.86Z" fill="#27963D"/><path d="M43.72 69.04L46.82 78.86 31.15 70.59 34.33 59.83 43.72 69.04Z" fill="#11D23C"/><path d="M46.13 20.14L30.55 28.66C33.82 23.41 37.69 18.93 41.22 15.49 41.22 15.4 46.13 20.14 46.13 20.14Z" fill="#2D6935"/><path d="M46.13 20.14L43.03 30.73 34.16 39.6 30.63 28.66 46.13 20.14Z" fill="#7AF7B2"/><path d="M43.72 69.04L34.33 59.83 37.43 49.59 43.72 69.04Z" fill="#EDFFEC"/><path d="M43.03 30.73L37.43 49.59 34.16 39.6 43.03 30.73Z" fill="#EDFFEC"/><path d="M34.16 39.6L37.43 49.59 34.33 59.83 24 49.67 34.16 39.6Z" fill="#4ED563"/><path d="M24 49.67L34.33 59.83 31.15 70.59C27.1 64.48 24.09 57.34 24 49.67Z" fill="#27963D"/><path d="M30.63 28.66L34.16 39.6 24 49.67C23.92 42.01 26.76 34.78 30.63 28.66Z" fill="#27963D"/><path d="M45.7 28.84C47.16 28.84 48.71 28.84 50.18 28.75 51.98 28.75 53.79 28.66 55.51 28.58 53.71 28.49 51.9 28.41 50.18 28.41 48.71 28.41 47.25 28.41 45.79 28.32 46.56 27.63 47.42 26.94 48.2 26.25 49.23 25.31 50.26 24.36 51.3 23.41 50.18 24.27 49.06 25.13 47.94 25.99 47.08 26.68 46.22 27.37 45.44 28.06 45.44 26.43 45.44 24.79 45.35 23.15 45.35 21.35 45.27 19.54 45.18 17.73 45.1 19.54 45.01 21.35 45.01 23.15 45.01 24.79 44.92 26.43 44.92 28.06 44.06 27.2 43.12 26.34 42.17 25.48 41.14 24.53 40.02 23.5 38.9 22.55 39.84 23.58 40.88 24.62 41.82 25.65 42.69 26.51 43.63 27.46 44.49 28.32 42.77 28.32 41.14 28.32 39.41 28.41 37.61 28.41 35.8 28.49 34.08 28.58 35.88 28.66 37.69 28.75 39.41 28.75 41.14 28.75 42.77 28.84 44.49 28.84 43.46 29.7 42.43 30.56 41.48 31.42 40.45 32.37 39.41 33.31 38.38 34.26 39.5 33.4 40.62 32.54 41.74 31.68 42.77 30.82 43.8 30.04 44.84 29.18 44.84 30.82 44.84 32.45 44.92 34.09 44.92 35.9 45.01 37.7 45.18 39.51 45.27 37.7 45.35 35.9 45.44 34.09 45.44 32.45 45.53 30.9 45.53 29.27 46.39 30.13 47.25 30.9 48.2 31.76 49.23 32.71 50.35 33.74 51.47 34.69 50.52 33.66 49.49 32.62 48.54 31.59 47.42 30.64 46.56 29.7 45.7 28.84Z" fill="white"/><path opacity="0.6" d="M38.55 53.2L56.81 30.39 59.13 37.62 40.88 60.35 38.55 53.2Z" fill="white"/><path opacity="0.6" d="M42.69 65.94L42.08 63.19 60.25 41.32 61.28 44.51 42.69 65.94Z" fill="white"/><path opacity="0.6" d="M46.39 64.91L52.24 57.68V59.83L47.59 65.6 46.39 64.91Z" fill="white"/></svg>