<svg width="100" height="100" viewBox="0 0 100 100" fill="none" xmlns="http://www.w3.org/2000/svg"><defs><linearGradient id="paint0_linear" x1="63" y1="88.37" x2="50.86" y2="74.88" gradientUnits="userSpaceOnUse"><stop offset="0.23" stop-color="#FF8F00"/><stop offset="0.54" stop-color="#CC0031"/></linearGradient><linearGradient id="paint1_linear" x1="53.44" y1="21.75" x2="65.8" y2="8.05" gradientUnits="userSpaceOnUse"><stop offset="0.23" stop-color="#FF1F0D"/><stop offset="0.57" stop-color="#CC0031"/></linearGradient><linearGradient id="paint2_linear" x1="41.65" y1="18.77" x2="56.45" y2="18.77" gradientUnits="userSpaceOnUse"><stop stop-color="#FFD110"/><stop offset="0.67" stop-color="#FEEA8D"/></linearGradient><linearGradient id="paint3_linear" x1="39.99" y1="83.3" x2="20.62" y2="81.68" gradientUnits="userSpaceOnUse"><stop stop-color="#CC0031"/><stop offset="0.5" stop-color="#FF8F00"/></linearGradient><linearGradient id="paint4_linear" x1="42.1" y1="21.52" x2="32.61" y2="4.85" gradientUnits="userSpaceOnUse"><stop offset="0.23" stop-color="#FF8F00"/><stop offset="0.54" stop-color="#FF1F0D"/></linearGradient><linearGradient id="paint5_linear" x1="30.04" y1="30.69" x2="41.65" y2="30.69" gradientUnits="userSpaceOnUse"><stop stop-color="#FFD110"/><stop offset="0.67" stop-color="#FEEA8D"/></linearGradient></defs><path fill-rule="evenodd" clip-rule="evenodd" d="M23.24 37.21C22.37 41.15 21.97 45.43 21.94 49.77 21.87 49.98 21.84 50.21 21.84 50.44 21.94 55.01 22.44 59.4 23.34 63.59 23.39 63.82 23.47 64.03 23.59 64.23L23.93 65.6C23.95 65.64 23.96 65.69 23.97 65.73L24.35 66.87C24.69 68.06 25.07 69.22 25.48 70.35L25.62 70.77C25.66 70.9 25.71 71.02 25.78 71.13 26.6 73.24 27.54 75.23 28.57 77.08 28.65 77.43 28.83 77.75 29.07 78.01 31.56 82.17 34.65 85.62 38.08 88.05 38.1 88.06 38.11 88.07 38.12 88.07 38.9 88.6 39.7 89.08 40.51 89.51 40.67 89.62 40.83 89.7 41.01 89.76 43.63 91.05 46.42 91.81 49.35 91.9 49.57 91.97 49.81 92.01 50.05 92 50.25 91.99 50.45 91.96 50.64 91.89 54.67 91.74 58.42 90.24 61.79 87.86L61.81 87.84C64.85 85.64 67.64 82.64 69.9 78.94 69.96 78.84 70.01 78.74 70.05 78.63 70.89 77.26 71.66 75.8 72.37 74.27 72.44 74.17 72.5 74.05 72.55 73.94L73.42 71.9C73.48 71.77 73.52 71.62 73.55 71.48 74.52 68.97 75.33 66.31 75.95 63.53 76.97 59.27 77.36 54.65 77.36 49.91 77.36 49.89 77.36 49.88 77.36 49.87 77.28 46.3 76.93 42.91 76.39 39.64 76.39 39.41 76.35 39.19 76.28 38.98 76.12 38.09 75.95 37.2 75.77 36.33 75.72 36.11 75.64 35.9 75.53 35.72 75.19 34.26 74.78 32.84 74.33 31.47 74.3 31.3 74.25 31.14 74.18 30.98L74.11 30.83C72.94 27.42 71.44 24.29 69.74 21.49 69.68 21.28 69.58 21.07 69.46 20.89 67.03 17.35 64.26 14.35 61.11 12.15L61.08 12.13C57.52 9.72 53.55 8.3 49.31 8.3 49.29 8.3 49.28 8.3 49.26 8.3 49.23 8.3 49.19 8.3 49.16 8.3 44.95 8.41 40.99 9.82 37.41 12.35 37.4 12.35 37.39 12.36 37.38 12.37 33.82 14.98 30.73 18.61 28.28 23.09 26.06 27.14 24.25 31.97 23.24 37.21ZM67.74 22.06C67.73 22.05 67.72 22.03 67.71 22.02ZM67.74 22.06C67.76 22.1 67.79 22.14 67.81 22.18 68.11 22.66 68.4 23.15 68.69 23.65L68.76 23.78C70.02 26.01 71.14 28.43 72.07 31.04 72.13 31.22 72.19 31.39 72.25 31.57L72.36 31.8 72.34 31.82C72.67 32.8 72.97 33.8 73.24 34.82 73.39 35.36 73.52 35.91 73.65 36.47 73.67 36.54 73.69 36.61 73.7 36.68 73.71 36.7 73.71 36.72 73.71 36.74L73.81 36.74C73.83 36.82 73.85 36.91 73.86 36.99 73.91 37.22 73.96 37.45 74 37.68 74.07 38.04 74.14 38.4 74.21 38.77 74.21 38.78 74.21 38.8 74.22 38.82 74.27 39.08 74.31 39.35 74.36 39.61 74.36 39.61 74.36 39.61 74.36 39.61L74.37 39.67 74.39 39.64V39.81C74.49 40.42 74.59 41.03 74.68 41.64 74.9 43.2 75.08 44.79 75.19 46.42 75.2 46.43 75.2 46.44 75.2 46.45 75.28 47.58 75.34 48.73 75.36 49.9 75.36 49.9 75.36 49.9 75.36 49.9 75.36 49.91 75.36 49.91 75.36 49.91 75.36 50.58 75.35 51.24 75.33 51.9 75.26 55.08 74.98 58.15 74.44 61.04 74.43 61.05 74.43 61.05 74.43 61.05 74.31 61.73 74.17 62.4 74.01 63.06 74.01 63.06 74.01 63.07 74 63.08 74 63.08 74 63.08 74 63.08 73.86 63.73 73.7 64.38 73.53 65.02 72.99 67.12 72.33 69.13 71.57 71.04 71.57 71.06 71.56 71.07 71.56 71.09L71.58 71.12 70.71 73.15 70.69 73.14C70.66 73.2 70.62 73.27 70.59 73.34 70.34 73.89 70.09 74.42 69.82 74.94 69.61 75.35 69.4 75.76 69.18 76.15 68.86 76.73 68.53 77.29 68.19 77.84 68.19 77.84 68.19 77.84 68.19 77.84 68.18 77.85 68.18 77.86 68.17 77.88 68.17 77.88 68.16 77.88 68.16 77.89 68.16 77.89 68.16 77.89 68.16 77.9L68.19 77.9 68.16 77.95M27.54 70.14L27.54 70.14C27.54 70.14 27.54 70.14 27.54 70.14Z" fill="white"/><path d="M75.36 49.91C75.36 54.56 74.97 59.01 74 63.08L67.81 59.79 75.36 49.91Z" fill="#FF1F0D"/><path d="M75.36 49.91L67.9 40.22 73.81 36.74C74.68 40.9 75.26 45.26 75.36 49.91Z" fill="#80011E"/><path d="M67.81 40.22L75.36 49.91 64.03 50 59.77 34.51 67.81 40.22Z" fill="#FF1F0D"/><path d="M75.36 49.91L67.81 59.88 60.16 65.31 64.03 50 75.36 49.91Z" fill="#CC0031"/><path d="M74 63.08C72.75 68.69 70.71 73.83 68.1 77.99L67.81 59.88 74 63.08Z" fill="#80011E"/><path d="M73.71 36.74L67.81 40.22 67.71 22.02C70.32 26.18 72.45 31.12 73.71 36.74Z" fill="#FF1F0D"/><path d="M67.81 59.88L68.1 77.99 56.77 78.19 60.16 65.31 67.81 59.88Z" fill="#FF152A"/><path d="M67.71 22.02L67.81 40.22 59.77 34.51 56.48 22.31 67.71 22.02Z" fill="#C90500"/><path d="M59.77 34.51L64.03 50 60.16 65.31 49.21 73.05 39.04 66.08 34.88 50.3 38.56 34.8 49.41 27.25 59.77 34.51Z" fill="#FFEBB8"/><path d="M56.77 78.19L49.99 89.9C53.76 89.9 57.35 88.55 60.64 86.22 63.45 84.19 66.06 81.38 68.19 77.89L56.77 78.19Z" fill="url(#paint0_linear)"/><path d="M60.16 65.31L56.77 78.19 49.21 73.05 60.16 65.31Z" fill="#FFD110"/><path d="M59.96 13.79C56.67 11.56 53.09 10.3 49.31 10.3L56.57 22.21 67.81 22.02C65.48 18.63 62.87 15.82 59.96 13.79Z" fill="url(#paint1_linear)"/><path d="M56.48 22.31L59.77 34.51 49.41 27.25 56.48 22.31Z" fill="#FF8F00"/><path d="M56.77 78.19L49.99 90 42.14 78.09 49.21 73.05 56.77 78.19Z" fill="#FF8F00"/><path d="M49.21 10.3L56.48 22.31 49.41 27.25 41.66 21.73 49.21 10.3Z" fill="url(#paint2_linear)"/><path d="M41.66 21.73L49.41 27.25 38.56 34.8 41.66 21.73Z" fill="#FFD110"/><path d="M49.21 73.05L42.14 78.09 39.04 66.08 49.21 73.05Z" fill="#FEEA8D"/><path d="M39.04 66.08L42.14 78.09 30.52 76.64 30.43 60.17 39.04 66.08Z" fill="#FF1F0D"/><path d="M42.14 78.09L30.52 76.54C32.94 80.7 35.95 84.09 39.24 86.42 42.53 88.64 46.11 89.9 49.89 89.9L42.14 78.09Z" fill="url(#paint3_linear)"/><path d="M38.56 13.98C35.27 16.4 32.36 19.79 30.04 24.05L41.66 21.73 49.21 10.3C45.44 10.4 41.85 11.66 38.56 13.98Z" fill="url(#paint4_linear)"/><path d="M41.66 21.73L38.56 34.8 31.59 39.64 30.04 24.05 41.66 21.73Z" fill="url(#paint5_linear)"/><path d="M34.88 50.3L39.04 66.08 30.43 60.17 23.84 50.39 34.88 50.3Z" fill="#FF8F00"/><path d="M38.56 34.8L34.88 50.3 23.84 50.39 31.59 39.64 38.56 34.8Z" fill="#FEEA8D"/><path d="M30.04 24.05L31.59 39.64 25.2 37.61C26.16 32.57 27.91 27.92 30.04 24.05Z" fill="#FF1F0D"/><path d="M31.59 39.64L23.94 50.39C23.94 45.94 24.32 41.58 25.2 37.61L31.59 39.64Z" fill="#C90500"/><path d="M30.43 60.17L30.62 76.64C28.39 72.76 26.55 68.21 25.49 63.18L30.43 60.17Z" fill="#C90500"/><path d="M23.84 50.39L30.51 60.19 25.47 63.29C24.59 59.23 23.94 54.85 23.84 50.39Z" fill="#FF1F0D"/><path d="M39.33 34.41C40.69 34.41 42.05 34.41 43.4 34.32 45.05 34.32 46.6 34.22 48.24 34.12 46.6 34.03 45.05 33.93 43.4 33.93 42.05 33.93 40.79 33.93 39.43 33.83 40.21 33.06 40.88 32.38 41.56 31.61 42.53 30.64 43.4 29.57 44.37 28.6 43.31 29.47 42.34 30.44 41.37 31.41 40.59 32.19 39.82 32.86 39.14 33.64 39.14 31.9 39.14 30.06 39.04 28.31 39.04 26.38 38.95 24.34 38.85 22.41 38.75 24.34 38.66 26.38 38.66 28.31 38.66 30.06 38.56 31.8 38.56 33.64 37.79 32.67 36.91 31.8 36.14 30.83 35.17 29.77 34.2 28.7 33.23 27.73 34.11 28.89 34.98 30.06 35.85 31.12 36.62 32.09 37.4 33.06 38.27 34.03 36.72 34.03 35.27 34.03 33.72 34.12 32.07 34.12 30.52 34.22 28.88 34.32 30.52 34.41 32.07 34.51 33.72 34.51 35.27 34.51 36.72 34.61 38.27 34.61 37.4 35.58 36.43 36.45 35.56 37.42 34.59 38.38 33.72 39.45 32.75 40.42 33.81 39.55 34.78 38.58 35.75 37.61 36.72 36.74 37.59 35.87 38.46 34.9 38.46 36.64 38.46 38.38 38.56 40.13 38.56 42.06 38.66 44.1 38.75 46.03 38.85 44.1 38.95 42.06 38.95 40.13 38.95 38.38 39.04 36.64 39.04 34.9 39.82 35.77 40.59 36.74 41.37 37.61 42.34 38.67 43.31 39.74 44.27 40.71 43.4 39.55 42.53 38.38 41.66 37.32 40.98 36.25 40.11 35.29 39.33 34.41Z" fill="white"/><path opacity="0.56" d="M59.77 34.51L68.87 24.05 72.36 31.8 62.48 44.19 59.77 34.51Z" fill="white"/><path opacity="0.56" d="M64.03 50L74.39 39.64V43.32L68.1 50.1 64.03 50Z" fill="white"/><path opacity="0.56" d="M59.77 66.47L70.71 73.15 71.58 71.12 61.41 60.17 59.77 66.47Z" fill="white"/><path opacity="0.68" d="M34.88 50.3L25.1 62.01 25.87 65.11 27.52 70.15 37.49 60.17 34.88 50.3Z" fill="white"/><path opacity="0.44" d="M32.65 75.18L38.56 65.79 41.66 87.87 32.65 75.18Z" fill="white"/><path opacity="0.36" d="M27.13 31.12L30.04 24.05 37.2 18.73 26.36 46.91 27.13 31.12Z" fill="white"/><path opacity="0.58" d="M34.88 50.3L54.54 31.12 59.77 34.51 36.91 58.14 34.88 50.3Z" fill="white"/><path opacity="0.58" d="M37.79 61.43L60.64 38.48 62.48 44.19 39.04 66.08 37.79 61.43Z" fill="white"/><path opacity="0.58" d="M40.21 66.86L58.22 50.88V54.17L43.89 69.37 40.21 66.86Z" fill="white"/><path opacity="0.58" d="M44.18 36.74L49.02 31.8 50.18 32.86 43.98 39.64 44.18 36.74Z" fill="white"/><path opacity="0.56" d="M44.66 23.86L51.83 14.66 53.86 18.05 46.99 25.5 44.66 23.86Z" fill="white"/></svg>