<svg width="100" height="100" viewBox="0 0 100 100" fill="none" xmlns="http://www.w3.org/2000/svg"><defs><linearGradient id="paint0_linear" x1="22.04" y1="39.13" x2="38.94" y2="39.13" gradientUnits="userSpaceOnUse"><stop offset="0.13" stop-color="#FF2EB2"/><stop offset="0.18" stop-color="#E02490"/><stop offset="0.25" stop-color="#BE196B"/><stop offset="0.33" stop-color="#A2104D"/><stop offset="0.41" stop-color="#8D0A36"/><stop offset="0.49" stop-color="#7E0525"/><stop offset="0.58" stop-color="#75021B"/><stop offset="0.7" stop-color="#720118"/></linearGradient><linearGradient id="paint1_linear" x1="37.71" y1="69.98" x2="23.37" y2="44.96" gradientUnits="userSpaceOnUse"><stop offset="0.32" stop-color="#AD075D"/><stop offset="0.4" stop-color="#B00962"/><stop offset="0.5" stop-color="#BA0E72"/><stop offset="0.61" stop-color="#CA168C"/><stop offset="0.72" stop-color="#DF21B0"/><stop offset="0.85" stop-color="#FB30DD"/><stop offset="0.85" stop-color="#FD31E0"/></linearGradient><linearGradient id="paint2_linear" x1="55.99" y1="56.59" x2="66.53" y2="84.29" gradientUnits="userSpaceOnUse"><stop offset="0.19" stop-color="#940735"/><stop offset="0.3" stop-color="#960838"/><stop offset="0.39" stop-color="#9C0A42"/><stop offset="0.47" stop-color="#A60E53"/><stop offset="0.54" stop-color="#B5146A"/><stop offset="0.61" stop-color="#C71B88"/><stop offset="0.68" stop-color="#DE25AE"/><stop offset="0.75" stop-color="#F92FD9"/><stop offset="0.76" stop-color="#FD31E0"/><stop offset="1" stop-color="#F2C5F5"/></linearGradient><linearGradient id="paint3_linear" x1="51.73" y1="35.92" x2="64.22" y2="22.96" gradientUnits="userSpaceOnUse"><stop offset="0.16" stop-color="#940934"/><stop offset="0.26" stop-color="#970A38"/><stop offset="0.37" stop-color="#A10E46"/><stop offset="0.49" stop-color="#B2145C"/><stop offset="0.6" stop-color="#C91C7A"/><stop offset="0.72" stop-color="#E627A2"/><stop offset="0.8" stop-color="#FC2FBF"/></linearGradient><linearGradient id="paint4_linear" x1="72.79" y1="70.19" x2="76.63" y2="43.42" gradientUnits="userSpaceOnUse"><stop offset="0.21" stop-color="#D12D8F"/><stop offset="0.7" stop-color="#EA208A"/><stop offset="1" stop-color="#F41B88"/></linearGradient><linearGradient id="paint5_linear" x1="62.92" y1="45.77" x2="61.46" y2="80.76" gradientUnits="userSpaceOnUse"><stop offset="0.21" stop-color="#D12D8F"/><stop offset="0.7" stop-color="#EA208A"/><stop offset="1" stop-color="#F41B88"/></linearGradient><linearGradient id="paint6_linear" x1="32.11" y1="63.72" x2="55.53" y2="78.06" gradientUnits="userSpaceOnUse"><stop offset="0.67" stop-color="#F31FAC"/><stop offset="0.7" stop-color="#F326B1"/><stop offset="0.74" stop-color="#F539BD"/><stop offset="0.78" stop-color="#F659D2"/><stop offset="0.83" stop-color="#F984EF"/><stop offset="0.85" stop-color="#FA99FD"/></linearGradient><linearGradient id="paint7_linear" x1="52.74" y1="66.86" x2="41.46" y2="13.06" gradientUnits="userSpaceOnUse"><stop offset="0.47" stop-color="#F9DCF7"/><stop offset="0.62" stop-color="#F9D9F6"/><stop offset="0.71" stop-color="#F8D1F5"/><stop offset="0.79" stop-color="#F7C2F2"/><stop offset="0.85" stop-color="#F6AEEE"/><stop offset="0.92" stop-color="#F493E9"/><stop offset="0.98" stop-color="#F173E2"/><stop offset="1" stop-color="#F063DF"/></linearGradient><linearGradient id="paint8_linear" x1="63.35" y1="89.45" x2="51.23" y2="41.89" gradientUnits="userSpaceOnUse"><stop offset="0.2" stop-color="#FC2FBF"/><stop offset="0.28" stop-color="#E627A2"/><stop offset="0.4" stop-color="#C91C7A"/><stop offset="0.51" stop-color="#B2145C"/><stop offset="0.63" stop-color="#A10E46"/><stop offset="0.74" stop-color="#970A38"/><stop offset="0.84" stop-color="#940934"/></linearGradient><linearGradient id="paint9_linear" x1="68.5" y1="84.92" x2="74.67" y2="36.32" gradientUnits="userSpaceOnUse"><stop offset="0.01" stop-color="#790A3D"/><stop offset="0.17" stop-color="#7F0B40"/><stop offset="0.38" stop-color="#900E4A"/><stop offset="0.61" stop-color="#AB125B"/><stop offset="0.86" stop-color="#D11871"/><stop offset="1" stop-color="#E91C7F"/></linearGradient></defs><path d="M22 44.88L32.42 26.61 35.72 20.91 40.8 12 44.36 14.14 58.09 22.17 58.08 22.16 64.41 25.81V25.87L67.08 27.43 67.08 27.24 78.31 34.01V50.76L74.83 80.25 67.53 83.81 56.39 88 39.28 79.98 34.81 70.84 34.65 70.72 22 44.88Z" fill="#FFE9FD"/><path fill-rule="evenodd" clip-rule="evenodd" d="M30.69 25.61L33.99 19.91 40.07 9.23 45.38 12.42 57.56 19.54 65.14 23.92 65.15 23.73 80.31 32.88V50.87L76.69 81.57 68.32 85.65 56.31 90.17 37.8 81.49 33.21 72.12 33.05 72 19.74 44.81 30.69 25.61ZM34.81 70.84L39.28 79.98 56.39 88 67.53 83.81 74.83 80.25 78.31 50.76V34.01L67.08 27.24 67.08 27.43 64.41 25.87V25.81L58.08 22.16 58.09 22.17 44.36 14.14 40.8 12 35.72 20.91 32.42 26.61 22 44.88 34.65 70.72 34.81 70.84Z" fill="white"/><path d="M32.42 26.61L31.44 51.65 28.95 49.87 22 44.88 32.42 26.61Z" fill="url(#paint0_linear)"/><path d="M28.95 49.87L37.32 64.48 30.64 62.34 22 44.88 28.95 49.87Z" fill="url(#paint1_linear)"/><path d="M44.36 14.14L50.6 22.42 47.3 20.82 40.8 12 44.36 14.14Z" fill="#ED00D1"/><path d="M69.31 47.1L76.17 37.13 76.08 43.81 72.43 48.8 73.5 76.77 67.53 83.81 69.04 53.25 69.31 47.1Z" fill="#4D293F"/><path d="M69.04 53.25L67.53 83.81 56.39 88 46.95 68.75 43.83 62.34 59.51 81.5 65.21 53.25H69.04Z" fill="url(#paint2_linear)"/><path d="M78.31 34.01L76.17 37.13 69.31 47.1H66.73L47.3 20.82 50.6 22.42 44.36 14.14 78.31 34.01Z" fill="url(#paint3_linear)"/><path d="M69.31 47.1L69.04 53.25H65.21L65.84 49.87 66.73 47.1H69.31Z" fill="#FF78EC"/><path d="M78.31 50.76L74.83 80.25 67.53 83.81 73.5 76.77 72.43 48.8 76.08 43.81 76.17 37.13 78.31 34.01V50.76Z" fill="url(#paint4_linear)"/><path d="M40.8 12L37.95 24.12 35.72 27.24V20.91L40.8 12Z" fill="#FE35DD"/><path d="M43.83 62.34L46.95 68.76 28.95 49.87 31.44 51.65 43.83 62.34Z" fill="#AF0082"/><path d="M35.72 27.24L37.95 24.12 31.44 51.65 32.42 26.61 35.72 20.91V27.24Z" fill="#FB35B4"/><path d="M47.3 20.82L42.14 18.24 37.95 24.12 40.8 12 47.3 20.82Z" fill="#FFE9FD"/><path d="M65.84 49.87L65.21 53.25 59.51 81.5V52.09L65.84 49.87Z" fill="url(#paint5_linear)"/><path d="M46.95 68.76L56.39 88 39.28 79.98 30.64 62.34 37.32 64.48 28.95 49.87 46.95 68.76Z" fill="url(#paint6_linear)"/><path d="M47.3 20.82L66.73 47.1 65.84 49.87 56.75 48.62 43.83 62.34 31.44 51.65 37.95 24.12 42.14 18.24 47.3 20.82Z" fill="url(#paint7_linear)"/><path d="M65.84 49.87L59.51 52.09V81.5L43.83 62.34 56.75 48.62 65.84 49.87Z" fill="url(#paint8_linear)"/><path d="M69.31 47.1L69.04 53.25 67.53 83.81 73.5 76.77 72.43 48.8 76.08 43.81 78.31 34.01 69.31 47.1Z" fill="url(#paint9_linear)"/><path opacity="0.47" d="M31.44 51.65L49.8 24.12 54.52 30.62 38.22 57.53 31.44 51.65Z" fill="white"/><path opacity="0.47" d="M40.8 59.76L56.48 33.21 58.08 35.34 42.67 61.27 40.8 59.76Z" fill="white"/><path opacity="0.32" d="M68.78 58.95L78.31 34.01V44.88L67.97 75.44 68.78 58.95Z" fill="#FFE9FD"/><path opacity="0.32" d="M77.51 57.53L67.53 83.81 74.83 80.25 77.51 57.53Z" fill="#FFE9FD"/><path opacity="0.39" d="M59.51 37.3L58.08 22.16 64.41 25.81V43.9L59.51 37.3Z" fill="#FFE9FD"/><path opacity="0.39" d="M54.52 22.16L56.39 28.13 54.52 27.24 52.47 19.57 54.52 22.16Z" fill="#FFE9FD"/><path opacity="0.65" d="M22 44.88L43.83 62.34 56.39 88 34.65 70.72 22 44.88Z" fill="#FFE9FD"/><path opacity="0.61" d="M23.6 42.12L36.61 29.55 31.44 51.65 23.6 42.12Z" fill="#FFE9FD"/><path opacity="0.39" d="M66.73 47.1L67.08 27.24 78.31 34.01 69.31 47.1H66.73Z" fill="#FFE9FD"/><path d="M43.83 62.34L22 44.88 23.6 42.12 43.83 62.34Z" fill="#FFE9FD"/><path d="M44.81 61.27L56.39 88 42.58 61.27H44.81Z" fill="#FFE9FD"/></svg>