<svg width="100" height="100" viewBox="0 0 100 100" fill="none" xmlns="http://www.w3.org/2000/svg"><defs><linearGradient id="paint0_linear" x1="48.95" y1="12.28" x2="60.38" y2="14.55" gradientUnits="userSpaceOnUse"><stop offset="0.08" stop-color="#0C275F"/><stop offset="0.22" stop-color="#0F3070"/><stop offset="0.51" stop-color="#17499E"/><stop offset="0.89" stop-color="#226EE1"/></linearGradient><linearGradient id="paint1_linear" x1="28.46" y1="27.72" x2="43.44" y2="27.72" gradientUnits="userSpaceOnUse"><stop stop-color="#0094D0"/><stop offset="0.19" stop-color="#089DD1"/><stop offset="0.5" stop-color="#1DB7D3"/><stop offset="0.89" stop-color="#3FE0D6"/><stop offset="0.95" stop-color="#44E6D7"/></linearGradient><linearGradient id="paint2_linear" x1="30.75" y1="55.83" x2="45.73" y2="55.83" gradientUnits="userSpaceOnUse"><stop offset="0.28" stop-color="#1446C2"/><stop offset="0.33" stop-color="#154EC5"/><stop offset="0.41" stop-color="#1663CD"/><stop offset="0.49" stop-color="#1985DB"/><stop offset="0.56" stop-color="#1BA1E6"/></linearGradient><linearGradient id="paint3_linear" x1="30.75" y1="22.92" x2="48.74" y2="22.92" gradientUnits="userSpaceOnUse"><stop stop-color="#2A86E6"/><stop offset="0.01" stop-color="#2E88E6"/><stop offset="0.15" stop-color="#65A7ED"/><stop offset="0.29" stop-color="#94C2F2"/><stop offset="0.42" stop-color="#BAD8F7"/><stop offset="0.56" stop-color="#D8E9FA"/><stop offset="0.69" stop-color="#EEF5FD"/><stop offset="0.82" stop-color="#FBFDFE"/><stop offset="0.94" stop-color="white"/></linearGradient><linearGradient id="paint4_linear" x1="46.71" y1="34.68" x2="53.52" y2="18.39" gradientUnits="userSpaceOnUse"><stop offset="0.32" stop-color="#1692E1"/><stop offset="0.44" stop-color="#116FB7"/><stop offset="0.69" stop-color="#092E6A"/><stop offset="0.8" stop-color="#06144B"/></linearGradient><linearGradient id="paint5_linear" x1="37.14" y1="32.39" x2="43.96" y2="80" gradientUnits="userSpaceOnUse"><stop offset="0.11" stop-color="#2295E1"/><stop offset="0.16" stop-color="#1C76CC"/><stop offset="0.23" stop-color="#1554B5"/><stop offset="0.31" stop-color="#1039A2"/><stop offset="0.39" stop-color="#0B2494"/><stop offset="0.49" stop-color="#08158A"/><stop offset="0.59" stop-color="#070C84"/><stop offset="0.76" stop-color="#060982"/></linearGradient><linearGradient id="paint6_linear" x1="30.75" y1="21.97" x2="40.69" y2="21.97" gradientUnits="userSpaceOnUse"><stop offset="0.11" stop-color="#1F68E6"/><stop offset="0.36" stop-color="#2D91E0"/><stop offset="0.64" stop-color="#3AB7DA"/><stop offset="0.79" stop-color="#3FC6D8"/></linearGradient><linearGradient id="paint7_linear" x1="43.72" y1="35.29" x2="44.33" y2="70.9" gradientUnits="userSpaceOnUse"><stop stop-color="#226EE1"/><stop offset="0.34" stop-color="#1454AF"/><stop offset="0.68" stop-color="#073C82"/><stop offset="0.86" stop-color="#023371"/></linearGradient><linearGradient id="paint8_linear" x1="41.56" y1="86.16" x2="47.98" y2="86.16" gradientUnits="userSpaceOnUse"><stop offset="0.08" stop-color="#0C275F"/><stop offset="0.22" stop-color="#0F3070"/><stop offset="0.5" stop-color="#17499E"/><stop offset="0.86" stop-color="#226EE1"/></linearGradient><linearGradient id="paint9_linear" x1="46.11" y1="78.82" x2="49.58" y2="91.26" gradientUnits="userSpaceOnUse"><stop offset="0.28" stop-color="#1F68E6"/><stop offset="0.53" stop-color="#329EDE"/><stop offset="0.7" stop-color="#3FC6D8"/></linearGradient><linearGradient id="paint10_linear" x1="51.08" y1="83.05" x2="51.31" y2="93.68" gradientUnits="userSpaceOnUse"><stop offset="0.12" stop-color="#1F68E6"/><stop offset="0.36" stop-color="#329EDE"/><stop offset="0.53" stop-color="#3FC6D8"/></linearGradient><linearGradient id="paint11_linear" x1="66.31" y1="30.88" x2="57.17" y2="79.01" gradientUnits="userSpaceOnUse"><stop offset="0.1" stop-color="#1446C2"/><stop offset="0.23" stop-color="#154EC5"/><stop offset="0.44" stop-color="#1863CF"/><stop offset="0.68" stop-color="#1D85DF"/><stop offset="0.78" stop-color="#1F95E6"/></linearGradient><linearGradient id="paint12_linear" x1="58.01" y1="28.23" x2="70.69" y2="28.23" gradientUnits="userSpaceOnUse"><stop stop-color="#226EE1"/><stop offset="0.03" stop-color="#2067D8"/><stop offset="0.16" stop-color="#184CB5"/><stop offset="0.3" stop-color="#12379A"/><stop offset="0.43" stop-color="#0D2887"/><stop offset="0.57" stop-color="#0B1F7C"/><stop offset="0.72" stop-color="#0A1C78"/></linearGradient><linearGradient id="paint13_linear" x1="58.35" y1="22.65" x2="70.69" y2="22.65" gradientUnits="userSpaceOnUse"><stop offset="0.14" stop-color="#06144B"/><stop offset="0.23" stop-color="#07164F"/><stop offset="0.32" stop-color="#091D5A"/><stop offset="0.41" stop-color="#0C296E"/><stop offset="0.5" stop-color="#123989"/><stop offset="0.59" stop-color="#184EAC"/><stop offset="0.67" stop-color="#2067D6"/><stop offset="0.69" stop-color="#226EE1"/></linearGradient><linearGradient id="paint14_linear" x1="50.66" y1="86.26" x2="57.33" y2="86.26" gradientUnits="userSpaceOnUse"><stop offset="0.08" stop-color="#0C275F"/><stop offset="0.22" stop-color="#0F3070"/><stop offset="0.5" stop-color="#17499E"/><stop offset="0.86" stop-color="#226EE1"/></linearGradient><linearGradient id="paint15_linear" x1="49.33" y1="92.05" x2="48.34" y2="81.95" gradientUnits="userSpaceOnUse"><stop offset="0.16" stop-color="#226EE1"/><stop offset="0.18" stop-color="#2069D9"/><stop offset="0.32" stop-color="#174BA7"/><stop offset="0.45" stop-color="#10337F"/><stop offset="0.57" stop-color="#0A2262"/><stop offset="0.68" stop-color="#071851"/><stop offset="0.76" stop-color="#06144B"/></linearGradient><linearGradient id="paint16_linear" x1="48.74" y1="23.34" x2="70.69" y2="23.34" gradientUnits="userSpaceOnUse"><stop offset="0.14" stop-color="#06144B"/><stop offset="0.23" stop-color="#07164F"/><stop offset="0.32" stop-color="#091D5A"/><stop offset="0.41" stop-color="#0C296E"/><stop offset="0.5" stop-color="#123989"/><stop offset="0.59" stop-color="#184EAC"/><stop offset="0.67" stop-color="#2067D6"/><stop offset="0.69" stop-color="#226EE1"/></linearGradient><linearGradient id="paint17_linear" x1="54.44" y1="55.31" x2="52.41" y2="87.81" gradientUnits="userSpaceOnUse"><stop offset="0.34" stop-color="#1F68E6"/><stop offset="0.41" stop-color="#206CE6"/><stop offset="0.48" stop-color="#2279E6"/><stop offset="0.55" stop-color="#278EE6"/><stop offset="0.62" stop-color="#2DACE6"/><stop offset="0.7" stop-color="#34D2E6"/><stop offset="0.73" stop-color="#38E6E6"/></linearGradient><linearGradient id="paint18_linear" x1="46.04" y1="25.2" x2="47.62" y2="84.11" gradientUnits="userSpaceOnUse"><stop offset="0.52" stop-color="#1F68E6"/><stop offset="0.57" stop-color="#206CE6"/><stop offset="0.62" stop-color="#2279E6"/><stop offset="0.68" stop-color="#278EE6"/><stop offset="0.74" stop-color="#2DACE6"/><stop offset="0.79" stop-color="#34D2E6"/><stop offset="0.82" stop-color="#38E6E6"/></linearGradient><linearGradient id="paint19_linear" x1="57.17" y1="28.19" x2="52.21" y2="78.39" gradientUnits="userSpaceOnUse"><stop offset="0.14" stop-color="#199EE1"/><stop offset="0.16" stop-color="#1685CB"/><stop offset="0.2" stop-color="#1166AF"/><stop offset="0.24" stop-color="#0D4A97"/><stop offset="0.29" stop-color="#0A3483"/><stop offset="0.34" stop-color="#082374"/><stop offset="0.41" stop-color="#06186A"/><stop offset="0.5" stop-color="#051164"/><stop offset="0.76" stop-color="#050F62"/></linearGradient><linearGradient id="paint20_linear" x1="38.05" y1="37.77" x2="59.79" y2="17.86" gradientUnits="userSpaceOnUse"><stop offset="0.17" stop-color="white"/><stop offset="0.23" stop-color="#F9F9F9"/><stop offset="0.32" stop-color="#E7E7E7"/><stop offset="0.42" stop-color="#CBCBCB"/><stop offset="0.53" stop-color="#A3A3A3"/><stop offset="0.65" stop-color="#707070"/><stop offset="0.77" stop-color="#323232"/><stop offset="0.86"/></linearGradient><linearGradient id="paint21_linear" x1="38.05" y1="37.77" x2="59.79" y2="17.86" gradientUnits="userSpaceOnUse"><stop offset="0.17" stop-color="#AAE6E6"/><stop offset="0.3" stop-color="#B0E8E8"/><stop offset="0.47" stop-color="#C2EDED"/><stop offset="0.67" stop-color="#DEF5F5"/><stop offset="0.86" stop-color="white"/></linearGradient><linearGradient id="paint22_linear" x1="50.52" y1="29.58" x2="77.2" y2="-0.24" gradientUnits="userSpaceOnUse"><stop offset="0.22"/><stop offset="0.23" stop-color="#101010"/><stop offset="0.29" stop-color="#4E4E4E"/><stop offset="0.34" stop-color="#848484"/><stop offset="0.4" stop-color="#B0B0B0"/><stop offset="0.45" stop-color="#D2D2D2"/><stop offset="0.5" stop-color="#EBEBEB"/><stop offset="0.54" stop-color="#FAFAFA"/><stop offset="0.58" stop-color="white"/></linearGradient><linearGradient id="paint23_linear" x1="50.52" y1="29.58" x2="77.2" y2="-0.24" gradientUnits="userSpaceOnUse"><stop offset="0.22" stop-color="white"/><stop offset="0.58" stop-color="white"/></linearGradient><linearGradient id="paint24_linear" x1="30.27" y1="26.64" x2="45.53" y2="58.34" gradientUnits="userSpaceOnUse"><stop offset="0.16" stop-color="white"/><stop offset="0.24" stop-color="#F8F8F8"/><stop offset="0.35" stop-color="#E4E4E4"/><stop offset="0.48" stop-color="#C2C2C2"/><stop offset="0.62" stop-color="#949494"/><stop offset="0.79" stop-color="#5A5A5A"/><stop offset="0.96" stop-color="#131313"/><stop offset="1"/></linearGradient><linearGradient id="paint25_linear" x1="30.27" y1="26.64" x2="45.53" y2="58.34" gradientUnits="userSpaceOnUse"><stop offset="0.16" stop-color="#7EE6E6"/><stop offset="0.28" stop-color="#85E7E7"/><stop offset="0.45" stop-color="#99EBEB"/><stop offset="0.66" stop-color="#BAF2F2"/><stop offset="0.89" stop-color="#E8FBFB"/><stop offset="1" stop-color="white"/></linearGradient><linearGradient id="paint26_linear" x1="56.99" y1="45.2" x2="70.69" y2="45.2" gradientUnits="userSpaceOnUse"><stop offset="0.16" stop-color="white"/><stop offset="0.24" stop-color="#F8F8F8"/><stop offset="0.35" stop-color="#E4E4E4"/><stop offset="0.48" stop-color="#C2C2C2"/><stop offset="0.62" stop-color="#949494"/><stop offset="0.79" stop-color="#5A5A5A"/><stop offset="0.96" stop-color="#131313"/><stop offset="1"/></linearGradient><linearGradient id="paint27_linear" x1="56.99" y1="45.2" x2="70.69" y2="45.2" gradientUnits="userSpaceOnUse"><stop offset="0.16" stop-color="#7EE6E6"/><stop offset="0.28" stop-color="#85E7E7"/><stop offset="0.45" stop-color="#99EBEB"/><stop offset="0.66" stop-color="#BAF2F2"/><stop offset="0.89" stop-color="#E8FBFB"/><stop offset="1" stop-color="white"/></linearGradient><linearGradient id="paint28_linear" x1="36.88" y1="67.1" x2="44.84" y2="67.1" gradientUnits="userSpaceOnUse"><stop offset="0.16" stop-color="white"/><stop offset="0.24" stop-color="#F8F8F8"/><stop offset="0.35" stop-color="#E4E4E4"/><stop offset="0.48" stop-color="#C2C2C2"/><stop offset="0.62" stop-color="#949494"/><stop offset="0.79" stop-color="#5A5A5A"/><stop offset="0.96" stop-color="#131313"/><stop offset="1"/></linearGradient><linearGradient id="paint29_linear" x1="36.88" y1="67.1" x2="44.84" y2="67.1" gradientUnits="userSpaceOnUse"><stop offset="0.16" stop-color="#7EE6E6"/><stop offset="0.28" stop-color="#85E7E7"/><stop offset="0.45" stop-color="#99EBEB"/><stop offset="0.66" stop-color="#BAF2F2"/><stop offset="0.89" stop-color="#E8FBFB"/><stop offset="1" stop-color="white"/></linearGradient></defs><path d="M61.91 13.63L49.96 4.5 38.24 13.12 32.73 22.25 32.73 22.26 28.63 29.05 39.65 81.09 46.81 94H51.84L59.22 81.31 67.43 50.43 67.43 50.43 72.87 29.95 61.91 13.63Z" fill="white"/><path d="M48.74 16.37L49.94 7 60.43 15.02 58.33 19.67 48.74 16.37Z" fill="url(#paint0_linear)"/><path d="M30.75 29.41L36.22 27.91 40.72 24.99V30.31 30.46L39.14 30.31 37.12 30.09 30.75 29.41Z" fill="url(#paint1_linear)"/><path d="M40.72 18.47L39.74 14.5 49.94 7 48.74 16.37 40.72 18.47Z" fill="#9FDDFF"/><path d="M41.54 80.38L30.75 29.41 37.12 30.09V30.31 34.58L33.3 32.41 35.7 42.6 40.72 65.77 43.12 76.78 43.94 67.34 44.24 67.26 45.74 82.26 41.54 80.38Z" fill="url(#paint2_linear)"/><path d="M30.75 29.41L40.72 18.47 48.74 16.37 40.72 24.99 36.22 27.91 30.75 29.41Z" fill="url(#paint3_linear)"/><path d="M40.72 30.31V24.99L48.74 16.37 58.03 25.66 58.33 30.91 54.59 30.84V24.02L51.21 30.69 48.74 30.61 48.06 24.02 45.29 28.29 44.77 30.54 40.72 30.46V30.31Z" fill="url(#paint4_linear)"/><path d="M35.7 42.6L33.3 32.41 37.12 34.58V30.31 30.09L39.14 30.31 40.72 30.46V31.66L41.17 36.61 43.94 64.49 44.24 67.26 43.94 67.34 43.12 76.78 40.72 65.77 35.7 42.6Z" fill="url(#paint5_linear)"/><path d="M30.75 29.41L39.74 14.5 40.72 18.47 30.75 29.41Z" fill="url(#paint6_linear)"/><path d="M41.17 36.61L45.29 41.4V53.1L46.72 61.87 45.37 70.41 43.94 64.49 41.17 36.61Z" fill="url(#paint7_linear)"/><path d="M47.99 92L41.54 80.38 45.74 82.26 47.99 92Z" fill="url(#paint8_linear)"/><path d="M47.99 92L45.74 82.26H48.89L48.74 83.98 47.99 92Z" fill="url(#paint9_linear)"/><path d="M48.74 30.61L44.77 30.54 45.29 28.29 48.06 24.02 48.74 30.61Z" fill="#48E6DB"/><path d="M51.21 30.69L54.59 24.02V30.84L51.21 30.69Z" fill="#48E6DB"/><path d="M50.69 92L48.74 83.98 48.89 82.26H53.39L50.76 91.78 50.69 92Z" fill="url(#paint10_linear)"/><path d="M59.08 47.63C60.66 38.26 62.01 30.84 62.16 30.84L70.7 30.31 57.36 80.53 54.96 81.58 59.16 64.27 62.23 42.6 57.51 57.82C57.96 54.37 58.56 50.85 59.08 47.63Z" fill="url(#paint11_linear)"/><path d="M58.33 30.84L58.03 25.66 63.66 29.11 70.7 30.31 62.16 30.84H58.33Z" fill="url(#paint12_linear)"/><path d="M55 81.54L53.39 82.26C53.39 82.26 55.34 70.26 57.36 57.82L62.38 41.93 59.2 64.23 55 81.54Z" fill="#1F95E6"/><path d="M58.33 19.67L60.43 15.02 70.7 30.31 58.33 19.67Z" fill="url(#paint13_linear)"/><path d="M50.69 92L53.39 82.26 54.89 81.58 57.36 80.53 50.69 92Z" fill="url(#paint14_linear)"/><path d="M47.99 92L48.74 83.98 50.69 92H47.99Z" fill="url(#paint15_linear)"/><path d="M48.74 16.37L58.33 19.67 62.16 22.89 70.7 30.31 63.66 29.11 58.03 25.66 48.74 16.37Z" fill="url(#paint16_linear)"/><path d="M48.89 82.26L50.76 48.45V74.69L53.91 63.89 59.08 47.63C58.56 50.92 58.33 53.75 57.73 57.2 56.15 66.27 53.39 82.26 53.39 82.26H48.89Z" fill="url(#paint17_linear)"/><path d="M40.72 31.66V30.46L51.74 30.69 50.9 48.45 48.89 82.26H45.74L44.24 67.26 43.94 64.49 45.37 70.41 46.72 61.87 45.29 53.1V41.4L41.17 36.61 40.72 31.66Z" fill="url(#paint18_linear)"/><path d="M62.16 30.84C62.01 30.84 60.66 38.48 59.08 47.85L53.91 64.12 50.76 74.91V48.68L51.74 30.69 62.16 30.84Z" fill="url(#paint19_linear)"/><path opacity="0.52" d="M62.16 30.84L53.39 82.26 50.69 92H47.99L45.74 82.26 40.72 30.46 62.16 30.84Z" fill="white"/><mask id="mask0" mask-type="alpha" maskUnits="userSpaceOnUse" x="40" y="16" width="19" height="15"><path d="M40.72 24.99L48.74 16.37 58.03 25.66 58.33 30.76 40.72 30.46V24.99Z" fill="url(#paint20_linear)"/></mask><g mask="url(#mask0)"><path opacity="0.73" d="M40.72 24.99L48.74 16.37 58.03 25.66 58.33 30.76 40.72 30.46V24.99Z" fill="url(#paint21_linear)"/></g><mask id="mask1" mask-type="alpha" maskUnits="userSpaceOnUse" x="48" y="7" width="23" height="24"><path d="M63.66 29.11L58.03 25.66 48.74 16.37 49.94 7 60.43 15.02 70.7 30.31 63.66 29.11Z" fill="url(#paint22_linear)"/></mask><g mask="url(#mask1)"><path opacity="0.78" d="M63.66 29.11L58.03 25.66 48.74 16.37 49.94 7 60.43 15.02 70.7 30.31 63.66 29.11Z" fill="url(#paint23_linear)"/></g><mask id="mask2" mask-type="alpha" maskUnits="userSpaceOnUse" x="30" y="29" width="14" height="35"><path d="M30.75 29.41L43.87 63.22 41.54 41.7 30.75 29.41Z" fill="url(#paint24_linear)"/></mask><g mask="url(#mask2)"><path opacity="0.51" d="M30.75 29.41L43.87 63.22 41.54 41.7 30.75 29.41Z" fill="url(#paint25_linear)"/><path opacity="0.78" d="M40.72 30.46L59.53 44.7 58.33 51.97 41.17 37.58 40.72 30.46Z" fill="white"/><path opacity="0.78" d="M41.54 40.36L58.03 54 57.81 55.2 41.54 41.7V40.36Z" fill="white"/><path opacity="0.78" d="M42.44 48.45L56.98 60.14 55.86 66.89 42.89 54.67 42.44 48.45Z" fill="white"/></g><mask id="mask3" mask-type="alpha" maskUnits="userSpaceOnUse" x="56" y="30" width="15" height="31"><path d="M60.28 40.36L70.7 30.31 65.6 49.5 56.98 60.14 60.28 40.36Z" fill="url(#paint26_linear)"/></mask><g mask="url(#mask3)"><path opacity="0.51" d="M60.28 40.36L70.7 30.31 65.6 49.5 56.98 60.14 58.33 50.78 60.28 40.36Z" fill="url(#paint27_linear)"/></g><mask id="mask4" mask-type="alpha" maskUnits="userSpaceOnUse" x="36" y="58" width="9" height="18"><path d="M36.9 58.34L44.32 68.39 44.84 75.88 39.07 68.69 36.9 58.34Z" fill="url(#paint28_linear)"/></mask><g mask="url(#mask4)"><path opacity="0.51" d="M36.9 58.34L44.32 68.39 44.84 75.88 39.07 68.69 36.9 58.34Z" fill="url(#paint29_linear)"/></g><path d="M41.31 30.45C42.59 30.45 43.93 30.45 45.2 30.38 46.75 30.3 48.31 30.3 49.86 30.16 48.31 30.09 46.75 30.02 45.2 29.95 43.93 29.95 42.66 29.88 41.38 29.88 42.09 29.17 42.8 28.4 43.5 27.69 44.42 26.7 45.34 25.71 46.19 24.65 45.2 25.57 44.21 26.49 43.22 27.41 42.51 28.11 41.74 28.89 41.03 29.6 41.03 27.83 41.03 26.07 40.96 24.3 40.96 22.32 40.89 20.41 40.75 18.43 40.68 20.41 40.61 22.32 40.54 24.3 40.54 26.07 40.47 27.76 40.47 29.53 39.69 28.61 38.91 27.69 38.13 26.77 37.21 25.71 36.3 24.65 35.31 23.66 36.15 24.79 37 25.92 37.85 27.05 38.63 28.04 39.41 28.96 40.18 29.95 38.7 29.95 37.29 29.95 35.8 30.02 34.25 30.09 32.69 30.09 31.14 30.23 32.69 30.3 34.25 30.38 35.8 30.45 37.29 30.45 38.7 30.52 40.18 30.52 39.26 31.44 38.42 32.35 37.57 33.27 36.65 34.26 35.73 35.25 34.88 36.31 35.87 35.39 36.86 34.47 37.85 33.56 38.77 32.71 39.62 31.79 40.54 30.87 40.54 32.64 40.54 34.33 40.61 36.1 40.61 38.08 40.68 39.99 40.82 41.96 40.89 39.99 40.96 38.08 41.03 36.1 41.03 34.4 41.1 32.64 41.1 30.94 41.88 31.86 42.59 32.71 43.36 33.63 44.28 34.69 45.2 35.75 46.19 36.74 45.34 35.6 44.49 34.47 43.65 33.34 42.87 32.35 42.09 31.44 41.31 30.45Z" fill="white"/></svg>