<svg width="100" height="101" viewBox="0 0 100 101" fill="none" xmlns="http://www.w3.org/2000/svg"><path fill-rule="evenodd" clip-rule="evenodd" d="M64.77 13.52H33.77L22 25.4V75.81L35.43 87.92H64.67L77.5 76.31V25.03L64.77 13.52Z" fill="white"/><path d="M75.5 25.92V75.42L71.8 73.12 64.5 68.62 62.9 67.62V33.72L64.5 32.72 71.8 28.22 75.5 25.92Z" fill="#755852"/><path d="M64.5 68.62L62.9 67.62 58.5 72.92 59.4 74.92 61.8 80.82 63.9 85.92 75.5 75.42 71.8 73.12 64.5 68.62Z" fill="#4F5352"/><path d="M62.9 33.72V67.62L58.5 72.92H41.3L36.7 67.32V33.92L41 28.22H58.4L62.9 33.72Z" fill="#2A1400"/><path d="M36.7 67.32L41.3 72.92 40.5 74.92 38.2 80.82 36.2 85.92 24 74.92 27.8 72.62 35.2 68.22 36.7 67.32Z" fill="#3F0100"/><path d="M27.8 28.52L24 26.22V74.92L27.8 72.62 35.2 68.22 36.7 67.32V33.92L35.2 33.02 27.8 28.52Z" fill="#511E1D"/><path d="M34.6 15.52L37.2 20.62 40.1 26.52 41 28.22 36.7 33.92 35.2 33.02 27.8 28.52 24 26.22 34.6 15.52Z" fill="#95908A"/><path fill-rule="evenodd" clip-rule="evenodd" d="M58.5 72.92L59.4 74.92 61.8 80.82 63.9 85.92H36.2L38.2 80.82 40.5 74.92 41.3 72.92H58.5Z" fill="#281F1A"/><path d="M75.5 25.92L71.8 28.22 64.5 32.72 62.9 33.72 58.4 28.22 59.2 26.52 61.8 20.62 64 15.52 75.5 25.92Z" fill="#4F5352"/><path d="M64 15.52L61.8 20.62 59.2 26.52 58.4 28.22H41L40.1 26.52 37.2 20.62 34.6 15.52H64Z" fill="#3F0100"/></svg>