<svg width="100" height="100" viewBox="0 0 100 100" fill="none" xmlns="http://www.w3.org/2000/svg"><defs><linearGradient id="paint0_linear" x1="61.37" y1="44.25" x2="73.05" y2="44.25" gradientUnits="userSpaceOnUse"><stop offset="0.12" stop-color="#006CBC"/><stop offset="0.41" stop-color="#009AD1"/><stop offset="1" stop-color="#00FFFF"/></linearGradient><linearGradient id="paint1_linear" x1="53.26" y1="49.85" x2="81.25" y2="49.85" gradientUnits="userSpaceOnUse"><stop stop-color="#2480D3"/><stop offset="0.1" stop-color="#1D99DC"/><stop offset="0.29" stop-color="#13BDE8"/><stop offset="0.47" stop-color="#0ADAF2"/><stop offset="0.65" stop-color="#05EFF9"/><stop offset="0.83" stop-color="#01FBFE"/><stop offset="1" stop-color="#00FFFF"/></linearGradient><linearGradient id="paint2_linear" x1="61.02" y1="56.4" x2="73.05" y2="56.4" gradientUnits="userSpaceOnUse"><stop stop-color="#00FFFF"/><stop offset="0.62" stop-color="#17AEE3"/><stop offset="1" stop-color="#2480D3"/></linearGradient><linearGradient id="paint3_linear" x1="54.65" y1="71.92" x2="65.6" y2="76.65" gradientUnits="userSpaceOnUse"><stop offset="0.27" stop-color="#006CBC"/><stop offset="0.51" stop-color="#009AD1"/><stop offset="1" stop-color="#00FFFF"/></linearGradient><linearGradient id="paint4_linear" x1="60.01" y1="16.27" x2="59.43" y2="40.83" gradientUnits="userSpaceOnUse"><stop offset="0.15" stop-color="#00FFFF"/><stop offset="0.64" stop-color="#009AD1"/><stop offset="0.88" stop-color="#006CBC"/></linearGradient><linearGradient id="paint5_linear" x1="27.39" y1="60.51" x2="38.82" y2="56.06" gradientUnits="userSpaceOnUse"><stop offset="0.08" stop-color="#5098F7"/><stop offset="0.12" stop-color="#4AA0F8"/><stop offset="0.31" stop-color="#2AC9FB"/><stop offset="0.49" stop-color="#13E7FD"/><stop offset="0.64" stop-color="#05F9FE"/><stop offset="0.75" stop-color="#00FFFF"/></linearGradient><linearGradient id="paint6_linear" x1="52.76" y1="90.59" x2="67.04" y2="53.01" gradientUnits="userSpaceOnUse"><stop offset="0.09" stop-color="#202020"/><stop offset="0.28" stop-color="#636363"/><stop offset="0.46" stop-color="#9B9B9B"/><stop offset="0.63" stop-color="#C6C6C6"/><stop offset="0.78" stop-color="#E5E5E5"/><stop offset="0.91" stop-color="#F8F8F8"/><stop offset="1" stop-color="white"/></linearGradient><linearGradient id="paint7_linear" x1="52.76" y1="90.59" x2="67.04" y2="53.01" gradientUnits="userSpaceOnUse"><stop stop-color="white"/><stop offset="1" stop-color="white"/></linearGradient><linearGradient id="paint8_linear" x1="27.4" y1="57.52" x2="51.85" y2="75.93" gradientUnits="userSpaceOnUse"><stop offset="0.02" stop-color="#0C0C0C"/><stop offset="0.14" stop-color="#444444"/><stop offset="0.25" stop-color="#767676"/><stop offset="0.37" stop-color="#A0A0A0"/><stop offset="0.49" stop-color="#C2C2C2"/><stop offset="0.61" stop-color="#DDDDDD"/><stop offset="0.74" stop-color="#F0F0F0"/><stop offset="0.86" stop-color="#FBFBFB"/><stop offset="1" stop-color="white"/></linearGradient><linearGradient id="paint9_linear" x1="27.4" y1="57.52" x2="51.85" y2="75.93" gradientUnits="userSpaceOnUse"><stop stop-color="white"/><stop offset="0.03" stop-color="white"/><stop offset="1" stop-color="white"/></linearGradient><linearGradient id="paint10_linear" x1="53.52" y1="18.07" x2="67.94" y2="41.33" gradientUnits="userSpaceOnUse"><stop offset="0.11" stop-color="white"/><stop offset="0.26" stop-color="#A0A0A0"/><stop offset="0.46" stop-color="#2E2E2E"/><stop offset="0.54"/></linearGradient><linearGradient id="paint11_linear" x1="53.52" y1="18.07" x2="67.94" y2="41.33" gradientUnits="userSpaceOnUse"><stop offset="0.11" stop-color="white"/><stop offset="0.54" stop-color="white"/></linearGradient></defs><path d="M49.81 90.46C50.54 91.05 51.57 91.05 52.3 90.48 57.85 86.13 63.59 79.4 67.91 72.01 72.21 64.64 75.25 56.37 75.06 48.93 74.84 40.34 71.28 32.32 66.52 25.44 61.74 18.56 55.67 12.71 50.23 8.43 49.5 7.85 48.46 7.86 47.74 8.44 35.72 18.15 25 33.93 25 49.92 25 57.5 28.16 65.15 32.77 72.08 37.38 79.02 43.55 85.4 49.81 90.46Z" fill="white"/><path d="M49.37 49.26C48.33 49.26 47.2 49.26 46.16 49.26 44.84 49.26 43.61 49.36 42.29 49.45 43.61 49.55 44.84 49.55 46.16 49.64 47.2 49.64 48.24 49.64 49.27 49.74 48.71 50.3 48.14 50.96 47.58 51.53 46.82 52.28 46.07 53.13 45.41 53.98 46.25 53.23 47.01 52.57 47.86 51.81 48.43 51.25 49.09 50.68 49.65 50.02 49.65 51.43 49.65 52.85 49.65 54.27 49.65 55.87 49.75 57.38 49.75 58.99 49.84 57.38 49.84 55.87 49.94 54.27 49.94 52.85 50.03 51.43 50.03 50.02 50.69 50.77 51.35 51.53 51.92 52.19 52.67 53.04 53.43 53.89 54.28 54.74 53.62 53.79 52.86 52.95 52.2 52 51.54 51.25 50.97 50.49 50.31 49.74 51.54 49.74 52.67 49.74 53.9 49.74 55.22 49.74 56.45 49.64 57.77 49.55 56.45 49.45 55.22 49.45 53.9 49.36 52.67 49.36 51.45 49.26 50.31 49.26 51.07 48.51 51.73 47.75 52.48 47 53.24 46.24 53.99 45.39 54.65 44.54 53.81 45.3 53.05 45.96 52.2 46.72 51.45 47.38 50.69 48.13 50.03 48.89 50.03 47.47 50.03 46.06 50.03 44.73 50.03 43.13 49.94 41.62 49.94 40.01 49.84 41.62 49.84 43.13 49.75 44.73 49.75 46.15 49.65 47.47 49.65 48.89 48.99 48.13 48.43 47.47 47.76 46.72 47.01 45.87 46.25 45.02 45.41 44.17 46.07 45.11 46.82 45.96 47.48 46.9 48.14 47.75 48.71 48.51 49.37 49.26Z" fill="white"/><path d="M73.06 48.98C73.06 49.45 73.06 49.92 73.06 50.3L61.18 43.43 61.36 43.22 70.89 38.13C72.21 41.62 72.97 45.21 73.06 48.98Z" fill="url(#paint0_linear)"/><path d="M73.06 50.3L60.98 56.34 61.36 43.41 73.06 50.3Z" fill="url(#paint1_linear)"/><path d="M60.98 56.34L72.97 50.3C72.87 54.55 71.93 58.61 70.51 62.48L60.98 56.34Z" fill="url(#paint2_linear)"/><path d="M70.98 38.22L61.18 43.55 64.89 26.8C67.15 30.2 69.47 34.07 70.98 38.22Z" fill="#00FFFF"/><path d="M60.98 56.34L70.54 62.4C69.31 65.61 67.87 68.61 66.17 71.35L60.98 56.34Z" fill="#00FFFF"/><path d="M61.3 56.13L66.17 71.16C66.17 71.26 66.28 71.2 66.17 71.45L54.37 64.73C54.37 64.73 54.28 64.46 54.37 64.46L60.91 56.13C60.91 56.03 61.3 56.13 61.3 56.13Z" fill="#2480D3"/><path d="M54.28 64.55L66.17 71.44C63.9 75.13 61.36 78.43 59 81.07L54.28 64.55Z" fill="url(#paint3_linear)"/><path d="M58.62 18.87L54.37 33.6V33.69L61.36 43.32 64.94 26.8C62.96 23.78 60.79 21.14 58.62 18.87Z" fill="url(#paint4_linear)"/><path d="M54.28 64.55L59.09 81.07C54.75 85.98 51.07 89 51.07 89L54.28 64.55Z" fill="#2480D3"/><path d="M58.62 18.87L54.37 33.6H54.28L48.9 10C48.99 10 53.52 13.3 58.62 18.87Z" fill="#2480D3"/><path d="M48.99 10L54.37 33.6 45.22 33.41 48.99 10Z" fill="#A2F0FD"/><path d="M54.57 64.37L51.07 88.91 46.54 64.37H54.57Z" fill="#00FFFF"/><path d="M46.54 64.37L51.07 88.91C51.07 88.91 46.35 85.41 41.06 79.66 41.06 79.66 46.54 64.37 46.54 64.37Z" fill="#5098F7"/><path d="M61.36 43.32L54.37 33.69 45.31 33.5 39.36 42.47V55.21L39.02 55.37 46.4 64.51 54.37 64.65 61.07 56.44 61.36 43.32ZM49.94 49.45L49.84 49.55 49.94 49.26V49.17H50.03L50.31 49.36 49.94 49.45Z" fill="#D2FDFF"/><path d="M48.99 10L45.33 33.9 40.78 18.02C45.22 13.02 48.99 10 48.99 10Z" fill="#5098F7"/><path d="M46.54 64.37L41.06 79.66C38.51 76.82 35.78 73.43 33.42 69.56L46.54 64.37Z" fill="#2480D3"/><path d="M39.27 55.21L46.54 64.37 33.42 69.56 39.27 55.21Z" fill="#35D0F2"/><path d="M45.22 33.41L39.27 42.37 33.8 27.56 45.22 33.41Z" fill="#00FFFF"/><path d="M45.96 34.12L33.8 27.56C35.97 23.97 38.6 20.5 40.87 17.86L45.96 34.12Z" fill="#00FFFF"/><path d="M39.27 42.37L27 49.26C27 44.64 27.94 40.2 29.55 36.05L39.27 42.37Z" fill="#35D0F2"/><path d="M39.27 42.37V55.12L39.18 55.21 27 49.26 39.27 42.37Z" fill="#5098F7"/><path d="M33.8 27.56L39.27 42.37 29.55 36.14C30.68 33.03 32.19 30.2 33.8 27.56Z" fill="#A2F0FD"/><path d="M39.46 55.17L27 49.26C27 49.45 27 49.74 27 49.92 27.09 53.61 27.85 57.19 29.08 60.59 30.21 63.8 31.72 66.82 33.42 69.56L39.46 55.17Z" fill="url(#paint5_linear)"/><path d="M39.27 42.37L31.62 37.47C31.62 37.47 33.89 31.61 35.87 28.41 38.14 24.91 44.27 17.36 44.27 17.36L39.27 42.37Z" fill="white"/><path opacity="0.7" d="M28.6 38.88L29.74 62.38 39.27 48.79 28.6 38.88Z" fill="white"/><path d="M45.22 33.41L54.37 33.6 58.05 38.79 41.25 57.76 39.27 55.21V42.37L45.22 33.41Z" fill="white"/><path d="M43.23 60.21L59.66 41.05 61.36 43.32 45.03 62.57 43.23 60.21Z" fill="white"/><path d="M52.11 60.59L59.09 51.72V49.36L48.99 61.53 52.11 60.59Z" fill="white"/><mask id="mask0" mask-type="alpha" maskUnits="userSpaceOnUse" x="52" y="56" width="17" height="31"><path d="M60.98 56.34L68.62 61.25 52.3 86.17 60.98 56.34Z" fill="url(#paint6_linear)"/></mask><g mask="url(#mask0)"><path opacity="0.8" d="M60.98 56.34L68.62 61.25 52.3 86.17 60.98 56.34Z" fill="url(#paint7_linear)"/></g><mask id="mask1" mask-type="alpha" maskUnits="userSpaceOnUse" x="35" y="55" width="14" height="30"><path d="M39.27 55.21L48.99 84.94 35.4 64.55 39.27 55.21Z" fill="url(#paint8_linear)"/></mask><g mask="url(#mask1)"><path opacity="0.8" d="M39.27 55.21L48.99 84.94 35.4 64.55 39.27 55.21Z" fill="url(#paint9_linear)"/></g><mask id="mask2" mask-type="alpha" maskUnits="userSpaceOnUse" x="48" y="10" width="16" height="20"><path d="M48.99 10L57.49 29.63 63.24 28.41C63.24 28.41 59.19 21.89 57.58 19.82 55.6 17.27 48.99 10 48.99 10Z" fill="url(#paint10_linear)"/></mask><g mask="url(#mask2)"><path opacity="0.54" d="M48.99 10L57.49 29.63 63.24 28.41C63.24 28.41 59.19 21.89 57.58 19.82 55.6 17.27 48.99 10 48.99 10Z" fill="url(#paint11_linear)"/></g><path d="M45.97 32.37C47.2 32.37 48.43 32.37 49.65 32.37 51.07 32.37 52.58 32.27 53.99 32.18 52.58 32.09 51.07 32.09 49.65 31.99 48.43 31.99 47.29 31.99 46.07 31.99 46.73 31.33 47.39 30.67 48.05 30.01 48.9 29.16 49.75 28.22 50.6 27.37 49.65 28.12 48.71 28.97 47.86 29.82 47.2 30.48 46.44 31.14 45.78 31.8 45.78 30.2 45.78 28.69 45.69 27.08 45.69 25.38 45.59 23.59 45.5 21.89 45.41 23.59 45.31 25.38 45.31 27.08 45.31 28.59 45.31 30.2 45.22 31.71 44.46 30.86 43.71 30.1 43.05 29.25 42.2 28.31 41.25 27.37 40.4 26.52 41.16 27.56 42.01 28.5 42.76 29.54 43.52 30.39 44.18 31.24 44.93 32.09 43.52 32.09 42.2 32.09 40.78 32.09 39.36 32.09 37.85 32.18 36.44 32.27 37.85 32.37 39.36 32.37 40.78 32.46 42.2 32.46 43.52 32.46 44.93 32.46 44.08 33.31 43.23 34.07 42.48 34.92 41.63 35.77 40.78 36.71 39.93 37.56 40.87 36.81 41.82 35.96 42.67 35.11 43.52 34.35 44.37 33.5 45.22 32.75 45.22 34.26 45.22 35.86 45.31 37.37 45.31 39.07 45.41 40.86 45.5 42.56 45.59 40.86 45.69 39.07 45.69 37.37 45.69 35.86 45.69 34.35 45.78 32.84 46.44 33.6 47.2 34.45 47.95 35.2 48.8 36.14 49.75 37.09 50.6 37.94 49.84 36.9 48.99 35.96 48.24 34.92 47.39 34.07 46.63 33.22 45.97 32.37Z" fill="white"/></svg>