<svg width="100" height="100" viewBox="0 0 100 100" fill="none" xmlns="http://www.w3.org/2000/svg"><defs><linearGradient id="paint0_linear" x1="66.54" y1="49.78" x2="75.65" y2="49.78" gradientUnits="userSpaceOnUse"><stop offset="0.03" stop-color="#C45F06"/><stop offset="0.18" stop-color="#C66307"/><stop offset="0.33" stop-color="#CC6E08"/><stop offset="0.47" stop-color="#D7810B"/><stop offset="0.6" stop-color="#E69B0F"/><stop offset="0.66" stop-color="#EEA911"/></linearGradient><linearGradient id="paint1_linear" x1="68.56" y1="21.13" x2="70.01" y2="47.34" gradientUnits="userSpaceOnUse"><stop offset="0.03" stop-color="#8D2C06"/><stop offset="0.23" stop-color="#912E06"/><stop offset="0.41" stop-color="#9C3506"/><stop offset="0.59" stop-color="#AF4005"/><stop offset="0.77" stop-color="#C95005"/><stop offset="0.78" stop-color="#CB5105"/></linearGradient><linearGradient id="paint2_linear" x1="62.61" y1="28.41" x2="74.24" y2="19.35" gradientUnits="userSpaceOnUse"><stop offset="0.03" stop-color="#8D2C06"/><stop offset="0.23" stop-color="#912E06"/><stop offset="0.41" stop-color="#9C3506"/><stop offset="0.59" stop-color="#AF4005"/><stop offset="0.77" stop-color="#C95005"/><stop offset="0.78" stop-color="#CB5105"/></linearGradient><linearGradient id="paint3_linear" x1="77.65" y1="68.94" x2="63" y2="57.07" gradientUnits="userSpaceOnUse"><stop stop-color="#F9FBC7"/><stop offset="0.46" stop-color="#FFFF3E"/><stop offset="0.87" stop-color="#F29611"/></linearGradient><linearGradient id="paint4_linear" x1="61.96" y1="74.63" x2="75.04" y2="74.63" gradientUnits="userSpaceOnUse"><stop offset="0.38" stop-color="#F9FBC7"/><stop offset="0.44" stop-color="#FAFBB6"/><stop offset="0.57" stop-color="#FCFD8A"/><stop offset="0.75" stop-color="#FFFF44"/><stop offset="0.76" stop-color="#FFFF3E"/><stop offset="0.81" stop-color="#FFFB3C"/><stop offset="0.86" stop-color="#FDEF37"/><stop offset="0.9" stop-color="#FBDB2F"/><stop offset="0.95" stop-color="#F7BF22"/><stop offset="0.99" stop-color="#F39B13"/><stop offset="1" stop-color="#F29611"/></linearGradient><linearGradient id="paint5_linear" x1="49.76" y1="22.46" x2="69.88" y2="22.46" gradientUnits="userSpaceOnUse"><stop offset="0.03" stop-color="#C45F06"/><stop offset="0.18" stop-color="#C66307"/><stop offset="0.33" stop-color="#CC6E08"/><stop offset="0.47" stop-color="#D7810B"/><stop offset="0.6" stop-color="#E69B0F"/><stop offset="0.66" stop-color="#EEA911"/></linearGradient><linearGradient id="paint6_linear" x1="31.08" y1="20.25" x2="69.88" y2="20.25" gradientUnits="userSpaceOnUse"><stop offset="0.03" stop-color="#8D2C06"/><stop offset="0.23" stop-color="#912E06"/><stop offset="0.41" stop-color="#9C3506"/><stop offset="0.59" stop-color="#AF4005"/><stop offset="0.77" stop-color="#C95005"/><stop offset="0.78" stop-color="#CB5105"/></linearGradient><linearGradient id="paint7_linear" x1="48.91" y1="70.15" x2="49.32" y2="83.49" gradientUnits="userSpaceOnUse"><stop offset="0.23" stop-color="#D04B04"/><stop offset="0.32" stop-color="#D14F05"/><stop offset="0.41" stop-color="#D55A06"/><stop offset="0.49" stop-color="#DB6D09"/><stop offset="0.57" stop-color="#E3870C"/><stop offset="0.65" stop-color="#EEA811"/><stop offset="0.65" stop-color="#EEA911"/></linearGradient><linearGradient id="paint8_linear" x1="54.28" y1="70.21" x2="54.67" y2="83.28" gradientUnits="userSpaceOnUse"><stop offset="0.23" stop-color="#D04B04"/><stop offset="0.32" stop-color="#D14F05"/><stop offset="0.41" stop-color="#D55A06"/><stop offset="0.49" stop-color="#DB6D09"/><stop offset="0.57" stop-color="#E3870C"/><stop offset="0.65" stop-color="#EEA811"/><stop offset="0.65" stop-color="#EEA911"/></linearGradient><linearGradient id="paint9_linear" x1="37.57" y1="48.14" x2="61.96" y2="48.14" gradientUnits="userSpaceOnUse"><stop stop-color="#FFF8CC"/><stop offset="0.22" stop-color="#FFF4BD"/><stop offset="0.63" stop-color="#FEEA95"/><stop offset="1" stop-color="#FEE06D"/></linearGradient><linearGradient id="paint10_linear" x1="31.08" y1="22.27" x2="49.76" y2="22.27" gradientUnits="userSpaceOnUse"><stop offset="0.03" stop-color="#C45F06"/><stop offset="0.18" stop-color="#C66307"/><stop offset="0.33" stop-color="#CC6E08"/><stop offset="0.47" stop-color="#D7810B"/><stop offset="0.6" stop-color="#E69B0F"/><stop offset="0.66" stop-color="#EEA911"/></linearGradient><linearGradient id="paint11_linear" x1="30.57" y1="74.45" x2="49.37" y2="74.45" gradientUnits="userSpaceOnUse"><stop offset="0.09" stop-color="#F9FBC7"/><stop offset="0.16" stop-color="#FAFBB6"/><stop offset="0.31" stop-color="#FCFD8A"/><stop offset="0.52" stop-color="#FFFF44"/><stop offset="0.54" stop-color="#FFFF3E"/><stop offset="0.63" stop-color="#FFFB3C"/><stop offset="0.72" stop-color="#FDEF37"/><stop offset="0.81" stop-color="#FBDB2F"/><stop offset="0.9" stop-color="#F7BF22"/><stop offset="0.99" stop-color="#F39B13"/><stop offset="1" stop-color="#F29611"/></linearGradient><linearGradient id="paint12_linear" x1="24.83" y1="35.01" x2="37.57" y2="35.01" gradientUnits="userSpaceOnUse"><stop offset="0.03" stop-color="#8D2C06"/><stop offset="0.23" stop-color="#912E06"/><stop offset="0.41" stop-color="#9C3506"/><stop offset="0.59" stop-color="#AF4005"/><stop offset="0.77" stop-color="#C95005"/><stop offset="0.78" stop-color="#CB5105"/></linearGradient><linearGradient id="paint13_linear" x1="40.17" y1="46.15" x2="28.42" y2="77.36" gradientUnits="userSpaceOnUse"><stop stop-color="#D04B04"/><stop offset="0.1" stop-color="#D25206"/><stop offset="0.24" stop-color="#D9640A"/><stop offset="0.41" stop-color="#E48312"/><stop offset="0.59" stop-color="#F3AD1D"/><stop offset="0.71" stop-color="#FECC25"/></linearGradient><linearGradient id="paint14_linear" x1="24.2" y1="74.45" x2="37.57" y2="74.45" gradientUnits="userSpaceOnUse"><stop offset="0.03" stop-color="#8D2C06"/><stop offset="0.23" stop-color="#912E06"/><stop offset="0.41" stop-color="#9C3506"/><stop offset="0.59" stop-color="#AF4005"/><stop offset="0.77" stop-color="#C95005"/><stop offset="0.78" stop-color="#CB5105"/></linearGradient><linearGradient id="paint15_linear" x1="24.03" y1="47.65" x2="34.18" y2="47.65" gradientUnits="userSpaceOnUse"><stop stop-color="#F29611"/><stop offset="0.54" stop-color="#FFFF3E"/><stop offset="0.63" stop-color="#FFFF41"/><stop offset="0.71" stop-color="#FEFF4C"/><stop offset="0.78" stop-color="#FEFE5D"/><stop offset="0.85" stop-color="#FDFD76"/><stop offset="0.92" stop-color="#FBFC95"/><stop offset="0.98" stop-color="#FAFBBB"/><stop offset="1" stop-color="#F9FBC7"/></linearGradient></defs><path fill-rule="evenodd" clip-rule="evenodd" d="M77.68 23.8C77.09 19.92 74.49 16.79 71.07 15.17 70.73 14.94 70.34 14.81 69.93 14.8 68.84 14.46 67.62 14.2 66.47 14.11 66.41 14.1 66.36 14.1 66.3 14.1H33.7C32.53 14.1 31.43 14.36 30.61 14.56 27.37 15.37 24.72 17.68 23.31 20.56 23.16 20.73 23.04 20.92 22.95 21.13 22.37 22.54 22 24.1 22 25.7V71.7C22 72.47 22.12 73.21 22.22 73.77L22.23 73.83C22.25 73.97 22.29 74.1 22.34 74.23 23.26 77.98 26 81.06 29.52 82.44 29.65 82.5 29.78 82.56 29.91 82.6 31.04 82.95 32.24 83.2 33.6 83.2L66.28 83.2C66.76 83.2 67.43 83.2 68.07 83.1 68.41 83.09 68.74 82.99 69.03 82.82 72.67 81.99 75.48 79.43 76.93 76.22 77.07 75.9 77.12 75.56 77.09 75.24 77.48 74.08 77.7 72.83 77.7 71.5V25.7C77.7 25.36 77.67 25 77.64 24.75L77.63 24.62C77.7 24.35 77.72 24.07 77.68 23.8ZM24.22 73.5C24.22 73.5 24.22 73.5 24.22 73.5Z" fill="white"/><path d="M75.7 25.7V71.5C75.7 72.9 75.4 74.2 74.9 75.4L66.6 48.1 75.6 24.1C75.6 24.6 75.7 25.2 75.7 25.7Z" fill="url(#paint0_linear)"/><path d="M75.7 24.1L66.7 48.1 62 28.1 75.7 24.1Z" fill="url(#paint1_linear)"/><path d="M75.7 24.1L61.9 28.1 69.8 16.8C72.9 18.1 75.2 20.8 75.7 24.1Z" fill="url(#paint2_linear)"/><path d="M66.7 48.1L75 75.4 62 68.2 66.7 48.1Z" fill="url(#paint3_linear)"/><path d="M62 68.2L75.1 75.4C73.8 78.3 71.2 80.5 67.9 81L62 68.2Z" fill="url(#paint4_linear)"/><path d="M69.9 16.8L62 28.1 49.8 24.2 69.9 16.8Z" fill="url(#paint5_linear)"/><path d="M69.9 16.9L49.8 24.2 31.1 16.5C31.9 16.3 32.8 16.1 33.7 16.1H66.3C67.5 16.2 68.8 16.5 69.9 16.9Z" fill="url(#paint6_linear)"/><path d="M62 68.2L68.01 81.1C68.01 81.1 67.9 81.1 67.8 81.1 63.36 79.32 59 77.3 54.5 75.4L54.1 75.2 49.2 73.1 62 68.2Z" fill="#EF9904"/><path d="M67.9 81.1C67.4 81.2 66.8 81.2 66.2 81.2H33.6C32.5 81.2 31.5 81 30.5 80.69L49.3 73.04 54.2 75.18C54.3 75.28 54.5 75.28 54.6 75.38L65.84 80.3 67.9 81.1Z" fill="url(#paint7_linear)"/><path d="M62 28.1L66.7 48.1 62 68.2V28.1Z" fill="#D16907"/><path d="M62 28.1V68.2H37.6V40.1 28.1H62Z" fill="#FFF8CC"/><path d="M62 28.1H37.6L49.8 24.2 62 28.1Z" fill="#BB5610"/><path d="M62 68.2L49.4 73.2 37.6 68.2H62Z" fill="#FDFF3D"/><path d="M54.2 75.3L54.6 75.5C54.5 75.4 54.4 75.3 54.2 75.3Z" fill="url(#paint8_linear)"/><path d="M62 28.1V51.9L37.6 68.2V40.1L62 28.1Z" fill="url(#paint9_linear)"/><path d="M49.8 24.2L37.6 28.1 31.1 16.5 49.8 24.2Z" fill="url(#paint10_linear)"/><path d="M49.4 73.2L30.6 80.7 37.6 68.2 49.4 73.2Z" fill="url(#paint11_linear)"/><path d="M37.6 28.1V68.2L34.2 48.1 37.6 28.1Z" fill="#FFF9D9"/><path d="M31.1 16.5L37.6 28.1 24.9 21.9C26 19.3 28.3 17.2 31.1 16.5Z" fill="#FFFFCF"/><path d="M37.6 28.1L34.2 48.1 24.8 21.9 37.6 28.1Z" fill="url(#paint12_linear)"/><path d="M34.2 48.1L37.6 68.2 24.2 73.4 34.2 48.1Z" fill="url(#paint13_linear)"/><path d="M37.6 68.2L30.6 80.7C27.4 79.6 24.9 76.8 24.2 73.4L37.6 68.2Z" fill="url(#paint14_linear)"/><path d="M24.8 21.9L34.2 48.2 24.2 73.5C24.1 72.9 24 72.3 24 71.7V25.7C24 24.4 24.3 23.1 24.8 21.9Z" fill="url(#paint15_linear)"/><path d="M38.2 28.3C39.3 28.3 40.5 28.3 41.6 28.3 43 28.3 44.3 28.2 45.7 28.1 44.3 28 43 28 41.6 27.9 40.5 27.9 39.4 27.9 38.3 27.9 38.9 27.3 39.5 26.6 40.1 26 40.9 25.2 41.7 24.3 42.4 23.4 41.5 24.2 40.7 25 39.8 25.8 39.2 26.4 38.5 27 37.9 27.7 37.9 26.2 37.9 24.7 37.9 23.2 37.9 21.5 37.8 19.9 37.7 18.2 37.6 19.9 37.6 21.5 37.5 23.2 37.5 24.7 37.5 26.2 37.5 27.7 36.8 26.9 36.1 26.1 35.4 25.3 34.6 24.4 33.8 23.5 32.9 22.6 33.6 23.6 34.4 24.5 35.1 25.5 35.8 26.3 36.5 27.1 37.1 28 35.8 28 34.5 28 33.3 28 31.9 28 30.6 28.1 29.2 28.2 30.6 28.3 31.9 28.3 33.3 28.4 34.6 28.4 35.9 28.4 37.2 28.4 36.4 29.2 35.6 30 34.9 30.8 34.1 31.6 33.3 32.5 32.6 33.4 33.5 32.6 34.3 31.8 35.2 31 36 30.2 36.8 29.5 37.5 28.7 37.5 30.2 37.5 31.7 37.5 33.2 37.5 34.9 37.6 36.5 37.7 38.2 37.8 36.5 37.8 34.9 37.9 33.2 37.9 31.7 37.9 30.3 37.9 28.8 38.6 29.6 39.2 30.3 39.9 31.1 40.7 32 41.5 32.9 42.4 33.8 41.7 32.8 40.9 31.9 40.2 30.9 39.6 29.9 38.9 29.1 38.2 28.3Z" fill="white"/></svg>