<svg width="100" height="100" viewBox="0 0 100 100" fill="none" xmlns="http://www.w3.org/2000/svg"><path d="M23.79 43.09C23.79 45.39 25.02 55.38 29.45 65.87 33.01 74.42 39.11 83.28 47.48 88.34 48.09 89.02 49.1 89.21 49.93 88.75 52.76 87.18 55.51 85.17 57.83 83.21 57.93 83.15 58.03 83.08 58.12 83 62.01 79.55 64.98 75.57 67.47 71.68L67.49 71.65C72.5 63.56 75.51 54.31 76.62 44.93L76.62 44.93C76.66 44.59 76.7 44.19 76.73 43.83 76.75 43.59 76.78 43.37 76.79 43.18L76.8 43.14C76.89 42.3 76.99 41.35 76.99 40.34V40.33C76.99 39.69 76.99 39.06 76.97 38.44 76.98 38.36 76.99 38.28 76.99 38.2V35.48C76.99 35.41 76.99 35.35 76.98 35.28 76.89 34.36 76.77 33.47 76.62 32.62 76.51 31.97 76.35 31.23 76.14 30.44 75.39 27.52 74.28 25.12 73 23.01 72.94 22.91 72.87 22.82 72.79 22.73 71.05 19.96 68.69 17.69 65.98 16.1 64.35 15.05 62.73 14.37 61.13 13.73 61.1 13.72 61.06 13.7 61.02 13.69 59.12 13.05 56.97 12.51 54.78 12.26 54.64 12.23 54.5 12.21 54.36 12.21L54.03 12.21 53.81 12.19C52.78 12.1 51.72 12 50.55 12 46.68 12 42.84 12.55 39.29 13.92 38.55 14.17 37.84 14.52 37.26 14.86 33.54 16.51 30.41 19.21 28.11 23 26.08 26.28 24.64 30.37 24.06 35.24 24.05 35.28 24.04 35.32 24.03 35.36 23.68 37.49 23.62 39.67 23.74 41.75 23.77 42.24 23.79 42.67 23.79 43.09Z" fill="white"/><path d="M71.25 24.05L66.77 39.03 71.68 57.82C72.53 55.28 73.26 52.51 73.68 50.5L70.08 44.15V37.02L71.47 41.99 71.88 36.53 74.95 38.2C74.95 38.09 74.95 35.79 74.95 35.69 74.95 35.58 74.95 35.48 74.95 35.48 74.47 30.55 73.05 27.01 71.25 24.05Z" fill="#6D2E03"/><path d="M57.92 68.06L59.93 68.7 64.9 64.99 62.89 64.36 62.68 64.15 60.99 65.42 57.92 68.06Z" fill="#F9FDB9"/><path d="M54.43 57.69L56.65 64.36 59.4 59.07 54.11 56.74 54.43 57.69Z" fill="#8F4803"/><path d="M59.4 59.07L56.65 64.36 57.92 68.06 60.99 65.42 62.15 53.57 59.4 59.07Z" fill="#FEFB73"/><path d="M29.78 37.17V38.97L33.48 38.02 34.64 36.01 29.78 37.17Z" fill="#BE4511"/><path d="M31.26 41.72L32.63 51.98 35.59 44.89 31.26 41.72Z" fill="#BD5D09"/><path d="M31.26 65.1C33.37 70.18 36.33 75.47 40.36 79.91L37.5 71.02 31.26 65.1Z" fill="#E6A517"/><path d="M46.6 82.87L40.36 79.81C42.79 82.56 45.64 84.99 48.92 86.89L46.6 82.87Z" fill="#E6A517"/><path d="M50.93 82.87L48.92 87C51.78 85.41 54.6 83.32 56.93 81.31L51.04 82.7 50.93 82.87Z" fill="#D5700A"/><path d="M50.93 82.87H51.04L56.75 81.39 55.27 73.67 50.93 82.87Z" fill="#F28611"/><path d="M51.04 77.58L48.92 87 50.93 82.87 55.27 73.67 57.92 68.06 56.65 64.36 54.43 57.69 56.01 68.27 51.04 77.58Z" fill="#C3920D"/><path d="M62.89 64.36L65.01 64.99 60.03 68.7 65.75 70.5C68.5 66.05 70.4 61.5 71.78 57.48L64.05 63.2 62.78 64.15 62.89 64.36Z" fill="#E6A517"/><path d="M57.92 68.06L55.27 73.67 56.75 81.5C60.46 78.22 63.31 74.41 65.75 70.6L60.03 68.8 57.92 68.06Z" fill="#8B4605"/><path d="M69.98 36.53V44.15L73.58 50.5C74.32 47.43 74.53 45.21 74.63 44.36 74.74 42.99 74.95 41.72 74.95 40.34 74.95 38.76 74.95 37.38 74.74 35.9L71.67 36.53 71.57 41.72 69.98 36.53Z" fill="#D78A13"/><path d="M64.37 46.9L63.95 53.25 65.64 52.51 63.95 63.2 71.67 57.48 66.91 38.97 64.37 46.9Z" fill="#873302"/><path d="M62.15 53.57L60.99 65.42 62.68 64.15 63.95 63.2 65.64 52.51 63.95 53.25 64.37 46.9 62.15 53.57Z" fill="#A74303"/><path d="M38.56 67.32L35.59 59.7 37.39 71.02 40.36 79.91 46.6 82.87 42.79 76.31 38.56 67.32Z" fill="#A33707"/><path d="M46.6 64.99L48.71 68.27 54.11 56.74 54.43 57.69 56.01 68.27 51.04 77.58 42.79 76.31 46.6 64.99Z" fill="#F9DE3B"/><path d="M41.1 62.88L38.56 67.32 42.79 76.31 46.6 64.99 41.1 62.88Z" fill="#FAA62C"/><path d="M32.63 51.98L31.26 65.1 37.39 71.02 35.59 59.7 32.63 51.98Z" fill="#541014"/><path d="M35.59 44.89L38.56 67.32 41.1 62.88 39.93 59.81 42.79 50.5 40.88 43.62 35.59 44.89Z" fill="#7F3002"/><path d="M35.59 59.7L38.56 67.32 35.59 44.89 32.63 51.98 35.59 59.7Z" fill="#AA3302"/><path d="M25.65 40.34C25.65 41.19 25.76 42.14 25.76 43.09L32.63 51.98 31.26 41.82 25.97 39.81H25.65C25.65 39.92 25.65 40.13 25.65 40.34Z" fill="#742E02"/><path d="M25.76 43.09C25.76 45.1 26.92 54.84 31.26 65.1L32.63 51.98 25.76 43.09Z" fill="#8F3105"/><path d="M42.79 76.31L46.6 82.87 48.92 87 51.04 77.58 42.79 76.31Z" fill="#F0FC25"/><path d="M25.66 39.84H25.98L31.27 41.86 33.48 37.91 29.78 38.86V37.17L34.64 35.9 35.7 34.1 25.97 35.69C25.76 36.96 25.66 38.46 25.66 39.84Z" fill="#571302"/><path d="M29.78 24.05C27.87 27.12 26.5 31.03 25.97 35.79L35.7 34.21 31.26 26.48 29.78 24.05Z" fill="#79340C"/><path d="M34.64 36.01L33.48 38.02 31.26 41.72 35.59 44.89 40.88 43.62 42.79 38.23 35.7 34.21 34.64 36.01Z" fill="#350B00"/><path d="M38.87 31.88V31.99L42.79 38.23 48.92 41.72 39.93 31.25 38.87 31.88Z" fill="#B36A0C"/><path d="M35.7 34.21L42.79 38.23 38.87 31.99 35.7 34.21Z" fill="#6F2409"/><path d="M31.26 26.48L35.7 34.21 38.87 31.99V31.88L39.93 31.25 42.05 29.66 43.53 24.47 31.26 26.48Z" fill="#CAA095"/><path d="M29.78 24.05L31.26 26.48 43.53 24.47 45.64 22.15 39.93 15.8C39.3 16.01 38.66 16.33 38.13 16.64 34.75 18.13 31.89 20.56 29.78 24.05Z" fill="#E1D1C8"/><path d="M39.93 15.8L45.64 22.15 50.51 14C46.81 14 43.21 14.53 39.93 15.8Z" fill="#522010"/><path d="M50.51 14L45.64 22.15 50.41 17.6 53.9 14.21C52.73 14.11 51.68 14 50.51 14Z" fill="#801E02"/><path d="M53.9 14.21L50.41 17.6 55.38 15.9 54.32 14.21C54.11 14.21 54 14.21 53.9 14.21Z" fill="#FEE844"/><path d="M45.64 22.15L50.3 23.31 59.4 22.15 55.27 15.9 50.3 17.6 45.64 22.15Z" fill="#8C3116"/><path d="M54.21 14.21L55.27 15.9 59.4 22.25 60.56 21.19 64.9 17.81C63.42 16.86 61.94 16.22 60.35 15.59 58.45 14.95 56.33 14.42 54.21 14.21Z" fill="#CF5706"/><path d="M64.9 17.81L60.56 21.19 60.67 23.42H60.88L64.9 21.19 65.49 23.23 60.88 26.46V26.59L61.2 32.83 71.23 24.08C69.65 21.44 67.44 19.29 64.9 17.81Z" fill="#AA490A"/><path d="M60.77 23.31L60.88 26.48H60.99L65.64 23.31 64.9 21.09 60.99 23.31H60.77Z" fill="#F87B0A"/><path d="M59.4 22.15L60.99 33.04 61.3 32.83 60.88 26.48 60.77 23.31 60.67 21.09 59.4 22.15Z" fill="#FDD85D"/><path d="M50.3 23.31L60.99 33.04 59.4 22.15 50.3 23.31Z" fill="#FED542"/><path d="M51.04 28.39L48.92 41.72 60.99 33.04 50.3 23.31 49.67 29.13 51.04 28.39Z" fill="#E6B11F"/><path d="M39.93 31.24L48.92 41.72 51.04 28.39 49.67 29.13 50.3 23.31 45.64 22.15 43.53 24.47 42.05 29.66 39.93 31.24Z" fill="#9E5905"/><path d="M42.79 38.23L40.88 43.62 48.92 41.72 42.79 38.23Z" fill="#BF660D"/><path d="M40.88 43.62L42.79 50.5 43.95 54.52 48.92 41.72 40.88 43.62Z" fill="#B77109"/><path d="M61.22 32.68L60.99 33.04 66.91 38.97 71.25 24.05 61.22 32.68Z" fill="#993B06"/><path d="M48.92 41.72L66.91 38.97 60.99 33.04 48.92 41.72Z" fill="#441701"/><path d="M48.92 41.72L60.99 47.96 62.15 53.57 64.37 46.9 66.91 38.97 48.92 41.72Z" fill="#2C0E07"/><path d="M48.92 41.72L54.11 56.74 59.4 59.07 62.15 53.57 60.99 47.96 48.92 41.72Z" fill="#531801"/><path d="M42.79 50.5L39.93 59.81 41.1 62.88 46.6 64.99 48.71 68.27 54.11 56.74 48.92 41.72 43.95 54.52 42.79 50.5Z" fill="#E5A116"/><path opacity="0.29" d="M60.99 15.9C60.99 15.9 67.97 18.23 71.88 25.32 75.16 31.25 74.84 36.01 74.84 36.01L72.31 48.17 70.93 32.51 65.96 25.21 61.51 19.5 60.99 15.9Z" fill="white"/><path opacity="0.5" d="M50.72 23.31L35.14 34.59 39.4 53.04 51.36 78.64 62.47 54.1 67.44 38.97 61.51 33.04 50.72 23.31Z" fill="#E1D1C8"/><path d="M59.93 68.7L50.93 82.87 57.92 68.06 59.93 68.7Z" fill="#FEFB73"/><path d="M35.91 33.47C34.75 33.47 33.48 33.47 32.31 33.47 30.83 33.47 29.46 33.36 27.98 33.26 29.46 33.15 30.83 33.15 32.31 33.04 33.48 33.04 34.64 33.04 35.81 33.04 35.17 32.41 34.54 31.67 33.9 31.03 33.06 30.19 32.21 29.23 31.47 28.28 32.42 29.13 33.27 29.87 34.22 30.72 34.85 31.35 35.59 31.99 36.23 32.73 36.23 31.14 36.23 29.55 36.23 27.97 36.23 26.17 36.33 24.47 36.44 22.68 36.55 24.47 36.55 26.17 36.65 27.97 36.65 29.55 36.65 31.14 36.65 32.73 37.39 31.88 38.13 31.03 38.87 30.29 39.72 29.34 40.57 28.39 41.52 27.44 40.78 28.49 39.93 29.45 39.19 30.5 38.45 31.35 37.82 32.2 37.08 33.04 38.45 33.04 39.72 33.04 41.1 33.04 42.58 33.04 43.95 33.15 45.43 33.26 43.95 33.36 42.58 33.36 41.1 33.47 39.72 33.47 38.34 33.47 37.08 33.47 37.92 34.31 38.66 35.16 39.51 36.01 40.36 36.85 41.2 37.8 41.94 38.76 40.99 37.91 40.14 37.17 39.19 36.32 38.34 35.58 37.5 34.74 36.76 33.89 36.76 35.48 36.76 37.06 36.76 38.54 36.76 40.34 36.65 42.04 36.55 43.83 36.44 42.04 36.44 40.34 36.33 38.54 36.33 36.96 36.33 35.48 36.33 33.89 35.59 34.74 34.96 35.48 34.22 36.32 33.37 37.28 32.53 38.23 31.57 39.18 32.31 38.12 33.16 37.17 33.9 36.11 34.43 35.27 35.17 34.42 35.91 33.47Z" fill="white"/></svg>