<svg width="100" height="100" viewBox="0 0 100 100" fill="none" xmlns="http://www.w3.org/2000/svg"><defs><linearGradient id="paint0_linear" x1="69.39" y1="52.44" x2="79.18" y2="34.04" gradientUnits="userSpaceOnUse"><stop offset="0.2" stop-color="#4C7700"/><stop offset="0.6" stop-color="#84AF00"/></linearGradient><linearGradient id="paint1_linear" x1="17.03" y1="61.59" x2="38.66" y2="61.59" gradientUnits="userSpaceOnUse"><stop offset="0.31" stop-color="#274600"/><stop offset="0.68" stop-color="#84AF00"/></linearGradient><linearGradient id="paint2_linear" x1="59.13" y1="58.1" x2="82.37" y2="58.1" gradientUnits="userSpaceOnUse"><stop offset="0.1" stop-color="#619500"/><stop offset="0.29" stop-color="#4B7800"/><stop offset="0.52" stop-color="#375C00"/><stop offset="0.71" stop-color="#2B4C00"/><stop offset="0.86" stop-color="#274600"/></linearGradient><radialGradient id="paint3_radial" cx="0" cy="0" r="1" gradientUnits="userSpaceOnUse" gradientTransform="translate(63.0063 49.6014) scale(6.66456 7.07243)"><stop offset="0.07" stop-color="#274600"/><stop offset="0.31" stop-color="#294900"/><stop offset="0.5" stop-color="#2F5300"/><stop offset="0.68" stop-color="#386500"/><stop offset="0.78" stop-color="#407200"/></radialGradient><linearGradient id="paint4_linear" x1="33.04" y1="21.12" x2="57.14" y2="27.31" gradientUnits="userSpaceOnUse"><stop offset="0.56" stop-color="#4C7700"/><stop offset="0.79" stop-color="#84BE00"/></linearGradient><linearGradient id="paint5_linear" x1="55.36" y1="62.37" x2="70.58" y2="76.49" gradientUnits="userSpaceOnUse"><stop offset="0.42" stop-color="#84AF00"/><stop offset="0.56" stop-color="#4C7700"/></linearGradient><linearGradient id="paint6_linear" x1="50.39" y1="86.53" x2="50.56" y2="64.25" gradientUnits="userSpaceOnUse"><stop offset="0.35" stop-color="#A5DF1A"/><stop offset="0.49" stop-color="#81B412"/><stop offset="0.65" stop-color="#5E8A0A"/><stop offset="0.79" stop-color="#446B05"/><stop offset="0.91" stop-color="#355901"/><stop offset="1" stop-color="#2F5200"/></linearGradient><linearGradient id="paint7_linear" x1="18.03" y1="41.48" x2="37.05" y2="47.99" gradientUnits="userSpaceOnUse"><stop offset="0.5" stop-color="#4C7700"/><stop offset="0.78" stop-color="#84AF00"/></linearGradient><linearGradient id="paint8_linear" x1="32.08" y1="44" x2="60.18" y2="49.86" gradientUnits="userSpaceOnUse"><stop offset="0.37" stop-color="#0B3700"/><stop offset="0.45" stop-color="#133F00"/><stop offset="0.57" stop-color="#275300"/><stop offset="0.72" stop-color="#4A7500"/><stop offset="0.88" stop-color="#79A400"/><stop offset="0.91" stop-color="#84AF00"/></linearGradient><linearGradient id="paint9_linear" x1="39.89" y1="67.09" x2="57.25" y2="70.1" gradientUnits="userSpaceOnUse"><stop stop-color="#183600"/><stop offset="0.74" stop-color="#84AF00"/></linearGradient><linearGradient id="paint10_linear" x1="60.57" y1="31.99" x2="59.07" y2="11.01" gradientUnits="userSpaceOnUse"><stop offset="0.16" stop-color="#84AF00"/><stop offset="0.34" stop-color="#4C7700"/></linearGradient></defs><path d="M15.55 53.38L32.67 71.39C32.72 71.46 32.77 71.52 32.82 71.58L48.89 89.34C49.28 89.77 49.83 90.01 50.4 90 50.98 89.99 51.52 89.74 51.89 89.3L68.7 69.7C68.73 69.68 68.75 69.65 68.77 69.62L79.72 55.45C79.92 55.32 80.11 55.16 80.26 54.96L83.98 50.17C84.5 49.5 84.53 48.62 84.13 47.93L80.28 38.3C80.17 38.05 80.02 37.82 79.83 37.62L70.81 28.69 70.8 28.68 69.34 27.22C69.29 27.17 69.24 27.13 69.19 27.08L51.54 9.58C51.13 9.17 50.56 8.96 49.99 9.01 49.41 9.05 48.88 9.33 48.53 9.8L40.29 20.72C40.18 20.82 40.08 20.92 40 21.04L35.3 27.35 30.21 34.09 25.05 39.97C24.89 40.07 24.73 40.2 24.6 40.35L15.5 50.68C14.81 51.46 14.84 52.63 15.55 53.38Z" fill="white"/><path d="M80.14 43.39L82.36 48.88 70.14 55.53 62.35 47.16 66.53 36.99 80.14 43.39Z" fill="url(#paint0_linear)"/><path d="M17.16 52C17.82 52.08 26.84 53.64 26.84 53.64L30.69 59.3C30.69 59.3 33.24 59.63 36.76 60.2L34.88 63.48 38.65 71.11 34.38 70.29 17 52H17.16Z" fill="url(#paint1_linear)"/><path d="M40.04 73.9L50.37 88 34.31 70.24 38.62 70.98 40.04 73.9Z" fill="#A5DB46"/><path d="M82.36 48.88L78.58 53.64 59.15 67.34 61.04 63.56 63.09 59.38 70.14 55.53 82.36 48.88Z" fill="url(#paint2_linear)"/><path d="M62.35 47.16L70.14 55.53 63.09 59.38 58.82 43.39 62.35 47.16Z" fill="url(#paint3_radial)"/><path d="M50.13 11L56.61 40.19 31.76 35.35 50.13 11Z" fill="url(#paint4_linear)"/><path d="M63.09 59.38L61.04 63.56C61.04 63.65 57.26 63.15 52.51 62.5 47.5 61.84 41.27 60.94 36.76 60.28 33.15 59.79 30.69 59.38 30.69 59.38L17.08 52C29.55 54.13 63.09 59.38 63.09 59.38Z" fill="#283D00"/><path d="M59.15 67.34L78.58 53.64 67.19 68.4 50.37 88 59.15 67.34Z" fill="url(#paint5_linear)"/><path d="M61.04 63.56L59.15 67.34 50.37 88 40.04 73.9 41.03 72.99 52.51 62.42C57.26 63.15 60.95 63.65 61.04 63.56Z" fill="url(#paint6_linear)"/><path d="M69.4 30.11L66.53 36.99 62.35 47.16 58.82 43.39 54.31 26.74 59.31 34.7 69.4 30.11Z" fill="#113000"/><path d="M31.76 35.35L37.25 54.05 17.25 52.08C17.16 52.08 17.08 52.08 17.08 52.08L31.76 35.35Z" fill="url(#paint7_linear)"/><path d="M56.61 40.19L60.22 56.76 37.25 54.05 31.76 35.35 56.61 40.19Z" fill="url(#paint8_linear)"/><path d="M78.42 39.04L80.14 43.39 66.53 36.99 69.4 30.11 78.42 39.04Z" fill="#407200"/><path d="M37.25 54.05L60.3 56.84 56.61 40.19 50.13 11 54.39 26.74 58.82 43.39 63.09 59.38 17.16 52C17.16 52 17.82 52.08 17.16 52L37.25 54.05Z" fill="#D2FF97"/><path d="M52.51 62.5L41.03 73.08 40.04 73.98 38.65 71.19 34.88 63.56 36.76 60.28C41.27 60.86 47.42 61.76 52.51 62.5Z" fill="url(#paint9_linear)"/><path d="M69.4 30.11L59.31 34.7 54.31 26.74 50.13 11 69.4 30.11Z" fill="url(#paint10_linear)"/><path d="M82.34 48.89L78.62 53.68 78.68 53.73 82.4 48.94 82.34 48.89Z" fill="black"/><path d="M40.04 73.9L50.37 88 63.09 59.38 61.04 59.05 50.37 88 40.04 73.9Z" fill="#C0FF45"/><path opacity="0.53" d="M26.1 41.67L53.66 26.99 55.46 35.19 24.54 52.74 17 52 26.1 41.67Z" fill="white"/><path opacity="0.53" d="M28.73 53.15L55.79 38.39 56.44 41.26 33.48 53.56 28.73 53.15Z" fill="white"/><path opacity="0.53" d="M34.88 31.25L52.1 19.77 51.36 16.49 41.6 22.23 34.88 31.25Z" fill="white"/><path opacity="0.53" d="M44.14 51.26L55.46 44.78V47.16L47.59 51.84 44.14 51.26Z" fill="white"/><path opacity="0.09" d="M53.66 78.32L32.66 54.54 45.04 56.51 56.61 72.5 53.66 78.32Z" fill="white"/><path opacity="0.09" d="M52.1 81.52L26.84 53.64 17.16 52 52.1 84.64V81.52Z" fill="white"/><path opacity="0.15" d="M78.42 39.04L56.44 34.7 63.09 59.38 82.36 48.89 78.42 39.04Z" fill="white"/><path opacity="0.15" d="M73.34 34.04L55.21 30.11 53.08 21.99 67.92 28.63 73.34 34.04Z" fill="white"/><path opacity="0.15" d="M50.13 11L59.72 20.51 51.36 16.49 50.13 11Z" fill="white"/><path opacity="0.39" d="M67.35 38.39L80.96 45.6 82.11 48.47 70.96 46.83 67.35 38.39Z" fill="white"/><path d="M82.36 48.88L62.35 56.76 63.09 59.38 82.36 48.88Z" fill="#C2FF4D"/><path d="M60.95 56.84C62.18 56.84 63.41 56.84 64.64 56.76 66.12 56.76 67.6 56.68 69.07 56.59 67.6 56.51 66.12 56.43 64.64 56.43 63.41 56.43 62.27 56.35 61.04 56.35 61.69 55.69 62.35 54.95 63 54.3 63.91 53.4 64.73 52.49 65.55 51.51 64.56 52.33 63.66 53.23 62.76 54.05 62.02 54.71 61.36 55.36 60.71 56.1 60.71 54.46 60.71 52.82 60.63 51.18 60.63 49.38 60.54 47.57 60.46 45.77 60.38 47.57 60.3 49.38 60.3 51.18 60.3 52.82 60.22 54.46 60.22 56.02 59.48 55.2 58.74 54.3 58 53.48 57.1 52.49 56.2 51.51 55.3 50.61 56.12 51.67 56.94 52.74 57.76 53.72 58.49 54.63 59.23 55.53 59.97 56.35 58.58 56.35 57.18 56.35 55.79 56.43 54.31 56.43 52.83 56.51 51.36 56.59 52.83 56.68 54.31 56.76 55.79 56.76 57.18 56.76 58.58 56.84 59.97 56.84 59.15 57.66 58.33 58.56 57.43 59.38 56.53 60.28 55.71 61.19 54.89 62.17 55.87 61.35 56.77 60.53 57.67 59.63 58.49 58.81 59.4 57.99 60.22 57.17 60.22 58.81 60.22 60.37 60.3 62.01 60.3 63.81 60.38 65.61 60.46 67.42 60.54 65.61 60.63 63.81 60.63 62.01 60.63 60.45 60.71 58.81 60.71 57.25 61.45 58.07 62.18 58.89 62.84 59.71 63.74 60.69 64.64 61.68 65.55 62.58 64.73 61.51 63.91 60.45 63.09 59.46 62.43 58.64 61.69 57.74 60.95 56.84Z" fill="white"/></svg>