<svg width="100" height="100" viewBox="0 0 100 100" fill="none" xmlns="http://www.w3.org/2000/svg"><defs><linearGradient id="paint0_linear" x1="58.15" y1="54.11" x2="64.76" y2="54.11" gradientUnits="userSpaceOnUse"><stop stop-color="#DEC4E7"/><stop offset="0.14" stop-color="#E9D2EF"/><stop offset="0.35" stop-color="#F6E1F8"/><stop offset="0.61" stop-color="#FDE9FD"/><stop offset="1" stop-color="#FFECFF"/></linearGradient><linearGradient id="paint1_linear" x1="35.07" y1="47.11" x2="64.33" y2="54.43" gradientUnits="userSpaceOnUse"><stop offset="0.06" stop-color="#B37AE7"/><stop offset="0.92" stop-color="#E9D0FF"/></linearGradient><linearGradient id="paint2_linear" x1="38.53" y1="79.81" x2="49.48" y2="79.81" gradientUnits="userSpaceOnUse"><stop offset="0.17" stop-color="#600077"/><stop offset="0.89" stop-color="#C47AE7"/></linearGradient><linearGradient id="paint3_linear" x1="33.46" y1="68.49" x2="41.77" y2="60.95" gradientUnits="userSpaceOnUse"><stop offset="0.11" stop-color="#C47AE7"/><stop offset="0.83" stop-color="#600077"/></linearGradient></defs><path fill-rule="evenodd" clip-rule="evenodd" d="M49.51 85.8C65.68 85.8 78.02 69.24 78.02 49.9 78.02 30.56 65.68 14 49.51 14 33.33 14 21 30.56 21 49.9 21 69.24 33.33 85.8 49.51 85.8Z" fill="white"/><path d="M64.72 46.3V56.6L60.42 61.9 58.12 57.5 59.52 46.7 64.62 46.3H64.72Z" fill="url(#paint0_linear)"/><path d="M76.03 49.87L69.62 53.7V46.3L76.03 49.87Z" fill="#780C93"/><path d="M69.62 53.7L76.02 49.9C76.02 53.6 75.52 57.1 74.72 60.4H74.62L69.62 53.7Z" fill="#780C93"/><path d="M74.52 38.8C75.42 42.3 76.02 46 76.02 49.9L69.62 46.3 74.52 38.8Z" fill="#BB6AC9"/><path d="M74.52 38.8L69.62 46.3 64.62 43.5 69.22 41.3 69.42 41.5H70.62L70.52 40.7 74.52 38.8Z" fill="#780C93"/><path d="M69.62 53.7L74.52 60.3 64.72 56.6 69.62 53.7Z" fill="#F179FD"/><path d="M74.52 38.8L70.52 40.7 70.22 38.1 74.52 38.8Z" fill="#780C93"/><path d="M74.52 60.3L67.62 63.6 64.72 56.6 74.52 60.3Z" fill="#780C93"/><path d="M70.52 29.1C72.22 32 73.51 35.33 74.51 38.83L70.22 38.1 69.42 32.2 69.22 32.1 70.52 29.1Z" fill="#780C93"/><path d="M74.52 60.3H74.62C73.62 64.1 72.22 67.5 70.32 70.6L67.52 63.6 74.52 60.3Z" fill="#C47AE7"/><path d="M70.52 29.1L69.32 32.1 66.82 30.2 70.52 29.1Z" fill="#600077"/><path d="M70.52 29.1L66.82 30.2 65.22 29 64.22 31 62.82 31.4 61.12 19.5C64.82 21.7 68.02 25.1 70.52 29.1Z" fill="#8100A0"/><path d="M67.62 63.6L70.42 70.6 62.82 69.5 67.62 63.6Z" fill="#780C93"/><path d="M62.82 69.5L70.37 70.52C67.57 75.12 63.75 78.84 59.45 81.14L62.82 69.5Z" fill="#600077"/><path d="M69.62 46.3V53.7L64.72 56.6V46.3L64.62 43.5 69.62 46.3Z" fill="#C47AE7"/><path d="M69.22 41.3L64.62 43.5 66.52 38.8 69.22 41.3Z" fill="#780C93"/><path d="M64.72 56.6L67.62 63.6 62.82 69.5 55.32 68.3 60.42 61.9 64.72 56.6Z" fill="#A35DD1"/><path d="M70.52 40.7L70.22 38.1 69.42 32.2 69.32 32.1 66.82 30.2 65.12 29 64.22 30.9 63.52 32.3 62.32 34.8 66.52 38.8 69.22 41.3 69.42 41.5H70.62L70.52 40.7Z" fill="#D592FC"/><path d="M66.52 38.8L64.62 43.5 55.83 33.3 62.82 31.3 63.52 32.3 62.32 34.8 66.52 38.8Z" fill="#600077"/><path d="M64.62 43.5V46.3L59.52 46.7 60.42 61.9 55.32 68.3H43.62L35.52 57.5 34.52 44.9 43.22 33.3H55.92L64.62 43.5ZM53.12 49.2L53.02 49.1 53.12 49.2Z" fill="url(#paint1_linear)"/><path d="M64.22 30.9L63.52 32.3 62.82 31.3 64.22 30.9Z" fill="#8100A0"/><path d="M61.12 19.4L52.72 24.6 49.42 16C53.62 16 57.62 17.2 61.12 19.4Z" fill="#600077"/><path d="M59.52 81.1C56.42 82.7 53.02 83.6 49.42 83.6L52.32 75.9 59.52 81.1Z" fill="#780C93"/><path d="M55.32 68.3C55.32 68.3 55.62 69.1 56.02 70.3L56.12 70.5C56.22 70.8 56.32 71.1 56.42 71.5L56.52 71.8C57.12 73.7 58.1 75.88 58.7 77.78L58.94 78.52 59.02 78.98V79.23L59.22 79.55 59.12 79.8 59.42 79.89 59.22 80.1V80.2L59.48 80.34 59.42 80.7V80.8 80.9 81L59.48 81.17 52.32 76.1 55.32 68.3Z" fill="#BB6AC9"/><path d="M61.12 19.4L52.72 24.6 55.97 33.29 62.87 31.38 61.12 19.4Z" fill="#9A56C1"/><path d="M55.32 68.3L62.82 69.5 59.52 81.1C59.52 81.1 59.52 81 59.42 80.9V80.8 80.7 80.6L59.32 80.3 59.22 80.1V80C59.22 79.9 59.22 79.9 59.12 79.8V79.7C59.12 79.6 59.12 79.6 59.02 79.5L58.92 79.1V79L58.82 78.6 58.52 77.8C57.92 75.9 57.12 73.6 56.52 71.7L56.42 71.4C56.32 71 56.22 70.7 56.12 70.4L56.02 70.2C55.62 69.1 55.32 68.3 55.32 68.3Z" fill="#780C93"/><path d="M55.32 68.3L52.42 76H46.62L43.62 68.3H55.32Z" fill="#600077"/><path d="M49.52 16L52.72 24.6H46.42L49.52 16Z" fill="#CA7AF9"/><path d="M49.52 16L46.42 24.6 38.9 18.81C42.2 17.11 45.72 16 49.52 16Z" fill="#780C93"/><path d="M46.62 76L49.52 83.7C45.62 83.7 41.92 82.6 38.62 80.7L46.62 76Z" fill="url(#paint2_linear)"/><path d="M46.62 76H52.42L49.52 83.6 46.62 76Z" fill="#600077"/><path d="M43.62 68.3L46.62 76 38.67 80.72 38.52 80.6 39.82 77.7 40.12 77.6 40.02 77.1 43.62 68.3Z" fill="#600077"/><path d="M46.42 24.6H52.72L56.02 33.3H43.32L46.42 24.6Z" fill="#F8CAFF"/><path d="M46.42 24.6L43.32 33.3 38.92 18.8 46.42 24.6Z" fill="#CA7AF9"/><path d="M35.62 57.5L43.62 68.3 36.52 70.1 32.42 64.6 35.62 57.5Z" fill="url(#paint3_linear)"/><path d="M43.62 68.3L40.02 77.1 38.32 70.8 36.72 71.2 36.52 70.1 43.62 68.3Z" fill="#9443A8"/><path d="M38.92 18.8L43.32 33.3 35.62 31.9 33.12 23.2 38.52 26 38.92 18.8Z" fill="#F8CAFF"/><path d="M43.32 33.3L34.62 44.9 31.22 37.8 31.52 37.7 35.62 31.9 43.32 33.3Z" fill="#F8F5FF"/><path d="M39.82 77.7L38.52 80.6 37.12 73.1 39.02 77.7H39.82Z" fill="#9443A8"/><path d="M38.92 18.8L38.52 26 33.12 23.2C34.92 21.4 36.82 20 38.92 18.8Z" fill="#C47AE7"/><path d="M37.12 73.1L38.62 80.7C35.02 78.6 31.92 75.6 29.42 71.8L36.62 70.1 36.82 71.3 36.42 71.4 37.12 73.1Z" fill="#9A56C1"/><path d="M40.02 77.1L38.32 70.8 36.72 71.2 36.32 71.3 37.12 73.1 39.02 77.7H39.82L40.12 77.6 40.02 77.1Z" fill="#F179FD"/><path d="M35.62 31.9L31.52 37.7 31.22 37.8 27.72 30.4 35.62 31.9Z" fill="#EEE9FF"/><path d="M34.62 44.9L35.62 57.5 29.72 54.9 28.82 48.4 34.62 44.9Z" fill="#F0E6FF"/><path d="M35.62 57.5L32.42 64.6 24.92 62.6 35.62 57.5Z" fill="#F179FD"/><path d="M31.22 37.8L34.62 44.9 23.92 40.8 31.22 37.8Z" fill="#F8CAFF"/><path d="M34.62 44.9L28.82 48.4 23.92 40.8 34.62 44.9Z" fill="#EBC1F4"/><path d="M33.12 23.2L35.62 31.8 27.82 30.4C29.22 27.7 31.02 25.3 33.12 23.2Z" fill="#D1BFF2"/><path d="M32.42 64.6L36.52 70.1 29.32 71.8 32.42 64.6Z" fill="#F179FD"/><path d="M29.72 54.9L35.62 57.5 24.92 62.6 29.72 55.1V54.9Z" fill="#F179FD"/><path d="M28.82 48.4L29.72 54.9 23.02 51.9 28.82 48.4Z" fill="#F0E6FF"/><path d="M23.92 40.8L28.82 48.4 23.02 51.8C23.02 51.2 23.02 50.5 23.02 49.8 22.92 46.7 23.32 43.7 23.92 40.8Z" fill="#CA7AF9"/><path d="M27.72 30.4L31.22 37.8 23.92 40.8C24.72 37 26.02 33.5 27.72 30.4Z" fill="#D1BFF2"/><path d="M32.42 64.6L29.32 71.7C27.52 69 26.02 65.9 24.92 62.5L32.42 64.6Z" fill="#C47AE7"/><path d="M29.72 54.9V55.1L24.92 62.6C23.82 59.2 23.22 55.6 23.02 51.8L29.72 54.9Z" fill="#F8CAFF"/><path d="M42.5 29.6C43.6 29.6 44.8 29.6 45.9 29.6 47.3 29.6 48.6 29.5 50 29.4 48.6 29.3 47.3 29.3 45.9 29.2 44.8 29.2 43.7 29.2 42.6 29.2 43.2 28.6 43.8 27.9 44.4 27.3 45.2 26.5 46 25.6 46.7 24.7 45.8 25.5 45 26.2 44.1 27 43.5 27.6 42.8 28.2 42.2 28.9 42.2 27.4 42.2 25.9 42.2 24.4 42.2 22.7 42.1 21.1 42 19.4 41.9 21.1 41.9 22.7 41.8 24.4 41.8 25.9 41.8 27.4 41.8 28.9 41.1 28.1 40.4 27.3 39.7 26.6 38.9 25.7 38.1 24.8 37.2 23.9 37.9 24.9 38.7 25.8 39.4 26.8 40.1 27.6 40.7 28.4 41.4 29.2 40.1 29.2 38.9 29.2 37.6 29.2 36.2 29.2 34.9 29.3 33.5 29.4 34.9 29.5 36.2 29.5 37.6 29.6 38.9 29.6 40.2 29.6 41.4 29.6 40.6 30.4 39.9 31.2 39.1 32 38.3 32.8 37.5 33.7 36.8 34.6 37.7 33.8 38.5 33.1 39.4 32.3 40.2 31.6 41 30.8 41.7 30 41.7 31.5 41.7 33 41.7 34.4 41.7 36.1 41.8 37.7 41.9 39.4 42 37.7 42 36.1 42.1 34.4 42.1 32.9 42.1 31.5 42.1 30 42.8 30.8 43.4 31.5 44.1 32.3 44.9 33.2 45.7 34.1 46.6 35 45.9 34 45.1 33.1 44.4 32.1 43.8 31.2 43.1 30.4 42.5 29.6Z" fill="white"/><path d="M55.32 21.3L58.12 26 63.72 21.3 61.07 19.38 59.12 18.3 55.32 21.3Z" fill="#C47AE7"/><path opacity="0.63" d="M35.62 57.5L56.02 33.3 60.12 38.1 39.22 62.4 35.62 57.5Z" fill="white"/><path opacity="0.63" d="M40.22 63.8L55.32 47.3V50.5L41.52 65.5 40.22 63.8Z" fill="white"/></svg>