<svg width="100" height="100" viewBox="0 0 100 100" fill="none" xmlns="http://www.w3.org/2000/svg"><defs><linearGradient id="paint0_linear" x1="74.02" y1="64.53" x2="69.44" y2="16.8" gradientUnits="userSpaceOnUse"><stop stop-color="#DD0B01"/><stop offset="0.26" stop-color="#BF0801"/><stop offset="0.54" stop-color="#A60501"/><stop offset="0.8" stop-color="#960401"/><stop offset="1" stop-color="#910301"/></linearGradient><linearGradient id="paint1_linear" x1="56.65" y1="42.95" x2="73.61" y2="23.62" gradientUnits="userSpaceOnUse"><stop stop-color="#910301"/><stop offset="0.73" stop-color="#CB0601"/></linearGradient><linearGradient id="paint2_linear" x1="39.86" y1="27.15" x2="79.66" y2="14.23" gradientUnits="userSpaceOnUse"><stop offset="0.02" stop-color="#E30000"/><stop offset="0.11" stop-color="#E40808"/><stop offset="0.24" stop-color="#E61E1E"/><stop offset="0.4" stop-color="#EA4141"/><stop offset="0.58" stop-color="#F07373"/><stop offset="0.78" stop-color="#F7B2B2"/><stop offset="1" stop-color="white"/></linearGradient><linearGradient id="paint3_linear" x1="33.26" y1="71.17" x2="83.12" y2="74.03" gradientUnits="userSpaceOnUse"><stop offset="0.15" stop-color="#910301"/><stop offset="0.2" stop-color="#A00501"/><stop offset="0.34" stop-color="#C10801"/><stop offset="0.45" stop-color="#D60A01"/><stop offset="0.53" stop-color="#DD0B01"/></linearGradient><linearGradient id="paint4_linear" x1="27.33" y1="49.68" x2="70.72" y2="49.68" gradientUnits="userSpaceOnUse"><stop offset="0.17" stop-color="#DD0B01"/><stop offset="0.37" stop-color="#EA2B2B"/><stop offset="0.66" stop-color="#FF5F6E"/></linearGradient><linearGradient id="paint5_linear" x1="25.13" y1="55.8" x2="51.17" y2="90.52" gradientUnits="userSpaceOnUse"><stop stop-color="white"/><stop offset="0.07" stop-color="#FDF4F4"/><stop offset="0.2" stop-color="#F7D6D6"/><stop offset="0.38" stop-color="#EDA6A5"/><stop offset="0.58" stop-color="#DF6461"/><stop offset="0.82" stop-color="#CD110C"/><stop offset="0.84" stop-color="#CB0601"/></linearGradient><linearGradient id="paint6_linear" x1="9.42" y1="45.21" x2="33.71" y2="52.67" gradientUnits="userSpaceOnUse"><stop stop-color="white"/><stop offset="0.42" stop-color="#F89191"/><stop offset="0.95" stop-color="#EE0000"/></linearGradient><linearGradient id="paint7_linear" x1="55.1" y1="49.68" x2="75.38" y2="49.68" gradientUnits="userSpaceOnUse"><stop stop-color="#F5CDD1"/><stop offset="0.15" stop-color="#F6BABE"/><stop offset="0.47" stop-color="#F98A8C"/><stop offset="0.91" stop-color="#FE3D3D"/><stop offset="1" stop-color="#FF2C2C"/></linearGradient><linearGradient id="paint8_linear" x1="71.35" y1="36.34" x2="72.2" y2="72.02" gradientUnits="userSpaceOnUse"><stop offset="0.1" stop-color="#C10001"/><stop offset="0.62" stop-color="#FF0600"/></linearGradient><linearGradient id="paint9_linear" x1="37.59" y1="49.81" x2="66.46" y2="49.81" gradientUnits="userSpaceOnUse"><stop stop-color="#F5CDD1"/><stop offset="0.19" stop-color="#F5CACE"/><stop offset="0.35" stop-color="#F6C0C4"/><stop offset="0.49" stop-color="#F7B0B3"/><stop offset="0.63" stop-color="#F8989B"/><stop offset="0.76" stop-color="#FA7A7C"/><stop offset="0.88" stop-color="#FC5657"/><stop offset="1" stop-color="#FF2C2C"/></linearGradient><linearGradient id="paint10_linear" x1="42.86" y1="54.83" x2="68.79" y2="54.83" gradientUnits="userSpaceOnUse"><stop stop-color="#F5CDD1"/><stop offset="0.19" stop-color="#F5CACE"/><stop offset="0.35" stop-color="#F6C0C4"/><stop offset="0.49" stop-color="#F7B0B3"/><stop offset="0.63" stop-color="#F8989B"/><stop offset="0.76" stop-color="#FA7A7C"/><stop offset="0.88" stop-color="#FC5657"/><stop offset="1" stop-color="#FF2C2C"/></linearGradient></defs><path d="M75.4 24H24V75.4H75.4V24Z" fill="white"/><path fill-rule="evenodd" clip-rule="evenodd" d="M77.4 22V77.4H22V22H77.4ZM75.4 24V75.4H24V24H75.4Z" fill="white"/><path d="M75.4 24V75.4L67.3 49.7 75.4 24Z" fill="url(#paint0_linear)"/><path d="M75.4 24L67.3 49.7 49.7 32 75.4 24Z" fill="url(#paint1_linear)"/><path d="M67.3 49.7L75.4 75.4 49.7 67.4 67.3 49.7Z" fill="#AF0000"/><path d="M75.4 24L49.7 32 24 24H75.4Z" fill="url(#paint2_linear)"/><path d="M75.4 75.4H24L49.7 67.4 75.4 75.4Z" fill="url(#paint3_linear)"/><path d="M67.3 49.7L49.7 67.4 32 49.7 49.7 32 67.3 49.7Z" fill="url(#paint4_linear)"/><path d="M49.7 32L32 49.7 24 24 49.7 32Z" fill="#F5CDD1"/><path d="M32 49.7L49.7 67.4 24 75.4 32 49.7Z" fill="url(#paint5_linear)"/><path d="M24 24L32 49.7 24 75.4V24Z" fill="url(#paint6_linear)"/><path opacity="0.23" d="M72.4 74.5L62.5 54.5 67.3 49.7 55.1 37.4 72.7 24.8 75.4 24 67.3 49.7 75.4 75.4 72.4 74.5Z" fill="url(#paint7_linear)"/><path d="M75.4 24L67.3 49.7 71 61.4 75.4 75.4V24Z" fill="url(#paint8_linear)"/><path opacity="0.74" d="M37.6 55.3L58.6 40.9 62.2 44.6 62.5 44.9 41 58.7 37.6 55.3Z" fill="url(#paint9_linear)"/><path opacity="0.74" d="M42.9 60.5L64.8 47.1 67.3 49.7 44.8 62.5 42.9 60.5Z" fill="url(#paint10_linear)"/><path opacity="0.18" d="M32 49.7L24 75.4H37.6L40.6 58.3 32 49.7Z" fill="white"/><path opacity="0.34" d="M24 24V57.8L32 49.7 27.3 30.9 44.9 30.5 49.7 32 62.5 24H24Z" fill="white"/><path d="M40 42.4C41 42.4 42.1 42.4 43.1 42.4 44.3 42.4 45.5 42.3 46.8 42.3 45.6 42.2 44.4 42.2 43.1 42.2 42.1 42.2 41.1 42.2 40.1 42.2 40.7 41.6 41.2 41.1 41.7 40.5 42.4 39.7 43.1 39 43.8 38.2 43 38.9 42.2 39.6 41.5 40.3 40.9 40.9 40.3 41.4 39.8 42 39.8 40.6 39.8 39.3 39.8 37.9 39.8 36.4 39.7 34.9 39.7 33.4 39.6 34.9 39.6 36.4 39.6 37.9 39.6 39.2 39.6 40.6 39.6 41.9 39 41.2 38.4 40.5 37.7 39.8 37 39 36.2 38.2 35.5 37.4 36.1 38.3 36.8 39.1 37.5 40 38.1 40.7 38.7 41.5 39.3 42.2 38.2 42.2 37 42.2 35.9 42.2 34.7 42.2 33.5 42.3 32.2 42.3 33.4 42.4 34.6 42.4 35.9 42.4 37.1 42.4 38.2 42.4 39.4 42.4 38.7 43.1 38 43.8 37.3 44.5 36.6 45.3 35.9 46 35.2 46.8 36 46.1 36.8 45.4 37.5 44.7 38.2 44 38.9 43.3 39.6 42.6 39.6 43.9 39.6 45.3 39.6 46.6 39.6 48.1 39.7 49.6 39.7 51.1 39.8 49.6 39.8 48.1 39.8 46.6 39.8 45.3 39.8 44 39.8 42.6 40.4 43.3 41 44 41.6 44.6 42.3 45.4 43.1 46.2 43.8 47 43.2 46.1 42.5 45.3 41.8 44.4 41.3 43.8 40.7 43.1 40 42.4Z" fill="white"/><path opacity="0.49" d="M32 49.7L49.7 49.8V32L32 49.7Z" fill="white"/><path opacity="0.26" d="M49.7 67.4V49.8L67.3 49.7 49.7 67.4Z" fill="white"/></svg>