<svg width="100" height="100" viewBox="0 0 100 100" fill="none" xmlns="http://www.w3.org/2000/svg"><defs><linearGradient id="paint0_linear" x1="27.97" y1="85.9" x2="87.57" y2="85.85" gradientUnits="userSpaceOnUse"><stop offset="0.22" stop-color="#FB152A"/><stop offset="1" stop-color="#80011E"/></linearGradient><linearGradient id="paint1_linear" x1="48.45" y1="74.4" x2="53.36" y2="100.61" gradientUnits="userSpaceOnUse"><stop offset="0.13" stop-color="#80011E"/><stop offset="0.53" stop-color="#FB152A"/></linearGradient><linearGradient id="paint2_linear" x1="64.81" y1="24.46" x2="76.09" y2="96.42" gradientUnits="userSpaceOnUse"><stop stop-color="#80011E"/><stop offset="0.96" stop-color="#FB152A"/></linearGradient><linearGradient id="paint3_linear" x1="29.44" y1="17.36" x2="71.62" y2="17.36" gradientUnits="userSpaceOnUse"><stop offset="0.31" stop-color="#FB152A"/><stop offset="0.83" stop-color="#FB5C7B"/></linearGradient><linearGradient id="paint4_linear" x1="39.8" y1="55.19" x2="65.65" y2="82.48" gradientUnits="userSpaceOnUse"><stop offset="0.45" stop-color="#C30000"/><stop offset="0.61" stop-color="#FB4656"/></linearGradient><linearGradient id="paint5_linear" x1="37.43" y1="50.05" x2="63.63" y2="50.05" gradientUnits="userSpaceOnUse"><stop offset="0.23" stop-color="#CF0000"/><stop offset="0.79" stop-color="#FB5C7B"/></linearGradient><linearGradient id="paint6_linear" x1="57.14" y1="45.5" x2="32.87" y2="13.03" gradientUnits="userSpaceOnUse"><stop offset="0.2" stop-color="#FFABC5"/><stop offset="0.36" stop-color="#FFA5BF"/><stop offset="0.57" stop-color="#FF94B0"/><stop offset="0.82" stop-color="#FF7996"/><stop offset="1" stop-color="#FF5F7E"/></linearGradient><linearGradient id="paint7_linear" x1="33.06" y1="12.89" x2="32.32" y2="88.95" gradientUnits="userSpaceOnUse"><stop offset="0.17" stop-color="#FC95B0"/><stop offset="0.69" stop-color="#FB152A"/></linearGradient><linearGradient id="paint8_linear" x1="68.15" y1="39.93" x2="67.7" y2="85.47" gradientUnits="userSpaceOnUse"><stop offset="0.31" stop-color="white"/><stop offset="0.93" stop-color="#B3B3B3"/></linearGradient><linearGradient id="paint9_linear" x1="68.15" y1="39.93" x2="67.7" y2="85.47" gradientUnits="userSpaceOnUse"><stop offset="0.31" stop-color="#FB152A"/><stop offset="0.93" stop-color="#FC95B0"/></linearGradient><linearGradient id="paint10_linear" x1="67.92" y1="43.43" x2="68.13" y2="22.66" gradientUnits="userSpaceOnUse"><stop offset="0.06" stop-color="#FB152A"/><stop offset="0.2" stop-color="#F31429"/><stop offset="0.41" stop-color="#DC1027"/><stop offset="0.67" stop-color="#B70A23"/><stop offset="0.98" stop-color="#84021E"/><stop offset="1" stop-color="#80011E"/></linearGradient></defs><path fill-rule="evenodd" clip-rule="evenodd" d="M28 13H72.9V86.6H28V13Z" fill="white"/><path fill-rule="evenodd" clip-rule="evenodd" d="M74.9 11V88.6H26V11H74.9ZM28 13H72.9V86.6H28V13Z" fill="white"/><path d="M72.9 13V86.6L71.6 85.4V14.2L72.9 13Z" fill="#FB152A"/><path d="M72.9 13L71.6 14.2H29.4V14.4L28 13H72.9Z" fill="#FC95B0"/><path d="M71.6 85.4L72.9 86.6H28L29.4 85.2V85.6H71.6V85.4Z" fill="url(#paint0_linear)"/><path d="M71.6 85.4V85.6H29.4V85.2L36 79.2H65V79.1L71.6 85.4Z" fill="url(#paint1_linear)"/><path d="M71.6 14.2V85.4L65 79.1V20.6L71.6 14.2Z" fill="url(#paint2_linear)"/><path d="M71.6 14.2L65 20.6V20.5H36L29.4 14.4V14.2H71.6Z" fill="url(#paint3_linear)"/><path d="M65 79.1V79.2H36L37.4 77.9H63.6L65 79.1Z" fill="#FB152A"/><path d="M65 20.6V79.1L63.6 77.9V57.8 48.5 38.9 21.8L65 20.6Z" fill="#E22149"/><path d="M65 20.5V20.6L63.6 21.8H37.4L36 20.5H65Z" fill="#FFCAD5"/><path d="M63.6 55.2V77.9H37.4V70.5L63.6 55.2Z" fill="url(#paint4_linear)"/><path d="M63.6 48.5V57.7L37.4 70.5V61.2L63.6 48.5Z" fill="#FFABC5"/><path d="M63.6 38.9V48.5L37.4 61.2V51.5L63.6 38.9Z" fill="url(#paint5_linear)"/><path d="M63.6 21.8V38.9L37.4 51.5V21.8H63.6Z" fill="url(#paint6_linear)"/><path d="M37.4 70.5V77.9L36 79.2V20.5L37.4 21.8V51.5 61.2 70.5Z" fill="#FFCAD5"/><path d="M36 79.2L29.4 85.2V14.4L36 20.5V79.2Z" fill="url(#paint7_linear)"/><path d="M29.4 14.4V85.2L28 86.6V13L29.4 14.4Z" fill="#FFCAD5"/><path d="M38.1 25.2C39.2 25.2 40.4 25.2 41.5 25.2 42.9 25.2 44.2 25.1 45.6 25 44.2 24.9 42.9 24.9 41.5 24.8 40.4 24.8 39.3 24.8 38.2 24.8 38.8 24.2 39.4 23.5 40 22.9 40.8 22.1 41.6 21.2 42.3 20.3 41.4 21.1 40.6 21.8 39.7 22.6 39.1 23.2 38.4 23.8 37.8 24.5 37.8 23 37.8 21.5 37.8 20 37.8 18.3 37.7 16.7 37.6 15 37.5 16.7 37.5 18.3 37.4 20 37.4 21.5 37.4 23 37.4 24.5 36.7 23.7 36 22.9 35.3 22.2 34.5 21.3 33.7 20.4 32.8 19.5 33.5 20.5 34.3 21.4 35 22.4 35.7 23.2 36.3 24 37 24.8 35.7 24.8 34.5 24.8 33.2 24.8 31.8 24.8 30.5 24.9 29.1 25 30.5 25.1 31.8 25.1 33.2 25.2 34.5 25.2 35.8 25.2 37 25.2 36.2 26 35.5 26.8 34.7 27.6 33.9 28.4 33.1 29.3 32.4 30.2 33.3 29.4 34.1 28.7 35 27.9 35.8 27.2 36.6 26.4 37.3 25.6 37.3 27.1 37.3 28.6 37.3 30 37.3 31.7 37.4 33.3 37.5 35 37.6 33.3 37.6 31.7 37.7 30 37.7 28.5 37.7 27.1 37.7 25.6 38.4 26.4 39 27.1 39.7 27.9 40.5 28.8 41.3 29.7 42.2 30.6 41.5 29.6 40.7 28.7 40 27.7 39.4 26.8 38.8 26 38.1 25.2Z" fill="white"/><mask id="mask0" mask-type="alpha" maskUnits="userSpaceOnUse" x="66" y="40" width="4" height="44"><path d="M69.4 83.3L66.5 80.5V44L69.6 40.9 69.4 83.3Z" fill="url(#paint8_linear)"/></mask><g mask="url(#mask0)"><path d="M69.4 83.3L66.5 80.5V44L69.6 40.9 69.4 83.3Z" fill="url(#paint9_linear)"/><path d="M66.5 42L69.6 38.9V25L66.5 27.8V42Z" fill="url(#paint10_linear)"/></g><path opacity="0.51" d="M37.5 21.7L50.5 30.8V67.3L37.4 77.9 37.5 21.7Z" fill="white"/><path opacity="0.24" d="M63.6 77.9L50.5 67.3 37.4 77.9H63.6Z" fill="white"/><path opacity="0.24" d="M63.6 21.8L50.5 30.8 37.5 21.7 63.6 21.8Z" fill="white"/></svg>