<svg width="100" height="100" viewBox="0 0 100 100" fill="none" xmlns="http://www.w3.org/2000/svg"><defs><linearGradient id="paint0_linear" x1="38.16" y1="41.67" x2="62.76" y2="50.94" gradientUnits="userSpaceOnUse"><stop stop-color="#9563C7"/><stop offset="1" stop-color="white"/></linearGradient></defs><path d="M48.57 89.49L48.57 89.5C48.95 89.88 49.46 90.1 50 90.1 50.54 90.1 51.06 89.88 51.43 89.5L51.44 89.5 51.45 89.48 51.49 89.44C51.59 89.34 51.82 89.1 52.16 88.73 52.62 88.24 53.28 87.52 54.1 86.6 55.72 84.78 57.95 82.17 60.38 79.02L60.39 79.02C63.13 75.47 66.18 71.09 68.84 66.39 73.22 58.86 76.7 50.11 76.8 41.63L76.8 41.6V41.56C76.8 40.19 76.8 38.74 76.7 37.37 76.29 30.11 74.6 24.36 71.79 19.93 71.74 19.79 71.67 19.65 71.58 19.52 69.38 16.1 66.51 13.67 63.24 11.94 63.23 11.93 63.21 11.92 63.2 11.91 59.49 10.06 55.3 9.11 50.65 9 50.43 9 50.21 9.03 50 9.09 45.71 9.09 41.74 9.95 38.21 11.71 35.08 13.28 32.21 15.56 30.02 18.76 29.79 18.96 29.59 19.22 29.47 19.49 26.69 23.85 24.85 29.53 24.22 36.61 24.22 36.66 24.21 36.71 24.21 36.76 24.11 38.15 24 39.71 24 41.29 23.9 49.89 27.4 58.92 31.69 66.58 31.77 66.8 31.89 67.01 32.04 67.19 34.54 71.56 37.29 75.64 39.67 78.9 39.74 79 39.82 79.09 39.91 79.18 42.22 82.25 44.34 84.79 45.91 86.58 46.72 87.5 47.38 88.23 47.84 88.72 48.18 89.09 48.42 89.34 48.52 89.44L48.56 89.48 48.57 89.49 48.57 89.49Z" fill="white"/><path d="M74.7 37.5C74.8 38.8 74.8 40.2 74.8 41.6 74.7 49.6 71.4 58 67.1 65.4 66.9 61.8 66.1 56.1 64.8 49.4L74.7 37.5Z" fill="#6F379D"/><path d="M74.7 37.5L64.8 49.4C64.4 47.3 63.9 45.1 63.3 42.9L66.6 31.8 74.7 37.5Z" fill="#A158DB"/><path d="M74.7 37.5L66.6 31.8 69.9 20.7C72.6 24.8 74.3 30.3 74.7 37.5Z" fill="#5F2A93"/><path d="M69.9 20.6L66.62 31.9 59.19 28.91C58.19 26.11 56.97 23.2 55.87 20.6H69.9Z" fill="#9563C7"/><path d="M69.9 20.6H55.9L62.3 13.7C65.3 15.3 67.9 17.5 69.9 20.6Z" fill="#6F379D"/><path d="M67.1 65.4L54.6 72.4 59.5 55.7 64.8 49.4C66.2 56.1 66.9 61.8 67.1 65.4Z" fill="#9C50D1"/><path d="M54.47 72.43L67.1 65.4C64.5 70 61.5 74.3 58.8 77.8L54.47 72.43Z" fill="#6F379D"/><path d="M66.6 31.8L63.3 42.9C62.2 38.3 60.8 33.4 59.1 28.8L66.6 31.8Z" fill="#723F9A"/><path d="M64.8 49.4L59.5 55.7 63.3 42.8C63.9 45.1 64.4 47.3 64.8 49.4Z" fill="#5F2A93"/><path d="M63.3 42.9L59.5 55.8 50.13 67.16 41 55.5 37 41C38.3 36.6 39.9 32.4 41.4 28.7L50.49 25.83 59.1 28.8C60.8 33.4 62.2 38.3 63.3 42.9Z" fill="url(#paint0_linear)"/><path d="M62.3 13.7L55.9 20.71C54.3 17.21 52.6 13.8 50.6 11 55 11.1 58.9 12 62.3 13.7Z" fill="#9C50D1"/><path d="M59.5 55.8L54.6 72.4V72.5L50.2 67 59.5 55.8Z" fill="#723F9A"/><path d="M59.2 28.8L50.5 25.9 55.4 21.2 55.9 20.6C57.1 23.2 58.2 26 59.2 28.8Z" fill="#CCBBF9"/><path d="M54.6 72.5L58.8 77.8C54 84 50 88.1 50 88.1L54.6 72.5Z" fill="#9C50D1"/><path d="M55.9 20.7L55.4 21.3 50.5 26 45.2 21.2 45.1 21.1C48.2 14.9 50.7 11.1 50.7 11.1 52.6 13.9 54.4 17.1 55.9 20.7Z" fill="#C984F7"/><path d="M50.2 67L54.6 72.5 50 88.1 45.7 72.4 50.2 67Z" fill="#9F75F1"/><path d="M39.1 13.5C42.5 11.8 46.4 11 50.7 11.1 50.7 11.1 48.2 14.9 45.1 21.1L39.1 13.5Z" fill="#6F379D"/><path d="M50.5 25.9L41.5 28.7C42.7 25.9 43.9 23.3 45.1 21L45.2 21.1 50.5 25.9Z" fill="#F9FDFD"/><path d="M50.2 67L45.7 72.4 41 55.5 50.2 67Z" fill="#C1AAF2"/><path d="M45.7 72.4L50 88.1C50 88.1 46 84 41.3 77.7L45.7 72.4Z" fill="#6F379D"/><path d="M45.7 72.4L39.6 69.54 33.58 65.92C33.02 59.08 34.1 54 35.3 48.2L41.1 55.5 45.7 72.4Z" fill="#D1BFF2"/><path d="M33.6 65.9L45.8 72.37 41.29 77.73C38.89 74.43 36.1 70.3 33.6 65.9Z" fill="#9563C7"/><path d="M39.1 13.5L45.1 21 31.4 20.3C33.4 17.2 36.1 15 39.1 13.5Z" fill="#CE84FC"/><path d="M31.3 20.3L45.33 21C44.23 23.3 42.7 26.01 41.5 28.81L34.26 31.76 31.3 20.3Z" fill="#D1BFF2"/><path d="M34.4 31.6L41.4 28.8C39.8 32.5 38.3 36.7 37 41.1L34.4 31.6Z" fill="#F7EEFF"/><path d="M41 55.5L35.2 48.2C35.7 45.7 36.3 43.3 37 41L41 55.5Z" fill="#8B46C1"/><path d="M34.4 31.6L37 41.1C36.3 43.4 35.7 45.9 35.2 48.3L26.2 37 34.4 31.6Z" fill="#CE84FC"/><path d="M26.2 36.9L35.34 48.19C34.14 53.89 33.3 59.9 33.6 65.9 29.3 58.3 25.9 49.5 26 41.3 26 39.8 26.1 38.3 26.2 36.9Z" fill="#9C50D1"/><path d="M34.4 31.6L26.2 37C26.8 29.9 28.64 24.38 31.34 20.28L34.4 31.6Z" fill="#9C50D1"/><path d="M42.1 29.5C43.2 29.5 44.4 29.5 45.5 29.5 46.9 29.5 48.2 29.4 49.6 29.3 48.2 29.2 46.9 29.2 45.5 29.1 44.4 29.1 43.3 29.1 42.2 29.1 42.8 28.5 43.4 27.8 44 27.2 44.8 26.4 45.6 25.5 46.3 24.6 45.4 25.4 44.6 26.1 43.7 26.9 43.1 27.5 42.4 28.1 41.8 28.8 41.8 27.3 41.8 25.8 41.8 24.3 41.8 22.6 41.7 21 41.6 19.3 41.5 21 41.5 22.6 41.4 24.3 41.4 25.8 41.4 27.3 41.4 28.8 40.7 28 40 27.2 39.3 26.5 38.5 25.6 37.7 24.7 36.8 23.8 37.5 24.8 38.3 25.7 39 26.7 39.7 27.5 40.3 28.3 41 29.1 39.7 29.1 38.5 29.1 37.2 29.1 35.8 29.1 34.5 29.2 33.1 29.3 34.5 29.4 35.8 29.4 37.2 29.5 38.5 29.5 39.8 29.5 41 29.5 40.2 30.3 39.5 31.1 38.7 31.9 37.9 32.7 37.1 33.6 36.4 34.5 37.3 33.7 38.1 33 39 32.2 39.8 31.5 40.6 30.7 41.3 29.9 41.3 31.4 41.3 32.9 41.3 34.3 41.3 36 41.4 37.6 41.5 39.3 41.6 37.6 41.6 36 41.7 34.3 41.7 32.8 41.7 31.4 41.7 29.9 42.4 30.7 43 31.4 43.7 32.2 44.5 33.1 45.3 34 46.2 34.9 45.5 33.9 44.7 33 44 32 43.5 31.1 42.8 30.3 42.1 29.5Z" fill="white"/><path opacity="0.68" d="M38.9 47.6L52.9 26.7 59.2 28.8 41 55.5 38.9 47.6Z" fill="white"/><path opacity="0.68" d="M42.3 57.2L56.5 36.9 55.9 42 44.1 59.4 42.3 57.2Z" fill="white"/></svg>