<svg width="100" height="100" viewBox="0 0 100 100" fill="none" xmlns="http://www.w3.org/2000/svg"><path d="M80.5 39.08L80.5 38.99 80.5 38.9C79.98 28.8 76.85 21.01 71.46 15.76 66.06 10.49 58.63 8 50 8 40.86 8 33.33 11.05 28.08 16.29 22.83 21.52 20 28.8 20 37 20 54.83 29.51 69.83 49.54 91.36L51.01 92.95 52.48 91.35C74.13 67.68 79.97 52.75 80.5 39.08Z" fill="white"/><path d="M78.36 40.08C78.36 41.08 78.36 42.17 78.27 43.16H78.09L75.74 38.45 78.09 34.83C78.27 36.46 78.36 38.27 78.36 40.08Z" fill="#FC2C22"/><path d="M78.09 43.16H78.27C77.82 48.24 76.1 53.49 73.65 58.56L72.84 49.23 78.09 43.16Z" fill="#FC2C22"/><path d="M75.74 38.45L78.09 43.16 60.61 34.83H78.09L75.74 38.45Z" fill="#CB0601"/><path d="M78.09 43.16L72.84 49.23 73.65 58.56 59.98 44.7 78.09 43.16Z" fill="#920401"/><path d="M78.09 34.83H60.61L73.65 21.42 72.66 29.76 78.09 34.83Z" fill="#FC2C22"/><path d="M78.09 34.83L72.58 29.78 73.61 21.38C75.79 24.92 77.46 29.39 78.09 34.83Z" fill="#CB0601"/><path d="M78.09 43.16L59.98 44.7 50.2 34.83H60.61L78.09 43.16Z" fill="#FFCFCF"/><path d="M73.65 21.42L66.32 17.71 64.24 12.91C67.95 14.81 71.21 17.53 73.65 21.42Z" fill="#CB0601"/><path d="M73.65 58.56C72.21 61.64 70.48 64.72 68.67 67.62L69.31 59.47 73.65 58.56Z" fill="#FC2C22"/><path d="M73.65 21.42L60.61 34.83H50.2L56.63 24.86 73.65 21.42Z" fill="#920401"/><path d="M59.98 44.7L73.65 58.56 69.31 59.56 68.67 67.62 59.98 44.7Z" fill="#CB0601"/><path d="M73.65 21.42L56.63 24.86 64.24 12.91 66.32 17.71 73.65 21.42Z" fill="#FD6F6B"/><path d="M68.67 67.62C66.41 71.25 63.96 74.6 61.7 77.59L62.97 67.62H68.67Z" fill="#CB0601"/><path d="M59.98 44.7L68.67 67.62 55.54 54.58 50.2 34.83 59.98 44.7Z" fill="#920401"/><path d="M68.67 67.62H62.97L61.7 77.59 55.54 54.58 68.67 67.62Z" fill="#FC2C22"/><path d="M64.24 12.91L56.63 24.86 49.93 10.01 56.63 14.72 64.24 12.91Z" fill="#920401"/><path d="M64.24 12.91L56.63 14.72 49.93 10.01C55 9.92 59.89 10.82 64.24 12.91Z" fill="#FD6F6B"/><path d="M55.54 54.58L61.7 77.59 56.45 76.68 50.92 89.91 55.54 54.58Z" fill="#920401"/><path d="M56.45 76.68L61.7 77.59C56 84.93 51.01 89.91 50.92 90L56.45 76.68Z" fill="#FC2C22"/><path d="M49.93 10.01L56.63 24.86 50.2 34.83 46.03 26.4 49.93 10.01Z" fill="#FFCFCF"/><path d="M50.2 34.83L55.54 54.58 50.92 89.91 46.03 54.85 50.2 34.83Z" fill="#FD6F6B"/><path d="M46.03 54.85L50.92 89.91 45.94 76.68 40.96 79.04 46.03 54.85Z" fill="#CB0601"/><path d="M45.94 76.68L50.92 90C50.83 89.91 46.31 85.47 40.87 78.95L45.94 76.68Z" fill="#FD6F6B"/><path d="M46.03 26.4L50.2 34.83H38.79L26.38 21.51 46.03 26.4Z" fill="#FFFAF9"/><path d="M50.2 34.83L46.03 54.85 31.91 66.81 40.69 44.7 50.2 34.83Z" fill="#CB0601"/><path d="M50.2 34.83L40.69 44.7H22.4L38.79 34.83H50.2Z" fill="#FD6F6B"/><path d="M49.93 10.01L45.94 26.4 38.7 11.82 44.22 12.91C44.77 12.54 49.93 10.01 49.93 10.01Z" fill="#CB0601"/><path d="M49.93 10.01C49.93 10.01 44.72 12.59 44.26 12.95L38.7 11.82C42.23 10.64 46.12 10.1 49.93 10.01Z" fill="#FD6F6B"/><path d="M46.03 26.4L26.38 21.51 35.53 18.43 38.79 11.82 46.03 26.4Z" fill="#FFCFCF"/><path d="M46.03 54.85L40.96 79.04 37.88 68.62 31.91 66.81 46.03 54.85Z" fill="#FC2C22"/><path d="M37.88 68.62L40.96 79.04C38.06 75.51 34.8 71.34 31.91 66.81L37.88 68.62Z" fill="#FD6F6B"/><path d="M40.69 44.7L31.91 66.81V59.29L27.2 58.56 40.69 44.7Z" fill="#FCA5A1"/><path d="M40.69 44.7L27.2 58.56 28.19 49.96 22.4 44.7H40.69Z" fill="#FC2C22"/><path d="M38.79 11.82L35.62 18.43 26.47 21.51C29.37 16.62 33.81 13.54 38.79 11.82Z" fill="#FCA5A1"/><path d="M26.38 21.51L38.79 34.83H22.22C22.22 34.74 22.22 34.65 22.22 34.56L26.38 29.48V21.51Z" fill="#FFCFCF"/><path d="M38.79 34.83L22.4 44.7 25.3 39.18 22.13 35.1C22.13 35.01 22.13 34.92 22.13 34.83H38.79Z" fill="#FCA5A1"/><path d="M31.91 59.29V66.81C30.19 64.18 28.64 61.32 27.19 58.51L31.91 59.29Z" fill="#FFCFCF"/><path d="M28.19 49.96L27.2 58.56C24.93 54.03 23.21 49.23 22.4 44.61L28.19 49.96Z" fill="#FFCFCF"/><path d="M26.38 21.51V29.48L22.22 34.56C22.76 29.21 24.21 24.86 26.38 21.51Z" fill="#FCA5A1"/><path d="M22.22 35.1L25.39 39.18 22.49 44.7C22.22 43.16 22.13 41.62 22.04 40.08 21.95 38.36 22.04 36.64 22.22 35.1Z" fill="#FFCFCF"/><path d="M40.42 36.28C41.69 36.28 42.95 36.28 44.22 36.19 45.76 36.19 47.3 36.1 48.75 36.01 47.21 35.92 45.67 35.83 44.22 35.83 42.95 35.83 41.78 35.83 40.51 35.73 41.23 35.01 41.87 34.29 42.59 33.65 43.5 32.75 44.31 31.75 45.22 30.75 44.22 31.57 43.32 32.47 42.32 33.38 41.6 34.1 40.87 34.74 40.15 35.46 40.15 33.74 40.15 32.11 40.06 30.39 40.06 28.49 39.97 26.68 39.88 24.77 39.79 26.68 39.69 28.49 39.69 30.39 39.69 32.02 39.6 33.74 39.6 35.37 38.88 34.47 38.06 33.65 37.34 32.75 36.43 31.75 35.53 30.75 34.53 29.76 35.35 30.84 36.16 31.93 37.07 32.93 37.79 33.83 38.61 34.74 39.33 35.64 37.88 35.64 36.43 35.64 35.08 35.73 33.54 35.73 32 35.83 30.55 35.92 32.09 36.01 33.63 36.1 35.08 36.1 36.53 36.1 37.97 36.19 39.33 36.19 38.43 37.09 37.61 37.91 36.8 38.81 35.89 39.72 35.08 40.72 34.17 41.71 35.17 40.9 36.07 39.99 37.07 39.09 37.97 38.27 38.79 37.37 39.69 36.55 39.69 38.18 39.69 39.9 39.79 41.53 39.79 43.44 39.88 45.25 39.97 47.15 40.06 45.25 40.15 43.44 40.15 41.53 40.15 39.9 40.24 38.27 40.24 36.64 40.96 37.46 41.69 38.36 42.5 39.18 43.41 40.17 44.31 41.17 45.31 42.17 44.49 41.08 43.68 39.99 42.77 39 41.96 38.09 41.14 37.18 40.42 36.28Z" fill="white"/><path opacity="0.51" d="M65.23 23.14C65.23 23.14 70.76 34.83 69.4 43.8 67.95 52.77 54.27 82.03 54.27 82.03 54.27 82.03 74.92 51.14 75.74 46.52 78.45 31.57 71.21 21.96 71.21 21.96L63.15 19.16 65.23 23.14Z" fill="white"/><path opacity="0.52" d="M33.9 26.4L51.29 13 53.28 17.43 41.05 28.03 43.59 29.3 54.55 20.24 45.94 33.2 33.9 26.4Z" fill="white"/><path opacity="0.74" d="M30.46 46.52L47.66 82.03 40.69 44.7 30.46 46.52Z" fill="white"/><path opacity="0.74" d="M44.22 46.52L48.75 63.37 49.11 39.9 44.22 46.52Z" fill="white"/></svg>