<svg width="100" height="100" viewBox="0 0 100 100" fill="none" xmlns="http://www.w3.org/2000/svg"><path d="M64.32 19H36.24L21 33.64 21 66.18 35.09 80.7H63.15L78.65 66.24 78.65 33.68 64.32 19Z" fill="white"/><path d="M76.65 34.49V65.37L72.29 62.99 72.37 62.91V36.95L72.29 36.87 76.65 34.49Z" fill="#81C9FE"/><path d="M63.48 21L76.65 34.49 72.29 36.87 61.33 25.52H61.26L63.48 21Z" fill="#73E5FB"/><path d="M76.65 65.37L62.37 78.7 60.3 74.18H60.38L72.29 62.99 76.65 65.37Z" fill="#3A81C9"/><path d="M72.37 36.95V62.91L72.29 62.99 68.72 61 68.79 60.84V38.94L68.72 38.86 72.29 36.87 72.37 36.95Z" fill="#73E5FB"/><path d="M72.29 36.87L68.72 38.86 59.51 29.41H59.35L61.26 25.52H61.33L72.29 36.87Z" fill="#2FABFA"/><path d="M72.29 62.99L60.38 74.18H60.3L58.56 70.29H58.72L68.72 61 72.29 62.99Z" fill="#35D0F2"/><path d="M68.79 38.94V60.84L68.72 61 62.45 57.43V42.35L63.24 41.87 68.72 38.86 68.79 38.94Z" fill="#35D0F2"/><path d="M59.51 29.41L68.72 38.86 63.24 41.87 62.45 42.35 56.25 35.68 59.35 29.41H59.51Z" fill="#3A81C9"/><path d="M68.72 61L58.72 70.29H58.56L56.02 64.65 55.7 63.94 62.45 57.43 68.72 61Z" fill="#2FABFA"/><path d="M63.48 21L61.26 25.52H39.19L37.05 21H63.48Z" fill="#81C9FE"/><path d="M63.24 41.87L62.45 42.35 63.24 41.87Z" fill="#A2F0FD"/><path d="M62.45 42.35V57.43L49.83 49.89 62.45 42.35Z" fill="#D2FDFF"/><path d="M62.45 42.35L49.83 49.89 56.25 35.68 62.45 42.35Z" fill="#B6FFFF"/><path d="M62.45 57.43L55.7 63.94 49.83 49.89 62.45 57.43Z" fill="#B6E7FF"/><path d="M60.3 74.18L62.37 78.7H35.94L38.16 74.18H60.3Z" fill="#3A81C9"/><path d="M61.26 25.52L59.35 29.41H40.94L39.19 25.52H61.26Z" fill="#5098F7"/><path d="M58.56 70.29L60.3 74.18H38.16L40.14 70.29H58.56Z" fill="#81C9FE"/><path d="M59.35 29.41L56.25 35.68H43.79L40.94 29.41H59.35Z" fill="#73E5FB"/><path d="M58.56 70.29H40.14L43.32 64.02H55.7L56.02 64.65 58.56 70.29Z" fill="#73E5FB"/><path d="M56.25 35.68L49.83 49.89 43.79 35.68H56.25Z" fill="#D2FDFF"/><path d="M55.7 63.94L56.02 64.65 55.7 64.02V63.94Z" fill="#2FABFA"/><path d="M49.83 49.89L55.7 63.94V64.02H43.32L49.83 49.89Z" fill="#D2FDFF"/><path d="M43.79 35.68L49.83 49.89 37.21 42.35 43.79 35.68Z" fill="#B6E7FF"/><path d="M49.83 49.89L43.32 64.02 37.21 57.43 49.83 49.89Z" fill="#DEFDFF"/><path d="M49.83 49.89L37.21 57.43V42.35L49.83 49.89Z" fill="#B6FFFF"/><path d="M40.94 29.41L43.79 35.68 37.21 42.35 36.65 42.03 30.94 38.86 40.78 29.41H40.94Z" fill="#F9FDFD"/><path d="M36.73 57.75L37.21 57.43 43.32 64.02 40.14 70.29H39.98L30.94 61 36.73 57.75Z" fill="#B6FFFF"/><path d="M39.19 25.52L40.94 29.41H40.78L30.94 38.86 27.37 36.87 39.11 25.52H39.19Z" fill="#35D0F2"/><path d="M40.14 70.29L38.16 74.18H38.08L27.37 62.99 30.94 61 39.98 70.29H40.14Z" fill="#A2F0FD"/><path d="M37.05 21L39.19 25.52H39.11L27.37 36.87 23 34.49 37.05 21Z" fill="#73E5FB"/><path d="M38.16 74.18L35.94 78.7 23 65.37 27.37 62.99 38.08 74.18H38.16Z" fill="#81C9FE"/><path d="M37.21 57.43L36.73 57.75 37.21 57.43Z" fill="#81C9FE"/><path d="M37.21 42.35V57.43L36.73 57.75 30.94 61 30.86 60.84V38.94L30.94 38.86 36.65 42.03 37.21 42.35Z" fill="#81C9FE"/><path d="M37.21 42.35L36.65 42.03 37.21 42.35Z" fill="#81C9FE"/><path d="M30.94 38.86L30.86 38.94V60.84L30.94 61 27.37 62.99 27.29 62.91V36.95L27.37 36.87 30.94 38.86Z" fill="#A2F0FD"/><path d="M27.37 36.87L27.29 36.95V62.91L27.37 62.99 23 65.37V34.49L27.37 36.87Z" fill="#2FABFA"/><path d="M38.79 42.51C39.91 42.51 40.94 42.51 42.05 42.43 43.32 42.43 44.67 42.35 45.94 42.27 44.67 42.19 43.32 42.11 42.05 42.11 41.02 42.11 39.98 42.11 38.87 42.03 39.43 41.48 40.06 40.84 40.62 40.21 41.41 39.41 42.13 38.62 42.84 37.75 41.97 38.46 41.18 39.25 40.38 39.97 39.75 40.52 39.19 41.16 38.56 41.71 38.56 40.29 38.56 38.86 38.48 37.43 38.48 35.84 38.4 34.25 38.32 32.67 38.24 34.25 38.16 35.84 38.16 37.43 38.16 38.86 38.08 40.29 38.08 41.71 37.44 41 36.81 40.21 36.1 39.49 35.3 38.62 34.51 37.83 33.71 36.95 34.43 37.91 35.14 38.78 35.86 39.65 36.49 40.45 37.13 41.24 37.76 41.95 36.57 41.95 35.3 41.95 34.11 42.03 32.84 42.03 31.49 42.11 30.22 42.19 31.49 42.27 32.84 42.35 34.11 42.35 35.3 42.35 36.57 42.43 37.76 42.43 37.05 43.14 36.25 43.94 35.54 44.65 34.75 45.45 34.03 46.24 33.32 47.11 34.19 46.4 34.98 45.6 35.78 44.89 36.49 44.18 37.29 43.46 38 42.75 38 44.18 38 45.6 38.08 46.95 38.08 48.54 38.16 50.13 38.24 51.72 38.32 50.13 38.4 48.54 38.4 46.95 38.4 45.52 38.48 44.18 38.48 42.75 39.11 43.46 39.75 44.18 40.38 44.89 41.18 45.76 41.97 46.56 42.76 47.43 42.05 46.48 41.33 45.6 40.62 44.73 40.14 44.1 39.43 43.3 38.79 42.51Z" fill="white"/></svg>