<svg width="100" height="100" viewBox="0 0 100 100" fill="none" xmlns="http://www.w3.org/2000/svg"><defs><linearGradient id="paint0_linear" x1="21.39" y1="41.94" x2="87.92" y2="61.13" gradientUnits="userSpaceOnUse"><stop offset="0.04" stop-color="#FFFF5D"/><stop offset="0.16" stop-color="#FFFF68"/><stop offset="0.37" stop-color="#FFFF86"/><stop offset="0.64" stop-color="#FFFFB6"/><stop offset="0.97" stop-color="#FFFFF8"/><stop offset="1" stop-color="white"/></linearGradient></defs><path d="M34.97 16L16 34.97V65.53L34.97 84.5H65.53L84.5 65.53V34.97L65.53 16H34.97Z" fill="white"/><path d="M82.5 35.8V64.7L76.3 50.3 82.5 35.8Z" fill="#E8C600"/><path d="M82.5 35.8L76.3 50.3 68.6 42.6V31.9L82.5 35.8Z" fill="#EF9904"/><path d="M76.3 50.3L82.5 64.7 68.6 68.7V57.9L76.3 50.3Z" fill="#EF9904"/><path d="M82.5 64.7L64.7 82.5 68.6 68.7 82.5 64.7Z" fill="#F0D509"/><path d="M82.5 35.8L68.6 31.9 64.7 18 82.5 35.8Z" fill="#FFDA00"/><path d="M68.6 42.6L76.3 50.3 68.6 57.9V42.6Z" fill="#FFDA00"/><path d="M68.6 57.9V68.7H57.9L68.6 57.9Z" fill="#FFDA00"/><path d="M68.6 42.6V57.9L57.9 68.7H42.6L31.8 57.9V42.6L42.6 31.9H57.9L68.6 42.6Z" fill="url(#paint0_linear)"/><path d="M68.6 31.9V42.6L57.9 31.9H68.6Z" fill="#EAB200"/><path d="M64.7 18L68.6 31.9H57.9L50.2 24.2 64.7 18Z" fill="#FFBD09"/><path d="M68.6 68.7L64.7 82.5 50.2 76.3 57.9 68.7H68.6Z" fill="#F2AD00"/><path d="M64.7 18L50.2 24.2 35.8 18H64.7Z" fill="#EF9904"/><path d="M64.7 82.5H35.8L50.2 76.3 64.7 82.5Z" fill="#EF9904"/><path d="M57.9 68.7L50.2 76.3 42.6 68.7H57.9Z" fill="#FDEA54"/><path d="M57.9 31.9H42.6L50.2 24.2 57.9 31.9Z" fill="#FFF2BB"/><path d="M50.2 24.2L42.6 31.9H31.8L35.8 18 50.2 24.2Z" fill="#F7E31A"/><path d="M50.2 76.3L35.8 82.5 31.8 68.7H42.6L50.2 76.3Z" fill="#FFDA00"/><path d="M42.6 31.9L31.8 42.6V31.9H42.6Z" fill="white"/><path d="M42.6 68.7H31.8V57.9L42.6 68.7Z" fill="#FFF5BD"/><path d="M35.8 18L31.8 31.9 18 35.8 35.8 18Z" fill="#FFC648"/><path d="M31.8 68.7L35.8 82.5 18 64.7 31.8 68.7Z" fill="#EAB200"/><path d="M31.8 57.9V68.7L18 64.7 24.2 50.3 31.8 57.9Z" fill="#FFE131"/><path d="M31.8 42.6V57.9L24.2 50.3 31.8 42.6Z" fill="white"/><path d="M31.8 31.9V42.6L24.2 50.3 18 35.8 31.8 31.9Z" fill="#FFEE99"/><path d="M18 35.8L24.2 50.3 18 64.7V35.8Z" fill="#EFB600"/><path d="M37.7 38.9C38.8 38.9 40 38.9 41.1 38.9 42.5 38.9 43.8 38.8 45.2 38.7 43.8 38.6 42.5 38.6 41.1 38.5 40 38.5 38.9 38.5 37.8 38.5 38.4 37.9 39 37.2 39.6 36.6 40.4 35.8 41.2 34.9 41.9 34 41 34.8 40.2 35.5 39.3 36.3 38.7 36.9 38 37.5 37.4 38.2 37.4 36.7 37.4 35.2 37.4 33.7 37.4 32 37.3 30.4 37.2 28.7 37.1 30.4 37.1 32 37 33.7 37 35.2 37 36.7 37 38.2 36.3 37.4 35.6 36.6 34.9 35.9 34.1 35 33.3 34.1 32.4 33.2 33.1 34.2 33.9 35.1 34.6 36.1 35.3 36.9 35.9 37.7 36.6 38.5 35.3 38.5 34.1 38.5 32.8 38.5 31.4 38.5 30.1 38.6 28.7 38.7 30.1 38.8 31.4 38.8 32.8 38.9 34.1 38.9 35.4 38.9 36.6 38.9 35.8 39.7 35.1 40.5 34.3 41.3 33.5 42.1 32.7 43 32 43.9 32.9 43.1 33.7 42.4 34.6 41.6 35.4 40.9 36.2 40.1 36.9 39.3 36.9 40.8 36.9 42.3 36.9 43.7 36.9 45.4 37 47 37.1 48.7 37.2 47 37.2 45.4 37.3 43.7 37.3 42.2 37.3 40.8 37.3 39.3 38 40.1 38.6 40.8 39.3 41.6 40.1 42.5 40.9 43.4 41.8 44.3 41.1 43.3 40.3 42.4 39.6 41.4 39.1 40.5 38.4 39.7 37.7 38.9Z" fill="white"/><path opacity="0.64" d="M31.8 57.9L57.9 31.9 66.2 40.2 40.3 66.3 31.8 57.9Z" fill="white"/><path opacity="0.64" d="M49 63.1L63.2 48.1V52.4L53.4 63.3 49 63.1Z" fill="white"/></svg>