<svg width="100" height="100" viewBox="0 0 100 100" fill="none" xmlns="http://www.w3.org/2000/svg"><defs><linearGradient id="paint0_linear" x1="45.51" y1="25.38" x2="63.48" y2="21.85" gradientUnits="userSpaceOnUse"><stop offset="0.16" stop-color="#055734"/><stop offset="0.19" stop-color="#055332"/><stop offset="0.54" stop-color="#062C19"/><stop offset="0.83" stop-color="#07140A"/><stop offset="1" stop-color="#070B05"/></linearGradient><linearGradient id="paint1_linear" x1="60.59" y1="32.29" x2="50.57" y2="40.3" gradientUnits="userSpaceOnUse"><stop offset="0.08" stop-color="#068472"/><stop offset="0.17" stop-color="#057968"/><stop offset="0.52" stop-color="#045246"/><stop offset="0.8" stop-color="#023A31"/><stop offset="0.97" stop-color="#023129"/></linearGradient><linearGradient id="paint2_linear" x1="40.43" y1="27.72" x2="48.89" y2="44.63" gradientUnits="userSpaceOnUse"><stop stop-color="#0FD4C5"/><stop offset="0.11" stop-color="#0ECFC0"/><stop offset="0.24" stop-color="#0CC0B1"/><stop offset="0.39" stop-color="#08A79A"/><stop offset="0.55" stop-color="#028478"/><stop offset="0.6" stop-color="#00766B"/></linearGradient></defs><path fill-rule="evenodd" clip-rule="evenodd" d="M41.4 15.16C41.37 15.17 41.33 15.18 41.3 15.19 39.71 15.69 38.07 16.23 36.71 16.91 36.56 16.99 36.42 17.08 36.3 17.18 34.53 18.13 30.74 20.3 27.69 24.49 27.57 24.6 27.45 24.72 27.35 24.86 25.24 27.93 23.56 31.98 23.15 37.14 23.05 37.38 23 37.63 23 37.9V40C23 40.02 23 40.03 23 40.05 23.1 44.35 23.62 48.47 24.51 52.15 24.52 52.35 24.57 52.55 24.64 52.73 24.66 52.79 24.68 52.84 24.71 52.89 26.51 60.17 29.73 66.3 33.18 71.07 33.33 71.29 33.53 71.46 33.74 71.6 38.38 77.78 43.55 81.76 46.56 83.78 46.69 83.94 46.85 84.07 47.02 84.18 47.75 84.65 48.33 85 48.74 85.23 48.94 85.34 49.1 85.43 49.21 85.49L49.27 85.52C49.3 85.54 49.33 85.55 49.35 85.56L49.39 85.58 49.4 85.58 49.4 85.59 49.41 85.59C49.97 85.87 50.63 85.87 51.19 85.59L52.39 84.99C52.54 84.92 52.68 84.83 52.8 84.72 55.86 83.05 61.99 78.98 67.44 71.17L67.55 71.07C67.67 70.96 67.78 70.84 67.86 70.71 68.4 69.91 68.93 69.04 69.44 68.19 69.55 68.07 69.65 67.94 69.74 67.79 71.37 64.94 73.04 61.71 74.3 57.93 74.34 57.82 74.36 57.7 74.38 57.58 74.97 55.81 75.55 53.84 76.05 51.76 77.96 43.72 78.42 37.71 76.76 32.58 75.08 27.4 71.36 23.47 65.8 19.3 65.77 19.28 65.74 19.26 65.71 19.24 64.15 18.19 62.79 17.46 62.12 17.12 60.27 16.15 58.03 15.3 55.69 14.76 53.7 14.21 51.64 14 49.9 14 47.41 14 44.24 14.43 41.4 15.16Z" fill="white"/><path d="M73.7 30.8C75.2 33.7 76 37.1 75.7 41 75.4 44.7 74.8 48.1 74.1 51.3L73.7 51.2 72.8 39 73.7 30.8Z" fill="#004428"/><path d="M73.7 30.8L71.4 39.3 71 39.2 67.92 34.81 73.7 30.8Z" fill="#022518"/><path d="M73.7 30.8L72.8 39 73.7 51.2 71.4 46.4 67.6 49.2 70.2 43.2 71.3 39.3 73.7 30.8Z" fill="#0A0A04"/><path d="M73.7 30.8C73 31.3 68.26 35.26 68.36 35.46L63.8 28.7 63.6 28.4 64.6 20.9C67.5 22.9 71.3 26.2 73.7 30.8Z" fill="#086D59"/><path d="M73.6 30.8C73.5 30.9 73.6 30.9 73.6 30.8V30.8Z" fill="#022518"/><path d="M73.3 31.1L69.6 34.1C70.8 33.1 72.5 31.7 73.3 31.1Z" fill="#022518"/><path d="M73.7 51.2L74.1 51.3C73.6 53.4 73 55.4 72.4 57.2L65.8 53.4 67.26 48.9 71.44 46 73.7 51.2Z" fill="#003528"/><path d="M71.3 39.3L70.2 43.2 62.3 38.3 64.4 38.5 70.9 39.2 71.3 39.3Z" fill="#082920"/><path d="M68.23 33.66L71.91 39.45 63.59 38.6 68.23 33.66Z" fill="#071813"/><path d="M68.6 59.5L72.4 57.3C71.2 60.9 69.6 64 68 66.8L64 56.4 64.64 53.37 65.95 53.06 68.6 59.5Z" fill="#001911"/><path d="M72.4 57.2L68.6 59.5 65.8 53.4 72.4 57.2Z" fill="#004932"/><path d="M70.2 43.2L67.6 49.2H66.2L70.2 43.2Z" fill="#01260E"/><path d="M70.2 43.2L66.2 49.2H65.1L66.3 46.3 61.5 51.3 61.8 50.9 63.3 48.6 63.2 47.5 70.2 43.2Z" fill="#57FDF4"/><path d="M70.2 43.2L63.2 47.5 50.1 45.4 62.3 38.3 70.2 43.2Z" fill="#A3FCFF"/><path d="M69.2 34.5L68.8 34.8C69 34.7 69.1 34.6 69.2 34.5Z" fill="#022518"/><path d="M68.2 35.3L68 35.5C68 35.5 68.1 35.4 68.2 35.3Z" fill="#071813"/><path d="M68 34.9C68 35.2 65.2 37.8 64.5 38.4 64.5 38.4 64.5 38.4 64.4 38.5L62.25 38.3 63.56 28.36 63.9 28.7 68 34.9Z" fill="#012211"/><path d="M67.9 35.5L64.4 38.4C64.4 38.4 64.4 38.4 64.5 38.3 65.1 37.9 67.1 36.2 67.9 35.5Z" fill="#071813"/><path d="M67.6 49.2L65.8 53.4 64.7 53.5 65.1 49.2 65.9 49.6 66.2 49.2H67.6Z" fill="#007762"/><path d="M64.6 20.9L63.6 28.5 61 24.7 64.6 20.9Z" fill="#00563B"/><path d="M64.6 20.9L61.02 24.74 55.2 16.7C57.4 17.2 59.5 18 61.2 18.9 61.8 19.2 63.1 19.9 64.6 20.9Z" fill="#00442A"/><path d="M66.3 46.3L65.1 49.2 64.7 53.5 60.3 53.8 59.5 51.5 63.2 47.5 63.3 48.6 61.8 50.9 61.5 51.3 66.3 46.3Z" fill="#006040"/><path d="M64 56.3L68 66.7 62.1 65.6 64 56.3Z" fill="#030A05"/><path d="M62.1 65.6L68 66.7C67.4 67.7 66.8 68.7 66.2 69.6L62.1 65.6Z" fill="#00231B"/><path d="M66.2 49.2L65.9 49.6 65.1 49.2H66.2Z" fill="#91FDFD"/><path d="M61 24.7L63.6 28.5 62.3 38.3 60.2 27 61 24.7Z" fill="#002F25"/><path d="M64.7 53.5L64 56.3 60.3 53.8 64.7 53.5Z" fill="#08251E"/><path d="M62.1 65.6L66.2 69.6 51.4 83.2 53.2 69.9 62.1 65.6Z" fill="#00AA89"/><path d="M51.4 83.2L66.1 69.6C60.5 77.8 54.1 81.8 51.4 83.2Z" fill="#003528"/><path d="M55.2 16.7L61 24.7 60.2 27 50.5 33 42.8 26.4 44.6 23.8 46.8 20.5 49.9 16 55.2 16.7Z" fill="url(#paint0_linear)"/><path d="M60.2 27L62.3 38.3 50.1 45.4 50.5 33 60.2 27Z" fill="url(#paint1_linear)"/><path d="M64 56.3L62.1 65.6 53.2 69.9 55.5 64.2 60.3 53.8 64 56.3Z" fill="#00110B"/><path d="M63.2 47.5L59.5 51.5 49.2 50.9 50.1 45.4 63.2 47.5Z" fill="#57FDF4"/><path d="M59.5 51.5L60.3 53.8 55.5 64.2 53 58.9 59.5 51.5Z" fill="#035343"/><path d="M59.5 51.5L53 58.9 49.9 52.4 49.2 50.9 59.5 51.5Z" fill="#017C57"/><path d="M55.2 16.7L49.9 16C51.5 16 53.4 16.2 55.2 16.7Z" fill="#0F381F"/><path d="M53 58.9L55.5 64.2 53.2 69.9 48.4 67.2 46.9 70.2 43.4 64.6 44 63.4 45.9 59.7 46.6 61C46.6 61 50 53.6 49.9 52.5L53 58.9Z" fill="#003018"/><path d="M49.9 16L46.8 20.5 41.9 17.1C44.6 16.4 47.6 16 49.9 16Z" fill="#053822"/><path d="M49.9 52.4L53 58.9 52.9 59 49.9 52.4C49.9 52.5 49.9 52.5 49.9 52.4Z" fill="#007762"/><path d="M53.2 69.9L51.5 83.2C50.7 83.6 50.3 83.8 50.3 83.8 50.3 83.8 49.5 83.4 48.1 82.5L49.8 78.3 53.2 69.9Z" fill="#060F07"/><path d="M53.2 69.9L49.8 78.2 46.9 70.2 48.4 67.2 53.2 69.9Z" fill="#007A5D"/><path d="M50.33 52.08C50.43 53.18 46.6 61 46.6 61L45.9 59.7 41.3 50.7 40.1 48.4 50.33 52.08Z" fill="#0A2111"/><path d="M49.2 50.9L49.9 52.4 49.2 50.9Z" fill="#0F381F"/><path d="M46.8 20.5L44.6 23.8 39.5 21.2 41.7 21 37.7 18.7 41.9 17.1 46.8 20.5Z" fill="#005B36"/><path d="M47.2 44.2L46.6 47.1 39.5 47.2 40.7 41 47.2 44.2Z" fill="#002919"/><path d="M46.9 70.2L49.8 78.2 48.1 82.4 47.2 79.1 43.4 64.6 46.9 70.2Z" fill="#005134"/><path d="M46.24 59.65L44.16 63.45 41 58.5 41.3 57.8 40.2 52.5 46.24 59.65Z" fill="#006638"/><path d="M47.2 79.1L48.1 82.4C45.2 80.5 39.7 76.4 34.9 69.8L38.6 65.7 47.2 79.1Z" fill="#001D0A"/><path d="M45.9 59.6L40.2 52.5 40.1 51.7 41.3 50.6 45.9 59.6Z" fill="#005128"/><path d="M41.9 17.1L37.6 18.7C38.8 18.1 40.3 17.6 41.9 17.1Z" fill="#0F381F"/><path d="M43.4 64.6L47.2 79.1 38.5 65.8 42.2 67.5 43 65.4 41.3 64.6 42.4 63.8 43.4 64.6Z" fill="#031009"/><path d="M41 58.5C42.26 60.45 42.97 61.55 44.23 63.5L43.4 64.6 42.4 63.8 41.3 64.6 43 65.4 42.2 67.5 38.5 65.8 41 63 40 60.9 41 58.5Z" fill="#00774C"/><path d="M40.7 41L39.5 47.2 40.7 41Z" fill="#002919"/><path d="M40.1 48.4L41.3 50.6 40.1 51.7 38.9 50.6 39.4 48.1 40.1 48.4Z" fill="#019769"/><path d="M40.2 52.5L41.3 57.8 41 58.5 40 60.9 37.9 56.1 38.9 50.8 40.2 52.5Z" fill="#00120B"/><path d="M39.5 47.3L40.1 48.4 39.4 48.1 39.5 47.3Z" fill="#020E0B"/><path d="M40.1 51.7L40.2 52.5 38.9 50.8V50.6L40.1 51.7Z" fill="#00120B"/><path d="M39.5 47.2V47.3L39.4 48.1H39.3L39.5 47.2Z" fill="#020E0B"/><path d="M39.5 47.2L39.3 48.1 37.9 47.5 39.5 47.2Z" fill="#002919"/><path d="M40 60.9L41 63 38.5 65.8 34.8 69.8 29.7 53.2 37.9 56.1 40 60.9Z" fill="#58BFAC"/><path d="M39.4 48.1L38.9 50.6 39.3 48.1H39.4Z" fill="#020E0B"/><path d="M39.3 48.1L38.9 50.6 37.9 49.6V47.5L39.3 48.1Z" fill="#002919"/><path d="M38.9 50.6V50.8H38.8L38.9 50.6Z" fill="#00120B"/><path d="M37.9 49.6L38.9 50.6 38.8 50.8 37.9 49.6Z" fill="#00120B"/><path d="M38.9 50.8L37.9 56.1 38.8 50.8H38.9Z" fill="#020E0B"/><path d="M37.9 49.6L38.8 50.8 37.9 56.1V49.6Z" fill="#002919"/><path d="M29.7 53.2L34.8 69.9C31.4 65.2 28.24 59.14 26.54 51.94L29.7 53.2Z" fill="#044734"/><path d="M28.3 48.6L29.7 53.2 26.5 52 28.3 48.6Z" fill="#2D5147"/><path d="M42.8 26.4L50.5 33 50.1 45.4 41 39.5 37.8 37.5 41.1 26.6 42.8 26.4Z" fill="url(#paint2_linear)"/><path d="M41 39.5L50.1 45.4 49.2 50.9 49.9 52.4 40.1 48.4 39.5 47.3V47.2L46.6 47.1 47.2 44.2 40.7 41 41 39.5Z" fill="black"/><path d="M44.6 23.8L42.8 26.4 41.1 26.6 40.5 26.4 40.9 25.4 39.7 25.5 37.4 31.7 33.1 34.6 29 26.1C32.1 21.6 36.2 19.5 37.7 18.7L41.7 21 39.5 21.2 44.6 23.8Z" fill="#003A22"/><path d="M41 39.5L40.7 41 41 39.5Z" fill="#0F381F"/><path d="M41 39.5L40.7 41 39.5 47.2 32.7 40.3 37.8 37.5 41 39.5Z" fill="#0B100B"/><path d="M39.6 25.5L40.8 25.3 40.4 26.3 38.2 32.2 37.3 31.7 39.6 25.5Z" fill="#00996D"/><path d="M41.1 26.6L37.8 37.5 35.2 35.8 37.3 31.7 38.2 32.2 40.4 26.3 41.1 26.6Z" fill="#021D0B"/><path d="M37.9 47.5L32.7 40.3 39.5 47.2 37.9 47.5Z" fill="#005128"/><path d="M37.3 31.7L35.2 35.8 32.7 40.3 31.5 37.3 33 34.6 37.3 31.7Z" fill="#58BFAC"/><path d="M37.8 37.5L32.7 40.3 35.2 35.8 37.8 37.5Z" fill="#006040"/><path d="M32.7 40.3L37.9 47.5V49.6 56.1L29.7 53.2 28.3 48.6 32.7 40.3Z" fill="#75D3C1"/><path d="M31.8 36.9L32.7 40.3 28.3 48.6 25 37.9H25.1L31.8 36.9Z" fill="#83DDCC"/><path d="M25.1 37.9C25.4 32.8 27 28.9 29 26L33.1 34.5 31.6 37.2 25.1 37.9Z" fill="#005B29"/><path d="M25 37.9L28.37 48.61 26.53 52C25.63 48.4 25.1 44.3 25 40 25 39.3 25 38.6 25 37.9Z" fill="#00AA89"/><path opacity="0.33" d="M49.1 24.7L32.2 40.3 37.4 56.1 49.6 69.1 58.9 56.6 64.4 39.9 49.1 24.7Z" fill="#A3FCFF"/><path d="M37.1 35.9C36 35.9 34.8 35.9 33.7 35.9 32.3 35.9 31 35.8 29.6 35.7 31 35.6 32.3 35.6 33.7 35.5 34.8 35.5 35.9 35.5 37 35.5 36.4 34.9 35.8 34.2 35.2 33.6 34.4 32.8 33.6 31.9 32.9 31 33.8 31.8 34.6 32.5 35.5 33.3 36.1 33.9 36.8 34.5 37.4 35.2 37.4 33.7 37.4 32.2 37.4 30.7 37.4 29 37.5 27.4 37.6 25.7 37.7 27.4 37.7 29 37.8 30.7 37.8 32.2 37.8 33.7 37.8 35.2 38.5 34.4 39.2 33.6 39.9 32.9 40.7 32 41.5 31.1 42.4 30.2 41.7 31.2 40.9 32.1 40.2 33.1 39.5 33.9 38.9 34.7 38.2 35.5 39.5 35.5 40.7 35.5 42 35.5 43.4 35.5 44.7 35.6 46.1 35.7 44.7 35.8 43.4 35.8 42 35.9 40.7 35.9 39.4 35.9 38.2 35.9 39 36.7 39.7 37.5 40.5 38.3 41.3 39.1 42.1 40 42.8 40.9 41.9 40.1 41.1 39.4 40.2 38.6 39.4 37.9 38.6 37.1 37.9 36.3 37.9 37.8 37.9 39.3 37.9 40.7 37.9 42.4 37.8 44 37.7 45.7 37.6 44 37.6 42.4 37.5 40.7 37.5 39.2 37.5 37.8 37.5 36.3 36.8 37.1 36.2 37.8 35.5 38.6 34.7 39.5 33.9 40.4 33 41.3 33.7 40.3 34.5 39.4 35.2 38.4 35.7 37.5 36.4 36.7 37.1 35.9Z" fill="white"/></svg>