<svg width="100" height="100" viewBox="0 0 100 100" fill="none" xmlns="http://www.w3.org/2000/svg"><defs><linearGradient id="paint0_linear" x1="78.65" y1="-38.72" x2="37.44" y2="100.42" gradientUnits="userSpaceOnUse"><stop stop-color="#0C0F6C"/><stop offset="0.59" stop-color="#3C0289"/><stop offset="1" stop-color="#8B46AB"/></linearGradient><linearGradient id="paint1_linear" x1="78.65" y1="-38.72" x2="37.44" y2="100.42" gradientUnits="userSpaceOnUse"><stop stop-color="#0C0F6C"/><stop offset="0.59" stop-color="#3C0289"/><stop offset="1" stop-color="#8B46AB"/></linearGradient><linearGradient id="paint2_linear" x1="78.65" y1="-38.72" x2="37.44" y2="100.42" gradientUnits="userSpaceOnUse"><stop stop-color="#0C0F6C"/><stop offset="0.59" stop-color="#3C0289"/><stop offset="1" stop-color="#8B46AB"/></linearGradient><radialGradient id="paint3_radial" cx="0" cy="0" r="1" gradientUnits="userSpaceOnUse" gradientTransform="translate(69.353 89.8972) rotate(-98.9194) scale(26.2586 26.7619)"><stop offset="0.04" stop-color="#0C0F6C"/><stop offset="0.36" stop-color="#0D106D"/><stop offset="1" stop-color="#80C3FF"/></radialGradient><radialGradient id="paint4_radial" cx="0" cy="0" r="1" gradientUnits="userSpaceOnUse" gradientTransform="translate(57.6482 4.59106) rotate(62.9756) scale(14.5603 14.7335)"><stop stop-color="#EFC0D5"/><stop offset="0.47" stop-color="#C74ECE"/></radialGradient></defs><path d="M50.58 6.92L50.57 6.93 50.56 6.93 35.71 15.61C35.71 15.61 35.71 15.61 35.71 15.61 31.44 18.08 29 22.29 29 26.95 29 30.72 30.54 33.98 32.97 36.26 35.31 38.54 38.52 39.73 41.7 39.73 42.63 39.73 43.6 39.62 44.57 39.41V81.93C44.57 85.51 46.12 88.85 48.54 91.22 51.08 93.72 54.5 95 58.19 95 61.78 95 65 93.82 67.46 91.21 69.82 88.89 71 85.52 71 81.93V17.67 17.57 17.15L70.88 17.03C70.61 13.74 69.41 10.91 67.15 8.59 64.81 6.18 61.69 5 58.19 5 55.39 5 52.88 5.64 50.58 6.92Z" fill="url(#paint0_linear)" stroke="white" stroke-width="2"/><mask id="mask0" mask-type="alpha" maskUnits="userSpaceOnUse" x="30" y="6" width="40" height="88"><path d="M49.24 90.51C47 88.31 45.57 85.22 45.57 81.93V38.13C44.25 38.53 42.93 38.73 41.7 38.73 38.75 38.73 35.8 37.63 33.66 35.53 31.42 33.44 30 30.44 30 26.95 30 22.66 32.24 18.77 36.21 16.48L51.07 7.8C53.21 6.6 55.55 6 58.19 6 61.45 6 64.3 7.1 66.44 9.29 68.58 11.49 69.69 14.18 69.9 17.37V17.47L70 17.57V17.67 81.93C70 85.32 68.88 88.41 66.74 90.51 64.5 92.9 61.55 94 58.19 94 54.73 94 51.58 92.8 49.24 90.51Z" fill="url(#paint1_linear)"/></mask><g mask="url(#mask0)"><path d="M49.24 90.51C47 88.31 45.57 85.22 45.57 81.93V38.13C44.25 38.53 42.93 38.73 41.7 38.73 38.75 38.73 35.8 37.63 33.66 35.53 31.42 33.44 30 30.44 30 26.95 30 22.66 32.24 18.77 36.21 16.48L51.07 7.8C53.21 6.6 55.55 6 58.19 6 61.45 6 64.3 7.1 66.44 9.29 68.58 11.49 69.69 14.18 69.9 17.37V17.47L70 17.57V17.67 81.93C70 85.32 68.88 88.41 66.74 90.51 64.5 92.9 61.55 94 58.19 94 54.73 94 51.58 92.8 49.24 90.51Z" fill="url(#paint2_linear)"/><path opacity="0.1" d="M70.88 97.38C81 97.38 89.2 89.34 89.2 79.42 89.2 69.5 81 61.46 70.88 61.46 60.76 61.46 52.56 69.5 52.56 79.42 52.56 89.34 60.76 97.38 70.88 97.38Z" fill="#8BECEF"/><path fill-rule="evenodd" clip-rule="evenodd" d="M56.63 83.71C54.19 76.23 58.36 68.25 65.99 65.85 73.63 63.46 81.77 67.55 84.21 75.03 86.66 82.51 82.48 90.5 74.85 92.89 67.22 95.29 59.07 91.19 56.63 83.71Z" fill="url(#paint3_radial)"/><path fill-rule="evenodd" clip-rule="evenodd" d="M56.95 12.98C55.83 9.59 57.76 6 61.22 4.9 64.68 3.81 68.35 5.7 69.47 9.09 70.59 12.49 68.65 16.08 65.19 17.17 61.73 18.17 58.07 16.38 56.95 12.98Z" fill="url(#paint4_radial)"/><path opacity="0.1" d="M-2.16 3.21C-7.35 6.5-12.34 10.69-14.17 16.78 -15.09 19.87-14.99 23.16-13.46 26.05 -10.2 32.14-2.88 32.84 3.54 33.14 13.21 33.64 23.08 34.14 32.44 31.74 37.63 30.44 42.72 28.15 48.32 29.15 50.36 29.45 51.98 31.04 52.29 33.14 52.7 36.43 49.34 38.03 46.39 38.93 30.51 43.61 13.92 45.81-2.06 50.3 -18.04 54.59-33.92 61.77-44.61 74.24 -51.22 82.03-55.6 92.2-53.97 102.18 -53.26 106.67-51.32 110.86-49.19 114.85 -45.83 121.24-41.76 127.42-36.06 131.91 -25.47 140.2-11.02 141.59 2.42 142.09 17.07 142.69 31.73 142.29 46.28 140.99 56.56 140.1 66.95 138.6 76.51 134.81 86.28 130.92 95.34 124.53 100.53 115.45 101.96 112.86 103.18 109.86 102.37 107.07 101.76 104.88 100.13 103.18 98.19 101.78 90.86 96.49 81.09 96.69 72.04 97.09 62.37 97.49 52.7 97.99 43.13 98.39 26.95 99.09 10.15 99.69-4.5 93.1 -6.44 92.2-8.37 91.21-9.49 89.51 -11.63 86.22-10.1 81.83-7.46 78.93 -3.28 74.24 3.23 72.05 9.54 71.65 15.85 71.25 22.16 72.25 28.47 73.15 36.41 74.24 44.45 75.04 52.49 75.44 56.97 75.64 61.55 75.84 65.93 74.74 69.69 73.85 73.77 71.55 73.56 67.36 73.46 65.56 72.54 63.97 71.22 62.77 68.37 60.18 64.4 59.78 60.64 59.58 46.39 58.88 32.04 60.78 17.89 59.38 16.87 59.28 15.65 59.08 15.14 58.08 14.83 57.38 15.04 56.59 15.34 55.99 18.09 50.3 26.03 50.1 32.44 49.7 41.81 49.2 51.17 46.71 59.41 42.42 64.71 39.72 70.31 34.44 67.05 28.75 66.03 26.85 64.2 25.46 62.06 24.76 52.09 21.46 41.5 23.56 31.22 22.86 29.59 22.76 27.96 22.56 26.34 22.36 21.35 21.66 21.14 14.68 26.03 13.58 43.23 9.59 61.55 9.29 79.06 5.6 80.38 5.3 81.6 4.4 82.11 3.11 83.33 0.21 79.97-1.88 77.23-2.88 50.76-12.46 21.96-12.26-2.16 3.21Z" fill="white"/><path fill-rule="evenodd" clip-rule="evenodd" d="M43.91 18.76L45.13 19.46 43.91 20.06 43.2 21.25 42.58 20.06 41.36 19.36 42.58 18.76 43.3 17.56 43.91 18.76Z" fill="white"/><path fill-rule="evenodd" clip-rule="evenodd" d="M58.09 18.97L59.01 19.47 58.09 19.97 57.58 20.87 57.07 19.87 56.16 19.37 57.07 18.87 57.58 17.97 58.09 18.97Z" fill="white" fill-opacity="0.3"/><path fill-rule="evenodd" clip-rule="evenodd" d="M64.81 27.75L65.52 28.15 64.81 28.45 64.5 29.05 64.1 28.45 63.49 28.05 64.2 27.75 64.5 27.15 64.81 27.75Z" fill="white"/><path fill-rule="evenodd" clip-rule="evenodd" d="M47.78 15.17L48.39 15.57 47.78 15.87 47.47 16.46 47.06 15.87 46.45 15.47 47.06 15.17 47.47 14.57 47.78 15.17Z" fill="white"/><path fill-rule="evenodd" clip-rule="evenodd" d="M37.12 23.26L37.74 23.56 37.12 23.96 36.72 24.56 36.41 23.86 35.8 23.56 36.41 23.26 36.82 22.56 37.12 23.26Z" fill="white"/><path d="M52.29 29.75C52.8 29.75 52.8 28.95 52.29 28.95 51.78 28.95 51.78 29.75 52.29 29.75Z" fill="white"/><path d="M54.98 18.36C55.49 18.36 55.49 17.56 54.98 17.56 54.47 17.66 54.47 18.36 54.98 18.36Z" fill="white" fill-opacity="0.3"/><path opacity="0.5" d="M68.21 27.34C68.72 27.34 68.72 26.54 68.21 26.54 67.7 26.54 67.7 27.34 68.21 27.34Z" fill="white"/><path d="M53.51 42.22C54.02 42.22 54.02 41.42 53.51 41.42 53 41.42 53 42.22 53.51 42.22Z" fill="white"/><path opacity="0.5" d="M39.06 35.03C39.57 35.03 39.57 34.24 39.06 34.24 38.65 34.24 38.65 35.03 39.06 35.03Z" fill="white"/><path d="M59.62 34.04C60.13 34.04 60.13 33.24 59.62 33.24 59.11 33.34 59.11 34.04 59.62 34.04Z" fill="white"/><path d="M63.49 59.68C63.99 59.68 63.99 58.88 63.49 58.88 63.08 58.98 63.08 59.68 63.49 59.68Z" fill="white" fill-opacity="0.3"/><path d="M53.31 61.07C53.82 61.07 53.82 60.28 53.31 60.28 52.8 60.38 52.8 61.07 53.31 61.07Z" fill="white"/><path opacity="0.5" d="M50.56 52.99C51.07 52.99 51.07 52.2 50.56 52.2 50.05 52.2 50.05 52.99 50.56 52.99Z" fill="white"/><path d="M50.91 51.29C51.41 51.29 51.41 50.49 50.91 50.49 50.4 50.59 50.4 51.29 50.91 51.29Z" fill="white"/><path d="M66.74 48.2C67.25 48.2 67.25 47.41 66.74 47.41 66.23 47.41 66.23 48.2 66.74 48.2Z" fill="white"/><path d="M67.19 58.27C67.7 58.27 67.7 57.47 67.19 57.47 66.68 57.47 66.68 58.27 67.19 58.27Z" fill="white"/><path d="M48.42 73.15C48.93 73.15 48.93 72.35 48.42 72.35 47.91 72.35 47.91 73.15 48.42 73.15Z" fill="white"/><path d="M60.07 53.28C60.57 53.28 60.57 52.48 60.07 52.48 59.56 52.48 59.56 53.28 60.07 53.28Z" fill="white" fill-opacity="0.3"/><path d="M60.07 57.27C60.57 57.27 60.57 56.47 60.07 56.47 59.56 56.47 59.56 57.27 60.07 57.27Z" fill="white"/></g></svg>