<svg width="100" height="100" viewBox="0 0 100 100" fill="none" xmlns="http://www.w3.org/2000/svg"><path d="M58.5673 70L65.6272 62.4854 58.5673 70ZM58.5673 70H67.9788C71.4961 70 74.8301 71.2869 77.2156 73.5789L77.224 73.587 77.2322 73.5952C79.6081 75.9867 81 79.3418 81 82.9 81 86.4707 79.5999 89.7136 77.2477 92.1889L77.24 92.1969 77.2322 92.2048C74.8531 94.5995 71.416 96 67.9788 96H31.1205 30.1205V95.8607C27.0266 95.6178 24.0116 94.2574 21.8595 91.997 19.5061 89.6245 18 86.3793 18 82.7 18 79.0877 19.1645 75.9183 21.7573 73.5038L46.0163 45.5123V45.4877L46.1836 45.3193 46.4603 45H46.5008L46.6049 44.8952 47.0023 44.4952 47.0343 44.463 47.0691 44.4338 47.6304 43.963 49.7841 41.7952C51.7313 39.8352 53.2343 37.9281 54.1596 35.9724L54.1713 35.9476 54.1843 35.9236C54.7163 34.9419 54.9576 34.0045 54.9576 33.2 54.9576 31.9591 54.4545 31.089 53.3728 30.4668L53.3635 30.4615 53.3544 30.456C52.5599 29.9762 51.462 29.7 50.0961 29.7 48.7366 29.7 47.6489 29.8909 46.7787 30.339 45.9538 30.7638 45.246 31.4601 44.688 32.6289 43.8999 35.9878 42.4033 38.6583 40.2669 40.4957 38.1011 42.3583 35.3523 43.3 32.2134 43.3 28.4205 43.3 25.2555 42.1258 22.9438 39.6881L22.943 39.6873C20.7472 37.3666 19.6889 34.2031 19.6889 30.8 19.6889 30.0216 19.7758 29.2451 19.8633 28.4625 19.8735 28.3718 19.8836 28.2811 19.8937 28.1903L19.8951 28.1776 19.8968 28.1649C20.6334 22.7628 24.0755 17.1601 29.0676 12.7505L29.0731 12.7456 29.0787 12.7409C34.6078 8.00005 41.6892 5 49.6987 5 58.6995 5 66.2989 7.23997 71.8915 11.8268L71.8945 11.8293C77.7267 16.6514 80.6026 23.4563 80.6026 32.1 80.6026 37.6243 79.6848 42.2864 77.2159 47.0525 74.9662 51.5782 71.0173 56.7585 65.6278 62.4847L58.5673 70Z" fill="url(#paint0_linear)" stroke="white" stroke-width="2"/><mask id="mask0" mask-type="alpha" maskUnits="userSpaceOnUse" x="19" y="6" width="61" height="89"><path d="M31.1205 94.9C27.9414 94.9 24.7622 93.6 22.5766 91.3 20.3909 89.1 19 86.1 19 82.7 19 79.3 20.0928 76.4 22.4772 74.2L46.9169 46C47.0163 46 47.0163 46 47.0163 45.9L47.1156 45.8 47.3143 45.6 47.7117 45.2 48.3078 44.7 50.4935 42.5C52.4804 40.5 54.07 38.5 55.0635 36.4 55.6596 35.3 55.9576 34.2 55.9576 33.2 55.9576 31.6 55.2622 30.4 53.8713 29.6 52.8779 29 51.5863 28.7 50.0961 28.7 47.215 28.7 45.0293 29.5 43.7378 32.3 42.2476 38.8 38.0749 42.3 32.2134 42.3 28.6368 42.3 25.7557 41.2 23.6694 39 21.6824 36.9 20.6889 34 20.6889 30.8 20.6889 30 20.7883 29.2 20.8876 28.3 21.5831 23.2 24.8616 17.8 29.7296 13.5 35.0945 8.9 41.9495 6 49.6987 6 58.5407 6 65.8925 8.2 71.2573 12.6 76.8208 17.2 79.6026 23.7 79.6026 32.1 79.6026 37.5 78.7085 42 76.3241 46.6 74.1384 51 70.2638 56.1 64.899 61.8L56.2557 71H67.9788C71.2573 71 74.3371 72.2 76.5228 74.3 78.7085 76.5 80 79.6 80 82.9 80 86.2 78.7085 89.2 76.5228 91.5 74.3371 93.7 71.158 95 67.9788 95H31.1205V94.9Z" fill="url(#paint1_linear)"/></mask><g mask="url(#mask0)"><path d="M31.1205 94.9C27.9414 94.9 24.7622 93.6 22.5766 91.3 20.3909 89.1 19 86.1 19 82.7 19 79.3 20.0928 76.4 22.4772 74.2L46.9169 46C47.0163 46 47.0163 46 47.0163 45.9L47.1156 45.8 47.3143 45.6 47.7117 45.2 48.3078 44.7 50.4935 42.5C52.4804 40.5 54.07 38.5 55.0635 36.4 55.6596 35.3 55.9576 34.2 55.9576 33.2 55.9576 31.6 55.2622 30.4 53.8713 29.6 52.8779 29 51.5863 28.7 50.0961 28.7 47.215 28.7 45.0293 29.5 43.7378 32.3 42.2476 38.8 38.0749 42.3 32.2134 42.3 28.6368 42.3 25.7557 41.2 23.6694 39 21.6824 36.9 20.6889 34 20.6889 30.8 20.6889 30 20.7883 29.2 20.8876 28.3 21.5831 23.2 24.8616 17.8 29.7296 13.5 35.0945 8.9 41.9495 6 49.6987 6 58.5407 6 65.8925 8.2 71.2573 12.6 76.8208 17.2 79.6026 23.7 79.6026 32.1 79.6026 37.5 78.7085 42 76.3241 46.6 74.1384 51 70.2638 56.1 64.899 61.8L56.2557 71H67.9788C71.2573 71 74.3371 72.2 76.5228 74.3 78.7085 76.5 80 79.6 80 82.9 80 86.2 78.7085 89.2 76.5228 91.5 74.3371 93.7 71.158 95 67.9788 95H31.1205V94.9Z" fill="url(#paint2_linear)"/><path d="M49.0034 57.6001C49.5002 57.6001 49.5002 56.8 49.0034 56.8 48.5067 56.9 48.5067 57.6001 49.0034 57.6001Z" fill="white"/><path d="M49.6389 50.1057C50.1357 50.1057 50.1357 49.3057 49.6389 49.3057 49.1422 49.3057 49.1422 50.1057 49.6389 50.1057Z" fill="white"/><path d="M55.5999 62.1057C56.0966 62.1057 56.0966 61.3057 55.5999 61.3057 55.1031 61.3057 55.1031 62.1057 55.5999 62.1057Z" fill="white"/><path d="M49.8975 70.5C50.3942 70.5 50.3942 69.7 49.8975 69.7 49.4007 69.7 49.4007 70.5 49.8975 70.5Z" fill="white"/><path d="M32.3831 86.6115C32.8798 86.6115 32.8798 85.8115 32.3831 85.8115 31.8863 85.8115 31.8863 86.6115 32.3831 86.6115Z" fill="white"/><path d="M62.4797 79.1057C62.9764 79.1057 62.9764 78.3057 62.4797 78.3057 62.0823 78.3057 62.0823 79.1057 62.4797 79.1057Z" fill="white"/><path d="M72.8472 79.6001C73.3439 79.6001 73.3439 78.8 72.8472 78.8 72.3504 78.8 72.3504 79.6001 72.8472 79.6001Z" fill="white"/><path d="M40.3602 87.2C40.3602 87.1 40.3602 87.1 40.3602 87 40.3602 86.5 39.5654 86.5 39.5654 87 39.5654 87.1 39.5654 87.1 39.5654 87.2 39.5654 87.7 40.3602 87.7 40.3602 87.2Z" fill="white"/><path d="M28.7756 25.1057C29.2724 25.1057 29.2724 24.3057 28.7756 24.3057 28.2789 24.4057 28.2789 25.1057 28.7756 25.1057Z" fill="white"/><path d="M34.7366 37.1057C35.2333 37.1057 35.2333 36.3057 34.7366 36.3057 34.2398 36.3057 34.2398 37.1057 34.7366 37.1057Z" fill="white"/><path d="M42.6846 10.1057C43.1813 10.1057 43.1813 9.30566 42.6846 9.30566 42.1878 9.40566 42.1878 10.1057 42.6846 10.1057Z" fill="white"/><path d="M60.3726 17.8C60.8693 17.8 60.8693 17 60.3726 17 59.8758 17.1 59.8758 17.8 60.3726 17.8Z" fill="white"/><path d="M27.1467 30.1001C27.6435 30.1001 27.6435 29.3 27.1467 29.3 26.65 29.3 26.65 30.1001 27.1467 30.1001Z" fill="white"/><path d="M40.8567 11.3999C41.3534 11.3999 41.3534 10.5999 40.8567 10.5999 40.3599 10.6999 40.3599 11.3999 40.8567 11.3999Z" fill="white"/><path d="M26.948 83.6001C27.4447 83.6001 27.4447 82.8 26.948 82.8 26.4513 82.8 26.4513 83.6001 26.948 83.6001Z" fill="white"/><path d="M49.6389 60.1057C50.1357 60.1057 50.1357 59.3057 49.6389 59.3057 49.1422 59.3057 49.1422 60.1057 49.6389 60.1057Z" fill="white"/><path fill-rule="evenodd" clip-rule="evenodd" d="M44.8309 66.0999L45.8244 66.6999 44.8309 67.1999 44.2349 68.1999 43.7381 67.1999 42.7446 66.5999 43.7381 66.0999 44.3342 65.0999 44.8309 66.0999Z" fill="white"/><path fill-rule="evenodd" clip-rule="evenodd" d="M67.7802 84.5L68.6743 85.1 67.6808 85.6 67.1841 86.6 66.6873 85.6 65.6938 85 66.6873 84.5 67.1841 83.5 67.7802 84.5Z" fill="white" fill-opacity="0.5"/><path fill-rule="evenodd" clip-rule="evenodd" d="M66.255 87.3057L67.1492 87.9057 66.1557 88.4057 65.6589 89.4057 65.1622 88.4057 64.1687 87.8057 65.1622 87.3057 65.6589 86.3057 66.255 87.3057Z" fill="white"/><path fill-rule="evenodd" clip-rule="evenodd" d="M30.39 30.3057L31.3835 30.9057 30.39 31.4057 29.8933 32.4057 29.2972 31.4057 28.4031 30.8057 29.3966 30.3057 29.8933 29.3057 30.39 30.3057Z" fill="white"/></g><path opacity="0.2" fill-rule="evenodd" clip-rule="evenodd" d="M39.7419 88.3945C36.7326 96.9594 27.2417 101.473 18.6768 98.464 10.1119 95.4547 5.59796 85.9639 8.60725 77.399 11.6165 68.8341 21.1074 64.3201 29.6723 67.3294 38.2372 70.3387 42.7512 79.7138 39.7419 88.3945Z" fill="url(#paint3_linear)"/><path d="M23.6746 94.3967C30.302 94.3967 35.6746 89.0241 35.6746 82.3967 35.6746 75.7693 30.302 70.3967 23.6746 70.3967 17.0471 70.3967 11.6746 75.7693 11.6746 82.3967 11.6746 89.0241 17.0471 94.3967 23.6746 94.3967Z" fill="url(#paint4_radial)"/><path d="M35.3803 78.3967C38.4319 78.6232 40.4272 79.3025 40.6619 80.3215 41.014 82.4726 33.9719 85.3031 24.8172 86.6618 15.6624 88.0204 8.03346 87.4543 7.68135 85.3031 7.56398 84.2842 8.97241 83.152 11.5545 82.0198" stroke="#1D1670" stroke-width="0.5" stroke-miterlimit="10"/><path opacity="0.1" d="M69.5 34C78.6127 34 86 26.6127 86 17.5 86 8.3873 78.6127 1 69.5 1 60.3873 1 53 8.3873 53 17.5 53 26.6127 60.3873 34 69.5 34Z" fill="#8BECEF"/><path fill-rule="evenodd" clip-rule="evenodd" d="M56.626 21.9725C54.4343 15.1234 58.1785 7.81774 65.0275 5.62604 71.8766 3.43434 79.1823 7.17849 81.374 14.0275 83.5657 20.8766 79.8215 28.1823 72.9725 30.374 66.1234 32.5657 58.8177 28.8215 56.626 21.9725Z" fill="url(#paint5_radial)"/><defs><linearGradient id="paint0_linear" x1="93.1883" y1="-39.2257" x2="64.2378" y2="108.154" gradientUnits="userSpaceOnUse"><stop stop-color="#0C0F6C"/><stop offset="0.5891" stop-color="#3C0289"/><stop offset="1" stop-color="#8B46AB"/></linearGradient><linearGradient id="paint1_linear" x1="69.1191" y1="123.131" x2="29.57" y2="-9.39431" gradientUnits="userSpaceOnUse"><stop offset="0.038537" stop-color="#0C0F6C"/><stop offset="0.9137" stop-color="#4172DA"/></linearGradient><linearGradient id="paint2_linear" x1="69.1191" y1="123.131" x2="29.57" y2="-9.39431" gradientUnits="userSpaceOnUse"><stop offset="0.038537" stop-color="#0C0F6C"/><stop offset="0.9137" stop-color="#4172DA"/></linearGradient><linearGradient id="paint3_linear" x1="7.65238" y1="82.8781" x2="40.6804" y2="82.8781" gradientUnits="userSpaceOnUse"><stop stop-color="#EFC0D5"/><stop offset="1" stop-color="#C74ECE"/></linearGradient><radialGradient id="paint4_radial" cx="0" cy="0" r="1" gradientUnits="userSpaceOnUse" gradientTransform="translate(17.4893 88.0926) rotate(-40.2363) scale(20.2329)"><stop offset="0.660779" stop-color="#C74ECE"/><stop offset="1" stop-color="#EFC0D5"/></radialGradient><radialGradient id="paint5_radial" cx="0" cy="0" r="1" gradientUnits="userSpaceOnUse" gradientTransform="translate(68.0411 27.6342) rotate(-98.7462) scale(24.0227)"><stop offset="0.038537" stop-color="#0C0F6C"/><stop offset="0.357548" stop-color="#0D106D"/><stop offset="1" stop-color="#80C3FF"/></radialGradient></defs></svg>