<svg width="100" height="100" viewBox="0 0 100 100" fill="none" xmlns="http://www.w3.org/2000/svg"><defs><linearGradient id="paint0_linear" x1="93.19" y1="-39.23" x2="64.24" y2="108.15" gradientUnits="userSpaceOnUse"><stop stop-color="#0C0F6C"/><stop offset="0.59" stop-color="#3C0289"/><stop offset="1" stop-color="#8B46AB"/></linearGradient><linearGradient id="paint1_linear" x1="69.12" y1="123.13" x2="29.57" y2="-9.39" gradientUnits="userSpaceOnUse"><stop offset="0.04" stop-color="#0C0F6C"/><stop offset="0.91" stop-color="#4172DA"/></linearGradient><linearGradient id="paint2_linear" x1="69.12" y1="123.13" x2="29.57" y2="-9.39" gradientUnits="userSpaceOnUse"><stop offset="0.04" stop-color="#0C0F6C"/><stop offset="0.91" stop-color="#4172DA"/></linearGradient><radialGradient id="paint3_radial" cx="0" cy="0" r="1" gradientUnits="userSpaceOnUse" gradientTransform="translate(84.0383 42.3057) rotate(-121.556) scale(32.2722 32.1775)"><stop offset="0.72" stop-color="#DB75A2"/><stop offset="1" stop-color="#EFC0D5"/></radialGradient><linearGradient id="paint4_linear" x1="12.49" y1="84.55" x2="40.84" y2="84.55" gradientUnits="userSpaceOnUse"><stop stop-color="#EFC0D5"/><stop offset="1" stop-color="#C74ECE"/></linearGradient><radialGradient id="paint5_radial" cx="0" cy="0" r="1" gradientUnits="userSpaceOnUse" gradientTransform="translate(21.4488 89.3057) rotate(-40.4211) scale(16.9648 16.9828)"><stop offset="0.66" stop-color="#C74ECE"/><stop offset="1" stop-color="#EFC0D5"/></radialGradient></defs><path d="M58.57 70L65.63 62.49 58.57 70ZM58.57 70H67.98C71.5 70 74.83 71.29 77.22 73.58L77.22 73.59 77.23 73.6C79.61 75.99 81 79.34 81 82.9 81 86.47 79.6 89.71 77.25 92.19L77.24 92.2 77.23 92.2C74.85 94.6 71.42 96 67.98 96H31.12 30.12V95.86C27.03 95.62 24.01 94.26 21.86 92 19.51 89.62 18 86.38 18 82.7 18 79.09 19.16 75.92 21.76 73.5L46.02 45.51V45.49L46.18 45.32 46.46 45H46.5L46.6 44.9 46.71 45 46.6 44.9 47 44.5 47.03 44.46 47.07 44.43 47.63 43.96 49.78 41.8C51.73 39.84 53.23 37.93 54.16 35.97L54.17 35.95 54.18 35.92C54.72 34.94 54.96 34 54.96 33.2 54.96 31.96 54.45 31.09 53.37 30.47L53.36 30.46 53.35 30.46C52.56 29.98 51.46 29.7 50.1 29.7 48.74 29.7 47.65 29.89 46.78 30.34 45.95 30.76 45.25 31.46 44.69 32.63 43.9 35.99 42.4 38.66 40.27 40.5 38.1 42.36 35.35 43.3 32.21 43.3 28.42 43.3 25.26 42.13 22.94 39.69L22.94 39.69C20.75 37.37 19.69 34.2 19.69 30.8 19.69 30.02 19.78 29.25 19.86 28.46 19.87 28.37 19.88 28.28 19.89 28.19L19.9 28.18 19.9 28.16C20.63 22.76 24.08 17.16 29.07 12.75L29.07 12.75 29.08 12.74C34.61 8 41.69 5 49.7 5 58.7 5 66.3 7.24 71.89 11.83L71.89 11.83C77.73 16.65 80.6 23.46 80.6 32.1 80.6 37.62 79.68 42.29 77.22 47.05 74.97 51.58 71.02 56.76 65.63 62.48L58.57 70Z" fill="url(#paint0_linear)" stroke="white" stroke-width="2"/><mask id="mask0" mask-type="alpha" maskUnits="userSpaceOnUse" x="19" y="6" width="61" height="89"><path d="M31.12 94.9C27.94 94.9 24.76 93.6 22.58 91.3 20.39 89.1 19 86.1 19 82.7 19 79.3 20.09 76.4 22.48 74.2L46.92 46C47.02 46 47.02 46 47.02 45.9L47.12 45.8 47.31 45.6 47.71 45.2 48.31 44.7 50.49 42.5C52.48 40.5 54.07 38.5 55.06 36.4 55.66 35.3 55.96 34.2 55.96 33.2 55.96 31.6 55.26 30.4 53.87 29.6 52.88 29 51.59 28.7 50.1 28.7 47.22 28.7 45.03 29.5 43.74 32.3 42.25 38.8 38.07 42.3 32.21 42.3 28.64 42.3 25.76 41.2 23.67 39 21.68 36.9 20.69 34 20.69 30.8 20.69 30 20.79 29.2 20.89 28.3 21.58 23.2 24.86 17.8 29.73 13.5 35.09 8.9 41.95 6 49.7 6 58.54 6 65.89 8.2 71.26 12.6 76.82 17.2 79.6 23.7 79.6 32.1 79.6 37.5 78.71 42 76.32 46.6 74.14 51 70.26 56.1 64.9 61.8L56.26 71H67.98C71.26 71 74.34 72.2 76.52 74.3 78.71 76.5 80 79.6 80 82.9 80 86.2 78.71 89.2 76.52 91.5 74.34 93.7 71.16 95 67.98 95H31.12V94.9Z" fill="url(#paint1_linear)"/></mask><g mask="url(#mask0)"><path d="M31.12 94.9C27.94 94.9 24.76 93.6 22.58 91.3 20.39 89.1 19 86.1 19 82.7 19 79.3 20.09 76.4 22.48 74.2L46.92 46C47.02 46 47.02 46 47.02 45.9L47.12 45.8 47.31 45.6 47.71 45.2 48.31 44.7 50.49 42.5C52.48 40.5 54.07 38.5 55.06 36.4 55.66 35.3 55.96 34.2 55.96 33.2 55.96 31.6 55.26 30.4 53.87 29.6 52.88 29 51.59 28.7 50.1 28.7 47.22 28.7 45.03 29.5 43.74 32.3 42.25 38.8 38.07 42.3 32.21 42.3 28.64 42.3 25.76 41.2 23.67 39 21.68 36.9 20.69 34 20.69 30.8 20.69 30 20.79 29.2 20.89 28.3 21.58 23.2 24.86 17.8 29.73 13.5 35.09 8.9 41.95 6 49.7 6 58.54 6 65.89 8.2 71.26 12.6 76.82 17.2 79.6 23.7 79.6 32.1 79.6 37.5 78.71 42 76.32 46.6 74.14 51 70.26 56.1 64.9 61.8L56.26 71H67.98C71.26 71 74.34 72.2 76.52 74.3 78.71 76.5 80 79.6 80 82.9 80 86.2 78.71 89.2 76.52 91.5 74.34 93.7 71.16 95 67.98 95H31.12V94.9Z" fill="url(#paint2_linear)"/><path opacity="0.1" d="M18.35 30.02C16.6 34.33 15.37 39.11 16.9 43.73 17.68 46.07 19.18 48.1 21.37 49.26 26.02 51.7 30.82 48.99 34.88 46.42 41.03 42.58 47.3 38.65 52 33.12 54.61 30.07 56.74 26.44 60.6 24.66 61.98 23.97 63.67 24.28 64.77 25.47 66.46 27.36 65.09 29.81 63.68 31.65 55.98 41.42 46.77 49.93 38.92 59.63 31.08 69.32 24.48 80.67 23.36 93.11 22.69 100.86 24.44 109.15 29.78 114.73 32.17 117.25 35.19 119.05 38.23 120.65 43.08 123.23 48.27 125.37 53.72 125.75 63.81 126.41 73.28 121.08 81.74 115.62 90.99 109.7 99.8 103.15 108.16 96.07 114.07 91.09 119.78 85.69 124 79.19 128.29 72.54 131.07 64.63 130.29 56.68 130.04 54.43 129.48 52.02 127.77 50.62 126.44 49.5 124.7 49.13 122.91 49.08 116.11 48.9 110.2 53.23 104.82 57.37 99.07 61.78 93.36 66.25 87.67 70.61 78.05 78 68.01 85.6 56.16 87.75 54.58 88.02 52.96 88.22 51.53 87.63 48.79 86.48 47.81 83.06 48.18 80.1 48.69 75.35 51.73 71.17 55.43 68.21 59.12 65.25 63.42 63.16 67.68 61.02 73.03 58.3 78.31 55.34 83.41 52.14 86.24 50.34 89.14 48.5 91.35 45.92 93.26 43.74 94.76 40.55 92.81 37.99 91.97 36.91 90.71 36.3 89.38 36.11 86.5 35.7 83.89 37.16 81.49 38.65 72.45 44.33 64.48 51.7 55.2 56.9 54.53 57.27 53.69 57.67 52.95 57.26 52.46 56.95 52.23 56.36 52.16 55.85 51.37 51.09 56.15 47.56 59.91 44.55 65.43 40.21 70.08 34.62 73.27 28.37 75.34 24.4 76.47 18.67 72 16.49 70.55 15.73 68.82 15.64 67.2 16.12 59.65 18.33 54.07 24.2 47.47 28.18 46.42 28.81 45.34 29.39 44.25 29.96 40.89 31.67 37.73 27.36 40.24 24.57 49.05 14.66 60.15 6.6 69.24-3.31 69.92-4.07 70.27-5.16 70.02-6.2 69.51-8.54 66.54-8.42 64.42-7.86 43.98-2.58 26.4 9.92 18.35 30.02Z" fill="white"/><path d="M91.94 49.25C103.27 44.61 108.71 31.59 104.09 20.19 99.47 8.78 86.54 3.31 75.21 7.96 63.88 12.6 58.44 25.62 63.06 37.02 67.68 48.43 80.61 53.9 91.94 49.25Z" fill="url(#paint3_radial)"/><path d="M49 57.6C49.5 57.6 49.5 56.8 49 56.8 48.51 56.9 48.51 57.6 49 57.6Z" fill="white"/><path d="M49.64 50.11C50.14 50.11 50.14 49.31 49.64 49.31 49.14 49.31 49.14 50.11 49.64 50.11Z" fill="white"/><path d="M55.6 62.11C56.1 62.11 56.1 61.31 55.6 61.31 55.1 61.31 55.1 62.11 55.6 62.11Z" fill="white"/><path d="M49.9 70.5C50.39 70.5 50.39 69.7 49.9 69.7 49.4 69.7 49.4 70.5 49.9 70.5Z" fill="white"/><path d="M32.38 86.61C32.88 86.61 32.88 85.81 32.38 85.81 31.89 85.81 31.89 86.61 32.38 86.61Z" fill="white"/><path d="M62.48 79.11C62.98 79.11 62.98 78.31 62.48 78.31 62.08 78.31 62.08 79.11 62.48 79.11Z" fill="white"/><path d="M72.85 79.6C73.34 79.6 73.34 78.8 72.85 78.8 72.35 78.8 72.35 79.6 72.85 79.6Z" fill="white"/><path d="M40.36 87.2C40.36 87.1 40.36 87.1 40.36 87 40.36 86.5 39.57 86.5 39.57 87 39.57 87.1 39.57 87.1 39.57 87.2 39.57 87.7 40.36 87.7 40.36 87.2Z" fill="white"/><path d="M28.78 25.11C29.27 25.11 29.27 24.31 28.78 24.31 28.28 24.41 28.28 25.11 28.78 25.11Z" fill="white"/><path d="M34.74 37.11C35.23 37.11 35.23 36.31 34.74 36.31 34.24 36.31 34.24 37.11 34.74 37.11Z" fill="white"/><path d="M42.68 10.11C43.18 10.11 43.18 9.31 42.68 9.31 42.19 9.41 42.19 10.11 42.68 10.11Z" fill="white"/><path d="M60.37 17.8C60.87 17.8 60.87 17 60.37 17 59.88 17.1 59.88 17.8 60.37 17.8Z" fill="white"/><path d="M27.15 30.1C27.64 30.1 27.64 29.3 27.15 29.3 26.65 29.3 26.65 30.1 27.15 30.1Z" fill="white"/><path d="M40.86 11.4C41.35 11.4 41.35 10.6 40.86 10.6 40.36 10.7 40.36 11.4 40.86 11.4Z" fill="white"/><path d="M26.95 83.6C27.44 83.6 27.44 82.8 26.95 82.8 26.45 82.8 26.45 83.6 26.95 83.6Z" fill="white"/><path d="M49.64 60.11C50.14 60.11 50.14 59.31 49.64 59.31 49.14 59.31 49.14 60.11 49.64 60.11Z" fill="white"/><path fill-rule="evenodd" clip-rule="evenodd" d="M44.83 66.1L45.82 66.7 44.83 67.2 44.23 68.2 43.74 67.2 42.74 66.6 43.74 66.1 44.33 65.1 44.83 66.1Z" fill="white"/><path fill-rule="evenodd" clip-rule="evenodd" d="M67.78 84.5L68.67 85.1 67.68 85.6 67.18 86.6 66.69 85.6 65.69 85 66.69 84.5 67.18 83.5 67.78 84.5Z" fill="white" fill-opacity="0.5"/><path fill-rule="evenodd" clip-rule="evenodd" d="M66.26 87.31L67.15 87.91 66.16 88.41 65.66 89.41 65.16 88.41 64.17 87.81 65.16 87.31 65.66 86.31 66.26 87.31Z" fill="white"/><path opacity="0.2" fill-rule="evenodd" clip-rule="evenodd" d="M40.03 89.31C37.45 96.71 29.3 100.61 21.95 98.01 14.6 95.41 10.72 87.21 13.31 79.81 15.89 72.41 24.04 68.51 31.39 71.11 38.74 73.71 42.62 81.81 40.03 89.31Z" fill="url(#paint4_linear)"/><path fill-rule="evenodd" clip-rule="evenodd" d="M30.39 30.31L31.38 30.91 30.39 31.41 29.89 32.41 29.3 31.41 28.4 30.81 29.4 30.31 29.89 29.31 30.39 30.31Z" fill="white"/><path d="M26.62 94.61C32.16 94.61 36.66 90.09 36.66 84.51 36.66 78.93 32.16 74.41 26.62 74.41 21.08 74.41 16.59 78.93 16.59 84.51 16.59 90.09 21.08 94.61 26.62 94.61Z" fill="url(#paint5_radial)"/><path d="M36.26 80.91C38.84 81.11 40.53 81.71 40.73 82.61 41.03 84.51 35.07 87.01 27.32 88.21 19.57 89.41 13.11 88.91 12.81 87.01 12.71 86.11 13.9 85.11 16.09 84.11" stroke="#1D1670" stroke-width="0.5" stroke-miterlimit="10"/><path fill-rule="evenodd" clip-rule="evenodd" d="M54 31C54 40.34 67.85 48 85 48V47.53C68.27 47.53 54.69 40.15 54.69 31 54.69 26.58 57.85 22.58 63 19.62L63.22 18.91C57.53 22 54 26.29 54 31Z" fill="white"/></g></svg>