<svg width="100" height="100" viewBox="0 0 100 100" fill="none" xmlns="http://www.w3.org/2000/svg"><defs><linearGradient id="paint0_linear" x1="97.49" y1="-40.23" x2="70.96" y2="108.1" gradientUnits="userSpaceOnUse"><stop stop-color="#0C0F6C"/><stop offset="0.59" stop-color="#3C0289"/><stop offset="1" stop-color="#8B46AB"/></linearGradient><linearGradient id="paint1_linear" x1="63.51" y1="-17.1" x2="35.13" y2="106.15" gradientUnits="userSpaceOnUse"><stop offset="0.22" stop-color="#3C0289"/><stop offset="0.65" stop-color="#4172DA"/><stop offset="1" stop-color="#80C3FF"/></linearGradient><linearGradient id="paint2_linear" x1="63.51" y1="-17.1" x2="35.13" y2="106.15" gradientUnits="userSpaceOnUse"><stop offset="0.22" stop-color="#3C0289"/><stop offset="0.65" stop-color="#4172DA"/><stop offset="1" stop-color="#80C3FF"/></linearGradient><linearGradient id="paint3_linear" x1="22.72" y1="21.85" x2="29.73" y2="-5.61" gradientUnits="userSpaceOnUse"><stop stop-color="#4172DA"/><stop offset="0.82" stop-color="#8BECEF"/></linearGradient><radialGradient id="paint4_radial" cx="0" cy="0" r="1" gradientUnits="userSpaceOnUse" gradientTransform="translate(78.8334 97.2645) rotate(-120.266) scale(30.2606 30.2941)"><stop offset="0.65" stop-color="#0C0F6C"/><stop offset="1" stop-color="#C74ECE"/></radialGradient><radialGradient id="paint5_radial" cx="0" cy="0" r="1" gradientUnits="userSpaceOnUse" gradientTransform="translate(23.5301 0.741932) rotate(45.6219) scale(12.3074 12.308)"><stop offset="0.58" stop-color="#4172DA"/><stop offset="1" stop-color="#8BECEF"/></radialGradient></defs><path d="M17.12 76.92C20.01 82.27 24.55 86.9 30.12 89.99L30.12 89.99C35.86 93.16 42.02 94.8 48.57 95L48.58 95H48.6C54.77 95 60.55 93.46 65.9 90.38 70.96 87.49 75.08 83.38 78.26 78.05 81.45 72.8 83 67.03 83 60.87 83 55.13 81.66 49.95 78.74 45.56 76.29 41.71 72.91 38.64 68.85 36.41L80.07 26.4 80.09 26.38 80.11 26.36C82.7 23.77 84 20.42 84 16.87 84 13.63 82.71 10.29 80.43 7.91 78.14 5.41 74.98 4 71.5 4H30.9C27.32 4 23.97 5.51 21.59 7.88L21.59 7.89 21.58 7.9C19.21 10.37 17.8 13.71 17.8 17.17 17.8 20.63 19.21 23.81 21.64 25.9 23.95 27.99 27.3 29.15 30.9 29.15H39.13L32.54 34.88 32.52 34.9 32.49 34.92C29.92 37.5 28.6 40.54 28.6 44.11 28.6 47.36 29.9 50.6 32.17 52.98 34.44 55.46 37.59 56.98 41.07 57.08L41.08 57.09H41.1 51C53.4 57.09 54.79 57.3 55.55 57.68L55.57 57.69 55.58 57.69C56.39 58.06 57 58.99 57 60.77 57 63.19 56.11 65.12 54.51 66.63 52.9 68.16 50.74 69.05 48.4 69.05 44.6 69.05 41.01 67.01 39.71 64.15L39.69 64.11 39.67 64.07C37.18 59.76 32.65 57.28 27.9 57.28 24.08 57.28 20.89 58.45 18.47 61.09M17.12 76.92C17.12 76.91 17.12 76.91 17.12 76.91L18 76.44 17.12 76.92C17.12 76.92 17.12 76.92 17.12 76.92ZM17.12 76.92C15.76 74.42 15 71.96 15 69.36 15 66.38 16.32 63.35 18.47 61.09M18.47 61.09C18.47 61.09 18.47 61.09 18.46 61.1L19.2 61.77 18.48 61.08C18.47 61.08 18.47 61.09 18.47 61.09Z" fill="url(#paint0_linear)" stroke="white" stroke-width="2"/><mask id="mask0" mask-type="alpha" maskUnits="userSpaceOnUse" x="16" y="5" width="67" height="89"><path d="M30.6 89.11C25.2 86.12 20.8 81.63 18 76.44 16.7 74.04 16 71.75 16 69.36 16 66.66 17.2 63.87 19.2 61.77 21.4 59.38 24.3 58.28 27.9 58.28 32.3 58.28 36.5 60.58 38.8 64.57 40.3 67.86 44.3 70.05 48.4 70.05 51 70.05 53.4 69.06 55.2 67.36 57 65.66 58 63.47 58 60.77 58 58.78 57.3 57.38 56 56.78 55 56.28 53.4 56.09 51 56.09H41.1C37.9 55.99 35 54.59 32.9 52.29 30.8 50.1 29.6 47.11 29.6 44.11 29.6 40.82 30.8 38.03 33.2 35.63L41.8 28.15H30.9C27.5 28.15 24.4 27.05 22.3 25.15 20.1 23.26 18.8 20.37 18.8 17.17 18.8 13.98 20.1 10.89 22.3 8.59 24.5 6.4 27.6 5 30.9 5H71.5C74.7 5 77.6 6.3 79.7 8.59 81.8 10.79 83 13.88 83 16.87 83 20.17 81.8 23.26 79.4 25.65L67.1 36.63C71.6 38.82 75.3 42.02 77.9 46.11 80.7 50.3 82 55.29 82 60.87 82 66.86 80.5 72.45 77.4 77.54 74.3 82.73 70.3 86.72 65.4 89.51 60.2 92.5 54.6 94 48.6 94 42.2 93.8 36.2 92.2 30.6 89.11Z" fill="url(#paint1_linear)"/></mask><g mask="url(#mask0)"><path d="M30.6 89.11C25.2 86.12 20.8 81.63 18 76.44 16.7 74.04 16 71.75 16 69.36 16 66.66 17.2 63.87 19.2 61.77 21.4 59.38 24.3 58.28 27.9 58.28 32.3 58.28 36.5 60.58 38.8 64.57 40.3 67.86 44.3 70.05 48.4 70.05 51 70.05 53.4 69.06 55.2 67.36 57 65.66 58 63.47 58 60.77 58 58.78 57.3 57.38 56 56.78 55 56.28 53.4 56.09 51 56.09H41.1C37.9 55.99 35 54.59 32.9 52.29 30.8 50.1 29.6 47.11 29.6 44.11 29.6 40.82 30.8 38.03 33.2 35.63L41.8 28.15H30.9C27.5 28.15 24.4 27.05 22.3 25.15 20.1 23.26 18.8 20.37 18.8 17.17 18.8 13.98 20.1 10.89 22.3 8.59 24.5 6.4 27.6 5 30.9 5H71.5C74.7 5 77.6 6.3 79.7 8.59 81.8 10.79 83 13.88 83 16.87 83 20.17 81.8 23.26 79.4 25.65L67.1 36.63C71.6 38.82 75.3 42.02 77.9 46.11 80.7 50.3 82 55.29 82 60.87 82 66.86 80.5 72.45 77.4 77.54 74.3 82.73 70.3 86.72 65.4 89.51 60.2 92.5 54.6 94 48.6 94 42.2 93.8 36.2 92.2 30.6 89.11Z" fill="url(#paint2_linear)"/><path d="M26.7 13.28C27.2 13.28 27.2 12.48 26.7 12.48 26.2 12.48 26.2 13.28 26.7 13.28Z" fill="white"/><path opacity="0.5" d="M31.51 16.57C32.01 16.57 32.01 15.78 31.51 15.78 31.01 15.78 31.01 16.57 31.51 16.57Z" fill="white"/><path opacity="0.5" d="M50.2 12.28C50.7 12.28 50.7 11.49 50.2 11.49 49.7 11.49 49.7 12.28 50.2 12.28Z" fill="white"/><path d="M71.95 21.86C72.45 21.86 72.45 21.06 71.95 21.06 71.45 21.06 71.45 21.86 71.95 21.86Z" fill="white"/><path d="M61.7 28.25C62.2 28.25 62.2 27.45 61.7 27.45 61.2 27.45 61.2 28.25 61.7 28.25Z" fill="white"/><path d="M74.58 22.26C75.08 22.26 75.08 21.46 74.58 21.46 74.08 21.46 74.08 22.26 74.58 22.26Z" fill="white"/><path d="M44.7 48.2C45.2 48.2 45.2 47.4 44.7 47.4 44.2 47.4 44.2 48.2 44.7 48.2Z" fill="white"/><path d="M60.7 50.2C61.2 50.2 61.2 49.4 60.7 49.4 60.2 49.4 60.2 50.2 60.7 50.2Z" fill="white"/><path opacity="0.5" d="M39.3 42.02C39.8 42.02 39.8 41.22 39.3 41.22 38.8 41.22 38.8 42.02 39.3 42.02Z" fill="white"/><path d="M49.88 23.06C50.38 23.06 50.38 22.26 49.88 22.26 49.38 22.26 49.38 23.06 49.88 23.06Z" fill="white"/><path d="M36.7 41.22C37.2 41.22 37.2 40.42 36.7 40.42 36.2 40.42 36.2 41.22 36.7 41.22Z" fill="white"/><path opacity="0.1" d="M82.6 63.43C86 58.34 88.9 52.65 88.1 46.37 87.7 43.18 86.3 40.18 83.8 38.19 78.5 33.9 71.6 35.99 65.6 38.19 56.7 41.48 47.6 44.87 40.1 50.66 35.9 53.95 32.2 57.94 26.8 59.24 24.8 59.74 22.7 58.94 21.6 57.14 19.9 54.25 22.4 51.46 24.6 49.56 37.1 39.09 51.2 30.6 63.9 20.33 76.6 10.05 88.1-2.72 92.7-18.29 95.6-27.96 95.5-39.04 90.1-47.52 87.7-51.31 84.3-54.5 80.8-57.4 75.3-61.99 69.1-66.08 62.2-67.97 49.4-71.47 35.7-67.18 23.4-62.49 10-57.4-3.1-51.41-15.8-44.53 -24.7-39.64-33.5-34.25-40.7-27.17 -48-19.88-53.6-10.4-54.8-0.13 -55.1 2.77-55 5.96-53.2 8.25 -51.8 10.05-49.6 10.95-47.4 11.55 -38.7 13.54-29.9 9.55-21.9 5.76 -13.4 1.67-4.8-2.52 3.7-6.61 18-13.5 33-20.58 48.8-20.18 50.9-20.18 53-19.88 54.7-18.78 57.9-16.59 58.3-11.9 57.1-8.31 55.2-2.42 50.2 2.17 44.6 4.96 39.1 7.86 32.9 9.25 26.9 10.85 19.3 12.94 11.7 15.34 4.3 18.03 0.1 19.53-4 21.23-7.6 23.82 -10.7 26.11-13.4 29.81-11.6 33.6 -10.8 35.19-9.4 36.29-7.7 36.89 -4.1 38.19-0.4 37.09 3.1 35.79 16.3 31 28.4 23.62 41.8 19.43 42.8 19.13 44 18.83 44.7 19.53 45.3 20.03 45.4 20.83 45.3 21.62 45 27.91 38 31.2 32.3 34 24 38.09 16.6 43.97 10.8 51.16 7.1 55.65 4.1 62.73 9.3 66.62 11 67.92 13.2 68.52 15.4 68.32 25.7 67.52 34.4 61.44 44 58.14 45.5 57.64 47.1 57.14 48.7 56.75 53.5 55.45 56.4 61.73 52.5 64.73 38.5 75.1 22.1 82.39 7.8 92.57 6.7 93.36 5.9 94.66 6 96.06 6.1 99.15 9.9 99.85 12.8 99.75 41 98.35 66.9 86.98 82.6 63.43Z" fill="white"/><path d="M74.2 57.68C74.7 57.68 74.7 56.88 74.2 56.88 73.7 56.88 73.7 57.68 74.2 57.68Z" fill="white"/><path d="M73.2 49.2C73.7 49.2 73.7 48.4 73.2 48.4 72.7 48.4 72.7 49.2 73.2 49.2Z" fill="white"/><path d="M53.43 76.74C53.93 76.74 53.93 75.94 53.43 75.94 52.93 75.94 52.93 76.74 53.43 76.74Z" fill="white"/><path opacity="0.5" d="M42.7 81.63C43.2 81.63 43.2 80.83 42.7 80.83 42.2 80.83 42.2 81.63 42.7 81.63Z" fill="white"/><path d="M20.98 69.17C21.48 69.17 21.48 68.37 20.98 68.37 20.48 68.37 20.48 69.17 20.98 69.17Z" fill="white"/><path d="M56.2 90.61C56.7 90.61 56.7 89.81 56.2 89.81 55.7 89.81 55.7 90.61 56.2 90.61Z" fill="white"/><path d="M73.2 72.65C73.7 72.65 73.7 71.85 73.2 71.85 72.7 71.85 72.7 72.65 73.2 72.65Z" fill="white"/><path opacity="0.5" d="M26.2 79.13C26.7 79.13 26.7 78.34 26.2 78.34 25.7 78.34 25.7 79.13 26.2 79.13Z" fill="white"/><path d="M31.14 77.54C31.64 77.54 31.64 76.74 31.14 76.74 30.64 76.74 30.64 77.54 31.14 77.54Z" fill="white"/><path opacity="0.1" fill-rule="evenodd" clip-rule="evenodd" d="M18.4 0.51C20.8-4.28 26.7-6.18 31.4-3.78 36.2-1.39 38.1 4.5 35.7 9.19 33.3 13.98 27.4 15.88 22.7 13.48 17.9 11.09 16 5.3 18.4 0.51Z" fill="url(#paint3_linear)"/><path d="M63.2 8.79C63.7 8.79 63.7 7.99 63.2 7.99 62.7 7.99 62.7 8.79 63.2 8.79Z" fill="white"/><path d="M70.7 9.29C71.2 9.29 71.2 8.49 70.7 8.49 70.2 8.49 70.2 9.29 70.7 9.29Z" fill="white"/><path fill-rule="evenodd" clip-rule="evenodd" d="M75.6 53.49L76.8 54.19 75.6 54.79 74.9 55.99 74.3 54.79 73.1 54.09 74.3 53.49 75 52.29 75.6 53.49Z" fill="white"/><path fill-rule="evenodd" clip-rule="evenodd" d="M37.73 43.91L38.93 44.61 37.73 45.21 37.03 46.41 36.43 45.21 35.23 44.51 36.43 43.91 37.13 42.72 37.73 43.91Z" fill="white"/><path fill-rule="evenodd" clip-rule="evenodd" d="M70.1 23.06L71.2 23.76 70 24.36 69.4 25.55 68.7 24.36 67.6 23.66 68.8 23.06 69.4 21.86 70.1 23.06Z" fill="white"/><path fill-rule="evenodd" clip-rule="evenodd" d="M53.7 9.39L54.9 10.09 53.7 10.69 53 11.88 52.4 10.69 51.2 9.99 52.4 9.39 53.1 8.19 53.7 9.39Z" fill="white"/><path opacity="0.1" fill-rule="evenodd" clip-rule="evenodd" d="M54.48 90.33C51.48 80.96 56.68 70.88 66.08 67.79 75.48 64.79 85.58 69.98 88.68 79.36 91.68 88.74 86.48 98.82 77.08 101.91 67.58 105 57.48 99.81 54.48 90.33Z" fill="white"/><path fill-rule="evenodd" clip-rule="evenodd" d="M58.03 89.21C55.63 81.73 59.73 73.75 67.23 71.35 74.73 68.96 82.73 73.05 85.13 80.53 87.53 88.01 83.43 96 75.93 98.39 68.43 100.79 60.43 96.69 58.03 89.21Z" fill="url(#paint4_radial)"/><path d="M27.1 11.39C30.69 11.39 33.6 8.48 33.6 4.9 33.6 1.32 30.69-1.59 27.1-1.59 23.51-1.59 20.6 1.32 20.6 4.9 20.6 8.48 23.51 11.39 27.1 11.39Z" fill="url(#paint5_radial)"/></g></svg>