<svg width="100" height="100" viewBox="0 0 100 100" fill="none" xmlns="http://www.w3.org/2000/svg"><path d="M30.1152 89.9856L30.1165 89.9863C35.8601 93.1587 42.0159 94.7952 48.5688 94.9995L48.5844 95H48.6C54.7744 95 60.5458 93.4577 65.8971 90.3778 70.9554 87.4934 75.0751 83.3766 78.2562 78.0537 81.4545 72.8023 83 67.0347 83 60.8744 83 55.1337 81.6638 49.9453 78.7379 45.5616 76.2897 41.7135 72.9113 38.6388 68.8488 36.4087L80.0658 26.3997 80.0866 26.3812 80.1063 26.3615C82.7035 23.7701 84 20.4183 84 16.8733 84 13.6332 82.7084 10.2944 80.4303 7.90871 78.1415 5.41195 74.9769 4 71.5 4H30.9C27.3197 4 23.9699 5.51318 21.5937 7.88403L21.5858 7.89188 21.5782 7.8999C19.2077 10.3726 17.8 13.7106 17.8 17.1726 17.8 20.6313 19.2079 23.8056 21.6385 25.9047 23.9533 27.9898 27.3027 29.148 30.9 29.148H39.1274L32.5436 34.8768 32.5179 34.8992 32.4937 34.9233C29.9152 37.496 28.6 40.5407 28.6 44.1121 28.6 47.361 29.8977 50.5978 32.1698 52.977 34.4447 55.4587 37.5933 56.9763 41.0688 57.0847L41.0844 57.0852H41.1 51C53.4034 57.0852 54.7859 57.2955 55.5536 57.6785L55.5675 57.6854 55.5817 57.6919C56.3887 58.0636 57 58.9898 57 60.7747 57 63.1918 56.1146 65.1239 54.5142 66.6321 52.8958 68.1571 50.7397 69.0538 48.4 69.0538 44.5968 69.0538 41.0115 67.0085 39.71 64.1516L39.6903 64.1082 39.6664 64.0668C37.1824 59.7564 32.6464 57.2803 27.9 57.2803 24.0798 57.2803 20.8937 58.4549 18.4701 61.0888 16.3167 63.3481 15 66.3793 15 69.3554 15 71.9573 15.7636 74.4158 17.1209 76.9161 20.0124 82.2731 24.5497 86.9006 30.1152 89.9856Z" fill="url(#paint0_linear)" stroke="white" stroke-width="2"/><mask id="mask0" mask-type="alpha" maskUnits="userSpaceOnUse" x="16" y="5" width="67" height="89"><path d="M30.6 89.111C25.2 86.1177 20.8 81.6278 18 76.4395 16.7 74.0448 16 71.75 16 69.3554 16 66.6614 17.2 63.8677 19.2 61.7724 21.4 59.3778 24.3 58.2803 27.9 58.2803 32.3 58.2803 36.5 60.5751 38.8 64.5661 40.3 67.8587 44.3 70.0538 48.4 70.0538 51 70.0538 53.4 69.0561 55.2 67.3599 57 65.6637 58 63.4686 58 60.7747 58 58.7791 57.3 57.3823 56 56.7836 55 56.2848 53.4 56.0852 51 56.0852H41.1C37.9 55.9854 35 54.5886 32.9 52.2937 30.8 50.0987 29.6 47.1054 29.6 44.1121 29.6 40.8195 30.8 38.0258 33.2 35.6312L41.8 28.148H30.9C27.5 28.148 24.4 27.0505 22.3 25.1547 20.1 23.259 18.8 20.3655 18.8 17.1726 18.8 13.9798 20.1 10.8868 22.3 8.59193 24.5 6.39686 27.6 5 30.9 5H71.5C74.7 5 77.6 6.29709 79.7 8.59193 81.8 10.787 83 13.88 83 16.8733 83 20.1659 81.8 23.259 79.4 25.6536L67.1 36.6289C71.6 38.824 75.3 42.0168 77.9 46.1076 80.7 50.2982 82 55.287 82 60.8744 82 66.861 80.5 72.4484 77.4 77.537 74.3 82.7253 70.3 86.7164 65.4 89.5101 60.2 92.5034 54.6 94 48.6 94 42.2 93.8004 36.2 92.204 30.6 89.111Z" fill="url(#paint1_linear)"/></mask><g mask="url(#mask0)"><path d="M30.6 89.111C25.2 86.1177 20.8 81.6278 18 76.4395 16.7 74.0448 16 71.75 16 69.3554 16 66.6614 17.2 63.8677 19.2 61.7724 21.4 59.3778 24.3 58.2803 27.9 58.2803 32.3 58.2803 36.5 60.5751 38.8 64.5661 40.3 67.8587 44.3 70.0538 48.4 70.0538 51 70.0538 53.4 69.0561 55.2 67.3599 57 65.6637 58 63.4686 58 60.7747 58 58.7791 57.3 57.3823 56 56.7836 55 56.2848 53.4 56.0852 51 56.0852H41.1C37.9 55.9854 35 54.5886 32.9 52.2937 30.8 50.0987 29.6 47.1054 29.6 44.1121 29.6 40.8195 30.8 38.0258 33.2 35.6312L41.8 28.148H30.9C27.5 28.148 24.4 27.0505 22.3 25.1547 20.1 23.259 18.8 20.3655 18.8 17.1726 18.8 13.9798 20.1 10.8868 22.3 8.59193 24.5 6.39686 27.6 5 30.9 5H71.5C74.7 5 77.6 6.29709 79.7 8.59193 81.8 10.787 83 13.88 83 16.8733 83 20.1659 81.8 23.259 79.4 25.6536L67.1 36.6289C71.6 38.824 75.3 42.0168 77.9 46.1076 80.7 50.2982 82 55.287 82 60.8744 82 66.861 80.5 72.4484 77.4 77.537 74.3 82.7253 70.3 86.7164 65.4 89.5101 60.2 92.5034 54.6 94 48.6 94 42.2 93.8004 36.2 92.204 30.6 89.111Z" fill="url(#paint2_linear)"/><path d="M26.7002 13.2814C27.2002 13.2814 27.2002 12.4832 26.7002 12.4832 26.2002 12.4832 26.2002 13.2814 26.7002 13.2814Z" fill="white"/><path opacity="0.5" d="M31.5117 16.5741C32.0117 16.5741 32.0117 15.7759 31.5117 15.7759 31.0117 15.7759 31.0117 16.5741 31.5117 16.5741Z" fill="white"/><path opacity="0.5" d="M50.2002 12.2836C50.7002 12.2836 50.7002 11.4854 50.2002 11.4854 49.7002 11.4854 49.7002 12.2836 50.2002 12.2836Z" fill="white"/><path d="M71.9502 21.8619C72.4502 21.8619 72.4502 21.0637 71.9502 21.0637 71.4502 21.0637 71.4502 21.8619 71.9502 21.8619Z" fill="white"/><path d="M61.7002 28.2477C62.2002 28.2477 62.2002 27.4495 61.7002 27.4495 61.2002 27.4495 61.2002 28.2477 61.7002 28.2477Z" fill="white"/><path d="M74.5752 22.2611C75.0752 22.2611 75.0752 21.4629 74.5752 21.4629 74.0752 21.4629 74.0752 22.2611 74.5752 22.2611Z" fill="white"/><path d="M44.7002 48.203C45.2002 48.203 45.2002 47.4048 44.7002 47.4048 44.2002 47.4048 44.2002 48.203 44.7002 48.203Z" fill="white"/><path d="M60.7002 50.1984C61.2002 50.1984 61.2002 49.4001 60.7002 49.4001 60.2002 49.4001 60.2002 50.1984 60.7002 50.1984Z" fill="white"/><path opacity="0.5" d="M39.3003 42.017C39.8003 42.017 39.8003 41.2188 39.3003 41.2188 38.8003 41.2187 38.8003 42.017 39.3003 42.017Z" fill="white"/><path d="M49.875 23.0594C50.375 23.0594 50.375 22.2612 49.875 22.2612 49.375 22.2612 49.375 23.0594 49.875 23.0594Z" fill="white"/><path d="M36.7002 41.2186C37.2002 41.2186 37.2002 40.4204 36.7002 40.4204 36.2002 40.4204 36.2002 41.2186 36.7002 41.2186Z" fill="white"/><path d="M74.2002 57.6815C74.7002 57.6815 74.7002 56.8833 74.2002 56.8833 73.7002 56.8833 73.7002 57.6815 74.2002 57.6815Z" fill="white"/><path d="M73.2002 49.2006C73.7002 49.2006 73.7002 48.4023 73.2002 48.4023 72.7002 48.4023 72.7002 49.2006 73.2002 49.2006Z" fill="white"/><path d="M53.4253 76.7389C53.9253 76.7389 53.9253 75.9407 53.4253 75.9407 52.9253 75.9407 52.9253 76.7389 53.4253 76.7389Z" fill="white"/><path opacity="0.5" d="M42.7002 81.6278C43.2002 81.6278 43.2002 80.8296 42.7002 80.8296 42.2002 80.8296 42.2002 81.6278 42.7002 81.6278Z" fill="white"/><path d="M20.9751 69.1652C21.4751 69.1652 21.4751 68.3669 20.9751 68.3669 20.4751 68.3669 20.4751 69.1652 20.9751 69.1652Z" fill="white"/><path d="M56.2002 90.6075C56.7002 90.6075 56.7002 89.8093 56.2002 89.8093 55.7002 89.8093 55.7002 90.6075 56.2002 90.6075Z" fill="white"/><path d="M73.2002 72.6481C73.7002 72.6481 73.7002 71.8499 73.2002 71.8499 72.7002 71.8499 72.7002 72.6481 73.2002 72.6481Z" fill="white"/><path opacity="0.5" d="M26.2002 79.1334C26.7002 79.1334 26.7002 78.3352 26.2002 78.3352 25.7002 78.3352 25.7002 79.1334 26.2002 79.1334Z" fill="white"/><path d="M31.1367 77.537C31.6367 77.537 31.6367 76.7388 31.1367 76.7388 30.6367 76.7388 30.6367 77.537 31.1367 77.537Z" fill="white"/><path d="M63.2002 8.79137C63.7002 8.79137 63.7002 7.99316 63.2002 7.99316 62.7002 7.99316 62.7002 8.79137 63.2002 8.79137Z" fill="white"/><path d="M70.7002 9.2904C71.2002 9.2904 71.2002 8.49219 70.7002 8.49219 70.2002 8.49219 70.2002 9.2904 70.7002 9.2904Z" fill="white"/><path fill-rule="evenodd" clip-rule="evenodd" d="M75.6001 53.491L76.8001 54.1894 75.6001 54.7881 74.9001 55.9854 74.3001 54.7881 73.1001 54.0897 74.3001 53.491 75.0001 52.2937 75.6001 53.491Z" fill="white"/><path fill-rule="evenodd" clip-rule="evenodd" d="M37.7251 43.9126L38.9251 44.6111 37.7251 45.2097 37.0251 46.407 36.4251 45.2097 35.2251 44.5113 36.4251 43.9126 37.1251 42.7153 37.7251 43.9126Z" fill="white"/><path fill-rule="evenodd" clip-rule="evenodd" d="M70.1001 23.0594L71.2001 23.7578 70.0001 24.3565 69.4001 25.5538 68.7001 24.3565 67.6001 23.658 68.8001 23.0594 69.4001 21.8621 70.1001 23.0594Z" fill="white"/><path fill-rule="evenodd" clip-rule="evenodd" d="M53.7002 9.39018L54.9002 10.0886 53.7002 10.6873 53.0002 11.8846 52.4002 10.6873 51.2002 9.98883 52.4002 9.39018 53.1002 8.19287 53.7002 9.39018Z" fill="white"/></g><path opacity="0.1" fill-rule="evenodd" clip-rule="evenodd" d="M12.5898 6.45964C15.062 1.5152 21.1396-0.441969 25.981 2.03025 30.9254 4.50246 32.8826 10.58 30.4104 15.4214 27.9382 20.3659 21.8606 22.323 17.0192 19.8508 12.0748 17.3786 10.1176 11.4041 12.5898 6.45964Z" fill="url(#paint3_linear)"/><path d="M21.5 19.4404C26.1944 19.4404 30 15.6348 30 10.9404 30 6.24601 26.1944 2.44043 21.5 2.44043 16.8056 2.44043 13 6.24601 13 10.9404 13 15.6348 16.8056 19.4404 21.5 19.4404Z" fill="url(#paint4_radial)"/><path opacity="0.1" fill-rule="evenodd" clip-rule="evenodd" d="M53.8045 86.5277C50.9632 77.8981 55.8882 68.6258 64.7909 65.7798 73.6937 63.0257 83.2595 67.7996 86.1955 76.4292 89.0368 85.0589 84.1118 94.3311 75.2091 97.1771 66.2116 100.023 56.6458 95.2492 53.8045 86.5277Z" fill="white"/><path fill-rule="evenodd" clip-rule="evenodd" d="M57.6501 85.6252C55.3741 78.5128 59.2623 70.9261 66.3748 68.6501 73.4873 66.3741 81.0739 70.2623 83.3499 77.3748 85.6259 84.4872 81.7377 92.0739 74.6252 94.3499 67.5127 96.6259 59.9261 92.7377 57.6501 85.6252Z" fill="url(#paint5_radial)"/><defs><linearGradient id="paint0_linear" x1="97.4855" y1="-40.2257" x2="70.959" y2="108.097" gradientUnits="userSpaceOnUse"><stop stop-color="#0C0F6C"/><stop offset="0.5891" stop-color="#3C0289"/><stop offset="1" stop-color="#8B46AB"/></linearGradient><linearGradient id="paint1_linear" x1="63.5052" y1="-17.1032" x2="35.1263" y2="106.148" gradientUnits="userSpaceOnUse"><stop offset="0.2225" stop-color="#3C0289"/><stop offset="0.651" stop-color="#4172DA"/><stop offset="1" stop-color="#80C3FF"/></linearGradient><linearGradient id="paint2_linear" x1="63.5052" y1="-17.1032" x2="35.1263" y2="106.148" gradientUnits="userSpaceOnUse"><stop offset="0.2225" stop-color="#3C0289"/><stop offset="0.651" stop-color="#4172DA"/><stop offset="1" stop-color="#80C3FF"/></linearGradient><linearGradient id="paint3_linear" x1="17.0406" y1="28.4897" x2="24.29" y2="0.145852" gradientUnits="userSpaceOnUse"><stop stop-color="#4172DA"/><stop offset="0.8216" stop-color="#8BECEF"/></linearGradient><radialGradient id="paint4_radial" cx="0" cy="0" r="1" gradientUnits="userSpaceOnUse" gradientTransform="translate(16.8316 5.49045) rotate(45.6861) scale(16.1127)"><stop offset="0.579895" stop-color="#4172DA"/><stop offset="1" stop-color="#8BECEF"/></radialGradient><radialGradient id="paint5_radial" cx="0" cy="0" r="1" gradientUnits="userSpaceOnUse" gradientTransform="translate(77.383 93.2799) rotate(-120.21) scale(28.7452)"><stop offset="0.646127" stop-color="#0C0F6C"/><stop offset="1" stop-color="#C74ECE"/></radialGradient></defs></svg>