<svg width="100" height="100" viewBox="0 0 100 100" fill="none" xmlns="http://www.w3.org/2000/svg"><defs><linearGradient id="paint0_linear" x1="97.27" y1="-38.72" x2="70.95" y2="107.9" gradientUnits="userSpaceOnUse"><stop stop-color="#0C0F6C"/><stop offset="0.59" stop-color="#3C0289"/><stop offset="1" stop-color="#8B46AB"/></linearGradient><linearGradient id="paint1_linear" x1="56.12" y1="16.3" x2="45.58" y2="95.35" gradientUnits="userSpaceOnUse"><stop stop-color="#3C0289"/><stop offset="0.49" stop-color="#4172DA"/><stop offset="0.94" stop-color="#80C3FF"/></linearGradient><linearGradient id="paint2_linear" x1="56.12" y1="16.3" x2="45.58" y2="95.35" gradientUnits="userSpaceOnUse"><stop stop-color="#3C0289"/><stop offset="0.49" stop-color="#4172DA"/><stop offset="0.94" stop-color="#80C3FF"/></linearGradient><radialGradient id="paint3_radial" cx="0" cy="0" r="1" gradientUnits="userSpaceOnUse" gradientTransform="translate(25.3553 14.482) rotate(45.3778) scale(20.2096 20.2126)"><stop offset="0.13" stop-color="#C74ECE"/><stop offset="1" stop-color="#EFC0D5"/></radialGradient><radialGradient id="paint4_radial" cx="0" cy="0" r="1" gradientUnits="userSpaceOnUse" gradientTransform="translate(60.2751 68.5258) rotate(-70.4865) scale(14.5405 14.6368)"><stop offset="0.53" stop-color="#4172DA"/><stop offset="0.82" stop-color="#8BECEF"/></radialGradient><radialGradient id="paint5_radial" cx="0" cy="0" r="1" gradientUnits="userSpaceOnUse" gradientTransform="translate(27.9457 31.024) rotate(-65.8014) scale(21.74 21.8631)"><stop offset="0.69" stop-color="#C74ECE"/><stop offset="1" stop-color="#EFC0D5"/></radialGradient></defs><path d="M26.77 74.12L26.79 74.12 26.8 74.13 27.39 74.21C27.59 74.28 27.78 74.31 27.92 74.32 28.11 74.34 28.3 74.34 28.44 74.34H28.45 29.16 47.54V82.4C47.54 85.88 49.07 89.21 51.46 91.58 53.86 93.96 57.14 95.27 60.84 94.95 64.39 94.94 67.55 93.65 69.94 91.28L69.95 91.27 69.96 91.26C72.24 88.89 73.65 85.55 73.65 82.1V73.78C76.41 73.25 78.76 71.96 80.74 69.61 82.81 67.34 84 64.31 84 61.08 84 58.04 82.8 54.92 80.74 52.56L80.73 52.55 80.72 52.54C78.74 50.38 76.38 49.02 73.58 48.39 73.23 45.3 71.95 42.55 69.72 40.44 67.32 38.16 64.16 36.97 60.9 36.97 57.33 36.97 54.39 38.17 51.81 40.41L51.79 40.42 51.77 40.44C49.61 42.48 48.15 45.08 47.66 48.13H45.76L57.07 22.59C57.97 21.01 58.28 19.25 58.28 17.55 58.28 14.39 56.97 11.26 54.69 8.89L54.67 8.88 54.66 8.86C51.98 6.31 48.92 5 45.33 5 39.93 5 34.93 8.1 32.85 13.09L32.84 13.11 32.84 13.13 17.38 55.42C16.53 57.22 16 59.25 16 61.58 16 64.6 16.98 67.43 19.06 69.81 21.13 72.18 23.75 73.59 26.77 74.12Z" fill="url(#paint0_linear)" stroke="white" stroke-width="2"/><mask id="mask0" mask-type="alpha" maskUnits="userSpaceOnUse" x="17" y="6" width="66" height="88"><path d="M52.16 90.87C49.95 88.68 48.54 85.59 48.54 82.4V73.34H29.16 28.45C28.15 73.34 27.85 73.34 27.65 73.24L26.95 73.14C24.13 72.64 21.72 71.34 19.81 69.15 17.9 66.96 17 64.37 17 61.58 17 59.39 17.5 57.5 18.31 55.8L33.78 13.47C35.68 8.89 40.31 6 45.33 6 48.64 6 51.46 7.2 53.97 9.59 56.08 11.78 57.28 14.67 57.28 17.55 57.28 19.15 56.98 20.74 56.18 22.14L44.22 49.13H48.54C48.84 45.94 50.25 43.25 52.46 41.16 54.87 39.07 57.58 37.97 60.9 37.97 63.91 37.97 66.83 39.07 69.04 41.16 71.25 43.25 72.45 46.04 72.65 49.23 75.57 49.73 77.98 51.02 79.99 53.21 81.9 55.41 83 58.29 83 61.08 83 64.07 81.9 66.86 79.99 68.95 77.98 71.34 75.57 72.54 72.65 72.94V82.1C72.65 85.29 71.35 88.38 69.24 90.57 67.03 92.76 64.11 93.95 60.8 93.95 57.38 94.25 54.37 93.06 52.16 90.87Z" fill="url(#paint1_linear)"/></mask><g mask="url(#mask0)"><path d="M52.16 90.87C49.95 88.68 48.54 85.59 48.54 82.4V73.34H29.16 28.45C28.15 73.34 27.85 73.34 27.65 73.24L26.95 73.14C24.13 72.64 21.72 71.34 19.81 69.15 17.9 66.96 17 64.37 17 61.58 17 59.39 17.5 57.5 18.31 55.8L33.78 13.47C35.68 8.89 40.31 6 45.33 6 48.64 6 51.46 7.2 53.97 9.59 56.08 11.78 57.28 14.67 57.28 17.55 57.28 19.15 56.98 20.74 56.18 22.14L44.22 49.13H48.54C48.84 45.94 50.25 43.25 52.46 41.16 54.87 39.07 57.58 37.97 60.9 37.97 63.91 37.97 66.83 39.07 69.04 41.16 71.25 43.25 72.45 46.04 72.65 49.23 75.57 49.73 77.98 51.02 79.99 53.21 81.9 55.41 83 58.29 83 61.08 83 64.07 81.9 66.86 79.99 68.95 77.98 71.34 75.57 72.54 72.65 72.94V82.1C72.65 85.29 71.35 88.38 69.24 90.57 67.03 92.76 64.11 93.95 60.8 93.95 57.38 94.25 54.37 93.06 52.16 90.87Z" fill="url(#paint2_linear)"/><path d="M51.13 21.04C51.63 21.04 51.63 20.24 51.13 20.24 50.63 20.34 50.63 21.04 51.13 21.04Z" fill="white"/><path d="M44.42 20.64C44.93 20.64 44.93 19.85 44.42 19.85 43.92 19.85 43.92 20.64 44.42 20.64Z" fill="white"/><path opacity="0.1" d="M91.11 90.45C94.19 85.87 96.81 80.76 96.09 75.1 95.73 72.23 94.46 69.54 92.2 67.74 87.4 63.89 81.16 65.77 75.73 67.74 67.67 70.71 59.44 73.76 52.65 78.96 48.85 81.92 45.5 85.51 40.61 86.68 38.8 87.13 36.9 86.41 35.91 84.79 34.37 82.19 36.63 79.68 38.62 77.97 49.93 68.55 62.69 60.92 74.19 51.68 85.68 42.44 96.09 30.95 100.25 16.96 102.88 8.25 102.78-1.71 97.9-9.34 95.73-12.75 92.65-15.62 89.48-18.22 84.5-22.35 78.89-26.03 72.65-27.73 61.07-30.87 48.67-27.01 37.54-22.8 25.41-18.22 13.55-12.84 2.06-6.64 -5.99-2.25-13.96 2.6-20.47 8.97 -27.08 15.52-32.15 24.04-33.23 33.29 -33.5 35.89-33.41 38.76-31.78 40.82 -30.52 42.44-28.53 43.25-26.54 43.79 -18.66 45.58-10.7 41.99-3.46 38.58 4.23 34.9 12.02 31.13 19.71 27.45 32.65 21.26 46.22 14.89 60.52 15.25 62.42 15.25 64.32 15.52 65.86 16.51 68.76 18.48 69.12 22.7 68.03 25.93 66.31 31.22 61.79 35.35 56.72 37.86 51.74 40.47 46.13 41.72 40.7 43.16 33.83 45.04 26.95 47.2 20.25 49.62 16.45 50.96 12.74 52.49 9.48 54.82 6.68 56.89 4.23 60.21 5.86 63.62 6.59 65.05 7.85 66.04 9.39 66.58 12.65 67.74 16 66.76 19.17 65.59 31.11 61.28 42.06 54.64 54.19 50.87 55.09 50.61 56.18 50.34 56.81 50.96 57.36 51.41 57.45 52.13 57.36 52.85 57.08 58.5 50.75 61.46 45.59 63.98 38.08 67.65 31.38 72.95 26.13 79.41 22.79 83.45 20.07 89.82 24.78 93.32 26.31 94.48 28.31 95.02 30.3 94.84 39.62 94.13 47.49 88.65 56.18 85.69 57.54 85.24 58.98 84.79 60.43 84.43 64.78 83.27 67.4 88.92 63.87 91.61 51.2 100.95 36.36 107.5 23.42 116.65 22.42 117.37 21.7 118.53 21.79 119.79 21.88 122.57 25.32 123.2 27.94 123.11 53.46 121.85 76.9 111.62 91.11 90.45Z" fill="white"/><path d="M47.14 13.97C47.64 13.97 47.64 13.17 47.14 13.17 46.63 13.27 46.63 13.97 47.14 13.97Z" fill="white"/><path d="M51.47 10.38C51.97 10.38 51.97 9.59 51.47 9.59 50.97 9.59 50.97 10.38 51.47 10.38Z" fill="white"/><path d="M45.73 31.9C46.23 31.9 46.23 31.1 45.73 31.1 45.23 31.2 45.23 31.9 45.73 31.9Z" fill="white"/><path d="M37.21 55.61C37.71 55.61 37.71 54.81 37.21 54.81 36.7 54.91 36.7 55.61 37.21 55.61Z" fill="white"/><path opacity="0.2" fill-rule="evenodd" clip-rule="evenodd" d="M26.96 8.01C34.52 5.54 42.63 9.65 45.11 17.14 47.6 24.63 43.45 32.67 35.9 35.14 28.34 37.61 20.24 33.5 17.75 26 15.26 18.51 19.41 10.38 26.96 8.01Z" fill="url(#paint3_radial)"/><path d="M61.2 48.13C61.7 48.13 61.7 47.34 61.2 47.34 60.7 47.44 60.7 48.13 61.2 48.13Z" fill="white"/><path d="M22.32 57.8C22.83 57.8 22.83 57 22.32 57 21.82 57.1 21.82 57.8 22.32 57.8Z" fill="white"/><path d="M39.7 61.78C40.21 61.78 40.21 60.98 39.7 60.98 39.2 61.08 39.2 61.78 39.7 61.78Z" fill="white"/><path d="M29.66 47.84C30.16 47.84 30.16 47.04 29.66 47.04 29.16 47.14 29.16 47.84 29.66 47.84Z" fill="white"/><path d="M59.79 63.77C60.3 63.77 60.3 62.98 59.79 62.98 59.29 63.08 59.29 63.77 59.79 63.77Z" fill="white"/><path d="M57.26 50C57.77 50 57.77 49.2 57.26 49.2 56.76 49.3 56.76 50 57.26 50Z" fill="white"/><path d="M75.87 60.49C76.37 60.49 76.37 59.69 75.87 59.69 75.37 59.69 75.37 60.49 75.87 60.49Z" fill="white"/><path d="M55.5 86.79C56.01 86.79 56.01 85.99 55.5 85.99 55 85.99 55 86.79 55.5 86.79Z" fill="white"/><path d="M59.19 81.01C59.69 81.01 59.69 80.21 59.19 80.21 58.69 80.31 58.69 81.01 59.19 81.01Z" fill="white"/><path fill-rule="evenodd" clip-rule="evenodd" d="M33.25 58.94L34.76 59.74 33.25 60.54 32.34 62.03 31.54 60.54 30.03 59.64 31.64 58.84 32.45 57.35 33.25 58.94Z" fill="white"/><path fill-rule="evenodd" clip-rule="evenodd" d="M30.11 67.97L31.01 68.47 30.11 68.97 29.61 69.86 29.1 68.97 28.3 68.47 29.1 67.97 29.61 67.08 30.11 67.97Z" fill="white"/><path fill-rule="evenodd" clip-rule="evenodd" d="M60.25 87.29L61.15 87.78 60.25 88.28 59.74 89.18 59.24 88.28 58.44 87.78 59.24 87.29 59.74 86.39 60.25 87.29Z" fill="white"/><path fill-rule="evenodd" clip-rule="evenodd" d="M65.92 46.34L66.83 46.84 65.92 47.24 65.42 48.13 65.02 47.24 64.11 46.74 65.02 46.24 65.52 45.45 65.92 46.34Z" fill="white"/><path fill-rule="evenodd" clip-rule="evenodd" d="M26.24 64.87L27.15 65.37 26.24 65.86 25.74 66.66 25.24 65.77 24.33 65.27 25.24 64.87 25.74 63.97 26.24 64.87Z" fill="white"/><path fill-rule="evenodd" clip-rule="evenodd" d="M41.68 38.04L42.58 38.54 41.68 38.94 41.17 39.84 40.77 38.94 39.87 38.44 40.77 38.04 41.27 37.15 41.68 38.04Z" fill="white"/><path fill-rule="evenodd" clip-rule="evenodd" d="M52.56 14.87L53.47 15.36 52.56 15.76 52.06 16.66 51.56 15.76 50.75 15.26 51.56 14.87 52.06 13.97 52.56 14.87Z" fill="white"/><path d="M69.34 63.97C68.43 67.56 64.72 69.85 61.1 68.95 57.48 68.06 55.17 64.37 56.08 60.78 56.98 57.2 60.7 54.91 64.32 55.8 68.03 56.7 70.24 60.39 69.34 63.97Z" fill="url(#paint4_radial)"/><path opacity="0.7" d="M69.54 61.68C69.54 61.88 69.54 62.18 69.54 62.38 72.15 63.47 73.66 64.57 73.46 65.37 73.16 66.66 68.03 66.66 62 65.17 55.98 63.67 51.46 61.48 51.76 60.09 51.96 59.29 53.87 58.99 56.58 59.19 56.68 58.99 56.78 58.79 56.98 58.59 52.76 58.1 49.65 58.39 49.35 59.49 48.95 61.08 54.57 63.87 61.9 65.67 69.24 67.46 75.47 67.56 75.87 65.86 76.17 64.87 73.56 63.28 69.54 61.68Z" fill="#F6E070"/><path opacity="0.6" d="M69.54 62.38C69.54 62.58 69.54 62.78 69.54 62.98 70.94 63.67 71.75 64.37 71.65 64.97 71.35 66.06 67.13 65.96 62.21 64.77 57.28 63.57 53.47 61.68 53.77 60.59 53.87 60.09 54.87 59.79 56.48 59.79 56.58 59.59 56.68 59.39 56.78 59.19 53.97 58.99 52.06 59.29 51.86 60.09 51.56 61.48 56.18 63.67 62.21 65.17 68.23 66.66 73.36 66.76 73.76 65.37 73.76 64.67 72.15 63.57 69.54 62.38Z" fill="#F2CC33"/><path fill-rule="evenodd" clip-rule="evenodd" d="M27.97 10.96C33.79 9.07 40.12 12.26 42.03 18.04 43.94 23.81 40.72 30.09 34.9 31.98 29.07 33.87 22.74 30.69 20.83 24.91 18.92 19.13 22.04 12.86 27.97 10.96Z" fill="url(#paint5_radial)"/></g></svg>