<svg width="100" height="100" viewBox="0 0 100 100" fill="none" xmlns="http://www.w3.org/2000/svg"><path d="M26.7708 74.1211L26.7878 74.1241 26.8049 74.1265 27.3873 74.209C27.5886 74.28 27.7808 74.3063 27.9228 74.3191 28.1065 74.3357 28.2961 74.3357 28.4352 74.3356H28.452 29.1553 47.5434V82.4C47.5434 85.8758 49.0722 89.2135 51.4557 91.5769 53.8596 93.9605 57.1442 95.2658 60.8426 94.9546 64.3936 94.9441 67.5469 93.6525 69.9415 91.2781L69.9498 91.2699 69.9579 91.2615C72.2421 88.8887 73.653 85.5541 73.653 82.1012V73.7848C76.4083 73.2455 78.7623 71.9568 80.7388 69.6118 82.8081 67.3363 84 64.3127 84 61.0837 84 58.0429 82.8007 54.9233 80.7404 52.5578L80.732 52.5482 80.7234 52.5388C78.7397 50.3752 76.3765 49.0165 73.5829 48.3942 73.2316 45.2982 71.954 42.5464 69.7239 40.4357 67.3187 38.1592 64.1556 36.9745 60.8996 36.9745 57.3305 36.9745 54.3884 38.1659 51.8059 40.4066L51.7895 40.4208 51.7738 40.4357C49.6094 42.4843 48.1513 45.0819 47.6629 48.1307H45.7603L57.0717 22.5884C57.9661 21.0124 58.2831 19.2512 58.2831 17.5546 58.2831 14.3913 56.966 11.2582 54.6885 8.89239L54.6733 8.87666 54.6575 8.86161C51.9762 6.30927 48.9218 5 45.3288 5 39.9321 5 34.9282 8.10463 32.8532 13.0861L32.8446 13.1066 32.837 13.1274 17.3824 55.4183C16.5328 57.2224 16 59.2471 16 61.5818 16 64.6014 16.9845 67.4273 19.0587 69.8088 21.1262 72.1825 23.7464 73.5856 26.7708 74.1211Z" fill="url(#paint0_linear)" stroke="white" stroke-width="2"/><mask id="mask0" mask-type="alpha" maskUnits="userSpaceOnUse" x="17" y="6" width="66" height="88"><path d="M52.1598 90.8668C49.9498 88.6754 48.5434 85.5875 48.5434 82.4V73.3356H29.1553 28.452C28.1507 73.3356 27.8493 73.3356 27.6484 73.236L26.9452 73.1364C24.1324 72.6384 21.7215 71.3434 19.8128 69.152 17.9041 66.9607 17 64.3708 17 61.5818 17 59.3904 17.5023 57.4978 18.306 55.8045L33.7763 13.4707C35.6849 8.88865 40.3059 6 45.3288 6 48.6438 6 51.4566 7.19531 53.968 9.58592 56.0776 11.7773 57.2831 14.666 57.2831 17.5546 57.2831 19.1484 56.9817 20.7421 56.1781 22.1366L44.2237 49.1307H48.5434C48.8447 45.9432 50.2512 43.2537 52.4612 41.1619 54.8722 39.0702 57.5845 37.9745 60.8996 37.9745 63.9132 37.9745 66.8265 39.0702 69.0365 41.1619 71.2466 43.2537 72.452 46.0428 72.653 49.2303 75.5662 49.7283 77.9772 51.0232 79.9863 53.2146 81.895 55.406 83 58.2947 83 61.0837 83 64.072 81.895 66.861 79.9863 68.9528 77.9772 71.3434 75.5662 72.5387 72.653 72.9372V82.1012C72.653 85.2887 71.347 88.3766 69.2374 90.568 67.0274 92.7594 64.1142 93.9547 60.7991 93.9547 57.3836 94.2535 54.3699 93.0582 52.1598 90.8668Z" fill="url(#paint1_linear)"/></mask><g mask="url(#mask0)"><path d="M52.1598 90.8668C49.9498 88.6754 48.5434 85.5875 48.5434 82.4V73.3356H29.1553 28.452C28.1507 73.3356 27.8493 73.3356 27.6484 73.236L26.9452 73.1364C24.1324 72.6384 21.7215 71.3434 19.8128 69.152 17.9041 66.9607 17 64.3708 17 61.5818 17 59.3904 17.5023 57.4978 18.306 55.8045L33.7763 13.4707C35.6849 8.88865 40.3059 6 45.3288 6 48.6438 6 51.4566 7.19531 53.968 9.58592 56.0776 11.7773 57.2831 14.666 57.2831 17.5546 57.2831 19.1484 56.9817 20.7421 56.1781 22.1366L44.2237 49.1307H48.5434C48.8447 45.9432 50.2512 43.2537 52.4612 41.1619 54.8722 39.0702 57.5845 37.9745 60.8996 37.9745 63.9132 37.9745 66.8265 39.0702 69.0365 41.1619 71.2466 43.2537 72.452 46.0428 72.653 49.2303 75.5662 49.7283 77.9772 51.0232 79.9863 53.2146 81.895 55.406 83 58.2947 83 61.0837 83 64.072 81.895 66.861 79.9863 68.9528 77.9772 71.3434 75.5662 72.5387 72.653 72.9372V82.1012C72.653 85.2887 71.347 88.3766 69.2374 90.568 67.0274 92.7594 64.1142 93.9547 60.7991 93.9547 57.3836 94.2535 54.3699 93.0582 52.1598 90.8668Z" fill="url(#paint2_linear)"/><path d="M51.1301 21.041C51.6324 21.041 51.6324 20.2441 51.1301 20.2441 50.6278 20.3437 50.6278 21.041 51.1301 21.041Z" fill="white"/><path d="M44.4246 20.6426C44.9268 20.6426 44.9268 19.8457 44.4246 19.8457 43.9223 19.8457 43.9223 20.6426 44.4246 20.6426Z" fill="white"/><path d="M47.137 13.9687C47.6392 13.9687 47.6392 13.1719 47.137 13.1719 46.6347 13.2715 46.6347 13.9687 47.137 13.9687Z" fill="white"/><path d="M51.4675 10.3826C51.9698 10.3826 51.9698 9.58569 51.4675 9.58569 50.9652 9.58569 50.9652 10.3826 51.4675 10.3826Z" fill="white"/><path d="M45.7307 31.8982C46.233 31.8982 46.233 31.1013 45.7307 31.1013 45.2284 31.2009 45.2284 31.8982 45.7307 31.8982Z" fill="white"/><path d="M37.2063 55.6096C37.7086 55.6096 37.7086 54.8127 37.2063 54.8127 36.704 54.9124 36.704 55.6096 37.2063 55.6096Z" fill="white"/><path d="M61.2009 48.1345C61.7032 48.1345 61.7032 47.3376 61.2009 47.3376 60.6986 47.4373 60.6986 48.1345 61.2009 48.1345Z" fill="white"/><path d="M22.324 57.7966C22.8263 57.7966 22.8263 56.9998 22.324 56.9998 21.8217 57.0994 21.8217 57.7966 22.324 57.7966Z" fill="white"/><path d="M39.7034 61.781C40.2057 61.781 40.2057 60.9841 39.7034 60.9841 39.2011 61.0837 39.2011 61.781 39.7034 61.781Z" fill="white"/><path d="M29.6575 47.8357C30.1598 47.8357 30.1598 47.0388 29.6575 47.0388 29.1552 47.1384 29.1552 47.8357 29.6575 47.8357Z" fill="white"/><path d="M59.7947 63.7732C60.297 63.7732 60.297 62.9763 59.7947 62.9763 59.2924 63.0759 59.2924 63.7732 59.7947 63.7732Z" fill="white"/><path d="M57.2634 50C57.7657 50 57.7657 49.2031 57.2634 49.2031 56.7611 49.3027 56.7611 50 57.2634 50Z" fill="white"/><path d="M75.8674 60.4863C76.3697 60.4863 76.3697 59.6895 75.8674 59.6895 75.3652 59.6895 75.3652 60.4863 75.8674 60.4863Z" fill="white"/><path d="M55.5046 86.7891C56.0069 86.7891 56.0069 85.9922 55.5046 85.9922 55.0024 85.9922 55.0024 86.7891 55.5046 86.7891Z" fill="white"/><path d="M59.1917 81.0056C59.6939 81.0056 59.6939 80.2087 59.1917 80.2087 58.6894 80.3083 58.6894 81.0056 59.1917 81.0056Z" fill="white"/><path fill-rule="evenodd" clip-rule="evenodd" d="M33.2488 58.9421L34.7557 59.739 33.2488 60.5359 32.3447 62.03 31.541 60.5359 30.0342 59.6394 31.6415 58.8425 32.4451 57.3484 33.2488 58.9421Z" fill="white"/><path fill-rule="evenodd" clip-rule="evenodd" d="M30.1095 67.9717L31.0136 68.4697 30.1095 68.9678 29.6072 69.8642 29.1049 68.9678 28.3013 68.4697 29.1049 67.9717 29.6072 67.0752 30.1095 67.9717Z" fill="white"/><path fill-rule="evenodd" clip-rule="evenodd" d="M60.2467 87.2869L61.1508 87.7849 60.2467 88.2829 59.7444 89.1794 59.2421 88.2829 58.4385 87.7849 59.2421 87.2869 59.7444 86.3904 60.2467 87.2869Z" fill="white"/><path fill-rule="evenodd" clip-rule="evenodd" d="M65.9225 46.3418L66.8266 46.8398 65.9225 47.2383 65.4202 48.1347 65.0184 47.2383 64.1143 46.7402 65.0184 46.2422 65.5207 45.4453 65.9225 46.3418Z" fill="white"/><path fill-rule="evenodd" clip-rule="evenodd" d="M26.2417 64.8689L27.1458 65.3669 26.2417 65.865 25.7394 66.6618 25.2371 65.7654 24.333 65.2673 25.2371 64.8689 25.7394 63.9724 26.2417 64.8689Z" fill="white"/><path fill-rule="evenodd" clip-rule="evenodd" d="M41.6764 38.0425L42.5805 38.5405 41.6764 38.939 41.1741 39.8354 40.7723 38.939 39.8682 38.4409 40.7723 38.0425 41.2746 37.146 41.6764 38.0425Z" fill="white"/><path fill-rule="evenodd" clip-rule="evenodd" d="M52.5616 14.8652L53.4658 15.3633 52.5616 15.7617 52.0593 16.6582 51.5571 15.7617 50.7534 15.2637 51.5571 14.8652 52.0593 13.9688 52.5616 14.8652Z" fill="white"/></g><path d="M80.7189 63.1191C79.4612 67.8869 74.2908 70.9331 69.2602 69.7411 64.2295 68.5491 61.0155 63.6488 62.2732 58.8809 63.5308 54.1131 68.7012 51.0669 73.7319 52.2589 78.9023 53.4509 81.9766 58.3512 80.7189 63.1191Z" fill="url(#paint3_radial)"/><path opacity="0.7" d="M81.3913 59.5732C81.3913 59.8475 81.3913 60.259 81.3913 60.5333 84.9309 62.042 86.973 63.5507 86.7007 64.6479 86.2923 66.4309 79.3492 66.4309 71.1809 64.3736 63.0126 62.3163 56.8864 59.2989 57.2948 57.3788 57.567 56.2815 60.1537 55.8701 63.8294 56.1444 63.9655 55.8701 64.1017 55.5958 64.374 55.3215 58.6562 54.6357 54.4359 55.0471 54.0274 56.5558 53.4829 58.7503 61.1067 62.5906 71.0448 65.0594 80.9829 67.5282 89.4235 67.6653 89.968 65.3337 90.3764 63.9622 86.8369 61.7677 81.3913 59.5732Z" fill="#F6E070"/><path opacity="0.6" d="M81.2239 60.4963C81.2239 60.7721 81.2239 61.048 81.2239 61.3238 83.1493 62.2893 84.2494 63.2548 84.1119 64.0823 83.6993 65.5995 77.9232 65.4615 71.1844 63.8065 64.4455 62.1514 59.2195 59.5308 59.6321 58.0137 59.7696 57.3241 61.1449 56.9103 63.3453 56.9103 63.4829 56.6344 63.6204 56.3586 63.7579 56.0828 59.9071 55.8069 57.2941 56.2207 57.0191 57.3241 56.6065 59.255 62.9327 62.2893 71.1844 64.3581 79.436 66.427 86.4499 66.5649 87 64.634 87 63.6685 84.7996 62.1514 81.2239 60.4963Z" fill="#F2CC33"/><path opacity="0.2" fill-rule="evenodd" clip-rule="evenodd" d="M20.9361 12.7164C28.4912 10.2497 36.5991 14.3609 39.0868 21.8522 41.5745 29.3436 37.4284 37.3831 29.8732 39.8498 22.3181 42.3165 14.2102 38.2054 11.7225 30.714 9.23485 23.2226 13.381 15.0917 20.9361 12.7164Z" fill="url(#paint4_radial)"/><path fill-rule="evenodd" clip-rule="evenodd" d="M21.9392 15.675C27.7657 13.7825 34.0944 16.9699 36.0031 22.7473 37.9118 28.5246 34.6972 34.7999 28.8707 36.6925 23.0442 38.5851 16.7154 35.3976 14.8068 29.6203 12.8981 23.843 16.0122 17.5676 21.9392 15.675Z" fill="url(#paint5_radial)"/><defs><linearGradient id="paint0_linear" x1="97.2693" y1="-38.7176" x2="70.9487" y2="107.904" gradientUnits="userSpaceOnUse"><stop stop-color="#0C0F6C"/><stop offset="0.5891" stop-color="#3C0289"/><stop offset="1" stop-color="#8B46AB"/></linearGradient><linearGradient id="paint1_linear" x1="56.1186" y1="16.3005" x2="45.5801" y2="95.347" gradientUnits="userSpaceOnUse"><stop stop-color="#3C0289"/><stop offset="0.4887" stop-color="#4172DA"/><stop offset="0.9363" stop-color="#80C3FF"/></linearGradient><linearGradient id="paint2_linear" x1="56.1186" y1="16.3005" x2="45.5801" y2="95.347" gradientUnits="userSpaceOnUse"><stop stop-color="#3C0289"/><stop offset="0.4887" stop-color="#4172DA"/><stop offset="0.9363" stop-color="#80C3FF"/></linearGradient><radialGradient id="paint3_radial" cx="0" cy="0" r="1" gradientUnits="userSpaceOnUse" gradientTransform="translate(68.112 69.1734) rotate(-69.6572) scale(19.4349 20.2539)"><stop offset="0.530215" stop-color="#4172DA"/><stop offset="0.8216" stop-color="#8BECEF"/></radialGradient><radialGradient id="paint4_radial" cx="0" cy="0" r="1" gradientUnits="userSpaceOnUse" gradientTransform="translate(19.329 19.1922) rotate(45.3778) scale(20.2096 20.2126)"><stop offset="0.1308" stop-color="#C74ECE"/><stop offset="1" stop-color="#EFC0D5"/></radialGradient><radialGradient id="paint5_radial" cx="0" cy="0" r="1" gradientUnits="userSpaceOnUse" gradientTransform="translate(21.9193 35.7342) rotate(-65.8014) scale(21.74 21.8631)"><stop offset="0.691813" stop-color="#C74ECE"/><stop offset="1" stop-color="#EFC0D5"/></radialGradient></defs></svg>