<svg width="100" height="100" viewBox="0 0 100 100" fill="none" xmlns="http://www.w3.org/2000/svg"><defs><linearGradient id="paint0_linear" x1="47.85" y1="4.35" x2="50.85" y2="110.85" gradientUnits="userSpaceOnUse"><stop offset="0.22" stop-color="#3C0289"/><stop offset="0.65" stop-color="#4172DA"/><stop offset="1" stop-color="#80C3FF"/></linearGradient><linearGradient id="paint1_linear" x1="47.85" y1="4.35" x2="50.85" y2="110.85" gradientUnits="userSpaceOnUse"><stop offset="0.22" stop-color="#3C0289"/><stop offset="0.65" stop-color="#4172DA"/><stop offset="1" stop-color="#80C3FF"/></linearGradient><linearGradient id="paint2_linear" x1="47.85" y1="4.35" x2="50.85" y2="110.85" gradientUnits="userSpaceOnUse"><stop offset="0.22" stop-color="#3C0289"/><stop offset="0.65" stop-color="#4172DA"/><stop offset="1" stop-color="#80C3FF"/></linearGradient><linearGradient id="paint3_linear" x1="78.1" y1="-24.73" x2="32.1" y2="25.27" gradientUnits="userSpaceOnUse"><stop offset="0.04" stop-color="#0C0F6C"/><stop offset="0.91" stop-color="#E0369B"/></linearGradient><linearGradient id="paint4_linear" x1="60.44" y1="110.32" x2="81.55" y2="56.3" gradientUnits="userSpaceOnUse"><stop offset="0.13" stop-color="#C74ECE"/><stop offset="1" stop-color="#EFC0D5"/></linearGradient><radialGradient id="paint5_radial" cx="0" cy="0" r="1" gradientUnits="userSpaceOnUse" gradientTransform="translate(64.6085 -16.5) rotate(127.892) scale(52.9292)"><stop offset="0.51" stop-color="#E0369B"/><stop offset="1" stop-color="#8BECEF"/></radialGradient><radialGradient id="paint6_radial" cx="0" cy="0" r="1" gradientUnits="userSpaceOnUse" gradientTransform="translate(82.0403 65.1124) rotate(139.542) scale(20.1271)"><stop offset="0.52" stop-color="#0C0F6C"/><stop offset="1" stop-color="#C74ECE"/></radialGradient></defs><path d="M48.1 31.1H43.4V29.9H63.6C67.05 29.9 70.3 28.61 72.69 26.32L72.7 26.32 72.71 26.31C75.08 23.93 76.5 20.78 76.5 17.3 76.5 13.85 75.11 10.29 72.71 7.89 70.34 5.53 67.09 4 63.6 4H30.1 30.07L30.04 4C26.7 4.22 23.58 5.62 21.21 7.88L21.21 7.88C18.73 10.25 17.3 13.41 17.3 16.7H17.3L17.3 16.71 17.6 44.3C17.6 44.3 17.6 44.3 17.6 44.31 17.6 47.84 18.79 50.9 21.29 53.31 23.6 55.72 26.96 56.99 30.37 57.1L30.38 57.1H30.4 50.65L51.65 57.19C52.11 57.28 52.8 57.46 53.58 57.81 54.5 58.25 55.14 58.79 55.55 59.41 55.97 60.04 56.2 60.82 56.2 61.8 56.2 65.71 55.31 67.43 53.98 68.25L53.96 68.26 53.95 68.27C52.74 69.07 51.17 69.2 47.9 69.2 46.44 69.2 45.46 68.91 44.65 68.36 43.83 67.8 43.1 66.91 42.29 65.54L41.71 64.28 41.69 64.23 41.66 64.19C39.08 59.89 34.75 57.5 30 57.5 26.24 57.5 23.08 58.8 20.49 61.39 18.21 63.67 17 66.63 17 69.6 17 72.2 17.76 74.76 19.22 77.28 22.1 82.82 26.02 87.05 30.86 90.14 36.02 93.44 41.71 95.1 47.81 95 57.07 95 65.62 91.29 71.9 85.01 78.29 78.82 82 70.17 82 61 82 51.81 78.27 44.22 71.94 38.93L71.94 38.93 71.93 38.93C65.73 33.86 57.19 31.1 48.1 31.1Z" fill="url(#paint0_linear)" stroke="white" stroke-width="2"/><mask id="mask0" mask-type="alpha" maskUnits="userSpaceOnUse" x="18" y="5" width="63" height="90"><path d="M31.4 89.3C26.7 86.3 22.9 82.2 20.1 76.8 18.7 74.4 18 72 18 69.6 18 66.9 19.1 64.2 21.2 62.1 23.6 59.7 26.5 58.5 30 58.5 34.4 58.5 38.4 60.7 40.8 64.7L41.4 66C43.1 68.9 44.7 70.2 47.9 70.2 51.1 70.2 53 70.1 54.5 69.1 56.3 68 57.2 65.8 57.2 61.8 57.2 59.5 56.1 57.9 54 56.9 53.1 56.5 52.3 56.3 51.8 56.2L50.7 56.1H30.4C27.2 56 24.1 54.8 22 52.6 19.7 50.4 18.6 47.6 18.6 44.3L18.3 16.7C18.3 13.7 19.6 10.8 21.9 8.6 24.1 6.5 27 5.2 30.1 5H63.6C66.8 5 69.8 6.4 72 8.6 74.2 10.8 75.5 14.1 75.5 17.3 75.5 20.5 74.2 23.4 72 25.6 69.8 27.7 66.8 28.9 63.6 28.9H42.4V32.1H48.1C57 32.1 65.3 34.8 71.3 39.7 77.4 44.8 81 52.1 81 61 81 69.9 77.4 78.3 71.2 84.3 65.1 90.4 56.8 94 47.8 94 41.9 94.1 36.4 92.5 31.4 89.3Z" fill="url(#paint1_linear)"/></mask><g mask="url(#mask0)"><path d="M31.4 89.3C26.7 86.3 22.9 82.2 20.1 76.8 18.7 74.4 18 72 18 69.6 18 66.9 19.1 64.2 21.2 62.1 23.6 59.7 26.5 58.5 30 58.5 34.4 58.5 38.4 60.7 40.8 64.7L41.4 66C43.1 68.9 44.7 70.2 47.9 70.2 51.1 70.2 53 70.1 54.5 69.1 56.3 68 57.2 65.8 57.2 61.8 57.2 59.5 56.1 57.9 54 56.9 53.1 56.5 52.3 56.3 51.8 56.2L50.7 56.1H30.4C27.2 56 24.1 54.8 22 52.6 19.7 50.4 18.6 47.6 18.6 44.3L18.3 16.7C18.3 13.7 19.6 10.8 21.9 8.6 24.1 6.5 27 5.2 30.1 5H63.6C66.8 5 69.8 6.4 72 8.6 74.2 10.8 75.5 14.1 75.5 17.3 75.5 20.5 74.2 23.4 72 25.6 69.8 27.7 66.8 28.9 63.6 28.9H42.4V32.1H48.1C57 32.1 65.3 34.8 71.3 39.7 77.4 44.8 81 52.1 81 61 81 69.9 77.4 78.3 71.2 84.3 65.1 90.4 56.8 94 47.8 94 41.9 94.1 36.4 92.5 31.4 89.3Z" fill="url(#paint2_linear)"/><path d="M23.25 35.89C23.75 35.89 23.75 35.09 23.25 35.09 22.85 35.19 22.85 35.89 23.25 35.89Z" fill="white"/><path d="M56.1 19.6C56.6 19.6 56.6 18.8 56.1 18.8 55.6 18.9 55.6 19.6 56.1 19.6Z" fill="white"/><path d="M59.1 12.3C59.6 12.3 59.6 11.5 59.1 11.5 58.6 11.5 58.6 12.3 59.1 12.3Z" fill="white"/><path d="M44.6 12.3C45.1 12.3 45.1 11.5 44.6 11.5 44.1 11.5 44.1 12.3 44.6 12.3Z" fill="white"/><path d="M31.4 12.7C31.9 12.7 31.9 11.9 31.4 11.9 30.9 12 30.9 12.7 31.4 12.7Z" fill="white"/><path d="M35.1 30.7C35.6 30.7 35.6 29.9 35.1 29.9 34.6 30 34.6 30.7 35.1 30.7Z" fill="white"/><path d="M24 39.7C24.5 39.7 24.5 38.9 24 38.9 23.5 39 23.5 39.7 24 39.7Z" fill="white"/><path d="M69.5 22.4C70 22.4 70 21.6 69.5 21.6 69 21.7 69 22.4 69.5 22.4Z" fill="white"/><path d="M69.5 11.8C70 11.8 70 11 69.5 11 69 11 69 11.8 69.5 11.8Z" fill="white"/><path d="M67.25 46.2C67.75 46.2 67.75 45.4 67.25 45.4 66.75 45.5 66.75 46.2 67.25 46.2Z" fill="white"/><path d="M35.8 43.7C36.3 43.7 36.3 42.9 35.8 42.9 35.3 42.9 35.3 43.7 35.8 43.7Z" fill="white"/><path d="M31.4 17.5C31.9 17.5 31.9 16.7 31.4 16.7 30.9 16.7 30.9 17.5 31.4 17.5Z" fill="white"/><path d="M66.5 55.2C67 55.2 67 54.4 66.5 54.4 66 54.5 66 55.2 66.5 55.2Z" fill="white"/><path d="M62.44 38.9C62.94 38.9 62.94 38.1 62.44 38.1 61.94 38.1 61.94 38.9 62.44 38.9Z" fill="white"/><path d="M52.48 43.3C52.98 43.3 52.98 42.5 52.48 42.5 51.98 42.6 51.98 43.3 52.48 43.3Z" fill="white"/><path d="M65.6 80.4C66.1 80.4 66.1 79.6 65.6 79.6 65.1 79.7 65.1 80.4 65.6 80.4Z" fill="white"/><path d="M45.5 86.6C46 86.6 46 85.8 45.5 85.8 45 85.9 45 86.6 45.5 86.6Z" fill="white"/><path d="M24.98 67.2C25.48 67.2 25.48 66.4 24.98 66.4 24.48 66.5 24.48 67.2 24.98 67.2Z" fill="white"/><path d="M31.6 67.2C32.1 67.2 32.1 66.4 31.6 66.4 31.1 66.5 31.1 67.2 31.6 67.2Z" fill="white"/><path d="M26.8 71.4C27.3 71.4 27.3 70.6 26.8 70.6 26.3 70.6 26.3 71.4 26.8 71.4Z" fill="white"/><path d="M65.1 70.2C65.6 70.2 65.6 69.4 65.1 69.4 64.6 69.5 64.6 70.2 65.1 70.2Z" fill="white"/><path d="M76.2 59.2C76.7 59.2 76.7 58.4 76.2 58.4 75.7 58.4 75.7 59.2 76.2 59.2Z" fill="white"/><path d="M39.31 74.2C39.81 74.2 39.81 73.4 39.31 73.4 38.81 73.4 38.81 74.2 39.31 74.2Z" fill="white"/><path d="M36 83.2C36.5 83.2 36.5 82.4 36 82.4 35.5 82.4 35.5 83.2 36 83.2Z" fill="white"/><path fill-rule="evenodd" clip-rule="evenodd" d="M31.1 39.15L32.1 39.75 31.1 40.15 30.6 41.15 30.1 40.15 29.2 39.65 30.1 39.15 30.7 38.25 31.1 39.15Z" fill="white"/><path fill-rule="evenodd" clip-rule="evenodd" d="M63.96 44.3L64.86 44.8 63.96 45.3 63.46 46.2 62.96 45.2 62.06 44.7 62.96 44.2 63.46 43.3 63.96 44.3Z" fill="white"/><path fill-rule="evenodd" clip-rule="evenodd" d="M26.6 47.6L27.5 48.1 26.5 48.6 26 49.5 25.5 48.6 24.6 48 25.5 47.5 26.1 46.6 26.6 47.6Z" fill="white"/><path d="M52.1 23.5C63.15 23.5 72.1 14.55 72.1 3.5 72.1-7.55 63.15-16.5 52.1-16.5 41.05-16.5 32.1-7.55 32.1 3.5 32.1 14.55 41.05 23.5 52.1 23.5Z" fill="url(#paint3_linear)"/><path fill-rule="evenodd" clip-rule="evenodd" d="M72.5 68.2L73.4 68.7 72.5 69.2 72 70.1 71.5 69.2 70.6 68.6 71.5 68.1 72 67.2 72.5 68.2Z" fill="white"/><path fill-rule="evenodd" clip-rule="evenodd" d="M49.1 18.1L50.5 18.9 49.1 19.6 48.3 21 47.5 19.6 46.1 18.8 47.5 18.1 48.3 16.7 49.1 18.1Z" fill="white"/><path opacity="0.2" fill-rule="evenodd" clip-rule="evenodd" d="M84.3 81.4C79.4 86.4 71.3 86.6 66.3 81.7 61.3 76.8 61.1 68.7 66 63.7 70.9 58.7 79 58.5 84 63.4 89.1 68.3 89.2 76.4 84.3 81.4Z" fill="url(#paint4_linear)"/><path d="M52.1 23.5C63.15 23.5 72.1 14.55 72.1 3.5 72.1-7.55 63.15-16.5 52.1-16.5 41.05-16.5 32.1-7.55 32.1 3.5 32.1 14.55 41.05 23.5 52.1 23.5Z" fill="url(#paint5_radial)"/><path fill-rule="evenodd" clip-rule="evenodd" d="M32.45 72.8L34.25 73.9 32.35 74.8 31.35 76.6 30.35 74.8 28.55 73.8 30.45 72.8 31.45 71 32.45 72.8Z" fill="white"/><path fill-rule="evenodd" clip-rule="evenodd" d="M75.85 62.58C81.43 62.95 85.59 67.68 85.22 73.25 84.85 78.83 80.12 82.99 74.55 82.62 68.97 82.25 64.81 77.52 65.18 71.95 65.47 66.44 70.28 62.21 75.85 62.58Z" fill="url(#paint6_radial)"/><path d="M84.9 78.3C82 78.3 77.9 77.6 74.1 76.5 67.3 74.6 60.5 71.3 61.2 69 61.5 67.8 63.8 67.6 65.6 67.6V68.1C63.3 68.1 61.9 68.5 61.7 69.1 61.3 70.6 66.4 73.7 74.3 76 82.2 78.2 88.2 78.2 88.6 76.7 88.8 76 87.6 74.8 85.4 73.5L85.6 73.1C87.4 74.1 89.4 75.6 89.1 76.9 88.8 77.9 87.2 78.3 84.9 78.3Z" fill="white"/><path opacity="0.1" d="M34.95-13.25C29.31-10.92 23.62-7.89 20.73-2.26 19.24 0.56 18.69 3.91 19.62 6.95 21.51 13.53 28.49 15.61 34.62 17.16 43.82 19.48 53.22 21.89 62.71 21.28 68 20.98 73.32 19.78 78.48 21.7 80.34 22.47 81.68 24.27 81.54 26.39 81.29 29.72 77.74 30.58 74.76 30.91 58.53 32.52 42.11 31.44 25.76 32.76 9.51 34.08-7.23 38.14-19.91 48.31 -27.75 54.71-33.99 63.8-34.44 73.96 -34.6 78.49-33.56 83.02-32.34 87.35 -30.32 94.21-27.6 101.13-22.97 106.6 -14.39 116.79-0.75 120.88 12.12 124.03 26.11 127.4 40.23 129.85 54.59 131.39 64.69 132.44 74.96 132.98 84.95 131.13 95.14 129.26 105.12 124.6 111.86 116.78 113.8 114.53 115.5 111.8 115.28 108.9 115.11 106.61 113.86 104.6 112.33 102.91 106.32 96.34 96.77 94.64 88.04 93.29 78.71 91.88 69.27 90.38 59.94 88.97 44.22 86.54 27.88 83.95 15.05 74.68 13.36 73.5 11.75 72.12 11 70.17 9.63 66.56 11.93 62.48 14.97 60.14 19.9 56.37 26.65 55.46 32.82 56.2 39 56.94 44.89 59.31 50.76 61.38 58.18 64.03 65.77 66.28 73.43 68.21 77.72 69.29 82.11 70.27 86.51 70.14 90.31 69.96 94.72 68.52 95.31 64.37 95.58 62.64 95.05 60.88 93.94 59.46 91.7 56.32 88 55.19 84.42 54.25 70.82 50.76 56.63 50.01 43.19 45.9 42.16 45.58 41.02 45.16 40.85 44.17 40.7 43.48 41.05 42.75 41.5 42.12 45.23 37.02 52.95 38.35 59.24 39.29 68.36 40.61 77.83 39.9 86.66 37.24 92.26 35.62 98.66 31.43 96.7 25.26 96.04 23.2 94.51 21.51 92.63 20.45 83.72 15.3 73.09 15.29 63.27 12.71 61.74 12.33 60.19 11.84 58.65 11.25 54.01 9.59 55.1 2.69 60 2.53 77.4 1.93 95.09 5.12 112.62 4.81 114.02 4.81 115.37 4.11 116.09 2.95 117.8 0.31 114.99-2.38 112.57-3.91 89.01-18.59 61.24-23.84 34.95-13.25Z" fill="white"/></g></svg>