<svg width="100" height="100" viewBox="0 0 100 100" fill="none" xmlns="http://www.w3.org/2000/svg"><path d="M41.708 64.2809L41.6853 64.2319 41.6575 64.1855C39.0776 59.8857 34.7529 57.5 30 57.5 26.2397 57.5 23.0839 58.8019 20.4929 61.3929 18.2118 63.674 17 66.6258 17 69.6 17 72.1959 17.7569 74.7607 19.2236 77.2822 22.1017 82.8241 26.0168 87.05 30.8609 90.1423 36.0197 93.4438 41.7094 95.1017 47.8084 95 57.074 94.9978 65.6208 91.2904 71.9012 85.013 78.2933 78.824 82 70.1667 82 61 82 51.8066 78.2709 44.2246 71.9414 38.9328L71.9415 38.9328 71.9325 38.9255C65.7261 33.8569 57.1918 31.1 48.1 31.1H43.4V29.9H63.6C67.0498 29.9 70.2992 28.606 72.6905 26.3234L72.6989 26.3153 72.7071 26.3071C75.082 23.9322 76.5 20.7826 76.5 17.3 76.5 13.8526 75.1069 10.2927 72.7071 7.8929 70.3411 5.52694 67.0942 4 63.6 4H30.1 30.0678L30.0356 4.00207C26.6977 4.21742 23.577 5.6168 21.2095 7.87665L21.2088 7.87736C18.7278 10.2504 17.3 13.4053 17.3 16.7H17.2999L17.3001 16.7109 17.6 44.3C17.6 44.3018 17.6 44.3037 17.6 44.3055 17.6012 47.8408 18.7886 50.9036 21.2924 53.307 23.6037 55.7182 26.962 56.9931 30.3688 57.0995L30.3844 57.1H30.4 50.6546L51.6549 57.1909C52.106 57.2839 52.8026 57.4635 53.5818 57.8085 54.4993 58.2473 55.1389 58.7875 55.5535 59.4142 55.9671 60.0394 56.2 60.8158 56.2 61.8 56.2 65.7086 55.3135 67.4309 53.9785 68.2467L53.9617 68.257 53.9453 68.268C52.7419 69.0702 51.1702 69.2 47.9 69.2 46.4448 69.2 45.4554 68.9076 44.6493 68.3602 43.8269 67.8018 43.0992 66.9142 42.2872 65.536L41.708 64.2809Z" fill="url(#paint0_linear)" stroke="white" stroke-width="2"/><mask id="mask0" mask-type="alpha" maskUnits="userSpaceOnUse" x="18" y="5" width="63" height="90"><path d="M31.4 89.3C26.7 86.3 22.9 82.2 20.1 76.8 18.7 74.4 18 72 18 69.6 18 66.9 19.1 64.2 21.2 62.1 23.6 59.7 26.5 58.5 30 58.5 34.4 58.5 38.4 60.7 40.8 64.7L41.4 66C43.1 68.9 44.7 70.2 47.9 70.2 51.1 70.2 53 70.1 54.5 69.1 56.3 68 57.2 65.8 57.2 61.8 57.2 59.5 56.1 57.9 54 56.9 53.1 56.5 52.3 56.3 51.8 56.2L50.7 56.1H30.4C27.2 56 24.1 54.8 22 52.6 19.7 50.4 18.6 47.6 18.6 44.3L18.3 16.7C18.3 13.7 19.6 10.8 21.9 8.60001 24.1 6.50001 27 5.2 30.1 5H63.6C66.8 5 69.8 6.40001 72 8.60001 74.2 10.8 75.5 14.1 75.5 17.3 75.5 20.5 74.2 23.4 72 25.6 69.8 27.7 66.8 28.9 63.6 28.9H42.4V32.1H48.1C57 32.1 65.3 34.8 71.3 39.7 77.4 44.8 81 52.1 81 61 81 69.9 77.4 78.3 71.2 84.3 65.1 90.4 56.8 94 47.8 94 41.9 94.1 36.4 92.5 31.4 89.3Z" fill="url(#paint1_linear)"/></mask><g mask="url(#mask0)"><path d="M31.4 89.3C26.7 86.3 22.9 82.2 20.1 76.8 18.7 74.4 18 72 18 69.6 18 66.9 19.1 64.2 21.2 62.1 23.6 59.7 26.5 58.5 30 58.5 34.4 58.5 38.4 60.7 40.8 64.7L41.4 66C43.1 68.9 44.7 70.2 47.9 70.2 51.1 70.2 53 70.1 54.5 69.1 56.3 68 57.2 65.8 57.2 61.8 57.2 59.5 56.1 57.9 54 56.9 53.1 56.5 52.3 56.3 51.8 56.2L50.7 56.1H30.4C27.2 56 24.1 54.8 22 52.6 19.7 50.4 18.6 47.6 18.6 44.3L18.3 16.7C18.3 13.7 19.6 10.8 21.9 8.60001 24.1 6.50001 27 5.2 30.1 5H63.6C66.8 5 69.8 6.40001 72 8.60001 74.2 10.8 75.5 14.1 75.5 17.3 75.5 20.5 74.2 23.4 72 25.6 69.8 27.7 66.8 28.9 63.6 28.9H42.4V32.1H48.1C57 32.1 65.3 34.8 71.3 39.7 77.4 44.8 81 52.1 81 61 81 69.9 77.4 78.3 71.2 84.3 65.1 90.4 56.8 94 47.8 94 41.9 94.1 36.4 92.5 31.4 89.3Z" fill="url(#paint2_linear)"/><path d="M23.2502 35.8859C23.7502 35.8859 23.7502 35.0859 23.2502 35.0859 22.8502 35.1859 22.8502 35.8859 23.2502 35.8859Z" fill="white"/><path d="M56.1001 19.6001C56.6001 19.6001 56.6001 18.8 56.1001 18.8 55.6001 18.9 55.6001 19.6001 56.1001 19.6001Z" fill="white"/><path d="M59.1001 12.3C59.6001 12.3 59.6001 11.5 59.1001 11.5 58.6001 11.5 58.6001 12.3 59.1001 12.3Z" fill="white"/><path d="M44.6001 12.3C45.1001 12.3 45.1001 11.5 44.6001 11.5 44.1001 11.5 44.1001 12.3 44.6001 12.3Z" fill="white"/><path d="M31.3999 12.6999C31.8999 12.6999 31.8999 11.8999 31.3999 11.8999 30.8999 11.9999 30.8999 12.6999 31.3999 12.6999Z" fill="white"/><path d="M35.1001 30.6999C35.6001 30.6999 35.6001 29.8999 35.1001 29.8999 34.6001 29.9999 34.6001 30.6999 35.1001 30.6999Z" fill="white"/><path d="M24 39.6999C24.5 39.6999 24.5 38.8999 24 38.8999 23.5 38.9999 23.5 39.6999 24 39.6999Z" fill="white"/><path d="M69.5 22.4001C70 22.4001 70 21.6001 69.5 21.6001 69 21.7001 69 22.4001 69.5 22.4001Z" fill="white"/><path d="M69.5 11.8C70 11.8 70 11 69.5 11 69 11 69 11.8 69.5 11.8Z" fill="white"/><path d="M67.25 46.1999C67.75 46.1999 67.75 45.3999 67.25 45.3999 66.75 45.4999 66.75 46.1999 67.25 46.1999Z" fill="white"/><path d="M35.7998 43.6999C36.2998 43.6999 36.2998 42.8999 35.7998 42.8999 35.2998 42.8999 35.2998 43.6999 35.7998 43.6999Z" fill="white"/><path d="M31.3999 17.5C31.8999 17.5 31.8999 16.7 31.3999 16.7 30.8999 16.7 30.8999 17.5 31.3999 17.5Z" fill="white"/><path d="M66.5 55.1999C67 55.1999 67 54.3999 66.5 54.3999 66 54.4999 66 55.1999 66.5 55.1999Z" fill="white"/><path d="M62.4351 38.8999C62.9351 38.8999 62.9351 38.0999 62.4351 38.0999 61.9351 38.0999 61.9351 38.8999 62.4351 38.8999Z" fill="white"/><path d="M52.4751 43.3C52.9751 43.3 52.9751 42.5 52.4751 42.5 51.9751 42.6 51.9751 43.3 52.4751 43.3Z" fill="white"/><path d="M65.6001 80.4001C66.1001 80.4001 66.1001 79.6001 65.6001 79.6001 65.1001 79.7001 65.1001 80.4001 65.6001 80.4001Z" fill="white"/><path d="M45.5 86.6001C46 86.6001 46 85.8 45.5 85.8 45 85.9 45 86.6001 45.5 86.6001Z" fill="white"/><path d="M24.9751 67.1999C25.4751 67.1999 25.4751 66.3999 24.9751 66.3999 24.4751 66.4999 24.4751 67.1999 24.9751 67.1999Z" fill="white"/><path d="M31.6001 67.1999C32.1001 67.1999 32.1001 66.3999 31.6001 66.3999 31.1001 66.4999 31.1001 67.1999 31.6001 67.1999Z" fill="white"/><path d="M26.7998 71.4001C27.2998 71.4001 27.2998 70.6001 26.7998 70.6001 26.2998 70.6001 26.2998 71.4001 26.7998 71.4001Z" fill="white"/><path d="M65.1001 70.1999C65.6001 70.1999 65.6001 69.3999 65.1001 69.3999 64.6001 69.4999 64.6001 70.1999 65.1001 70.1999Z" fill="white"/><path d="M76.2002 59.1999C76.7002 59.1999 76.7002 58.3999 76.2002 58.3999 75.7002 58.3999 75.7002 59.1999 76.2002 59.1999Z" fill="white"/><path d="M39.3125 74.1999C39.8125 74.1999 39.8125 73.3999 39.3125 73.3999 38.8125 73.3999 38.8125 74.1999 39.3125 74.1999Z" fill="white"/><path d="M36 83.1999C36.5 83.1999 36.5 82.3999 36 82.3999 35.5 82.3999 35.5 83.1999 36 83.1999Z" fill="white"/><path fill-rule="evenodd" clip-rule="evenodd" d="M31.1002 39.15L32.1002 39.75 31.1002 40.15 30.6002 41.15 30.1002 40.15 29.2002 39.65 30.1002 39.15 30.7002 38.25 31.1002 39.15Z" fill="white"/><path fill-rule="evenodd" clip-rule="evenodd" d="M63.9601 44.3L64.8601 44.8 63.9601 45.3 63.4601 46.2 62.9601 45.2 62.0601 44.7 62.9601 44.2 63.4601 43.3 63.9601 44.3Z" fill="white"/><path fill-rule="evenodd" clip-rule="evenodd" d="M26.6001 47.6001L27.5001 48.1001 26.5001 48.6001 26.0001 49.5001 25.5001 48.6001 24.6001 48.0001 25.5001 47.5001 26.1001 46.6001 26.6001 47.6001Z" fill="white"/><path fill-rule="evenodd" clip-rule="evenodd" d="M72.5001 68.2L73.4001 68.7 72.5001 69.2 72.0001 70.0999 71.5001 69.2 70.6001 68.5999 71.5001 68.0999 72.0001 67.2 72.5001 68.2Z" fill="white"/><path fill-rule="evenodd" clip-rule="evenodd" d="M49.1001 18.1L50.5001 18.8999 49.1001 19.6 48.3001 21 47.5001 19.6 46.1001 18.8 47.5001 18.1 48.3001 16.7 49.1001 18.1Z" fill="white"/><path fill-rule="evenodd" clip-rule="evenodd" d="M32.4498 72.8L34.2498 73.9 32.3498 74.8 31.3498 76.6 30.3498 74.8 28.5498 73.8 30.4498 72.8 31.4498 71 32.4498 72.8Z" fill="white"/></g><path opacity="0.2" fill-rule="evenodd" clip-rule="evenodd" d="M85.2877 83.9875C80.3877 88.9875 72.2877 89.1875 67.2877 84.2875 62.2877 79.3875 62.0877 71.2875 66.9877 66.2875 71.8877 61.2875 79.9877 61.0875 84.9877 65.9875 90.0877 70.8875 90.1877 78.9875 85.2877 83.9875Z" fill="url(#paint3_linear)"/><path fill-rule="evenodd" clip-rule="evenodd" d="M76.8415 65.1668C82.4157 65.5386 86.5799 70.2673 86.208 75.8415 85.8362 81.4157 81.1076 85.5798 75.5334 85.208 69.9592 84.8362 65.795 80.1075 66.1669 74.5333 66.4626 69.024 71.2673 64.795 76.8415 65.1668Z" fill="url(#paint4_radial)"/><path d="M85.888 80.8875C82.988 80.8875 78.888 80.1875 75.088 79.0875 68.288 77.1875 61.488 73.8875 62.188 71.5875 62.488 70.3875 64.788 70.1875 66.588 70.1875V70.6875C64.288 70.6875 62.888 71.0875 62.688 71.6875 62.288 73.1875 67.388 76.2875 75.288 78.5875 83.188 80.7875 89.188 80.7875 89.588 79.2875 89.788 78.5875 88.588 77.3875 86.388 76.0875L86.588 75.6875C88.388 76.6875 90.388 78.1875 90.088 79.4875 89.788 80.4875 88.188 80.8875 85.888 80.8875Z" fill="white"/><path d="M19.1183 20.0001C24.401 20.0001 28.6834 15.7176 28.6834 10.435 28.6834 5.15232 24.401 0.869873 19.1183 0.869873 13.8357 0.869873 9.55322 5.15232 9.55322 10.435 9.55322 15.7176 13.8357 20.0001 19.1183 20.0001Z" fill="url(#paint5_linear)"/><path d="M19.1183 20.0001C24.401 20.0001 28.6834 15.7176 28.6834 10.435 28.6834 5.15232 24.401 0.869873 19.1183 0.869873 13.8357 0.869873 9.55322 5.15232 9.55322 10.435 9.55322 15.7176 13.8357 20.0001 19.1183 20.0001Z" fill="url(#paint6_radial)"/><defs><linearGradient id="paint0_linear" x1="47.8493" y1="4.3522" x2="50.8492" y2="110.852" gradientUnits="userSpaceOnUse"><stop offset="0.2225" stop-color="#3C0289"/><stop offset="0.651" stop-color="#4172DA"/><stop offset="1" stop-color="#80C3FF"/></linearGradient><linearGradient id="paint1_linear" x1="47.8493" y1="4.3522" x2="50.8492" y2="110.852" gradientUnits="userSpaceOnUse"><stop offset="0.2225" stop-color="#3C0289"/><stop offset="0.651" stop-color="#4172DA"/><stop offset="1" stop-color="#80C3FF"/></linearGradient><linearGradient id="paint2_linear" x1="47.8493" y1="4.3522" x2="50.8492" y2="110.852" gradientUnits="userSpaceOnUse"><stop offset="0.2225" stop-color="#3C0289"/><stop offset="0.651" stop-color="#4172DA"/><stop offset="1" stop-color="#80C3FF"/></linearGradient><linearGradient id="paint3_linear" x1="61.4322" y1="112.912" x2="82.535" y2="58.8887" gradientUnits="userSpaceOnUse"><stop offset="0.1308" stop-color="#C74ECE"/><stop offset="1" stop-color="#EFC0D5"/></linearGradient><radialGradient id="paint4_radial" cx="0" cy="0" r="1" gradientUnits="userSpaceOnUse" gradientTransform="translate(83.0281 67.6998) rotate(139.542) scale(20.1271)"><stop offset="0.522192" stop-color="#0C0F6C"/><stop offset="1" stop-color="#C74ECE"/></radialGradient><linearGradient id="paint5_linear" x1="31.5534" y1="-3.06598" x2="9.55361" y2="20.8467" gradientUnits="userSpaceOnUse"><stop offset="0.038537" stop-color="#0C0F6C"/><stop offset="0.9137" stop-color="#E0369B"/></linearGradient><radialGradient id="paint6_radial" cx="0" cy="0" r="1" gradientUnits="userSpaceOnUse" gradientTransform="translate(25.1005 0.869872) rotate(127.892) scale(25.3137)"><stop offset="0.509575" stop-color="#E0369B"/><stop offset="1" stop-color="#8BECEF"/></radialGradient></defs></svg>