<svg width="100" height="100" viewBox="0 0 100 100" fill="none" xmlns="http://www.w3.org/2000/svg"><path d="M58.7657 29.5958L62.4511 23.689 62.4514 23.6886C63.8541 21.438 64.5114 19.16 64.5114 16.5743 64.5114 13.6287 63.3111 10.3851 61.0178 7.99887L61.0158 7.99682C58.4125 5.30332 55.238 4 51.5571 4 46.772 4 42.436 6.491 39.8518 10.769L39.8409 10.787 39.8308 10.8054 21.973 43.3902C18.0666 49.1239 16 55.4912 16 62.3725 16 71.4351 19.8347 79.9692 26.1429 86.1336 32.3528 92.3001 40.9409 96 50.0502 96 59.2598 96 67.8496 92.3001 74.0609 86.1308 80.2711 79.9625 84 71.428 84 62.3725 84 54.5556 81.206 46.9502 76.4428 41.0878L76.4415 41.0863C71.8799 35.495 65.7602 31.4336 58.7657 29.5958ZM55.6948 67.8294L55.6844 67.8392 55.6743 67.8493C54.2725 69.2416 52.2192 70.0577 50.1292 70.153 48.1053 70.1475 46.2529 69.3643 44.7275 67.8493L44.7078 67.8297 44.6871 67.8113C42.9923 66.3051 42.21 64.4819 42.21 62.3725 42.21 60.2626 42.9944 58.4177 44.6271 56.796 46.0382 55.3944 47.991 54.592 50.1507 54.592 52.305 54.592 54.1614 55.292 55.7745 56.7964 57.3098 58.4196 58.0913 60.2673 58.0913 62.3725 58.0913 64.4865 57.3048 66.3192 55.6948 67.8294Z" fill="url(#paint0_linear)" stroke="white" stroke-width="2"/><mask id="mask0" mask-type="alpha" maskUnits="userSpaceOnUse" x="17" y="5" width="66" height="90"><path d="M26.8448 85.4213C20.7169 79.4346 17 71.153 17 62.3725 17 55.6874 19.0091 49.5011 22.8265 43.9135L40.7078 11.286C43.1187 7.2949 47.137 5 51.5571 5 54.9726 5 57.8858 6.19734 60.2968 8.69179 62.4064 10.8869 63.5114 13.8803 63.5114 16.5743 63.5114 18.9689 62.9087 21.0643 61.6027 23.1596L57.1827 30.2439C64.516 31.8404 70.9452 35.9313 75.6667 41.7184 80.2877 47.4058 83 54.7893 83 62.3725 83 71.153 79.3836 79.4346 73.3562 85.4213 67.3288 91.408 58.9909 95 50.0502 95 41.21 95 32.8722 91.408 26.8448 85.4213ZM56.379 68.5588C58.1872 66.8625 59.0913 64.7672 59.0913 62.3725 59.0913 59.9778 58.1872 57.8825 56.4795 56.0865 54.6712 54.3902 52.5616 53.592 50.1507 53.592 47.7397 53.592 45.5297 54.49 43.9224 56.0865 42.1142 57.8825 41.21 59.9778 41.21 62.3725 41.21 64.7672 42.1142 66.8625 44.0228 68.5588 45.7306 70.255 47.8402 71.153 50.1507 71.153 52.4612 71.0532 54.7717 70.1552 56.379 68.5588Z" fill="url(#paint1_linear)"/></mask><g mask="url(#mask0)"><path d="M26.8448 85.4213C20.7169 79.4346 17 71.153 17 62.3725 17 55.6874 19.0091 49.5011 22.8265 43.9135L40.7078 11.286C43.1187 7.2949 47.137 5 51.5571 5 54.9726 5 57.8858 6.19734 60.2968 8.69179 62.4064 10.8869 63.5114 13.8803 63.5114 16.5743 63.5114 18.9689 62.9087 21.0643 61.6027 23.1596L57.1827 30.2439C64.516 31.8404 70.9452 35.9313 75.6667 41.7184 80.2877 47.4058 83 54.7893 83 62.3725 83 71.153 79.3836 79.4346 73.3562 85.4213 67.3288 91.408 58.9909 95 50.0502 95 41.21 95 32.8722 91.408 26.8448 85.4213ZM56.379 68.5588C58.1872 66.8625 59.0913 64.7672 59.0913 62.3725 59.0913 59.9778 58.1872 57.8825 56.4795 56.0865 54.6712 54.3902 52.5616 53.592 50.1507 53.592 47.7397 53.592 45.5297 54.49 43.9224 56.0865 42.1142 57.8825 41.21 59.9778 41.21 62.3725 41.21 64.7672 42.1142 66.8625 44.0228 68.5588 45.7306 70.255 47.8402 71.153 50.1507 71.153 52.4612 71.0532 54.7717 70.1552 56.379 68.5588Z" fill="url(#paint2_linear)"/><path fill-rule="evenodd" clip-rule="evenodd" d="M64.0136 73.6476L65.8219 74.7451 64.0136 75.6431 63.0091 77.4392 62.0045 75.6431 60.1963 74.6454 62.0045 73.6476 63.1095 71.8516 64.0136 73.6476Z" fill="white"/><path fill-rule="evenodd" clip-rule="evenodd" d="M52.5618 8.09316L53.6669 8.7916 52.5618 9.39028 51.8586 10.5876 51.2559 9.39028 50.1509 8.69183 51.2559 8.09316 51.9591 6.99561 52.5618 8.09316Z" fill="white"/><path fill-rule="evenodd" clip-rule="evenodd" d="M26.5432 46.1087L27.6482 46.7074 26.4427 47.306 25.84 48.5034 25.2372 47.306 24.0317 46.7074 25.2372 46.1087 25.9404 44.9114 26.5432 46.1087Z" fill="white"/><path fill-rule="evenodd" clip-rule="evenodd" d="M58.5778 72.5167L59.1918 72.8493 58.522 73.1819 58.1872 73.8471 57.8523 73.1819 57.1826 72.7939 57.8523 72.4613 58.243 71.8516 58.5778 72.5167Z" fill="white"/><path d="M53.612 83.8039C51.6542 84.9201 50.9556 87.5555 52.1787 89.4846 53.3025 91.4293 55.9558 92.123 57.898 90.9083L86.0913 74.451 81.9046 67.331 53.612 83.8039Z" fill="url(#paint3_linear)"/><path d="M54.2766 85.4164C53.0653 86.1121 52.6223 87.7982 53.3227 89.0013 54.0231 90.2044 55.7206 90.6444 56.9319 89.9488L74.7041 79.576 72.0489 75.0437 54.2766 85.4164Z" fill="url(#paint4_linear)"/><path d="M61.3211 84.3082C61.3211 84.3082 57.5212 88.5429 56.6911 89.0776 55.861 89.6122 54.7902 89.2756 54.2519 88.4511 53.7136 87.6266 54.0525 86.563 54.8826 86.0283 55.7127 85.4937 61.3211 84.3082 61.3211 84.3082Z" fill="url(#paint5_linear)"/><path d="M48.9465 22.8605C49.4488 22.8605 49.4488 22.0623 48.9465 22.0623 48.4443 22.0623 48.4443 22.8605 48.9465 22.8605Z" fill="white"/><path d="M56.5549 14.7782C57.0572 14.7782 57.0572 13.98 56.5549 13.98 56.0527 13.98 56.0527 14.7782 56.5549 14.7782Z" fill="white" fill-opacity="0.5"/><path d="M55.677 14.08C56.1793 14.08 56.1793 13.2817 55.677 13.2817 55.1747 13.3815 55.1747 14.08 55.677 14.08Z" fill="white"/><path d="M40.6077 29.5455C41.11 29.5455 41.11 28.7473 40.6077 28.7473 40.1054 28.8471 40.1054 29.5455 40.6077 29.5455Z" fill="white"/><path d="M43.4211 17.0731C43.9234 17.0731 43.9234 16.2749 43.4211 16.2749 42.9189 16.3747 42.9189 17.0731 43.4211 17.0731Z" fill="white" fill-opacity="0.5"/><path d="M62.5823 47.5055C63.0846 47.5055 63.0846 46.7073 62.5823 46.7073 62.08 46.7073 62.08 47.5055 62.5823 47.5055Z" fill="white" fill-opacity="0.5"/><path d="M63.0847 39.7228C63.587 39.7228 63.587 38.9246 63.0847 38.9246 62.5824 39.0243 62.5824 39.7228 63.0847 39.7228Z" fill="white"/><path d="M21.3948 61.674C21.8971 61.674 21.8971 60.8757 21.3948 60.8757 20.8925 60.9755 20.8925 61.674 21.3948 61.674Z" fill="white" fill-opacity="0.5"/><path d="M31.3665 44.8116C31.8687 44.8116 31.8687 44.0134 31.3665 44.0134 30.8642 44.0134 30.8642 44.8116 31.3665 44.8116Z" fill="white"/><path d="M30.4363 46.7074C30.9386 46.7074 30.9386 45.9092 30.4363 45.9092 29.934 46.009 29.934 46.7074 30.4363 46.7074Z" fill="white" fill-opacity="0.5"/><path d="M66.7263 79.734C67.2286 79.734 67.2286 78.9358 66.7263 78.9358 66.224 78.9358 66.224 79.734 66.7263 79.734Z" fill="white" fill-opacity="0.2"/><path d="M73.2561 71.2528C73.7584 71.2528 73.7584 70.4546 73.2561 70.4546 72.7538 70.4546 72.7538 71.2528 73.2561 71.2528Z" fill="white"/><path d="M30.1838 75.2098C30.6861 75.2098 30.6861 74.4116 30.1838 74.4116 29.6816 74.4116 29.6816 75.2098 30.1838 75.2098Z" fill="white"/><path d="M21.5212 69.4569C22.0235 69.4569 22.0235 68.6587 21.5212 68.6587 21.019 68.7585 21.019 69.4569 21.5212 69.4569Z" fill="white" fill-opacity="0.2"/><path d="M51.9602 76.7406C52.4625 76.7406 52.4625 75.9424 51.9602 75.9424 51.4579 75.9424 51.4579 76.7406 51.9602 76.7406Z" fill="white" fill-opacity="0.2"/><path d="M45.5046 91.6076C46.0069 91.6076 46.0069 90.8093 45.5046 90.8093 45.0024 90.9091 45.0024 91.6076 45.5046 91.6076Z" fill="white"/><path d="M32.8733 78.9357C33.3756 78.9357 33.3756 78.1375 32.8733 78.1375 32.371 78.2372 32.371 78.9357 32.8733 78.9357Z" fill="white"/><path d="M25.4133 59.6786C25.9156 59.6786 25.9156 58.8804 25.4133 58.8804 24.9111 58.8804 24.9111 59.6786 25.4133 59.6786Z" fill="white"/></g><path opacity="0.2" d="M72.4612 52.7406C79.8956 52.7406 85.9224 46.7545 85.9224 39.3703 85.9224 31.9861 79.8956 26 72.4612 26 65.0268 26 59 31.9861 59 39.3703 59 46.7545 65.0268 52.7406 72.4612 52.7406Z" fill="url(#paint6_linear)"/><path d="M72.4616 48.2508C77.3994 48.2508 81.4023 44.2749 81.4023 39.3705 81.4023 34.4661 77.3994 30.4902 72.4616 30.4902 67.5239 30.4902 63.521 34.4661 63.521 39.3705 63.521 44.2749 67.5239 48.2508 72.4616 48.2508Z" fill="url(#paint7_radial)"/><path opacity="0.2" d="M38.1614 75.4404C39.7687 83.2231 34.7459 90.8062 26.9102 92.4027 19.0746 93.9991 11.4399 89.0102 9.83262 81.2275 8.22532 73.4448 13.2481 65.8616 21.0838 64.2652 28.8189 62.7685 36.5541 67.7574 38.1614 75.4404Z" fill="url(#paint8_linear)"/><path d="M34.6453 76.139C35.8508 81.9262 32.0334 87.7133 26.2069 88.9106 20.3804 90.108 14.554 86.3164 13.3485 80.5293 12.143 74.7421 15.9604 68.955 21.7868 67.7576 27.6133 66.5603 33.4398 70.3519 34.6453 76.139Z" fill="url(#paint9_radial)"/><path d="M13.6503 82.8243C10.5361 82.8243 8.22563 82.3254 8.02472 81.1281 7.72335 79.8309 10.2348 78.3342 12.4448 77.4362 12.5453 77.3365 12.7462 77.4362 12.7462 77.536 12.8466 77.6358 12.7462 77.8354 12.6457 77.8354 9.9334 79.0327 8.42655 80.23 8.527 80.9285 8.82837 82.4252 15.7599 82.8243 25.1023 80.8287 29.422 79.9307 33.3398 78.7334 36.253 77.4362 38.9654 76.2389 40.4722 75.0416 40.3718 74.3431 40.1709 73.6447 38.3626 72.9462 33.7416 73.1458 33.6412 73.1458 33.4403 73.046 33.4403 72.9462 33.4403 72.8464 33.5407 72.6469 33.6412 72.6469 36.1526 72.5471 40.4722 72.6469 40.7736 74.2433 41.075 75.5404 38.5636 77.0371 36.3535 77.9351 33.4403 79.2323 29.422 80.4296 25.1023 81.3276 21.1845 82.3254 16.8649 82.8243 13.6503 82.8243Z" fill="white"/><defs><linearGradient id="paint0_linear" x1="55.2602" y1="-60.2895" x2="48.4459" y2="102.993" gradientUnits="userSpaceOnUse"><stop stop-color="#0C0F6C"/><stop offset="0.5891" stop-color="#3C0289"/><stop offset="1" stop-color="#8B46AB"/></linearGradient><linearGradient id="paint1_linear" x1="55.2602" y1="-60.2895" x2="48.4459" y2="102.993" gradientUnits="userSpaceOnUse"><stop stop-color="#0C0F6C"/><stop offset="0.5891" stop-color="#3C0289"/><stop offset="1" stop-color="#8B46AB"/></linearGradient><linearGradient id="paint2_linear" x1="55.2602" y1="-60.2895" x2="48.4459" y2="102.993" gradientUnits="userSpaceOnUse"><stop stop-color="#0C0F6C"/><stop offset="0.5891" stop-color="#3C0289"/><stop offset="1" stop-color="#8B46AB"/></linearGradient><linearGradient id="paint3_linear" x1="52.1072" y1="89.4274" x2="83.7394" y2="70.6536" gradientUnits="userSpaceOnUse"><stop stop-color="#F2CC33" stop-opacity="0.2"/><stop offset="0.9987" stop-color="#DA185E" stop-opacity="0"/></linearGradient><linearGradient id="paint4_linear" x1="53.3617" y1="88.9346" x2="73.2784" y2="77.114" gradientUnits="userSpaceOnUse"><stop stop-color="#F2CC33" stop-opacity="0.8"/><stop offset="0.2798" stop-color="#E98644" stop-opacity="0.5115"/><stop offset="0.6196" stop-color="#DE3757" stop-opacity="0.1612"/><stop offset="0.776" stop-color="#DA185E" stop-opacity="0"/></linearGradient><linearGradient id="paint5_linear" x1="54.283" y1="88.4539" x2="61.3134" y2="84.2813" gradientUnits="userSpaceOnUse"><stop stop-color="#F2CC33"/><stop offset="1" stop-color="#F7DC6B" stop-opacity="0.3"/></linearGradient><linearGradient id="paint6_linear" x1="66.4637" y1="62.7283" x2="76.0944" y2="24.8174" gradientUnits="userSpaceOnUse"><stop offset="0.1308" stop-color="#C74ECE"/><stop offset="1" stop-color="#EFC0D5"/></linearGradient><radialGradient id="paint7_radial" cx="0" cy="0" r="1" gradientUnits="userSpaceOnUse" gradientTransform="translate(67.5393 47.9514) rotate(-39.4201) scale(18.8557 18.8314)"><stop offset="0.631738" stop-color="#C74ECE"/><stop offset="1" stop-color="#EFC0D5"/></radialGradient><linearGradient id="paint8_linear" x1="9.84675" y1="81.2742" x2="38.1071" y2="75.3879" gradientUnits="userSpaceOnUse"><stop stop-color="#4172DA"/><stop offset="0.8216" stop-color="#8BECEF"/></linearGradient><radialGradient id="paint9_radial" cx="0" cy="0" r="1" gradientUnits="userSpaceOnUse" gradientTransform="translate(22.0641 80.4635) rotate(-37.3811) scale(16.4348 33.6738)"><stop offset="0.35298" stop-color="#4172DA"/><stop offset="1" stop-color="#8BECEF"/></radialGradient></defs></svg>