<svg width="100" height="100" viewBox="0 0 100 100" fill="none" xmlns="http://www.w3.org/2000/svg"><defs><linearGradient id="paint0_linear" x1="55.26" y1="-60.29" x2="48.45" y2="102.99" gradientUnits="userSpaceOnUse"><stop stop-color="#0C0F6C"/><stop offset="0.59" stop-color="#3C0289"/><stop offset="1" stop-color="#8B46AB"/></linearGradient><linearGradient id="paint1_linear" x1="55.26" y1="-60.29" x2="48.45" y2="102.99" gradientUnits="userSpaceOnUse"><stop stop-color="#0C0F6C"/><stop offset="0.59" stop-color="#3C0289"/><stop offset="1" stop-color="#8B46AB"/></linearGradient><linearGradient id="paint2_linear" x1="55.26" y1="-60.29" x2="48.45" y2="102.99" gradientUnits="userSpaceOnUse"><stop stop-color="#0C0F6C"/><stop offset="0.59" stop-color="#3C0289"/><stop offset="1" stop-color="#8B46AB"/></linearGradient><linearGradient id="paint3_linear" x1="10.81" y1="81.14" x2="39.07" y2="75.26" gradientUnits="userSpaceOnUse"><stop stop-color="#4172DA"/><stop offset="0.82" stop-color="#8BECEF"/></linearGradient><linearGradient id="paint4_linear" x1="68.66" y1="72.66" x2="78.3" y2="34.75" gradientUnits="userSpaceOnUse"><stop offset="0.13" stop-color="#C74ECE"/><stop offset="1" stop-color="#EFC0D5"/></linearGradient><linearGradient id="paint5_linear" x1="52.11" y1="89.43" x2="83.74" y2="70.65" gradientUnits="userSpaceOnUse"><stop stop-color="#F2CC33" stop-opacity="0.2"/><stop offset="1" stop-color="#DA185E" stop-opacity="0"/></linearGradient><linearGradient id="paint6_linear" x1="53.36" y1="88.93" x2="73.28" y2="77.11" gradientUnits="userSpaceOnUse"><stop stop-color="#F2CC33" stop-opacity="0.8"/><stop offset="0.28" stop-color="#E98644" stop-opacity="0.51"/><stop offset="0.62" stop-color="#DE3757" stop-opacity="0.16"/><stop offset="0.78" stop-color="#DA185E" stop-opacity="0"/></linearGradient><linearGradient id="paint7_linear" x1="54.28" y1="88.45" x2="61.31" y2="84.28" gradientUnits="userSpaceOnUse"><stop stop-color="#F2CC33"/><stop offset="1" stop-color="#F7DC6B" stop-opacity="0.3"/></linearGradient><radialGradient id="paint8_radial" cx="0" cy="0" r="1" gradientUnits="userSpaceOnUse" gradientTransform="translate(23.0274 80.3326) rotate(-37.3811) scale(16.4348 33.6738)"><stop offset="0.35" stop-color="#4172DA"/><stop offset="1" stop-color="#8BECEF"/></radialGradient><radialGradient id="paint9_radial" cx="0" cy="0" r="1" gradientUnits="userSpaceOnUse" gradientTransform="translate(69.7399 57.8826) rotate(-39.4201) scale(18.8557 18.8314)"><stop offset="0.63" stop-color="#C74ECE"/><stop offset="1" stop-color="#EFC0D5"/></radialGradient></defs><path d="M39.85 10.77L39.84 10.79 39.83 10.81 21.97 43.39C18.07 49.12 16 55.49 16 62.37 16 71.44 19.83 79.97 26.14 86.13 32.35 92.3 40.94 96 50.05 96 59.26 96 67.85 92.3 74.06 86.13 80.27 79.96 84 71.43 84 62.37 84 54.56 81.21 46.95 76.44 41.09L76.44 41.09C71.88 35.49 65.76 31.43 58.77 29.6L62.45 23.69 62.45 23.69C63.85 21.44 64.51 19.16 64.51 16.57 64.51 13.63 63.31 10.39 61.02 8L61.02 8C58.41 5.3 55.24 4 51.56 4 46.77 4 42.44 6.49 39.85 10.77ZM55.69 67.83L55.68 67.84 55.67 67.85C54.27 69.24 52.22 70.06 50.13 70.15 48.11 70.15 46.25 69.36 44.73 67.85L44.71 67.83 44.69 67.81C42.99 66.31 42.21 64.48 42.21 62.37 42.21 60.26 42.99 58.42 44.63 56.8 46.04 55.39 47.99 54.59 50.15 54.59 52.31 54.59 54.16 55.29 55.77 56.8 57.31 58.42 58.09 60.27 58.09 62.37 58.09 64.49 57.3 66.32 55.69 67.83Z" fill="url(#paint0_linear)" stroke="white" stroke-width="2"/><mask id="mask0" mask-type="alpha" maskUnits="userSpaceOnUse" x="17" y="5" width="66" height="90"><path d="M26.84 85.42C20.72 79.43 17 71.15 17 62.37 17 55.69 19.01 49.5 22.83 43.91L40.71 11.29C43.12 7.29 47.14 5 51.56 5 54.97 5 57.89 6.2 60.3 8.69 62.41 10.89 63.51 13.88 63.51 16.57 63.51 18.97 62.91 21.06 61.6 23.16L57.18 30.24C64.52 31.84 70.95 35.93 75.67 41.72 80.29 47.41 83 54.79 83 62.37 83 71.15 79.38 79.43 73.36 85.42 67.33 91.41 58.99 95 50.05 95 41.21 95 32.87 91.41 26.84 85.42ZM56.38 68.56C58.19 66.86 59.09 64.77 59.09 62.37 59.09 59.98 58.19 57.88 56.48 56.09 54.67 54.39 52.56 53.59 50.15 53.59 47.74 53.59 45.53 54.49 43.92 56.09 42.11 57.88 41.21 59.98 41.21 62.37 41.21 64.77 42.11 66.86 44.02 68.56 45.73 70.26 47.84 71.15 50.15 71.15 52.46 71.05 54.77 70.16 56.38 68.56Z" fill="url(#paint1_linear)"/></mask><g mask="url(#mask0)"><path d="M26.84 85.42C20.72 79.43 17 71.15 17 62.37 17 55.69 19.01 49.5 22.83 43.91L40.71 11.29C43.12 7.29 47.14 5 51.56 5 54.97 5 57.89 6.2 60.3 8.69 62.41 10.89 63.51 13.88 63.51 16.57 63.51 18.97 62.91 21.06 61.6 23.16L57.18 30.24C64.52 31.84 70.95 35.93 75.67 41.72 80.29 47.41 83 54.79 83 62.37 83 71.15 79.38 79.43 73.36 85.42 67.33 91.41 58.99 95 50.05 95 41.21 95 32.87 91.41 26.84 85.42ZM56.38 68.56C58.19 66.86 59.09 64.77 59.09 62.37 59.09 59.98 58.19 57.88 56.48 56.09 54.67 54.39 52.56 53.59 50.15 53.59 47.74 53.59 45.53 54.49 43.92 56.09 42.11 57.88 41.21 59.98 41.21 62.37 41.21 64.77 42.11 66.86 44.02 68.56 45.73 70.26 47.84 71.15 50.15 71.15 52.46 71.05 54.77 70.16 56.38 68.56Z" fill="url(#paint2_linear)"/><path opacity="0.2" d="M39.12 75.31C40.73 83.09 35.71 90.68 27.87 92.27 20.04 93.87 12.4 88.88 10.8 81.1 9.19 73.31 14.21 65.73 22.05 64.13 29.78 62.64 37.52 67.63 39.12 75.31Z" fill="url(#paint3_linear)"/><path opacity="0.1" d="M16.86 18.54C13.9 22.08 11.3 26.05 11.38 30.75 11.38 33.18 12.19 35.54 13.9 37.23 17.46 40.83 22.86 39.8 27.46 38.7 34.42 37.01 41.46 35.24 47.54 31.49 50.95 29.43 54.06 26.71 58.14 26.19 59.62 25.97 61.18 26.78 61.84 28.18 62.88 30.46 60.81 32.3 58.95 33.55 48.8 40.32 37.54 45.47 27.24 52.09 16.94 58.71 7.3 67.24 2.56 78.42 -0.4 85.41-1.29 93.57 2.12 100.34 3.6 103.35 5.9 106 8.27 108.43 12.05 112.25 16.27 115.79 21.31 117.77 30.57 121.45 41.09 119.32 50.73 116.81 61.18 114.09 71.4 110.71 81.41 106.66 88.45 103.8 95.41 100.49 101.41 95.78 107.49 90.92 112.46 84.38 114.09 76.8 114.53 74.67 114.75 72.24 113.57 70.4 112.68 69 111.12 68.05 109.49 67.53 103.19 65.33 96.3 67.61 90 69.81 83.26 72.17 76.59 74.52 69.85 76.95 58.66 80.92 46.87 84.96 35.09 83.35 33.54 83.13 31.98 82.83 30.79 81.8 28.57 79.96 28.72 76.43 29.9 73.78 31.83 69.52 35.91 66.58 40.28 64.88 44.65 63.19 49.39 62.6 53.99 61.94 59.84 61.06 65.7 59.88 71.48 58.41 74.74 57.6 77.92 56.72 80.81 55.03 83.26 53.56 85.63 51.06 84.59 48.11 84.15 46.86 83.11 45.91 81.93 45.32 79.33 44.07 76.44 44.58 73.77 45.25 63.55 47.75 53.91 52.23 43.54 54.29 42.8 54.44 41.84 54.51 41.39 54 41.02 53.56 41.02 52.97 41.09 52.45 41.76 47.82 47.32 45.91 51.76 44.29 58.29 41.94 64.29 38.11 69.18 33.26 72.29 30.17 75.11 25.24 71.62 21.85 70.44 20.75 68.88 20.16 67.25 20.09 59.47 19.87 52.51 23.62 45.02 25.39 43.84 25.68 42.65 25.9 41.39 26.05 37.76 26.56 36.06 21.71 39.24 19.87 50.51 13.32 63.4 9.2 74.89 2.8 75.77 2.29 76.44 1.41 76.52 0.38 76.74-1.98 73.92-2.79 71.77-2.86 50.73-3.96 30.5 2.36 16.86 18.54Z" fill="white"/><path opacity="0.2" d="M74.66 62.67C82.1 62.67 88.12 56.69 88.12 49.3 88.12 41.92 82.1 35.93 74.66 35.93 67.23 35.93 61.2 41.92 61.2 49.3 61.2 56.69 67.23 62.67 74.66 62.67Z" fill="url(#paint4_linear)"/><path fill-rule="evenodd" clip-rule="evenodd" d="M64.01 73.65L65.82 74.75 64.01 75.64 63.01 77.44 62 75.64 60.2 74.65 62 73.65 63.11 71.85 64.01 73.65Z" fill="white"/><path fill-rule="evenodd" clip-rule="evenodd" d="M52.56 8.09L53.67 8.79 52.56 9.39 51.86 10.59 51.26 9.39 50.15 8.69 51.26 8.09 51.96 7 52.56 8.09Z" fill="white"/><path fill-rule="evenodd" clip-rule="evenodd" d="M26.54 46.11L27.65 46.71 26.44 47.31 25.84 48.5 25.24 47.31 24.03 46.71 25.24 46.11 25.94 44.91 26.54 46.11Z" fill="white"/><path fill-rule="evenodd" clip-rule="evenodd" d="M58.58 72.52L59.19 72.85 58.52 73.18 58.19 73.85 57.85 73.18 57.18 72.79 57.85 72.46 58.24 71.85 58.58 72.52Z" fill="white"/><path d="M53.61 83.8C51.65 84.92 50.96 87.56 52.18 89.48 53.3 91.43 55.96 92.12 57.9 90.91L86.09 74.45 81.9 67.33 53.61 83.8Z" fill="url(#paint5_linear)"/><path d="M54.28 85.42C53.07 86.11 52.62 87.8 53.32 89 54.02 90.2 55.72 90.64 56.93 89.95L74.7 79.58 72.05 75.04 54.28 85.42Z" fill="url(#paint6_linear)"/><path d="M61.32 84.31C61.32 84.31 57.52 88.54 56.69 89.08 55.86 89.61 54.79 89.28 54.25 88.45 53.71 87.63 54.05 86.56 54.88 86.03 55.71 85.49 61.32 84.31 61.32 84.31Z" fill="url(#paint7_linear)"/><path d="M48.95 22.86C49.45 22.86 49.45 22.06 48.95 22.06 48.44 22.06 48.44 22.86 48.95 22.86Z" fill="white"/><path d="M56.55 14.78C57.06 14.78 57.06 13.98 56.55 13.98 56.05 13.98 56.05 14.78 56.55 14.78Z" fill="white" fill-opacity="0.5"/><path d="M55.68 14.08C56.18 14.08 56.18 13.28 55.68 13.28 55.17 13.38 55.17 14.08 55.68 14.08Z" fill="white"/><path d="M40.61 29.55C41.11 29.55 41.11 28.75 40.61 28.75 40.11 28.85 40.11 29.55 40.61 29.55Z" fill="white"/><path d="M43.42 17.07C43.92 17.07 43.92 16.27 43.42 16.27 42.92 16.37 42.92 17.07 43.42 17.07Z" fill="white" fill-opacity="0.5"/><path d="M62.58 47.51C63.08 47.51 63.08 46.71 62.58 46.71 62.08 46.71 62.08 47.51 62.58 47.51Z" fill="white" fill-opacity="0.5"/><path d="M63.08 39.72C63.59 39.72 63.59 38.92 63.08 38.92 62.58 39.02 62.58 39.72 63.08 39.72Z" fill="white"/><path d="M21.39 61.67C21.9 61.67 21.9 60.88 21.39 60.88 20.89 60.98 20.89 61.67 21.39 61.67Z" fill="white" fill-opacity="0.5"/><path d="M31.37 44.81C31.87 44.81 31.87 44.01 31.37 44.01 30.86 44.01 30.86 44.81 31.37 44.81Z" fill="white"/><path d="M30.44 46.71C30.94 46.71 30.94 45.91 30.44 45.91 29.93 46.01 29.93 46.71 30.44 46.71Z" fill="white" fill-opacity="0.5"/><path d="M66.73 79.73C67.23 79.73 67.23 78.94 66.73 78.94 66.22 78.94 66.22 79.73 66.73 79.73Z" fill="white" fill-opacity="0.2"/><path d="M73.26 71.25C73.76 71.25 73.76 70.45 73.26 70.45 72.75 70.45 72.75 71.25 73.26 71.25Z" fill="white"/><path d="M30.18 75.21C30.69 75.21 30.69 74.41 30.18 74.41 29.68 74.41 29.68 75.21 30.18 75.21Z" fill="white"/><path d="M21.52 69.46C22.02 69.46 22.02 68.66 21.52 68.66 21.02 68.76 21.02 69.46 21.52 69.46Z" fill="white" fill-opacity="0.2"/><path d="M51.96 76.74C52.46 76.74 52.46 75.94 51.96 75.94 51.46 75.94 51.46 76.74 51.96 76.74Z" fill="white" fill-opacity="0.2"/><path d="M45.5 91.61C46.01 91.61 46.01 90.81 45.5 90.81 45 90.91 45 91.61 45.5 91.61Z" fill="white"/><path d="M32.87 78.94C33.38 78.94 33.38 78.14 32.87 78.14 32.37 78.24 32.37 78.94 32.87 78.94Z" fill="white"/><path d="M25.41 59.68C25.92 59.68 25.92 58.88 25.41 58.88 24.91 58.88 24.91 59.68 25.41 59.68Z" fill="white"/><path d="M35.61 76.01C36.81 81.8 33 87.58 27.17 88.78 21.34 89.98 15.52 86.19 14.31 80.4 13.11 74.61 16.92 68.82 22.75 67.63 28.58 66.43 34.4 70.22 35.61 76.01Z" fill="url(#paint8_radial)"/><path d="M14.61 82.69C11.5 82.69 9.19 82.19 8.99 81 8.69 79.7 11.2 78.2 13.41 77.31 13.51 77.21 13.71 77.31 13.71 77.41 13.81 77.5 13.71 77.7 13.61 77.7 10.9 78.9 9.39 80.1 9.49 80.8 9.79 82.29 16.72 82.69 26.07 80.7 30.39 79.8 34.3 78.6 37.22 77.31 39.93 76.11 41.44 74.91 41.34 74.21 41.13 73.51 39.33 72.82 34.71 73.01 34.6 73.01 34.4 72.92 34.4 72.82 34.4 72.72 34.5 72.52 34.6 72.52 37.12 72.42 41.44 72.52 41.74 74.11 42.04 75.41 39.53 76.91 37.32 77.8 34.4 79.1 30.39 80.3 26.07 81.2 22.15 82.19 17.83 82.69 14.61 82.69Z" fill="white"/><path d="M74.66 58.18C79.6 58.18 83.6 54.21 83.6 49.3 83.6 44.4 79.6 40.42 74.66 40.42 69.72 40.42 65.72 44.4 65.72 49.3 65.72 54.21 69.72 58.18 74.66 58.18Z" fill="url(#paint9_radial)"/></g></svg>