<svg width="100" height="100" viewBox="0 0 100 100" fill="none" xmlns="http://www.w3.org/2000/svg"><defs><linearGradient id="paint0_linear" x1="52.92" y1="78.8" x2="48.2" y2="-15.24" gradientUnits="userSpaceOnUse"><stop stop-color="#3C0289"/><stop offset="0.49" stop-color="#4172DA"/><stop offset="0.94" stop-color="#80C3FF"/></linearGradient><linearGradient id="paint1_linear" x1="52.92" y1="78.8" x2="48.2" y2="-15.24" gradientUnits="userSpaceOnUse"><stop stop-color="#3C0289"/><stop offset="0.49" stop-color="#4172DA"/><stop offset="0.94" stop-color="#80C3FF"/></linearGradient><radialGradient id="paint2_radial" cx="0" cy="0" r="1" gradientUnits="userSpaceOnUse" gradientTransform="translate(69.9324 39.7365) rotate(116.428) scale(15.7885 15.4399)"><stop stop-color="#EFC0D5"/><stop offset="1" stop-color="#C74ECE"/></radialGradient><radialGradient id="paint3_radial" cx="0" cy="0" r="1" gradientUnits="userSpaceOnUse" gradientTransform="translate(62.9119 59.8948) rotate(-66.1082) scale(21.6585 20.974)"><stop offset="0.7" stop-color="#C74ECE"/><stop offset="1" stop-color="#EFC0D5"/></radialGradient><radialGradient id="paint4_radial" cx="0" cy="0" r="1" gradientUnits="userSpaceOnUse" gradientTransform="translate(12.5 87.0001) rotate(-41.3255) scale(38.6167 39.0106)"><stop offset="0.66" stop-color="#E78EB6"/><stop offset="1" stop-color="#EFC0D5"/></radialGradient><radialGradient id="paint5_radial" cx="0" cy="0" r="1" gradientUnits="userSpaceOnUse" gradientTransform="translate(59 25.3391) rotate(-39.8737) scale(18.242 18.2992)"><stop offset="0.58" stop-color="#4172DA"/><stop offset="1" stop-color="#8BECEF"/></radialGradient></defs><path d="M19.92 26.58L19.92 26.58C22.4 28.88 25.74 30.31 29.4 30.31H48.96L25.71 75.72C24.43 78.13 23.9 80.73 23.9 83.41 23.9 86.57 24.97 89.66 27.15 92 29.26 94.48 32.44 95.89 36.17 96L36.19 96H36.2C40.89 96 45.3 93.34 47.86 89L47.87 88.98 47.88 88.96 81.86 24.63C83.25 22.55 84 20.23 84 17.51 84 13.99 82.5 10.38 80.11 7.96L80.11 7.95 80.1 7.94C77.63 5.54 74.18 4 70.6 4H29.4C25.64 4 22.28 5.42 19.89 7.86 17.51 10.28 16 13.78 16 17.31 16 20.92 17.3 24.14 19.92 26.58Z" fill="url(#paint0_linear)" stroke="white" stroke-width="2"/><mask id="mask0" mask-type="alpha" maskUnits="userSpaceOnUse" x="17" y="5" width="66" height="90"><path d="M27.9 91.34C25.9 89.2 24.9 86.36 24.9 83.41 24.9 80.86 25.4 78.42 26.6 76.19L50.6 29.31H29.4C26 29.31 22.9 27.98 20.6 25.85 18.2 23.61 17 20.66 17 17.31 17 14.05 18.4 10.8 20.6 8.56 22.8 6.32 25.9 5 29.4 5H70.6C73.9 5 77.1 6.42 79.4 8.66 81.6 10.9 83 14.25 83 17.51 83 20.05 82.3 22.19 81 24.12L47 88.49C44.6 92.56 40.5 95 36.2 95 32.7 94.9 29.8 93.58 27.9 91.34Z" fill="url(#paint1_linear)"/></mask><g mask="url(#mask0)"><path opacity="0.2" d="M68 64C75.18 64 81 57.96 81 50.5 81 43.04 75.18 37 68 37 60.82 37 55 43.04 55 50.5 55 57.96 60.82 64 68 64Z" fill="url(#paint2_radial)"/><path d="M68 61C73.52 61 78 56.3 78 50.5 78 44.7 73.52 40 68 40 62.48 40 58 44.7 58 50.5 58 56.3 62.48 61 68 61Z" fill="url(#paint3_radial)"/><path fill-rule="evenodd" clip-rule="evenodd" d="M39.4 65.71L41.2 66.73 39.3 67.75 38.3 69.58 37.3 67.64 35.5 66.63 37.4 65.61 38.4 63.78 39.4 65.71Z" fill="white"/><path fill-rule="evenodd" clip-rule="evenodd" d="M52.4 69.27L53.5 69.88 52.4 70.49 51.7 71.61 51.1 70.49 50 69.78 51.2 69.27 51.8 68.05 52.4 69.27Z" fill="white"/><path fill-rule="evenodd" clip-rule="evenodd" d="M77.3 13.34L78.4 13.95 77.3 14.56 76.7 15.68 76.1 14.56 75 13.85 76.1 13.24 76.7 12.12 77.3 13.34Z" fill="white"/><path fill-rule="evenodd" clip-rule="evenodd" d="M32.3 10.29L33.4 10.9 32.3 11.51 31.6 12.63 31.1 11.51 30 10.8 31.1 10.29 31.7 9.07 32.3 10.29Z" fill="white"/><path d="M63.34 32.25C63.84 32.25 63.84 31.44 63.34 31.44 62.94 31.44 62.84 32.25 63.34 32.25Z" fill="white" fill-opacity="0.5"/><path d="M68.2 19.64C68.7 19.64 68.7 18.83 68.2 18.83 67.8 18.93 67.8 19.64 68.2 19.64Z" fill="white"/><path d="M70.3 10.8C70.8 10.8 70.8 9.98 70.3 9.98 69.8 9.98 69.8 10.8 70.3 10.8Z" fill="white"/><path d="M27.6 11.61C28.1 11.61 28.1 10.8 27.6 10.8 27.1 10.9 27.1 11.61 27.6 11.61Z" fill="white" fill-opacity="0.5"/><path d="M58.3 36.53C58.8 36.53 58.8 35.71 58.3 35.71 57.8 35.71 57.8 36.53 58.3 36.53Z" fill="white" fill-opacity="0.5"/><path d="M73.38 9.88C73.88 9.88 73.88 9.07 73.38 9.07 72.88 9.07 72.88 9.88 73.38 9.88Z" fill="white"/><path d="M51.7 63.98C52.2 63.98 52.2 63.17 51.7 63.17 51.2 63.17 51.2 63.98 51.7 63.98Z" fill="white"/><path d="M38.9 77.71C39.4 77.71 39.4 76.9 38.9 76.9 38.4 77 38.4 77.71 38.9 77.71Z" fill="white"/><path d="M31.9 77C32.4 77 32.4 76.19 31.9 76.19 31.4 76.19 31.4 77 31.9 77Z" fill="white"/><path d="M41.9 84.63C42.4 84.63 42.4 83.81 41.9 83.81 41.4 83.81 41.4 84.63 41.9 84.63Z" fill="white"/><path d="M31.3 84.63C31.8 84.63 31.8 83.81 31.3 83.81 30.9 83.81 30.9 84.63 31.3 84.63Z" fill="white"/><path d="M37.6 66.93C38.1 66.93 38.1 66.12 37.6 66.12 37.1 66.12 37.1 66.93 37.6 66.93Z" fill="white"/><path d="M38.4 57.17C38.9 57.17 38.9 56.36 38.4 56.36 37.9 56.46 37.9 57.17 38.4 57.17Z" fill="white"/><path d="M75.38 17C75.88 17 75.88 16.19 75.38 16.19 74.88 16.19 74.88 17 75.38 17Z" fill="white"/><path d="M50.38 72.93C50.88 72.93 50.88 72.12 50.38 72.12 49.88 72.12 49.88 72.93 50.38 72.93Z" fill="white" fill-opacity="0.5"/><path d="M47.1 52.59C47.6 52.59 47.6 51.78 47.1 51.78 46.6 51.78 46.6 52.59 47.1 52.59Z" fill="white"/><path opacity="0.1" d="M92.69 108.31C97.33 105.1 101.78 101.04 103.33 95.25 104.1 92.31 103.95 89.19 102.51 86.48 99.44 80.79 92.78 80.26 86.95 80.1 78.17 79.81 69.2 79.52 60.75 81.96 56.07 83.28 51.49 85.55 46.4 84.71 44.54 84.46 43.04 82.98 42.72 81.01 42.29 77.9 45.31 76.33 47.97 75.42 62.29 70.69 77.3 68.3 91.71 63.76 106.12 59.22 120.39 52.12 129.86 40.13 135.71 32.64 139.49 22.93 137.83 13.53 137.1 9.29 135.26 5.36 133.25 1.63 130.08-4.35 126.27-10.13 121.02-14.27 111.26-21.9 98.12-22.96 85.92-23.18 72.61-23.47 59.32-22.82 46.14-21.32 36.83-20.28 27.44-18.68 18.83-14.91 10.04-11.05 1.94-4.84-2.6 3.85 -3.84 6.33-4.89 9.18-4.1 11.81 -3.51 13.87-2 15.45-0.22 16.73 6.53 21.6 15.39 21.23 23.6 20.68 32.37 20.13 41.13 19.47 49.8 18.92 64.47 17.96 79.7 17.08 93.12 23.04 94.89 23.85 96.66 24.76 97.71 26.34 99.71 29.42 98.41 33.6 96.06 36.38 92.37 40.9 86.5 43.09 80.78 43.59 75.06 44.08 69.32 43.26 63.58 42.53 56.35 41.63 49.04 41.03 41.74 40.8 37.67 40.7 33.51 40.59 29.56 41.71 26.16 42.63 22.51 44.88 22.78 48.84 22.9 50.54 23.76 52.03 24.99 53.14 27.62 55.54 31.23 55.84 34.65 55.96 47.59 56.36 60.58 54.3 73.44 55.35 74.36 55.43 75.47 55.6 75.95 56.53 76.24 57.18 76.07 57.94 75.81 58.52 73.42 63.95 66.22 64.28 60.41 64.78 51.93 65.43 43.48 67.96 36.08 72.17 31.33 74.82 26.35 79.92 29.41 85.24 30.37 87.02 32.06 88.31 34.01 88.93 43.12 91.86 52.69 89.68 62.02 90.15 63.5 90.21 64.99 90.37 66.47 90.53 71 91.1 71.32 97.7 66.91 98.83 51.38 102.92 34.76 103.55 18.95 107.46 17.75 107.77 16.66 108.64 16.23 109.88 15.17 112.64 18.26 114.56 20.77 115.45 44.96 124.11 71.09 123.39 92.69 108.31Z" fill="white"/><path d="M68.7 36.93C69.2 36.93 69.2 36.12 68.7 36.12 68.2 36.22 68.2 36.93 68.7 36.93Z" fill="white"/><path d="M39.78 76.33C44.66 64.83 39.45 51.49 28.14 46.53 16.83 41.56 3.71 46.87-1.17 58.37 -6.05 69.87-0.83 83.21 10.48 88.17 21.78 93.13 34.91 87.83 39.78 76.33Z" fill="url(#paint4_radial)"/><path d="M6 83.51C-3.9 83.51-11.3 80.76-12.5 75.78 -13.3 72.22-10.9 68.05-5.5 64.08 -0.2 60.22 7.3 56.86 15.6 54.83 32.8 50.66 48.2 53.2 49.9 60.53 50.7 64.08 48.3 68.25 42.9 72.22 37.6 76.08 30.1 79.44 21.8 81.47 16.2 82.9 10.8 83.51 6 83.51ZM31.6 53.41C26.8 53.41 21.3 54.02 15.7 55.44 7.5 57.47 0 60.73-5.2 64.59 -10.4 68.46-12.8 72.42-12 75.78 -10.3 82.8 4.8 85.24 21.7 81.07 29.9 79.03 37.4 75.78 42.6 71.92 47.8 68.05 50.2 64.08 49.4 60.73 48.3 55.95 41.2 53.41 31.6 53.41Z" fill="white"/><path fill-rule="evenodd" clip-rule="evenodd" d="M69.75 28.02C65.54 30.71 60.01 29.36 57.37 25.08 54.72 20.8 56.04 15.18 60.25 12.49 64.46 9.8 69.99 11.15 72.63 15.42 75.28 19.83 73.96 25.45 69.75 28.02Z" fill="url(#paint5_radial)"/><path d="M74.13 27.37C73.32 27.37 72.28 27.13 71.36 26.89 69.05 26.18 66.27 24.86 63.38 23.18 58.18 20.07 53.1 15.76 54.14 13.85 54.6 13.01 55.99 12.89 58.18 13.61L58.07 14.21C56.22 13.73 54.95 13.73 54.71 14.21 54.14 15.28 57.6 19.11 63.73 22.7 66.5 24.38 69.28 25.7 71.59 26.3 74.02 27.01 75.17 26.77 75.4 26.42 75.63 25.94 75.29 24.86 73.44 23.06L73.78 22.58C75.06 23.9 76.44 25.58 75.86 26.65 75.52 27.25 74.94 27.37 74.13 27.37Z" fill="white"/></g></svg>