<svg width="100" height="100" viewBox="0 0 100 100" fill="none" xmlns="http://www.w3.org/2000/svg"><path d="M19.9181 26.5789L19.9196 26.5803C22.3963 28.88 25.7366 30.3051 29.4 30.3051H48.9647L25.7142 75.7224C24.4257 78.1284 23.9 80.7346 23.9 83.4068 23.9 86.5709 24.9711 89.6646 27.1535 92.0048 29.2638 94.4781 32.4411 95.8912 36.171 95.9996L36.1855 96H36.2C40.887 96 45.2989 93.3426 47.8613 88.9997L47.8732 88.9794 47.8842 88.9586 81.8598 24.6319C83.249 22.5501 84 20.2346 84 17.5085 84 13.9914 82.4966 10.3838 80.113 7.95987L80.1052 7.95194 80.0973 7.9442C77.6263 5.54065 74.1816 4 70.6 4H29.4C25.643 4 22.2826 5.42191 19.887 7.85818 17.5095 10.276 16 13.7795 16 17.3051 16 20.9169 17.3 24.1383 19.9181 26.5789Z" fill="url(#paint0_linear)" stroke="white" stroke-width="2"/><mask id="mask0" mask-type="alpha" maskUnits="userSpaceOnUse" x="17" y="5" width="66" height="90"><path d="M27.9 91.339C25.9 89.2034 24.9 86.3559 24.9 83.4068 24.9 80.8644 25.4 78.4237 26.6 76.1864L50.6 29.3051H29.4C26 29.3051 22.9 27.9831 20.6 25.8475 18.2 23.6102 17 20.661 17 17.3051 17 14.0508 18.4 10.7966 20.6 8.55932 22.8 6.32203 25.9 5 29.4 5H70.6C73.9 5 77.1 6.42372 79.4 8.66101 81.6 10.8983 83 14.2542 83 17.5085 83 20.0508 82.3 22.1864 81 24.1186L47 88.4915C44.6 92.5593 40.5 95 36.2 95 32.7 94.8983 29.8 93.5763 27.9 91.339Z" fill="url(#paint1_linear)"/></mask><g mask="url(#mask0)"><path fill-rule="evenodd" clip-rule="evenodd" d="M37.377 88.5928L39.1771 89.6098 37.2771 90.6267 36.2771 92.4573 35.2771 90.5251 33.4771 89.5081 35.377 88.4912 36.377 86.6606 37.377 88.5928Z" fill="white"/><path fill-rule="evenodd" clip-rule="evenodd" d="M52.4 69.2711L53.5 69.8813 52.4 70.4915 51.7 71.6101 51.1 70.4915 50 69.7796 51.2 69.2711 51.8 68.0508 52.4 69.2711Z" fill="white"/><path fill-rule="evenodd" clip-rule="evenodd" d="M77.3 13.339L78.4 13.9491 77.3 14.5593 76.7 15.678 76.1 14.5593 75 13.8475 76.1 13.2373 76.7 12.1187 77.3 13.339Z" fill="white"/><path fill-rule="evenodd" clip-rule="evenodd" d="M32.3 10.288L33.4 10.8981 32.3 11.5083 31.6 12.6269 31.1 11.5083 30 10.7964 31.1 10.288 31.7 9.06763 32.3 10.288Z" fill="white"/><path d="M63.3385 32.2542C63.8385 32.2542 63.8385 31.4407 63.3385 31.4407 62.9385 31.4407 62.8385 32.2542 63.3385 32.2542Z" fill="white" fill-opacity="0.5"/><path d="M68.2004 19.6441C68.7004 19.6441 68.7004 18.8306 68.2004 18.8306 67.8004 18.9323 67.8004 19.6441 68.2004 19.6441Z" fill="white"/><path d="M70.2998 10.7965C70.7998 10.7965 70.7998 9.98291 70.2998 9.98291 69.7998 9.98291 69.7998 10.7965 70.2998 10.7965Z" fill="white"/><path d="M27.5996 11.6099C28.0996 11.6099 28.0996 10.7964 27.5996 10.7964 27.0996 10.8981 27.0996 11.6099 27.5996 11.6099Z" fill="white" fill-opacity="0.5"/><path d="M58.2998 36.5252C58.7998 36.5252 58.7998 35.7117 58.2998 35.7117 57.7998 35.7117 57.7998 36.5252 58.2998 36.5252Z" fill="white" fill-opacity="0.5"/><path d="M73.375 9.88117C73.875 9.88117 73.875 9.06763 73.375 9.06763 72.875 9.06763 72.875 9.88117 73.375 9.88117Z" fill="white"/><path d="M51.7002 63.983C52.2002 63.983 52.2002 63.1694 51.7002 63.1694 51.2002 63.1694 51.2002 63.983 51.7002 63.983Z" fill="white"/><path d="M34.2429 24.7796C34.7429 24.7796 34.7429 23.9661 34.2429 23.9661 33.7429 23.9661 33.7429 24.7796 34.2429 24.7796Z" fill="white"/><path d="M24.9451 23.9662C25.4451 23.9662 25.4451 23.1526 24.9451 23.1526 24.4451 23.1526 24.4451 23.9662 24.9451 23.9662Z" fill="white"/><path d="M38.9004 77.7118C39.4004 77.7118 39.4004 76.8982 38.9004 76.8982 38.4004 76.9999 38.4004 77.7118 38.9004 77.7118Z" fill="white"/><path d="M31.9004 76.9998C32.4004 76.9998 32.4004 76.1863 31.9004 76.1863 31.4004 76.1863 31.4004 76.9998 31.9004 76.9998Z" fill="white"/><path d="M41.9004 84.627C42.4004 84.627 42.4004 83.8135 41.9004 83.8135 41.4004 83.8135 41.4004 84.627 41.9004 84.627Z" fill="white"/><path d="M31.3 84.627C31.8 84.627 31.8 83.8135 31.3 83.8135 30.9 83.8135 30.9 84.627 31.3 84.627Z" fill="white"/><path d="M37.5996 66.9322C38.0996 66.9322 38.0996 66.1187 37.5996 66.1187 37.0996 66.1187 37.0996 66.9322 37.5996 66.9322Z" fill="white"/><path d="M38.4004 57.1695C38.9004 57.1695 38.9004 56.356 38.4004 56.356 37.9004 56.4577 37.9004 57.1695 38.4004 57.1695Z" fill="white"/><path d="M75.375 16.9998C75.875 16.9998 75.875 16.1863 75.375 16.1863 74.875 16.1863 74.875 16.9998 75.375 16.9998Z" fill="white"/><path d="M50.375 72.9322C50.875 72.9322 50.875 72.1187 50.375 72.1187 49.875 72.1187 49.875 72.9322 50.375 72.9322Z" fill="white" fill-opacity="0.5"/><path d="M47.0996 52.5931C47.5996 52.5931 47.5996 51.7795 47.0996 51.7795 46.5996 51.7795 46.5996 52.5931 47.0996 52.5931Z" fill="white"/><path d="M68.7002 36.9322C69.2002 36.9322 69.2002 36.1187 68.7002 36.1187 68.2002 36.2203 68.2002 36.9322 68.7002 36.9322Z" fill="white"/></g><path fill-rule="evenodd" clip-rule="evenodd" d="M54.7489 24.6112C50.541 27.301 45.0106 25.9561 42.3656 21.6768 39.7206 17.3975 41.0431 11.7734 45.251 9.08356 49.459 6.39373 54.9894 7.73864 57.6344 12.0179 60.2794 16.4194 58.9569 22.0436 54.7489 24.6112Z" fill="url(#paint2_radial)"/><path d="M59.1313 23.966C58.3223 23.966 57.2821 23.7267 56.3574 23.4872 54.0459 22.769 51.272 21.4523 48.3826 19.7765 43.1816 16.6642 38.0962 12.355 39.1364 10.4398 39.5987 9.60184 40.9856 9.48214 43.1816 10.2004L43.066 10.7989C41.2168 10.3201 39.9454 10.3201 39.7143 10.7989 39.1364 11.8762 42.6038 15.7066 48.7294 19.2977 51.5032 20.9735 54.2771 22.2902 56.5886 22.8887 59.0157 23.6069 60.1715 23.3675 60.4027 23.0084 60.6338 22.5296 60.2871 21.4523 58.4379 19.6568L58.7846 19.178C60.0559 20.4947 61.4429 22.1705 60.865 23.2478 60.5183 23.8464 59.9404 23.966 59.1313 23.966Z" fill="white"/><path opacity="0.2" d="M65.1254 62.4827C70.3065 62.4827 74.5067 58.121 74.5067 52.7406 74.5067 47.3602 70.3065 42.9985 65.1254 42.9985 59.9443 42.9985 55.7441 47.3602 55.7441 52.7406 55.7441 58.121 59.9443 62.4827 65.1254 62.4827Z" fill="url(#paint3_radial)"/><path d="M65.1255 60.3177C69.111 60.3177 72.3419 56.9253 72.3419 52.7405 72.3419 48.5557 69.111 45.1633 65.1255 45.1633 61.1401 45.1633 57.9092 48.5557 57.9092 52.7405 57.9092 56.9253 61.1401 60.3177 65.1255 60.3177Z" fill="url(#paint4_radial)"/><path d="M39.5427 72.6759C42.0363 66.7974 39.3718 59.9762 33.5913 57.4403 27.8108 54.9044 21.1033 57.6141 18.6096 63.4925 16.116 69.371 18.7805 76.1922 24.561 78.7281 30.3415 81.264 37.049 78.5543 39.5427 72.6759Z" fill="url(#paint5_radial)"/><path d="M12.6211 72.7486C12.186 70.7705 13.499 68.5259 16.2689 66.4472 16.7595 66.0817 17.2867 65.7248 17.845 65.3798L18.0403 65.2591 17.8192 66.2218C17.4126 66.4854 17.0265 66.7556 16.663 67.0316 15.3488 68.0295 14.4 69.0321 13.8305 69.9906 13.2617 70.9477 13.0773 71.8491 13.2663 72.6598 13.4675 73.5077 14.0678 74.2342 15.0166 74.8154 15.9665 75.3974 17.2534 75.8252 18.7941 76.0745 21.8746 76.573 25.9294 76.3514 30.2219 75.2693 34.3889 74.2132 38.1897 72.5256 40.8164 70.5312 42.1306 69.5332 43.0794 68.5306 43.6489 67.5722 44.2178 66.6149 44.4021 65.7133 44.213 64.9026L44.2126 64.9011C44.0079 63.9923 43.3618 63.2331 42.3353 62.6419 41.3431 62.0704 40.0087 61.6646 38.4208 61.441L37.8461 60.6726 38.0422 60.6963C39.8742 60.9182 41.4454 61.3683 42.6241 62.035 43.8035 62.7021 44.6056 63.5962 44.858 64.7068L44.8583 64.7081C45.2934 66.6862 43.9804 68.9308 41.2105 71.0095 38.4805 73.0434 34.6271 74.8034 30.3713 75.8691 27.497 76.6157 24.7245 76.9359 22.2581 76.9359 19.7158 76.9359 17.4803 76.5761 15.7958 75.8801 14.1142 75.1852 12.9489 74.1395 12.6218 72.7515L12.6211 72.7486Z" fill="white"/><defs><linearGradient id="paint0_linear" x1="52.9188" y1="78.803" x2="48.2012" y2="-15.2415" gradientUnits="userSpaceOnUse"><stop stop-color="#3C0289"/><stop offset="0.4887" stop-color="#4172DA"/><stop offset="0.9363" stop-color="#80C3FF"/></linearGradient><linearGradient id="paint1_linear" x1="52.9188" y1="78.803" x2="48.2012" y2="-15.2415" gradientUnits="userSpaceOnUse"><stop stop-color="#3C0289"/><stop offset="0.4887" stop-color="#4172DA"/><stop offset="0.9363" stop-color="#80C3FF"/></linearGradient><radialGradient id="paint2_radial" cx="0" cy="0" r="1" gradientUnits="userSpaceOnUse" gradientTransform="translate(44 21.9321) rotate(-39.8737) scale(18.242 18.2992)"><stop offset="0.581156" stop-color="#4172DA"/><stop offset="1" stop-color="#8BECEF"/></radialGradient><radialGradient id="paint3_radial" cx="0" cy="0" r="1" gradientUnits="userSpaceOnUse" gradientTransform="translate(66.5199 44.9733) rotate(116.428) scale(11.3935 11.142)"><stop stop-color="#EFC0D5"/><stop offset="1" stop-color="#C74ECE"/></radialGradient><radialGradient id="paint4_radial" cx="0" cy="0" r="1" gradientUnits="userSpaceOnUse" gradientTransform="translate(61.4538 59.5202) rotate(-66.1082) scale(15.6296 15.1356)"><stop offset="0.703596" stop-color="#C74ECE"/><stop offset="1" stop-color="#EFC0D5"/></radialGradient><radialGradient id="paint5_radial" cx="0" cy="0" r="1" gradientUnits="userSpaceOnUse" gradientTransform="translate(25.5957 78.1296) rotate(-41.3255) scale(19.7395 19.9408)"><stop offset="0.656483" stop-color="#E78EB6"/><stop offset="1" stop-color="#EFC0D5"/></radialGradient></defs></svg>