<svg width="100" height="100" viewBox="0 0 100 100" fill="none" xmlns="http://www.w3.org/2000/svg"><path d="M31.0592 11.3527L31.0512 11.3601 31.0434 11.3677C26.0384 16.2416 23.0162 22.9839 23.0162 30.5426 23.0162 35.0462 24.3116 39.0234 26.8968 42.5241 21.2992 48.1668 18 55.1766 18 63.1693 18 71.829 21.5261 79.7635 27.4243 85.6294 33.3273 91.5002 41.301 94.897 49.8877 94.9999V95H49.8997C58.4882 95 66.668 91.6046 72.5757 85.7292 78.4739 79.8633 82 71.9288 82 63.269 82 54.884 78.5076 47.6657 72.6111 42.0037 75.0872 38.5899 76.2815 34.65 76.2815 30.5426 76.2815 22.8972 73.3683 16.142 68.2391 11.3531L68.2386 11.3527C63.2423 6.69421 56.6797 4 49.5987 4 42.5137 4 36.0524 6.69705 31.0592 11.3527ZM50.1555 68.8558L50.1279 68.8543H50.1003C46.6149 68.8543 44.178 66.4838 44.178 63.0695 44.178 61.5654 44.7563 60.194 45.9384 58.8375 47.0492 57.5627 48.3776 56.9854 50 56.9854 51.6175 56.9854 52.9706 57.5616 54.1985 58.7777 55.442 60.108 56.0227 61.5618 56.0227 63.0695 56.0227 64.7916 55.4329 66.1199 54.2374 67.2239 52.9886 68.3772 51.6377 68.9377 50.1555 68.8558ZM46.8546 31.2941L46.8371 31.2784 46.8189 31.2636C45.964 30.5679 45.5825 29.6633 45.5825 28.6469 45.5825 27.5682 46.0379 26.6142 46.8929 25.764 47.7181 24.9433 48.672 24.5583 49.699 24.5583 50.8371 24.5583 51.7881 24.951 52.6055 25.764 53.4228 26.5768 53.8155 27.52 53.8155 28.6469 53.8155 30.7383 51.9146 32.517 49.7358 32.4368L49.7174 32.4361H49.699C48.6649 32.4361 47.6932 32.0447 46.8546 31.2941Z" fill="url(#paint0_linear)" stroke="white" stroke-width="2"/><mask id="mask0" mask-type="alpha" maskUnits="userSpaceOnUse" x="19" y="5" width="62" height="89"><path d="M28.1295 84.9204C22.411 79.2332 19 71.5504 19 63.1693 19 55.1872 22.411 48.2029 28.2298 42.6155 25.4207 39.1233 24.0162 35.1323 24.0162 30.5426 24.0162 23.259 26.9256 16.7735 31.7411 12.0841 36.5566 7.59418 42.7767 5 49.5987 5 56.4207 5 62.7411 7.59418 67.5566 12.0841 72.4725 16.6738 75.2815 23.1592 75.2815 30.5426 75.2815 34.7332 73.9773 38.7242 71.2686 42.1166 77.3883 47.704 81 54.8879 81 63.269 81 71.6502 77.589 79.333 71.8705 85.0202 66.1521 90.7074 58.2265 94 49.8997 94 41.5728 93.9002 33.8479 90.6076 28.1295 84.9204ZM54.9159 67.9585C56.3204 66.6614 57.0227 65.065 57.0227 63.0695 57.0227 61.2735 56.3204 59.5774 54.9159 58.0807 53.5113 56.6839 51.9062 55.9854 50 55.9854 48.0939 55.9854 46.4887 56.6838 45.1845 58.1805 43.8803 59.6771 43.178 61.2735 43.178 63.0695 43.178 67.0605 46.0874 69.8543 50.1003 69.8543 51.9061 69.954 53.5113 69.2556 54.9159 67.9585ZM54.8155 28.6469C54.8155 27.25 54.3139 26.0527 53.3107 25.0549 52.3074 24.0572 51.1036 23.5583 49.699 23.5583 48.3948 23.5583 47.1909 24.0572 46.1877 25.0549 45.1845 26.0527 44.5825 27.25 44.5825 28.6469 44.5825 29.9439 45.0841 31.1413 46.1877 32.0392 47.1909 32.9372 48.3948 33.4361 49.699 33.4361 52.4078 33.5359 54.8155 31.3408 54.8155 28.6469Z" fill="url(#paint1_linear)"/></mask><g mask="url(#mask0)"><path fill-rule="evenodd" clip-rule="evenodd" d="M53.9125 15.8757L55.4173 16.7737 53.8121 17.5719 52.9092 19.1683 52.1066 17.5719 50.5015 16.6739 52.1066 15.8757 53.0096 14.2793 53.9125 15.8757Z" fill="white"/><path fill-rule="evenodd" clip-rule="evenodd" d="M72.8492 58.9545L73.9527 59.6529 72.7488 60.2515 72.1469 61.3491 71.5449 60.1518 70.4414 59.5531 71.5449 58.9545 72.2472 57.8569 72.8492 58.9545Z" fill="white"/><path fill-rule="evenodd" clip-rule="evenodd" d="M38.3623 42.6155L39.4659 43.2142 38.3623 43.8128 37.6601 44.9104 37.0581 43.8128 35.9546 43.2142 37.1585 42.6155 37.7604 41.4182 38.3623 42.6155Z" fill="white"/><path d="M30.738 36.6288C31.2396 36.6288 31.2396 35.8306 30.738 35.8306 30.2364 35.9303 30.2364 36.6288 30.738 36.6288Z" fill="white"/><path d="M68.8611 23.6581C69.3627 23.6581 69.3627 22.8599 68.8611 22.8599 68.3595 22.9596 68.3595 23.6581 68.8611 23.6581Z" fill="white"/><path d="M65.8762 28.9417C66.3778 28.9417 66.3778 28.1436 65.8762 28.1436 65.3746 28.1436 65.3746 28.9417 65.8762 28.9417Z" fill="white"/><path d="M46.1877 9.68932C46.6894 9.68932 46.6894 8.89111 46.1877 8.89111 45.6861 8.99089 45.6861 9.68932 46.1877 9.68932Z" fill="white"/><path d="M66.2527 52.8924C66.7543 52.8924 66.7543 52.0942 66.2527 52.0942 65.7511 52.194 65.7511 52.8924 66.2527 52.8924Z" fill="white"/><path d="M33.7478 51.5951C34.2494 51.5951 34.2494 50.7969 33.7478 50.7969 33.2462 50.8967 33.2462 51.5951 33.7478 51.5951Z" fill="white"/><path d="M26.5764 54.642C27.078 54.642 27.078 53.8438 26.5764 53.8438 26.0748 53.9435 26.0748 54.642 26.5764 54.642Z" fill="white"/><path d="M55.5178 12.982C56.0194 12.982 56.0194 12.1838 55.5178 12.1838 55.0162 12.2836 55.0162 12.982 55.5178 12.982Z" fill="white"/><path d="M59.2297 23.6581C59.7313 23.6581 59.7313 22.8599 59.2297 22.8599 58.7281 22.9596 58.7281 23.6581 59.2297 23.6581Z" fill="white"/><path d="M51.8059 48.3028C52.3075 48.3028 52.3075 47.5046 51.8059 47.5046 51.3043 47.5046 51.3043 48.3028 51.8059 48.3028Z" fill="white"/><path d="M73.5759 68.8565C74.0775 68.8565 74.0775 68.0583 73.5759 68.0583 73.0743 68.1581 73.0743 68.8565 73.5759 68.8565Z" fill="white"/><path d="M39.4661 33.9349C39.9677 33.9349 39.9677 33.1367 39.4661 33.1367 38.9644 33.2365 38.9644 33.9349 39.4661 33.9349Z" fill="white"/><path d="M41.7737 12.3834C42.2753 12.3834 42.2753 11.5852 41.7737 11.5852 41.2721 11.5852 41.2721 12.3834 41.7737 12.3834Z" fill="white"/><path fill-rule="evenodd" clip-rule="evenodd" d="M50.903 88.1132C50.5017 89.3106 48.4953 89.7097 46.3885 89.0112 44.2817 88.3128 42.8771 86.8162 43.2784 85.6188 43.6797 84.4215 45.6862 84.0224 47.793 84.7209 50.0001 85.4193 51.3043 87.0157 50.903 88.1132Z" fill="white"/><path fill-rule="evenodd" clip-rule="evenodd" d="M36.1554 68.0582L26.725 71.3508C26.2234 69.8542 27.0259 68.2578 28.5308 67.7589L32.5437 66.362C34.0486 65.7634 35.6538 66.5616 36.1554 68.0582Z" fill="url(#paint2_linear)"/><path fill-rule="evenodd" clip-rule="evenodd" d="M70.9678 83.8229L64.2461 76.4395C65.45 75.342 67.2558 75.4417 68.259 76.639L71.1684 79.8319C72.1717 80.9294 72.0713 82.7254 70.9678 83.8229Z" fill="url(#paint3_linear)"/><path fill-rule="evenodd" clip-rule="evenodd" d="M55.3171 69.7544L45.4854 67.8586C45.7863 66.362 47.2912 65.2645 48.796 65.5638L53.0096 66.362C54.5145 66.7611 55.5177 68.2577 55.3171 69.7544Z" fill="url(#paint4_linear)"/><path fill-rule="evenodd" clip-rule="evenodd" d="M35.4533 73.9451C35.8546 75.2422 33.7478 77.0382 30.7381 77.9361 27.7284 78.8341 25.0196 78.435 24.6183 77.1379 24.2171 75.8408 26.3239 74.0449 29.3336 73.1469 32.3433 72.2489 35.052 72.648 35.4533 73.9451Z" fill="white"/><path fill-rule="evenodd" clip-rule="evenodd" d="M29.5342 74.2444C32.2429 73.4462 34.751 73.7455 35.4533 74.7433 35.5536 74.444 35.5536 74.2444 35.4533 73.9451 35.052 72.648 32.3433 72.2489 29.3336 73.1469 26.3239 74.0449 24.2171 75.7411 24.6183 77.1379 24.6183 77.2377 24.7187 77.3375 24.819 77.537 25.2203 76.24 27.1264 74.9429 29.5342 74.2444Z" fill="#4172DA"/><path fill-rule="evenodd" clip-rule="evenodd" d="M67.958 84.4215C67.356 85.1199 65.5502 84.5213 64.0454 83.1244 62.5405 81.7275 61.7379 80.0314 62.4402 79.3329 63.0421 78.6345 64.8479 79.2331 66.3528 80.63 67.8577 82.0269 68.5599 83.7231 67.958 84.4215Z" fill="white"/><path fill-rule="evenodd" clip-rule="evenodd" d="M65.7508 81.1289C67.1554 82.426 67.8577 83.9227 67.5567 84.7209 67.7573 84.7209 67.8576 84.6211 67.958 84.5213 68.5599 83.8229 67.8576 82.1267 66.3528 80.7299 64.8479 79.333 63.0421 78.7343 62.4402 79.4328 62.3398 79.5326 62.3398 79.5325 62.3398 79.6323 63.1424 79.333 64.547 79.9316 65.7508 81.1289Z" fill="#4172DA"/><path fill-rule="evenodd" clip-rule="evenodd" d="M47.8932 84.7209C45.7864 84.0224 43.7799 84.4215 43.3787 85.6188 43.3787 85.7186 43.3786 85.8184 43.2783 85.9182 43.9806 85.0202 45.7864 84.8207 47.5922 85.4193 49.4984 86.018 50.9029 87.4148 50.7023 88.5124 50.8026 88.4126 50.8026 88.3128 50.9029 88.1132 51.3042 87.0157 50 85.4193 47.8932 84.7209Z" fill="#4172DA"/><path d="M67.8577 17.3722C68.3593 17.3722 68.3593 16.574 67.8577 16.574 67.356 16.574 67.356 17.3722 67.8577 17.3722Z" fill="white"/><path d="M73.2751 29.944C73.7768 29.944 73.7768 29.1458 73.2751 29.1458 72.7735 29.2455 72.7735 29.944 73.2751 29.944Z" fill="white"/><path d="M69.5632 32.3387C70.0648 32.3387 70.0648 31.5405 69.5632 31.5405 69.0616 31.5405 69.0616 32.3387 69.5632 32.3387Z" fill="white"/><path d="M38.1804 40.3444C38.682 40.3444 38.682 39.5461 38.1804 39.5461 37.6788 39.6459 37.6788 40.3444 38.1804 40.3444Z" fill="white"/><path d="M45.7864 41.6175C46.288 41.6175 46.288 40.8193 45.7864 40.8193 45.2848 40.9191 45.2848 41.6175 45.7864 41.6175Z" fill="white"/><path d="M20.8228 73.4974C22.6323 72.1694 24.5683 71.014 26.6032 70.0493 26.7494 69.0186 27.4634 68.1129 28.5305 67.7591L32.5435 66.3623C33.7115 65.8976 34.9399 66.2745 35.6659 67.1663 38.972 66.5882 42.407 66.4732 45.8841 66.878 46.4971 65.9216 47.6464 65.3355 48.7957 65.5641L53.0093 66.3623C54.3663 66.7221 55.3154 67.9744 55.3417 69.3144 59.1551 70.8811 62.5925 73.0758 65.5492 75.7485 66.5295 75.5202 67.5785 75.8274 68.2587 76.6392L71.1681 79.832C71.9225 80.6573 72.0529 81.8776 71.6019 82.8988 71.9059 83.3741 72.1986 83.8568 72.4794 84.3464 66.8312 90.2925 58.8485 93.9998 50.0001 93.9998 36.5641 93.9998 25.1245 85.4519 20.8228 73.4974Z" fill="url(#paint5_radial)"/><path fill-rule="evenodd" clip-rule="evenodd" d="M50.903 88.1132C50.5017 89.3106 48.4953 89.7097 46.3885 89.0112 44.2817 88.3128 42.8771 86.8162 43.2784 85.6188 43.6797 84.4215 45.6862 84.0224 47.793 84.7209 50.0001 85.4193 51.3043 87.0157 50.903 88.1132Z" fill="#5796E0"/><path fill-rule="evenodd" clip-rule="evenodd" d="M35.4533 73.9451C35.8546 75.2422 33.7478 77.0382 30.7381 77.9361 27.7284 78.8341 25.0196 78.435 24.6183 77.1379 24.2171 75.8408 26.3239 74.0449 29.3336 73.1469 32.3433 72.2489 35.052 72.648 35.4533 73.9451Z" fill="#60A5E3"/><path fill-rule="evenodd" clip-rule="evenodd" d="M29.5342 74.2444C32.2429 73.4462 34.751 73.7455 35.4533 74.7433 35.5536 74.444 35.5536 74.2444 35.4533 73.9451 35.052 72.648 32.3433 72.2489 29.3336 73.1469 26.3239 74.0449 24.2171 75.7411 24.6183 77.1379 24.6183 77.2377 24.7187 77.3375 24.819 77.537 25.2203 76.24 27.1264 74.9429 29.5342 74.2444Z" fill="#224FB0"/><path fill-rule="evenodd" clip-rule="evenodd" d="M67.958 84.4215C67.356 85.1199 65.5502 84.5213 64.0454 83.1244 62.5405 81.7275 61.7379 80.0314 62.4402 79.3329 63.0421 78.6345 64.8479 79.2331 66.3528 80.63 67.8577 82.0269 68.5599 83.7231 67.958 84.4215Z" fill="#77CAE9"/><path fill-rule="evenodd" clip-rule="evenodd" d="M65.7076 81.0647C67.1373 82.385 67.8522 83.9085 67.5458 84.721 67.7501 84.721 67.8522 84.6195 67.9543 84.5179 68.567 83.807 67.9128 82.0594 66.381 80.6375 64.8491 79.2156 63.0004 78.5823 62.3375 79.3381 62.3375 79.3381 62.2832 79.4628 62.2832 79.5644 63.1002 79.2597 64.4821 79.8459 65.7076 81.0647Z" fill="#224FB0"/><path fill-rule="evenodd" clip-rule="evenodd" d="M47.8932 84.7209C45.7864 84.0224 43.7799 84.4215 43.3787 85.6188 43.3787 85.7186 43.3786 85.8184 43.2783 85.9182 43.9806 85.0202 45.7864 84.8207 47.5922 85.4193 49.4984 86.018 50.9029 87.4148 50.7023 88.5124 50.8026 88.4126 50.8026 88.3128 50.9029 88.1132 51.3042 87.0157 50 85.4193 47.8932 84.7209Z" fill="#224FB0"/></g><path opacity="0.2" d="M40.7427 19.3332C39.8398 25.6191 34.1214 29.9095 27.801 29.1113 21.4806 28.2133 17.1667 22.5261 17.9693 16.2402 18.8722 9.95431 24.5907 5.66395 30.911 6.46215 37.2314 7.26036 41.6456 13.0474 40.7427 19.3332Z" fill="url(#paint6_linear)"/><path d="M37.9337 18.934C37.2315 23.6235 32.9176 26.9161 28.2023 26.3175 23.4871 25.619 20.1765 21.3287 20.7784 16.6392 21.4807 11.9497 25.7946 8.65715 30.5098 9.2558 35.3253 9.85446 38.636 14.2446 37.9337 18.934Z" fill="url(#paint7_radial)"/><path opacity="0.7" d="M37.8336 16.0405C37.9339 16.3398 37.9339 16.6391 37.9339 16.9385 41.3449 18.036 43.4517 19.2333 43.3514 20.2311 43.1507 21.9273 36.6297 22.5259 28.9048 21.4284 21.1798 20.3309 15.0601 18.1358 15.3611 16.3398 15.4614 15.3421 17.8692 14.7434 21.3805 14.5439 21.4808 14.2445 21.5811 13.9452 21.7818 13.7457 16.3643 13.6459 12.552 14.4441 12.3514 15.9407 12.0504 18.036 19.4743 20.8297 28.9048 22.1268 38.3352 23.4239 46.2607 22.7255 46.5617 20.6302 46.662 19.1335 43.1507 17.4374 37.8336 16.0405Z" fill="#8BECEF"/><path opacity="0.6" d="M38.0341 16.8388C38.0341 17.1381 38.0341 17.3377 38.0341 17.637 39.8399 18.3354 40.9435 19.1336 40.9435 19.8321 40.7428 21.2289 35.4257 21.7278 29.005 20.8298 22.5842 19.9318 17.5681 18.0361 17.7687 16.6392 17.8691 15.9408 19.0729 15.5417 21.0794 15.3422 21.1797 15.0428 21.1797 14.8433 21.2801 14.5439 17.7687 14.6437 15.361 15.2424 15.1603 16.3399 14.9597 18.1359 21.0794 20.3309 28.8043 21.4285 36.6296 22.526 43.1506 21.9273 43.3513 20.2312 43.5519 19.1336 41.4451 17.9363 38.0341 16.8388Z" fill="#8BECEF"/><defs><linearGradient id="paint0_linear" x1="46.697" y1="-27.0129" x2="51.1625" y2="93.7175" gradientUnits="userSpaceOnUse"><stop stop-color="#0C0F6C"/><stop offset="0.5891" stop-color="#3C0289"/><stop offset="1" stop-color="#8B46AB"/></linearGradient><linearGradient id="paint1_linear" x1="46.697" y1="-27.0129" x2="51.1625" y2="93.7175" gradientUnits="userSpaceOnUse"><stop stop-color="#0C0F6C"/><stop offset="0.5891" stop-color="#3C0289"/><stop offset="1" stop-color="#8B46AB"/></linearGradient><linearGradient id="paint2_linear" x1="8.82991" y1="101.072" x2="45.2757" y2="48.2979" gradientUnits="userSpaceOnUse"><stop stop-color="#4172DA"/><stop offset="0.8216" stop-color="#8BECEF"/></linearGradient><linearGradient id="paint3_linear" x1="38.6146" y1="121.636" x2="75.0581" y2="68.8656" gradientUnits="userSpaceOnUse"><stop stop-color="#4172DA"/><stop offset="0.8216" stop-color="#8BECEF"/></linearGradient><linearGradient id="paint4_linear" x1="21.5692" y1="109.87" x2="58.0149" y2="57.0954" gradientUnits="userSpaceOnUse"><stop stop-color="#4172DA"/><stop offset="0.8216" stop-color="#8BECEF"/></linearGradient><radialGradient id="paint5_radial" cx="0" cy="0" r="1" gradientUnits="userSpaceOnUse" gradientTransform="translate(28.7149 125.071) rotate(-66.4319) scale(73.9575 74.2341)"><stop offset="0.672008" stop-color="#4172DA"/><stop offset="0.8216" stop-color="#8BECEF"/></radialGradient><linearGradient id="paint6_linear" x1="23.6104" y1="45.988" x2="31.9819" y2="4.59272" gradientUnits="userSpaceOnUse"><stop offset="0.1308" stop-color="#C74ECE"/><stop offset="1" stop-color="#EFC0D5"/></linearGradient><radialGradient id="paint7_radial" cx="0" cy="0" r="1" gradientUnits="userSpaceOnUse" gradientTransform="translate(22.695 25.105) rotate(-48.2977) scale(21.3223 21.336)"><stop offset="0.504344" stop-color="#C74ECE"/><stop offset="1" stop-color="#EFC0D5"/></radialGradient></defs></svg>