<svg width="100" height="100" viewBox="0 0 100 100" fill="none" xmlns="http://www.w3.org/2000/svg"><defs><linearGradient id="paint0_linear" x1="46.7" y1="-27.01" x2="51.16" y2="93.72" gradientUnits="userSpaceOnUse"><stop stop-color="#0C0F6C"/><stop offset="0.59" stop-color="#3C0289"/><stop offset="1" stop-color="#8B46AB"/></linearGradient><linearGradient id="paint1_linear" x1="46.7" y1="-27.01" x2="51.16" y2="93.72" gradientUnits="userSpaceOnUse"><stop stop-color="#0C0F6C"/><stop offset="0.59" stop-color="#3C0289"/><stop offset="1" stop-color="#8B46AB"/></linearGradient><linearGradient id="paint2_linear" x1="24.14" y1="45.72" x2="32.51" y2="4.33" gradientUnits="userSpaceOnUse"><stop offset="0.13" stop-color="#C74ECE"/><stop offset="1" stop-color="#EFC0D5"/></linearGradient><linearGradient id="paint3_linear" x1="28.78" y1="114.85" x2="65.22" y2="62.07" gradientUnits="userSpaceOnUse"><stop stop-color="#4172DA"/><stop offset="0.82" stop-color="#8BECEF"/></linearGradient><linearGradient id="paint4_linear" x1="2.56" y1="96.74" x2="39" y2="43.97" gradientUnits="userSpaceOnUse"><stop stop-color="#4172DA"/><stop offset="0.82" stop-color="#8BECEF"/></linearGradient><linearGradient id="paint5_linear" x1="48.81" y1="128.68" x2="85.26" y2="75.91" gradientUnits="userSpaceOnUse"><stop stop-color="#4172DA"/><stop offset="0.82" stop-color="#8BECEF"/></linearGradient><linearGradient id="paint6_linear" x1="8.83" y1="101.07" x2="45.28" y2="48.3" gradientUnits="userSpaceOnUse"><stop stop-color="#4172DA"/><stop offset="0.82" stop-color="#8BECEF"/></linearGradient><linearGradient id="paint7_linear" x1="38.61" y1="121.64" x2="75.06" y2="68.87" gradientUnits="userSpaceOnUse"><stop stop-color="#4172DA"/><stop offset="0.82" stop-color="#8BECEF"/></linearGradient><linearGradient id="paint8_linear" x1="21.57" y1="109.87" x2="58.01" y2="57.1" gradientUnits="userSpaceOnUse"><stop stop-color="#4172DA"/><stop offset="0.82" stop-color="#8BECEF"/></linearGradient><radialGradient id="paint9_radial" cx="0" cy="0" r="1" gradientUnits="userSpaceOnUse" gradientTransform="translate(28.7149 125.071) rotate(-66.4319) scale(73.9575 74.2341)"><stop offset="0.67" stop-color="#4172DA"/><stop offset="0.82" stop-color="#8BECEF"/></radialGradient><radialGradient id="paint10_radial" cx="0" cy="0" r="1" gradientUnits="userSpaceOnUse" gradientTransform="translate(23.224 24.8403) rotate(-48.2977) scale(21.3223 21.336)"><stop offset="0.5" stop-color="#C74ECE"/><stop offset="1" stop-color="#EFC0D5"/></radialGradient></defs><path d="M31.06 11.35L31.05 11.36 31.04 11.37C26.04 16.24 23.02 22.98 23.02 30.54 23.02 35.05 24.31 39.02 26.9 42.52 21.3 48.17 18 55.18 18 63.17 18 71.83 21.53 79.76 27.42 85.63 33.33 91.5 41.3 94.9 49.89 95V95H49.9C58.49 95 66.67 91.6 72.58 85.73 78.47 79.86 82 71.93 82 63.27 82 54.88 78.51 47.67 72.61 42 75.09 38.59 76.28 34.65 76.28 30.54 76.28 22.9 73.37 16.14 68.24 11.35L68.24 11.35C63.24 6.69 56.68 4 49.6 4 42.51 4 36.05 6.7 31.06 11.35ZM50.16 68.86L50.13 68.85H50.1C46.61 68.85 44.18 66.48 44.18 63.07 44.18 61.57 44.76 60.19 45.94 58.84 47.05 57.56 48.38 56.99 50 56.99 51.62 56.99 52.97 57.56 54.2 58.78 55.44 60.11 56.02 61.56 56.02 63.07 56.02 64.79 55.43 66.12 54.24 67.22 52.99 68.38 51.64 68.94 50.16 68.86ZM46.85 31.29L46.84 31.28 46.82 31.26C45.96 30.57 45.58 29.66 45.58 28.65 45.58 27.57 46.04 26.61 46.89 25.76 47.72 24.94 48.67 24.56 49.7 24.56 50.84 24.56 51.79 24.95 52.61 25.76 53.42 26.58 53.82 27.52 53.82 28.65 53.82 30.74 51.91 32.52 49.74 32.44L49.72 32.44H49.7C48.66 32.44 47.69 32.04 46.85 31.29Z" fill="url(#paint0_linear)" stroke="white" stroke-width="2"/><mask id="mask0" mask-type="alpha" maskUnits="userSpaceOnUse" x="19" y="5" width="62" height="89"><path d="M28.13 84.92C22.41 79.23 19 71.55 19 63.17 19 55.19 22.41 48.2 28.23 42.62 25.42 39.12 24.02 35.13 24.02 30.54 24.02 23.26 26.93 16.77 31.74 12.08 36.56 7.59 42.78 5 49.6 5 56.42 5 62.74 7.59 67.56 12.08 72.47 16.67 75.28 23.16 75.28 30.54 75.28 34.73 73.98 38.72 71.27 42.12 77.39 47.7 81 54.89 81 63.27 81 71.65 77.59 79.33 71.87 85.02 66.15 90.71 58.23 94 49.9 94 41.57 93.9 33.85 90.61 28.13 84.92ZM54.92 67.96C56.32 66.66 57.02 65.07 57.02 63.07 57.02 61.27 56.32 59.58 54.92 58.08 53.51 56.68 51.91 55.99 50 55.99 48.09 55.99 46.49 56.68 45.18 58.18 43.88 59.68 43.18 61.27 43.18 63.07 43.18 67.06 46.09 69.85 50.1 69.85 51.91 69.95 53.51 69.26 54.92 67.96ZM54.82 28.65C54.82 27.25 54.31 26.05 53.31 25.05 52.31 24.06 51.1 23.56 49.7 23.56 48.39 23.56 47.19 24.06 46.19 25.05 45.18 26.05 44.58 27.25 44.58 28.65 44.58 29.94 45.08 31.14 46.19 32.04 47.19 32.94 48.39 33.44 49.7 33.44 52.41 33.54 54.82 31.34 54.82 28.65Z" fill="url(#paint1_linear)"/></mask><g mask="url(#mask0)"><path fill-rule="evenodd" clip-rule="evenodd" d="M53.91 15.88L55.42 16.77 53.81 17.57 52.91 19.17 52.11 17.57 50.5 16.67 52.11 15.88 53.01 14.28 53.91 15.88Z" fill="white"/><path fill-rule="evenodd" clip-rule="evenodd" d="M72.85 58.95L73.95 59.65 72.75 60.25 72.15 61.35 71.54 60.15 70.44 59.55 71.54 58.95 72.25 57.86 72.85 58.95Z" fill="white"/><path fill-rule="evenodd" clip-rule="evenodd" d="M38.36 42.62L39.47 43.21 38.36 43.81 37.66 44.91 37.06 43.81 35.95 43.21 37.16 42.62 37.76 41.42 38.36 42.62Z" fill="white"/><path d="M30.74 36.63C31.24 36.63 31.24 35.83 30.74 35.83 30.24 35.93 30.24 36.63 30.74 36.63Z" fill="white"/><path d="M33.15 24.96C33.65 24.96 33.65 24.16 33.15 24.16 32.64 24.26 32.64 24.96 33.15 24.96Z" fill="white"/><path d="M68.86 23.66C69.36 23.66 69.36 22.86 68.86 22.86 68.36 22.96 68.36 23.66 68.86 23.66Z" fill="white"/><path d="M65.88 28.94C66.38 28.94 66.38 28.14 65.88 28.14 65.37 28.14 65.37 28.94 65.88 28.94Z" fill="white"/><path d="M46.19 9.69C46.69 9.69 46.69 8.89 46.19 8.89 45.69 8.99 45.69 9.69 46.19 9.69Z" fill="white"/><path d="M66.25 52.89C66.75 52.89 66.75 52.09 66.25 52.09 65.75 52.19 65.75 52.89 66.25 52.89Z" fill="white"/><path d="M33.75 51.6C34.25 51.6 34.25 50.8 33.75 50.8 33.25 50.9 33.25 51.6 33.75 51.6Z" fill="white"/><path d="M26.58 54.64C27.08 54.64 27.08 53.84 26.58 53.84 26.07 53.94 26.07 54.64 26.58 54.64Z" fill="white"/><path opacity="0.2" d="M41.27 19.07C40.37 25.35 34.65 29.64 28.33 28.85 22.01 27.95 17.7 22.26 18.5 15.98 19.4 9.69 25.12 5.4 31.44 6.2 37.76 7 42.17 12.78 41.27 19.07Z" fill="url(#paint2_linear)"/><path d="M40.47 21.66C40.97 21.66 40.97 20.86 40.47 20.86 39.97 20.96 39.97 21.66 40.47 21.66Z" fill="white"/><path d="M34.15 17.37C34.65 17.37 34.65 16.57 34.15 16.57 33.65 16.57 33.65 17.37 34.15 17.37Z" fill="white"/><path d="M55.52 12.98C56.02 12.98 56.02 12.18 55.52 12.18 55.02 12.28 55.02 12.98 55.52 12.98Z" fill="white"/><path d="M59.23 23.66C59.73 23.66 59.73 22.86 59.23 22.86 58.73 22.96 58.73 23.66 59.23 23.66Z" fill="white"/><path d="M51.81 48.3C52.31 48.3 52.31 47.5 51.81 47.5 51.3 47.5 51.3 48.3 51.81 48.3Z" fill="white"/><path d="M73.58 68.86C74.08 68.86 74.08 68.06 73.58 68.06 73.07 68.16 73.07 68.86 73.58 68.86Z" fill="white"/><path d="M61.54 83.22C62.04 83.22 62.04 82.43 61.54 82.43 61.04 82.43 61.04 83.22 61.54 83.22Z" fill="white"/><path d="M43.18 84.52C43.68 84.52 43.68 83.72 43.18 83.72 42.68 83.82 42.68 84.52 43.18 84.52Z" fill="white"/><path d="M43.18 77.54C43.68 77.54 43.68 76.74 43.18 76.74 42.68 76.84 42.68 77.54 43.18 77.54Z" fill="white"/><path d="M31.14 77.54C31.64 77.54 31.64 76.74 31.14 76.74 30.64 76.84 30.64 77.54 31.14 77.54Z" fill="white"/><path d="M39.47 33.93C39.97 33.93 39.97 33.14 39.47 33.14 38.96 33.24 38.96 33.93 39.47 33.93Z" fill="white"/><path d="M41.77 12.38C42.28 12.38 42.28 11.59 41.77 11.59 41.27 11.59 41.27 12.38 41.77 12.38Z" fill="white"/><path opacity="0.1" d="M90.72 76.96C92.42 71.07 93.43 64.79 90.82 59 89.51 56.11 87.21 53.61 84.2 52.42 77.88 49.92 71.86 54.01 66.84 57.9 59.32 63.69 51.69 69.68 46.27 77.56 43.26 81.95 40.96 86.84 36.14 89.73 34.44 90.83 32.13 90.63 30.62 89.33 28.12 87.14 29.62 83.75 31.23 81.25 39.95 67.48 50.89 55.21 59.92 41.54 68.85 27.87 75.97 12.31 75.77-3.96 75.57-14.04 72.16-24.61 64.43-31.1 60.92-33.99 56.81-35.99 52.59-37.68 45.87-40.38 38.75-42.47 31.63-42.17 18.28-41.67 6.55-33.39-3.79-25.21 -15.02-16.23-25.76-6.65-35.79 3.72 -42.81 11.01-49.64 18.79-54.25 27.87 -59.07 37.05-61.47 47.73-59.47 57.9 -58.87 60.8-57.76 63.79-55.35 65.39 -53.45 66.68-51.04 66.88-48.83 66.68 -39.9 65.99-32.68 59.5-26.26 53.41 -19.34 46.93-12.42 40.44-5.49 33.86 6.04 22.98 18.28 11.71 33.53 7.32 35.54 6.72 37.65 6.32 39.65 6.92 43.36 8.02 45.17 12.41 45.17 16.2 45.17 22.38 41.76 28.27 37.35 32.66 32.93 37.05 27.51 40.34 22.2 43.64 15.57 47.93 9.05 52.52 2.73 57.3 -0.78 60-4.29 62.89-6.9 66.48 -9.1 69.58-10.61 73.87-7.7 76.96 -6.5 78.26-4.69 78.86-2.98 78.96 0.93 79.06 4.04 76.86 7.05 74.67 18.18 66.08 27.51 55.41 39.05 47.33 39.85 46.73 40.96 46.13 41.86 46.53 42.56 46.83 42.86 47.63 43.06 48.32 44.77 54.41 38.95 59.7 34.44 63.99 27.71 70.38 22.5 78.26 19.09 86.84 16.98 92.23 16.28 99.81 22.3 102.1 24.3 102.9 26.61 102.7 28.62 101.9 38.25 98.01 44.77 89.63 52.9 83.55 54.2 82.55 55.5 81.65 56.91 80.75 61.12 78.16 65.84 83.15 62.93 87.14 52.69 101.21 39.25 113.18 28.72 127.15 27.91 128.25 27.61 129.74 28.02 131.04 29.02 134.03 32.93 133.43 35.64 132.44 61.52 122.86 82.89 104.2 90.72 76.96Z" fill="white"/><path fill-rule="evenodd" clip-rule="evenodd" d="M77.09 101.78C77.19 85.22 65.35 70.45 48.4 67.26 31.44 64.07 14.99 73.45 8.97 88.91L77.09 101.78Z" fill="url(#paint3_linear)"/><path fill-rule="evenodd" clip-rule="evenodd" d="M50.9 88.11C50.5 89.31 48.5 89.71 46.39 89.01 44.28 88.31 42.88 86.82 43.28 85.62 43.68 84.42 45.69 84.02 47.79 84.72 50 85.42 51.3 87.02 50.9 88.11Z" fill="white"/><path fill-rule="evenodd" clip-rule="evenodd" d="M19.2 75.74L12.98 83.52C11.78 82.53 11.58 80.73 12.58 79.53L15.29 76.24C16.19 75.04 18 74.74 19.2 75.74Z" fill="url(#paint4_linear)"/><path fill-rule="evenodd" clip-rule="evenodd" d="M74.98 95.1L73.58 87.81C75.08 87.51 76.59 88.51 76.89 90.11L77.19 91.81C77.59 93.3 76.59 94.8 74.98 95.1Z" fill="url(#paint5_linear)"/><path fill-rule="evenodd" clip-rule="evenodd" d="M36.16 68.06L26.73 71.35C26.22 69.85 27.03 68.26 28.53 67.76L32.54 66.36C34.05 65.76 35.65 66.56 36.16 68.06Z" fill="url(#paint6_linear)"/><path fill-rule="evenodd" clip-rule="evenodd" d="M70.97 83.82L64.25 76.44C65.45 75.34 67.26 75.44 68.26 76.64L71.17 79.83C72.17 80.93 72.07 82.73 70.97 83.82Z" fill="url(#paint7_linear)"/><path fill-rule="evenodd" clip-rule="evenodd" d="M55.32 69.75L45.49 67.86C45.79 66.36 47.29 65.26 48.8 65.56L53.01 66.36C54.51 66.76 55.52 68.26 55.32 69.75Z" fill="url(#paint8_linear)"/><path fill-rule="evenodd" clip-rule="evenodd" d="M35.45 73.95C35.85 75.24 33.75 77.04 30.74 77.94 27.73 78.83 25.02 78.44 24.62 77.14 24.22 75.84 26.32 74.04 29.33 73.15 32.34 72.25 35.05 72.65 35.45 73.95Z" fill="white"/><path fill-rule="evenodd" clip-rule="evenodd" d="M29.53 74.24C32.24 73.45 34.75 73.75 35.45 74.74 35.55 74.44 35.55 74.24 35.45 73.95 35.05 72.65 32.34 72.25 29.33 73.15 26.32 74.04 24.22 75.74 24.62 77.14 24.62 77.24 24.72 77.34 24.82 77.54 25.22 76.24 27.13 74.94 29.53 74.24Z" fill="#4172DA"/><path fill-rule="evenodd" clip-rule="evenodd" d="M67.96 84.42C67.36 85.12 65.55 84.52 64.05 83.12 62.54 81.73 61.74 80.03 62.44 79.33 63.04 78.63 64.85 79.23 66.35 80.63 67.86 82.03 68.56 83.72 67.96 84.42Z" fill="white"/><path fill-rule="evenodd" clip-rule="evenodd" d="M65.75 81.13C67.16 82.43 67.86 83.92 67.56 84.72 67.76 84.72 67.86 84.62 67.96 84.52 68.56 83.82 67.86 82.13 66.35 80.73 64.85 79.33 63.04 78.73 62.44 79.43 62.34 79.53 62.34 79.53 62.34 79.63 63.14 79.33 64.55 79.93 65.75 81.13Z" fill="#4172DA"/><path fill-rule="evenodd" clip-rule="evenodd" d="M47.89 84.72C45.79 84.02 43.78 84.42 43.38 85.62 43.38 85.72 43.38 85.82 43.28 85.92 43.98 85.02 45.79 84.82 47.59 85.42 49.5 86.02 50.9 87.41 50.7 88.51 50.8 88.41 50.8 88.31 50.9 88.11 51.3 87.02 50 85.42 47.89 84.72Z" fill="#4172DA"/><path d="M67.86 17.37C68.36 17.37 68.36 16.57 67.86 16.57 67.36 16.57 67.36 17.37 67.86 17.37Z" fill="white"/><path d="M73.28 29.94C73.78 29.94 73.78 29.15 73.28 29.15 72.77 29.25 72.77 29.94 73.28 29.94Z" fill="white"/><path d="M69.56 32.34C70.06 32.34 70.06 31.54 69.56 31.54 69.06 31.54 69.06 32.34 69.56 32.34Z" fill="white"/><path d="M38.18 40.34C38.68 40.34 38.68 39.55 38.18 39.55 37.68 39.65 37.68 40.34 38.18 40.34Z" fill="white"/><path d="M45.79 41.62C46.29 41.62 46.29 40.82 45.79 40.82 45.28 40.92 45.28 41.62 45.79 41.62Z" fill="white"/><path d="M45.88 66.88C46.5 65.92 47.65 65.34 48.8 65.56L53.01 66.36C54.37 66.72 55.32 67.97 55.34 69.31 59.16 70.88 62.59 73.08 65.55 75.75 66.53 75.52 67.58 75.83 68.26 76.64L71.17 79.83C71.92 80.66 72.05 81.88 71.6 82.9 72.59 84.45 73.46 86.07 74.2 87.76 75.47 87.8 76.63 88.73 76.89 90.11L77.19 91.81C77.46 92.81 77.09 93.81 76.34 94.45 76.85 96.83 77.1 99.29 77.09 101.78L8.97 88.91C9.84 86.66 10.94 84.54 12.23 82.57 11.76 81.6 11.85 80.41 12.58 79.53L15.29 76.24C16.03 75.25 17.4 74.87 18.53 75.34 20.96 73.22 23.68 71.44 26.6 70.05 26.75 69.02 27.46 68.11 28.53 67.76L32.54 66.36C33.71 65.9 34.94 66.27 35.67 67.17 38.97 66.59 42.41 66.47 45.88 66.88Z" fill="url(#paint9_radial)"/><path fill-rule="evenodd" clip-rule="evenodd" d="M50.9 88.11C50.5 89.31 48.5 89.71 46.39 89.01 44.28 88.31 42.88 86.82 43.28 85.62 43.68 84.42 45.69 84.02 47.79 84.72 50 85.42 51.3 87.02 50.9 88.11Z" fill="#5796E0"/><path fill-rule="evenodd" clip-rule="evenodd" d="M35.45 73.95C35.85 75.24 33.75 77.04 30.74 77.94 27.73 78.83 25.02 78.44 24.62 77.14 24.22 75.84 26.32 74.04 29.33 73.15 32.34 72.25 35.05 72.65 35.45 73.95Z" fill="#60A5E3"/><path fill-rule="evenodd" clip-rule="evenodd" d="M29.53 74.24C32.24 73.45 34.75 73.75 35.45 74.74 35.55 74.44 35.55 74.24 35.45 73.95 35.05 72.65 32.34 72.25 29.33 73.15 26.32 74.04 24.22 75.74 24.62 77.14 24.62 77.24 24.72 77.34 24.82 77.54 25.22 76.24 27.13 74.94 29.53 74.24Z" fill="#224FB0"/><path fill-rule="evenodd" clip-rule="evenodd" d="M67.96 84.42C67.36 85.12 65.55 84.52 64.05 83.12 62.54 81.73 61.74 80.03 62.44 79.33 63.04 78.63 64.85 79.23 66.35 80.63 67.86 82.03 68.56 83.72 67.96 84.42Z" fill="#77CAE9"/><path fill-rule="evenodd" clip-rule="evenodd" d="M65.71 81.06C67.14 82.39 67.85 83.91 67.55 84.72 67.75 84.72 67.85 84.62 67.95 84.52 68.57 83.81 67.91 82.06 66.38 80.64 64.85 79.22 63 78.58 62.34 79.34 62.34 79.34 62.28 79.46 62.28 79.56 63.1 79.26 64.48 79.85 65.71 81.06Z" fill="#224FB0"/><path fill-rule="evenodd" clip-rule="evenodd" d="M47.89 84.72C45.79 84.02 43.78 84.42 43.38 85.62 43.38 85.72 43.38 85.82 43.28 85.92 43.98 85.02 45.79 84.82 47.59 85.42 49.5 86.02 50.9 87.41 50.7 88.51 50.8 88.41 50.8 88.31 50.9 88.11 51.3 87.02 50 85.42 47.89 84.72Z" fill="#224FB0"/><path d="M38.46 18.67C37.76 23.36 33.45 26.65 28.73 26.05 24.02 25.35 20.71 21.06 21.31 16.37 22.01 11.69 26.32 8.39 31.04 8.99 35.85 9.59 39.17 13.98 38.46 18.67Z" fill="url(#paint10_radial)"/><path opacity="0.7" d="M38.36 15.78C38.46 16.08 38.46 16.37 38.46 16.67 41.87 17.77 43.98 18.97 43.88 19.97 43.68 21.66 37.16 22.26 29.43 21.16 21.71 20.07 15.59 17.87 15.89 16.08 15.99 15.08 18.4 14.48 21.91 14.28 22.01 13.98 22.11 13.68 22.31 13.48 16.89 13.38 13.08 14.18 12.88 15.68 12.58 17.77 20 20.57 29.43 21.86 38.86 23.16 46.79 22.46 47.09 20.37 47.19 18.87 43.68 17.17 38.36 15.78Z" fill="#8BECEF"/><path opacity="0.6" d="M38.56 16.57C38.56 16.87 38.56 17.07 38.56 17.37 40.37 18.07 41.47 18.87 41.47 19.57 41.27 20.96 35.95 21.46 29.53 20.57 23.11 19.67 18.1 17.77 18.3 16.37 18.4 15.68 19.6 15.28 21.61 15.08 21.71 14.78 21.71 14.58 21.81 14.28 18.3 14.38 15.89 14.98 15.69 16.08 15.49 17.87 21.61 20.07 29.33 21.16 37.16 22.26 43.68 21.66 43.88 19.97 44.08 18.87 41.97 17.67 38.56 16.57Z" fill="#8BECEF"/></g></svg>