<svg width="100" height="100" viewBox="0 0 100 100" fill="none" xmlns="http://www.w3.org/2000/svg"><defs><linearGradient id="paint0_linear" x1="49.99" y1="109.35" x2="49.99" y2="-3.07" gradientUnits="userSpaceOnUse"><stop stop-color="#3C0289"/><stop offset="0.49" stop-color="#4172DA"/><stop offset="0.94" stop-color="#80C3FF"/></linearGradient><linearGradient id="paint1_linear" x1="49.99" y1="109.35" x2="49.99" y2="-3.07" gradientUnits="userSpaceOnUse"><stop stop-color="#3C0289"/><stop offset="0.49" stop-color="#4172DA"/><stop offset="0.94" stop-color="#80C3FF"/></linearGradient><linearGradient id="paint2_linear" x1="56.24" y1="12.73" x2="87.96" y2="34.09" gradientUnits="userSpaceOnUse"><stop stop-color="#EFC0D5"/><stop offset="1" stop-color="#C74ECE"/></linearGradient><radialGradient id="paint3_radial" cx="0" cy="0" r="1" gradientUnits="userSpaceOnUse" gradientTransform="translate(84.3124 33.7642) rotate(-147.181) scale(33.705 33.8623)"><stop offset="0.68" stop-color="#C74ECE"/><stop offset="1" stop-color="#EFC0D5"/></radialGradient><linearGradient id="paint4_linear" x1="20.01" y1="74.99" x2="31.6" y2="57.03" gradientUnits="userSpaceOnUse"><stop stop-color="#4172DA"/><stop offset="0.82" stop-color="#8BECEF"/></linearGradient><radialGradient id="paint5_radial" cx="0" cy="0" r="1" gradientUnits="userSpaceOnUse" gradientTransform="translate(32.3188 68.5147) rotate(-118.535) scale(17.9191 17.8115)"><stop offset="0.57" stop-color="#4172DA"/><stop offset="0.82" stop-color="#8BECEF"/></radialGradient></defs><path d="M59.94 88.29L59.95 88.27 59.96 88.25 77.2 56.09C80.97 50.61 83 44.01 83 37.31 83 28.31 79.32 19.93 73.18 13.83 67.15 7.73 58.87 4 50.05 4 41.05 4 32.75 7.62 26.71 13.83 20.68 19.93 17 28.31 17 37.31 17 45.07 19.66 52.41 24.36 58.3L24.36 58.3 24.37 58.31C28.78 63.73 34.81 67.8 41.55 69.66L37.98 75.52C37.98 75.52 37.98 75.52 37.98 75.52 36.6 77.78 35.95 80.17 35.95 82.56 35.95 85.53 37.14 88.68 39.4 91.07L39.4 91.08C41.87 93.68 44.91 95 48.56 95 53.2 95 57.39 92.59 59.94 88.29ZM44.59 31.91L44.6 31.9 44.61 31.89C46.01 30.48 47.93 29.68 49.95 29.68 51.86 29.68 53.88 30.57 55.19 31.89L55.2 31.9 55.21 31.91C56.74 33.37 57.68 35.22 57.68 37.31 57.68 39.33 56.81 41.28 55.31 42.71L55.3 42.72 55.29 42.73C53.9 44.13 51.88 44.94 49.95 44.94 47.86 44.94 45.92 44.06 44.5 42.71 43.08 41.28 42.22 39.42 42.22 37.31 42.22 35.29 43.09 33.34 44.59 31.91Z" fill="url(#paint0_linear)" stroke="white" stroke-width="2"/><mask id="mask0" mask-type="alpha" maskUnits="userSpaceOnUse" x="18" y="5" width="64" height="89"><path d="M72.47 14.53C78.43 20.45 82 28.58 82 37.31 82 43.83 79.5 49 76.34 55.57L59.08 87.78C56.7 91.79 52.83 94 48.56 94 45.19 94 42.41 92.8 40.13 90.39 38.04 88.18 36.95 85.27 36.95 82.56 36.95 80.35 37.55 78.15 38.84 76.04L43.1 69.02C36.06 67.41 29.71 63.3 25.14 57.68 20.58 51.96 18 44.83 18 37.31 18 28.58 21.57 20.45 27.43 14.53 33.28 8.51 41.32 5 50.05 5 58.58 5 66.62 8.61 72.47 14.53ZM43.9 31.19C42.21 32.79 41.22 35 41.22 37.31 41.22 39.72 42.21 41.82 43.8 43.43 45.39 44.93 47.57 45.94 49.95 45.94 52.13 45.94 54.42 45.03 56 43.43 57.69 41.82 58.68 39.62 58.68 37.31 58.68 34.9 57.59 32.79 55.9 31.19 54.42 29.68 52.13 28.68 49.95 28.68 47.67 28.68 45.49 29.58 43.9 31.19Z" fill="url(#paint1_linear)"/></mask><g mask="url(#mask0)"><path fill-rule="evenodd" clip-rule="evenodd" d="M67.51 35L68.7 35.7 67.51 36.31 66.92 37.41 66.32 36.31 65.13 35.6 66.32 35 66.92 33.9 67.51 35Z" fill="white"/><path fill-rule="evenodd" clip-rule="evenodd" d="M29.41 28.88L30.6 29.58 29.41 30.19 28.82 31.29 28.22 30.19 27.03 29.48 28.22 28.88 28.82 27.78 29.41 28.88Z" fill="white"/><path fill-rule="evenodd" clip-rule="evenodd" d="M58.27 80.7L60.45 81.9 58.17 83.1 56.98 85.31 55.78 83 53.7 81.8 55.88 80.6 57.07 78.49 58.27 80.7Z" fill="white"/><path d="M40.23 23.76C40.72 23.76 40.72 22.96 40.23 22.96 39.73 22.96 39.73 23.76 40.23 23.76Z" fill="white"/><path d="M60.57 24.47C61.06 24.47 61.06 23.66 60.57 23.66 60.07 23.76 60.07 24.47 60.57 24.47Z" fill="white"/><path d="M62.35 14.53C62.85 14.53 62.85 13.73 62.35 13.73 61.86 13.73 61.86 14.53 62.35 14.53Z" fill="white"/><path d="M72.57 47.24C73.07 47.24 73.07 46.44 72.57 46.44 72.08 46.44 72.08 47.24 72.57 47.24Z" fill="white"/><path d="M77.24 31.59C77.73 31.59 77.73 30.79 77.24 30.79 76.74 30.89 76.74 31.59 77.24 31.59Z" fill="white"/><path opacity="0.2" d="M71.98 42.83C82.5 42.83 91.03 34.2 91.03 23.56 91.03 12.92 82.5 4.3 71.98 4.3 61.46 4.3 52.93 12.92 52.93 23.56 52.93 34.2 61.46 42.83 71.98 42.83Z" fill="url(#paint2_linear)"/><path d="M59.03 75.32C59.53 75.32 59.53 74.51 59.03 74.51 58.63 74.51 58.63 75.32 59.03 75.32Z" fill="white"/><path d="M59.77 71.73C60.27 71.73 60.27 70.92 59.77 70.92 59.28 70.92 59.28 71.73 59.77 71.73Z" fill="white"/><path d="M55.61 66.21C56.1 66.21 56.1 65.4 55.61 65.4 55.11 65.4 55.11 66.21 55.61 66.21Z" fill="white"/><path d="M22.82 34.74C23.31 34.74 23.31 33.94 22.82 33.94 22.32 33.94 22.32 34.74 22.82 34.74Z" fill="white"/><path d="M39.01 15.34C39.51 15.34 39.51 14.53 39.01 14.53 38.51 14.53 38.51 15.34 39.01 15.34Z" fill="white"/><path d="M36.53 32.39C37.02 32.39 37.02 31.59 36.53 31.59 36.03 31.59 36.03 32.39 36.53 32.39Z" fill="white"/><path d="M68.7 64.9C69.2 64.9 69.2 64.1 68.7 64.1 68.21 64.1 68.21 64.9 68.7 64.9Z" fill="white"/><path d="M54.34 77.55C54.84 77.55 54.84 76.75 54.34 76.75 53.84 76.85 53.84 77.55 54.34 77.55Z" fill="white"/><path d="M42.01 80.66C42.51 80.66 42.51 79.85 42.01 79.85 41.52 79.95 41.52 80.66 42.01 80.66Z" fill="white"/><path d="M44.1 88.08C44.59 88.08 44.59 87.28 44.1 87.28 43.6 87.28 43.6 88.08 44.1 88.08Z" fill="white"/><path d="M52.23 88.88C52.73 88.88 52.73 88.08 52.23 88.08 51.74 88.08 51.74 88.88 52.23 88.88Z" fill="white"/><path d="M64.73 64.9C65.23 64.9 65.23 64.1 64.73 64.1 64.24 64.1 64.24 64.9 64.73 64.9Z" fill="white"/><path d="M48.37 57.16C48.87 57.16 48.87 56.36 48.37 56.36 47.88 56.36 47.88 57.16 48.37 57.16Z" fill="white"/><path d="M50.65 12.12C51.14 12.12 51.14 11.32 50.65 11.32 50.15 11.32 50.15 12.12 50.65 12.12Z" fill="white"/><path opacity="0.1" d="M85.72 63.81C87.4 57.89 88.4 51.56 85.72 45.74 84.43 42.84 82.15 40.33 79.17 39.22 72.82 36.71 66.96 40.93 62 44.84 54.56 50.76 47.02 56.78 41.66 64.61 38.69 69.02 36.4 73.94 31.64 76.85 29.95 77.95 27.67 77.75 26.18 76.45 23.7 74.24 25.19 70.83 26.78 68.32 35.41 54.47 46.23 42.03 55.06 28.29 63.89 14.54 70.93-1.11 70.54-17.57 70.34-27.7 66.96-38.34 59.22-44.86 55.75-47.77 51.68-49.78 47.42-51.48 40.77-54.19 33.72-56.2 26.58-55.9 13.38-55.4 1.77-46.97-8.35-38.74 -19.46-29.71-30.08-19.98-39.9-9.54 -46.85-2.12-53.49 5.71-58.16 14.74 -62.82 23.97-65.3 34.71-63.22 44.94 -62.62 47.85-61.53 50.86-59.15 52.47 -57.27 53.77-54.88 53.97-52.7 53.77 -43.87 53.07-36.82 46.55-30.38 40.43 -23.53 33.9-16.68 27.28-9.94 20.76 1.48 9.82 13.48-1.51 28.56-6.03 30.55-6.63 32.63-7.03 34.62-6.53 38.29-5.43 40.07-1.11 40.07 2.8 40.07 9.02 36.7 14.94 32.33 19.36 27.97 23.77 22.61 27.08 17.35 30.49 10.8 34.81 4.35 39.42-1.8 44.34 -5.27 47.05-8.74 49.96-11.22 53.57 -13.41 56.68-14.9 61-12.02 64.11 -10.83 65.41-9.04 66.01-7.36 66.11 -3.49 66.21-0.41 64.01 2.47 61.7 13.48 53.07 22.71 42.33 34.02 34.21 34.82 33.6 35.91 33 36.8 33.4 37.49 33.7 37.79 34.41 37.99 35.21 39.68 41.33 34.02 46.65 29.46 51.06 22.91 57.48 17.65 65.41 14.38 74.04 12.29 79.46 11.6 87.08 17.65 89.39 19.63 90.09 21.92 89.99 23.9 89.19 33.43 85.28 39.78 76.85 47.81 70.63 49.1 69.63 50.39 68.72 51.78 67.82 55.95 65.11 60.61 70.23 57.74 74.24 47.71 88.39 34.42 100.53 24 114.58 23.21 115.68 22.91 117.19 23.31 118.49 24.3 121.5 28.17 120.9 30.85 119.9 57.04 109.96 78.08 91.1 85.72 63.81Z" fill="white"/><path fill-rule="evenodd" clip-rule="evenodd" d="M77.96 9.76C85.5 13.12 88.96 21.99 85.63 29.61 82.3 37.23 73.53 40.73 66 37.37 58.46 34 55 25.13 58.33 17.51 61.65 9.89 70.43 6.39 77.96 9.76Z" fill="url(#paint3_radial)"/><path d="M86.76 27.28C89.84 29.78 91.43 31.89 90.83 33.2 89.64 35.8 80.11 33.8 69.6 28.78 59.08 23.76 51.54 17.64 52.73 15.03 53.32 13.83 55.71 13.63 59.08 14.23" stroke="#1D1670" stroke-width="0.5" stroke-miterlimit="10"/><path opacity="0.2" d="M28.2 73.03C34.17 73.03 39.01 68.13 39.01 62.09 39.01 56.05 34.17 51.16 28.2 51.16 22.22 51.16 17.38 56.05 17.38 62.09 17.38 68.13 22.22 73.03 28.2 73.03Z" fill="url(#paint4_linear)"/><path fill-rule="evenodd" clip-rule="evenodd" d="M26.34 70.32C21.87 69.33 18.93 64.83 19.96 60.22 20.94 55.69 25.39 52.73 29.95 53.77 34.42 54.76 37.36 59.25 36.33 63.87 35.35 68.39 30.95 71.27 26.34 70.32Z" fill="url(#paint5_radial)"/></g></svg>