<svg width="18" height="18" viewBox="0 0 18 18" fill="none" xmlns="http://www.w3.org/2000/svg">
<path fill-rule="evenodd" clip-rule="evenodd" d="M16 5.2085C16 4.84131 15.7915 4.50391 15.4556 4.35596C13.481 3.48389 11.2971 3 9 3C6.70288 3 4.51904 3.48389 2.54443 4.35596C2.49292 4.37842 2.44458 4.40527 2.39941 4.43604C2.34717 4.47168 2.29956 4.5127 2.25659 4.55811C1.49585 5.10205 1 5.99316 1 7C1 8.65674 2.34326 10 4 10C5.65674 10 7 8.65674 7 7C7 6.34082 6.78735 5.73096 6.42676 5.23584C6.96875 5.13525 7.52197 5.06592 8.08423 5.0293C8.38696 5.00977 8.69238 5 9 5C10.9575 5 12.821 5.40186 14.5129 6.12744C15.1926 6.41895 16 5.94775 16 5.2085ZM4 8C4.55225 8 5 7.55225 5 7C5 6.44775 4.55225 6 4 6C3.44775 6 3 6.44775 3 7C3 7.55225 3.44775 8 4 8Z" fill="white"/>
<path fill-rule="evenodd" clip-rule="evenodd" d="M15.7434 13.4419C15.6633 13.5264 15.5664 13.5952 15.4556 13.644C13.481 14.5161 11.2971 15 9 15C6.70288 15 4.51904 14.5161 2.54443 13.644C2.2085 13.4961 2 13.1587 2 12.7915C2 12.0522 2.80737 11.5811 3.48706 11.8726C5.17896 12.5981 7.04248 13 9 13C9.87915 13 10.7393 12.9189 11.5732 12.7642C11.2126 12.269 11 11.6592 11 11C11 9.34326 12.3433 8 14 8C15.6567 8 17 9.34326 17 11C17 12.0068 16.5042 12.8979 15.7434 13.4419ZM15 11C15 11.5522 14.5522 12 14 12C13.4478 12 13 11.5522 13 11C13 10.4478 13.4478 10 14 10C14.5522 10 15 10.4478 15 11Z" fill="white"/>
</svg>
