<svg width="18" height="18" viewBox="0 0 18 18" fill="none" xmlns="http://www.w3.org/2000/svg">
<path d="M8.00006 3C8.00006 2.44775 8.44781 2 9.00006 2H15.0001C15.5523 2 16.0001 2.44775 16.0001 3V9C16.0001 9.55225 15.5523 10 15.0001 10C14.4478 10 14.0001 9.55225 14.0001 9V5.41406L8.41437 11L10.5357 13.1211C10.9261 13.5117 10.9261 14.145 10.5357 14.5356C10.1451 14.9258 9.51202 14.9258 9.1214 14.5356L7.00006 12.4141L3.75739 15.6567C3.36676 16.0474 2.7337 16.0474 2.34308 15.6567C1.9527 15.2661 1.9527 14.6333 2.34308 14.2427L5.58575 11L3.46466 8.87842C3.07404 8.48828 3.07404 7.85498 3.46466 7.46436C3.85504 7.07373 4.48834 7.07373 4.87872 7.46436L7.00006 9.58545L12.5855 4H9.00006C8.44781 4 8.00006 3.55225 8.00006 3Z" fill="white"/>
</svg>
