<svg width="100" height="100" viewBox="0 0 100 100" fill="none" xmlns="http://www.w3.org/2000/svg"><path d="M50.58 6.92347L50.5721 6.92789 50.5643 6.93244 35.7082 15.6104C35.7075 15.6108 35.7068 15.6112 35.7061 15.6116 31.4398 18.0789 29 22.2932 29 26.9524 29 30.724 30.5414 33.9762 32.9724 36.2552 35.3118 38.5437 38.5181 39.7256 41.7048 39.7256 42.6274 39.7256 43.5951 39.6211 44.5725 39.4146V81.9274C44.5725 85.5077 46.1197 88.8528 48.5366 91.2221 51.0829 93.7181 54.498 95 58.1934 95 61.777 95 65.0036 93.823 67.4585 91.2068 69.8159 88.8864 71 85.5215 71 81.9274V17.6735 17.5737 17.1536L70.8762 17.0322C70.6122 13.7432 69.4101 10.9117 67.1541 8.59488 64.8063 6.1838 61.6867 5 58.1934 5 55.3865 5 52.8756 5.63756 50.58 6.92347Z" fill="url(#paint0_linear)" stroke="white" stroke-width="2"/><mask id="mask0" mask-type="alpha" maskUnits="userSpaceOnUse" x="30" y="6" width="40" height="88"><path d="M49.2366 90.5079C46.9975 88.3129 45.5725 85.2199 45.5725 81.9274V38.127C44.2494 38.5261 42.9262 38.7256 41.7048 38.7256 38.7532 38.7256 35.8015 37.6281 33.6641 35.5329 31.4249 33.4376 30 30.4444 30 26.9524 30 22.6621 32.2392 18.771 36.2086 16.4762L51.0687 7.79592C53.2061 6.59864 55.5471 6 58.1934 6 61.4504 6 64.3003 7.09751 66.4377 9.29252 68.5751 11.4875 69.6947 14.1814 69.8982 17.3742V17.4739L70 17.5737V17.6735 81.9274C70 85.3197 68.8804 88.4127 66.743 90.5079 64.5038 92.9025 61.5522 94 58.1934 94 54.7328 94 51.5776 92.8027 49.2366 90.5079Z" fill="url(#paint1_linear)"/></mask><g mask="url(#mask0)"><path d="M49.2366 90.5079C46.9975 88.3129 45.5725 85.2199 45.5725 81.9274V38.127C44.2494 38.5261 42.9262 38.7256 41.7048 38.7256 38.7532 38.7256 35.8015 37.6281 33.6641 35.5329 31.4249 33.4376 30 30.4444 30 26.9524 30 22.6621 32.2392 18.771 36.2086 16.4762L51.0687 7.79592C53.2061 6.59864 55.5471 6 58.1934 6 61.4504 6 64.3003 7.09751 66.4377 9.29252 68.5751 11.4875 69.6947 14.1814 69.8982 17.3742V17.4739L70 17.5737V17.6735 81.9274C70 85.3197 68.8804 88.4127 66.743 90.5079 64.5038 92.9025 61.5522 94 58.1934 94 54.7328 94 51.5776 92.8027 49.2366 90.5079Z" fill="url(#paint2_linear)"/><path fill-rule="evenodd" clip-rule="evenodd" d="M43.9078 18.7588L45.1292 19.4572 43.9078 20.0559 43.1953 21.2531 42.5847 20.0559 41.3633 19.3574 42.5847 18.7588 43.2971 17.5615 43.9078 18.7588Z" fill="white"/><path fill-rule="evenodd" clip-rule="evenodd" d="M58.0911 18.9706L59.0071 19.4695 58.0911 19.9684 57.5822 20.8663 57.0733 19.8686 56.1572 19.3697 57.0733 18.8709 57.5822 17.9729 58.0911 18.9706Z" fill="white" fill-opacity="0.3"/><path fill-rule="evenodd" clip-rule="evenodd" d="M64.809 27.7505L65.5215 28.1496 64.809 28.4489 64.5037 29.0475 64.0965 28.4489 63.4858 28.0498 64.1983 27.7505 64.5037 27.1519 64.809 27.7505Z" fill="white"/><path fill-rule="evenodd" clip-rule="evenodd" d="M47.7758 15.167L48.3865 15.5661 47.7758 15.8654 47.4704 16.4641 47.0633 15.8654 46.4526 15.4663 47.0633 15.167 47.4704 14.5684 47.7758 15.167Z" fill="white"/><path fill-rule="evenodd" clip-rule="evenodd" d="M37.1244 23.2609L37.7351 23.5602 37.1244 23.9593 36.7173 24.558 36.412 23.8596 35.8013 23.5602 36.412 23.2609 36.8191 22.5625 37.1244 23.2609Z" fill="white"/><path d="M52.2899 29.7459C52.7988 29.7459 52.7988 28.9478 52.2899 28.9478 51.781 28.9478 51.781 29.7459 52.2899 29.7459Z" fill="white"/><path d="M54.9764 18.3597C55.4853 18.3597 55.4853 17.5615 54.9764 17.5615 54.4675 17.6613 54.4675 18.3597 54.9764 18.3597Z" fill="white" fill-opacity="0.3"/><path opacity="0.5" d="M68.2083 27.3394C68.7172 27.3394 68.7172 26.5413 68.2083 26.5413 67.6994 26.5413 67.6994 27.3394 68.2083 27.3394Z" fill="white"/><path d="M53.5111 42.2176C54.02 42.2176 54.02 41.4194 53.5111 41.4194 53.0022 41.4194 53.0022 42.2176 53.5111 42.2176Z" fill="white"/><path opacity="0.5" d="M39.0583 35.034C39.5672 35.034 39.5672 34.2358 39.0583 34.2358 38.6511 34.2358 38.6511 35.034 39.0583 35.034Z" fill="white"/><path d="M59.618 34.0362C60.1269 34.0362 60.1269 33.238 59.618 33.238 59.1091 33.3378 59.1091 34.0362 59.618 34.0362Z" fill="white"/><path d="M63.4855 59.6781C63.9944 59.6781 63.9944 58.8799 63.4855 58.8799 63.0784 58.9797 63.0784 59.6781 63.4855 59.6781Z" fill="white" fill-opacity="0.3"/><path d="M53.3079 61.0748C53.8169 61.0748 53.8169 60.2766 53.3079 60.2766 52.799 60.3764 52.799 61.0748 53.3079 61.0748Z" fill="white"/><path opacity="0.5" d="M50.5594 52.9932C51.0683 52.9932 51.0683 52.1951 50.5594 52.1951 50.0505 52.1951 50.0505 52.9932 50.5594 52.9932Z" fill="white"/><path d="M50.9056 51.285C51.4145 51.285 51.4145 50.4868 50.9056 50.4868 50.3967 50.5866 50.3967 51.285 50.9056 51.285Z" fill="white"/><path d="M66.7425 48.2042C67.2514 48.2042 67.2514 47.406 66.7425 47.406 66.2336 47.406 66.2336 48.2042 66.7425 48.2042Z" fill="white"/><path d="M67.1903 58.2691C67.6992 58.2691 67.6992 57.4709 67.1903 57.4709 66.6814 57.4709 66.6814 58.2691 67.1903 58.2691Z" fill="white"/><path d="M48.4222 73.1473C48.9311 73.1473 48.9311 72.3491 48.4222 72.3491 47.9133 72.3491 47.9133 73.1473 48.4222 73.1473Z" fill="white"/><path d="M60.0658 53.2804C60.5747 53.2804 60.5747 52.4822 60.0658 52.4822 59.5569 52.4822 59.5569 53.2804 60.0658 53.2804Z" fill="white" fill-opacity="0.3"/><path d="M60.0658 57.2713C60.5747 57.2713 60.5747 56.4731 60.0658 56.4731 59.5569 56.4731 59.5569 57.2713 60.0658 57.2713Z" fill="white"/></g><path fill-rule="evenodd" clip-rule="evenodd" d="M59.3626 9.79135C58.086 5.83405 60.291 1.64396 64.2369 0.363658 68.1828-0.916647 72.3608 1.29479 73.6374 5.25209 74.914 9.2094 72.709 13.3995 68.7631 14.6798 64.8172 15.8437 60.6392 13.7487 59.3626 9.79135Z" fill="url(#paint3_radial)"/><path opacity="0.1" d="M47.5 100C56.6127 100 64 92.6127 64 83.5 64 74.3873 56.6127 67 47.5 67 38.3873 67 31 74.3873 31 83.5 31 92.6127 38.3873 100 47.5 100Z" fill="#8BECEF"/><path fill-rule="evenodd" clip-rule="evenodd" d="M34.626 87.9725C32.4343 81.1234 36.1785 73.8177 43.0275 71.626 49.8766 69.4343 57.1823 73.1785 59.374 80.0275 61.5657 86.8766 57.8215 94.1823 50.9725 96.374 44.1234 98.5657 36.8177 94.8215 34.626 87.9725Z" fill="url(#paint4_radial)"/><defs><linearGradient id="paint0_linear" x1="78.648" y1="-38.7176" x2="37.4354" y2="100.422" gradientUnits="userSpaceOnUse"><stop stop-color="#0C0F6C"/><stop offset="0.5891" stop-color="#3C0289"/><stop offset="1" stop-color="#8B46AB"/></linearGradient><linearGradient id="paint1_linear" x1="78.648" y1="-38.7176" x2="37.4354" y2="100.422" gradientUnits="userSpaceOnUse"><stop stop-color="#0C0F6C"/><stop offset="0.5891" stop-color="#3C0289"/><stop offset="1" stop-color="#8B46AB"/></linearGradient><linearGradient id="paint2_linear" x1="78.648" y1="-38.7176" x2="37.4354" y2="100.422" gradientUnits="userSpaceOnUse"><stop stop-color="#0C0F6C"/><stop offset="0.5891" stop-color="#3C0289"/><stop offset="1" stop-color="#8B46AB"/></linearGradient><radialGradient id="paint3_radial" cx="0" cy="0" r="1" gradientUnits="userSpaceOnUse" gradientTransform="translate(60.1606) rotate(63.5012) scale(16.9071 16.8777)"><stop stop-color="#EFC0D5"/><stop offset="0.465302" stop-color="#C74ECE"/></radialGradient><radialGradient id="paint4_radial" cx="0" cy="0" r="1" gradientUnits="userSpaceOnUse" gradientTransform="translate(46.0411 93.6342) rotate(-98.7462) scale(24.0227)"><stop offset="0.038537" stop-color="#0C0F6C"/><stop offset="0.357548" stop-color="#0D106D"/><stop offset="1" stop-color="#80C3FF"/></radialGradient></defs></svg>