<svg width="100" height="100" viewBox="0 0 100 100" fill="none" xmlns="http://www.w3.org/2000/svg"><path d="M59.9391 88.2893L59.9502 88.2706 59.9604 88.2515 77.1992 56.092C80.9668 50.614 83 44.0121 83 37.3089 83 28.3051 79.316 19.9266 73.1826 13.8261 67.153 7.73027 58.8656 4 50.0496 4 41.0455 4 32.752 7.62257 26.7123 13.832 20.6831 19.9304 17 28.306 17 37.3089 17 45.0654 19.6597 52.4084 24.3626 58.3013L24.3625 58.3014 24.368 58.3081C28.775 63.7334 34.8064 67.804 41.5454 69.6551L37.9843 75.5173C37.984 75.5179 37.9837 75.5184 37.9833 75.5189 36.5995 77.7801 35.9519 80.1672 35.9519 82.5614 35.9519 85.5258 37.141 88.6812 39.3999 91.0743L39.4013 91.0757C41.8727 93.6835 44.9137 95 48.5612 95 53.1996 95 57.3873 92.59 59.9391 88.2893ZM44.5871 31.9126L44.5981 31.9022 44.6087 31.8914C46.0056 30.4788 47.9313 29.6798 49.9504 29.6798 51.8553 29.6798 53.8845 30.5684 55.1928 31.8914L55.2035 31.9022 55.2145 31.9126C56.7407 33.3653 57.6822 35.2227 57.6822 37.3089 57.6822 39.3284 56.813 41.2782 55.3137 42.7052L55.3027 42.7156 55.2921 42.7264C53.8994 44.1347 51.8764 44.938 49.9504 44.938 47.8579 44.938 45.9197 44.0573 44.4982 42.7149 43.082 41.2776 42.2186 39.4204 42.2186 37.3089 42.2186 35.2895 43.0878 33.3396 44.5871 31.9126Z" fill="url(#paint0_linear)" stroke="white" stroke-width="2"/><mask id="mask0" mask-type="alpha" maskUnits="userSpaceOnUse" x="18" y="5" width="64" height="89"><path d="M72.4744 14.5321C78.4279 20.4521 82 28.5795 82 37.3089 82 43.8309 79.5 49 76.3442 55.5704L59.0791 87.779C56.6977 91.7925 52.8279 94 48.5612 94 45.1876 94 42.4093 92.7959 40.1271 90.3878 38.0434 88.1804 36.9519 85.2706 36.9519 82.5614 36.9519 80.354 37.5473 78.1465 38.8372 76.0394L43.1039 69.0158C36.0589 67.4104 29.7085 63.2965 25.1442 57.6776 20.5798 51.9583 18 44.8343 18 37.3089 18 28.5795 21.5721 20.4521 27.4264 14.5321 33.2806 8.51184 41.3178 5 50.0496 5 58.5829 5 66.6201 8.61218 72.4744 14.5321ZM43.8977 31.1883C42.2108 32.7937 41.2186 35.0011 41.2186 37.3089 41.2186 39.717 42.2109 41.8241 43.7985 43.4295 45.386 44.9346 47.569 45.938 49.9504 45.938 52.1333 45.938 54.4155 45.0349 56.0031 43.4295 57.6899 41.8241 58.6822 39.6167 58.6822 37.3089 58.6822 34.9008 57.5907 32.7937 55.9039 31.1883 54.4155 29.6832 52.1333 28.6798 49.9504 28.6798 47.6682 28.6798 45.4853 29.5829 43.8977 31.1883Z" fill="url(#paint1_linear)"/></mask><g mask="url(#mask0)"><path fill-rule="evenodd" clip-rule="evenodd" d="M67.5132 35.0012L68.7039 35.7036 67.5132 36.3056 66.9179 37.4093 66.3225 36.3056 65.1318 35.6032 66.3225 35.0012 66.9179 33.8975 67.5132 35.0012Z" fill="white"/><path fill-rule="evenodd" clip-rule="evenodd" d="M29.4112 28.8806L30.6019 29.5829 29.4112 30.185 28.8158 31.2887 28.2205 30.185 27.0298 29.4826 28.2205 28.8806 28.8158 27.7769 29.4112 28.8806Z" fill="white"/><path fill-rule="evenodd" clip-rule="evenodd" d="M58.2655 80.6955L60.4485 81.8996 58.1663 83.1036 56.9756 85.3111 55.7849 83.0033 53.7012 81.7992 55.8841 80.5951 57.0748 78.488 58.2655 80.6955Z" fill="white"/><path d="M40.2261 23.7634C40.7222 23.7634 40.7222 22.9607 40.2261 22.9607 39.73 22.9607 39.73 23.7634 40.2261 23.7634Z" fill="white"/><path d="M60.5674 24.4658C61.0635 24.4658 61.0635 23.6631 60.5674 23.6631 60.0713 23.7634 60.0713 24.4658 60.5674 24.4658Z" fill="white"/><path d="M62.3531 14.5324C62.8492 14.5324 62.8492 13.7297 62.3531 13.7297 61.8569 13.7297 61.8569 14.5324 62.3531 14.5324Z" fill="white"/><path d="M72.5738 47.2424C73.0699 47.2424 73.0699 46.4397 72.5738 46.4397 72.0776 46.4397 72.0776 47.2424 72.5738 47.2424Z" fill="white"/><path d="M77.2368 31.5898C77.733 31.5898 77.733 30.7871 77.2368 30.7871 76.7407 30.8874 76.7407 31.5898 77.2368 31.5898Z" fill="white"/><path d="M59.0296 75.3159C59.5257 75.3159 59.5257 74.5132 59.0296 74.5132 58.6327 74.5132 58.6327 75.3159 59.0296 75.3159Z" fill="white"/><path d="M59.7739 71.7251C60.2701 71.7251 60.2701 70.9224 59.7739 70.9224 59.2778 70.9224 59.2778 71.7251 59.7739 71.7251Z" fill="white"/><path d="M55.606 66.2065C56.1021 66.2065 56.1021 65.4038 55.606 65.4038 55.1099 65.4038 55.1099 66.2065 55.606 66.2065Z" fill="white"/><path d="M22.8174 34.7417C23.3135 34.7417 23.3135 33.939 22.8174 33.939 22.3213 33.939 22.3213 34.7417 22.8174 34.7417Z" fill="white"/><path d="M39.0108 15.3352C39.5069 15.3352 39.5069 14.5325 39.0108 14.5325 38.5146 14.5325 38.5146 15.3352 39.0108 15.3352Z" fill="white"/><path d="M36.5283 32.3925C37.0245 32.3925 37.0245 31.5898 36.5283 31.5898 36.0322 31.5898 36.0322 32.3925 36.5283 32.3925Z" fill="white"/><path d="M68.7041 64.9021C69.2002 64.9021 69.2002 64.0994 68.7041 64.0994 68.208 64.0994 68.208 64.9021 68.7041 64.9021Z" fill="white"/><path d="M54.3408 77.5529C54.837 77.5529 54.837 76.7502 54.3408 76.7502 53.8447 76.8506 53.8447 77.5529 54.3408 77.5529Z" fill="white"/><path d="M42.0122 80.655C42.5084 80.655 42.5084 79.8523 42.0122 79.8523 41.5161 79.9526 41.5161 80.655 42.0122 80.655Z" fill="white"/><path d="M44.0957 88.08C44.5918 88.08 44.5918 87.2773 44.0957 87.2773 43.5996 87.2773 43.5996 88.08 44.0957 88.08Z" fill="white"/><path d="M52.2324 88.8828C52.7286 88.8828 52.7286 88.0801 52.2324 88.0801 51.7363 88.0801 51.7363 88.8828 52.2324 88.8828Z" fill="white"/><path d="M64.7349 64.9021C65.231 64.9021 65.231 64.0994 64.7349 64.0994 64.2388 64.0994 64.2388 64.9021 64.7349 64.9021Z" fill="white"/><path d="M48.3711 57.1601C48.8672 57.1601 48.8672 56.3574 48.3711 56.3574 47.875 56.3574 47.875 57.1601 48.3711 57.1601Z" fill="white"/><path d="M50.645 12.124C51.1412 12.124 51.1412 11.3213 50.645 11.3213 50.1489 11.3213 50.1489 12.124 50.645 12.124Z" fill="white"/></g><path opacity="0.2" d="M77.3151 36.5456C85.6437 36.5456 92.3954 29.7182 92.3954 21.2961 92.3954 12.8741 85.6437 6.04663 77.3151 6.04663 68.9865 6.04663 62.2349 12.8741 62.2349 21.2961 62.2349 29.7182 68.9865 36.5456 77.3151 36.5456Z" fill="url(#paint2_linear)"/><path fill-rule="evenodd" clip-rule="evenodd" d="M82.0507 10.3693C88.0149 13.0319 90.7541 20.0535 88.121 26.0846 85.488 32.1157 78.5443 34.8857 72.5801 32.2231 66.6159 29.5605 63.8767 22.5389 66.5097 16.5078 69.1428 10.4766 76.0865 7.70666 82.0507 10.3693Z" fill="url(#paint3_radial)"/><path fill-rule="evenodd" clip-rule="evenodd" d="M62.5295 14.7602C62.6496 14.5264 63.0063 14.2823 63.8235 14.1884 64.6184 14.0971 65.703 14.1679 67.0167 14.4023L67.1924 13.4179C65.8356 13.1758 64.6424 13.0877 63.7094 13.195 62.8068 13.2987 61.9842 13.6066 61.6296 14.3239L61.6261 14.3308 61.6229 14.3379C61.2684 15.1147 61.612 16.014 62.1843 16.8426 62.7799 17.7049 63.7387 18.6627 64.9628 19.659 67.4171 21.6566 71.0273 23.8805 75.2148 25.8779 79.4025 27.8754 83.4075 29.2813 86.5007 29.927 88.0432 30.249 89.3877 30.3883 90.426 30.3032 91.4227 30.2216 92.335 29.9136 92.6932 29.1289 93.0486 28.3501 92.7025 27.4649 92.1267 26.6477 91.5286 25.7989 90.5653 24.8518 89.334 23.8478L88.7021 24.6228C89.9057 25.6043 90.7881 26.484 91.3092 27.2237 91.8527 27.995 91.8992 28.46 91.7834 28.7137 91.6703 28.9615 91.2867 29.2294 90.3444 29.3066 89.4436 29.3804 88.2061 29.2615 86.705 28.9481 83.7111 28.3231 79.7833 26.9491 75.6454 24.9753 71.5074 23.0016 67.9702 20.8174 65.594 18.8835 64.4029 17.914 63.5258 17.0252 63.0071 16.2742 62.47 15.4967 62.4169 15.0176 62.5295 14.7602Z" fill="white"/><path opacity="0.2" d="M28.1954 73.0292C34.1686 73.0292 39.0109 68.1326 39.0109 62.0924 39.0109 56.0521 34.1686 51.1555 28.1954 51.1555 22.2221 51.1555 17.3799 56.0521 17.3799 62.0924 17.3799 68.1326 22.2221 73.0292 28.1954 73.0292Z" fill="url(#paint4_linear)"/><path fill-rule="evenodd" clip-rule="evenodd" d="M26.3433 70.3167C21.8677 69.3258 18.9337 64.8322 19.9632 60.2195 20.9431 55.6938 25.3869 52.7269 29.9483 53.7679 34.4239 54.7588 37.3579 59.2524 36.3284 63.8651 35.3485 68.3909 30.9543 71.2709 26.3433 70.3167Z" fill="url(#paint5_radial)"/><defs><linearGradient id="paint0_linear" x1="49.9872" y1="109.352" x2="49.9872" y2="-3.067" gradientUnits="userSpaceOnUse"><stop stop-color="#3C0289"/><stop offset="0.4887" stop-color="#4172DA"/><stop offset="0.9363" stop-color="#80C3FF"/></linearGradient><linearGradient id="paint1_linear" x1="49.9872" y1="109.352" x2="49.9872" y2="-3.067" gradientUnits="userSpaceOnUse"><stop stop-color="#3C0289"/><stop offset="0.4887" stop-color="#4172DA"/><stop offset="0.9363" stop-color="#80C3FF"/></linearGradient><linearGradient id="paint2_linear" x1="64.8534" y1="12.7209" x2="89.9626" y2="29.6271" gradientUnits="userSpaceOnUse"><stop stop-color="#EFC0D5"/><stop offset="1" stop-color="#C74ECE"/></linearGradient><radialGradient id="paint3_radial" cx="0" cy="0" r="1" gradientUnits="userSpaceOnUse" gradientTransform="translate(87.0785 29.3713) rotate(-147.181) scale(26.6798 26.8042)"><stop offset="0.682461" stop-color="#C74ECE"/><stop offset="1" stop-color="#EFC0D5"/></radialGradient><linearGradient id="paint4_linear" x1="20.0074" y1="74.9863" x2="31.5979" y2="57.0292" gradientUnits="userSpaceOnUse"><stop stop-color="#4172DA"/><stop offset="0.8216" stop-color="#8BECEF"/></linearGradient><radialGradient id="paint5_radial" cx="0" cy="0" r="1" gradientUnits="userSpaceOnUse" gradientTransform="translate(32.3188 68.5147) rotate(-118.535) scale(17.9191 17.8115)"><stop offset="0.57136" stop-color="#4172DA"/><stop offset="0.8216" stop-color="#8BECEF"/></radialGradient></defs></svg>