<svg width="358" height="197" viewBox="0 0 358 197" fill="none" xmlns="http://www.w3.org/2000/svg">
    <defs>
        <filter id="filter0_d" x="0" y="0" width="358" height="197" filterUnits="userSpaceOnUse" color-interpolation-filters="sRGB">
        <feFlood flood-opacity="0" result="BackgroundImageFix"/>
        <feColorMatrix in="SourceAlpha" type="matrix" values="0 0 0 0 0 0 0 0 0 0 0 0 0 0 0 0 0 0 127 0"/>
        <feOffset/>
        <feGaussianBlur stdDeviation="7.5"/>
        <feColorMatrix type="matrix" values="0 0 0 0 0.976471 0 0 0 0 0.47451 0 0 0 0 0.247059 0 0 0 0.8 0"/>
        <feBlend mode="normal" in2="BackgroundImageFix" result="effect1_dropShadow"/>
        <feBlend mode="normal" in="SourceGraphic" in2="effect1_dropShadow" result="shape"/>
        </filter>
        <linearGradient id="paint0_linear" x1="15" y1="182" x2="15" y2="15" gradientUnits="userSpaceOnUse">
        <stop stop-color="#F94D49"/>
        <stop offset="1" stop-color="#FAA835"/>
        </linearGradient>
        <clipPath id="clip0">
        <rect x="15" y="15" width="328" height="167" rx="8" fill="white"/>
        </clipPath>
    </defs>
    <g filter="url(#filter0_d)">
        <g clip-path="url(#clip0)">
        <rect x="15" y="15" width="328" height="167" rx="8" fill="url(#paint0_linear)"/>
        <path d="M24.802 47.4723C21.739 52.9501 15.9427 54.829 15.3301 54.829L15.3301 22.4953C15.3301 18.7468 17.4507 13.9971 22.3516 13.9971L69.523 13.9971C69.3188 14.8086 68.7878 16.6751 68.2978 17.6489C67.6851 18.8662 64.6221 22.518 62.7842 24.344C60.9464 26.1699 58.4959 27.9958 56.6581 28.6044C55.1878 29.0914 51.9613 28.4016 50.5319 27.9958C50.1235 29.0102 48.5715 31.5259 45.631 33.4736C38.7697 37.3689 32.9703 35.9081 30.9282 34.6908C30.5198 35.0966 29.2129 36.0299 27.2525 36.5168C27.2525 39.56 27.8651 41.9945 24.802 47.4723Z" fill="#F36E3E"/>
        <path d="M27.8649 36.5159C22.964 38.9505 20.5135 38.3418 15.6126 38.3418H15L15 18.8732C15 12.0565 21.6594 13.3874 24.3141 13.3874L46.2434 13.9962C46.2434 18.2567 45.0182 19.474 43.1803 21.9085C41.71 23.8562 38.892 24.7489 37.6668 24.9517C37.4626 25.9661 36.9316 28.2384 36.4415 29.2122C35.8289 30.4295 32.7659 34.0813 27.8649 36.5159Z" fill="#E95722"/>
        <path d="M15.3202 54.0961C15.2138 54.1073 15.107 54.1159 14.9997 54.1222C14.9997 54.3739 14.9997 54.6259 15.0208 54.8357C15.8446 54.7937 16.6473 54.6258 17.45 54.2481C20.6819 52.6951 23.5969 50.1768 25.4768 47.3017C27.6736 43.9439 28.3496 40.3762 27.3991 36.9765L26.6809 37.1863C26.8076 37.606 26.8921 38.0258 26.9555 38.4455C27.1033 38.5714 27.1878 38.7603 27.1456 39.0121C27.1223 39.0814 27.1055 39.1569 27.088 39.2354C27.0737 39.2996 27.059 39.3657 27.04 39.4318C27.0674 39.987 27.0504 40.539 26.9928 41.0855C26.8786 40.9325 26.7602 40.7863 26.6386 40.6494C26.5835 40.7862 26.5195 40.9229 26.4582 41.0538C26.4254 41.1239 26.3934 41.1922 26.364 41.258C26.5409 41.5041 26.703 41.7649 26.8503 42.0404C26.7854 42.377 26.7054 42.711 26.6114 43.042C26.4436 42.6498 26.2296 42.2843 25.9839 41.9503C25.9205 42.0761 25.8361 42.2228 25.7517 42.3696C26.0173 42.8032 26.2316 43.271 26.3797 43.7722C26.3279 43.9198 26.2734 44.0667 26.2162 44.2128C25.9989 43.7731 25.7138 43.3425 25.371 42.9365C25.2865 43.0624 25.1809 43.2093 25.0753 43.3562C25.435 43.8724 25.7001 44.4636 25.835 45.0945C25.6816 45.4183 25.5153 45.7377 25.3372 46.0522C25.2053 45.38 24.9569 44.818 24.4416 44.1745L24.4205 44.1535C24.3888 44.185 24.3624 44.2164 24.336 44.2479C24.3096 44.2794 24.2832 44.3109 24.2515 44.3423C24.7367 45.0654 25.0284 45.8845 24.8859 46.7998C24.5269 47.3593 24.1309 47.9008 23.7039 48.4209C23.674 47.448 23.3901 46.536 22.9207 45.7277C22.794 45.8536 22.6884 45.9585 22.5616 46.0635C22.9841 47.0708 23.0897 48.1831 22.8996 49.2534C22.8941 49.2847 22.8921 49.315 22.8931 49.3439C22.8302 49.411 22.7667 49.4777 22.7027 49.544C22.7099 48.5345 22.3889 47.5605 21.8651 46.6932C21.8123 46.7351 21.7647 46.7771 21.7172 46.8191C21.6697 46.8611 21.6222 46.903 21.5694 46.945C22.1103 47.9004 22.3662 48.988 22.0487 50.1898C21.7461 50.4748 21.4345 50.7503 21.1152 51.0154C21.4663 49.8919 21.3504 48.6736 20.7246 47.6166C20.657 47.6837 20.5809 47.7422 20.5016 47.8031C20.457 47.8374 20.4111 47.8727 20.3655 47.9104C20.8935 49.1486 20.8724 50.5337 19.9641 51.7929C19.9295 51.8445 19.911 51.8957 19.9056 51.9447C19.4202 52.2891 18.9225 52.6099 18.4165 52.9045C19.0139 51.6856 19.1807 50.3524 18.9076 49.0435C18.7597 49.1694 18.6119 49.2743 18.4641 49.3792C18.6753 50.9112 18.5274 52.4852 17.1966 53.4926C17.1484 53.53 17.1113 53.5699 17.0838 53.611C16.7726 53.7586 16.4615 53.8688 16.1483 53.9491C16.9751 52.7576 17.4436 51.7343 17.3868 50.1555C17.3801 50.0749 17.3755 49.9964 17.371 49.9194C17.3614 49.7559 17.3522 49.599 17.3235 49.442C17.2812 49.3371 17.2601 49.2322 17.2601 49.0852C17.0911 48.2458 16.7109 47.5113 15.9927 46.9447C15.866 46.8607 15.7181 47.0076 15.8237 47.1125C17.8093 48.8334 16.9855 52.4221 15.3801 54.017C15.3542 54.0427 15.3345 54.0693 15.3202 54.0961Z" fill="white"/>
        <path d="M19.8372 46.9452C19.119 45.9378 18.0418 45.1194 16.8377 44.7626C16.7744 44.7416 16.7744 44.6157 16.8589 44.6157C18.1685 44.7836 19.288 45.665 20.1118 46.7143L20.0592 46.7559C19.9772 46.8205 19.9072 46.8756 19.8372 46.9452Z" fill="white"/>
        <path d="M19.5235 42.8272C20.4503 43.4776 21.3535 44.1114 22.0126 45.0771C22.0399 45.0499 22.0696 45.0227 22.0999 44.9948C22.1633 44.9366 22.2301 44.8752 22.2872 44.8043C21.3789 43.6921 20.1326 42.7687 18.8018 42.1601C18.7385 42.1391 18.6751 42.223 18.7385 42.265C18.9987 42.4589 19.262 42.6437 19.5235 42.8272Z" fill="white"/>
        <path d="M20.6612 40.4602C21.9709 40.775 23.3228 41.4675 24.3367 42.4539C24.4211 42.349 24.5055 42.2233 24.5899 42.0974C23.4493 41.0481 21.992 40.3133 20.6824 40.3133C20.5979 40.3133 20.5767 40.4392 20.6612 40.4602Z" fill="white"/>
        <path d="M25.5402 40.3134C24.8008 39.5999 23.8925 39.0752 22.8998 38.8234C22.773 38.7814 22.8153 38.5925 22.9631 38.6135C24.0193 38.8234 24.9487 39.2221 25.7514 39.8097C25.717 39.8867 25.6896 39.9601 25.6635 40.0301C25.6255 40.1319 25.5902 40.2263 25.5402 40.3134Z" fill="white"/>
        <path d="M18.0414 47.4066L18.2315 48.1621C18.3371 48.0782 18.4427 47.9942 18.5695 47.9103C18.485 47.7004 18.4005 47.5116 18.2949 47.3017C18.2104 47.1548 17.9991 47.2597 18.0414 47.4066Z" fill="white"/>
        <path d="M18.2321 43.839C19.1826 44.4266 20.1754 45.1612 20.9147 46.0426C21.0203 45.9586 21.126 45.8747 21.2316 45.8117C20.4289 44.8883 19.415 44.1328 18.3377 43.6711C18.211 43.6082 18.1265 43.7761 18.2321 43.839Z" fill="white"/>
        <path d="M22.0126 42.2229C22.5196 42.5796 23.0688 42.9994 23.5335 43.482C23.5546 43.4611 23.5757 43.4348 23.5969 43.4086C23.618 43.3824 23.6391 43.3561 23.6602 43.3351C23.1744 42.8734 22.6252 42.4957 22.0337 42.1809C22.0126 42.1599 21.9915 42.2019 22.0126 42.2229Z" fill="white"/>
        <path d="M23.1741 40.1034C23.8923 40.4182 24.5048 40.8589 25.0118 41.4045C25.0751 41.2997 25.1386 41.1946 25.1808 41.1107C24.6105 40.6071 23.9556 40.2293 23.2163 40.0195C23.1529 39.9985 23.1318 40.0824 23.1741 40.1034Z" fill="white"/>
        <path d="M61.4288 25.3719C61.4829 25.3269 61.537 25.2815 61.5908 25.2359C61.2161 25.0936 60.8686 24.9218 60.5211 24.7204C60.5634 24.6785 60.6056 24.6155 60.6479 24.5316C61.0842 24.6876 61.5349 24.815 61.9763 24.9019C62.2544 24.6557 62.5279 24.4019 62.7963 24.1412C62.2986 23.9008 61.8009 23.6916 61.3033 23.4824C61.3666 23.4194 61.4088 23.3355 61.4511 23.2516C62.0003 23.4405 62.5495 23.5873 63.0987 23.6503C63.156 23.6577 63.2035 23.6741 63.2422 23.697C63.4601 23.4744 63.6745 23.2471 63.885 23.0155C63.7783 22.9738 63.6717 22.9323 63.5651 22.8909C63.0451 22.6886 62.5276 22.4872 62.0211 22.2652C62.0388 22.2359 62.0566 22.2082 62.0739 22.1812C62.1183 22.1117 62.1597 22.047 62.1901 21.9714C62.8674 22.2485 63.5447 22.4696 64.2398 22.6171C64.5907 22.2147 64.9303 21.8003 65.2576 21.3752C64.3997 21.251 63.5741 21.0767 62.7806 20.8384L62.9707 20.4607C63.8157 20.7335 64.7029 20.8594 65.6323 20.7755C65.6583 20.7729 65.6827 20.7733 65.7055 20.7762C65.8694 20.5505 66.0298 20.3222 66.1866 20.0913C65.2472 20.0325 64.3205 19.7846 63.3938 19.5367C63.4149 19.4948 63.436 19.4475 63.4571 19.4003C63.4782 19.3531 63.4994 19.3059 63.5205 19.2639C64.5024 19.498 65.466 19.6777 66.4792 19.6513C66.6325 19.4157 66.782 19.1778 66.9277 18.9377C66.6103 18.8772 66.2947 18.8247 65.9808 18.7725C65.2791 18.6558 64.586 18.5405 63.9015 18.3404C63.9226 18.2775 63.949 18.2145 63.9754 18.1516C64.0018 18.0886 64.0282 18.0256 64.0493 17.9627C65.113 18.2735 66.2179 18.4616 67.242 18.4056C67.5191 17.9238 67.7805 17.434 68.0251 16.9378C67.6357 17.0704 67.2293 17.0641 66.7904 17.0039C66.1823 16.9176 65.5842 16.8116 64.9892 16.7062C64.7161 16.6577 64.4436 16.6094 64.1711 16.5632C64.1922 16.4793 64.2134 16.3953 64.2345 16.3324C64.8062 16.373 65.3977 16.3939 65.9707 16.4142L66.03 16.4163L66.1661 16.4248C66.8297 16.4669 67.5679 16.5138 68.1212 16.1015C68.2314 16.0177 68.3437 16.0171 68.4353 16.0643C68.7391 15.3839 69.0109 14.6937 69.2479 13.9974L69.8574 13.9974C68.3154 18.5305 65.5478 22.9375 61.8723 25.9595C60.3303 27.2187 58.9785 28.0372 57.5843 28.4779C55.6199 29.1285 53.3174 29.1285 50.5503 28.5199L50.7193 27.7853C52.6636 28.218 54.3559 28.3207 55.8469 28.1102C55.3858 27.8738 54.9574 27.5873 54.5221 27.2389C54.4588 27.1969 54.5433 27.092 54.6066 27.134C55.1498 27.5101 55.8341 27.8098 56.5096 27.9932C56.8055 27.9302 57.0932 27.8538 57.3731 27.7644C57.5494 27.7078 57.7253 27.6453 57.9013 27.5763C56.5569 27.07 55.3167 26.5201 54.2475 25.4759C54.2053 25.4339 54.2475 25.3709 54.2898 25.4129C55.5279 26.2195 56.961 27.0842 58.4579 27.3368C58.6806 27.2325 58.9043 27.1175 59.1297 26.9912C58.73 26.8002 58.3657 26.4962 58.0131 26.2019C57.8404 26.0577 57.6704 25.9159 57.5004 25.7908C57.4371 25.7278 57.4793 25.6229 57.5638 25.6649C57.7642 25.7644 57.9814 25.8534 58.2022 25.9439C58.6798 26.1396 59.1738 26.3421 59.5494 26.6722C59.5658 26.6864 59.579 26.7025 59.5892 26.7197C59.953 26.4937 60.3231 26.2381 60.7031 25.9503C60.4947 25.8789 60.2865 25.8118 60.0791 25.745C59.5119 25.5623 58.951 25.3816 58.4083 25.119C57.5845 24.6992 56.9086 24.1536 56.2327 23.545C56.1482 23.461 56.2749 23.2722 56.3805 23.3561C57.6479 24.3215 59.4645 25.3078 61.0487 25.4337C61.137 25.4417 61.2032 25.4739 61.2497 25.5198C61.3091 25.4713 61.3688 25.422 61.4288 25.3719Z" fill="white"/>
        <path d="M56.5291 20.8589C57.6486 21.9082 58.9372 22.5168 60.2679 23.0624C60.3313 22.9785 60.3735 22.8946 60.4158 22.8106C59.4969 22.3689 58.6092 21.8135 57.76 21.2822C57.3989 21.0563 57.0447 20.8347 56.6981 20.628C56.5713 20.5441 56.4024 20.754 56.5291 20.8589Z" fill="white"/>
        <path d="M57.6907 17.963C58.9158 19.0962 60.2677 19.9147 61.7252 20.4813C61.7886 20.3344 61.852 20.2085 61.9365 20.0826C60.8679 19.6072 59.8476 18.9644 58.8481 18.3348C58.5238 18.1304 58.2016 17.9275 57.8808 17.7321C57.7329 17.6272 57.5639 17.8371 57.6907 17.963Z" fill="white"/>
        <path d="M62.8445 17.984C61.9573 17.6272 61.1124 17.1865 60.2886 16.6619C60.1196 16.5569 60.2675 16.2841 60.4365 16.389C61.1969 16.8297 62.0841 17.2495 62.9924 17.6062C62.9713 17.6692 62.9449 17.7321 62.9185 17.7951C62.8921 17.858 62.8656 17.921 62.8445 17.984Z" fill="white"/>
        <path d="M59.6971 21.1108C60.1196 21.3836 60.5632 21.6145 61.0068 21.8243C61.049 21.7194 61.1124 21.6145 61.1758 21.5305C60.7113 21.3208 60.2678 21.111 59.8244 20.9012C59.6766 20.8173 59.5493 21.0269 59.6971 21.1108Z" fill="white"/>
        <path d="M46.9504 31.9003C46.7211 32.0833 46.4831 32.2624 46.236 32.4375C45.3632 32.2296 44.5389 31.864 43.7482 31.4151C43.6426 31.4781 43.5581 31.541 43.4736 31.604C44.2201 32.0254 45.0075 32.3791 45.8249 32.7195L45.7981 32.7372C45.6589 32.8297 45.518 32.9198 45.3755 33.0075C45.3564 32.9992 45.3353 32.9929 45.3121 32.9888C44.425 32.8419 43.5378 32.5481 42.714 32.1284C42.5872 32.1913 42.4816 32.2753 42.376 32.3592C43.0885 32.784 43.8612 33.1192 44.6939 33.4026C44.4352 33.5435 44.172 33.6772 43.9047 33.8035C43.8895 33.7969 43.873 33.7912 43.8552 33.7865C43.1158 33.5977 42.3977 33.1779 41.7006 32.7582C41.6654 32.7792 41.6278 32.8002 41.5903 32.8212C41.5152 32.8631 41.4401 32.9051 41.3837 32.9471C41.5316 33.073 41.7006 33.1989 41.8907 33.3038C42.1142 33.4354 42.3474 33.5573 42.5814 33.6797C42.8241 33.8065 43.0677 33.9338 43.3022 34.0729C43.1559 34.1347 43.0085 34.1943 42.8601 34.2518C42.8364 34.2397 42.8088 34.2311 42.7771 34.2272C42.08 34.1433 41.4675 33.7865 40.8549 33.4297C40.8021 33.3982 40.7546 33.372 40.707 33.3458C40.6595 33.3196 40.612 33.2933 40.5592 33.2618C40.3268 33.2828 40.1367 33.1359 40.0522 32.947C39.6509 32.7162 39.2707 32.4644 38.9116 32.1706C38.8271 32.1076 38.7003 32.2125 38.7848 32.2965C39.745 33.1784 40.7673 34.0913 41.9984 34.5583C41.7693 34.6327 41.5382 34.7022 41.3053 34.7668C40.2391 34.4005 39.3886 33.718 38.5737 32.947C38.4506 32.8297 38.3237 32.6902 38.1918 32.5452C37.781 32.0933 37.322 31.5886 36.7782 31.5409C36.7782 31.5409 36.7571 31.5619 36.7782 31.5619C36.8135 31.9124 36.9519 32.0434 37.181 32.2603C37.2263 32.3032 37.2752 32.3494 37.3275 32.4014C37.4157 32.4891 37.504 32.5776 37.5926 32.6664C37.9492 33.0241 38.3114 33.3874 38.7005 33.7235C39.2611 34.2091 39.8512 34.6461 40.5039 34.9684C40.1891 35.0395 39.8717 35.1019 39.5521 35.1556C39.5257 35.143 39.4951 35.134 39.4603 35.1296C38.8721 35.0781 38.2271 34.5056 37.7229 34.058C37.6115 33.9591 37.5069 33.8662 37.4113 33.7865C36.8833 33.3458 36.3551 32.9051 35.8693 32.4014C35.7848 32.2965 35.637 32.4434 35.7215 32.5273C36.3129 33.2199 36.9255 33.8914 37.6226 34.4791C37.6799 34.5289 37.7384 34.5807 37.798 34.6335L37.7991 34.6345C38.0512 34.8577 38.3235 35.0989 38.6143 35.2872C38.0712 35.3487 37.5235 35.3853 36.9738 35.3968C36.6231 35.2359 36.2866 34.9936 36.0182 34.7936C35.4479 34.3949 34.962 33.8912 34.5607 33.3246C34.4973 33.2616 34.3917 33.3246 34.4551 33.3875C34.8775 34.0801 35.3845 34.6887 36.0182 35.1923C36.0557 35.2221 36.102 35.2607 36.1553 35.3051C36.172 35.319 36.1898 35.3338 36.2077 35.3487C36.2268 35.3646 36.2466 35.3809 36.2669 35.3977C34.4235 35.3639 32.5693 35.0473 30.8006 34.4371L30.5683 35.1296C35.828 36.9554 41.8269 36.2839 46.2206 33.3458C52.0295 29.4844 53.3602 23.4194 53.8672 17.9839L53.1279 17.942C53.0764 18.4803 53.018 19.0194 52.9495 19.5574C52.8508 19.5229 52.7405 19.5093 52.6422 19.4973C52.6348 19.4963 52.6274 19.4954 52.6201 19.4945C52.209 19.4362 51.804 19.4299 51.4056 19.4237C50.5144 19.4099 49.6565 19.3966 48.8391 18.802C48.7757 18.76 48.7123 18.8649 48.7546 18.9069C49.6872 19.7957 50.6884 19.8495 51.8664 19.9129C51.9958 19.9199 52.1272 19.9269 52.261 19.9352C52.4481 19.943 52.5978 20.005 52.7335 20.0613C52.7819 20.0814 52.8286 20.1007 52.8745 20.1166C52.7371 21.088 52.5627 22.0539 52.3316 23.003C52.1301 23.0207 51.9119 23.0195 51.7126 22.9997C51.6703 23.1468 51.6281 23.2939 51.5647 23.4411C51.778 23.4737 51.9913 23.4937 52.2046 23.501C52.0845 23.951 51.9506 24.3967 51.801 24.837L51.6912 24.8102C51.4799 24.7589 51.2687 24.7075 51.0575 24.6374C51.0252 24.6696 51.0053 24.7139 50.9882 24.7518C50.983 24.7634 50.9779 24.7748 50.973 24.7846C50.9624 24.8056 50.9519 24.8213 50.9413 24.8371C50.9307 24.8529 50.9202 24.8686 50.9096 24.8896C51.1555 25.0038 51.4141 25.1053 51.6756 25.1942C51.5925 25.4235 51.5049 25.6512 51.4125 25.8772C51.0583 25.8466 50.715 25.7822 50.3824 25.707L50.3374 25.77C50.2517 25.8904 50.1769 25.9955 50.0867 26.0853C50.4625 26.1822 50.8475 26.2518 51.2356 26.294C51.136 26.5201 51.0312 26.7444 50.9211 26.9666C50.888 26.9322 50.8417 26.908 50.7828 26.9031C50.4026 26.8821 49.9802 26.819 49.5366 26.735C49.431 26.8611 49.3042 26.9872 49.1564 27.1343C49.6897 27.2567 50.2428 27.3197 50.7385 27.3233C50.6281 27.5323 50.5126 27.7394 50.3918 27.9444C49.8143 27.9117 49.2666 27.7745 48.7348 27.5741C48.6292 27.6581 48.5236 27.763 48.4391 27.8679C48.9831 28.0645 49.5399 28.2482 50.0996 28.4192L50.0483 28.4985C50.0284 28.4889 50.006 28.4816 49.9809 28.4769C49.3894 28.351 48.798 28.225 48.1643 28.0781C48.0798 28.1831 47.9742 28.267 47.8474 28.351C48.1748 28.4664 48.5075 28.5661 48.8402 28.6658C49.1424 28.7563 49.4445 28.8468 49.7427 28.9491C49.58 29.1795 49.4093 29.4067 49.2303 29.6304C48.4806 29.522 47.7333 29.3404 47.0229 29.0856L46.6427 29.4003C47.3462 29.6974 48.0938 29.9217 48.8608 30.0733C48.6805 30.2807 48.4924 30.4849 48.2962 30.6855C48.2762 30.6745 48.2532 30.6655 48.2271 30.6591C47.4456 30.4492 46.664 30.2393 45.9247 29.9455C45.8619 29.9955 45.799 30.038 45.7407 30.0775C45.7009 30.1044 45.6632 30.1299 45.629 30.1554C46.0546 30.3497 46.499 30.5128 46.9417 30.6754C47.2731 30.7971 47.6035 30.9184 47.9244 31.0521C47.7895 31.1804 47.6511 31.307 47.509 31.4321C47.4835 31.4237 47.4554 31.4177 47.4246 31.4148C46.5163 31.3518 45.6925 31.058 44.8898 30.6593C44.8687 30.6698 44.8476 30.6855 44.8265 30.7013C44.8054 30.717 44.7842 30.7328 44.7631 30.7432C44.7306 30.7594 44.698 30.7787 44.6643 30.7987C44.6104 30.8306 44.5534 30.8644 44.4885 30.8901C45.2629 31.3115 46.0695 31.6528 46.9504 31.9003Z" fill="white"/>
        <path d="M41.3621 31.6457C40.9819 31.3309 40.6017 30.9951 40.2426 30.6174C40.1792 30.5544 40.2848 30.4495 40.3482 30.5125C40.7495 30.8692 41.172 31.184 41.6156 31.4778" fill="white"/>
        <path d="M41.3621 31.6457C41.4465 31.6038 41.5309 31.5409 41.6156 31.4778Z" fill="white"/>
        <path d="M43.6645 30.0929C43.6 30.125 43.5354 30.1693 43.4803 30.2071C43.4633 30.2188 43.4471 30.2299 43.4322 30.2398C42.3971 29.5473 41.4466 28.7288 40.5172 27.8054C40.4538 27.7424 40.5383 27.6165 40.6228 27.6795C40.9844 27.9434 41.346 28.2202 41.7103 28.499C42.3888 29.0183 43.0766 29.5447 43.7913 30.0089C43.749 30.0509 43.7068 30.0719 43.6645 30.0929Z" fill="white"/>
        <path d="M45.5021 28.8338C44.7628 28.4141 44.0446 27.9104 43.3898 27.3018C43.3264 27.2389 43.4109 27.092 43.4954 27.1549C44.2347 27.7006 44.9952 28.1833 45.819 28.582L45.5021 28.8338Z" fill="white"/>
        <path d="M47.2976 27.3645C46.4315 26.9658 45.5866 26.4621 44.805 25.8325C44.6994 25.7486 44.8261 25.6227 44.9318 25.6646C45.4553 25.8945 45.9718 26.1731 46.4894 26.4523C46.8698 26.6575 47.2508 26.8631 47.6355 27.0497C47.5088 27.1757 47.4032 27.2806 47.2976 27.3645Z" fill="white"/>
        <path d="M48.9461 25.7275C47.7843 25.2449 46.707 24.5313 45.7565 23.7129C45.672 23.6499 45.7776 23.524 45.8621 23.566C46.2078 23.7533 46.5441 23.9462 46.8767 24.137C47.6616 24.5872 48.4259 25.0255 49.2418 25.3498C49.1573 25.4757 49.0517 25.6016 48.9461 25.7275Z" fill="white"/>
        <path d="M50.4454 23.2304C49.347 22.9366 48.3331 22.3909 47.4459 21.6144C47.3191 21.5095 47.4881 21.3626 47.6149 21.4466C48.502 22.1391 49.516 22.6218 50.5933 22.8526C50.551 22.9785 50.5088 23.1045 50.4454 23.2304Z" fill="white"/>
        <path d="M49.8961 24.4059C49.6639 24.2799 49.4315 24.1538 49.1993 24.0067C49.1359 23.9647 49.1993 23.8596 49.2626 23.9016C49.495 24.0277 49.7274 24.1328 49.9808 24.2379C49.9661 24.2819 49.9411 24.3258 49.9202 24.3627C49.9111 24.3787 49.9025 24.3932 49.8961 24.4059Z" fill="white"/>
        <path d="M46.3046 25.308C46.7059 25.9166 47.3185 26.3783 48.0155 26.7141C48.1211 26.6091 48.2268 26.5042 48.3324 26.4203C47.5931 26.1474 46.9171 25.7697 46.4524 25.2031C46.389 25.1191 46.2412 25.224 46.3046 25.308Z" fill="white"/>
        <path d="M46.6636 27.9104C46.0087 27.6166 45.4173 27.2598 44.8681 26.7352C44.847 26.7142 44.8681 26.6932 44.8892 26.6932C45.4807 27.1339 46.1777 27.4487 46.8959 27.7005C46.8665 27.7297 46.8325 27.759 46.7961 27.7903C46.7542 27.8264 46.7088 27.8655 46.6636 27.9104Z" fill="white"/>
        <path d="M44.4673 29.5681C43.7914 29.1065 43.221 28.5188 42.6718 27.9102C42.6296 27.8473 42.6929 27.7843 42.7563 27.8263L42.8848 27.9414C43.4736 28.469 44.0527 28.988 44.7419 29.3793C44.6575 29.4422 44.5729 29.5052 44.4673 29.5681Z" fill="white"/>
        <path d="M41.1086 29.9881C41.531 30.3449 41.9535 30.6597 42.3971 30.9535C42.4816 30.8906 42.5661 30.8276 42.6506 30.7856C42.1647 30.4708 41.6789 30.177 41.1931 29.8832C41.1297 29.8412 41.0452 29.9252 41.1086 29.9881Z" fill="white"/>
        <path d="M26.4067 22.4329C27.2939 23.755 28.4346 24.7833 29.7865 25.5808C29.8287 25.5179 29.871 25.4549 29.8921 25.371C28.5613 24.6574 27.4629 23.6291 26.5757 22.328C26.5124 22.223 26.3223 22.328 26.4067 22.4329Z" fill="white"/>
        <path d="M18.8788 38.1571C17.9975 38.1484 17.1078 38.0852 16.2174 37.9677C16.204 37.944 16.1857 37.9211 16.1618 37.8994C15.9053 37.6628 15.617 37.4735 15.3383 37.2906C15.2956 37.2626 15.2532 37.2347 15.2112 37.2069C15.2218 37.3328 15.2271 37.464 15.2323 37.5951C15.2353 37.6694 15.2383 37.7438 15.2423 37.8172L15.2321 37.8154C15.2533 38.0672 15.2533 38.34 15.2533 38.5709C19.2456 39.2634 23.2801 38.8647 26.7021 37.4166C28.0533 36.8605 29.3869 36.1115 30.8963 35.0737C30.9529 35.0561 30.9978 35.0229 31.031 34.9807C31.1292 34.9125 31.2282 34.843 31.3281 34.7724C32.9296 33.6389 34.2299 32.508 35.2342 31.37C35.327 31.3496 35.382 31.271 35.3992 31.1797C37.1793 29.0927 37.966 26.9801 37.7918 24.783L37.0524 24.8459C37.1169 25.6514 37.0353 26.4488 36.8056 27.2411C36.0809 27.2447 35.3721 27.1444 34.6449 27.0077C34.6238 27.0497 34.6026 27.0708 34.5815 27.0917C34.4759 27.1966 34.3492 27.3225 34.2436 27.4484C35.0174 27.6809 35.7913 27.8371 36.5782 27.9043C36.4089 28.332 36.1959 28.7586 35.939 29.1844C35.0095 29.1358 34.0994 28.9925 33.2087 28.7914C33.1454 28.8753 33.0874 28.9591 33.0294 29.0429C32.9713 29.1269 32.913 29.2112 32.8496 29.2951C33.7235 29.5431 34.6274 29.7014 35.5487 29.7826C35.3059 30.129 35.0337 30.475 34.7321 30.821C33.795 30.7928 32.86 30.6714 31.9409 30.4705C31.9092 30.5125 31.8723 30.5492 31.8353 30.586C31.7984 30.6227 31.7614 30.6594 31.7297 30.7014C32.5676 30.9575 33.4301 31.1526 34.3172 31.2773C34.0712 31.5371 33.8086 31.797 33.5293 32.0569C32.4389 32.0339 31.3009 31.9815 30.218 31.7468C30.1758 31.7887 30.1283 31.8307 30.0807 31.8727C30.0332 31.9146 29.9857 31.9566 29.9434 31.9986C29.8801 32.0615 29.8167 32.1035 29.7533 32.1455C30.7567 32.4396 31.8369 32.5556 32.8842 32.6322C32.6418 32.8397 32.3887 33.0474 32.1249 33.2552C31.214 33.1286 30.364 32.9214 29.5547 32.6534C29.4068 32.7583 29.259 32.8632 29.1111 32.9892C29.9481 33.2722 30.8 33.4807 31.6417 33.6272C31.4042 33.8059 31.1589 33.9847 30.9056 34.1638C30.7616 34.266 30.6191 34.3655 30.478 34.4625C29.5026 34.4528 28.5925 34.2298 27.7167 33.8704C27.5055 33.9963 27.2942 34.1012 27.083 34.2061C27.9126 34.5888 28.7525 34.8889 29.6392 35.0195C29.3054 35.2333 28.9783 35.4327 28.6564 35.6192C27.7338 35.4358 26.8429 35.133 25.9836 34.7515C25.8886 34.7935 25.7935 34.8302 25.6985 34.867C25.6034 34.9037 25.5084 34.9404 25.4133 34.9824C26.2381 35.3763 27.1224 35.6993 28.0304 35.969C27.9898 35.9909 27.9493 36.0125 27.9089 36.0339C25.7617 36.2979 23.8038 35.1884 22.0978 33.912C22.0133 33.9539 21.9499 33.9959 21.8866 34.0379C23.3642 35.2937 24.9018 36.2811 26.8156 36.5731C26.6859 36.6323 26.5566 36.6895 26.4275 36.7451C26.2397 36.8242 26.0501 36.8999 25.8586 36.9724C23.9656 36.5928 22.3031 35.7554 20.7664 34.6888C20.7137 34.7202 20.6611 34.7464 20.6084 34.7725C20.5556 34.7988 20.5024 34.8252 20.4496 34.8567C21.8347 35.8842 23.4135 36.639 25.0309 37.2613C24.6645 37.3789 24.2923 37.4849 23.9151 37.5793C22.2589 37.2128 20.8107 36.3615 19.4783 35.3186C19.3516 35.3815 19.2248 35.4445 19.0981 35.4865C20.2045 36.438 21.4013 37.2614 22.7793 37.8261C22.034 37.964 21.2728 38.059 20.5013 38.111C19.0695 37.8343 17.4447 37.1247 16.3726 36.1156L15.7389 36.1156C15.7519 36.1156 15.7569 36.1236 15.7638 36.1347C15.7681 36.1416 15.773 36.1496 15.7811 36.1576C16.4991 37.003 17.6774 37.6905 18.8788 38.1571Z" fill="white"/>
        <path d="M16.9222 33.4298C17.3235 33.8495 17.746 34.2692 18.1684 34.668C18.2952 34.626 18.4219 34.584 18.5064 34.5211C18.1867 34.2449 17.8762 33.9596 17.5687 33.6772C17.4092 33.5306 17.2499 33.3843 17.0912 33.2409C16.9855 33.136 16.8165 33.3039 16.9222 33.4298Z" fill="white"/>
        <path d="M22.4354 30.7434C22.6889 31.1631 22.9635 31.5199 23.3015 31.8347C23.407 31.7717 23.5127 31.7087 23.5972 31.6458C23.2381 31.331 22.9213 30.9952 22.6678 30.5965C22.5833 30.4496 22.3509 30.5965 22.4354 30.7434Z" fill="white"/>
        <path d="M25.8572 33.5761C26.0473 33.4922 26.2586 33.3873 26.4487 33.2823C26.417 33.2718 26.3906 33.2561 26.3642 33.2404C26.3378 33.2246 26.3114 33.2089 26.2797 33.1984C25.7305 32.9256 25.1602 32.6318 24.6109 32.317C24.5476 32.3589 24.479 32.4009 24.4103 32.4428C24.3417 32.4848 24.273 32.5268 24.2096 32.5688C24.7166 32.9465 25.2869 33.2613 25.8572 33.5761Z" fill="white"/>
        <path d="M28.9201 31.7294C28.2653 31.4146 27.6316 31.0369 27.019 30.6172L27.3359 30.3653C27.7583 30.6382 28.2019 30.89 28.6455 31.1208C28.8567 31.2258 29.0891 31.3307 29.3215 31.4146C29.2581 31.4671 29.1894 31.5196 29.1208 31.572C29.0521 31.6245 28.9835 31.677 28.9201 31.7294Z" fill="white"/>
        <path d="M24.41 28.6059L24.2517 28.4766C24.2094 28.4346 24.2728 28.3716 24.315 28.3926C24.653 28.613 24.9909 28.8385 25.3289 29.0641C25.6668 29.2897 26.0049 29.5154 26.3429 29.7357C26.2584 29.7987 26.1739 29.8616 26.0894 29.9456C25.5121 29.5059 24.9522 29.0487 24.41 28.6059Z" fill="white"/>
        <path d="M28.6246 27.3852C27.9275 26.9025 27.2516 26.3569 26.6179 25.7273C26.5545 25.6643 26.639 25.5804 26.7024 25.6433C27.3783 26.168 28.0965 26.6507 28.8358 27.0914C28.8102 27.1254 28.7845 27.1628 28.7574 27.2023C28.7177 27.2603 28.6749 27.3228 28.6246 27.3852Z" fill="white"/>
        <path d="M31.6672 28.9174C30.949 28.6446 30.2519 28.3298 29.576 27.952C29.6182 27.8891 29.6605 27.8313 29.7027 27.7736C29.745 27.7159 29.7872 27.6582 29.8295 27.5952C30.5265 27.931 31.2658 28.2248 32.0051 28.4767C31.8784 28.6236 31.7728 28.7705 31.6672 28.9174Z" fill="white"/>
        <path d="M33.0821 27.0916C32.3005 26.7978 31.519 26.462 30.7797 26.1053C30.8008 26.0633 30.8272 26.0213 30.8536 25.9793C30.88 25.9374 30.9064 25.8954 30.9275 25.8534C30.9698 25.8744 31.012 25.8902 31.0543 25.9059C31.0965 25.9216 31.1388 25.9374 31.181 25.9584C31.8992 26.2312 32.6596 26.504 33.4201 26.7139C33.2933 26.8398 33.1877 26.9657 33.0821 27.0916Z" fill="white"/>
        <path d="M28.8992 29.5889C29.4273 29.8617 29.9765 30.0926 30.5257 30.3025C30.5891 30.2395 30.6313 30.1975 30.6736 30.1346C30.0821 29.9667 29.5118 29.7568 28.9415 29.505C28.8992 29.463 28.8359 29.5679 28.8992 29.5889Z" fill="white"/>
        <path d="M24.886 30.8062C24.2734 30.3445 23.7031 29.8199 23.2173 29.2532C23.175 29.2113 23.2384 29.1273 23.2806 29.1693C23.9355 29.652 24.5903 30.1137 25.2662 30.5544L24.886 30.8062Z" fill="white"/>
        <path d="M25.8787 31.4775C26.4913 31.8552 27.1673 32.191 27.8432 32.4848C27.8997 32.4447 27.9594 32.4076 28.0197 32.3701C28.1172 32.3096 28.2166 32.2478 28.3079 32.17C27.632 31.8762 26.956 31.5404 26.3012 31.1627C26.2273 31.2152 26.1586 31.2676 26.09 31.3201C26.0214 31.3725 25.9526 31.425 25.8787 31.4775Z" fill="white"/>
        <path d="M21.4213 31.8137C21.3157 31.7087 21.1891 31.8558 21.2736 31.9607C21.5059 32.2125 21.7382 32.4643 21.9916 32.6951C22.0444 32.6636 22.0919 32.6322 22.1394 32.6007L22.1492 32.5942C22.1935 32.5649 22.238 32.5354 22.2872 32.5061C21.9915 32.2753 21.6958 32.0445 21.4213 31.8137Z" fill="white"/>
        <path d="M24.6741 34.0797C24.5051 34.1427 24.3784 34.2686 24.3362 34.4155C23.8292 34.1217 23.3223 33.7859 22.8575 33.4292C22.9209 33.3872 22.9896 33.3452 23.0582 33.3032C23.1269 33.2613 23.1955 33.2193 23.2589 33.1773C23.7025 33.5131 24.1883 33.8069 24.6741 34.0797Z" fill="white"/>
        <path d="M19.5205 34.1221C19.3304 33.9542 19.1403 33.7863 18.9713 33.5974C18.8869 33.4925 19.0136 33.3666 19.1192 33.4505C19.3516 33.6394 19.5626 33.8074 19.7949 33.9753C19.7105 34.0172 19.6261 34.0592 19.5205 34.1221Z" fill="white"/>
        <path d="M45.6296 13.5976L46.3267 13.3877C47.5752 17.671 44.4277 22.545 40.6446 24.4555C40.6089 24.4895 40.5665 24.509 40.5219 24.5164C40.2485 24.6493 39.9721 24.7667 39.694 24.8672C37.4549 25.6646 33.7795 25.7276 31.0546 24.2586C29.5126 23.4191 28.4987 22.2019 28.1184 20.7119L28.8366 20.523C28.9559 20.9824 29.1411 21.4077 29.3911 21.7982C29.9668 21.6734 30.3915 21.2841 30.7803 20.8591C30.8878 20.7422 31.0052 20.624 31.125 20.5034C31.4996 20.1262 31.8979 19.7253 32.09 19.2642C32.1745 19.0543 32.4702 19.1172 32.4068 19.3271C32.2147 20.0141 31.7082 20.4929 31.205 20.9686C31.1548 21.016 31.1047 21.0634 31.0549 21.1109C30.5958 21.5488 30.1686 21.8757 29.6067 22.1053C29.8896 22.4743 30.2362 22.8087 30.6456 23.1074L30.6536 23.1041C31.6523 22.7005 32.1762 21.5018 32.6276 20.4691C32.7395 20.2131 32.8469 19.9673 32.956 19.7463C33.0194 19.6414 33.2306 19.7253 33.1883 19.8513C32.8314 21.1909 32.2883 22.623 31.0873 23.4011C31.1927 23.465 31.3015 23.527 31.4137 23.587C31.513 23.6405 31.6137 23.6917 31.7156 23.7409C31.6968 23.6674 31.7217 23.5874 31.8155 23.5451C32.6765 23.1378 33.239 21.7027 33.5804 20.8319L33.611 20.7539C33.6303 20.6771 33.6939 20.6486 33.7531 20.6564L33.763 20.6165C33.7758 20.5643 33.7887 20.5123 33.8008 20.4603C33.8641 20.1035 33.9064 19.7467 33.9275 19.39C33.9064 19.285 34.0543 19.285 34.0543 19.39L34.0493 19.5423C34.0312 20.1268 34.009 20.8388 33.7374 21.3207C33.7299 21.3355 33.7172 21.3425 33.7038 21.3435C33.388 22.3111 32.8785 23.468 32.0138 23.877C32.2013 23.958 32.3923 24.0322 32.5861 24.0999C32.6937 23.9308 32.8348 23.7719 32.9744 23.6145C33.1059 23.4663 33.2362 23.3195 33.3358 23.1672C33.4112 23.0573 33.489 22.9475 33.5672 22.8371C33.8176 22.4834 34.0721 22.124 34.2653 21.7401C34.2653 21.6981 34.392 21.7611 34.3709 21.8241L34.3246 21.9678C34.1521 22.5041 33.9859 23.0212 33.6949 23.5029C33.6573 23.5621 33.6184 23.6263 33.5777 23.6933C33.4606 23.8861 33.3298 24.1016 33.1785 24.2845C33.3415 24.3294 33.5059 24.3702 33.6712 24.4068C34.9252 23.7348 35.6411 21.8231 35.7229 20.502C35.7018 20.418 35.8285 20.418 35.8285 20.481C35.771 21.9274 35.0708 23.3911 34.1217 24.4964C34.4799 24.5595 34.8406 24.6045 35.1995 24.6326C35.2099 24.6194 35.2224 24.6067 35.237 24.5945C36.441 23.4823 37.3282 22.0342 37.117 20.3344C37.117 20.2714 37.2437 20.2504 37.2437 20.3134C37.5183 21.9894 36.8821 23.4121 35.8426 24.6654C36.1801 24.6734 36.5136 24.6671 36.8394 24.6477C37.6132 23.6708 37.9437 22.3169 37.9829 21.0896C37.9617 20.9427 38.1519 20.9427 38.173 21.0896C38.221 22.2665 37.8444 23.1662 37.4385 24.1358C37.3724 24.2938 37.3055 24.4537 37.2395 24.6169C37.6773 24.5756 38.0978 24.5105 38.4916 24.4248C38.9859 23.4588 39.5033 22.3587 39.4828 21.2784C39.4653 20.3023 39.0397 19.3407 38.6419 18.4416C38.5607 18.2582 38.4807 18.0774 38.4055 17.8996C38.3633 17.7737 38.49 17.6898 38.5534 17.7947C39.1871 18.802 39.7363 19.8513 39.7997 21.0685C39.8447 21.9776 39.5595 22.8337 39.2769 23.682C39.211 23.8799 39.1452 24.0772 39.0838 24.2748C39.214 24.2368 39.34 24.1963 39.4616 24.1536C39.7754 24.0428 40.0877 23.9069 40.396 23.7486C41.2909 22.4042 41.0337 20.6052 40.4758 19.1797C40.4124 19.0328 40.6025 18.9699 40.687 19.0748C41.6379 20.3907 41.5923 21.8966 41.1209 23.3306C41.4045 23.1488 41.6828 22.9488 41.9534 22.7326L41.9539 22.7266C42.144 21.5304 42.2919 20.4391 41.785 19.3059C41.4047 18.4244 40.7288 17.648 40.0528 16.9554C39.9895 16.8715 40.1162 16.7456 40.2007 16.8295L40.3521 16.9712C41.0608 17.6335 41.751 18.2787 42.1652 19.18C42.5881 20.108 42.6141 21.1821 42.562 22.2072C42.6616 22.1146 42.7598 22.0197 42.8565 21.9229C42.8598 21.8918 42.8685 21.8588 42.8837 21.8242C43.4118 20.5861 43.0105 18.5924 42.1233 17.585C42.081 17.5431 42.1233 17.4801 42.1867 17.5221C43.1133 18.3732 43.6347 19.8999 43.4995 21.2219C43.7102 20.9719 43.9108 20.7121 44.0996 20.444C43.9624 18.4607 42.8243 17.1924 41.4259 15.8644C41.3203 15.7804 41.4682 15.6335 41.5738 15.7175C42.3765 16.3681 43.158 17.0396 43.7283 17.921C44.1252 18.5277 44.2684 19.1343 44.4209 19.7805L44.452 19.912C44.6135 19.6522 44.7638 19.3861 44.9016 19.1151C44.9618 18.057 44.0603 17.0036 43.281 16.093C43.0142 15.7813 42.7618 15.4862 42.5671 15.2135C42.5248 15.1715 42.6093 15.1085 42.6516 15.1505C42.7835 15.2839 42.9206 15.4191 43.06 15.5565C43.9139 16.3984 44.855 17.3261 45.2112 18.4466C45.3713 18.0641 45.5055 17.6743 45.6104 17.2806C45.5572 17.2656 45.5114 17.2202 45.5029 17.1445C45.4188 16.3081 44.4749 15.5968 43.8621 15.1349L43.8553 15.1298C43.5567 14.91 43.2349 14.7421 42.9143 14.5747C42.6225 14.4223 42.3316 14.2705 42.0599 14.0805C41.9965 14.0175 42.0387 13.9336 42.1021 13.9756C42.3239 14.1015 42.5615 14.1854 42.7992 14.2694C43.0368 14.3533 43.2744 14.4373 43.4962 14.5632C43.8765 14.773 44.2356 15.0459 44.5735 15.3397C44.6147 15.374 44.6574 15.4092 44.7013 15.4453C45.0979 15.7716 45.5848 16.1723 45.7501 16.6619C45.9398 15.6343 45.9201 14.593 45.6296 13.5976Z" fill="white"/>
        <path d="M333.198 150.177C336.261 144.699 342.057 142.82 342.67 142.82L342.67 175.154C342.67 178.903 340.549 183.652 335.648 183.652L288.477 183.652C288.681 182.841 289.212 180.974 289.702 180.001C290.315 178.783 293.378 175.131 295.216 173.305C297.054 171.48 299.504 169.654 301.342 169.045C302.812 168.558 306.039 169.248 307.468 169.654C307.877 168.639 309.428 166.123 312.369 164.176C319.23 160.281 325.03 161.741 327.072 162.959C327.48 162.553 328.787 161.62 330.747 161.133C330.747 158.089 330.135 155.655 333.198 150.177Z" fill="#F36E3E"/>
        <path d="M330.135 161.134C335.036 158.699 337.486 159.308 342.387 159.308L343 159.308L343 178.776C343 185.593 336.341 184.262 333.686 184.262L311.757 183.653C311.757 179.393 312.982 178.175 314.82 175.741C316.29 173.793 319.108 172.901 320.333 172.698C320.537 171.683 321.068 169.411 321.558 168.437C322.171 167.22 325.234 163.568 330.135 161.134Z" fill="#E95722"/>
        <path d="M342.68 143.553C342.786 143.542 342.893 143.534 343 143.527C343 143.275 343 143.024 342.979 142.814C342.155 142.856 341.353 143.024 340.55 143.401C337.318 144.954 334.403 147.473 332.523 150.348C330.326 153.706 329.65 157.273 330.601 160.673L331.319 160.463C331.192 160.043 331.108 159.624 331.045 159.204C330.897 159.078 330.812 158.889 330.854 158.637C330.878 158.568 330.895 158.492 330.912 158.414C330.926 158.35 330.941 158.284 330.96 158.218C330.933 157.662 330.95 157.11 331.007 156.564C331.121 156.717 331.24 156.863 331.361 157C331.416 156.863 331.48 156.727 331.542 156.596C331.575 156.526 331.607 156.457 331.636 156.391C331.459 156.145 331.297 155.885 331.15 155.609C331.215 155.272 331.295 154.938 331.389 154.607C331.556 155 331.77 155.365 332.016 155.699C332.079 155.573 332.164 155.427 332.248 155.28C331.983 154.846 331.768 154.378 331.62 153.877C331.672 153.73 331.727 153.583 331.784 153.437C332.001 153.876 332.286 154.307 332.629 154.713C332.713 154.587 332.819 154.44 332.925 154.293C332.565 153.777 332.3 153.186 332.165 152.555C332.318 152.231 332.485 151.912 332.663 151.597C332.795 152.269 333.043 152.831 333.558 153.475L333.58 153.496C333.611 153.464 333.638 153.433 333.664 153.402C333.69 153.37 333.717 153.339 333.749 153.307C333.263 152.584 332.972 151.765 333.114 150.85C333.473 150.29 333.869 149.749 334.296 149.229C334.326 150.201 334.61 151.113 335.079 151.922C335.206 151.796 335.312 151.691 335.438 151.586C335.016 150.579 334.91 149.466 335.1 148.396C335.106 148.365 335.108 148.334 335.107 148.305C335.17 148.238 335.233 148.172 335.297 148.105C335.29 149.115 335.611 150.089 336.135 150.956C336.188 150.914 336.235 150.872 336.283 150.83C336.33 150.788 336.378 150.746 336.431 150.704C335.89 149.749 335.634 148.661 335.951 147.46C336.254 147.175 336.566 146.899 336.885 146.634C336.534 147.758 336.65 148.976 337.275 150.033C337.343 149.966 337.419 149.907 337.498 149.846C337.543 149.812 337.589 149.777 337.635 149.739C337.106 148.501 337.128 147.116 338.036 145.857C338.071 145.805 338.089 145.754 338.094 145.705C338.58 145.36 339.078 145.04 339.584 144.745C338.986 145.964 338.819 147.297 339.092 148.606C339.24 148.48 339.388 148.375 339.536 148.27C339.325 146.738 339.473 145.164 340.803 144.157C340.852 144.119 340.889 144.079 340.916 144.038C341.227 143.891 341.539 143.781 341.852 143.7C341.025 144.892 340.556 145.915 340.613 147.494C340.62 147.575 340.625 147.653 340.629 147.73C340.639 147.894 340.648 148.05 340.677 148.207C340.719 148.312 340.74 148.417 340.74 148.564C340.909 149.404 341.289 150.138 342.007 150.705C342.134 150.789 342.282 150.642 342.176 150.537C340.191 148.816 341.015 145.227 342.62 143.632C342.646 143.607 342.666 143.58 342.68 143.553Z" fill="white"/>
        <path d="M338.163 150.704C338.881 151.712 339.958 152.53 341.162 152.887C341.226 152.908 341.226 153.034 341.141 153.034C339.831 152.866 338.712 151.984 337.888 150.935L337.941 150.894C338.023 150.829 338.093 150.774 338.163 150.704Z" fill="white"/>
        <path d="M338.477 154.822C337.55 154.172 336.646 153.538 335.987 152.572C335.96 152.599 335.93 152.627 335.9 152.655C335.837 152.713 335.77 152.774 335.713 152.845C336.621 153.957 337.867 154.881 339.198 155.489C339.262 155.51 339.325 155.426 339.262 155.384C339.001 155.19 338.738 155.006 338.477 154.822Z" fill="white"/>
        <path d="M337.339 157.189C336.029 156.874 334.677 156.182 333.663 155.196C333.579 155.3 333.494 155.426 333.41 155.552C334.551 156.601 336.008 157.336 337.318 157.336C337.402 157.336 337.423 157.21 337.339 157.189Z" fill="white"/>
        <path d="M332.46 157.336C333.199 158.05 334.107 158.574 335.1 158.826C335.227 158.868 335.185 159.057 335.037 159.036C333.981 158.826 333.051 158.427 332.249 157.84C332.283 157.763 332.31 157.689 332.337 157.619C332.375 157.518 332.41 157.423 332.46 157.336Z" fill="white"/>
        <path d="M339.959 150.243L339.768 149.487C339.663 149.571 339.557 149.655 339.431 149.739C339.515 149.949 339.6 150.138 339.705 150.348C339.79 150.495 340.001 150.39 339.959 150.243Z" fill="white"/>
        <path d="M339.768 153.81C338.817 153.223 337.825 152.488 337.085 151.607C336.98 151.691 336.874 151.775 336.768 151.838C337.571 152.761 338.585 153.517 339.662 153.978C339.789 154.041 339.874 153.873 339.768 153.81Z" fill="white"/>
        <path d="M335.987 155.427C335.48 155.07 334.931 154.65 334.467 154.167C334.445 154.188 334.424 154.215 334.403 154.241C334.382 154.267 334.361 154.293 334.34 154.314C334.826 154.776 335.375 155.154 335.966 155.469C335.987 155.49 336.008 155.448 335.987 155.427Z" fill="white"/>
        <path d="M334.826 157.546C334.108 157.231 333.495 156.791 332.988 156.245C332.925 156.35 332.861 156.455 332.819 156.539C333.39 157.042 334.044 157.42 334.784 157.63C334.847 157.651 334.868 157.567 334.826 157.546Z" fill="white"/>
        <path d="M296.571 172.277C296.517 172.323 296.463 172.368 296.409 172.414C296.784 172.556 297.131 172.728 297.479 172.929C297.437 172.971 297.394 173.034 297.352 173.118C296.916 172.962 296.465 172.834 296.024 172.747C295.746 172.994 295.472 173.247 295.204 173.508C295.701 173.749 296.199 173.958 296.697 174.167C296.633 174.23 296.591 174.314 296.549 174.398C296 174.209 295.45 174.062 294.901 173.999C294.844 173.992 294.796 173.975 294.758 173.952C294.54 174.175 294.326 174.402 294.115 174.634C294.222 174.676 294.328 174.717 294.435 174.759C294.955 174.961 295.472 175.162 295.979 175.384C295.961 175.414 295.943 175.441 295.926 175.468C295.882 175.538 295.84 175.602 295.81 175.678C295.133 175.401 294.455 175.18 293.76 175.032C293.409 175.435 293.07 175.849 292.742 176.274C293.6 176.398 294.426 176.573 295.219 176.811L295.029 177.189C294.184 176.916 293.297 176.79 292.368 176.874C292.342 176.877 292.317 176.876 292.294 176.873C292.131 177.099 291.97 177.327 291.813 177.558C292.753 177.617 293.68 177.865 294.606 178.113C294.585 178.155 294.564 178.202 294.543 178.249C294.522 178.296 294.501 178.344 294.48 178.386C293.498 178.151 292.534 177.972 291.521 177.998C291.368 178.234 291.218 178.472 291.072 178.712C291.39 178.772 291.705 178.825 292.019 178.877C292.721 178.994 293.414 179.109 294.099 179.309C294.077 179.372 294.051 179.435 294.025 179.498C293.998 179.561 293.972 179.624 293.951 179.687C292.887 179.376 291.782 179.188 290.758 179.244C290.481 179.726 290.219 180.215 289.975 180.712C290.364 180.579 290.771 180.585 291.21 180.645C291.818 180.732 292.416 180.838 293.011 180.943C293.284 180.992 293.556 181.04 293.829 181.086C293.808 181.17 293.787 181.254 293.766 181.317C293.194 181.276 292.602 181.255 292.029 181.235L291.97 181.233L291.834 181.225C291.17 181.182 290.432 181.136 289.879 181.548C289.769 181.632 289.656 181.632 289.565 181.585C289.261 182.265 288.989 182.956 288.752 183.652L288.143 183.652C289.685 179.119 292.452 174.712 296.128 171.69C297.67 170.431 299.022 169.612 300.416 169.172C302.38 168.521 304.683 168.521 307.45 169.13L307.281 169.864C305.336 169.431 303.644 169.329 302.153 169.539C302.614 169.776 303.043 170.062 303.478 170.411C303.541 170.452 303.457 170.557 303.393 170.515C302.85 170.139 302.166 169.84 301.49 169.656C301.194 169.719 300.907 169.796 300.627 169.885C300.451 169.942 300.275 170.004 300.099 170.073C301.443 170.579 302.683 171.129 303.752 172.174C303.795 172.216 303.752 172.278 303.71 172.237C302.472 171.43 301.039 170.565 299.542 170.313C299.319 170.417 299.096 170.532 298.87 170.658C299.27 170.849 299.634 171.153 299.987 171.448C300.16 171.592 300.33 171.734 300.5 171.859C300.563 171.922 300.521 172.027 300.436 171.985C300.236 171.885 300.019 171.796 299.798 171.705C299.32 171.51 298.826 171.307 298.451 170.977C298.434 170.963 298.421 170.947 298.411 170.93C298.047 171.156 297.677 171.411 297.297 171.699C297.505 171.771 297.714 171.838 297.921 171.904C298.488 172.087 299.049 172.268 299.592 172.53C300.415 172.95 301.091 173.496 301.767 174.104C301.852 174.188 301.725 174.377 301.619 174.293C300.352 173.328 298.535 172.342 296.951 172.216C296.863 172.208 296.797 172.175 296.75 172.13C296.691 172.178 296.631 172.227 296.571 172.277Z" fill="white"/>
        <path d="M301.471 176.791C300.351 175.741 299.063 175.133 297.732 174.587C297.669 174.671 297.626 174.755 297.584 174.839C298.503 175.281 299.391 175.836 300.24 176.367C300.601 176.593 300.955 176.815 301.302 177.021C301.429 177.105 301.598 176.895 301.471 176.791Z" fill="white"/>
        <path d="M300.309 179.686C299.084 178.553 297.732 177.735 296.275 177.168C296.211 177.315 296.148 177.441 296.064 177.567C297.132 178.042 298.152 178.685 299.152 179.315C299.476 179.519 299.798 179.722 300.119 179.917C300.267 180.022 300.436 179.812 300.309 179.686Z" fill="white"/>
        <path d="M295.155 179.665C296.043 180.022 296.888 180.463 297.711 180.988C297.88 181.092 297.733 181.365 297.564 181.26C296.803 180.82 295.916 180.4 295.008 180.043C295.029 179.98 295.055 179.917 295.082 179.854C295.108 179.791 295.134 179.728 295.155 179.665Z" fill="white"/>
        <path d="M298.303 176.539C297.88 176.266 297.437 176.035 296.993 175.825C296.951 175.93 296.888 176.035 296.824 176.119C297.289 176.329 297.732 176.538 298.176 176.748C298.323 176.832 298.451 176.623 298.303 176.539Z" fill="white"/>
        <path d="M311.05 165.749C311.279 165.566 311.517 165.387 311.764 165.212C312.637 165.42 313.461 165.785 314.252 166.234C314.357 166.171 314.442 166.108 314.526 166.045C313.78 165.624 312.992 165.27 312.175 164.93L312.202 164.912C312.341 164.82 312.482 164.73 312.625 164.642C312.644 164.65 312.665 164.657 312.688 164.661C313.575 164.808 314.462 165.101 315.286 165.521C315.413 165.458 315.518 165.374 315.624 165.29C314.911 164.865 314.139 164.53 313.306 164.247C313.565 164.106 313.828 163.972 314.095 163.846C314.11 163.853 314.127 163.858 314.145 163.863C314.884 164.052 315.602 164.471 316.299 164.891C316.335 164.87 316.372 164.849 316.41 164.828C316.485 164.786 316.56 164.744 316.616 164.702C316.468 164.576 316.299 164.45 316.109 164.346C315.886 164.214 315.653 164.092 315.419 163.97C315.176 163.843 314.932 163.716 314.698 163.577C314.844 163.515 314.992 163.455 315.14 163.398C315.164 163.41 315.191 163.418 315.223 163.422C315.92 163.506 316.533 163.863 317.145 164.22C317.198 164.251 317.245 164.277 317.293 164.304C317.34 164.33 317.388 164.356 317.441 164.388C317.673 164.367 317.863 164.514 317.948 164.702C318.349 164.933 318.729 165.185 319.088 165.479C319.173 165.542 319.3 165.437 319.215 165.353C318.255 164.471 317.233 163.558 316.002 163.091C316.231 163.017 316.462 162.947 316.695 162.883C317.761 163.249 318.611 163.931 319.426 164.702C319.549 164.82 319.676 164.959 319.808 165.104C320.219 165.556 320.678 166.061 321.222 166.108C321.222 166.108 321.243 166.088 321.222 166.088C321.186 165.737 321.048 165.606 320.819 165.389C320.774 165.346 320.725 165.3 320.673 165.248C320.584 165.16 320.496 165.072 320.407 164.983C320.051 164.625 319.689 164.262 319.3 163.926C318.739 163.44 318.149 163.003 317.496 162.681C317.811 162.61 318.128 162.548 318.448 162.494C318.474 162.506 318.505 162.515 318.54 162.52C319.128 162.571 319.773 163.144 320.277 163.591C320.389 163.69 320.493 163.783 320.589 163.863C321.117 164.304 321.645 164.744 322.131 165.248C322.215 165.353 322.363 165.206 322.279 165.122C321.687 164.43 321.075 163.758 320.377 163.17C320.32 163.12 320.262 163.069 320.202 163.016L320.201 163.015C319.949 162.792 319.677 162.551 319.386 162.362C319.929 162.301 320.476 162.264 321.026 162.253C321.377 162.414 321.713 162.656 321.982 162.856C322.552 163.255 323.038 163.758 323.439 164.325C323.503 164.388 323.608 164.325 323.545 164.262C323.122 163.569 322.616 162.961 321.982 162.457C321.944 162.427 321.898 162.389 321.845 162.344C321.828 162.33 321.81 162.316 321.792 162.301C321.773 162.285 321.753 162.268 321.733 162.252C323.577 162.285 325.431 162.602 327.199 163.212L327.432 162.52C322.172 160.694 316.173 161.366 311.779 164.304C305.971 168.165 304.64 174.23 304.133 179.665L304.872 179.707C304.924 179.169 304.982 178.63 305.05 178.092C305.149 178.127 305.259 178.14 305.358 178.152C305.365 178.153 305.373 178.154 305.38 178.155C305.791 178.213 306.196 178.22 306.594 178.226C307.486 178.239 308.343 178.253 309.161 178.847C309.224 178.889 309.288 178.784 309.245 178.742C308.313 177.854 307.312 177.8 306.134 177.737C306.004 177.73 305.873 177.722 305.739 177.714C305.552 177.706 305.402 177.644 305.267 177.588C305.218 177.568 305.171 177.549 305.126 177.533C305.263 176.561 305.437 175.596 305.668 174.646C305.87 174.629 306.088 174.63 306.287 174.65C306.33 174.503 306.372 174.355 306.435 174.208C306.222 174.176 306.009 174.156 305.795 174.148C305.916 173.698 306.049 173.253 306.199 172.812L306.309 172.839C306.52 172.891 306.731 172.942 306.943 173.012C306.975 172.98 306.995 172.935 307.012 172.898C307.017 172.886 307.022 172.875 307.027 172.865C307.038 172.844 307.048 172.828 307.059 172.812C307.069 172.797 307.08 172.781 307.09 172.76C306.844 172.646 306.586 172.544 306.324 172.455C306.407 172.226 306.495 171.998 306.587 171.772C306.942 171.803 307.285 171.867 307.618 171.942L307.663 171.879C307.748 171.759 307.823 171.654 307.913 171.564C307.537 171.467 307.153 171.398 306.764 171.355C306.864 171.129 306.969 170.905 307.079 170.683C307.112 170.717 307.158 170.741 307.217 170.746C307.597 170.767 308.02 170.83 308.463 170.914C308.569 170.788 308.696 170.662 308.844 170.515C308.31 170.393 307.757 170.33 307.261 170.326C307.372 170.117 307.487 169.91 307.608 169.705C308.186 169.738 308.733 169.875 309.265 170.075C309.371 169.991 309.476 169.886 309.561 169.781C309.017 169.585 308.46 169.401 307.9 169.23L307.952 169.151C307.972 169.161 307.994 169.168 308.019 169.173C308.611 169.298 309.202 169.424 309.836 169.571C309.92 169.466 310.026 169.382 310.153 169.298C309.825 169.183 309.492 169.083 309.16 168.984C308.858 168.893 308.556 168.803 308.257 168.7C308.42 168.47 308.591 168.243 308.77 168.019C309.519 168.127 310.267 168.309 310.977 168.564L311.357 168.249C310.654 167.952 309.906 167.728 309.139 167.576C309.32 167.369 309.508 167.165 309.704 166.964C309.724 166.975 309.747 166.984 309.773 166.99C310.554 167.2 311.336 167.41 312.075 167.704C312.138 167.654 312.201 167.611 312.259 167.572C312.299 167.545 312.337 167.52 312.371 167.494C311.945 167.3 311.501 167.137 311.058 166.974C310.727 166.852 310.397 166.731 310.076 166.597C310.21 166.469 310.349 166.342 310.491 166.217C310.517 166.226 310.545 166.232 310.575 166.235C311.484 166.298 312.307 166.591 313.11 166.99C313.131 166.98 313.152 166.964 313.174 166.948C313.195 166.932 313.216 166.917 313.237 166.906C313.269 166.89 313.302 166.871 313.336 166.851C313.39 166.819 313.447 166.785 313.511 166.759C312.737 166.338 311.931 165.997 311.05 165.749Z" fill="white"/>
        <path d="M316.638 166.004C317.018 166.319 317.398 166.654 317.757 167.032C317.821 167.095 317.715 167.2 317.652 167.137C317.25 166.78 316.828 166.465 316.384 166.172" fill="white"/>
        <path d="M316.638 166.004C316.553 166.046 316.469 166.109 316.384 166.172Z" fill="white"/>
        <path d="M314.335 167.557C314.4 167.524 314.465 167.48 314.52 167.442C314.537 167.431 314.553 167.42 314.568 167.41C315.603 168.102 316.553 168.921 317.483 169.844C317.546 169.907 317.462 170.033 317.377 169.97C317.016 169.706 316.654 169.429 316.29 169.15C315.611 168.631 314.923 168.105 314.209 167.64C314.251 167.598 314.293 167.578 314.335 167.557Z" fill="white"/>
        <path d="M312.498 168.816C313.237 169.235 313.955 169.739 314.61 170.348C314.674 170.411 314.589 170.557 314.505 170.494C313.765 169.949 313.005 169.466 312.181 169.067L312.498 168.816Z" fill="white"/>
        <path d="M310.702 170.285C311.568 170.684 312.413 171.187 313.195 171.817C313.301 171.901 313.174 172.027 313.068 171.985C312.545 171.755 312.028 171.476 311.511 171.197C311.13 170.992 310.749 170.786 310.364 170.6C310.491 170.474 310.597 170.369 310.702 170.285Z" fill="white"/>
        <path d="M309.054 171.922C310.216 172.405 311.293 173.118 312.244 173.937C312.328 174 312.222 174.125 312.138 174.083C311.792 173.896 311.456 173.703 311.123 173.512C310.338 173.062 309.574 172.624 308.758 172.3C308.843 172.174 308.948 172.048 309.054 171.922Z" fill="white"/>
        <path d="M307.555 174.419C308.653 174.713 309.667 175.258 310.554 176.035C310.681 176.14 310.512 176.287 310.385 176.203C309.498 175.51 308.484 175.028 307.407 174.797C307.449 174.671 307.491 174.545 307.555 174.419Z" fill="white"/>
        <path d="M308.104 173.243C308.336 173.37 308.568 173.496 308.801 173.643C308.864 173.685 308.801 173.79 308.737 173.748C308.505 173.622 308.273 173.517 308.019 173.412C308.034 173.368 308.059 173.324 308.08 173.287C308.089 173.271 308.097 173.256 308.104 173.243Z" fill="white"/>
        <path d="M311.695 172.341C311.294 171.733 310.682 171.271 309.984 170.935C309.879 171.04 309.773 171.145 309.668 171.229C310.407 171.502 311.083 171.88 311.548 172.446C311.611 172.53 311.759 172.425 311.695 172.341Z" fill="white"/>
        <path d="M311.336 169.739C311.991 170.033 312.583 170.39 313.132 170.914C313.153 170.935 313.132 170.956 313.111 170.956C312.519 170.516 311.822 170.201 311.104 169.949C311.133 169.92 311.167 169.89 311.204 169.859C311.246 169.823 311.291 169.784 311.336 169.739Z" fill="white"/>
        <path d="M313.533 168.081C314.209 168.543 314.779 169.131 315.328 169.739C315.37 169.802 315.307 169.865 315.244 169.823L315.115 169.708C314.526 169.18 313.947 168.661 313.258 168.27C313.343 168.207 313.427 168.144 313.533 168.081Z" fill="white"/>
        <path d="M316.891 167.661C316.469 167.305 316.047 166.99 315.603 166.696C315.518 166.759 315.434 166.822 315.349 166.864C315.835 167.179 316.321 167.472 316.807 167.766C316.87 167.808 316.955 167.724 316.891 167.661Z" fill="white"/>
        <path d="M331.593 175.217C330.706 173.894 329.565 172.866 328.214 172.069C328.171 172.132 328.129 172.195 328.108 172.278C329.439 172.992 330.537 174.02 331.424 175.321C331.488 175.426 331.678 175.321 331.593 175.217Z" fill="white"/>
        <path d="M339.121 159.492C340.003 159.501 340.892 159.564 341.783 159.682C341.796 159.705 341.814 159.728 341.838 159.75C342.095 159.987 342.383 160.176 342.662 160.359C342.704 160.387 342.747 160.415 342.789 160.443C342.778 160.317 342.773 160.185 342.768 160.054C342.765 159.98 342.762 159.906 342.758 159.832L342.768 159.834C342.747 159.582 342.747 159.309 342.747 159.079C338.754 158.386 334.72 158.785 331.298 160.233C329.947 160.789 328.613 161.538 327.104 162.576C327.047 162.593 327.002 162.627 326.969 162.669C326.871 162.737 326.772 162.806 326.672 162.877C325.07 164.01 323.77 165.141 322.766 166.279C322.673 166.3 322.618 166.378 322.601 166.47C320.821 168.557 320.034 170.669 320.208 172.866L320.948 172.803C320.883 171.998 320.965 171.201 321.194 170.408C321.919 170.405 322.628 170.505 323.355 170.642C323.376 170.6 323.397 170.579 323.419 170.558C323.524 170.453 323.651 170.327 323.756 170.201C322.983 169.969 322.209 169.812 321.422 169.745C321.591 169.317 321.804 168.891 322.061 168.465C322.991 168.514 323.901 168.657 324.791 168.858C324.855 168.774 324.913 168.69 324.971 168.606C325.029 168.523 325.087 168.438 325.15 168.354C324.277 168.106 323.373 167.948 322.451 167.867C322.694 167.52 322.966 167.174 323.268 166.828C324.205 166.857 325.14 166.978 326.059 167.179C326.091 167.137 326.128 167.1 326.165 167.063C326.202 167.027 326.239 166.99 326.27 166.948C325.432 166.692 324.57 166.497 323.683 166.372C323.929 166.112 324.191 165.852 324.471 165.592C325.561 165.616 326.699 165.668 327.782 165.903C327.824 165.861 327.872 165.819 327.919 165.777C327.967 165.735 328.014 165.693 328.057 165.651C328.12 165.588 328.183 165.546 328.247 165.504C327.243 165.21 326.163 165.094 325.116 165.017C325.358 164.81 325.611 164.602 325.875 164.394C326.786 164.521 327.636 164.728 328.445 164.996C328.593 164.891 328.741 164.786 328.889 164.66C328.052 164.377 327.2 164.169 326.358 164.022C326.596 163.844 326.841 163.665 327.094 163.486C327.238 163.383 327.381 163.284 327.522 163.187C328.497 163.197 329.407 163.42 330.283 163.779C330.494 163.653 330.706 163.548 330.917 163.443C330.087 163.061 329.247 162.761 328.361 162.63C328.695 162.416 329.022 162.217 329.344 162.03C330.266 162.214 331.157 162.516 332.016 162.898C332.111 162.856 332.206 162.819 332.302 162.782C332.397 162.746 332.492 162.709 332.587 162.667C331.762 162.273 330.878 161.95 329.97 161.68C330.01 161.659 330.051 161.637 330.091 161.615C332.238 161.352 334.196 162.461 335.902 163.737C335.987 163.695 336.05 163.653 336.113 163.612C334.636 162.356 333.098 161.368 331.184 161.076C331.314 161.017 331.443 160.96 331.573 160.904C331.76 160.825 331.95 160.749 332.141 160.677C334.034 161.057 335.697 161.894 337.234 162.961C337.286 162.929 337.339 162.903 337.392 162.877C337.444 162.851 337.498 162.824 337.55 162.793C336.165 161.765 334.586 161.01 332.969 160.388C333.336 160.271 333.708 160.165 334.085 160.07C335.741 160.437 337.189 161.288 338.522 162.331C338.648 162.268 338.775 162.205 338.902 162.163C337.795 161.211 336.599 160.388 335.221 159.823C335.966 159.685 336.727 159.59 337.499 159.538C338.931 159.815 340.555 160.525 341.627 161.534L342.261 161.534C342.248 161.534 342.243 161.526 342.236 161.515C342.232 161.508 342.227 161.5 342.219 161.492C341.501 160.646 340.323 159.959 339.121 159.492Z" fill="white"/>
        <path d="M341.078 164.22C340.676 163.8 340.254 163.38 339.832 162.981C339.705 163.023 339.578 163.065 339.494 163.128C339.813 163.405 340.124 163.69 340.431 163.972C340.591 164.119 340.75 164.265 340.909 164.408C341.014 164.513 341.183 164.346 341.078 164.22Z" fill="white"/>
        <path d="M335.565 166.906C335.311 166.486 335.036 166.13 334.699 165.815C334.593 165.878 334.487 165.941 334.403 166.004C334.762 166.318 335.079 166.654 335.332 167.053C335.417 167.2 335.649 167.053 335.565 166.906Z" fill="white"/>
        <path d="M332.143 164.073C331.953 164.157 331.741 164.262 331.551 164.367C331.583 164.378 331.609 164.393 331.636 164.409C331.662 164.425 331.689 164.441 331.72 164.451C332.27 164.724 332.84 165.018 333.389 165.332C333.452 165.29 333.521 165.249 333.59 165.207C333.658 165.165 333.727 165.123 333.79 165.081C333.283 164.703 332.713 164.388 332.143 164.073Z" fill="white"/>
        <path d="M329.08 165.92C329.735 166.235 330.368 166.613 330.981 167.032L330.664 167.284C330.242 167.011 329.798 166.759 329.354 166.529C329.143 166.424 328.911 166.319 328.679 166.235C328.742 166.182 328.811 166.13 328.879 166.077C328.948 166.025 329.017 165.972 329.08 165.92Z" fill="white"/>
        <path d="M333.59 169.044L333.748 169.173C333.791 169.215 333.727 169.278 333.685 169.257C333.347 169.036 333.009 168.811 332.671 168.585C332.333 168.36 331.995 168.134 331.657 167.914C331.742 167.851 331.826 167.788 331.911 167.704C332.488 168.144 333.048 168.601 333.59 169.044Z" fill="white"/>
        <path d="M329.375 170.264C330.072 170.747 330.748 171.293 331.382 171.922C331.445 171.985 331.361 172.069 331.298 172.006C330.622 171.481 329.903 170.999 329.164 170.558C329.19 170.524 329.216 170.487 329.243 170.447C329.282 170.389 329.325 170.327 329.375 170.264Z" fill="white"/>
        <path d="M326.333 168.732C327.051 169.005 327.748 169.32 328.424 169.697C328.382 169.76 328.34 169.818 328.297 169.876C328.255 169.933 328.213 169.991 328.171 170.054C327.473 169.718 326.734 169.425 325.995 169.173C326.122 169.026 326.227 168.879 326.333 168.732Z" fill="white"/>
        <path d="M324.918 170.558C325.699 170.852 326.481 171.187 327.22 171.544C327.199 171.586 327.173 171.628 327.146 171.67C327.12 171.712 327.094 171.754 327.072 171.796C327.03 171.775 326.988 171.759 326.946 171.744C326.903 171.728 326.861 171.712 326.819 171.691C326.101 171.418 325.34 171.145 324.58 170.936C324.707 170.81 324.812 170.684 324.918 170.558Z" fill="white"/>
        <path d="M329.101 168.06C328.573 167.788 328.023 167.557 327.474 167.347C327.411 167.41 327.369 167.452 327.326 167.515C327.918 167.683 328.488 167.893 329.059 168.144C329.101 168.186 329.164 168.081 329.101 168.06Z" fill="white"/>
        <path d="M333.114 166.843C333.727 167.305 334.297 167.83 334.783 168.396C334.825 168.438 334.762 168.522 334.719 168.48C334.065 167.997 333.41 167.536 332.734 167.095L333.114 166.843Z" fill="white"/>
        <path d="M332.121 166.172C331.509 165.794 330.833 165.458 330.157 165.165C330.1 165.205 330.041 165.242 329.98 165.279C329.883 165.34 329.783 165.402 329.692 165.479C330.368 165.773 331.044 166.109 331.699 166.487C331.773 166.434 331.841 166.382 331.91 166.329C331.979 166.277 332.047 166.224 332.121 166.172Z" fill="white"/>
        <path d="M336.579 165.836C336.684 165.941 336.811 165.794 336.726 165.689C336.494 165.437 336.262 165.185 336.008 164.954C335.956 164.986 335.908 165.017 335.861 165.049L335.851 165.055C335.806 165.085 335.762 165.114 335.713 165.143C336.008 165.374 336.304 165.605 336.579 165.836Z" fill="white"/>
        <path d="M333.326 163.57C333.495 163.507 333.622 163.381 333.664 163.234C334.171 163.528 334.678 163.863 335.142 164.22C335.079 164.262 335.01 164.304 334.942 164.346C334.873 164.388 334.804 164.43 334.741 164.472C334.298 164.136 333.812 163.842 333.326 163.57Z" fill="white"/>
        <path d="M338.479 163.527C338.67 163.695 338.86 163.863 339.029 164.052C339.113 164.157 338.986 164.283 338.881 164.199C338.648 164.01 338.437 163.842 338.205 163.674C338.289 163.632 338.374 163.59 338.479 163.527Z" fill="white"/>
        <path d="M312.37 184.052L311.673 184.262C310.425 179.978 313.572 175.104 317.355 173.194C317.391 173.16 317.433 173.14 317.478 173.133C317.751 173 318.028 172.883 318.306 172.782C320.545 171.985 324.221 171.922 326.945 173.391C328.487 174.23 329.501 175.447 329.882 176.938L329.163 177.126C329.044 176.667 328.859 176.242 328.609 175.851C328.033 175.976 327.609 176.365 327.22 176.79C327.112 176.907 326.995 177.025 326.875 177.146C326.5 177.523 326.102 177.924 325.91 178.385C325.826 178.595 325.53 178.532 325.593 178.322C325.785 177.635 326.292 177.156 326.795 176.681C326.845 176.633 326.895 176.586 326.945 176.538C327.404 176.101 327.831 175.774 328.393 175.544C328.11 175.175 327.764 174.841 327.354 174.542L327.346 174.545C326.348 174.949 325.824 176.148 325.372 177.18C325.261 177.436 325.153 177.682 325.044 177.903C324.981 178.008 324.769 177.924 324.812 177.798C325.169 176.458 325.712 175.026 326.913 174.248C326.807 174.184 326.699 174.122 326.586 174.062C326.487 174.009 326.386 173.958 326.284 173.909C326.303 173.982 326.278 174.062 326.184 174.104C325.324 174.512 324.761 175.947 324.42 176.818L324.389 176.895C324.37 176.972 324.306 177.001 324.247 176.993L324.237 177.033C324.224 177.085 324.211 177.137 324.199 177.189C324.136 177.546 324.094 177.903 324.072 178.259C324.094 178.364 323.946 178.364 323.946 178.259L323.951 178.107C323.969 177.523 323.991 176.811 324.263 176.329C324.27 176.314 324.283 176.307 324.296 176.306C324.612 175.338 325.121 174.181 325.986 173.772C325.799 173.691 325.608 173.617 325.414 173.55C325.306 173.719 325.165 173.878 325.026 174.035C324.894 174.183 324.764 174.33 324.664 174.482C324.589 174.592 324.511 174.702 324.433 174.812C324.182 175.166 323.928 175.525 323.735 175.909C323.735 175.951 323.608 175.888 323.629 175.825L323.675 175.682C323.848 175.145 324.014 174.628 324.305 174.146C324.343 174.087 324.382 174.023 324.422 173.956C324.539 173.763 324.67 173.548 324.822 173.365C324.659 173.32 324.494 173.279 324.329 173.243C323.075 173.915 322.359 175.826 322.277 177.147C322.298 177.231 322.171 177.231 322.171 177.168C322.229 175.722 322.929 174.258 323.878 173.153C323.52 173.09 323.159 173.045 322.8 173.017C322.79 173.03 322.778 173.043 322.763 173.055C321.559 174.167 320.672 175.615 320.883 177.315C320.883 177.378 320.756 177.399 320.756 177.336C320.482 175.66 321.118 174.237 322.157 172.984C321.82 172.976 321.486 172.982 321.161 173.002C320.387 173.979 320.056 175.333 320.017 176.56C320.038 176.707 319.848 176.707 319.827 176.56C319.779 175.383 320.156 174.483 320.561 173.514C320.628 173.356 320.695 173.196 320.76 173.033C320.323 173.074 319.902 173.139 319.508 173.225C319.014 174.191 318.497 175.291 318.517 176.371C318.535 177.347 318.96 178.309 319.358 179.208C319.439 179.391 319.519 179.572 319.594 179.75C319.637 179.876 319.51 179.96 319.447 179.855C318.813 178.847 318.264 177.798 318.2 176.581C318.155 175.672 318.441 174.816 318.723 173.967C318.789 173.77 318.855 173.572 318.916 173.375C318.786 173.413 318.66 173.453 318.538 173.496C318.225 173.607 317.912 173.742 317.604 173.901C316.709 175.245 316.966 177.044 317.524 178.47C317.588 178.617 317.398 178.68 317.313 178.575C316.362 177.259 316.408 175.753 316.879 174.319C316.595 174.501 316.317 174.701 316.047 174.917L316.046 174.923C315.856 176.119 315.708 177.21 316.215 178.344C316.595 179.225 317.271 180.001 317.947 180.694C318.011 180.778 317.884 180.904 317.799 180.82L317.648 180.678C316.939 180.016 316.249 179.371 315.835 178.469C315.412 177.541 315.386 176.467 315.438 175.442C315.338 175.535 315.24 175.63 315.143 175.727C315.14 175.758 315.131 175.791 315.116 175.825C314.588 177.063 314.99 179.057 315.877 180.064C315.919 180.106 315.877 180.169 315.813 180.127C314.887 179.276 314.365 177.749 314.501 176.428C314.29 176.678 314.089 176.937 313.9 177.205C314.038 179.189 315.176 180.457 316.574 181.785C316.68 181.869 316.532 182.016 316.426 181.932C315.624 181.281 314.842 180.61 314.272 179.728C313.875 179.122 313.732 178.515 313.579 177.869L313.548 177.737C313.386 177.997 313.236 178.263 313.098 178.534C313.038 179.592 313.94 180.646 314.719 181.556C314.986 181.868 315.238 182.163 315.433 182.436C315.475 182.478 315.391 182.541 315.348 182.499C315.217 182.366 315.079 182.23 314.94 182.093C314.086 181.251 313.145 180.323 312.789 179.203C312.629 179.585 312.494 179.975 312.39 180.369C312.443 180.384 312.489 180.429 312.497 180.505C312.581 181.341 313.525 182.053 314.138 182.514L314.145 182.52C314.443 182.739 314.765 182.907 315.086 183.075C315.378 183.227 315.668 183.379 315.94 183.569C316.004 183.632 315.961 183.716 315.898 183.674C315.676 183.548 315.438 183.464 315.201 183.38C314.963 183.296 314.726 183.212 314.504 183.086C314.124 182.876 313.764 182.604 313.426 182.31C313.385 182.275 313.343 182.24 313.299 182.204C312.902 181.878 312.415 181.477 312.25 180.988C312.06 182.015 312.08 183.056 312.37 184.052Z" fill="white"/>
        <path fill-rule="evenodd" clip-rule="evenodd" d="M331.559 65.6206C331.944 65.6206 332.247 65.9324 332.247 66.3092C332.247 66.686 331.944 66.9978 331.559 66.9978C331.173 66.9978 330.87 66.686 330.87 66.3092C330.87 65.9324 331.173 65.6206 331.559 65.6206Z" fill="white"/>
        <path fill-rule="evenodd" clip-rule="evenodd" d="M27.0968 119.752C27.4824 119.752 27.7854 120.064 27.7854 120.441C27.7854 120.818 27.4824 121.13 27.0968 121.13C26.7112 121.13 26.4082 120.818 26.4082 120.441C26.4082 120.064 26.7112 119.752 27.0968 119.752Z" fill="white"/>
        <path fill-rule="evenodd" clip-rule="evenodd" d="M196.117 172.224C196.503 172.224 196.806 172.536 196.806 172.913C196.806 173.289 196.503 173.601 196.117 173.601C195.732 173.601 195.429 173.289 195.429 172.913C195.429 172.536 195.732 172.224 196.117 172.224Z" fill="white"/>
        <path fill-rule="evenodd" clip-rule="evenodd" d="M325.436 32.3013C325.821 32.3013 326.124 32.6131 326.124 32.9899C326.124 33.3666 325.821 33.6785 325.436 33.6785C325.05 33.6785 324.747 33.3666 324.747 32.9899C324.747 32.6131 325.05 32.3013 325.436 32.3013Z" fill="white"/>
        <path fill-rule="evenodd" clip-rule="evenodd" d="M38.4298 74.6084C38.8154 74.6084 39.1184 74.9202 39.1184 75.297C39.1184 75.6738 38.8154 75.9856 38.4298 75.9856C38.0442 75.9856 37.7412 75.6738 37.7412 75.297C37.7412 74.9202 38.0442 74.6084 38.4298 74.6084Z" fill="white"/>
        <path fill-rule="evenodd" clip-rule="evenodd" d="M102.881 19.4065C103.267 19.4065 103.57 19.7183 103.57 20.0951C103.57 20.4719 103.267 20.7837 102.881 20.7837C102.495 20.7837 102.192 20.4719 102.192 20.0951C102.192 19.7183 102.495 19.4065 102.881 19.4065Z" fill="white"/>
        <path fill-rule="evenodd" clip-rule="evenodd" d="M222.925 33.0359C223.311 33.0359 223.614 33.3477 223.614 33.7245C223.614 34.1013 223.311 34.4131 222.925 34.4131C222.539 34.4131 222.236 34.1013 222.236 33.7245C222.236 33.3477 222.539 33.0359 222.925 33.0359Z" fill="white"/>
        <path fill-rule="evenodd" clip-rule="evenodd" d="M237.891 23.0918C238.276 23.0918 238.579 23.4036 238.579 23.7804C238.579 24.1572 238.276 24.469 237.891 24.469C237.505 24.469 237.202 24.1572 237.202 23.7804C237.202 23.4036 237.505 23.0918 237.891 23.0918Z" fill="white"/>
        <path fill-rule="evenodd" clip-rule="evenodd" d="M117.528 32.3474C117.914 32.3474 118.217 32.6592 118.217 33.036C118.217 33.4128 117.914 33.7246 117.528 33.7246C117.143 33.7246 116.84 33.4128 116.84 33.036C116.84 32.6592 117.143 32.3474 117.528 32.3474Z" fill="white"/>
        <path fill-rule="evenodd" clip-rule="evenodd" d="M239.268 164.649C239.653 164.649 239.956 164.961 239.956 165.338C239.956 165.715 239.653 166.027 239.268 166.027C238.882 166.027 238.579 165.715 238.579 165.338C238.579 164.961 238.882 164.649 239.268 164.649Z" fill="white"/>
        <path fill-rule="evenodd" clip-rule="evenodd" d="M188.32 175.365C188.706 175.365 189.009 175.677 189.009 176.054C189.009 176.43 188.706 176.742 188.32 176.742C187.935 176.742 187.632 176.43 187.632 176.054C187.632 175.677 187.935 175.365 188.32 175.365Z" fill="white"/>
        <path fill-rule="evenodd" clip-rule="evenodd" d="M282.254 172.913C282.64 172.913 282.943 173.224 282.943 173.601C282.943 173.978 282.64 174.29 282.254 174.29C281.868 174.29 281.565 173.978 281.565 173.601C281.565 173.224 281.868 172.913 282.254 172.913Z" fill="white"/>
        <path fill-rule="evenodd" clip-rule="evenodd" d="M84.8722 171.115C85.2578 171.115 85.5608 171.427 85.5608 171.803C85.5608 172.18 85.2578 172.492 84.8722 172.492C84.4866 172.492 84.1836 172.18 84.1836 171.803C84.1836 171.427 84.4866 171.115 84.8722 171.115Z" fill="white"/>
        <path fill-rule="evenodd" clip-rule="evenodd" d="M270.525 172.224C270.91 172.224 271.213 172.536 271.213 172.913C271.213 173.289 270.91 173.601 270.525 173.601C270.139 173.601 269.836 173.289 269.836 172.913C269.836 172.536 270.139 172.224 270.525 172.224Z" fill="white"/>
        <path fill-rule="evenodd" clip-rule="evenodd" d="M127.216 169.738C127.602 169.738 127.905 170.049 127.905 170.426C127.905 170.803 127.602 171.115 127.216 171.115C126.83 171.115 126.527 170.803 126.527 170.426C126.527 170.049 126.83 169.738 127.216 169.738Z" fill="white"/>
        <path fill-rule="evenodd" clip-rule="evenodd" d="M330.182 29.2888C330.567 29.2888 330.87 29.6006 330.87 29.9774C330.87 30.3542 330.567 30.666 330.182 30.666C329.796 30.666 329.493 30.3542 329.493 29.9774C329.493 29.6006 329.796 29.2888 330.182 29.2888Z" fill="white"/>
        <path fill-rule="evenodd" clip-rule="evenodd" d="M24.6749 127.525C25.0605 127.525 25.3635 127.836 25.3635 128.213C25.3635 128.59 25.0605 128.902 24.6749 128.902C24.2893 128.902 23.9863 128.59 23.9863 128.213C23.9863 127.836 24.2893 127.525 24.6749 127.525Z" fill="white"/>
        <path fill-rule="evenodd" clip-rule="evenodd" d="M21.4093 75.9856C21.7949 75.9856 22.0979 76.2974 22.0979 76.6742C22.0979 77.051 21.7949 77.3628 21.4093 77.3628C21.0237 77.3628 20.7207 77.051 20.7207 76.6742C20.7207 76.2974 21.0237 75.9856 21.4093 75.9856Z" fill="white"/>
        <path fill-rule="evenodd" clip-rule="evenodd" d="M22.0978 64.2434C22.4834 64.2434 22.7864 64.5552 22.7864 64.932C22.7864 65.3088 22.4834 65.6206 22.0978 65.6206C21.7122 65.6206 21.4092 65.3088 21.4092 64.932C21.4092 64.5552 21.7122 64.2434 22.0978 64.2434Z" fill="white"/>
        <path fill-rule="evenodd" clip-rule="evenodd" d="M28.1272 165.338L28.6177 167.564L30.5608 166.338L29.3346 168.281L31.5607 168.772L29.3346 169.281L30.5608 171.205L28.6177 169.998L28.1272 172.224L27.6178 169.998L25.6935 171.205L26.9009 169.281L24.6748 168.772L26.9009 168.281L25.6935 166.338L27.6178 167.564L28.1272 165.338Z" fill="white"/>
        <path fill-rule="evenodd" clip-rule="evenodd" d="M81.4387 23.7803L81.9292 26.0064L83.8724 24.7801L82.6461 26.7233L84.8722 27.2138L82.6461 27.7232L83.8724 29.6474L81.9292 28.44L81.4387 30.6662L80.9293 28.44L79.0051 29.6474L80.2125 27.7232L77.9863 27.2138L80.2125 26.7233L79.0051 24.7801L80.9293 26.0064L81.4387 23.7803Z" fill="white"/>
        <path fill-rule="evenodd" clip-rule="evenodd" d="M294.353 29.289L295.282 26.7838L297.796 25.8529L295.282 24.922L294.353 22.4031L293.424 24.922L290.91 25.8529L293.424 26.7838L294.353 29.289Z" fill="white"/>
        <path fill-rule="evenodd" clip-rule="evenodd" d="M328.878 131.656L329.807 129.151L332.32 128.22L329.807 127.289L328.878 124.77L327.948 127.289L325.435 128.22L327.948 129.151L328.878 131.656Z" fill="white"/>
        <path fill-rule="evenodd" clip-rule="evenodd" d="M98.7496 175.564L99.6787 173.059L102.193 172.128L99.6787 171.197L98.7496 168.678L97.8205 171.197L95.3066 172.128L97.8205 173.059L98.7496 175.564Z" fill="white"/>
        </g>
    </g>
</svg>
