<svg xmlns="http://www.w3.org/2000/svg" width="61" height="104" viewBox="0 0 61 104" fill="none"><defs><linearGradient id="paint0_linear" x1="105.58" y1="165" x2="0" y2="165" gradientUnits="userSpaceOnUse"><stop stop-color="#4837B2"/><stop offset="1" stop-color="#3C2088"/></linearGradient><linearGradient id="paint1_linear" x1="30.5" y1="34.61" x2="30.5" y2="76.39" gradientUnits="userSpaceOnUse"><stop stop-color="#FFB800"/><stop offset="1" stop-color="#FF3F1B"/></linearGradient><linearGradient id="paint2_linear" x1="30.5" y1="34.61" x2="30.5" y2="76.39" gradientUnits="userSpaceOnUse"><stop stop-color="#FFB800"/><stop offset="1" stop-color="#FF3F1B"/></linearGradient><clipPath id="clip0"><rect width="61" height="104" rx="4" fill="white"/></clipPath></defs><g clip-path="url(#clip0)"><rect y="104" width="104" height="61" rx="4" transform="rotate(-90 0 104)" fill="url(#paint0_linear)"/><path d="M47.11 94.51C47.17 95.49 46.84 96.36 46.61 97.25 46.57 97.38 46.51 97.51 46.44 97.63 45.85 98.63 45.23 99.62 44.3 100.33 43.32 101.09 42.27 101.71 41 101.89 40.14 102.01 39.29 102.16 38.44 102.01 37.31 101.83 36.19 101.58 35.26 100.83 34.77 100.43 34.22 100.11 33.79 99.63 32.8 98.52 32.04 97.3 31.87 95.79 31.82 95.34 31.75 94.9 31.71 94.45 31.63 93.44 31.94 92.48 32.2 91.52 32.23 91.39 32.29 91.26 32.36 91.14 32.97 90.08 33.62 89.04 34.62 88.3 35.58 87.57 36.61 86.97 37.87 86.8 38.66 86.7 39.45 86.56 40.24 86.67 41.43 86.84 42.59 87.1 43.56 87.87 44 88.22 44.48 88.51 44.89 88.91 45.59 89.59 46.07 90.41 46.51 91.26 46.71 91.65 46.79 92.11 46.88 92.55 47.01 93.21 47.19 93.87 47.11 94.51Z" fill="#6F5FC1"/><path d="M55.89 91.94C55.71 91.84 55.53 91.77 55.35 91.72 55.19 91.68 55.02 91.65 54.81 91.65H54.79C54.63 91.65 54.46 91.67 54.3 91.69 54.2 91.7 54.11 91.72 54 91.73 53.93 91.74 53.86 91.76 53.79 91.76 53.66 91.78 53.5 91.8 53.31 91.8 53.23 91.8 53.16 91.79 53.1 91.79 52.99 91.77 52.87 91.74 52.76 91.7 52.6 91.63 52.46 91.54 52.32 91.46L52.31 91.45H52.31L52.3 91.45C52.19 91.38 52.08 91.31 51.97 91.26 51.64 91.09 51.29 91 50.95 91 50.91 91 50.87 91 50.82 91.01 50.62 91.02 50.43 91.05 50.22 91.11 50.25 91.07 50.26 91.02 50.29 90.94 50.31 90.88 50.33 90.81 50.34 90.76V90.76 90.75 90.74 90.74C50.37 90.65 50.39 90.54 50.43 90.44 50.45 90.42 50.46 90.39 50.47 90.36 50.49 90.35 50.5 90.34 50.51 90.33 50.54 90.31 50.57 90.29 50.59 90.28 50.62 90.27 50.66 90.26 50.68 90.26 50.71 90.26 50.74 90.25 50.76 90.25 50.83 90.25 50.92 90.26 51.01 90.27H51.01 51.02C51.12 90.28 51.18 90.28 51.23 90.28H51.24C51.32 90.28 51.4 90.27 51.48 90.26 51.56 90.25 51.62 90.22 51.69 90.19 51.73 90.17 51.78 90.14 51.83 90.11 51.93 90.06 52.02 89.98 52.12 89.89 52.2 89.82 52.27 89.74 52.32 89.67 52.4 89.58 52.47 89.47 52.54 89.37 52.56 89.33 52.59 89.29 52.61 89.26L52.64 89.22 52.65 89.21 52.65 89.21 52.66 89.2V89.19L52.67 89.19C52.73 89.08 52.82 88.96 52.9 88.85 53 88.73 53.09 88.64 53.19 88.56 53.27 88.5 53.35 88.46 53.43 88.42 53.47 88.4 53.5 88.37 53.53 88.33 53.56 88.27 53.58 88.2 53.56 88.13 53.55 88.08 53.52 88.04 53.49 88.02 53.45 87.97 53.39 87.95 53.31 87.94 53.3 87.94 53.28 87.94 53.27 87.94H53.26 53.25 53.23 53.22C53.22 87.94 53.22 87.94 53.21 87.94 53.17 87.92 53.13 87.9 53.1 87.89L53.08 87.88C53.01 87.85 52.94 87.85 52.88 87.85 52.86 87.85 52.86 87.85 52.85 87.85 52.8 87.85 52.74 87.86 52.7 87.87H52.68L52.66 87.87C52.58 87.89 52.51 87.91 52.45 87.93 52.3 87.98 52.15 88.06 52.02 88.13L51.99 88.14C51.88 88.2 51.8 88.24 51.72 88.27 51.66 88.29 51.61 88.3 51.56 88.31 51.51 88.32 51.45 88.33 51.38 88.33 51.31 88.33 51.23 88.32 51.15 88.31 51.08 88.3 51.01 88.29 50.95 88.28L50.94 88.27H50.93 50.92L50.9 88.27H50.9C50.83 88.26 50.75 88.25 50.68 88.24 50.55 88.22 50.43 88.21 50.32 88.21 50.28 88.21 50.22 88.21 50.14 88.22 49.98 88.23 49.81 88.26 49.64 88.31 49.45 88.36 49.26 88.44 49.13 88.49L49.12 88.5C49.11 88.5 49.1 88.51 49.09 88.52 49.11 88.47 49.11 88.41 49.13 88.32 49.14 88.22 49.15 88.12 49.16 88.03V88.02 88 87.98 87.98 87.97 87.97C49.17 87.88 49.18 87.8 49.19 87.71 49.22 87.51 49.26 87.24 49.36 87 49.39 86.94 49.42 86.88 49.46 86.83 49.5 86.78 49.54 86.74 49.58 86.71 49.71 86.62 49.85 86.55 49.98 86.49L50.02 86.48 50.1 86.44C50.35 86.32 50.54 86.18 50.68 86.02 50.76 85.92 50.84 85.8 50.9 85.67 50.97 85.52 51.02 85.38 51.06 85.24 51.11 85.05 51.13 84.85 51.16 84.68 51.16 84.61 51.17 84.56 51.17 84.53 51.2 84.32 51.24 84.16 51.3 84.02 51.35 83.91 51.41 83.8 51.49 83.7 51.56 83.62 51.62 83.54 51.7 83.47 51.77 83.4 51.79 83.3 51.77 83.21 51.74 83.11 51.64 83.02 51.53 83.02H51.52C51.13 83.03 50.83 83.08 50.55 83.16 50.3 83.22 50.05 83.34 49.82 83.49 49.57 83.65 49.35 83.85 49.15 84.04 49.03 84.15 48.93 84.25 48.82 84.36L48.81 84.37 48.8 84.38C48.76 84.42 48.69 84.49 48.61 84.55 48.56 84.59 48.49 84.63 48.41 84.67 48.26 84.72 48.07 84.79 47.87 84.82 47.84 84.83 47.82 84.83 47.79 84.83H47.77 47.76 47.76 47.75C47.64 84.84 47.52 84.86 47.41 84.88 47.24 84.92 47.08 85.02 46.95 85.15 46.88 85.23 46.81 85.32 46.77 85.41 46.73 85.5 46.71 85.6 46.69 85.72 46.68 85.81 46.68 85.92 46.68 85.98 46.68 86.08 46.67 86.15 46.67 86.21 46.65 86.26 46.64 86.31 46.63 86.36 46.61 86.39 46.59 86.43 46.56 86.47 46.53 86.5 46.5 86.53 46.47 86.55 46.42 86.59 46.37 86.62 46.3 86.65L46.24 86.67 46.22 86.68C46.19 86.69 46.17 86.7 46.14 86.71 46.15 86.69 46.16 86.68 46.17 86.66 46.19 86.54 46.21 86.43 46.23 86.32 46.26 86.08 46.27 85.88 46.25 85.7 46.23 85.56 46.21 85.42 46.19 85.33V85.32 85.3 85.29L46.18 85.27 46.18 85.25C46.17 85.19 46.15 85.13 46.15 85.06 46.13 84.92 46.13 84.79 46.14 84.68 46.15 84.62 46.17 84.56 46.18 84.51 46.2 84.48 46.22 84.45 46.24 84.41L46.25 84.41C46.26 84.4 46.27 84.39 46.28 84.37 46.32 84.35 46.36 84.32 46.43 84.3L46.46 84.28 46.48 84.27 46.5 84.27C46.55 84.25 46.59 84.23 46.64 84.22 46.68 84.2 46.73 84.18 46.79 84.15 46.85 84.12 46.91 84.08 46.96 84.04 47.12 83.92 47.22 83.72 47.26 83.49 47.28 83.39 47.29 83.29 47.29 83.19 47.28 83.07 47.26 82.97 47.25 82.85 47.24 82.77 47.22 82.69 47.2 82.63L47.2 82.61V82.6 82.59 82.59C47.18 82.51 47.16 82.4 47.14 82.29 47.13 82.18 47.12 82.08 47.13 81.99 47.14 81.93 47.16 81.88 47.17 81.83 47.19 81.79 47.22 81.75 47.25 81.71 47.29 81.66 47.34 81.61 47.39 81.57 47.42 81.55 47.45 81.53 47.47 81.52 47.57 81.45 47.62 81.34 47.59 81.22 47.55 81.11 47.45 81.03 47.34 81.03 47.32 81.03 47.29 81.04 47.27 81.04 47.25 81.05 47.22 81.06 47.21 81.06L47.19 81.06C47.14 81.07 47.08 81.08 47.03 81.09 46.92 81.11 46.81 81.13 46.71 81.16 46.46 81.21 46.24 81.3 46.06 81.41 45.97 81.47 45.87 81.55 45.79 81.63 45.69 81.74 45.62 81.86 45.57 82.01 45.54 82.08 45.54 82.14 45.53 82.22 45.52 82.27 45.52 82.32 45.52 82.38 45.52 82.41 45.52 82.43 45.52 82.46V82.47C45.52 82.55 45.52 82.61 45.51 82.65 45.51 82.69 45.49 82.73 45.48 82.77 45.47 82.79 45.45 82.83 45.41 82.88 45.37 82.92 45.34 82.96 45.3 82.98 45.2 83.05 45.08 83.11 44.99 83.15L44.98 83.16 44.95 83.17C44.87 83.2 44.81 83.24 44.74 83.27 44.65 83.33 44.55 83.4 44.5 83.44 44.24 83.65 44.01 83.9 43.84 84.19 43.83 84.22 43.81 84.24 43.8 84.26 43.8 84.23 43.8 84.21 43.79 84.17 43.7 83.79 43.45 83.49 43.21 83.21L43.2 83.19C43.13 83.11 43.08 83.05 43.04 83 42.93 82.86 42.86 82.75 42.81 82.64 42.78 82.57 42.77 82.52 42.76 82.46 42.75 82.41 42.75 82.36 42.76 82.31 42.76 82.28 42.77 82.24 42.78 82.2 42.81 82.16 42.84 82.11 42.88 82.06 42.92 82.01 42.95 81.98 43 81.92L43.01 81.91 43.01 81.91 43.02 81.9 43.02 81.89 43.03 81.89 43.04 81.87C43.13 81.78 43.19 81.7 43.25 81.62 43.31 81.54 43.36 81.44 43.4 81.33 43.42 81.27 43.42 81.22 43.43 81.17L43.43 81.13C43.44 81.06 43.44 80.99 43.44 80.93 43.44 80.88 43.43 80.82 43.42 80.75 43.4 80.7 43.38 80.64 43.37 80.61L43.35 80.57C43.31 80.49 43.26 80.42 43.22 80.36L43.2 80.33C43.14 80.26 43.08 80.17 43.03 80.08 43.01 80.04 42.99 79.99 42.98 79.97L42.97 79.95 42.94 79.91C42.92 79.85 42.89 79.8 42.87 79.74 42.78 79.53 42.73 79.36 42.7 79.21 42.69 79.09 42.69 78.97 42.7 78.84 42.74 78.62 42.81 78.4 42.86 78.24 42.9 78.14 42.85 78.01 42.74 77.95 42.7 77.93 42.66 77.91 42.61 77.91 42.56 77.91 42.47 77.93 42.43 77.99 42.22 78.24 42.06 78.44 41.91 78.62 41.7 78.9 41.55 79.13 41.43 79.36 41.37 79.48 41.31 79.6 41.27 79.73 41.22 79.88 41.2 80.05 41.19 80.27 41.19 80.38 41.2 80.5 41.2 80.6V80.6 80.62 80.63 80.64 80.64C41.21 80.8 41.22 80.96 41.2 81.12 41.19 81.21 41.17 81.29 41.14 81.36 41.08 81.48 41.01 81.59 40.91 81.72 40.8 81.86 40.68 81.96 40.55 82.08L40.55 82.09C40.48 82.15 40.44 82.19 40.4 82.24 40.37 82.29 40.34 82.33 40.31 82.37 40.29 82.41 40.27 82.45 40.26 82.47L40.25 82.49 40.25 82.5 40.24 82.52C40.2 82.61 40.19 82.71 40.18 82.79V82.81C40.17 82.94 40.17 83.08 40.18 83.2 40.19 83.33 40.22 83.47 40.26 83.6L40.28 83.65 40.29 83.67V83.67C40.31 83.76 40.34 83.85 40.36 83.93 40.37 83.99 40.37 84.04 40.36 84.08 40.35 84.12 40.34 84.15 40.34 84.17 40.32 84.21 40.3 84.25 40.27 84.28 40.24 84.32 40.21 84.35 40.18 84.39L40.17 84.4 40.17 84.4 40.16 84.41C40.13 84.44 40.1 84.47 40.07 84.51 40.04 84.19 39.96 83.93 39.81 83.68 39.76 83.59 39.68 83.5 39.61 83.44 39.53 83.35 39.43 83.27 39.38 83.22 39.34 83.2 39.32 83.18 39.3 83.16 39.16 83.05 39.03 82.94 38.93 82.82 38.9 82.79 38.88 82.75 38.86 82.72 38.86 82.7 38.85 82.68 38.85 82.66 38.85 82.65 38.85 82.64 38.85 82.63 38.85 82.61 38.86 82.59 38.86 82.57 38.91 82.48 38.97 82.4 39.02 82.34L39.03 82.33 39.03 82.32 39.04 82.31 39.04 82.3C39.06 82.27 39.08 82.25 39.1 82.23 39.14 82.17 39.18 82.09 39.2 82.02 39.22 81.99 39.22 81.96 39.23 81.93 39.23 81.9 39.23 81.87 39.24 81.84 39.24 81.81 39.24 81.77 39.23 81.76L39.23 81.73C39.2 81.57 39.11 81.41 38.97 81.27 38.89 81.2 38.8 81.14 38.72 81.08L38.7 81.07 38.69 81.07 38.68 81.06C38.65 81.04 38.61 81.01 38.57 80.99 38.53 80.96 38.5 80.93 38.48 80.9 38.44 80.87 38.4 80.82 38.38 80.79L38.38 80.78 38.34 80.74 38.34 80.75C38.19 80.52 38.12 80.42 38.05 80.27 38.02 80.19 38 80.12 37.99 80.05 37.98 80 37.98 79.95 37.99 79.91 37.99 79.87 38 79.83 38.02 79.79 38.04 79.76 38.07 79.72 38.09 79.67 38.13 79.64 38.16 79.6 38.19 79.58 38.26 79.51 38.28 79.4 38.24 79.3 38.23 79.25 38.21 79.2 38.17 79.16 38.12 79.11 38.05 79.08 37.98 79.08 37.92 79.08 37.86 79.11 37.79 79.16 37.57 79.35 37.41 79.55 37.31 79.76 37.26 79.87 37.22 79.98 37.21 80.09 37.19 80.19 37.18 80.3 37.18 80.42 37.18 80.58 37.2 80.73 37.21 80.87V80.88 80.88 80.89 80.9C37.22 80.94 37.22 80.98 37.23 81.02 37.26 81.29 37.26 81.49 37.24 81.68 37.21 81.85 37.17 82.01 37.1 82.18 37.04 82.31 36.97 82.43 36.93 82.51L36.93 82.51 36.92 82.52 36.92 82.53 36.91 82.54 36.9 82.55 36.89 82.57 36.89 82.58 36.88 82.6C36.85 82.65 36.82 82.7 36.8 82.75 36.75 82.86 36.69 82.97 36.66 83.08 36.61 83.22 36.59 83.35 36.57 83.48 36.56 83.58 36.56 83.7 36.57 83.83 36.47 83.76 36.35 83.7 36.27 83.66L36.26 83.66C36.07 83.56 35.87 83.45 35.7 83.33 35.61 83.26 35.54 83.19 35.46 83.1 35.4 83.01 35.34 82.92 35.29 82.8 35.23 82.67 35.19 82.53 35.15 82.4V82.39C35.13 82.32 35.11 82.26 35.09 82.2 35 81.92 34.9 81.7 34.75 81.52 34.7 81.45 34.66 81.4 34.61 81.35 34.55 81.3 34.5 81.25 34.45 81.21L34.45 81.21 34.44 81.2C34.32 81.1 34.2 81.01 34.09 80.93 34.01 80.87 33.92 80.8 33.83 80.74L33.83 80.73 33.81 80.72 33.8 80.71 33.79 80.71 33.78 80.7 33.77 80.69 33.76 80.69C33.68 80.63 33.59 80.56 33.5 80.49 33.26 80.31 33.07 80.13 32.91 79.94 32.82 79.81 32.73 79.67 32.64 79.51 32.6 79.43 32.5 79.39 32.41 79.39 32.34 79.39 32.28 79.41 32.23 79.46 32.03 79.68 31.91 79.89 31.88 80.11 31.86 80.22 31.86 80.32 31.87 80.42 31.88 80.54 31.91 80.65 31.95 80.76 32.04 80.98 32.16 81.19 32.29 81.39 32.39 81.55 32.5 81.73 32.58 81.91 32.64 82.06 32.68 82.22 32.71 82.41 32.73 82.6 32.73 82.82 32.72 83.07 32.71 83.14 32.7 83.2 32.7 83.26V83.26 83.27C32.69 83.43 32.67 83.59 32.67 83.77 32.67 84.04 32.72 84.3 32.8 84.55 32.85 84.69 32.91 84.82 33 84.99 33.06 85.1 33.12 85.22 33.17 85.35 33.18 85.38 33.19 85.41 33.21 85.43 33.19 85.42 33.17 85.4 33.12 85.38 33.02 85.33 32.91 85.29 32.77 85.27 32.72 85.27 32.66 85.26 32.6 85.26 32.54 85.26 32.49 85.26 32.44 85.27 32.39 85.27 32.34 85.27 32.29 85.27 32.24 85.27 32.2 85.27 32.16 85.27 32.13 85.26 32.1 85.25 32.07 85.24 32.05 85.23 32.03 85.23 32.02 85.21L32.01 85.21C32 85.2 31.99 85.19 31.98 85.18 31.97 85.17 31.96 85.15 31.96 85.14 31.94 85.09 31.93 85.04 31.92 84.98 31.92 84.92 31.91 84.86 31.91 84.81V84.8C31.9 84.65 31.89 84.49 31.84 84.34 31.8 84.21 31.72 84.09 31.64 84 31.57 83.91 31.48 83.82 31.38 83.75 31.22 83.64 31.03 83.56 30.81 83.51 30.66 83.48 30.51 83.46 30.36 83.44H30.35 30.34C30.3 83.44 30.26 83.43 30.22 83.43 30.04 83.41 29.9 83.38 29.77 83.33 29.7 83.29 29.64 83.25 29.57 83.21 29.51 83.16 29.46 83.11 29.4 83.05 29.39 83.03 29.37 83.01 29.36 82.99 29.31 82.91 29.23 82.87 29.14 82.87 29.1 82.87 29.05 82.88 29.01 82.9 28.97 82.92 28.94 82.95 28.92 82.99 28.86 83.12 28.82 83.22 28.79 83.34 28.77 83.45 28.75 83.57 28.76 83.68 28.77 83.87 28.83 84.06 28.94 84.23 29.03 84.38 29.16 84.51 29.29 84.65L29.33 84.69 29.34 84.69C29.44 84.8 29.56 84.92 29.66 85.04 29.74 85.15 29.82 85.27 29.88 85.4 29.94 85.56 29.99 85.75 30.02 85.98L30.03 86.08V86.09C30.06 86.27 30.08 86.46 30.13 86.64 30.15 86.75 30.19 86.86 30.26 87.01 30.3 87.09 30.35 87.18 30.42 87.28 30.31 87.26 30.18 87.25 30.03 87.24 30.02 87.24 30.01 87.24 29.99 87.24 29.81 87.24 29.66 87.26 29.52 87.3 29.47 87.31 29.41 87.33 29.36 87.35H29.35L29.35 87.36C29.28 87.38 29.2 87.41 29.13 87.42 29.11 87.42 29.09 87.42 29.07 87.42 29.06 87.42 29.04 87.42 29.02 87.42 28.98 87.41 28.94 87.4 28.9 87.38 28.88 87.37 28.86 87.37 28.85 87.36 28.82 87.33 28.79 87.3 28.76 87.27 28.73 87.22 28.69 87.17 28.67 87.13L28.66 87.13 28.65 87.11 28.65 87.1C28.63 87.09 28.62 87.06 28.61 87.05 28.57 87 28.54 86.95 28.48 86.88 28.44 86.83 28.38 86.78 28.33 86.75 28.23 86.67 28.11 86.63 28.01 86.6 27.89 86.57 27.77 86.55 27.62 86.55 27.6 86.55 27.58 86.55 27.56 86.55 27.48 86.55 27.4 86.55 27.29 86.57 27.16 86.59 27.04 86.61 26.89 86.64L26.71 86.68H26.7 26.69C26.55 86.71 26.4 86.74 26.25 86.77 26.18 86.78 26.1 86.78 26.02 86.78 25.97 86.78 25.91 86.78 25.87 86.77 25.79 86.76 25.71 86.74 25.65 86.72 25.58 86.68 25.52 86.65 25.45 86.6 25.38 86.55 25.32 86.49 25.25 86.41 25.21 86.36 25.15 86.34 25.07 86.34 25.05 86.34 25.03 86.34 25 86.35 24.93 86.37 24.84 86.44 24.83 86.53 24.78 86.83 24.79 87.08 24.87 87.28 24.89 87.34 24.91 87.39 24.94 87.44 24.97 87.49 25.01 87.54 25.05 87.6 25.12 87.69 25.22 87.76 25.3 87.83 25.48 87.96 25.71 88.05 25.89 88.12 25.97 88.16 26.05 88.19 26.15 88.22H26.16L26.18 88.23 26.19 88.24C26.27 88.26 26.36 88.3 26.45 88.34 26.6 88.4 26.71 88.46 26.81 88.53 26.86 88.57 26.9 88.61 26.94 88.66 26.97 88.7 27 88.75 27.02 88.8 27.07 88.93 27.1 89.06 27.12 89.2 27.14 89.32 27.17 89.45 27.21 89.58 27.24 89.65 27.27 89.73 27.31 89.8 27.36 89.88 27.42 89.96 27.47 90.02 27.54 90.1 27.62 90.16 27.7 90.21 27.77 90.27 27.84 90.31 27.93 90.36 28.2 90.51 28.5 90.58 28.79 90.64L28.89 90.66C29.11 90.71 29.34 90.76 29.56 90.84 29.57 90.84 29.57 90.85 29.58 90.85 29.5 90.85 29.43 90.86 29.36 90.89 29.28 90.91 29.2 90.94 29.12 90.98 29.05 91.02 28.99 91.04 28.96 91.06L28.95 91.07 28.94 91.07 28.93 91.08C28.88 91.1 28.82 91.13 28.77 91.16 28.67 91.19 28.58 91.22 28.49 91.23 28.45 91.24 28.41 91.24 28.37 91.24 28.34 91.24 28.31 91.24 28.28 91.23 28.26 91.23 28.23 91.22 28.21 91.22 28.18 91.2 28.15 91.18 28.12 91.17 28.05 91.11 27.99 91.04 27.93 90.97 27.88 90.92 27.83 90.86 27.78 90.81 27.71 90.74 27.63 90.68 27.54 90.64 27.41 90.57 27.25 90.54 27.14 90.53 27.1 90.53 27.06 90.53 27.04 90.53 26.97 90.53 26.9 90.53 26.83 90.55 26.75 90.57 26.67 90.61 26.57 90.66 26.53 90.68 26.5 90.71 26.47 90.74 26.43 90.76 26.41 90.77 26.4 90.79 26.33 90.83 26.26 90.88 26.19 90.91 25.98 90.99 25.75 91.04 25.52 91.08 25.4 91.09 25.29 91.09 25.18 91.09 25.07 91.09 24.96 91.09 24.84 91.08 24.78 91.07 24.7 91.05 24.63 91.04 24.6 91.03 24.58 91.03 24.56 91.03 24.51 91.03 24.47 91.04 24.43 91.07 24.36 91.11 24.31 91.19 24.31 91.28 24.3 91.58 24.35 91.83 24.46 92.03 24.56 92.2 24.73 92.34 24.93 92.43 25.04 92.47 25.15 92.51 25.25 92.53 25.36 92.56 25.48 92.57 25.59 92.58 25.69 92.6 25.78 92.61 25.87 92.61H25.87 25.89 25.89 25.9C25.99 92.62 26.08 92.63 26.18 92.64 26.35 92.66 26.48 92.7 26.59 92.74 26.67 92.77 26.74 92.81 26.8 92.85 26.89 92.93 26.98 93.02 27.07 93.13 27.1 93.17 27.13 93.21 27.15 93.24L27.15 93.25C27.25 93.36 27.34 93.5 27.46 93.61 27.52 93.68 27.61 93.75 27.71 93.82 27.7 93.83 27.69 93.85 27.68 93.86L27.67 93.87 27.67 93.88C27.62 93.95 27.58 94.03 27.53 94.12 27.5 94.19 27.46 94.28 27.44 94.33L27.43 94.34V94.34L27.41 94.41C27.36 94.51 27.31 94.62 27.23 94.74 27.19 94.78 27.16 94.81 27.12 94.84 27.08 94.87 27.04 94.89 27 94.92 26.96 94.93 26.93 94.93 26.9 94.94 26.89 94.94 26.87 94.94 26.85 94.94 26.82 94.94 26.79 94.94 26.76 94.93 26.69 94.92 26.63 94.9 26.55 94.89H26.54L26.52 94.88C26.43 94.86 26.32 94.84 26.21 94.83 26.18 94.83 26.15 94.83 26.13 94.83 25.91 94.83 25.71 94.92 25.58 94.99 25.46 95.06 25.36 95.15 25.24 95.3L25.2 95.35C25.17 95.39 25.13 95.43 25.1 95.46 25.05 95.52 25 95.57 24.93 95.62 24.78 95.73 24.62 95.82 24.45 95.9 24.3 95.95 24.15 96 24 96.02 23.92 96.03 23.84 96.03 23.75 96.03 23.65 96.03 23.56 96.03 23.48 96.01 23.42 96.01 23.37 96 23.33 95.99 23.3 95.99 23.28 95.99 23.26 95.99 23.21 95.99 23.17 96 23.13 96.02 23.07 96.05 23.04 96.1 23.01 96.17V96.18 96.18C22.98 96.26 23.01 96.37 23.08 96.43 23.29 96.63 23.5 96.77 23.72 96.87 23.84 96.92 23.96 96.96 24.06 96.98 24.19 97.01 24.31 97.02 24.42 97.03 24.58 97.05 24.72 97.05 24.9 97.05H24.99 25.04 25.09C25.3 97.05 25.57 97.06 25.83 97.09 26.08 97.12 26.35 97.19 26.69 97.3L26.79 97.33C27.04 97.41 27.29 97.49 27.54 97.54 27.71 97.57 27.88 97.58 28.04 97.59 28.06 97.59 28.08 97.59 28.1 97.59 28.28 97.59 28.46 97.57 28.61 97.54 28.7 97.53 28.79 97.51 28.9 97.49 28.87 97.53 28.85 97.58 28.83 97.62L28.83 97.63C28.81 97.68 28.79 97.72 28.78 97.78 28.75 97.9 28.74 98.02 28.74 98.14V98.16 98.17 98.18C28.73 98.23 28.73 98.28 28.73 98.33 28.71 98.39 28.7 98.45 28.69 98.5 28.67 98.52 28.66 98.54 28.65 98.56 28.63 98.58 28.62 98.59 28.6 98.61 28.58 98.62 28.56 98.64 28.53 98.65 28.51 98.65 28.49 98.66 28.48 98.67 28.46 98.67 28.45 98.67 28.44 98.67 28.41 98.67 28.4 98.67 28.37 98.67 28.26 98.65 28.17 98.62 28.08 98.59H28.07C28 98.56 27.94 98.55 27.88 98.53 27.79 98.51 27.69 98.49 27.59 98.49H27.59 27.58C27.48 98.49 27.38 98.51 27.27 98.56 27.17 98.6 27.08 98.64 27.01 98.69 26.93 98.75 26.85 98.82 26.79 98.91 26.71 99.01 26.66 99.14 26.61 99.26L26.59 99.3C26.55 99.41 26.5 99.49 26.45 99.56 26.35 99.67 26.24 99.78 26.11 99.89 25.91 100.03 25.69 100.15 25.48 100.27L25.45 100.29C25.41 100.3 25.3 100.37 25.2 100.43 25.12 100.47 25.07 100.55 25.07 100.64 25.07 100.76 25.15 100.86 25.26 100.89 25.46 100.94 25.68 100.98 25.91 100.99 25.97 101 26.02 101 26.07 101 26.21 101 26.36 100.99 26.55 100.96 26.76 100.94 26.98 100.9 27.19 100.86H27.21 27.22C27.39 100.82 27.59 100.78 27.79 100.76 27.96 100.73 28.11 100.73 28.26 100.73 28.38 100.73 28.49 100.73 28.6 100.75 28.59 100.74 28.59 100.74 28.58 100.73 28.73 100.76 28.85 100.77 28.98 100.78 28.99 100.78 29.01 100.78 29.02 100.78 29.12 100.78 29.24 100.77 29.37 100.75 29.48 100.73 29.59 100.71 29.69 100.68 29.76 100.67 29.82 100.64 29.91 100.61 29.89 100.71 29.9 100.83 29.92 100.94 29.93 101.01 29.94 101.09 29.94 101.16V101.17 101.18L29.95 101.21 29.96 101.29C29.98 101.41 29.99 101.55 29.98 101.69 29.97 101.74 29.96 101.79 29.94 101.84 29.92 101.88 29.9 101.92 29.87 101.96 29.84 101.98 29.81 102.01 29.78 102.04 29.74 102.07 29.7 102.09 29.66 102.11 29.53 102.16 29.39 102.19 29.27 102.21H29.26 29.25C29.16 102.23 29.08 102.24 29 102.26 28.87 102.3 28.74 102.35 28.64 102.42 28.52 102.49 28.4 102.61 28.31 102.76 28.28 102.81 28.25 102.88 28.22 102.95L28.21 102.96C28.19 103.02 28.17 103.09 28.16 103.14 28.14 103.26 28.13 103.39 28.12 103.56 28.12 103.64 28.12 103.72 28.13 103.79V103.8 103.81 103.82 103.83 103.84C28.13 104.01 28.14 104.18 28.12 104.35 28.11 104.44 28.09 104.52 28.05 104.61 28 104.73 27.92 104.85 27.81 104.99 27.76 105.05 27.72 105.1 27.68 105.16 27.52 105.34 27.37 105.53 27.26 105.74 27.21 105.82 27.21 105.92 27.26 105.99 27.3 106.07 27.39 106.12 27.48 106.12 27.5 106.12 27.52 106.11 27.55 106.11 27.76 106.04 27.96 105.95 28.16 105.84 28.35 105.73 28.53 105.59 28.67 105.46 28.81 105.36 28.93 105.24 29.04 105.15L29.04 105.15 29.06 105.13 29.06 105.13 29.07 105.12C29.22 104.99 29.38 104.84 29.55 104.71 29.73 104.57 29.92 104.46 30.1 104.38 30.17 104.35 30.23 104.33 30.31 104.32 30.41 104.31 30.51 104.31 30.6 104.31 30.64 104.31 30.67 104.31 30.71 104.31H30.72C30.76 104.31 30.8 104.31 30.83 104.31 30.89 104.31 30.95 104.31 31.01 104.3 31.16 104.3 31.28 104.28 31.38 104.24 31.5 104.2 31.61 104.14 31.72 104.05 31.94 103.87 32.07 103.64 32.19 103.41 32.26 103.28 32.34 103.14 32.43 103.02 32.59 102.82 32.77 102.64 32.97 102.48 33.05 102.42 33.14 102.36 33.23 102.31 33.22 102.35 33.21 102.4 33.19 102.45 33.17 102.63 33.17 102.81 33.18 102.97 33.18 103.12 33.19 103.3 33.17 103.48 33.15 103.6 33.11 103.73 33.07 103.86 33.02 103.97 32.96 104.07 32.89 104.16 32.82 104.25 32.74 104.32 32.65 104.4 32.62 104.42 32.6 104.43 32.57 104.45 32.5 104.51 32.4 104.57 32.32 104.65 32.19 104.77 32.1 104.92 32.03 105.11 31.99 105.23 31.98 105.36 31.96 105.45 31.95 105.57 31.95 105.68 31.95 105.78V105.86 105.89 105.9 105.9 105.91 105.91C31.94 106.1 31.94 106.29 31.92 106.47 31.9 106.62 31.86 106.75 31.8 106.88 31.7 107.11 31.57 107.3 31.45 107.45 31.4 107.53 31.41 107.64 31.45 107.71 31.5 107.79 31.58 107.84 31.67 107.84 31.71 107.84 31.75 107.84 31.79 107.84 31.9 107.84 32.02 107.84 32.14 107.81 32.2 107.8 32.27 107.79 32.32 107.77 32.39 107.76 32.46 107.72 32.51 107.7 32.69 107.62 32.85 107.48 33 107.27 33.1 107.14 33.17 106.99 33.23 106.85L33.27 106.76C33.35 106.6 33.44 106.4 33.58 106.22 33.64 106.15 33.69 106.09 33.75 106.04 33.81 106 33.87 105.97 33.95 105.93 34.07 105.88 34.21 105.85 34.3 105.82H34.3L34.31 105.81C34.5 105.76 34.65 105.71 34.78 105.65 34.92 105.59 35.06 105.49 35.2 105.36 35.31 105.25 35.41 105.11 35.49 104.95L35.5 104.95 35.5 104.94C35.52 105 35.54 105.09 35.59 105.2 35.64 105.32 35.7 105.44 35.78 105.56 35.83 105.63 35.88 105.71 35.94 105.77L35.95 105.79 35.95 105.8 35.99 105.85C36.06 105.93 36.13 106.03 36.18 106.14 36.19 106.18 36.2 106.22 36.22 106.26 36.22 106.29 36.22 106.33 36.22 106.37 36.21 106.4 36.2 106.43 36.19 106.46 36.18 106.48 36.16 106.51 36.15 106.54 36.07 106.62 35.98 106.69 35.9 106.76L35.87 106.78C35.8 106.84 35.74 106.88 35.69 106.93 35.59 107.02 35.52 107.13 35.46 107.24 35.43 107.31 35.41 107.37 35.4 107.43 35.39 107.52 35.38 107.6 35.39 107.68 35.4 107.99 35.56 108.26 35.7 108.47 35.73 108.52 35.78 108.59 35.8 108.61L35.81 108.62 35.81 108.63 35.82 108.64 35.82 108.65 35.83 108.66 35.83 108.66 35.84 108.67C35.95 108.82 36.06 108.97 36.14 109.15 36.23 109.36 36.28 109.56 36.31 109.75 36.34 109.96 36.34 110.19 36.3 110.44 36.3 110.49 36.28 110.54 36.28 110.59 36.27 110.63 36.27 110.68 36.28 110.72 36.29 110.77 36.31 110.8 36.35 110.83 36.4 110.88 36.47 110.91 36.54 110.91 36.59 110.91 36.63 110.9 36.67 110.87 36.76 110.81 36.85 110.74 36.92 110.67 37 110.6 37.06 110.53 37.12 110.44 37.22 110.31 37.31 110.15 37.39 109.93 37.45 109.75 37.49 109.56 37.51 109.39 37.53 109.27 37.55 109.13 37.57 109.04V109.02 109.01 109L37.57 108.93 37.58 108.84C37.62 108.6 37.66 108.33 37.76 108.08 37.8 107.99 37.85 107.91 37.9 107.84 38 107.73 38.11 107.64 38.2 107.57L38.25 107.53C38.33 107.47 38.42 107.4 38.51 107.33 38.61 107.25 38.71 107.15 38.81 107.02 38.91 106.88 38.98 106.73 39.03 106.59 39.07 106.48 39.11 106.34 39.13 106.19 39.17 105.92 39.16 105.67 39.16 105.41V105.33C39.16 105.15 39.17 104.97 39.18 104.8 39.26 104.94 39.36 105.07 39.45 105.19L39.47 105.21 39.48 105.22C39.51 105.26 39.53 105.29 39.56 105.32 39.68 105.48 39.77 105.61 39.83 105.74 39.86 105.83 39.89 105.91 39.9 105.98 39.9 106.01 39.9 106.04 39.9 106.08 39.89 106.13 39.87 106.18 39.85 106.24 39.82 106.31 39.78 106.37 39.76 106.41L39.76 106.42 39.75 106.43 39.74 106.43 39.73 106.45 39.73 106.46C39.68 106.56 39.63 106.66 39.6 106.75 39.56 106.84 39.54 106.94 39.53 107.07 39.53 107.13 39.54 107.19 39.55 107.25 39.56 107.33 39.59 107.39 39.61 107.45 39.71 107.67 39.9 107.81 40.04 107.9 40.1 107.94 40.17 107.98 40.22 108.01L40.24 108.02 40.25 108.03H40.25L40.26 108.03 40.26 108.04C40.33 108.08 40.42 108.13 40.49 108.18 40.54 108.21 40.57 108.25 40.6 108.29 40.64 108.34 40.67 108.4 40.7 108.46 40.75 108.58 40.78 108.69 40.8 108.82 40.83 109.07 40.82 109.31 40.81 109.51 40.8 109.57 40.83 109.63 40.88 109.68 40.93 109.74 41 109.77 41.07 109.77 41.14 109.77 41.21 109.74 41.25 109.69L41.28 109.66 41.29 109.64C41.32 109.6 41.33 109.56 41.33 109.51 41.34 109.37 41.36 109.2 41.39 108.99V108.98C41.43 108.7 41.48 108.4 41.53 108.06 41.54 108.02 41.54 107.99 41.55 107.95 41.58 107.73 41.62 107.51 41.7 107.3 41.74 107.2 41.81 107.1 41.87 106.99 41.93 106.9 42 106.82 42.05 106.76L42.06 106.75 42.11 106.68C42.19 106.59 42.26 106.48 42.32 106.37 42.4 106.24 42.45 106.1 42.48 105.97 42.52 105.78 42.52 105.57 42.48 105.33 42.51 105.36 42.55 105.4 42.63 105.46 42.77 105.58 42.92 105.68 43.07 105.76L43.14 105.8 43.15 105.81C43.26 105.86 43.38 105.93 43.48 106 43.54 106.05 43.59 106.1 43.63 106.14 43.66 106.19 43.68 106.23 43.71 106.28 43.74 106.36 43.76 106.45 43.78 106.55 43.79 106.59 43.79 106.62 43.79 106.66 43.81 106.83 43.83 106.99 43.88 107.15 43.92 107.27 43.97 107.38 44.05 107.48 44.1 107.54 44.15 107.6 44.2 107.64 44.24 107.68 44.29 107.72 44.32 107.75L44.35 107.77C44.44 107.84 44.54 107.88 44.63 107.91 44.71 107.95 44.81 107.98 44.93 108.01 44.95 108.01 44.98 108.02 45 108.03L45.02 108.03 45.04 108.04 45.06 108.04H45.07C45.2 108.07 45.33 108.1 45.46 108.15 45.53 108.18 45.59 108.22 45.65 108.26 45.7 108.3 45.75 108.35 45.79 108.4 45.91 108.56 45.99 108.74 46.06 108.91L46.08 108.95V108.95 108.96C46.13 109.09 46.19 109.23 46.27 109.37 46.31 109.44 46.4 109.49 46.5 109.49 46.54 109.49 46.59 109.48 46.63 109.46 46.67 109.44 46.69 109.41 46.72 109.37 46.75 109.3 46.8 109.2 46.83 109.09 46.85 109 46.87 108.89 46.88 108.77 46.88 108.69 46.88 108.6 46.87 108.5 46.85 108.4 46.83 108.3 46.81 108.21 46.76 108.03 46.68 107.86 46.6 107.68 46.57 107.63 46.55 107.57 46.52 107.52L46.51 107.51 46.5 107.48C46.45 107.39 46.41 107.3 46.37 107.21 46.3 107.04 46.25 106.89 46.23 106.74 46.21 106.55 46.21 106.34 46.23 106.12 46.25 106 46.28 105.87 46.3 105.8V105.78 105.77L46.3 105.74C46.32 105.67 46.33 105.6 46.34 105.54 46.36 105.42 46.38 105.31 46.38 105.2 46.39 105.08 46.37 104.95 46.36 104.85 46.34 104.75 46.31 104.64 46.26 104.52 46.19 104.37 46.12 104.24 46.03 104.1L46.02 104.07 46.01 104.06V104.06L46.01 104.05 46 104.05 45.99 104.04V104.04C45.94 103.95 45.86 103.83 45.8 103.71 45.74 103.62 45.69 103.51 45.63 103.39 45.58 103.28 45.55 103.18 45.52 103.08 45.57 103.11 45.62 103.14 45.69 103.16 45.76 103.19 45.82 103.21 45.9 103.24L45.91 103.25 45.92 103.25 45.93 103.26 45.95 103.26 45.97 103.27 45.97 103.27H45.98L45.99 103.28C46.05 103.3 46.1 103.32 46.15 103.34 46.33 103.42 46.48 103.5 46.62 103.59 46.66 103.63 46.7 103.67 46.74 103.72 46.79 103.78 46.83 103.84 46.87 103.93L46.89 103.99 46.89 104.01 46.9 104.02V104.02C46.95 104.14 46.99 104.25 47.05 104.35 47.15 104.52 47.3 104.66 47.49 104.76 47.66 104.85 47.87 104.89 48.05 104.92L48.1 104.93C48.27 104.95 48.45 104.97 48.62 105.03 48.76 105.09 48.87 105.16 49 105.26 49.27 105.47 49.48 105.72 49.66 105.95 49.69 105.98 49.73 106 49.77 106.01 49.8 106.02 49.82 106.03 49.84 106.03 49.87 106.03 49.89 106.02 49.91 106.01 50 105.99 50.06 105.93 50.09 105.83 50.13 105.73 50.16 105.62 50.17 105.5 50.18 105.39 50.17 105.29 50.16 105.17 50.13 105 50.06 104.83 49.95 104.66 49.83 104.47 49.68 104.31 49.53 104.15L49.53 104.15 49.52 104.14C49.45 104.06 49.34 103.95 49.26 103.84 49.18 103.73 49.11 103.63 49.06 103.53 48.99 103.36 48.95 103.18 48.92 102.99 48.91 102.88 48.9 102.76 48.9 102.68V102.65 102.64 102.63 102.63 102.62C48.89 102.51 48.88 102.37 48.86 102.23 48.83 101.98 48.74 101.74 48.6 101.53 48.68 101.54 48.77 101.55 48.87 101.55 48.9 101.55 48.94 101.55 48.97 101.55 49.07 101.55 49.16 101.54 49.27 101.53H49.28 49.28 49.3C49.35 101.52 49.4 101.52 49.46 101.52 49.55 101.51 49.63 101.51 49.7 101.51 49.79 101.51 49.87 101.51 49.94 101.52 50.03 101.54 50.13 101.56 50.22 101.59 50.27 101.62 50.33 101.65 50.38 101.69 50.46 101.75 50.53 101.82 50.58 101.87L50.59 101.88 50.59 101.88 50.63 101.92C50.76 102.04 50.87 102.12 50.97 102.19 51.09 102.28 51.25 102.33 51.42 102.35 51.49 102.35 51.54 102.36 51.59 102.36 51.66 102.36 51.75 102.35 51.84 102.34 51.99 102.32 52.12 102.29 52.24 102.26 52.35 102.23 52.45 102.18 52.56 102.14 52.75 102.07 52.94 101.99 53.14 101.96 53.18 101.95 53.22 101.95 53.27 101.95 53.32 101.95 53.37 101.95 53.42 101.96 53.54 101.97 53.67 102.01 53.81 102.07 53.86 102.09 53.92 102.12 53.99 102.15 54.04 102.17 54.08 102.19 54.13 102.19 54.17 102.19 54.21 102.17 54.25 102.15 54.29 102.13 54.32 102.1 54.34 102.06 54.37 102.02 54.38 101.98 54.38 101.93 54.39 101.86 54.39 101.8 54.39 101.74 54.39 101.68 54.38 101.61 54.37 101.56V101.55L54.37 101.52C54.36 101.42 54.32 101.32 54.25 101.19 54.21 101.11 54.14 101.02 54.05 100.93 53.97 100.86 53.87 100.78 53.75 100.72 53.65 100.66 53.54 100.61 53.43 100.57 53.31 100.52 53.19 100.47 53.09 100.44 53.04 100.42 52.98 100.4 52.93 100.38L52.92 100.38 52.92 100.37C52.78 100.33 52.61 100.26 52.47 100.21 52.4 100.18 52.36 100.16 52.32 100.13 52.28 100.1 52.25 100.06 52.22 100.02 52.19 99.98 52.15 99.93 52.11 99.88L52.1 99.87 52.1 99.85 52.08 99.84C52.05 99.79 52 99.72 51.96 99.67 51.84 99.51 51.71 99.34 51.55 99.2 51.42 99.09 51.28 99 51.15 98.92 50.97 98.81 50.79 98.68 50.61 98.55 50.5 98.47 50.4 98.38 50.31 98.31L50.29 98.29C50.16 98.18 50.06 98.1 49.96 98.02 50.08 97.99 50.22 97.94 50.3 97.91 50.49 97.84 50.67 97.77 50.86 97.74 50.89 97.74 50.93 97.74 50.97 97.74 51.02 97.74 51.05 97.74 51.09 97.74 51.14 97.75 51.19 97.76 51.24 97.78 51.36 97.84 51.47 97.92 51.58 98L51.59 98.01C51.64 98.05 51.7 98.09 51.77 98.14 51.87 98.21 51.99 98.26 52.11 98.3 52.18 98.32 52.25 98.33 52.32 98.34 52.37 98.34 52.4 98.34 52.43 98.34 52.47 98.34 52.51 98.34 52.56 98.34 52.77 98.32 53 98.27 53.22 98.19 53.33 98.15 53.43 98.1 53.54 98.05L53.55 98.04C53.62 98.01 53.68 97.98 53.75 97.95 53.88 97.9 54 97.86 54.12 97.84 54.16 97.84 54.21 97.84 54.26 97.84 54.33 97.84 54.38 97.84 54.43 97.85 54.57 97.87 54.73 97.91 54.89 97.97 54.91 97.98 54.94 97.98 54.96 97.98 54.98 97.98 55 97.98 55.03 97.97 55.09 97.95 55.15 97.91 55.18 97.85 55.26 97.74 55.21 97.58 55.09 97.51 55.06 97.49 55.03 97.47 55 97.44 54.88 97.34 54.78 97.22 54.67 97.1L54.67 97.1 54.66 97.09 54.66 97.08 54.65 97.07C54.61 97.02 54.54 96.94 54.48 96.88 54.37 96.77 54.24 96.68 54.12 96.59 54.01 96.51 53.88 96.44 53.72 96.37 53.45 96.25 53.15 96.17 52.87 96.09L52.85 96.09H52.85 52.84C52.6 96.02 52.35 95.95 52.11 95.86 51.95 95.79 51.81 95.71 51.68 95.63 51.65 95.61 51.61 95.58 51.57 95.55L51.57 95.54 51.56 95.54 51.56 95.53 51.55 95.53C51.53 95.51 51.51 95.5 51.49 95.48 51.44 95.44 51.37 95.4 51.29 95.34 51.2 95.28 51.09 95.22 50.99 95.16 51.11 95.11 51.22 95.03 51.32 94.93 51.41 94.84 51.48 94.74 51.55 94.65 51.58 94.6 51.61 94.56 51.64 94.52 51.72 94.42 51.81 94.34 51.9 94.27 51.97 94.22 52.03 94.18 52.1 94.14 52.16 94.12 52.22 94.11 52.27 94.1 52.31 94.09 52.34 94.09 52.38 94.09 52.44 94.09 52.49 94.09 52.53 94.1 52.65 94.11 52.77 94.14 52.86 94.17H52.87 52.88 52.88C53.05 94.21 53.19 94.24 53.33 94.25 53.38 94.26 53.42 94.26 53.46 94.26 53.55 94.26 53.64 94.25 53.75 94.23 53.91 94.19 54.06 94.11 54.23 93.99 54.42 93.84 54.6 93.64 54.75 93.37 54.79 93.32 54.82 93.26 54.85 93.2L54.86 93.19C54.93 93.06 55 92.93 55.09 92.81 55.15 92.74 55.22 92.67 55.28 92.62 55.36 92.56 55.45 92.51 55.55 92.47 55.62 92.44 55.69 92.42 55.78 92.39 55.86 92.37 55.93 92.3 55.96 92.21 56.04 92.11 55.99 92 55.89 91.94ZM48.43 95.86C48.32 96.65 48.11 97.42 47.8 98.13 47.52 98.78 47.18 99.37 46.78 99.88 46.41 100.35 45.98 100.77 45.5 101.14 44.98 101.54 44.4 101.87 43.76 102.14 43.01 102.44 42.19 102.66 41.33 102.77 40.87 102.84 40.38 102.86 39.89 102.86 39.37 102.86 38.86 102.83 38.36 102.76 37.35 102.63 36.37 102.37 35.45 102 34.74 101.7 34.09 101.33 33.53 100.9 33.04 100.53 32.6 100.1 32.23 99.62 31.83 99.12 31.5 98.56 31.24 97.95 30.91 97.18 30.68 96.32 30.55 95.38 30.49 94.96 30.46 94.59 30.46 94.24 30.46 94.17 30.46 94.09 30.46 94.01 30.46 93.98 30.47 93.94 30.46 93.91 30.46 93.64 30.48 93.36 30.52 93.08 30.63 92.35 30.83 91.63 31.13 90.93 31.43 90.22 31.83 89.55 32.31 88.94 32.78 88.35 33.32 87.82 33.91 87.37 34.27 87.1 34.66 86.85 35.05 86.64 35.07 86.63 35.08 86.62 35.09 86.61 35.16 86.57 35.24 86.53 35.34 86.48 35.53 86.39 35.7 86.31 35.89 86.23 36.6 85.94 37.36 85.74 38.15 85.63 38.57 85.57 39.01 85.55 39.47 85.55 39.95 85.55 40.43 85.58 40.88 85.63 41.29 85.69 41.65 85.76 42 85.85 42.32 85.93 42.66 86.05 43.01 86.19 43.7 86.48 44.37 86.87 44.99 87.34 45.61 87.82 46.17 88.36 46.63 88.95 46.85 89.22 47.05 89.52 47.23 89.82 47.41 90.12 47.57 90.44 47.74 90.82 48.08 91.62 48.31 92.47 48.43 93.33 48.54 94.18 48.54 95.03 48.43 95.86Z" fill="#6F5FC1"/><path d="M54.71 79.51C57 75.41 61.33 74 61.79 74L61.79 98.19C61.79 101 60.21 104.55 56.54 104.55L21.25 104.55C21.4 103.95 21.8 102.55 22.17 101.82 22.63 100.91 24.92 98.18 26.29 96.81 27.67 95.45 29.5 94.08 30.87 93.62 31.97 93.26 34.39 93.78 35.46 94.08 35.76 93.32 36.92 91.44 39.12 89.98 44.26 87.07 48.6 88.16 50.12 89.07 50.43 88.77 51.41 88.07 52.87 87.7 52.87 85.43 52.42 83.61 54.71 79.51Z" fill="#4837B1"/><path d="M52.42 87.7C56.08 85.88 57.91 86.34 61.58 86.34L62.04 86.34 62.04 100.9C62.04 106 57.06 105.01 55.07 105.01L38.67 104.55C38.67 101.37 39.58 100.45 40.96 98.63 42.06 97.18 44.17 96.51 45.08 96.36 45.24 95.6 45.63 93.9 46 93.17 46.46 92.26 48.75 89.53 52.42 87.7Z" fill="#4633AA"/><path d="M61.8 74.55C61.88 74.54 61.96 74.54 62.04 74.53 62.04 74.35 62.04 74.16 62.02 74 61.41 74.03 60.81 74.16 60.21 74.44 57.79 75.6 55.61 77.49 54.2 79.64 52.56 82.15 52.05 84.82 52.76 87.36L53.3 87.2C53.21 86.89 53.14 86.58 53.1 86.26 52.98 86.17 52.92 86.03 52.95 85.84 52.97 85.79 52.98 85.73 53 85.67 53.01 85.62 53.02 85.57 53.03 85.52 53.01 85.11 53.02 84.7 53.07 84.29 53.15 84.4 53.24 84.51 53.33 84.61 53.37 84.51 53.42 84.41 53.47 84.31 53.49 84.26 53.52 84.21 53.54 84.16 53.41 83.97 53.28 83.78 53.17 83.57 53.22 83.32 53.28 83.07 53.35 82.82 53.48 83.12 53.64 83.39 53.82 83.64 53.87 83.55 53.93 83.44 54 83.33 53.8 83 53.64 82.65 53.53 82.28 53.56 82.17 53.61 82.06 53.65 81.95 53.81 82.28 54.02 82.6 54.28 82.9 54.34 82.81 54.42 82.7 54.5 82.59 54.23 82.2 54.03 81.76 53.93 81.29 54.05 81.05 54.17 80.81 54.31 80.57 54.4 81.07 54.59 81.49 54.98 81.98L54.99 81.99C55.02 81.97 55.04 81.94 55.05 81.92 55.07 81.9 55.09 81.87 55.12 81.85 54.76 81.31 54.54 80.7 54.64 80.01 54.91 79.59 55.21 79.19 55.53 78.8 55.55 79.53 55.76 80.21 56.11 80.81 56.21 80.72 56.29 80.64 56.38 80.56 56.07 79.81 55.99 78.98 56.13 78.18 56.13 78.15 56.14 78.13 56.13 78.11 56.18 78.06 56.23 78.01 56.28 77.96 56.27 78.71 56.51 79.44 56.9 80.09 56.94 80.06 56.98 80.03 57.01 80 57.05 79.97 57.09 79.93 57.12 79.9 56.72 79.19 56.53 78.37 56.77 77.48 56.99 77.26 57.23 77.06 57.46 76.86 57.2 77.7 57.29 78.61 57.76 79.4 57.81 79.35 57.86 79.31 57.92 79.26 57.96 79.24 57.99 79.21 58.03 79.18 57.63 78.25 57.65 77.22 58.33 76.28 58.35 76.24 58.37 76.2 58.37 76.16 58.73 75.91 59.1 75.67 59.48 75.44 59.04 76.36 58.91 77.35 59.12 78.33 59.23 78.24 59.34 78.16 59.45 78.08 59.29 76.94 59.4 75.76 60.4 75 60.43 74.98 60.46 74.95 60.48 74.92 60.71 74.81 60.95 74.72 61.18 74.66 60.56 75.55 60.21 76.32 60.25 77.5 60.26 77.56 60.26 77.62 60.27 77.68 60.27 77.8 60.28 77.92 60.3 78.04 60.33 78.11 60.35 78.19 60.35 78.3 60.47 78.93 60.76 79.48 61.3 79.9 61.39 79.97 61.5 79.86 61.42 79.78 59.94 78.49 60.55 75.81 61.75 74.61 61.77 74.59 61.79 74.57 61.8 74.55Z" fill="white"/><path d="M58.42 79.9C58.96 80.66 59.76 81.27 60.66 81.54 60.71 81.55 60.71 81.65 60.65 81.65 59.67 81.52 58.83 80.86 58.22 80.08L58.25 80.04C58.32 80 58.37 79.96 58.42 79.9Z" fill="white"/><path d="M58.66 82.98C57.96 82.5 57.29 82.02 56.79 81.3 56.77 81.32 56.75 81.34 56.73 81.36 56.68 81.41 56.63 81.45 56.59 81.5 57.27 82.34 58.2 83.03 59.2 83.48 59.24 83.5 59.29 83.44 59.24 83.4 59.05 83.26 58.85 83.12 58.66 82.98Z" fill="white"/><path d="M57.8 84.75C56.82 84.52 55.81 84 55.05 83.26 54.99 83.34 54.93 83.44 54.86 83.53 55.72 84.31 56.81 84.86 57.79 84.86 57.85 84.86 57.87 84.77 57.8 84.75Z" fill="white"/><path d="M54.15 84.86C54.71 85.4 55.39 85.79 56.13 85.98 56.22 86.01 56.19 86.15 56.08 86.14 55.29 85.98 54.6 85.68 54 85.24 54.02 85.18 54.04 85.13 54.06 85.08 54.09 85 54.12 84.93 54.15 84.86Z" fill="white"/><path d="M59.76 79.56L59.62 78.99C59.54 79.06 59.46 79.12 59.37 79.18 59.43 79.34 59.5 79.48 59.57 79.64 59.64 79.75 59.8 79.67 59.76 79.56Z" fill="white"/><path d="M59.62 82.23C58.91 81.79 58.17 81.24 57.61 80.58 57.54 80.64 57.46 80.7 57.38 80.75 57.98 81.44 58.74 82.01 59.54 82.35 59.64 82.4 59.7 82.27 59.62 82.23Z" fill="white"/><path d="M56.79 83.44C56.41 83.17 56 82.85 55.66 82.49 55.64 82.51 55.62 82.53 55.61 82.55 55.59 82.57 55.58 82.59 55.56 82.6 55.92 82.95 56.33 83.23 56.78 83.47 56.79 83.48 56.81 83.45 56.79 83.44Z" fill="white"/><path d="M55.92 85.02C55.39 84.79 54.93 84.46 54.55 84.05 54.5 84.13 54.45 84.21 54.42 84.27 54.85 84.64 55.34 84.93 55.89 85.08 55.94 85.1 55.96 85.04 55.92 85.02Z" fill="white"/><path d="M27.31 96.04C27.27 96.08 27.22 96.11 27.18 96.14 27.46 96.25 27.72 96.38 27.98 96.53 27.95 96.56 27.92 96.61 27.89 96.67 27.56 96.55 27.23 96.46 26.9 96.39 26.69 96.58 26.48 96.77 26.28 96.96 26.65 97.14 27.03 97.3 27.4 97.46 27.35 97.5 27.32 97.57 27.29 97.63 26.88 97.49 26.47 97.38 26.06 97.33 26.01 97.32 25.98 97.31 25.95 97.3 25.79 97.46 25.63 97.63 25.47 97.81 25.55 97.84 25.63 97.87 25.71 97.9 26.1 98.05 26.48 98.2 26.86 98.37 26.85 98.39 26.84 98.41 26.82 98.43 26.79 98.48 26.76 98.53 26.74 98.59 26.23 98.38 25.72 98.21 25.2 98.1 24.94 98.4 24.69 98.71 24.44 99.03 25.08 99.13 25.7 99.26 26.29 99.43L26.15 99.72C25.52 99.51 24.86 99.42 24.16 99.48 24.14 99.48 24.12 99.48 24.11 99.48 23.98 99.65 23.86 99.82 23.75 99.99 24.45 100.04 25.14 100.22 25.84 100.41 25.82 100.44 25.8 100.47 25.79 100.51 25.77 100.55 25.76 100.58 25.74 100.61 25.01 100.44 24.29 100.3 23.53 100.32 23.41 100.5 23.3 100.68 23.19 100.86 23.43 100.9 23.67 100.94 23.9 100.98 24.43 101.07 24.94 101.15 25.46 101.3 25.44 101.35 25.42 101.4 25.4 101.44 25.38 101.49 25.36 101.54 25.35 101.59 24.55 101.35 23.72 101.21 22.96 101.25 22.75 101.61 22.55 101.98 22.37 102.35 22.66 102.25 22.97 102.26 23.29 102.3 23.75 102.37 24.2 102.45 24.64 102.53 24.85 102.56 25.05 102.6 25.25 102.63 25.24 102.7 25.22 102.76 25.21 102.81 24.78 102.77 24.34 102.76 23.91 102.74L23.86 102.74 23.76 102.74C23.27 102.7 22.71 102.67 22.3 102.98 22.22 103.04 22.13 103.04 22.06 103.01 21.84 103.51 21.63 104.03 21.46 104.55H21C22.15 101.16 24.22 97.86 26.97 95.6 28.13 94.66 29.14 94.05 30.18 93.72 31.65 93.23 33.37 93.23 35.44 93.69L35.32 94.24C33.86 93.91 32.6 93.84 31.48 93.99 31.83 94.17 32.15 94.38 32.47 94.65 32.52 94.68 32.46 94.76 32.41 94.72 32 94.44 31.49 94.22 30.99 94.08 30.76 94.13 30.55 94.19 30.34 94.25 30.21 94.29 30.08 94.34 29.94 94.39 30.95 94.77 31.88 95.18 32.68 95.96 32.71 96 32.68 96.04 32.65 96.01 31.72 95.41 30.65 94.76 29.53 94.57 29.36 94.65 29.19 94.74 29.03 94.83 29.32 94.97 29.6 95.2 29.86 95.42 29.99 95.53 30.12 95.64 30.24 95.73 30.29 95.78 30.26 95.85 30.2 95.82 30.05 95.75 29.88 95.68 29.72 95.61 29.36 95.47 28.99 95.32 28.71 95.07 28.7 95.06 28.69 95.05 28.68 95.03 28.41 95.2 28.13 95.39 27.85 95.61 28 95.66 28.16 95.71 28.32 95.76 28.74 95.9 29.16 96.03 29.57 96.23 30.18 96.55 30.69 96.95 31.19 97.41 31.26 97.47 31.16 97.61 31.08 97.55 30.13 96.83 28.78 96.09 27.59 96 27.52 95.99 27.47 95.97 27.44 95.93 27.4 95.97 27.35 96 27.31 96.04Z" fill="white"/><path d="M30.97 99.42C30.13 98.63 29.17 98.18 28.17 97.77 28.13 97.83 28.1 97.9 28.06 97.96 28.75 98.29 29.42 98.7 30.05 99.1 30.32 99.27 30.59 99.44 30.84 99.59 30.94 99.65 31.07 99.5 30.97 99.42Z" fill="white"/><path d="M30.1 101.59C29.19 100.74 28.17 100.13 27.08 99.7 27.04 99.81 26.99 99.91 26.93 100 27.73 100.36 28.49 100.84 29.24 101.31 29.48 101.46 29.72 101.61 29.96 101.76 30.07 101.84 30.2 101.68 30.1 101.59Z" fill="white"/><path d="M26.25 101.57C26.91 101.84 27.54 102.17 28.16 102.56 28.29 102.64 28.17 102.84 28.05 102.76 27.48 102.43 26.82 102.12 26.14 101.85 26.15 101.81 26.17 101.76 26.19 101.71 26.21 101.66 26.23 101.62 26.25 101.57Z" fill="white"/><path d="M28.6 99.23C28.29 99.03 27.95 98.85 27.62 98.7 27.59 98.77 27.54 98.85 27.49 98.92 27.84 99.07 28.17 99.23 28.51 99.39 28.62 99.45 28.71 99.29 28.6 99.23Z" fill="white"/><path d="M38.14 91.16C38.31 91.02 38.49 90.89 38.67 90.76 39.32 90.91 39.94 91.19 40.53 91.52 40.61 91.47 40.67 91.43 40.74 91.38 40.18 91.06 39.59 90.8 38.98 90.55L39 90.53C39.1 90.46 39.21 90.4 39.32 90.33 39.33 90.34 39.35 90.34 39.36 90.34 40.03 90.45 40.69 90.67 41.31 90.99 41.4 90.94 41.48 90.88 41.56 90.81 41.03 90.5 40.45 90.25 39.83 90.03 40.02 89.93 40.22 89.83 40.42 89.73 40.43 89.74 40.44 89.74 40.45 89.75 41.01 89.89 41.54 90.2 42.06 90.52 42.09 90.5 42.12 90.48 42.15 90.47 42.2 90.44 42.26 90.41 42.3 90.38 42.19 90.28 42.06 90.19 41.92 90.11 41.76 90.01 41.58 89.92 41.41 89.83 41.22 89.73 41.04 89.64 40.87 89.53 40.98 89.49 41.09 89.44 41.2 89.4 41.21 89.41 41.24 89.41 41.26 89.42 41.78 89.48 42.24 89.75 42.7 90.01 42.74 90.04 42.77 90.06 42.81 90.08 42.84 90.1 42.88 90.12 42.92 90.14 43.09 90.12 43.23 90.23 43.3 90.38 43.6 90.55 43.88 90.74 44.15 90.96 44.21 91 44.31 90.92 44.25 90.86 43.53 90.2 42.76 89.52 41.84 89.17 42.01 89.11 42.19 89.06 42.36 89.01 43.16 89.29 43.79 89.8 44.4 90.38 44.5 90.46 44.59 90.57 44.69 90.68 45 91.01 45.34 91.39 45.75 91.43 45.75 91.43 45.76 91.41 45.75 91.41 45.72 91.15 45.62 91.05 45.45 90.89 45.41 90.86 45.38 90.82 45.34 90.78 45.27 90.72 45.2 90.65 45.14 90.59 44.87 90.32 44.6 90.05 44.31 89.79 43.89 89.43 43.45 89.1 42.96 88.86 43.2 88.81 43.43 88.76 43.67 88.72 43.69 88.73 43.71 88.74 43.74 88.74 44.18 88.78 44.66 89.21 45.04 89.54 45.12 89.62 45.2 89.69 45.27 89.75 45.67 90.08 46.06 90.41 46.43 90.78 46.49 90.86 46.6 90.75 46.54 90.69 46.1 90.17 45.64 89.67 45.12 89.23 45.07 89.19 45.03 89.15 44.98 89.11L44.98 89.11C44.79 88.95 44.59 88.77 44.37 88.62 44.78 88.58 45.19 88.55 45.6 88.54 45.86 88.66 46.11 88.84 46.32 88.99 46.74 89.29 47.11 89.67 47.41 90.09 47.45 90.14 47.53 90.09 47.48 90.05 47.17 89.53 46.79 89.07 46.32 88.7 46.29 88.67 46.25 88.64 46.21 88.61 46.2 88.6 46.19 88.59 46.17 88.58 46.16 88.57 46.14 88.55 46.13 88.54 47.51 88.57 48.9 88.8 50.22 89.26L50.39 88.74C46.46 87.38 41.97 87.88 38.68 90.08 34.34 92.97 33.34 97.5 32.96 101.57L33.52 101.6C33.55 101.2 33.6 100.8 33.65 100.39 33.72 100.42 33.81 100.43 33.88 100.44 33.88 100.44 33.89 100.44 33.9 100.44 34.2 100.48 34.51 100.49 34.8 100.49 35.47 100.5 36.11 100.51 36.72 100.96 36.77 100.99 36.82 100.91 36.79 100.88 36.09 100.21 35.34 100.17 34.46 100.13 34.36 100.12 34.26 100.12 34.16 100.11 34.02 100.1 33.91 100.06 33.81 100.02 33.77 100 33.74 99.99 33.71 99.97 33.81 99.25 33.94 98.52 34.11 97.81 34.26 97.8 34.43 97.8 34.57 97.82 34.61 97.71 34.64 97.6 34.68 97.49 34.53 97.46 34.37 97.45 34.21 97.44 34.3 97.11 34.4 96.77 34.51 96.44L34.59 96.46C34.75 96.5 34.91 96.54 35.06 96.59 35.09 96.57 35.1 96.53 35.12 96.51 35.12 96.5 35.12 96.49 35.13 96.48 35.14 96.47 35.14 96.45 35.15 96.44 35.16 96.43 35.17 96.42 35.17 96.4 34.99 96.32 34.8 96.24 34.6 96.18 34.66 96 34.73 95.83 34.8 95.66 35.06 95.69 35.32 95.74 35.57 95.79L35.6 95.74C35.67 95.65 35.72 95.58 35.79 95.51 35.51 95.44 35.22 95.38 34.93 95.35 35.01 95.18 35.08 95.02 35.17 94.85 35.19 94.87 35.23 94.89 35.27 94.9 35.55 94.91 35.87 94.96 36.2 95.02 36.28 94.93 36.38 94.83 36.49 94.72 36.09 94.63 35.67 94.59 35.3 94.58 35.39 94.43 35.47 94.27 35.56 94.12 35.99 94.14 36.4 94.24 36.8 94.39 36.88 94.33 36.96 94.25 37.02 94.17 36.62 94.03 36.2 93.89 35.78 93.76L35.82 93.7C35.83 93.71 35.85 93.72 35.87 93.72 36.31 93.81 36.75 93.91 37.23 94.02 37.29 93.94 37.37 93.88 37.47 93.81 37.22 93.73 36.97 93.65 36.72 93.58 36.5 93.51 36.27 93.44 36.05 93.37 36.17 93.19 36.3 93.02 36.43 92.86 36.99 92.94 37.55 93.07 38.08 93.26L38.37 93.03C37.84 92.81 37.28 92.64 36.71 92.52 36.84 92.37 36.98 92.22 37.13 92.07 37.15 92.08 37.16 92.08 37.18 92.09 37.77 92.24 38.35 92.4 38.9 92.62 38.95 92.58 39 92.55 39.04 92.52 39.07 92.5 39.1 92.48 39.13 92.46 38.81 92.32 38.47 92.2 38.14 92.07 37.9 91.98 37.65 91.89 37.41 91.79 37.51 91.7 37.61 91.6 37.72 91.51 37.74 91.51 37.76 91.52 37.78 91.52 38.46 91.57 39.08 91.79 39.68 92.09 39.69 92.08 39.71 92.07 39.73 92.06 39.74 92.04 39.76 92.03 39.77 92.02 39.8 92.01 39.82 92 39.85 91.98 39.89 91.96 39.93 91.93 39.98 91.91 39.4 91.6 38.8 91.34 38.14 91.16Z" fill="white"/><path d="M42.32 91.35C42.6 91.58 42.89 91.84 43.16 92.12 43.2 92.17 43.12 92.24 43.08 92.2 42.78 91.93 42.46 91.69 42.13 91.47" fill="white"/><path d="M42.32 91.35C42.25 91.38 42.19 91.43 42.13 91.47Z" fill="white"/><path d="M40.6 92.51C40.64 92.49 40.69 92.45 40.73 92.42 40.75 92.42 40.76 92.41 40.77 92.4 41.54 92.92 42.25 93.53 42.95 94.22 43 94.27 42.93 94.36 42.87 94.32 42.6 94.12 42.33 93.91 42.06 93.7 41.55 93.31 41.04 92.92 40.5 92.57 40.53 92.54 40.56 92.53 40.6 92.51Z" fill="white"/><path d="M39.22 93.45C39.77 93.77 40.31 94.14 40.8 94.6 40.85 94.65 40.78 94.76 40.72 94.71 40.17 94.3 39.6 93.94 38.98 93.64L39.22 93.45Z" fill="white"/><path d="M37.88 94.55C38.53 94.85 39.16 95.23 39.74 95.7 39.82 95.76 39.73 95.85 39.65 95.82 39.26 95.65 38.87 95.44 38.48 95.23 38.2 95.08 37.91 94.93 37.62 94.79 37.72 94.69 37.8 94.61 37.88 94.55Z" fill="white"/><path d="M36.64 95.78C37.51 96.14 38.32 96.67 39.03 97.28 39.09 97.33 39.01 97.42 38.95 97.39 38.69 97.25 38.44 97.11 38.19 96.97 37.6 96.63 37.03 96.3 36.42 96.06 36.49 95.96 36.56 95.87 36.64 95.78Z" fill="white"/><path d="M35.52 97.64C36.34 97.86 37.1 98.27 37.77 98.85 37.86 98.93 37.73 99.04 37.64 98.98 36.98 98.46 36.22 98.1 35.41 97.93 35.44 97.83 35.47 97.74 35.52 97.64Z" fill="white"/><path d="M35.93 96.76C36.11 96.86 36.28 96.95 36.45 97.06 36.5 97.09 36.45 97.17 36.41 97.14 36.23 97.05 36.06 96.97 35.87 96.89 35.88 96.86 35.9 96.82 35.92 96.8 35.92 96.79 35.93 96.77 35.93 96.76Z" fill="white"/><path d="M38.62 96.09C38.32 95.63 37.86 95.29 37.34 95.04 37.26 95.12 37.18 95.2 37.1 95.26 37.66 95.46 38.16 95.74 38.51 96.17 38.56 96.23 38.67 96.15 38.62 96.09Z" fill="white"/><path d="M38.35 94.14C38.84 94.36 39.28 94.63 39.69 95.02 39.71 95.04 39.69 95.05 39.68 95.05 39.24 94.72 38.72 94.49 38.18 94.3 38.2 94.28 38.23 94.26 38.25 94.23 38.28 94.21 38.32 94.18 38.35 94.14Z" fill="white"/><path d="M39.99 92.9C40.5 93.25 40.93 93.69 41.34 94.14 41.37 94.19 41.32 94.24 41.27 94.21L41.18 94.12C40.74 93.73 40.3 93.34 39.79 93.04 39.85 93 39.92 92.95 39.99 92.9Z" fill="white"/><path d="M42.51 92.59C42.19 92.32 41.88 92.09 41.54 91.87 41.48 91.91 41.42 91.96 41.35 91.99 41.72 92.23 42.08 92.45 42.44 92.67 42.49 92.7 42.55 92.64 42.51 92.59Z" fill="white"/><path d="M53.51 98.24C52.84 97.25 51.99 96.48 50.98 95.89 50.95 95.93 50.92 95.98 50.9 96.04 51.89 96.58 52.72 97.35 53.38 98.32 53.43 98.4 53.57 98.32 53.51 98.24Z" fill="white"/><path d="M59.14 86.48C59.8 86.48 60.46 86.53 61.13 86.62 61.14 86.64 61.15 86.65 61.17 86.67 61.36 86.85 61.58 86.99 61.79 87.13 61.82 87.15 61.85 87.17 61.88 87.19 61.87 87.09 61.87 87 61.87 86.9 61.86 86.84 61.86 86.79 61.86 86.73L61.87 86.73C61.85 86.54 61.85 86.34 61.85 86.17 58.86 85.65 55.85 85.95 53.29 87.03 52.27 87.45 51.28 88.01 50.15 88.78 50.11 88.8 50.07 88.82 50.05 88.85 49.97 88.9 49.9 88.96 49.83 89.01 48.63 89.86 47.65 90.7 46.9 91.56 46.83 91.57 46.79 91.63 46.78 91.7 45.45 93.26 44.86 94.84 44.99 96.48L45.54 96.44C45.49 95.83 45.56 95.24 45.73 94.64 46.27 94.64 46.8 94.72 47.34 94.82 47.36 94.79 47.38 94.77 47.39 94.76 47.47 94.68 47.56 94.58 47.64 94.49 47.06 94.31 46.49 94.2 45.9 94.15 46.02 93.83 46.18 93.51 46.38 93.19 47.07 93.23 47.75 93.33 48.42 93.48 48.47 93.42 48.51 93.36 48.55 93.3 48.6 93.23 48.64 93.17 48.69 93.11 48.03 92.92 47.36 92.8 46.67 92.74 46.85 92.48 47.05 92.22 47.28 91.97 47.98 91.99 48.68 92.08 49.37 92.23 49.39 92.2 49.42 92.17 49.45 92.14 49.47 92.11 49.5 92.09 49.52 92.06 48.9 91.86 48.25 91.72 47.59 91.62 47.77 91.43 47.97 91.24 48.18 91.04 48.99 91.06 49.85 91.1 50.66 91.27 50.69 91.24 50.72 91.21 50.76 91.18 50.79 91.15 50.83 91.12 50.86 91.08 50.91 91.04 50.96 91.01 51 90.97 50.25 90.75 49.44 90.67 48.66 90.61 48.84 90.46 49.03 90.3 49.23 90.14 49.91 90.24 50.55 90.39 51.15 90.59 51.26 90.52 51.37 90.44 51.48 90.34 50.86 90.13 50.22 89.98 49.59 89.87 49.77 89.73 49.95 89.6 50.14 89.46 50.25 89.39 50.36 89.31 50.46 89.24 51.19 89.25 51.87 89.42 52.53 89.68 52.68 89.59 52.84 89.51 53 89.43 52.38 89.15 51.75 88.92 51.09 88.82 51.34 88.66 51.58 88.52 51.82 88.38 52.51 88.51 53.18 88.74 53.82 89.03 53.89 88.99 53.97 88.97 54.04 88.94 54.11 88.91 54.18 88.88 54.25 88.85 53.63 88.56 52.97 88.32 52.29 88.11 52.32 88.1 52.35 88.08 52.38 88.07 53.99 87.87 55.45 88.7 56.73 89.65 56.79 89.62 56.84 89.59 56.89 89.56 55.78 88.62 54.63 87.88 53.2 87.66 53.3 87.62 53.39 87.58 53.49 87.53 53.63 87.47 53.77 87.42 53.92 87.36 55.33 87.65 56.58 88.27 57.73 89.07 57.77 89.05 57.81 89.03 57.84 89.01 57.88 88.99 57.92 88.97 57.96 88.95 56.93 88.18 55.75 87.61 54.54 87.15 54.81 87.06 55.09 86.98 55.37 86.91 56.61 87.18 57.69 87.82 58.69 88.6 58.78 88.55 58.88 88.51 58.97 88.48 58.15 87.76 57.25 87.15 56.22 86.73 56.78 86.62 57.35 86.55 57.92 86.51 59 86.72 60.21 87.25 61.01 88L61.49 88C61.48 88 61.47 88 61.47 87.99 61.47 87.99 61.46 87.98 61.46 87.97 60.92 87.34 60.04 86.83 59.14 86.48Z" fill="white"/><path d="M60.6 90.01C60.3 89.7 59.99 89.39 59.67 89.09 59.58 89.12 59.48 89.15 59.42 89.2 59.66 89.4 59.89 89.62 60.12 89.83 60.24 89.94 60.36 90.05 60.48 90.16 60.55 90.23 60.68 90.11 60.6 90.01Z" fill="white"/><path d="M56.48 92.02C56.29 91.71 56.08 91.44 55.83 91.21 55.75 91.25 55.67 91.3 55.61 91.35 55.88 91.58 56.11 91.84 56.3 92.13 56.37 92.24 56.54 92.13 56.48 92.02Z" fill="white"/><path d="M53.92 89.9C53.78 89.97 53.62 90.05 53.48 90.12 53.5 90.13 53.52 90.14 53.54 90.16 53.56 90.17 53.58 90.18 53.6 90.19 54.01 90.39 54.44 90.61 54.85 90.85 54.9 90.82 54.95 90.78 55 90.75 55.05 90.72 55.1 90.69 55.15 90.66 54.77 90.38 54.34 90.14 53.92 89.9Z" fill="white"/><path d="M51.63 91.29C52.12 91.52 52.59 91.8 53.05 92.12L52.81 92.31C52.5 92.1 52.16 91.91 51.83 91.74 51.67 91.66 51.5 91.58 51.33 91.52 51.37 91.48 51.42 91.44 51.48 91.4 51.53 91.36 51.58 91.33 51.63 91.29Z" fill="white"/><path d="M55 93.62L55.12 93.72C55.15 93.75 55.1 93.8 55.07 93.78 54.82 93.62 54.57 93.45 54.31 93.28 54.06 93.11 53.81 92.94 53.55 92.78 53.62 92.73 53.68 92.68 53.74 92.62 54.18 92.95 54.59 93.29 55 93.62Z" fill="white"/><path d="M51.85 94.54C52.37 94.9 52.87 95.31 53.35 95.78 53.4 95.82 53.33 95.89 53.29 95.84 52.78 95.45 52.24 95.09 51.69 94.76 51.71 94.73 51.73 94.7 51.75 94.67 51.78 94.63 51.81 94.58 51.85 94.54Z" fill="white"/><path d="M49.57 93.39C50.11 93.59 50.63 93.83 51.14 94.11 51.1 94.16 51.07 94.2 51.04 94.25 51.01 94.29 50.98 94.33 50.95 94.38 50.42 94.13 49.87 93.91 49.32 93.72 49.41 93.61 49.49 93.5 49.57 93.39Z" fill="white"/><path d="M48.51 94.76C49.1 94.98 49.68 95.23 50.24 95.49 50.22 95.53 50.2 95.56 50.18 95.59 50.16 95.62 50.14 95.65 50.12 95.68 50.09 95.67 50.06 95.65 50.03 95.64 50 95.63 49.97 95.62 49.94 95.6 49.4 95.4 48.83 95.2 48.26 95.04 48.35 94.94 48.43 94.85 48.51 94.76Z" fill="white"/><path d="M51.64 92.89C51.25 92.68 50.84 92.51 50.43 92.35 50.38 92.4 50.35 92.43 50.31 92.48 50.76 92.6 51.18 92.76 51.61 92.95 51.64 92.98 51.69 92.9 51.64 92.89Z" fill="white"/><path d="M54.64 91.98C55.1 92.32 55.53 92.71 55.89 93.14 55.92 93.17 55.88 93.23 55.85 93.2 55.36 92.84 54.87 92.49 54.36 92.17L54.64 91.98Z" fill="white"/><path d="M53.9 91.47C53.44 91.19 52.94 90.94 52.43 90.72 52.39 90.75 52.35 90.78 52.3 90.81 52.23 90.85 52.15 90.9 52.08 90.96 52.59 91.18 53.1 91.43 53.59 91.71 53.64 91.67 53.69 91.63 53.74 91.59 53.8 91.55 53.85 91.51 53.9 91.47Z" fill="white"/><path d="M57.24 91.22C57.32 91.3 57.41 91.19 57.35 91.11 57.17 90.92 57 90.74 56.81 90.56 56.77 90.59 56.73 90.61 56.7 90.63L56.69 90.64C56.66 90.66 56.63 90.68 56.59 90.71 56.81 90.88 57.03 91.05 57.24 91.22Z" fill="white"/><path d="M54.8 89.53C54.93 89.48 55.02 89.39 55.06 89.28 55.44 89.5 55.81 89.75 56.16 90.01 56.11 90.05 56.06 90.08 56.01 90.11 55.96 90.14 55.91 90.17 55.86 90.2 55.53 89.95 55.17 89.73 54.8 89.53Z" fill="white"/><path d="M58.66 89.5C58.8 89.62 58.94 89.75 59.07 89.89 59.13 89.97 59.04 90.06 58.96 90 58.78 89.86 58.63 89.73 58.45 89.61 58.52 89.57 58.58 89.54 58.66 89.5Z" fill="white"/><path d="M39.13 104.85L38.6 105.01C37.67 101.8 40.02 98.16 42.85 96.73 42.88 96.7 42.91 96.69 42.95 96.68 43.15 96.58 43.36 96.49 43.57 96.42 45.24 95.82 47.99 95.78 50.03 96.88 51.18 97.5 51.94 98.41 52.23 99.53L51.69 99.67C51.6 99.33 51.46 99.01 51.27 98.72 50.84 98.81 50.53 99.1 50.23 99.42 50.15 99.51 50.07 99.59 49.98 99.68 49.7 99.97 49.4 100.27 49.25 100.61 49.19 100.77 48.97 100.72 49.02 100.56 49.16 100.05 49.54 99.69 49.92 99.34 49.95 99.3 49.99 99.27 50.03 99.23 50.37 98.9 50.69 98.66 51.11 98.49 50.9 98.21 50.64 97.96 50.34 97.74L50.33 97.74C49.58 98.04 49.19 98.94 48.85 99.71 48.77 99.9 48.69 100.09 48.61 100.25 48.56 100.33 48.4 100.27 48.43 100.17 48.7 99.17 49.11 98.1 50 97.52 49.93 97.47 49.84 97.42 49.76 97.38 49.69 97.34 49.61 97.3 49.53 97.26 49.55 97.32 49.53 97.38 49.46 97.41 48.82 97.71 48.39 98.79 48.14 99.44L48.12 99.5C48.1 99.55 48.05 99.58 48.01 99.57L48 99.6C47.99 99.64 47.98 99.68 47.97 99.72 47.93 99.98 47.9 100.25 47.88 100.52 47.9 100.6 47.79 100.6 47.79 100.52L47.79 100.4C47.8 99.97 47.82 99.43 48.02 99.07 48.03 99.06 48.04 99.06 48.05 99.06 48.28 98.33 48.66 97.47 49.31 97.16 49.17 97.1 49.03 97.04 48.88 96.99 48.8 97.12 48.7 97.24 48.59 97.36 48.49 97.47 48.4 97.58 48.32 97.69 48.27 97.77 48.21 97.86 48.15 97.94 47.96 98.2 47.77 98.47 47.63 98.76 47.63 98.79 47.53 98.74 47.55 98.7L47.58 98.59C47.71 98.19 47.84 97.8 48.05 97.44 48.08 97.4 48.11 97.35 48.14 97.3 48.23 97.15 48.33 96.99 48.44 96.86 48.32 96.82 48.2 96.79 48.07 96.76 47.13 97.27 46.6 98.7 46.54 99.69 46.55 99.75 46.46 99.75 46.46 99.7 46.5 98.62 47.02 97.52 47.73 96.7 47.47 96.65 47.2 96.62 46.93 96.6 46.92 96.61 46.91 96.61 46.9 96.62 46 97.46 45.34 98.54 45.49 99.81 45.49 99.86 45.4 99.87 45.4 99.83 45.19 98.57 45.67 97.51 46.45 96.57 46.19 96.56 45.95 96.57 45.7 96.58 45.12 97.31 44.88 98.33 44.85 99.25 44.86 99.36 44.72 99.36 44.7 99.25 44.67 98.37 44.95 97.69 45.25 96.97 45.3 96.85 45.35 96.73 45.4 96.61 45.07 96.64 44.76 96.69 44.47 96.75 44.1 97.47 43.71 98.3 43.72 99.1 43.74 99.83 44.06 100.55 44.35 101.23 44.41 101.36 44.47 101.5 44.53 101.63 44.56 101.73 44.47 101.79 44.42 101.71 43.95 100.96 43.53 100.17 43.49 99.26 43.45 98.58 43.67 97.94 43.88 97.31 43.93 97.16 43.98 97.01 44.02 96.86 43.93 96.89 43.83 96.92 43.74 96.95 43.51 97.04 43.27 97.14 43.04 97.26 42.37 98.26 42.56 99.61 42.98 100.68 43.03 100.78 42.89 100.83 42.82 100.75 42.11 99.77 42.15 98.64 42.5 97.57 42.29 97.71 42.08 97.85 41.88 98.02L41.88 98.02C41.73 98.92 41.62 99.73 42 100.58 42.29 101.24 42.79 101.82 43.3 102.34 43.34 102.4 43.25 102.5 43.19 102.43L43.07 102.33C42.54 101.83 42.03 101.35 41.72 100.67 41.4 99.98 41.38 99.18 41.42 98.41 41.35 98.48 41.27 98.55 41.2 98.62 41.2 98.65 41.19 98.67 41.18 98.7 40.78 99.62 41.08 101.11 41.75 101.87 41.78 101.9 41.75 101.95 41.7 101.92 41.01 101.28 40.62 100.14 40.72 99.15 40.56 99.33 40.41 99.53 40.27 99.73 40.37 101.21 41.22 102.16 42.27 103.16 42.35 103.22 42.24 103.33 42.16 103.27 41.56 102.78 40.97 102.28 40.55 101.62 40.25 101.16 40.14 100.71 40.03 100.23L40.01 100.13C39.89 100.32 39.77 100.52 39.67 100.72 39.63 101.52 40.3 102.3 40.88 102.98 41.08 103.22 41.27 103.44 41.42 103.64 41.45 103.67 41.38 103.72 41.35 103.69 41.25 103.59 41.15 103.49 41.05 103.39 40.41 102.76 39.7 102.06 39.44 101.22 39.32 101.51 39.22 101.8 39.14 102.1 39.18 102.11 39.21 102.14 39.22 102.2 39.28 102.82 39.99 103.36 40.45 103.7L40.45 103.7C40.68 103.87 40.92 103.99 41.16 104.12 41.38 104.23 41.59 104.35 41.8 104.49 41.84 104.54 41.81 104.6 41.76 104.57 41.6 104.47 41.42 104.41 41.24 104.35 41.07 104.29 40.89 104.22 40.72 104.13 40.44 103.97 40.17 103.77 39.92 103.55 39.88 103.52 39.85 103.5 39.82 103.47 39.52 103.22 39.16 102.93 39.04 102.56 38.89 103.33 38.91 104.11 39.13 104.85Z" fill="white"/><path d="M7.33 24.58C5.04 28.68 0.7 30.08 0.25 30.08L0.25 5.89C0.25 3.09 1.83-0.47 5.5-0.47L40.79-0.47C40.64 0.14 40.24 1.54 39.87 2.27 39.41 3.18 37.12 5.91 35.75 7.28 34.37 8.64 32.54 10.01 31.16 10.46 30.06 10.83 27.65 10.31 26.58 10.01 26.28 10.77 25.12 12.65 22.92 14.11 17.78 17.02 13.44 15.93 11.92 15.02 11.61 15.32 10.63 16.02 9.17 16.38 9.17 18.66 9.62 20.48 7.33 24.58Z" fill="#422B9D"/><path d="M9.62 16.38C5.96 18.2 4.12 17.75 0.46 17.75L0 17.75 0 3.18C0-1.92 4.98-0.92 6.97-0.92L23.37-0.47C23.37 2.72 22.46 3.63 21.08 5.45 19.98 6.91 17.87 7.58 16.96 7.73 16.8 8.49 16.41 10.19 16.04 10.92 15.58 11.83 13.29 14.56 9.62 16.38Z" fill="#4633AA"/><path d="M0.24 29.53C0.16 29.54 0.08 29.55 0 29.55 0 29.74 0 29.93 0.02 30.09 0.63 30.05 1.23 29.93 1.83 29.65 4.25 28.48 6.43 26.6 7.84 24.45 9.48 21.94 9.99 19.27 9.28 16.73L8.74 16.88C8.83 17.2 8.9 17.51 8.94 17.82 9.05 17.92 9.12 18.06 9.09 18.25 9.07 18.3 9.06 18.36 9.04 18.42 9.03 18.46 9.02 18.51 9.01 18.56 9.03 18.98 9.02 19.39 8.97 19.8 8.89 19.68 8.8 19.58 8.71 19.47 8.67 19.58 8.62 19.68 8.57 19.78 8.55 19.83 8.52 19.88 8.5 19.93 8.63 20.11 8.76 20.31 8.87 20.51 8.82 20.77 8.76 21.02 8.69 21.26 8.56 20.97 8.4 20.7 8.22 20.45 8.17 20.54 8.11 20.65 8.04 20.76 8.24 21.08 8.4 21.43 8.51 21.81 8.47 21.92 8.43 22.03 8.39 22.14 8.23 21.81 8.02 21.49 7.76 21.18 7.7 21.28 7.62 21.39 7.54 21.5 7.81 21.88 8.01 22.33 8.11 22.8 7.99 23.04 7.87 23.28 7.73 23.52 7.64 23.01 7.45 22.59 7.06 22.11L7.05 22.09C7.02 22.12 7 22.14 6.98 22.17 6.96 22.19 6.95 22.21 6.92 22.24 7.28 22.78 7.5 23.39 7.4 24.07 7.13 24.49 6.83 24.9 6.51 25.29 6.49 24.56 6.28 23.88 5.93 23.27 5.83 23.37 5.75 23.45 5.66 23.52 5.97 24.28 6.05 25.11 5.91 25.91 5.91 25.93 5.9 25.96 5.91 25.98 5.86 26.03 5.81 26.08 5.76 26.13 5.77 25.37 5.53 24.64 5.14 23.99 5.1 24.03 5.06 24.06 5.03 24.09 4.99 24.12 4.95 24.15 4.91 24.18 5.32 24.9 5.51 25.71 5.27 26.61 5.05 26.82 4.81 27.03 4.58 27.23 4.84 26.39 4.75 25.48 4.28 24.69 4.23 24.74 4.18 24.78 4.12 24.83 4.08 24.85 4.05 24.88 4.01 24.91 4.41 25.83 4.39 26.87 3.71 27.81 3.69 27.85 3.67 27.89 3.67 27.92 3.31 28.18 2.93 28.42 2.56 28.64 3 27.73 3.13 26.73 2.92 25.75 2.81 25.85 2.7 25.93 2.59 26 2.75 27.15 2.64 28.33 1.64 29.08 1.61 29.11 1.58 29.14 1.56 29.17 1.33 29.28 1.09 29.36 0.86 29.42 1.48 28.53 1.83 27.77 1.79 26.58 1.78 26.52 1.78 26.47 1.77 26.41 1.77 26.29 1.76 26.17 1.74 26.05 1.71 25.97 1.69 25.89 1.69 25.78 1.56 25.16 1.28 24.61 0.74 24.18 0.65 24.12 0.54 24.23 0.62 24.31 2.1 25.6 1.49 28.28 0.28 29.47 0.27 29.49 0.25 29.51 0.24 29.53Z" fill="white"/><path d="M3.62 24.18C3.08 23.43 2.28 22.82 1.38 22.55 1.33 22.53 1.33 22.44 1.39 22.44 2.37 22.57 3.21 23.23 3.82 24.01L3.79 24.04C3.72 24.09 3.67 24.13 3.62 24.18Z" fill="white"/><path d="M3.38 21.1C4.08 21.59 4.75 22.06 5.25 22.79 5.27 22.77 5.29 22.74 5.31 22.72 5.36 22.68 5.41 22.63 5.45 22.58 4.77 21.75 3.84 21.06 2.84 20.6 2.8 20.59 2.75 20.65 2.8 20.68 2.99 20.83 3.19 20.97 3.38 21.1Z" fill="white"/><path d="M4.24 19.33C5.22 19.57 6.23 20.09 6.99 20.82 7.05 20.74 7.11 20.65 7.17 20.56 6.32 19.77 5.23 19.22 4.25 19.22 4.19 19.22 4.17 19.32 4.24 19.33Z" fill="white"/><path d="M7.89 19.22C7.33 18.69 6.65 18.3 5.91 18.11 5.82 18.08 5.85 17.93 5.96 17.95 6.75 18.11 7.44 18.41 8.04 18.85 8.02 18.9 8 18.96 7.98 19.01 7.95 19.09 7.92 19.16 7.89 19.22Z" fill="white"/><path d="M2.28 24.53L2.42 25.09C2.5 25.03 2.58 24.97 2.67 24.91 2.61 24.75 2.54 24.61 2.47 24.45 2.4 24.34 2.24 24.42 2.28 24.53Z" fill="white"/><path d="M2.42 21.86C3.13 22.3 3.87 22.85 4.43 23.51 4.5 23.45 4.58 23.38 4.66 23.34 4.06 22.64 3.3 22.08 2.5 21.73 2.4 21.69 2.34 21.81 2.42 21.86Z" fill="white"/><path d="M5.25 20.65C5.63 20.92 6.04 21.23 6.38 21.59 6.4 21.58 6.42 21.56 6.43 21.54 6.45 21.52 6.46 21.5 6.48 21.48 6.12 21.14 5.7 20.85 5.26 20.62 5.25 20.6 5.23 20.63 5.25 20.65Z" fill="white"/><path d="M6.12 19.06C6.65 19.3 7.11 19.63 7.49 20.04 7.54 19.96 7.59 19.88 7.62 19.82 7.19 19.44 6.7 19.16 6.15 19 6.1 18.99 6.08 19.05 6.12 19.06Z" fill="white"/><path d="M34.73 8.04C34.77 8.01 34.81 7.98 34.86 7.94 34.57 7.84 34.31 7.71 34.05 7.56 34.09 7.53 34.12 7.48 34.15 7.42 34.48 7.53 34.81 7.63 35.14 7.69 35.35 7.51 35.56 7.32 35.76 7.12 35.38 6.94 35.01 6.79 34.64 6.63 34.69 6.58 34.72 6.52 34.75 6.46 35.16 6.6 35.57 6.71 35.98 6.76 36.03 6.76 36.06 6.77 36.09 6.79 36.25 6.62 36.41 6.45 36.57 6.28 36.49 6.25 36.41 6.22 36.33 6.19 35.94 6.04 35.56 5.89 35.18 5.72 35.19 5.7 35.2 5.68 35.22 5.66 35.25 5.6 35.28 5.56 35.3 5.5 35.81 5.71 36.32 5.87 36.84 5.98 37.1 5.68 37.35 5.37 37.6 5.05 36.96 4.96 36.34 4.83 35.75 4.65L35.89 4.37C36.52 4.57 37.18 4.67 37.88 4.61 37.9 4.6 37.92 4.6 37.93 4.61 38.06 4.44 38.18 4.27 38.29 4.09 37.59 4.05 36.9 3.86 36.2 3.68 36.22 3.65 36.24 3.61 36.25 3.58 36.27 3.54 36.28 3.51 36.3 3.47 37.03 3.65 37.75 3.78 38.51 3.76 38.63 3.59 38.74 3.41 38.85 3.23 38.61 3.19 38.37 3.15 38.14 3.11 37.61 3.02 37.1 2.93 36.58 2.78 36.6 2.74 36.62 2.69 36.64 2.64 36.66 2.6 36.68 2.55 36.69 2.5 37.49 2.73 38.32 2.87 39.08 2.83 39.29 2.47 39.49 2.11 39.67 1.73 39.38 1.83 39.07 1.83 38.75 1.78 38.29 1.72 37.84 1.64 37.4 1.56 37.19 1.52 36.99 1.49 36.79 1.45 36.8 1.39 36.82 1.33 36.83 1.28 37.26 1.31 37.7 1.33 38.13 1.34L38.18 1.34 38.28 1.35C38.77 1.38 39.33 1.42 39.74 1.11 39.82 1.05 39.91 1.05 39.98 1.08 40.2 0.57 40.41 0.06 40.58-0.47H41.04C39.89 2.93 37.82 6.22 35.07 8.48 33.91 9.43 32.9 10.04 31.86 10.37 30.39 10.85 28.67 10.85 26.6 10.4L26.72 9.85C28.18 10.17 29.44 10.25 30.56 10.09 30.21 9.92 29.89 9.7 29.57 9.44 29.52 9.41 29.58 9.33 29.63 9.36 30.04 9.64 30.55 9.87 31.05 10.01 31.28 9.96 31.49 9.9 31.7 9.83 31.83 9.79 31.96 9.74 32.1 9.69 31.09 9.31 30.16 8.9 29.36 8.12 29.33 8.09 29.36 8.04 29.39 8.07 30.32 8.68 31.39 9.33 32.51 9.51 32.68 9.44 32.85 9.35 33.01 9.26 32.72 9.11 32.44 8.89 32.18 8.66 32.05 8.56 31.92 8.45 31.8 8.36 31.75 8.31 31.78 8.23 31.84 8.26 31.99 8.34 32.15 8.4 32.32 8.47 32.68 8.62 33.05 8.77 33.33 9.02 33.34 9.03 33.35 9.04 33.36 9.05 33.63 8.88 33.91 8.69 34.19 8.48 34.04 8.42 33.88 8.37 33.72 8.32 33.3 8.19 32.88 8.05 32.47 7.85 31.86 7.54 31.35 7.13 30.85 6.68 30.78 6.61 30.88 6.47 30.96 6.54 31.91 7.26 33.26 8 34.45 8.09 34.52 8.1 34.57 8.12 34.6 8.15 34.64 8.12 34.69 8.08 34.73 8.04Z" fill="white"/><path d="M31.07 4.67C31.91 5.45 32.87 5.91 33.87 6.32 33.91 6.25 33.94 6.19 33.98 6.13 33.29 5.8 32.62 5.38 31.99 4.98 31.72 4.82 31.45 4.65 31.19 4.5 31.1 4.43 30.97 4.59 31.07 4.67Z" fill="white"/><path d="M31.94 2.5C32.85 3.35 33.87 3.96 34.96 4.39 35 4.28 35.05 4.18 35.11 4.09 34.31 3.73 33.55 3.25 32.8 2.78 32.56 2.63 32.32 2.47 32.08 2.33 31.97 2.25 31.84 2.41 31.94 2.5Z" fill="white"/><path d="M35.79 2.52C35.13 2.25 34.5 1.92 33.88 1.53 33.75 1.45 33.87 1.25 33.99 1.32 34.56 1.65 35.22 1.97 35.9 2.23 35.89 2.28 35.87 2.33 35.85 2.38 35.83 2.42 35.81 2.47 35.79 2.52Z" fill="white"/><path d="M33.44 4.86C33.75 5.06 34.09 5.23 34.42 5.39 34.45 5.31 34.5 5.23 34.54 5.17 34.2 5.01 33.87 4.86 33.53 4.7 33.42 4.64 33.33 4.79 33.44 4.86Z" fill="white"/><path d="M23.9 12.93C23.73 13.06 23.55 13.2 23.37 13.33 22.72 13.17 22.1 12.9 21.51 12.57 21.43 12.61 21.36 12.66 21.3 12.71 21.86 13.02 22.45 13.29 23.06 13.54L23.04 13.55C22.94 13.62 22.83 13.69 22.72 13.76 22.71 13.75 22.69 13.75 22.68 13.74 22.01 13.63 21.35 13.41 20.73 13.1 20.64 13.15 20.56 13.21 20.48 13.27 21.01 13.59 21.59 13.84 22.21 14.05 22.02 14.16 21.82 14.26 21.62 14.35 21.61 14.35 21.6 14.34 21.59 14.34 21.03 14.2 20.5 13.88 19.98 13.57 19.95 13.59 19.92 13.6 19.89 13.62 19.84 13.65 19.78 13.68 19.74 13.71 19.85 13.81 19.98 13.9 20.12 13.98 20.28 14.08 20.46 14.17 20.63 14.26 20.82 14.35 21 14.45 21.17 14.55 21.06 14.6 20.95 14.64 20.84 14.69 20.82 14.68 20.8 14.67 20.78 14.67 20.26 14.61 19.8 14.34 19.34 14.07 19.3 14.05 19.27 14.03 19.23 14.01 19.2 13.99 19.16 13.97 19.12 13.95 18.95 13.96 18.81 13.85 18.74 13.71 18.44 13.54 18.16 13.35 17.89 13.13 17.83 13.08 17.73 13.16 17.79 13.22 18.51 13.88 19.28 14.57 20.2 14.92 20.03 14.97 19.85 15.02 19.68 15.07 18.88 14.8 18.25 14.29 17.64 13.71 17.54 13.62 17.45 13.52 17.35 13.41 17.04 13.07 16.7 12.69 16.29 12.66 16.29 12.66 16.28 12.67 16.29 12.67 16.32 12.94 16.42 13.04 16.59 13.2 16.63 13.23 16.66 13.26 16.7 13.3 16.77 13.37 16.84 13.43 16.9 13.5 17.17 13.77 17.44 14.04 17.73 14.29 18.15 14.66 18.59 14.98 19.08 15.22 18.84 15.28 18.61 15.32 18.37 15.36 18.35 15.35 18.33 15.35 18.3 15.34 17.86 15.31 17.38 14.88 17 14.54 16.92 14.47 16.84 14.4 16.77 14.34 16.37 14.01 15.98 13.68 15.61 13.3 15.55 13.22 15.44 13.33 15.5 13.4 15.94 13.92 16.4 14.42 16.92 14.86 16.97 14.89 17.01 14.93 17.06 14.97L17.06 14.97C17.24 15.14 17.45 15.32 17.67 15.46 17.26 15.51 16.85 15.54 16.44 15.54 16.18 15.42 15.92 15.24 15.72 15.09 15.3 14.79 14.93 14.42 14.63 13.99 14.59 13.95 14.51 13.99 14.55 14.04 14.87 14.56 15.25 15.01 15.72 15.39 15.75 15.41 15.79 15.44 15.83 15.48 15.84 15.49 15.85 15.5 15.87 15.51 15.88 15.52 15.89 15.53 15.91 15.54 14.53 15.52 13.14 15.28 11.82 14.83L11.65 15.34C15.58 16.71 20.07 16.21 23.36 14.01 27.7 11.12 28.7 6.58 29.08 2.52L28.52 2.49C28.49 2.89 28.44 3.29 28.39 3.69 28.32 3.67 28.23 3.66 28.16 3.65 28.16 3.65 28.15 3.65 28.14 3.65 27.84 3.6 27.53 3.6 27.24 3.59 26.57 3.58 25.93 3.57 25.32 3.13 25.27 3.1 25.22 3.18 25.25 3.21 25.95 3.87 26.7 3.91 27.58 3.96 27.68 3.97 27.78 3.97 27.88 3.98 28.02 3.98 28.13 4.03 28.23 4.07 28.27 4.09 28.3 4.1 28.33 4.11 28.23 4.84 28.1 5.56 27.93 6.27 27.78 6.29 27.61 6.28 27.47 6.27 27.43 6.38 27.4 6.49 27.35 6.6 27.51 6.62 27.67 6.64 27.83 6.64 27.74 6.98 27.64 7.31 27.53 7.64L27.45 7.62C27.29 7.59 27.13 7.55 26.98 7.49 26.95 7.52 26.94 7.55 26.92 7.58 26.92 7.59 26.92 7.6 26.91 7.6 26.9 7.62 26.9 7.63 26.89 7.64 26.88 7.66 26.87 7.67 26.86 7.68 27.05 7.77 27.24 7.84 27.44 7.91 27.38 8.08 27.31 8.25 27.24 8.42 26.98 8.4 26.72 8.35 26.47 8.29L26.44 8.34C26.37 8.43 26.32 8.51 26.25 8.58 26.53 8.65 26.82 8.7 27.11 8.73 27.03 8.9 26.96 9.07 26.87 9.24 26.85 9.21 26.81 9.19 26.77 9.19 26.49 9.17 26.17 9.13 25.84 9.06 25.76 9.16 25.66 9.25 25.55 9.36 25.95 9.45 26.37 9.5 26.74 9.5 26.65 9.66 26.57 9.82 26.48 9.97 26.05 9.94 25.64 9.84 25.24 9.69 25.16 9.75 25.08 9.83 25.02 9.91 25.42 10.06 25.84 10.2 26.26 10.32L26.22 10.38C26.21 10.38 26.19 10.37 26.17 10.37 25.73 10.27 25.28 10.18 24.81 10.07 24.75 10.15 24.67 10.21 24.57 10.27 24.82 10.36 25.07 10.43 25.32 10.51 25.54 10.58 25.77 10.64 25.99 10.72 25.87 10.89 25.74 11.06 25.61 11.23 25.05 11.15 24.49 11.01 23.96 10.82L23.67 11.06C24.2 11.28 24.76 11.45 25.33 11.56 25.2 11.72 25.06 11.87 24.91 12.02 24.89 12.01 24.88 12 24.86 12 24.27 11.84 23.69 11.69 23.14 11.47 23.09 11.5 23.04 11.53 23 11.56 22.97 11.58 22.94 11.6 22.91 11.62 23.23 11.77 23.56 11.89 23.9 12.01 24.14 12.1 24.39 12.19 24.63 12.29 24.53 12.39 24.43 12.48 24.32 12.58 24.3 12.57 24.28 12.57 24.26 12.56 23.58 12.52 22.96 12.3 22.36 12 22.35 12.01 22.33 12.02 22.31 12.03 22.3 12.04 22.28 12.05 22.27 12.06 22.24 12.07 22.22 12.09 22.19 12.1 22.15 12.13 22.11 12.15 22.06 12.17 22.64 12.49 23.24 12.74 23.9 12.93Z" fill="white"/><path d="M19.72 12.74C19.44 12.5 19.15 12.25 18.88 11.97 18.84 11.92 18.92 11.84 18.96 11.89 19.26 12.16 19.58 12.39 19.91 12.61" fill="white"/><path d="M19.72 12.74C19.79 12.71 19.85 12.66 19.91 12.61Z" fill="white"/><path d="M21.44 11.58C21.4 11.6 21.35 11.63 21.31 11.66 21.29 11.67 21.28 11.68 21.27 11.69 20.5 11.17 19.79 10.56 19.09 9.86 19.04 9.82 19.11 9.72 19.17 9.77 19.44 9.97 19.71 10.17 19.98 10.38 20.49 10.77 21 11.17 21.54 11.51 21.51 11.54 21.48 11.56 21.44 11.58Z" fill="white"/><path d="M22.82 10.63C22.27 10.32 21.73 9.94 21.24 9.49 21.19 9.44 21.25 9.33 21.32 9.38 21.87 9.79 22.44 10.15 23.06 10.45L22.82 10.63Z" fill="white"/><path d="M24.16 9.53C23.51 9.24 22.88 8.86 22.3 8.39 22.22 8.33 22.31 8.23 22.39 8.26 22.78 8.43 23.17 8.64 23.56 8.85 23.84 9.01 24.13 9.16 24.42 9.3 24.32 9.39 24.24 9.47 24.16 9.53Z" fill="white"/><path d="M25.4 8.31C24.53 7.95 23.72 7.42 23.01 6.8 22.95 6.76 23.03 6.66 23.09 6.69 23.35 6.83 23.6 6.98 23.85 7.12 24.43 7.46 25.01 7.78 25.62 8.03 25.55 8.12 25.47 8.22 25.4 8.31Z" fill="white"/><path d="M26.52 6.44C25.7 6.22 24.94 5.81 24.27 5.23 24.18 5.15 24.3 5.04 24.4 5.11 25.06 5.63 25.82 5.99 26.63 6.16 26.6 6.25 26.56 6.35 26.52 6.44Z" fill="white"/><path d="M26.11 7.32C25.93 7.23 25.76 7.13 25.59 7.02 25.54 6.99 25.59 6.91 25.63 6.94 25.81 7.04 25.98 7.12 26.17 7.2 26.16 7.23 26.14 7.26 26.12 7.29 26.12 7.3 26.11 7.31 26.11 7.32Z" fill="white"/><path d="M23.42 8C23.72 8.45 24.18 8.8 24.7 9.05 24.78 8.97 24.86 8.89 24.94 8.83 24.38 8.62 23.88 8.34 23.53 7.92 23.48 7.85 23.37 7.93 23.42 8Z" fill="white"/><path d="M23.69 9.94C23.2 9.72 22.76 9.46 22.34 9.06 22.33 9.05 22.34 9.03 22.36 9.03 22.8 9.36 23.32 9.6 23.86 9.79 23.84 9.81 23.81 9.83 23.79 9.85 23.76 9.88 23.72 9.91 23.69 9.94Z" fill="white"/><path d="M22.04 11.18C21.54 10.84 21.11 10.4 20.7 9.94 20.67 9.9 20.72 9.85 20.76 9.88L20.86 9.97C21.3 10.36 21.73 10.75 22.25 11.04 22.19 11.09 22.12 11.14 22.04 11.18Z" fill="white"/><path d="M19.53 11.5C19.85 11.76 20.16 12 20.5 12.22 20.56 12.17 20.62 12.13 20.69 12.09 20.32 11.86 19.96 11.64 19.6 11.42 19.55 11.39 19.48 11.45 19.53 11.5Z" fill="white"/><path d="M8.53 5.85C9.2 6.83 10.05 7.6 11.06 8.2 11.09 8.15 11.12 8.11 11.14 8.04 10.14 7.51 9.32 6.74 8.66 5.77 8.61 5.69 8.47 5.77 8.53 5.85Z" fill="white"/><path d="M2.9 17.61C2.24 17.6 1.58 17.56 0.91 17.47 0.9 17.45 0.89 17.43 0.87 17.42 0.68 17.24 0.46 17.1 0.25 16.96 0.22 16.94 0.19 16.92 0.16 16.9 0.17 16.99 0.17 17.09 0.17 17.19 0.18 17.24 0.18 17.3 0.18 17.35L0.17 17.35C0.19 17.54 0.19 17.75 0.19 17.92 3.18 18.44 6.19 18.14 8.75 17.05 9.76 16.64 10.76 16.08 11.89 15.3 11.93 15.29 11.97 15.26 11.99 15.23 12.07 15.18 12.14 15.13 12.21 15.08 13.41 14.23 14.39 13.38 15.14 12.53 15.21 12.52 15.25 12.46 15.26 12.39 16.59 10.83 17.18 9.25 17.05 7.6L16.5 7.65C16.55 8.25 16.48 8.85 16.31 9.44 15.77 9.45 15.24 9.37 14.7 9.27 14.68 9.3 14.66 9.31 14.65 9.33 14.57 9.41 14.47 9.5 14.4 9.6 14.97 9.77 15.55 9.89 16.14 9.94 16.02 10.26 15.86 10.58 15.66 10.9 14.97 10.86 14.29 10.75 13.62 10.6 13.57 10.66 13.53 10.73 13.49 10.79 13.44 10.85 13.4 10.92 13.35 10.98 14.01 11.16 14.68 11.28 15.37 11.34 15.19 11.6 14.99 11.86 14.76 12.12 14.06 12.1 13.36 12.01 12.67 11.86 12.65 11.89 12.62 11.92 12.59 11.94 12.57 11.97 12.54 12 12.52 12.03 13.14 12.22 13.79 12.37 14.45 12.46 14.27 12.66 14.07 12.85 13.86 13.05 13.05 13.03 12.19 12.99 11.38 12.81 11.35 12.84 11.32 12.88 11.28 12.91 11.25 12.94 11.21 12.97 11.18 13 11.13 13.05 11.08 13.08 11.04 13.11 11.79 13.33 12.6 13.42 13.38 13.48 13.2 13.63 13.01 13.79 12.81 13.94 12.13 13.85 11.49 13.69 10.89 13.49 10.78 13.57 10.67 13.65 10.56 13.74 11.18 13.95 11.82 14.11 12.45 14.22 12.27 14.35 12.09 14.49 11.9 14.62 11.79 14.7 11.68 14.77 11.58 14.84 10.85 14.84 10.17 14.67 9.51 14.4 9.35 14.5 9.2 14.57 9.04 14.65 9.66 14.94 10.29 15.16 10.95 15.26 10.7 15.42 10.46 15.57 10.22 15.71 9.53 15.57 8.86 15.35 8.22 15.06 8.15 15.09 8.07 15.12 8 15.15 7.93 15.17 7.86 15.2 7.79 15.23 8.41 15.53 9.07 15.77 9.75 15.97 9.72 15.99 9.69 16 9.66 16.02 8.05 16.22 6.59 15.39 5.31 14.43 5.25 14.46 5.2 14.5 5.15 14.53 6.26 15.47 7.41 16.21 8.84 16.42 8.74 16.47 8.64 16.51 8.55 16.55 8.41 16.61 8.27 16.67 8.12 16.72 6.71 16.44 5.46 15.81 4.31 15.01 4.27 15.04 4.23 15.06 4.2 15.08 4.16 15.1 4.12 15.12 4.08 15.14 5.11 15.91 6.29 16.47 7.5 16.94 7.23 17.03 6.95 17.11 6.67 17.18 5.43 16.9 4.35 16.27 3.35 15.49 3.25 15.53 3.16 15.58 3.07 15.61 3.89 16.32 4.79 16.94 5.82 17.36 5.26 17.46 4.69 17.54 4.11 17.57 3.04 17.37 1.83 16.84 1.03 16.08L0.55 16.08C0.56 16.08 0.57 16.09 0.57 16.1 0.57 16.1 0.58 16.11 0.58 16.11 1.12 16.75 2 17.26 2.9 17.61Z" fill="white"/><path d="M1.44 14.07C1.74 14.39 2.05 14.7 2.37 15 2.46 14.97 2.56 14.94 2.62 14.89 2.38 14.68 2.15 14.47 1.92 14.26 1.8 14.15 1.68 14.04 1.56 13.93 1.48 13.85 1.36 13.98 1.44 14.07Z" fill="white"/><path d="M5.56 12.06C5.75 12.38 5.96 12.64 6.21 12.88 6.29 12.83 6.37 12.78 6.43 12.74 6.16 12.5 5.93 12.25 5.74 11.95 5.67 11.84 5.5 11.95 5.56 12.06Z" fill="white"/><path d="M8.12 14.18C8.26 14.12 8.42 14.04 8.56 13.96 8.54 13.95 8.52 13.94 8.5 13.93 8.48 13.92 8.46 13.91 8.44 13.9 8.03 13.69 7.6 13.48 7.19 13.24 7.14 13.27 7.09 13.3 7.04 13.33 6.99 13.37 6.94 13.4 6.89 13.43 7.27 13.71 7.7 13.95 8.12 14.18Z" fill="white"/><path d="M10.41 12.8C9.92 12.56 9.45 12.28 8.99 11.97L9.23 11.78C9.54 11.98 9.88 12.17 10.21 12.34 10.37 12.42 10.54 12.5 10.71 12.56 10.67 12.6 10.61 12.64 10.56 12.68 10.51 12.72 10.46 12.76 10.41 12.8Z" fill="white"/><path d="M7.04 10.46L6.92 10.37C6.89 10.34 6.94 10.29 6.97 10.3 7.22 10.47 7.47 10.64 7.73 10.81 7.98 10.97 8.23 11.14 8.49 11.31 8.42 11.36 8.36 11.4 8.3 11.47 7.86 11.14 7.44 10.79 7.04 10.46Z" fill="white"/><path d="M10.19 9.55C9.67 9.19 9.16 8.78 8.69 8.31 8.64 8.26 8.71 8.2 8.75 8.25 9.26 8.64 9.8 9 10.35 9.33 10.33 9.36 10.31 9.38 10.29 9.41 10.26 9.46 10.23 9.5 10.19 9.55Z" fill="white"/><path d="M12.47 10.7C11.93 10.49 11.41 10.26 10.9 9.97 10.94 9.93 10.97 9.88 11 9.84 11.03 9.8 11.06 9.75 11.09 9.71 11.61 9.96 12.17 10.18 12.72 10.37 12.63 10.48 12.55 10.59 12.47 10.7Z" fill="white"/><path d="M13.53 9.33C12.94 9.11 12.36 8.86 11.8 8.59 11.82 8.56 11.84 8.53 11.86 8.5 11.88 8.47 11.9 8.44 11.91 8.4 11.95 8.42 11.98 8.43 12.01 8.44 12.04 8.46 12.07 8.47 12.1 8.48 12.64 8.69 13.21 8.89 13.78 9.05 13.68 9.14 13.61 9.24 13.53 9.33Z" fill="white"/><path d="M10.4 11.2C10.79 11.4 11.2 11.58 11.61 11.73 11.66 11.69 11.69 11.65 11.72 11.61 11.28 11.48 10.86 11.32 10.43 11.14 10.4 11.1 10.35 11.18 10.4 11.2Z" fill="white"/><path d="M7.4 12.11C6.94 11.76 6.51 11.37 6.15 10.95 6.12 10.92 6.16 10.85 6.19 10.88 6.68 11.25 7.17 11.59 7.68 11.92L7.4 12.11Z" fill="white"/><path d="M8.14 12.61C8.6 12.89 9.1 13.15 9.61 13.37 9.65 13.34 9.69 13.31 9.74 13.28 9.81 13.23 9.89 13.19 9.96 13.13 9.45 12.91 8.94 12.66 8.45 12.38 8.4 12.42 8.35 12.45 8.3 12.49 8.24 12.53 8.19 12.57 8.14 12.61Z" fill="white"/><path d="M4.8 12.86C4.72 12.78 4.63 12.89 4.69 12.97 4.87 13.16 5.04 13.35 5.23 13.52 5.27 13.5 5.3 13.48 5.34 13.45L5.35 13.45C5.38 13.43 5.41 13.4 5.45 13.38 5.23 13.21 5.01 13.04 4.8 12.86Z" fill="white"/><path d="M7.24 14.56C7.11 14.61 7.02 14.7 6.98 14.81 6.6 14.59 6.23 14.34 5.88 14.07 5.93 14.04 5.98 14.01 6.03 13.98 6.08 13.95 6.13 13.91 6.18 13.88 6.51 14.13 6.87 14.35 7.24 14.56Z" fill="white"/><path d="M3.38 14.59C3.24 14.46 3.1 14.34 2.97 14.2 2.91 14.12 3 14.02 3.08 14.09 3.25 14.23 3.41 14.35 3.59 14.48 3.52 14.51 3.46 14.54 3.38 14.59Z" fill="white"/><path d="M22.91-0.76L23.44-0.92C24.37 2.28 22.02 5.93 19.18 7.36 19.16 7.38 19.13 7.4 19.09 7.4 18.89 7.5 18.68 7.59 18.47 7.67 16.8 8.26 14.05 8.31 12.01 7.21 10.86 6.58 10.1 5.67 9.81 4.56L10.35 4.42C10.44 4.76 10.58 5.08 10.77 5.37 11.2 5.28 11.51 4.99 11.81 4.67 11.89 4.58 11.97 4.49 12.06 4.4 12.34 4.12 12.64 3.82 12.79 3.47 12.85 3.32 13.07 3.36 13.02 3.52 12.88 4.04 12.5 4.39 12.12 4.75 12.09 4.79 12.05 4.82 12.01 4.86 11.67 5.18 11.35 5.43 10.93 5.6 11.14 5.88 11.4 6.13 11.7 6.35L11.71 6.35C12.46 6.05 12.85 5.15 13.19 4.38 13.27 4.18 13.35 4 13.43 3.84 13.48 3.76 13.64 3.82 13.61 3.91 13.34 4.92 12.93 5.99 12.03 6.57 12.11 6.62 12.2 6.66 12.28 6.71 12.35 6.75 12.43 6.79 12.51 6.82 12.49 6.77 12.51 6.71 12.58 6.68 13.22 6.37 13.64 5.3 13.9 4.65L13.92 4.59C13.94 4.53 13.98 4.51 14.03 4.52L14.04 4.49C14.05 4.45 14.06 4.41 14.06 4.37 14.11 4.1 14.14 3.84 14.16 3.57 14.14 3.49 14.25 3.49 14.25 3.57L14.25 3.68C14.24 4.12 14.22 4.65 14.02 5.01 14.01 5.02 14 5.03 13.99 5.03 13.76 5.75 13.37 6.62 12.73 6.93 12.87 6.99 13.01 7.04 13.16 7.09 13.24 6.97 13.34 6.85 13.45 6.73 13.55 6.62 13.64 6.51 13.72 6.39 13.77 6.31 13.83 6.23 13.89 6.15 14.08 5.88 14.27 5.61 14.41 5.33 14.41 5.3 14.51 5.34 14.49 5.39L14.46 5.5C14.33 5.9 14.2 6.29 13.99 6.65 13.96 6.69 13.93 6.74 13.9 6.79 13.81 6.93 13.71 7.09 13.6 7.23 13.72 7.26 13.84 7.29 13.97 7.32 14.91 6.82 15.44 5.39 15.5 4.4 15.49 4.34 15.58 4.34 15.58 4.39 15.54 5.47 15.02 6.56 14.31 7.39 14.57 7.44 14.84 7.47 15.11 7.49 15.12 7.48 15.13 7.47 15.14 7.46 16.04 6.63 16.7 5.55 16.55 4.28 16.55 4.23 16.64 4.21 16.64 4.26 16.85 5.51 16.37 6.58 15.59 7.52 15.84 7.52 16.09 7.52 16.34 7.5 16.92 6.77 17.16 5.76 17.19 4.84 17.18 4.73 17.32 4.73 17.34 4.84 17.37 5.72 17.09 6.39 16.79 7.12 16.74 7.24 16.69 7.36 16.64 7.48 16.97 7.45 17.28 7.4 17.57 7.34 17.94 6.61 18.33 5.79 18.32 4.98 18.3 4.25 17.98 3.53 17.69 2.86 17.63 2.72 17.57 2.59 17.51 2.45 17.48 2.36 17.57 2.3 17.62 2.38 18.09 3.13 18.51 3.91 18.55 4.82 18.59 5.5 18.37 6.15 18.16 6.78 18.11 6.93 18.06 7.08 18.02 7.22 18.11 7.19 18.21 7.16 18.3 7.13 18.53 7.05 18.77 6.95 19 6.83 19.67 5.82 19.48 4.48 19.06 3.41 19.01 3.3 19.15 3.25 19.22 3.33 19.93 4.32 19.89 5.44 19.54 6.52 19.75 6.38 19.96 6.23 20.16 6.07L20.16 6.07C20.31 5.17 20.42 4.35 20.04 3.51 19.75 2.85 19.25 2.27 18.74 1.75 18.69 1.68 18.79 1.59 18.85 1.65L18.97 1.76C19.5 2.25 20.01 2.74 20.32 3.41 20.64 4.11 20.66 4.91 20.62 5.68 20.69 5.61 20.77 5.54 20.84 5.46 20.84 5.44 20.85 5.42 20.86 5.39 21.26 4.46 20.95 2.97 20.29 2.22 20.26 2.19 20.29 2.14 20.34 2.17 21.03 2.81 21.42 3.95 21.32 4.94 21.48 4.75 21.63 4.56 21.77 4.36 21.67 2.87 20.82 1.92 19.77 0.93 19.69 0.87 19.8 0.76 19.88 0.82 20.48 1.31 21.07 1.81 21.49 2.47 21.79 2.92 21.9 3.38 22.01 3.86L22.03 3.96C22.15 3.77 22.27 3.57 22.37 3.36 22.41 2.57 21.74 1.78 21.16 1.1 20.96 0.87 20.77 0.65 20.62 0.44 20.59 0.41 20.65 0.37 20.69 0.4 20.79 0.5 20.89 0.6 20.99 0.7 21.63 1.33 22.33 2.02 22.6 2.86 22.72 2.58 22.82 2.29 22.9 1.99 22.86 1.98 22.83 1.95 22.82 1.89 22.76 1.26 22.05 0.73 21.59 0.39L21.59 0.38C21.36 0.22 21.12 0.09 20.88-0.03 20.66-0.15 20.45-0.26 20.24-0.4 20.2-0.45 20.23-0.51 20.28-0.48 20.44-0.39 20.62-0.32 20.8-0.26 20.97-0.2 21.15-0.14 21.32-0.04 21.6 0.11 21.87 0.32 22.12 0.54 22.15 0.56 22.19 0.59 22.22 0.62 22.52 0.86 22.88 1.16 23 1.53 23.15 0.76 23.13-0.02 22.91-0.76Z" fill="white"/><path fill-rule="evenodd" clip-rule="evenodd" d="M39.5 22C39.78 22 40 22.23 40 22.5 40 22.77 39.78 23 39.5 23 39.22 23 39 22.77 39 22.5 39 22.23 39.22 22 39.5 22Z" fill="white"/><path fill-rule="evenodd" clip-rule="evenodd" d="M15.5 64.29C15.78 64.29 16 64.52 16 64.79 16 65.07 15.78 65.29 15.5 65.29 15.22 65.29 15 65.07 15 64.79 15 64.52 15.22 64.29 15.5 64.29Z" fill="white"/><path fill-rule="evenodd" clip-rule="evenodd" d="M52.5 5C52.78 5 53 5.23 53 5.5 53 5.77 52.78 6 52.5 6 52.22 6 52 5.77 52 5.5 52 5.23 52.22 5 52.5 5Z" fill="white"/><path fill-rule="evenodd" clip-rule="evenodd" d="M52.73 22.41C53.01 22.41 53.23 22.63 53.23 22.91 53.23 23.18 53.01 23.41 52.73 23.41 52.45 23.41 52.23 23.18 52.23 22.91 52.23 22.63 52.45 22.41 52.73 22.41Z" fill="white"/><path fill-rule="evenodd" clip-rule="evenodd" d="M16.5 71C16.78 71 17 71.23 17 71.5 17 71.77 16.78 72 16.5 72 16.22 72 16 71.77 16 71.5 16 71.23 16.22 71 16.5 71Z" fill="white"/><path fill-rule="evenodd" clip-rule="evenodd" d="M55.5 13C55.78 13 56 13.23 56 13.5 56 13.77 55.78 14 55.5 14 55.22 14 55 13.77 55 13.5 55 13.23 55.22 13 55.5 13Z" fill="white"/><path fill-rule="evenodd" clip-rule="evenodd" d="M7 31.31C7.28 31.31 7.5 31.53 7.5 31.81 7.5 32.08 7.28 32.31 7 32.31 6.72 32.31 6.5 32.08 6.5 31.81 6.5 31.53 6.72 31.31 7 31.31Z" fill="white"/><path fill-rule="evenodd" clip-rule="evenodd" d="M44.5 13C44.78 13 45 13.23 45 13.5 45 13.77 44.78 14 44.5 14 44.22 14 44 13.77 44 13.5 44 13.23 44.22 13 44.5 13Z" fill="white"/><path fill-rule="evenodd" clip-rule="evenodd" d="M46.5 67.53C46.78 67.53 47 67.76 47 68.03 47 68.31 46.78 68.53 46.5 68.53 46.22 68.53 46 68.31 46 68.03 46 67.76 46.22 67.53 46.5 67.53Z" fill="white"/><path fill-rule="evenodd" clip-rule="evenodd" d="M16.79 93.41C17.07 93.41 17.29 93.64 17.29 93.91 17.29 94.19 17.07 94.41 16.79 94.41 16.51 94.41 16.29 94.19 16.29 93.91 16.29 93.64 16.51 93.41 16.79 93.41Z" fill="white"/><path fill-rule="evenodd" clip-rule="evenodd" d="M9.81 100.6C10.09 100.6 10.31 100.83 10.31 101.1 10.31 101.37 10.09 101.6 9.81 101.6 9.53 101.6 9.31 101.37 9.31 101.1 9.31 100.83 9.53 100.6 9.81 100.6Z" fill="white"/><path fill-rule="evenodd" clip-rule="evenodd" d="M56.5 40.98C56.78 40.98 57 41.2 57 41.48 57 41.75 56.78 41.98 56.5 41.98 56.22 41.98 56 41.75 56 41.48 56 41.2 56.22 40.98 56.5 40.98Z" fill="white"/><path fill-rule="evenodd" clip-rule="evenodd" d="M50.5 23C50.78 23 51 23.23 51 23.5 51 23.77 50.78 24 50.5 24 50.22 24 50 23.77 50 23.5 50 23.23 50.22 23 50.5 23Z" fill="white"/><path fill-rule="evenodd" clip-rule="evenodd" d="M42.18 8.79C42.46 8.79 42.68 9.02 42.68 9.29 42.68 9.57 42.46 9.79 42.18 9.79 41.9 9.79 41.68 9.57 41.68 9.29 41.68 9.02 41.9 8.79 42.18 8.79Z" fill="white"/><path fill-rule="evenodd" clip-rule="evenodd" d="M57.24 59.68C57.52 59.68 57.74 59.9 57.74 60.18 57.74 60.45 57.52 60.68 57.24 60.68 56.96 60.68 56.74 60.45 56.74 60.18 56.74 59.9 56.96 59.68 57.24 59.68Z" fill="white"/><path fill-rule="evenodd" clip-rule="evenodd" d="M3 86.36C3.28 86.36 3.5 86.59 3.5 86.86 3.5 87.13 3.28 87.36 3 87.36 2.72 87.36 2.5 87.13 2.5 86.86 2.5 86.59 2.72 86.36 3 86.36Z" fill="white"/><path fill-rule="evenodd" clip-rule="evenodd" d="M4.29 59.68C4.57 59.68 4.79 59.9 4.79 60.18 4.79 60.45 4.57 60.68 4.29 60.68 4.01 60.68 3.79 60.45 3.79 60.18 3.79 59.9 4.01 59.68 4.29 59.68Z" fill="white"/><path fill-rule="evenodd" clip-rule="evenodd" d="M30.39 25.77L30.75 27.39 32.16 26.5 31.27 27.91 32.89 28.27 31.27 28.64 32.16 30.03 30.75 29.16 30.39 30.77 30.02 29.16 28.63 30.03 29.5 28.64 27.89 28.27 29.5 27.91 28.63 26.5 30.02 27.39 30.39 25.77Z" fill="white"/><path fill-rule="evenodd" clip-rule="evenodd" d="M30.39 22.91L31.06 21.09 32.89 20.41 31.06 19.73 30.39 17.91 29.71 19.73 27.89 20.41 29.71 21.09 30.39 22.91Z" fill="white"/><path d="M30.24 52.49C29.87 52.13 29.02 51.3 28.54 50.83 27.94 50.24 28.08 49.39 28.54 49.05 29.01 48.72 29.79 49.08 30.24 49.71 30.95 48.94 31.77 48.72 32.23 49.44 32.69 50.15 31.58 51.39 30.24 52.49Z" fill="url(#paint1_linear)"/><path d="M15 37.42C16.56 36.48 21.73 34.61 29.91 34.61 38.09 34.61 43.73 36.48 45.53 37.42M15 37.42C16.42 38.3 21.39 40.06 29.91 40.06 38.43 40.06 43.87 38.3 45.53 37.42M15 37.42C15 37.84 15 39.27 15 41.64 15 44.61 15.63 45.15 16.57 47.43 17.51 49.71 20.37 51.85 21.03 52.72M45.53 37.42C45.83 37.7 46.2 38.84 45.87 39.76 45.53 40.67 45.32 41.26 45.32 42.76 45.32 44.27 44.85 45.81 43.45 47.72 42.53 48.97 40.82 51.16 39.06 52.88M33.61 56.51C33.74 56.41 34.47 55.98 36.4 54.96 37.23 54.53 38.5 54.31 39.06 52.88M33.61 56.51C33.51 56.86 33.18 57.58 32.69 57.62M33.61 56.51C32.24 56.63 29.27 56.81 28.32 56.51M32.69 57.62C32.97 58.69 32.42 59.56 31.77 60.03M32.69 57.62C31.9 57.73 30 57.89 28.73 57.62M31.77 60.03C32.11 60.98 32.01 61.26 31.77 61.58M31.77 60.03C31.45 60.17 30.39 60.37 28.73 60.03M31.77 61.58C31.77 61.85 33.75 65.46 32.35 69.18M31.77 61.58C30.86 62.36 29.47 62.16 28.89 61.96M32.35 69.18C32.86 69.73 32.93 70.53 32.35 71M32.35 69.18C31.49 69.56 29.58 69.34 28.73 69.18M32.35 71C32.9 71.44 37.78 72.86 39.61 73.33M32.35 71C30.6 71.46 29.21 71.19 28.73 71M39.61 73.33C39.61 74.17 40.58 75.1 30.72 75.1 21.68 75.1 21.26 74.51 21.48 73.33M39.61 73.33C38.93 73.56 36.2 74.01 30.72 74.01 25.24 74.01 22.28 73.56 21.48 73.33M21.48 73.33L28.73 71M28.73 71C28.48 70.66 28.13 69.82 28.73 69.18M28.73 69.18C28.06 67.73 27.81 64.62 28.89 61.96M28.89 61.96C28.22 60.95 28.57 60.34 28.73 60.03M28.73 60.03C28.39 59.53 27.55 59.07 27.83 57.62 27.23 57.12 27.12 56.42 27.14 56.13 26.36 55.73 24.46 54.82 23.11 54.31 21.43 53.67 21.7 53.58 21.03 52.72M21.03 52.72C20.05 49.62 21.03 45.38 19.66 43.01 18.57 41.11 16.67 42.22 15.86 43.01 16.48 44.53 17.9 47.76 18.58 48.5M17.7 37.42C19.23 36.82 23.82 35.63 29.91 35.63 36 35.63 41.65 36.82 43.71 37.42M39.06 52.88C40.48 49.25 39.01 48.25 40.74 44.38 42.11 41.28 43.56 42.6 44.1 43.65 43.83 44.02 43.23 44.86 42.97 45.26 42.71 45.66 41.37 47.19 40.74 47.91M16.07 39.17C17.63 39.93 23.33 40.63 24.83 40.85 23.9 41.21 23.11 41.64 21.94 43.26 21.71 43.57 21.56 43.93 21.46 44.33M45.32 38.63C45.15 38.71 44.37 39.04 42.58 39.76 40.34 40.65 38.39 40.63 36.81 41.3 37.52 41.89 38.54 43.26 38.89 44.16 38.97 44.36 39.02 44.65 39.03 44.99M44.7 42.01C44.29 41.12 43.02 39.69 41.31 41.06 39.16 42.76 39.05 44.47 39.03 44.99M39.03 44.99C39.05 45.59 38.95 46.38 38.64 47.29M38.64 47.29C38.36 48.14 37.91 49.09 37.23 50.09 35.77 52.24 33.09 54.35 31.94 55.14L31.2 55.82C31.34 55.82 31.81 55.82 32.6 55.82 33.54 55.32 37.23 52.72 37.96 51.86 38.54 51.18 38.66 48.53 38.64 47.29ZM15.33 41.53C15.7 40.94 16.89 39.88 18.73 40.32 21.03 40.85 21.54 43.89 21.46 44.33M21.46 44.33C21.15 45.62 21.47 47.28 22.17 48.69M22.17 48.69C22.38 49.12 22.63 49.52 22.9 49.89 24.08 51.43 26.93 54.03 28.21 55.14L29.04 55.61C28.53 55.55 27.31 55.37 26.53 55.14 25.57 54.85 23.5 53.91 22.81 52.87 22.25 52.05 22.15 49.74 22.17 48.69ZM29.91 55.14C27.76 53.37 23.3 49.41 22.6 47.72 21.74 45.6 22.42 42.22 25.76 42.22 29.11 42.22 29.3 44.28 29.6 44.76 28.32 45.09 28.33 46.11 28.73 46.38 29.05 46.6 29.44 46.6 29.6 46.57 29.49 46.92 29.44 47.61 30.13 47.59 30.82 47.58 30.96 46.91 30.95 46.57 31.21 46.65 31.77 46.67 31.94 46.13 32.15 45.47 31.71 44.76 31.2 44.76 31.2 44.22 32.03 42.15 33.91 42.01 35.79 41.86 38.39 42.96 37.96 46.26 37.31 49.96 32.77 53.72 30.58 55.14L30.24 55.43 29.91 55.14ZM30.24 52.49C29.87 52.13 29.02 51.3 28.54 50.83 27.94 50.24 28.08 49.39 28.54 49.05 29.01 48.72 29.79 49.08 30.24 49.71 30.95 48.94 31.77 48.72 32.23 49.44 32.69 50.15 31.58 51.39 30.24 52.49Z" stroke="url(#paint2_linear)" stroke-width="0.5" stroke-linecap="round" stroke-linejoin="round"/><path d="M25.53 39.27C25.53 34.58 21.84 30.77 17.29 30.77 9.06 30.77 9.06 39.69 9.06 44.38V63.91" stroke="#6F5FC1" stroke-width="0.5"/><path d="M27.99 39.45C27.99 33.62 23.27 28.9 17.44 28.9 6.89 28.9 6.89 39.45 6.89 43.69V70.05" stroke="#6F5FC1" stroke-width="0.5"/><path d="M9.06 70.92V79.78" stroke="#6F5FC1" stroke-width="0.5"/><path d="M6.89 77.57V83.02" stroke="#6F5FC1" stroke-width="0.5"/><path d="M6.89 90.62V96.08" stroke="#6F5FC1" stroke-width="0.5"/><path d="M9.06 84.49L9.06 87.74" stroke="#6F5FC1" stroke-width="0.5"/><path d="M11.12 68.88L11.12 72.12" stroke="#6F5FC1" stroke-width="0.5"/><path d="M11.12 78.38L11.12 87.64" stroke="#6F5FC1" stroke-width="0.5"/><path d="M11.12 92.23L11.12 93.91" stroke="#6F5FC1" stroke-width="0.5"/><path d="M34.75 39.22C34.75 34.56 38.66 30.77 43.49 30.77 52.23 30.77 52.23 39.64 52.23 44.31V63.73" stroke="#6F5FC1" stroke-width="0.5"/><path d="M37.04 38.84C37.04 35.39 39.93 32.6 43.49 32.6 49.94 32.6 49.94 39.14 49.94 42.59V56.92" stroke="#6F5FC1" stroke-width="0.5"/><path d="M23.74 38.84C23.74 35.39 20.92 32.6 17.43 32.6 11.12 32.6 11.12 39.14 11.12 42.59V66.46" stroke="#6F5FC1" stroke-width="0.5"/><path d="M32.89 39.45C32.89 33.62 37.61 28.9 43.44 28.9 53.99 28.9 53.99 39.45 53.99 43.69V70.05" stroke="#6F5FC1" stroke-width="0.5"/><path d="M52.35 68.53V73.65" stroke="#6F5FC1" stroke-width="0.5"/><path d="M49.94 59.68V64.79" stroke="#6F5FC1" stroke-width="0.5"/><path d="M52.35 76.44V78.56" stroke="#6F5FC1" stroke-width="0.5"/><path d="M53.99 72V74.12" stroke="#6F5FC1" stroke-width="0.5"/><path d="M49.94 74.32L49.94 83.5" stroke="#6F5FC1" stroke-width="0.5"/><path d="M49.94 67.81V69.92" stroke="#6F5FC1" stroke-width="0.5"/></g></svg>