<svg width="18" height="18" viewBox="0 0 18 18" fill="none" xmlns="http://www.w3.org/2000/svg">
<path fill-rule="evenodd" clip-rule="evenodd" d="M6 5C6 2.79102 7.79077 1 10 1C11.4624 1 12.7412 1.78467 13.439 2.95605C13.7563 3.27197 14 3.95312 14 5C14 6.50098 13.5 7.75098 13 9.00098C12.5 10.251 12 11.501 12 13C12 13.5522 12.4478 14 13 14C13.3188 14 13.6028 13.8508 13.7859 13.6184C14.0138 13.3292 14.2985 13 14.6667 13C15.403 13 16.0263 13.6255 15.7093 14.2901C15.2269 15.3014 14.195 16 13 16C11.3433 16 10 14.6572 10 13C10 11.501 10.5 10.2505 11 9.00049C11.5 7.75049 12 6.50049 12 5C12 3.89551 11.1045 3 10 3C8.89551 3 8 3.89551 8 5V10C8 11.6567 6.65674 13 5 13C3.34326 13 2 11.6567 2 10C2 8.34326 3.34326 7 5 7C5.35059 7 5.68726 7.06055 6 7.1709V5ZM5 9C5.55225 9 6 9.44775 6 10C6 10.5522 5.55225 11 5 11C4.44775 11 4 10.5522 4 10C4 9.44775 4.44775 9 5 9Z" fill="white"/>
</svg>
