<svg width="18" height="18" viewBox="0 0 18 18" fill="none" xmlns="http://www.w3.org/2000/svg">
<path d="M5.6604 2.53613C5.49292 2.20947 5.15869 2 4.7915 2C4.052 2 3.59985 2.79492 3.97656 3.43115C4.81543 4.84766 5.65576 6.38623 5.91724 8H4C3.44775 8 3 8.44775 3 9C3 9.55225 3.44775 10 4 10H5.91724C5.65576 11.6138 4.81543 13.1523 3.97656 14.5688C3.59985 15.2051 4.052 16 4.7915 16C4.96948 16 5.13989 15.9507 5.28711 15.8628C5.4436 15.7695 5.57422 15.6323 5.6604 15.4639C6.52686 13.7754 7.61987 11.9341 7.92041 10H10.0796C10.3357 11.6484 11.1672 13.229 11.9436 14.7051L11.9546 14.7266C12.0857 14.9751 12.2151 15.2212 12.3396 15.4639C12.4185 15.6177 12.5344 15.7456 12.6731 15.8379C12.759 15.895 12.8535 15.9385 12.9536 15.9658C13.0356 15.9883 13.1211 16 13.2085 16C13.948 16 14.4001 15.2051 14.0234 14.5688C13.1846 13.1523 12.3442 11.6138 12.0828 10H14C14.5522 10 15 9.55225 15 9C15 8.44775 14.5522 8 14 8H12.0828C12.3442 6.38623 13.1846 4.84766 14.0234 3.43115C14.4001 2.79492 13.948 2 13.2085 2C12.8413 2 12.5071 2.20947 12.3396 2.53613C12.2114 2.78564 12.0784 3.03857 11.9436 3.29492C11.1672 4.771 10.3357 6.35156 10.0796 8H7.92041C7.66431 6.35156 6.83276 4.771 6.0564 3.29492C5.92163 3.03857 5.78857 2.78564 5.6604 2.53613Z" fill="white"/>
</svg>
