<svg width="18" height="18" viewBox="0 0 18 18" fill="none" xmlns="http://www.w3.org/2000/svg">
<path d="M1 3C1 2.44775 1.44775 2 2 2C2.76831 2 3.46924 2.28906 4 2.76367C4.53076 2.28906 5.23169 2 6 2C6.76831 2 7.46924 2.28906 8 2.76367C8.53076 2.28906 9.23169 2 10 2C11.6567 2 13 3.34326 13 5V12C13 12.5522 13.4478 13 14 13H14.4807L14.0862 12.4438C13.7629 11.9512 13.8594 11.5698 14.2969 11.2461C14.7341 10.9224 15.2935 11.2388 15.5588 11.6367L16.7903 13.3872C16.9216 13.5566 17 13.769 17 14C17 14.2197 16.9292 14.4224 16.8093 14.5874L16.8088 14.5923L15.5588 16.3691C15.2935 16.7671 14.7341 17.0835 14.2969 16.7598C13.8594 16.436 13.7629 16.0547 14.0862 15.562L14.4849 15H14C12.3433 15 11 13.6567 11 12V5C11 4.44775 10.5522 4 10 4C9.44775 4 9 4.44775 9 5V13C9 13.5522 8.55225 14 8 14C7.44775 14 7 13.5522 7 13V5C7 4.44775 6.55225 4 6 4C5.44775 4 5 4.44775 5 5V13C5 13.5522 4.55225 14 4 14C3.44775 14 3 13.5522 3 13V5C3 4.44775 2.55225 4 2 4C1.44775 4 1 3.55225 1 3Z" fill="white"/>
</svg>
