<svg width="18" height="18" viewBox="0 0 18 18" fill="none" xmlns="http://www.w3.org/2000/svg">
<path fill-rule="evenodd" clip-rule="evenodd" d="M2 2C1.44775 2 1 2.44775 1 3C1 3.55225 1.44775 4 2 4C2.34351 4 2.64648 4.17334 2.82666 4.43701C2.93604 4.59717 3 4.79102 3 5V13C3 13.5522 3.44775 14 4 14C4.55225 14 5 13.5522 5 13V5C5 4.44775 5.44775 4 6 4C6.55225 4 7 4.44775 7 5V13C7 13.5522 7.44775 14 8 14C8.55225 14 9 13.5522 9 13V5C9 4.44775 9.44775 4 10 4C10.5522 4 11 4.44775 11 5V14L11.0002 14.0376C10.3765 14.4609 9.70215 14.7563 8.99341 14.8999C8.45215 15.0098 8 15.4478 8 16C8 16.5522 8.44995 17.0073 8.99683 16.9292C9.97925 16.7891 10.8921 16.4448 11.7197 15.9497C12.27 16.5928 13.0874 17 14 17H15C15.5522 17 16 16.5522 16 16C16 15.4478 15.5522 15 15 15H14C13.7322 15 13.4888 14.8945 13.3093 14.7231C13.5652 14.4761 13.8081 14.2139 14.0376 13.9385C14.2307 13.7065 14.4146 13.4658 14.5881 13.2178C15.7861 11.5068 16.5869 9.34961 16.8779 6.99512C17.0134 5.89893 16.1045 5 15 5.00049C14.9514 5.00195 14.9028 5.00732 14.855 5.01611C14.7576 5.03418 14.6626 5.06836 14.5732 5.11719C14.4905 5.1626 14.4128 5.22119 14.3433 5.29297L13 6.66357V5C13 3.34326 11.6567 2 10 2C9.23169 2 8.53076 2.28906 8 2.76416C7.46924 2.28906 6.76831 2 6 2C5.23169 2 4.53076 2.28906 4 2.76416C3.46924 2.28906 2.76831 2 2 2ZM13 11.9985V9.47852L14.7417 7.70117C14.4199 9.34326 13.8123 10.8145 13 11.9985Z" fill="white"/>
</svg>
