<svg width="18" height="18" viewBox="0 0 18 18" fill="none" xmlns="http://www.w3.org/2000/svg">
<path fill-rule="evenodd" clip-rule="evenodd" d="M6.25677 4.03351C6.534 4.10713 6.76626 4.29624 6.89453 4.55279L7.38794 5.5396L9.44541 4.16795C9.68406 4.00885 9.97955 3.95988 10.2568 4.03351C10.534 4.10713 10.7663 4.29624 10.8945 4.55279L11.3879 5.5396L13.4454 4.16795C13.6841 4.00885 13.9796 3.95988 14.2568 4.03351C14.534 4.10713 14.7663 4.29624 14.8945 4.55279L15.8945 6.55279C16.1415 7.04677 15.9413 7.64744 15.4473 7.89443C14.9533 8.14142 14.3527 7.9412 14.1057 7.44722L13.6123 6.46041L11.5548 7.83206C11.3161 7.99116 11.0207 8.04012 10.7434 7.9665C10.4662 7.89288 10.234 7.70377 10.1057 7.44722L9.61227 6.46041L7.55481 7.83206C7.31615 7.99116 7.02066 8.04012 6.74344 7.9665C6.46622 7.89288 6.23395 7.70377 6.10568 7.44722L5.61227 6.46041L3.55481 7.83206C3.09528 8.13841 2.47441 8.01423 2.16806 7.55471C1.8617 7.09518 1.98588 6.47431 2.44541 6.16795L5.44541 4.16795C5.68406 4.00885 5.97955 3.95988 6.25677 4.03351Z" fill="white"/>
<path fill-rule="evenodd" clip-rule="evenodd" d="M6.25677 10.0335C6.534 10.1071 6.76626 10.2962 6.89453 10.5528L7.38794 11.5396L9.44541 10.168C9.68406 10.0088 9.97955 9.95989 10.2568 10.0335C10.534 10.1071 10.7663 10.2962 10.8945 10.5528L11.3879 11.5396L13.4454 10.168C13.6841 10.0088 13.9796 9.95989 14.2568 10.0335C14.534 10.1071 14.7663 10.2962 14.8945 10.5528L15.8945 12.5528C16.1415 13.0468 15.9413 13.6474 15.4473 13.8944C14.9533 14.1414 14.3527 13.9412 14.1057 13.4472L13.6123 12.4604L11.5548 13.8321C11.3161 13.9912 11.0207 14.0401 10.7434 13.9665C10.4662 13.8929 10.234 13.7038 10.1057 13.4472L9.61227 12.4604L7.55481 13.8321C7.31615 13.9912 7.02066 14.0401 6.74344 13.9665C6.46622 13.8929 6.23395 13.7038 6.10568 13.4472L5.61227 12.4604L3.55481 13.8321C3.09528 14.1384 2.47441 14.0142 2.16806 13.5547C1.8617 13.0952 1.98588 12.4743 2.44541 12.168L5.44541 10.168C5.68406 10.0088 5.97955 9.95989 6.25677 10.0335Z" fill="white"/>
</svg>
