<svg width="18" height="18" viewBox="0 0 18 18" fill="none" xmlns="http://www.w3.org/2000/svg">
<path d="M2 6C2 7.75052 3.12458 9.23857 4.69081 9.78083C5.38666 10.0218 6 9.40305 6 8.66667C6 8.29848 5.69333 8.01087 5.34541 7.8904C4.56235 7.61926 4 6.87525 4 6C4 4.89551 4.89551 4 6 4C7.10449 4 8 4.89551 8 6V15C8 15.5522 8.44775 16 9 16C9.55225 16 10 15.5522 10 15V6C10 4.89551 10.8955 4 12 4C13.1045 4 14 4.89551 14 6C14 6.87525 13.4377 7.61926 12.6546 7.8904C12.3067 8.01087 12 8.29848 12 8.66667C12 9.40305 12.6133 10.0218 13.3092 9.78083C14.8754 9.23857 16 7.75052 16 6C16 3.79102 14.2092 2 12 2C10.8052 2 9.73291 2.52344 9 3.354C8.26709 2.52344 7.19482 2 6 2C3.79077 2 2 3.79102 2 6Z" fill="white"/>
</svg>
