<svg width="18" height="18" viewBox="0 0 18 18" fill="none" xmlns="http://www.w3.org/2000/svg">
<path fill-rule="evenodd" clip-rule="evenodd" d="M3 3C2.53496 3 2 2.68541 2 2.22036V1.78748C2 1.39814 2.26347 1.04853 2.65137 1.01501C2.76627 1.00508 2.88257 1 3 1C4.19482 1 5.26709 1.52344 6 2.354C6.73291 1.52344 7.80518 1 9 1C11.2092 1 13 2.79102 13 5V9.1709C13.1711 9.11035 13.3496 9.06494 13.5334 9.03613C13.6855 9.01221 13.8413 9 14 9C15.6567 9 17 10.3433 17 12C17 13.6567 15.6567 15 14 15C13.5083 15 13.0442 14.8813 12.6348 14.6719C12.1359 15.7547 11.1672 16.5768 9.98986 16.8766C9.45465 17.0128 9 16.5523 9 16C9 15.4477 9.47452 15.0207 9.95898 14.7555C10.5794 14.4159 11 13.7571 11 13V5C11 3.89551 10.1045 3 9 3C7.89551 3 7 3.89551 7 5V13C7 13.5523 6.55228 14 6 14C5.44772 14 5 13.5523 5 13V5C5 3.89551 4.10449 3 3 3ZM13 12C13 12.5522 13.4478 13 14 13C14.5522 13 15 12.5522 15 12C15 11.4478 14.5522 11 14 11C13.4478 11 13 11.4478 13 12Z" fill="white"/>
</svg>
