<svg width="14" height="14" viewBox="0 0 14 14" fill="none" xmlns="http://www.w3.org/2000/svg">
<path fill-rule="evenodd" clip-rule="evenodd" d="M8 1.08296V0H6V1.08296C5.62265 1.14627 5.25724 1.2448 4.90728 1.37505L4.3525 0.414144L2.62045 1.41414L3.17595 2.3763C2.88514 2.61708 2.61743 2.88478 2.37662 3.17556L1.43783 2.63354L0.437826 4.3656L1.37523 4.9068C1.24488 5.25692 1.14629 5.62248 1.08296 6H0V8H1.08296C1.14625 8.37728 1.24476 8.74263 1.37498 9.09254L0.437927 9.63354L1.43793 11.3656L2.37618 10.8239C2.61707 11.1149 2.8849 11.3827 3.17585 11.6236L2.63397 12.5622L4.36602 13.5622L4.90716 12.6249C5.25716 12.7552 5.62261 12.8537 6 12.917V14H8V12.917C8.37743 12.8537 8.74292 12.7552 9.09296 12.6249L9.63392 13.5618L11.366 12.5618L10.8242 11.6235C11.1152 11.3826 11.383 11.1148 11.6239 10.8239L12.5622 11.3656L13.5622 9.63354L12.625 9.09248C12.7552 8.74259 12.8537 8.37726 12.917 8H14V6H12.917C12.8537 5.6225 12.7551 5.25695 12.6248 4.90686L13.5623 4.3656L12.5623 2.63354L11.6234 3.1756C11.3826 2.88483 11.1149 2.61715 10.8241 2.37638L11.432 1.32359L9.69992 0.323587L9.09284 1.37509C8.74284 1.24482 8.37739 1.14627 8 1.08296ZM7 11C9.20914 11 11 9.20914 11 7C11 4.79086 9.20914 3 7 3C4.79086 3 3 4.79086 3 7C3 9.20914 4.79086 11 7 11Z" fill="#6A52AC" fill-opacity="0.5"/>
</svg>
