<svg width="12" height="16" viewBox="0 0 12 16" fill="none" xmlns="http://www.w3.org/2000/svg">
<path d="M4.04869 3.67822C4.36387 4.53125 4.54052 5.48877 4.54052 6.5C4.54052 7.51123 4.36387 8.46875 4.04869 9.32178C3.38372 11.1226 2.10211 12.4614 0.562253 12.8701C0.378316 12.9189 0.190736 12.9541 0 12.9756C0.185273 12.9917 0.372853 13 0.562253 13H8.02161V16H10.0108V13H12V11H10.0108V9H8.02161V11H5.22722C5.42451 10.7935 5.60833 10.5737 5.77721 10.3423C6.56298 9.26611 7.02714 7.9375 7.02714 6.5C7.02714 5.0625 6.56298 3.73389 5.77721 2.65771C4.60074 1.04639 2.70297 0 0.562253 0C0.47508 0 0.388272 0.00195312 0.301827 0.00537109C0.200571 0.00927734 0.0999211 0.015625 0 0.0244141C0.190736 0.0458984 0.378316 0.0810547 0.562253 0.129883C2.10211 0.538574 3.38372 1.87744 4.04869 3.67822Z" fill="white"/>
</svg>
