<svg width="18" height="18" viewBox="0 0 18 18" fill="none" xmlns="http://www.w3.org/2000/svg">
<path d="M6 7C6 7.88842 6.37013 8.70527 7 9.23602C8 10.0787 7.88924 12 6.5 12H3C2.44772 12 2 11.5523 2 11C2 10.4477 2.44772 10 3 10H4.99968C4.37196 9.16431 4 8.12556 4 7C4 4.23877 6.23853 2 9 2C11.7615 2 14 4.23877 14 7C14 8.12556 13.628 9.16431 13.0003 10H15C15.5523 10 16 10.4477 16 11C16 11.5523 15.5523 12 15 12H11.5C10.5 12 10 10.1311 11 9.23602C11.6137 8.68669 12 7.88842 12 7C12 5.34326 10.6567 4 9 4C7.34326 4 6 5.34326 6 7Z" fill="white"/>
<path d="M3 14C2.44772 14 2 14.4477 2 15C2 15.5523 2.44772 16 3 16H15C15.5523 16 16 15.5523 16 15C16 14.4477 15.5523 14 15 14H3Z" fill="white"/>
</svg>
