<svg width="8" height="16" viewBox="0 0 8 16" fill="none" xmlns="http://www.w3.org/2000/svg">
<path fill-rule="evenodd" clip-rule="evenodd" d="M0 1C0 0.654785 0.0437012 0.319336 0.125977 0C0.217285 0.354492 0.355957 0.69043 0.534912 1C1.22656 2.1958 2.51929 3 4 3C5.48071 3 6.77344 2.1958 7.46509 1C7.64404 0.69043 7.78271 0.354492 7.87402 0C7.9563 0.319336 8 0.654785 8 1C8 2.19482 7.4762 3.26709 6.64575 4C7.4762 4.73291 8 5.80518 8 7C8 8.86377 6.72522 10.4302 5 10.874V12H7V14H5V16H3V14H1V12H3V10.874C1.27478 10.4302 0 8.86377 0 7C0 5.80518 0.523804 4.73291 1.35425 4C0.523804 3.26709 0 2.19482 0 1ZM4 5C2.89539 5 2 5.89551 2 7C2 8.10449 2.89539 9 4 9C5.10461 9 6 8.10449 6 7C6 5.89551 5.10461 5 4 5Z" fill="white"/>
</svg>
