<svg width="15" height="16" viewBox="0 0 15 16" fill="none" xmlns="http://www.w3.org/2000/svg">
<path d="M14.0623 0C14.0623 1.85645 13.3247 3.63721 12.012 4.94971C10.9222 6.03955 9.51025 6.73291 8 6.93701V10H11V12H8V16H6V12H3V10H6V6.91895C4.53674 6.69434 3.17224 6.00977 2.11255 4.94971C0.799805 3.63721 0.0622559 1.85645 0.0622559 0H2.06226C2.06226 1.32617 2.58899 2.59766 3.52673 3.53564C4.20984 4.21875 5.07031 4.68359 6 4.88574V0H8V4.91113C8.97717 4.72461 9.88428 4.24902 10.5978 3.53564C11.5355 2.59766 12.0623 1.32617 12.0623 0H14.0623Z" fill="white"/>
</svg>
