<svg width="16" height="17" viewBox="0 0 16 17" fill="none" xmlns="http://www.w3.org/2000/svg">
<path fill-rule="evenodd" clip-rule="evenodd" d="M11 3C11 4.30615 10.1652 5.41748 9 5.8291V8.92627C10.2439 8.72949 11.4032 8.14404 12.3049 7.24268C13.4301 6.11719 14.0623 4.59131 14.0623 3H16C16 5.12158 15.1571 7.15674 13.6569 8.65674C12.3943 9.91943 10.7531 10.7168 9 10.9375V13H12V15H9V17H7V15H4V13H7V10.9375C5.24695 10.7168 3.60571 9.91943 2.34314 8.65674C0.842896 7.15674 0 5.12158 0 3H2.06226C2.06226 4.59131 2.69446 6.11719 3.81958 7.24268C4.69116 8.11426 5.80334 8.68994 7 8.90527V5.8291C5.83484 5.41748 5 4.30615 5 3C5 1.34326 6.34314 0 8 0C9.65686 0 11 1.34326 11 3ZM9 3C9 3.55225 8.55225 4 8 4C7.44775 4 7 3.55225 7 3C7 2.44775 7.44775 2 8 2C8.55225 2 9 2.44775 9 3Z" fill="white"/>
</svg>
