<svg width="8" height="16" viewBox="0 0 8 16" fill="none" xmlns="http://www.w3.org/2000/svg">
<path d="M4.8136 2.60986C5.24854 3.30273 5.5 4.12207 5.5 5C5.5 5.87793 5.24854 6.69727 4.8136 7.39014C4.38599 8.0708 3.78113 8.62891 3.0636 9H3V9.03223C2.39746 9.33154 1.71838 9.5 1 9.5C0.936279 9.5 0.872925 9.49854 0.809814 9.49609C0.872437 9.52686 0.935913 9.55615 1 9.58398C1.61243 9.85156 2.28882 10 3 10V12H1V14H3V16H5V14H7V12H5V9.58398C5.48254 9.37305 5.92529 9.08838 6.31409 8.74414C7.34814 7.82812 8 6.49023 8 5C8 3.50977 7.34814 2.17188 6.31409 1.25586C5.43188 0.474609 4.27136 0 3 0C2.28882 0 1.61243 0.148438 1 0.416016C0.935913 0.443848 0.872437 0.473145 0.809814 0.503906C0.872925 0.501465 0.936279 0.5 1 0.5C1.71838 0.5 2.39746 0.668457 3 0.967773C3.74536 1.33838 4.37341 1.90918 4.8136 2.60986Z" fill="white"/>
</svg>
