<svg width="14" height="14" viewBox="0 0 14 14" fill="none" xmlns="http://www.w3.org/2000/svg">
<path d="M9 7C9 8.10457 8.10457 9 7 9C5.89543 9 5 8.10457 5 7C5 5.89543 5.89543 5 7 5C8.10457 5 9 5.89543 9 7Z" fill="white"/>
<path fill-rule="evenodd" clip-rule="evenodd" d="M7 14C10.866 14 14 10.866 14 7C14 3.13401 10.866 0 7 0C3.13401 0 0 3.13401 0 7C0 10.866 3.13401 14 7 14ZM7 12C9.76142 12 12 9.76142 12 7C12 4.23858 9.76142 2 7 2C4.23858 2 2 4.23858 2 7C2 9.76142 4.23858 12 7 12Z" fill="white"/>
</svg>
