<svg width="18" height="18" viewBox="0 0 18 18" fill="none" xmlns="http://www.w3.org/2000/svg">
<path fill-rule="evenodd" clip-rule="evenodd" d="M2 2C1.44775 2 1 2.44775 1 3C1 3.55225 1.44775 4 2 4H3.28247C3.75806 4 4.15771 4.33984 4.32764 4.78418C4.66699 5.67188 5.25195 6.43848 5.99951 7C4.7854 7.91211 4 9.36475 4 11C4 13.7612 6.23853 16 9 16C11.7615 16 14 13.7612 14 11C14 9.36426 13.2146 7.91211 12.0002 7C12.7478 6.43848 13.3328 5.67188 13.6719 4.78418C13.8418 4.33984 14.2415 4 14.717 4H16C16.5522 4 17 3.55225 17 3C17 2.44775 16.5522 2 16 2H13.9998C12.8953 2 12.0652 2.92285 11.7202 3.97217C11.3435 5.11914 10.5352 6 8.99976 6C7.46436 6 6.65601 5.11914 6.2793 3.97217C5.93433 2.92285 5.10425 2 3.99976 2H2ZM12 11C12 12.6567 10.6567 14 9 14C7.34326 14 6 12.6567 6 11C6 9.34326 7.34326 8 9 8C10.6567 8 12 9.34326 12 11Z" fill="white"/>
</svg>
