<svg width="16" height="17" viewBox="0 0 16 17" fill="none" xmlns="http://www.w3.org/2000/svg">
<path fill-rule="evenodd" clip-rule="evenodd" d="M4.06226 2.54932C3.44788 1.49023 2.56421 0.611816 1.5 0L0.615967 1.52393C1.41138 1.98047 2.07178 2.6377 2.53101 3.4292C2.99023 4.21973 3.23193 5.11768 3.23193 6.03125C3.23193 6.94482 2.99023 7.84277 2.53101 8.63379C2.07178 9.4248 1.41138 10.082 0.615967 10.5386L1.5 12.062C2.56421 11.4507 3.44788 10.5718 4.06226 9.51318C4.51318 8.73584 4.80725 7.88232 4.93188 7H7.0033V9.12598C5.27808 9.56982 4.0033 11.1362 4.0033 13C4.0033 15.209 5.79419 17 8.0033 17C10.2124 17 12.0033 15.209 12.0033 13C12.0033 11.1362 10.7285 9.56982 9.0033 9.12598V7H11.0681C11.1927 7.88232 11.4869 8.73584 11.9379 9.5127C12.5522 10.5718 13.4359 11.4507 14.5 12.062L15.384 10.5386C14.5886 10.082 13.9282 9.4248 13.4691 8.63379C13.0099 7.84229 12.7681 6.94482 12.7681 6.03125C12.7681 5.11768 13.0099 4.21973 13.4691 3.42871C13.9282 2.63721 14.5887 1.98047 15.384 1.52344L14.5 0C13.4359 0.611328 12.5522 1.49023 11.9379 2.54883C11.4976 3.30762 11.2067 4.13965 11.0771 5H9.0033V2H7.0033V5H4.92285C4.79333 4.13965 4.50256 3.30811 4.06226 2.54932ZM6.0033 13C6.0033 11.8955 6.89868 11 8.0033 11C9.10791 11 10.0033 11.8955 10.0033 13C10.0033 14.1045 9.10791 15 8.0033 15C6.89868 15 6.0033 14.1045 6.0033 13Z" fill="white"/>
</svg>
